<?xml version="1.0" encoding="UTF-8" standalone="no"?><svg xmlns="http://www.w3.org/2000/svg" xmlns:xlink="http://www.w3.org/1999/xlink" contentScriptType="application/ecmascript" contentStyleType="text/css" height="891px" preserveAspectRatio="none" style="width:852px;height:891px;" version="1.1" viewBox="0 0 852 891" width="852px" zoomAndPan="magnify"><defs><filter height="300%" id="f1jfkzf" width="300%" x="-1" y="-1"><feGaussianBlur result="blurOut" stdDeviation="2.0"/><feColorMatrix in="blurOut" result="blurOut2" type="matrix" values="0 0 0 0 0 0 0 0 0 0 0 0 0 0 0 0 0 0 .4 0"/><feOffset dx="4.0" dy="4.0" in="blurOut2" result="blurOut3"/><feBlend in="SourceGraphic" in2="blurOut3" mode="normal"/></filter></defs><g><rect fill="#FFFFFF" filter="url(#f1jfkzf)" height="680.5215" style="stroke: #A80036; stroke-width: 1.0;" width="10" x="21.5" y="117.4883"/><rect fill="#FFFFFF" filter="url(#f1jfkzf)" height="29.3105" style="stroke: #A80036; stroke-width: 1.0;" width="10" x="26.5" y="700.7676"/><rect fill="#FFFFFF" filter="url(#f1jfkzf)" height="29.3105" style="stroke: #A80036; stroke-width: 1.0;" width="10" x="80" y="190.1094"/><rect fill="#FFFFFF" filter="url(#f1jfkzf)" height="671.2109" style="stroke: #A80036; stroke-width: 1.0;" width="10" x="277" y="117.4883"/><rect fill="#FFFFFF" filter="url(#f1jfkzf)" height="28" style="stroke: #A80036; stroke-width: 1.0;" width="10" x="282" y="475.9043"/><rect fill="#FFFFFF" filter="url(#f1jfkzf)" height="29.3105" style="stroke: #A80036; stroke-width: 1.0;" width="10" x="603" y="307.3516"/><rect fill="#FFFFFF" filter="url(#f1jfkzf)" height="29.3105" style="stroke: #A80036; stroke-width: 1.0;" width="10" x="703" y="248.7305"/><rect fill="#FFFFFF" filter="url(#f1jfkzf)" height="379.416" style="stroke: #A80036; stroke-width: 1.0;" width="10" x="703" y="409.2832"/><rect fill="#FFFFFF" filter="url(#f1jfkzf)" height="117.2422" style="stroke: #A80036; stroke-width: 1.0;" width="10" x="792" y="642.1465"/><rect fill="#FFFFFF" filter="url(#f1jfkzf)" height="29.3105" style="stroke: #A80036; stroke-width: 1.0;" width="10" x="797" y="700.7676"/><line style="stroke: #A80036; stroke-width: 1.0; stroke-dasharray: 5.0,5.0;" x1="26" x2="26" y1="86.4883" y2="807.0098"/><line style="stroke: #A80036; stroke-width: 1.0; stroke-dasharray: 5.0,5.0;" x1="85" x2="85" y1="86.4883" y2="807.0098"/><line style="stroke: #A80036; stroke-width: 1.0; stroke-dasharray: 5.0,5.0;" x1="282" x2="282" y1="86.4883" y2="807.0098"/><line style="stroke: #A80036; stroke-width: 1.0; stroke-dasharray: 5.0,5.0;" x1="607.5" x2="607.5" y1="86.4883" y2="807.0098"/><line style="stroke: #A80036; stroke-width: 1.0; stroke-dasharray: 5.0,5.0;" x1="708" x2="708" y1="86.4883" y2="807.0098"/><line style="stroke: #A80036; stroke-width: 1.0; stroke-dasharray: 5.0,5.0;" x1="797" x2="797" y1="86.4883" y2="807.0098"/><text fill="#000000" font-family="sans-serif" font-size="14" lengthAdjust="spacingAndGlyphs" textLength="31" x="8" y="83.5352">User</text><ellipse cx="26.5" cy="13" fill="#FEFECE" filter="url(#f1jfkzf)" rx="8" ry="8" style="stroke: #A80036; stroke-width: 2.0;"/><path d="M26.5,21 L26.5,48 M13.5,29 L39.5,29 M26.5,48 L13.5,63 M26.5,48 L39.5,63 " fill="#FEFECE" filter="url(#f1jfkzf)" style="stroke: #A80036; stroke-width: 2.0;"/><text fill="#000000" font-family="sans-serif" font-size="14" lengthAdjust="spacingAndGlyphs" textLength="31" x="8" y="819.5449">User</text><ellipse cx="26.5" cy="832.498" fill="#FEFECE" filter="url(#f1jfkzf)" rx="8" ry="8" style="stroke: #A80036; stroke-width: 2.0;"/><path d="M26.5,840.498 L26.5,867.498 M13.5,848.498 L39.5,848.498 M26.5,867.498 L13.5,882.498 M26.5,867.498 L39.5,882.498 " fill="#FEFECE" filter="url(#f1jfkzf)" style="stroke: #A80036; stroke-width: 2.0;"/><rect fill="#FEFECE" filter="url(#f1jfkzf)" height="30.4883" style="stroke: #A80036; stroke-width: 1.5;" width="56" x="55" y="51"/><text fill="#000000" font-family="sans-serif" font-size="14" lengthAdjust="spacingAndGlyphs" textLength="42" x="62" y="71.5352">Authn</text><rect fill="#FEFECE" filter="url(#f1jfkzf)" height="30.4883" style="stroke: #A80036; stroke-width: 1.5;" width="56" x="55" y="806.0098"/><text fill="#000000" font-family="sans-serif" font-size="14" lengthAdjust="spacingAndGlyphs" textLength="42" x="62" y="826.5449">Authn</text><rect fill="#FEFECE" filter="url(#f1jfkzf)" height="30.4883" style="stroke: #A80036; stroke-width: 1.5;" width="134" x="213" y="51"/><text fill="#000000" font-family="sans-serif" font-size="14" lengthAdjust="spacingAndGlyphs" textLength="120" x="220" y="71.5352">Reservoir Control</text><rect fill="#FEFECE" filter="url(#f1jfkzf)" height="30.4883" style="stroke: #A80036; stroke-width: 1.5;" width="134" x="213" y="806.0098"/><text fill="#000000" font-family="sans-serif" font-size="14" lengthAdjust="spacingAndGlyphs" textLength="120" x="220" y="826.5449">Reservoir Control</text><rect fill="#FEFECE" filter="url(#f1jfkzf)" height="30.4883" style="stroke: #A80036; stroke-width: 1.5;" width="55" x="578.5" y="51"/><text fill="#000000" font-family="sans-serif" font-size="14" lengthAdjust="spacingAndGlyphs" textLength="41" x="585.5" y="71.5352">Authz</text><rect fill="#FEFECE" filter="url(#f1jfkzf)" height="30.4883" style="stroke: #A80036; stroke-width: 1.5;" width="55" x="578.5" y="806.0098"/><text fill="#000000" font-family="sans-serif" font-size="14" lengthAdjust="spacingAndGlyphs" textLength="41" x="585.5" y="826.5449">Authz</text><text fill="#000000" font-family="sans-serif" font-size="14" lengthAdjust="spacingAndGlyphs" textLength="62" x="674" y="83.5352">Directory</text><path d="M690,34 C690,24 708,24 708,24 C708,24 726,24 726,34 L726,60 C726,70 708,70 708,70 C708,70 690,70 690,60 L690,34 " fill="#FEFECE" filter="url(#f1jfkzf)" style="stroke: #000000; stroke-width: 1.5;"/><path d="M690,34 C690,44 708,44 708,44 C708,44 726,44 726,34 " fill="none" style="stroke: #000000; stroke-width: 1.5;"/><text fill="#000000" font-family="sans-serif" font-size="14" lengthAdjust="spacingAndGlyphs" textLength="62" x="674" y="819.5449">Directory</text><path d="M690,832.498 C690,822.498 708,822.498 708,822.498 C708,822.498 726,822.498 726,832.498 L726,858.498 C726,868.498 708,868.498 708,868.498 C708,868.498 690,868.498 690,858.498 L690,832.498 " fill="#FEFECE" filter="url(#f1jfkzf)" style="stroke: #000000; stroke-width: 1.5;"/><path d="M690,832.498 C690,842.498 708,842.498 708,842.498 C708,842.498 726,842.498 726,832.498 " fill="none" style="stroke: #000000; stroke-width: 1.5;"/><text fill="#000000" font-family="sans-serif" font-size="14" lengthAdjust="spacingAndGlyphs" textLength="84" x="752" y="83.5352">Object Store</text><path d="M779,34 C779,24 797,24 797,24 C797,24 815,24 815,34 L815,60 C815,70 797,70 797,70 C797,70 779,70 779,60 L779,34 " fill="#FEFECE" filter="url(#f1jfkzf)" style="stroke: #000000; stroke-width: 1.5;"/><path d="M779,34 C779,44 797,44 797,44 C797,44 815,44 815,34 " fill="none" style="stroke: #000000; stroke-width: 1.5;"/><text fill="#000000" font-family="sans-serif" font-size="14" lengthAdjust="spacingAndGlyphs" textLength="84" x="752" y="819.5449">Object Store</text><path d="M779,832.498 C779,822.498 797,822.498 797,822.498 C797,822.498 815,822.498 815,832.498 L815,858.498 C815,868.498 797,868.498 797,868.498 C797,868.498 779,868.498 779,858.498 L779,832.498 " fill="#FEFECE" filter="url(#f1jfkzf)" style="stroke: #000000; stroke-width: 1.5;"/><path d="M779,832.498 C779,842.498 797,842.498 797,842.498 C797,842.498 815,842.498 815,832.498 " fill="none" style="stroke: #000000; stroke-width: 1.5;"/><rect fill="#FFFFFF" filter="url(#f1jfkzf)" height="680.5215" style="stroke: #A80036; stroke-width: 1.0;" width="10" x="21.5" y="117.4883"/><rect fill="#FFFFFF" filter="url(#f1jfkzf)" height="29.3105" style="stroke: #A80036; stroke-width: 1.0;" width="10" x="26.5" y="700.7676"/><rect fill="#FFFFFF" filter="url(#f1jfkzf)" height="29.3105" style="stroke: #A80036; stroke-width: 1.0;" width="10" x="80" y="190.1094"/><rect fill="#FFFFFF" filter="url(#f1jfkzf)" height="671.2109" style="stroke: #A80036; stroke-width: 1.0;" width="10" x="277" y="117.4883"/><rect fill="#FFFFFF" filter="url(#f1jfkzf)" height="28" style="stroke: #A80036; stroke-width: 1.0;" width="10" x="282" y="475.9043"/><rect fill="#FFFFFF" filter="url(#f1jfkzf)" height="29.3105" style="stroke: #A80036; stroke-width: 1.0;" width="10" x="603" y="307.3516"/><rect fill="#FFFFFF" filter="url(#f1jfkzf)" height="29.3105" style="stroke: #A80036; stroke-width: 1.0;" width="10" x="703" y="248.7305"/><rect fill="#FFFFFF" filter="url(#f1jfkzf)" height="379.416" style="stroke: #A80036; stroke-width: 1.0;" width="10" x="703" y="409.2832"/><rect fill="#FFFFFF" filter="url(#f1jfkzf)" height="117.2422" style="stroke: #A80036; stroke-width: 1.0;" width="10" x="792" y="642.1465"/><rect fill="#FFFFFF" filter="url(#f1jfkzf)" height="29.3105" style="stroke: #A80036; stroke-width: 1.0;" width="10" x="797" y="700.7676"/><polygon fill="#A80036" points="265,113.4883,275,117.4883,265,121.4883,269,117.4883" style="stroke: #A80036; stroke-width: 1.0;"/><line style="stroke: #A80036; stroke-width: 1.0;" x1="31.5" x2="271" y1="117.4883" y2="117.4883"/><text fill="#000000" font-family="sans-serif" font-size="13" font-weight="bold" lengthAdjust="spacingAndGlyphs" textLength="9" x="38.5" y="113.0566">1</text><text fill="#000000" font-family="sans-serif" font-size="13" lengthAdjust="spacingAndGlyphs" textLength="203" x="51.5" y="113.0566">Write $obj To someone@domain</text><rect fill="#EEEEEE" filter="url(#f1jfkzf)" height="3" style="stroke: #EEEEEE; stroke-width: 1.0;" width="844" x="3" y="146.4541"/><line style="stroke: #000000; stroke-width: 1.0;" x1="3" x2="847" y1="146.4541" y2="146.4541"/><line style="stroke: #000000; stroke-width: 1.0;" x1="3" x2="847" y1="149.4541" y2="149.4541"/><rect fill="#EEEEEE" filter="url(#f1jfkzf)" height="23.3105" style="stroke: #000000; stroke-width: 2.0;" width="117" x="366.5" y="135.7988"/><text fill="#000000" font-family="sans-serif" font-size="13" font-weight="bold" lengthAdjust="spacingAndGlyphs" textLength="99" x="372.5" y="152.3672">Access Control</text><polygon fill="#A80036" points="101,186.1094,91,190.1094,101,194.1094,97,190.1094" style="stroke: #A80036; stroke-width: 1.0;"/><line style="stroke: #A80036; stroke-width: 1.0;" x1="95" x2="276" y1="190.1094" y2="190.1094"/><text fill="#000000" font-family="sans-serif" font-size="13" font-weight="bold" lengthAdjust="spacingAndGlyphs" textLength="9" x="107" y="185.6777">2</text><text fill="#000000" font-family="sans-serif" font-size="13" lengthAdjust="spacingAndGlyphs" textLength="136" x="120" y="185.6777">SecureLayer @domain</text><polygon fill="#A80036" points="265,215.4199,275,219.4199,265,223.4199,269,219.4199" style="stroke: #A80036; stroke-width: 1.0;"/><line style="stroke: #A80036; stroke-width: 1.0;" x1="85" x2="271" y1="219.4199" y2="219.4199"/><text fill="#000000" font-family="sans-serif" font-size="13" font-weight="bold" lengthAdjust="spacingAndGlyphs" textLength="9" x="92" y="214.9883">3</text><text fill="#000000" font-family="sans-serif" font-size="13" lengthAdjust="spacingAndGlyphs" textLength="150" x="105" y="214.9883">RemoteID user@domain</text><polygon fill="#A80036" points="691,244.7305,701,248.7305,691,252.7305,695,248.7305" style="stroke: #A80036; stroke-width: 1.0;"/><line style="stroke: #A80036; stroke-width: 1.0;" x1="287" x2="697" y1="248.7305" y2="248.7305"/><text fill="#000000" font-family="sans-serif" font-size="13" font-weight="bold" lengthAdjust="spacingAndGlyphs" textLength="9" x="294" y="244.2988">4</text><text fill="#000000" font-family="sans-serif" font-size="13" lengthAdjust="spacingAndGlyphs" textLength="322" x="307" y="244.2988">Search $obj OF someone@domain AS user@domain</text><polygon fill="#A80036" points="298,274.041,288,278.041,298,282.041,294,278.041" style="stroke: #A80036; stroke-width: 1.0;"/><line style="stroke: #A80036; stroke-width: 1.0;" x1="292" x2="707" y1="278.041" y2="278.041"/><text fill="#000000" font-family="sans-serif" font-size="13" font-weight="bold" lengthAdjust="spacingAndGlyphs" textLength="9" x="304" y="273.6094">5</text><text fill="#000000" font-family="sans-serif" font-size="13" lengthAdjust="spacingAndGlyphs" textLength="95" x="317" y="273.6094">Collection $col</text><polygon fill="#A80036" points="591,303.3516,601,307.3516,591,311.3516,595,307.3516" style="stroke: #A80036; stroke-width: 1.0;"/><line style="stroke: #A80036; stroke-width: 1.0;" x1="287" x2="597" y1="307.3516" y2="307.3516"/><text fill="#000000" font-family="sans-serif" font-size="13" font-weight="bold" lengthAdjust="spacingAndGlyphs" textLength="9" x="294" y="302.9199">6</text><text fill="#000000" font-family="sans-serif" font-size="13" lengthAdjust="spacingAndGlyphs" textLength="284" x="307" y="302.9199">WANT object-write ON $col AS user@domain</text><polygon fill="#A80036" points="298,332.6621,288,336.6621,298,340.6621,294,336.6621" style="stroke: #A80036; stroke-width: 1.0;"/><line style="stroke: #A80036; stroke-width: 1.0;" x1="292" x2="607" y1="336.6621" y2="336.6621"/><text fill="#000000" font-family="sans-serif" font-size="13" font-weight="bold" lengthAdjust="spacingAndGlyphs" textLength="9" x="304" y="332.2305">7</text><text fill="#000000" font-family="sans-serif" font-size="13" lengthAdjust="spacingAndGlyphs" textLength="180" x="317" y="332.2305">WRITERS HAS user1@domain</text><rect fill="#EEEEEE" filter="url(#f1jfkzf)" height="3" style="stroke: #EEEEEE; stroke-width: 1.0;" width="844" x="3" y="365.6279"/><line style="stroke: #000000; stroke-width: 1.0;" x1="3" x2="847" y1="365.6279" y2="365.6279"/><line style="stroke: #000000; stroke-width: 1.0;" x1="3" x2="847" y1="368.6279" y2="368.6279"/><rect fill="#EEEEEE" filter="url(#f1jfkzf)" height="23.3105" style="stroke: #000000; stroke-width: 2.0;" width="82" x="384" y="354.9727"/><text fill="#000000" font-family="sans-serif" font-size="13" font-weight="bold" lengthAdjust="spacingAndGlyphs" textLength="64" x="390" y="371.541">MetaData</text><polygon fill="#A80036" points="691,405.2832,701,409.2832,691,413.2832,695,409.2832" style="stroke: #A80036; stroke-width: 1.0;"/><line style="stroke: #A80036; stroke-width: 1.0;" x1="287" x2="697" y1="409.2832" y2="409.2832"/><text fill="#000000" font-family="sans-serif" font-size="13" font-weight="bold" lengthAdjust="spacingAndGlyphs" textLength="9" x="294" y="404.8516">8</text><text fill="#000000" font-family="sans-serif" font-size="13" lengthAdjust="spacingAndGlyphs" textLength="122" x="307" y="404.8516">Search $obj IN $col</text><polygon fill="#A80036" points="298,434.5938,288,438.5938,298,442.5938,294,438.5938" style="stroke: #A80036; stroke-width: 1.0;"/><line style="stroke: #A80036; stroke-width: 1.0;" x1="292" x2="702" y1="438.5938" y2="438.5938"/><text fill="#000000" font-family="sans-serif" font-size="13" font-weight="bold" lengthAdjust="spacingAndGlyphs" textLength="9" x="304" y="434.1621">9</text><text fill="#000000" font-family="sans-serif" font-size="13" lengthAdjust="spacingAndGlyphs" textLength="146" x="317" y="434.1621">MetaData or Not Found</text><line style="stroke: #A80036; stroke-width: 1.0;" x1="292" x2="334" y1="468.2148" y2="468.2148"/><line style="stroke: #A80036; stroke-width: 1.0;" x1="334" x2="334" y1="468.2148" y2="481.2148"/><line style="stroke: #A80036; stroke-width: 1.0;" x1="293" x2="334" y1="481.2148" y2="481.2148"/><polygon fill="#A80036" points="303,477.2148,293,481.2148,303,485.2148,299,481.2148" style="stroke: #A80036; stroke-width: 1.0;"/><text fill="#000000" font-family="sans-serif" font-size="13" font-weight="bold" lengthAdjust="spacingAndGlyphs" textLength="18" x="299" y="463.4727">10</text><text fill="#000000" font-family="sans-serif" font-size="13" lengthAdjust="spacingAndGlyphs" textLength="184" x="321" y="463.4727">Choose storage location $loc</text><polygon fill="#A80036" points="691,536.2148,701,540.2148,691,544.2148,695,540.2148" style="stroke: #A80036; stroke-width: 1.0;"/><line style="stroke: #A80036; stroke-width: 1.0;" x1="287" x2="697" y1="540.2148" y2="540.2148"/><text fill="#000000" font-family="sans-serif" font-size="13" font-weight="bold" lengthAdjust="spacingAndGlyphs" textLength="18" x="294" y="535.7832">11</text><text fill="#000000" font-family="sans-serif" font-size="13" lengthAdjust="spacingAndGlyphs" textLength="370" x="316" y="535.7832">Write $obj IN $col OF someone@domain AS user1@domain</text><polygon fill="#A80036" points="298,565.5254,288,569.5254,298,573.5254,294,569.5254" style="stroke: #A80036; stroke-width: 1.0;"/><line style="stroke: #A80036; stroke-width: 1.0;" x1="292" x2="702" y1="569.5254" y2="569.5254"/><text fill="#000000" font-family="sans-serif" font-size="13" font-weight="bold" lengthAdjust="spacingAndGlyphs" textLength="18" x="304" y="565.0938">12</text><text fill="#000000" font-family="sans-serif" font-size="13" lengthAdjust="spacingAndGlyphs" textLength="33" x="326" y="565.0938">Done</text><rect fill="#EEEEEE" filter="url(#f1jfkzf)" height="3" style="stroke: #EEEEEE; stroke-width: 1.0;" width="844" x="3" y="598.4912"/><line style="stroke: #000000; stroke-width: 1.0;" x1="3" x2="847" y1="598.4912" y2="598.4912"/><line style="stroke: #000000; stroke-width: 1.0;" x1="3" x2="847" y1="601.4912" y2="601.4912"/><rect fill="#EEEEEE" filter="url(#f1jfkzf)" height="23.3105" style="stroke: #000000; stroke-width: 2.0;" width="62" x="394" y="587.8359"/><text fill="#000000" font-family="sans-serif" font-size="13" font-weight="bold" lengthAdjust="spacingAndGlyphs" textLength="44" x="400" y="604.4043">Object</text><polygon fill="#A80036" points="780,638.1465,790,642.1465,780,646.1465,784,642.1465" style="stroke: #A80036; stroke-width: 1.0;"/><line style="stroke: #A80036; stroke-width: 1.0;" x1="287" x2="786" y1="642.1465" y2="642.1465"/><text fill="#000000" font-family="sans-serif" font-size="13" font-weight="bold" lengthAdjust="spacingAndGlyphs" textLength="18" x="294" y="637.7148">13</text><text fill="#000000" font-family="sans-serif" font-size="13" lengthAdjust="spacingAndGlyphs" textLength="182" x="316" y="637.7148">Store $obj at $loc AS domain</text><polygon fill="#A80036" points="42.5,667.457,32.5,671.457,42.5,675.457,38.5,671.457" style="stroke: #A80036; stroke-width: 1.0;"/><line style="stroke: #A80036; stroke-width: 1.0;" x1="36.5" x2="276" y1="671.457" y2="671.457"/><text fill="#000000" font-family="sans-serif" font-size="13" font-weight="bold" lengthAdjust="spacingAndGlyphs" textLength="18" x="48.5" y="667.0254">14</text><text fill="#000000" font-family="sans-serif" font-size="13" lengthAdjust="spacingAndGlyphs" textLength="145" x="70.5" y="667.0254">Store at $loc over $cnx</text><polygon fill="#A80036" points="785,696.7676,795,700.7676,785,704.7676,789,700.7676" style="stroke: #A80036; stroke-width: 1.0;"/><line style="stroke: #A80036; stroke-width: 1.0;" x1="36.5" x2="791" y1="700.7676" y2="700.7676"/><text fill="#000000" font-family="sans-serif" font-size="13" font-weight="bold" lengthAdjust="spacingAndGlyphs" textLength="18" x="43.5" y="696.3359">15</text><text fill="#000000" font-family="sans-serif" font-size="13" lengthAdjust="spacingAndGlyphs" textLength="116" x="65.5" y="696.3359">Write $obj to $cnx</text><polygon fill="#A80036" points="42.5,726.0781,32.5,730.0781,42.5,734.0781,38.5,730.0781" style="stroke: #A80036; stroke-width: 1.0;"/><line style="stroke: #A80036; stroke-width: 1.0;" x1="36.5" x2="791" y1="730.0781" y2="730.0781"/><text fill="#000000" font-family="sans-serif" font-size="13" font-weight="bold" lengthAdjust="spacingAndGlyphs" textLength="18" x="48.5" y="725.6465">16</text><text fill="#000000" font-family="sans-serif" font-size="13" lengthAdjust="spacingAndGlyphs" textLength="88" x="70.5" y="725.6465">Done on $cnx</text><polygon fill="#A80036" points="298,755.3887,288,759.3887,298,763.3887,294,759.3887" style="stroke: #A80036; stroke-width: 1.0;"/><line style="stroke: #A80036; stroke-width: 1.0;" x1="292" x2="796" y1="759.3887" y2="759.3887"/><text fill="#000000" font-family="sans-serif" font-size="13" font-weight="bold" lengthAdjust="spacingAndGlyphs" textLength="18" x="304" y="754.957">17</text><text fill="#000000" font-family="sans-serif" font-size="13" lengthAdjust="spacingAndGlyphs" textLength="88" x="326" y="754.957">Done on $cnx</text><polygon fill="#A80036" points="696,784.6992,706,788.6992,696,792.6992,700,788.6992" style="stroke: #A80036; stroke-width: 1.0;"/><line style="stroke: #A80036; stroke-width: 1.0;" x1="282" x2="702" y1="788.6992" y2="788.6992"/><text fill="#000000" font-family="sans-serif" font-size="13" font-weight="bold" lengthAdjust="spacingAndGlyphs" textLength="18" x="289" y="784.2676">18</text><text fill="#000000" font-family="sans-serif" font-size="13" lengthAdjust="spacingAndGlyphs" textLength="150" x="311" y="784.2676">Commit/Keep MetaData</text></g></svg>