<?xml version="1.0" encoding="UTF-8" standalone="no"?><svg xmlns="http://www.w3.org/2000/svg" xmlns:xlink="http://www.w3.org/1999/xlink" contentScriptType="application/ecmascript" contentStyleType="text/css" height="777px" preserveAspectRatio="none" style="width:977px;height:777px;" version="1.1" viewBox="0 0 977 777" width="977px" zoomAndPan="magnify"><defs><filter height="300%" id="fjktmui" width="300%" x="-1" y="-1"><feGaussianBlur result="blurOut" stdDeviation="2.0"/><feColorMatrix in="blurOut" result="blurOut2" type="matrix" values="0 0 0 0 0 0 0 0 0 0 0 0 0 0 0 0 0 0 .4 0"/><feOffset dx="4.0" dy="4.0" in="blurOut2" result="blurOut3"/><feBlend in="SourceGraphic" in2="blurOut3" mode="normal"/></filter></defs><g><rect fill="#FFFFFF" filter="url(#fjktmui)" height="58.6211" style="stroke: #A80036; stroke-width: 1.0;" width="10" x="80" y="117.4883"/><rect fill="#FFFFFF" filter="url(#fjktmui)" height="284.7949" style="stroke: #A80036; stroke-width: 1.0;" width="10" x="277" y="96.4883"/><rect fill="#FFFFFF" filter="url(#fjktmui)" height="293.1055" style="stroke: #A80036; stroke-width: 1.0;" width="10" x="505" y="381.2832"/><rect fill="#FFFFFF" filter="url(#fjktmui)" height="58.6211" style="stroke: #A80036; stroke-width: 1.0;" width="10" x="663" y="176.1094"/><rect fill="#FFFFFF" filter="url(#fjktmui)" height="117.2422" style="stroke: #A80036; stroke-width: 1.0;" width="10" x="947" y="234.7305"/><rect fill="#FFFFFF" filter="url(#fjktmui)" height="234.4844" style="stroke: #A80036; stroke-width: 1.0;" width="10" x="947" y="439.9043"/><line style="stroke: #A80036; stroke-width: 1.0; stroke-dasharray: 5.0,5.0;" x1="26" x2="26" y1="86.4883" y2="692.6992"/><line style="stroke: #A80036; stroke-width: 1.0; stroke-dasharray: 5.0,5.0;" x1="85" x2="85" y1="86.4883" y2="692.6992"/><line style="stroke: #A80036; stroke-width: 1.0; stroke-dasharray: 5.0,5.0;" x1="281.5" x2="281.5" y1="86.4883" y2="692.6992"/><line style="stroke: #A80036; stroke-width: 1.0; stroke-dasharray: 5.0,5.0;" x1="510" x2="510" y1="86.4883" y2="692.6992"/><line style="stroke: #A80036; stroke-width: 1.0; stroke-dasharray: 5.0,5.0;" x1="667.5" x2="667.5" y1="86.4883" y2="692.6992"/><line style="stroke: #A80036; stroke-width: 1.0; stroke-dasharray: 5.0,5.0;" x1="951.5" x2="951.5" y1="86.4883" y2="692.6992"/><text fill="#000000" font-family="sans-serif" font-size="14" lengthAdjust="spacingAndGlyphs" textLength="31" x="8" y="83.5352">User</text><ellipse cx="26.5" cy="13" fill="#FEFECE" filter="url(#fjktmui)" rx="8" ry="8" style="stroke: #A80036; stroke-width: 2.0;"/><path d="M26.5,21 L26.5,48 M13.5,29 L39.5,29 M26.5,48 L13.5,63 M26.5,48 L39.5,63 " fill="#FEFECE" filter="url(#fjktmui)" style="stroke: #A80036; stroke-width: 2.0;"/><text fill="#000000" font-family="sans-serif" font-size="14" lengthAdjust="spacingAndGlyphs" textLength="31" x="8" y="705.2344">User</text><ellipse cx="26.5" cy="718.1875" fill="#FEFECE" filter="url(#fjktmui)" rx="8" ry="8" style="stroke: #A80036; stroke-width: 2.0;"/><path d="M26.5,726.1875 L26.5,753.1875 M13.5,734.1875 L39.5,734.1875 M26.5,753.1875 L13.5,768.1875 M26.5,753.1875 L39.5,768.1875 " fill="#FEFECE" filter="url(#fjktmui)" style="stroke: #A80036; stroke-width: 2.0;"/><rect fill="#FEFECE" filter="url(#fjktmui)" height="30.4883" style="stroke: #A80036; stroke-width: 1.5;" width="56" x="55" y="51"/><text fill="#000000" font-family="sans-serif" font-size="14" lengthAdjust="spacingAndGlyphs" textLength="42" x="62" y="71.5352">Authn</text><rect fill="#FEFECE" filter="url(#fjktmui)" height="30.4883" style="stroke: #A80036; stroke-width: 1.5;" width="56" x="55" y="691.6992"/><text fill="#000000" font-family="sans-serif" font-size="14" lengthAdjust="spacingAndGlyphs" textLength="42" x="62" y="712.2344">Authn</text><rect fill="#FEFECE" filter="url(#fjktmui)" height="30.4883" style="stroke: #A80036; stroke-width: 1.5;" width="111" x="224.5" y="51"/><text fill="#000000" font-family="sans-serif" font-size="14" lengthAdjust="spacingAndGlyphs" textLength="97" x="231.5" y="71.5352">IdHub Control</text><rect fill="#FEFECE" filter="url(#fjktmui)" height="30.4883" style="stroke: #A80036; stroke-width: 1.5;" width="111" x="224.5" y="691.6992"/><text fill="#000000" font-family="sans-serif" font-size="14" lengthAdjust="spacingAndGlyphs" textLength="97" x="231.5" y="712.2344">IdHub Control</text><rect fill="#FEFECE" filter="url(#fjktmui)" height="30.4883" style="stroke: #A80036; stroke-width: 1.5;" width="102" x="457" y="51"/><text fill="#000000" font-family="sans-serif" font-size="14" lengthAdjust="spacingAndGlyphs" textLength="88" x="464" y="71.5352">Key Manager</text><rect fill="#FEFECE" filter="url(#fjktmui)" height="30.4883" style="stroke: #A80036; stroke-width: 1.5;" width="102" x="457" y="691.6992"/><text fill="#000000" font-family="sans-serif" font-size="14" lengthAdjust="spacingAndGlyphs" textLength="88" x="464" y="712.2344">Key Manager</text><rect fill="#FEFECE" filter="url(#fjktmui)" height="30.4883" style="stroke: #A80036; stroke-width: 1.5;" width="55" x="638.5" y="51"/><text fill="#000000" font-family="sans-serif" font-size="14" lengthAdjust="spacingAndGlyphs" textLength="41" x="645.5" y="71.5352">Authz</text><rect fill="#FEFECE" filter="url(#fjktmui)" height="30.4883" style="stroke: #A80036; stroke-width: 1.5;" width="55" x="638.5" y="691.6992"/><text fill="#000000" font-family="sans-serif" font-size="14" lengthAdjust="spacingAndGlyphs" textLength="41" x="645.5" y="712.2344">Authz</text><text fill="#000000" font-family="sans-serif" font-size="14" lengthAdjust="spacingAndGlyphs" textLength="35" x="931.5" y="83.5352">LDAP</text><path d="M934,34 C934,24 952,24 952,24 C952,24 970,24 970,34 L970,60 C970,70 952,70 952,70 C952,70 934,70 934,60 L934,34 " fill="#FEFECE" filter="url(#fjktmui)" style="stroke: #000000; stroke-width: 1.5;"/><path d="M934,34 C934,44 952,44 952,44 C952,44 970,44 970,34 " fill="none" style="stroke: #000000; stroke-width: 1.5;"/><text fill="#000000" font-family="sans-serif" font-size="14" lengthAdjust="spacingAndGlyphs" textLength="35" x="931.5" y="705.2344">LDAP</text><path d="M934,718.1875 C934,708.1875 952,708.1875 952,708.1875 C952,708.1875 970,708.1875 970,718.1875 L970,744.1875 C970,754.1875 952,754.1875 952,754.1875 C952,754.1875 934,754.1875 934,744.1875 L934,718.1875 " fill="#FEFECE" filter="url(#fjktmui)" style="stroke: #000000; stroke-width: 1.5;"/><path d="M934,718.1875 C934,728.1875 952,728.1875 952,728.1875 C952,728.1875 970,728.1875 970,718.1875 " fill="none" style="stroke: #000000; stroke-width: 1.5;"/><rect fill="#FFFFFF" filter="url(#fjktmui)" height="58.6211" style="stroke: #A80036; stroke-width: 1.0;" width="10" x="80" y="117.4883"/><rect fill="#FFFFFF" filter="url(#fjktmui)" height="284.7949" style="stroke: #A80036; stroke-width: 1.0;" width="10" x="277" y="96.4883"/><rect fill="#FFFFFF" filter="url(#fjktmui)" height="293.1055" style="stroke: #A80036; stroke-width: 1.0;" width="10" x="505" y="381.2832"/><rect fill="#FFFFFF" filter="url(#fjktmui)" height="58.6211" style="stroke: #A80036; stroke-width: 1.0;" width="10" x="663" y="176.1094"/><rect fill="#FFFFFF" filter="url(#fjktmui)" height="117.2422" style="stroke: #A80036; stroke-width: 1.0;" width="10" x="947" y="234.7305"/><rect fill="#FFFFFF" filter="url(#fjktmui)" height="234.4844" style="stroke: #A80036; stroke-width: 1.0;" width="10" x="947" y="439.9043"/><polygon fill="#A80036" points="265,113.4883,275,117.4883,265,121.4883,269,117.4883" style="stroke: #A80036; stroke-width: 1.0;"/><line style="stroke: #A80036; stroke-width: 1.0;" x1="26.5" x2="271" y1="117.4883" y2="117.4883"/><text fill="#000000" font-family="sans-serif" font-size="13" font-weight="bold" lengthAdjust="spacingAndGlyphs" textLength="9" x="33.5" y="113.0566">1</text><text fill="#000000" font-family="sans-serif" font-size="13" lengthAdjust="spacingAndGlyphs" textLength="174" x="46.5" y="113.0566">Alias Add user+ali@domain</text><polygon fill="#A80036" points="101,142.7988,91,146.7988,101,150.7988,97,146.7988" style="stroke: #A80036; stroke-width: 1.0;"/><line style="stroke: #A80036; stroke-width: 1.0;" x1="95" x2="276" y1="146.7988" y2="146.7988"/><text fill="#000000" font-family="sans-serif" font-size="13" font-weight="bold" lengthAdjust="spacingAndGlyphs" textLength="9" x="107" y="142.3672">2</text><text fill="#000000" font-family="sans-serif" font-size="13" lengthAdjust="spacingAndGlyphs" textLength="136" x="120" y="142.3672">SecureLayer @domain</text><polygon fill="#A80036" points="265,172.1094,275,176.1094,265,180.1094,269,176.1094" style="stroke: #A80036; stroke-width: 1.0;"/><line style="stroke: #A80036; stroke-width: 1.0;" x1="85" x2="271" y1="176.1094" y2="176.1094"/><text fill="#000000" font-family="sans-serif" font-size="13" font-weight="bold" lengthAdjust="spacingAndGlyphs" textLength="9" x="92" y="171.6777">3</text><text fill="#000000" font-family="sans-serif" font-size="13" lengthAdjust="spacingAndGlyphs" textLength="150" x="105" y="171.6777">RemoteID user@domain</text><polygon fill="#A80036" points="651,201.4199,661,205.4199,651,209.4199,655,205.4199" style="stroke: #A80036; stroke-width: 1.0;"/><line style="stroke: #A80036; stroke-width: 1.0;" x1="287" x2="657" y1="205.4199" y2="205.4199"/><text fill="#000000" font-family="sans-serif" font-size="13" font-weight="bold" lengthAdjust="spacingAndGlyphs" textLength="9" x="294" y="200.9883">4</text><text fill="#000000" font-family="sans-serif" font-size="13" lengthAdjust="spacingAndGlyphs" textLength="339" x="307" y="200.9883">WANT alias-create ON user@domain AS user@domain</text><polygon fill="#A80036" points="298,230.7305,288,234.7305,298,238.7305,294,234.7305" style="stroke: #A80036; stroke-width: 1.0;"/><line style="stroke: #A80036; stroke-width: 1.0;" x1="292" x2="667" y1="234.7305" y2="234.7305"/><text fill="#000000" font-family="sans-serif" font-size="13" font-weight="bold" lengthAdjust="spacingAndGlyphs" textLength="9" x="304" y="230.2988">5</text><text fill="#000000" font-family="sans-serif" font-size="13" lengthAdjust="spacingAndGlyphs" textLength="144" x="317" y="230.2988">OK FOR user1@domain</text><polygon fill="#A80036" points="935,260.041,945,264.041,935,268.041,939,264.041" style="stroke: #A80036; stroke-width: 1.0;"/><line style="stroke: #A80036; stroke-width: 1.0;" x1="287" x2="941" y1="264.041" y2="264.041"/><text fill="#000000" font-family="sans-serif" font-size="13" font-weight="bold" lengthAdjust="spacingAndGlyphs" textLength="9" x="294" y="259.6094">6</text><text fill="#000000" font-family="sans-serif" font-size="13" lengthAdjust="spacingAndGlyphs" textLength="272" x="307" y="259.6094">Search user+ali@domain AS user1@domain</text><polygon fill="#0000FF" points="298,289.3516,288,293.3516,298,297.3516,294,293.3516" style="stroke: #0000FF; stroke-width: 1.0;"/><line style="stroke: #0000FF; stroke-width: 1.0; stroke-dasharray: 2.0,2.0;" x1="292" x2="946" y1="293.3516" y2="293.3516"/><text fill="#000000" font-family="sans-serif" font-size="13" font-weight="bold" lengthAdjust="spacingAndGlyphs" textLength="9" x="304" y="288.9199">7</text><text fill="#000000" font-family="sans-serif" font-size="13" lengthAdjust="spacingAndGlyphs" textLength="85" x="317" y="288.9199">UserID Found</text><polygon fill="#0000FF" points="37.5,318.6621,27.5,322.6621,37.5,326.6621,33.5,322.6621" style="stroke: #0000FF; stroke-width: 1.0;"/><line style="stroke: #0000FF; stroke-width: 1.0; stroke-dasharray: 2.0,2.0;" x1="31.5" x2="276" y1="322.6621" y2="322.6621"/><text fill="#000000" font-family="sans-serif" font-size="13" font-weight="bold" lengthAdjust="spacingAndGlyphs" textLength="9" x="43.5" y="318.2305">8</text><text fill="#000000" font-family="sans-serif" font-size="13" lengthAdjust="spacingAndGlyphs" textLength="89" x="56.5" y="318.2305">Already Exists</text><polygon fill="#A80036" points="298,347.9727,288,351.9727,298,355.9727,294,351.9727" style="stroke: #A80036; stroke-width: 1.0;"/><line style="stroke: #A80036; stroke-width: 1.0;" x1="292" x2="951" y1="351.9727" y2="351.9727"/><text fill="#000000" font-family="sans-serif" font-size="13" font-weight="bold" lengthAdjust="spacingAndGlyphs" textLength="9" x="304" y="347.541">9</text><text fill="#000000" font-family="sans-serif" font-size="13" lengthAdjust="spacingAndGlyphs" textLength="112" x="317" y="347.541">UserID Not Found</text><polygon fill="#A80036" points="37.5,377.2832,27.5,381.2832,37.5,385.2832,33.5,381.2832" style="stroke: #A80036; stroke-width: 1.0;"/><line style="stroke: #A80036; stroke-width: 1.0;" x1="31.5" x2="281" y1="381.2832" y2="381.2832"/><text fill="#000000" font-family="sans-serif" font-size="13" font-weight="bold" lengthAdjust="spacingAndGlyphs" textLength="18" x="43.5" y="376.8516">10</text><text fill="#000000" font-family="sans-serif" font-size="13" lengthAdjust="spacingAndGlyphs" textLength="48" x="65.5" y="376.8516">Queued</text><polygon fill="#A80036" points="493,406.5938,503,410.5938,493,414.5938,497,410.5938" style="stroke: #A80036; stroke-width: 1.0;"/><line style="stroke: #A80036; stroke-width: 1.0;" x1="282" x2="499" y1="410.5938" y2="410.5938"/><text fill="#000000" font-family="sans-serif" font-size="13" font-weight="bold" lengthAdjust="spacingAndGlyphs" textLength="18" x="289" y="406.1621">11</text><text fill="#000000" font-family="sans-serif" font-size="13" lengthAdjust="spacingAndGlyphs" textLength="177" x="311" y="406.1621">Have User user+ali@domain</text><polygon fill="#A80036" points="293,435.9043,283,439.9043,293,443.9043,289,439.9043" style="stroke: #A80036; stroke-width: 1.0;"/><line style="stroke: #A80036; stroke-width: 1.0;" x1="287" x2="504" y1="439.9043" y2="439.9043"/><text fill="#000000" font-family="sans-serif" font-size="13" font-weight="bold" lengthAdjust="spacingAndGlyphs" textLength="18" x="299" y="435.4727">12</text><text fill="#000000" font-family="sans-serif" font-size="13" lengthAdjust="spacingAndGlyphs" textLength="48" x="321" y="435.4727">Queued</text><polygon fill="#A80036" points="935,465.2148,945,469.2148,935,473.2148,939,469.2148" style="stroke: #A80036; stroke-width: 1.0;"/><line style="stroke: #A80036; stroke-width: 1.0;" x1="515" x2="941" y1="469.2148" y2="469.2148"/><text fill="#000000" font-family="sans-serif" font-size="13" font-weight="bold" lengthAdjust="spacingAndGlyphs" textLength="18" x="522" y="464.7832">13</text><text fill="#000000" font-family="sans-serif" font-size="13" lengthAdjust="spacingAndGlyphs" textLength="139" x="544" y="464.7832">Retrieve user@domain</text><polygon fill="#A80036" points="526,494.5254,516,498.5254,526,502.5254,522,498.5254" style="stroke: #A80036; stroke-width: 1.0;"/><line style="stroke: #A80036; stroke-width: 1.0;" x1="520" x2="946" y1="498.5254" y2="498.5254"/><text fill="#000000" font-family="sans-serif" font-size="13" font-weight="bold" lengthAdjust="spacingAndGlyphs" textLength="18" x="532" y="494.0938">14</text><text fill="#000000" font-family="sans-serif" font-size="13" lengthAdjust="spacingAndGlyphs" textLength="127" x="554" y="494.0938">Creds MIIEVzCCAz...</text><polygon fill="#A80036" points="526,523.8359,516,527.8359,526,531.8359,522,527.8359" style="stroke: #A80036; stroke-width: 1.0;"/><line style="stroke: #A80036; stroke-width: 1.0;" x1="520" x2="946" y1="527.8359" y2="527.8359"/><text fill="#000000" font-family="sans-serif" font-size="13" font-weight="bold" lengthAdjust="spacingAndGlyphs" textLength="18" x="532" y="523.4043">15</text><text fill="#000000" font-family="sans-serif" font-size="13" lengthAdjust="spacingAndGlyphs" textLength="103" x="554" y="523.4043">pkcs11:xxx;y;zz</text><polygon fill="#A80036" points="935,553.1465,945,557.1465,935,561.1465,939,557.1465" style="stroke: #A80036; stroke-width: 1.0;"/><line style="stroke: #A80036; stroke-width: 1.0;" x1="515" x2="941" y1="557.1465" y2="557.1465"/><text fill="#000000" font-family="sans-serif" font-size="13" font-weight="bold" lengthAdjust="spacingAndGlyphs" textLength="18" x="522" y="552.7148">16</text><text fill="#000000" font-family="sans-serif" font-size="13" lengthAdjust="spacingAndGlyphs" textLength="324" x="544" y="552.7148">Have user+ali@domain XS public AS user1@domain</text><polygon fill="#A80036" points="935,582.457,945,586.457,935,590.457,939,586.457" style="stroke: #A80036; stroke-width: 1.0;"/><line style="stroke: #A80036; stroke-width: 1.0;" x1="515" x2="941" y1="586.457" y2="586.457"/><text fill="#000000" font-family="sans-serif" font-size="13" font-weight="bold" lengthAdjust="spacingAndGlyphs" textLength="18" x="522" y="582.0254">17</text><text fill="#000000" font-family="sans-serif" font-size="13" lengthAdjust="spacingAndGlyphs" textLength="386" x="544" y="582.0254">Have user+ali@domain Alias user@domain AS user1@domain</text><polygon fill="#A80036" points="935,611.7676,945,615.7676,935,619.7676,939,615.7676" style="stroke: #A80036; stroke-width: 1.0;"/><line style="stroke: #A80036; stroke-width: 1.0;" x1="515" x2="941" y1="615.7676" y2="615.7676"/><text fill="#000000" font-family="sans-serif" font-size="13" font-weight="bold" lengthAdjust="spacingAndGlyphs" textLength="18" x="522" y="611.3359">18</text><text fill="#000000" font-family="sans-serif" font-size="13" lengthAdjust="spacingAndGlyphs" textLength="324" x="544" y="611.3359">Have Creds for user+ali@domain AS user1@domain</text><polygon fill="#A80036" points="935,641.0781,945,645.0781,935,649.0781,939,645.0781" style="stroke: #A80036; stroke-width: 1.0;"/><line style="stroke: #A80036; stroke-width: 1.0;" x1="515" x2="941" y1="645.0781" y2="645.0781"/><text fill="#000000" font-family="sans-serif" font-size="13" font-weight="bold" lengthAdjust="spacingAndGlyphs" textLength="18" x="522" y="640.6465">19</text><text fill="#000000" font-family="sans-serif" font-size="13" lengthAdjust="spacingAndGlyphs" textLength="363" x="544" y="640.6465">Have pkcs11:xxx;y;zz XS user@domain AS user1@domain</text><polygon fill="#A80036" points="521,670.3887,511,674.3887,521,678.3887,517,674.3887" style="stroke: #A80036; stroke-width: 1.0;"/><line style="stroke: #A80036; stroke-width: 1.0;" x1="515" x2="951" y1="674.3887" y2="674.3887"/><text fill="#000000" font-family="sans-serif" font-size="13" font-weight="bold" lengthAdjust="spacingAndGlyphs" textLength="18" x="527" y="669.957">20</text><text fill="#000000" font-family="sans-serif" font-size="13" lengthAdjust="spacingAndGlyphs" textLength="37" x="549" y="669.957">Ready</text></g></svg>