<?xml version="1.0" encoding="UTF-8" standalone="no"?><svg xmlns="http://www.w3.org/2000/svg" xmlns:xlink="http://www.w3.org/1999/xlink" contentScriptType="application/ecmascript" contentStyleType="text/css" height="807px" preserveAspectRatio="none" style="width:982px;height:807px;" version="1.1" viewBox="0 0 982 807" width="982px" zoomAndPan="magnify"><defs><filter height="300%" id="fb7v042" width="300%" x="-1" y="-1"><feGaussianBlur result="blurOut" stdDeviation="2.0"/><feColorMatrix in="blurOut" result="blurOut2" type="matrix" values="0 0 0 0 0 0 0 0 0 0 0 0 0 0 0 0 0 0 .4 0"/><feOffset dx="4.0" dy="4.0" in="blurOut2" result="blurOut3"/><feBlend in="SourceGraphic" in2="blurOut3" mode="normal"/></filter></defs><g><rect fill="#FFFFFF" filter="url(#fb7v042)" height="294.7949" style="stroke: #A80036; stroke-width: 1.0;" width="10" x="21.5" y="96.4883"/><rect fill="#FFFFFF" filter="url(#fb7v042)" height="58.6211" style="stroke: #A80036; stroke-width: 1.0;" width="10" x="80" y="117.4883"/><rect fill="#FFFFFF" filter="url(#fb7v042)" height="353.416" style="stroke: #A80036; stroke-width: 1.0;" width="10" x="277" y="96.4883"/><rect fill="#FFFFFF" filter="url(#fb7v042)" height="313.1055" style="stroke: #A80036; stroke-width: 1.0;" width="10" x="510" y="391.2832"/><rect fill="#FFFFFF" filter="url(#fb7v042)" height="58.6211" style="stroke: #A80036; stroke-width: 1.0;" width="10" x="663" y="176.1094"/><rect fill="#FFFFFF" filter="url(#fb7v042)" height="127.2422" style="stroke: #A80036; stroke-width: 1.0;" width="10" x="952" y="234.7305"/><rect fill="#FFFFFF" filter="url(#fb7v042)" height="254.4844" style="stroke: #A80036; stroke-width: 1.0;" width="10" x="952" y="449.9043"/><line style="stroke: #A80036; stroke-width: 1.0; stroke-dasharray: 5.0,5.0;" x1="26" x2="26" y1="86.4883" y2="722.6992"/><line style="stroke: #A80036; stroke-width: 1.0; stroke-dasharray: 5.0,5.0;" x1="85" x2="85" y1="86.4883" y2="722.6992"/><line style="stroke: #A80036; stroke-width: 1.0; stroke-dasharray: 5.0,5.0;" x1="281.5" x2="281.5" y1="86.4883" y2="722.6992"/><line style="stroke: #A80036; stroke-width: 1.0; stroke-dasharray: 5.0,5.0;" x1="515" x2="515" y1="86.4883" y2="722.6992"/><line style="stroke: #A80036; stroke-width: 1.0; stroke-dasharray: 5.0,5.0;" x1="667.5" x2="667.5" y1="86.4883" y2="722.6992"/><line style="stroke: #A80036; stroke-width: 1.0; stroke-dasharray: 5.0,5.0;" x1="956.5" x2="956.5" y1="86.4883" y2="722.6992"/><text fill="#000000" font-family="sans-serif" font-size="14" lengthAdjust="spacingAndGlyphs" textLength="31" x="8" y="83.5352">User</text><ellipse cx="26.5" cy="13" fill="#FEFECE" filter="url(#fb7v042)" rx="8" ry="8" style="stroke: #A80036; stroke-width: 2.0;"/><path d="M26.5,21 L26.5,48 M13.5,29 L39.5,29 M26.5,48 L13.5,63 M26.5,48 L39.5,63 " fill="#FEFECE" filter="url(#fb7v042)" style="stroke: #A80036; stroke-width: 2.0;"/><text fill="#000000" font-family="sans-serif" font-size="14" lengthAdjust="spacingAndGlyphs" textLength="31" x="8" y="735.2344">User</text><ellipse cx="26.5" cy="748.1875" fill="#FEFECE" filter="url(#fb7v042)" rx="8" ry="8" style="stroke: #A80036; stroke-width: 2.0;"/><path d="M26.5,756.1875 L26.5,783.1875 M13.5,764.1875 L39.5,764.1875 M26.5,783.1875 L13.5,798.1875 M26.5,783.1875 L39.5,798.1875 " fill="#FEFECE" filter="url(#fb7v042)" style="stroke: #A80036; stroke-width: 2.0;"/><rect fill="#FEFECE" filter="url(#fb7v042)" height="30.4883" style="stroke: #A80036; stroke-width: 1.5;" width="56" x="55" y="51"/><text fill="#000000" font-family="sans-serif" font-size="14" lengthAdjust="spacingAndGlyphs" textLength="42" x="62" y="71.5352">Authn</text><rect fill="#FEFECE" filter="url(#fb7v042)" height="30.4883" style="stroke: #A80036; stroke-width: 1.5;" width="56" x="55" y="721.6992"/><text fill="#000000" font-family="sans-serif" font-size="14" lengthAdjust="spacingAndGlyphs" textLength="42" x="62" y="742.2344">Authn</text><rect fill="#FEFECE" filter="url(#fb7v042)" height="30.4883" style="stroke: #A80036; stroke-width: 1.5;" width="111" x="224.5" y="51"/><text fill="#000000" font-family="sans-serif" font-size="14" lengthAdjust="spacingAndGlyphs" textLength="97" x="231.5" y="71.5352">IdHub Control</text><rect fill="#FEFECE" filter="url(#fb7v042)" height="30.4883" style="stroke: #A80036; stroke-width: 1.5;" width="111" x="224.5" y="721.6992"/><text fill="#000000" font-family="sans-serif" font-size="14" lengthAdjust="spacingAndGlyphs" textLength="97" x="231.5" y="742.2344">IdHub Control</text><rect fill="#FEFECE" filter="url(#fb7v042)" height="30.4883" style="stroke: #A80036; stroke-width: 1.5;" width="102" x="462" y="51"/><text fill="#000000" font-family="sans-serif" font-size="14" lengthAdjust="spacingAndGlyphs" textLength="88" x="469" y="71.5352">Key Manager</text><rect fill="#FEFECE" filter="url(#fb7v042)" height="30.4883" style="stroke: #A80036; stroke-width: 1.5;" width="102" x="462" y="721.6992"/><text fill="#000000" font-family="sans-serif" font-size="14" lengthAdjust="spacingAndGlyphs" textLength="88" x="469" y="742.2344">Key Manager</text><rect fill="#FEFECE" filter="url(#fb7v042)" height="30.4883" style="stroke: #A80036; stroke-width: 1.5;" width="55" x="638.5" y="51"/><text fill="#000000" font-family="sans-serif" font-size="14" lengthAdjust="spacingAndGlyphs" textLength="41" x="645.5" y="71.5352">Authz</text><rect fill="#FEFECE" filter="url(#fb7v042)" height="30.4883" style="stroke: #A80036; stroke-width: 1.5;" width="55" x="638.5" y="721.6992"/><text fill="#000000" font-family="sans-serif" font-size="14" lengthAdjust="spacingAndGlyphs" textLength="41" x="645.5" y="742.2344">Authz</text><text fill="#000000" font-family="sans-serif" font-size="14" lengthAdjust="spacingAndGlyphs" textLength="35" x="936.5" y="83.5352">LDAP</text><path d="M939,34 C939,24 957,24 957,24 C957,24 975,24 975,34 L975,60 C975,70 957,70 957,70 C957,70 939,70 939,60 L939,34 " fill="#FEFECE" filter="url(#fb7v042)" style="stroke: #000000; stroke-width: 1.5;"/><path d="M939,34 C939,44 957,44 957,44 C957,44 975,44 975,34 " fill="none" style="stroke: #000000; stroke-width: 1.5;"/><text fill="#000000" font-family="sans-serif" font-size="14" lengthAdjust="spacingAndGlyphs" textLength="35" x="936.5" y="735.2344">LDAP</text><path d="M939,748.1875 C939,738.1875 957,738.1875 957,738.1875 C957,738.1875 975,738.1875 975,748.1875 L975,774.1875 C975,784.1875 957,784.1875 957,784.1875 C957,784.1875 939,784.1875 939,774.1875 L939,748.1875 " fill="#FEFECE" filter="url(#fb7v042)" style="stroke: #000000; stroke-width: 1.5;"/><path d="M939,748.1875 C939,758.1875 957,758.1875 957,758.1875 C957,758.1875 975,758.1875 975,748.1875 " fill="none" style="stroke: #000000; stroke-width: 1.5;"/><rect fill="#FFFFFF" filter="url(#fb7v042)" height="294.7949" style="stroke: #A80036; stroke-width: 1.0;" width="10" x="21.5" y="96.4883"/><rect fill="#FFFFFF" filter="url(#fb7v042)" height="58.6211" style="stroke: #A80036; stroke-width: 1.0;" width="10" x="80" y="117.4883"/><rect fill="#FFFFFF" filter="url(#fb7v042)" height="353.416" style="stroke: #A80036; stroke-width: 1.0;" width="10" x="277" y="96.4883"/><rect fill="#FFFFFF" filter="url(#fb7v042)" height="313.1055" style="stroke: #A80036; stroke-width: 1.0;" width="10" x="510" y="391.2832"/><rect fill="#FFFFFF" filter="url(#fb7v042)" height="58.6211" style="stroke: #A80036; stroke-width: 1.0;" width="10" x="663" y="176.1094"/><rect fill="#FFFFFF" filter="url(#fb7v042)" height="127.2422" style="stroke: #A80036; stroke-width: 1.0;" width="10" x="952" y="234.7305"/><rect fill="#FFFFFF" filter="url(#fb7v042)" height="254.4844" style="stroke: #A80036; stroke-width: 1.0;" width="10" x="952" y="449.9043"/><polygon fill="#A80036" points="265,113.4883,275,117.4883,265,121.4883,269,117.4883" style="stroke: #A80036; stroke-width: 1.0;"/><line style="stroke: #A80036; stroke-width: 1.0;" x1="31.5" x2="271" y1="117.4883" y2="117.4883"/><text fill="#000000" font-family="sans-serif" font-size="13" font-weight="bold" lengthAdjust="spacingAndGlyphs" textLength="9" x="38.5" y="113.0566">1</text><text fill="#000000" font-family="sans-serif" font-size="13" lengthAdjust="spacingAndGlyphs" textLength="174" x="51.5" y="113.0566">Alias Add user+ali@domain</text><polygon fill="#A80036" points="101,142.7988,91,146.7988,101,150.7988,97,146.7988" style="stroke: #A80036; stroke-width: 1.0;"/><line style="stroke: #A80036; stroke-width: 1.0;" x1="95" x2="276" y1="146.7988" y2="146.7988"/><text fill="#000000" font-family="sans-serif" font-size="13" font-weight="bold" lengthAdjust="spacingAndGlyphs" textLength="9" x="107" y="142.3672">2</text><text fill="#000000" font-family="sans-serif" font-size="13" lengthAdjust="spacingAndGlyphs" textLength="136" x="120" y="142.3672">SecureLayer @domain</text><polygon fill="#A80036" points="265,172.1094,275,176.1094,265,180.1094,269,176.1094" style="stroke: #A80036; stroke-width: 1.0;"/><line style="stroke: #A80036; stroke-width: 1.0;" x1="85" x2="271" y1="176.1094" y2="176.1094"/><text fill="#000000" font-family="sans-serif" font-size="13" font-weight="bold" lengthAdjust="spacingAndGlyphs" textLength="9" x="92" y="171.6777">3</text><text fill="#000000" font-family="sans-serif" font-size="13" lengthAdjust="spacingAndGlyphs" textLength="150" x="105" y="171.6777">RemoteID user@domain</text><polygon fill="#A80036" points="651,201.4199,661,205.4199,651,209.4199,655,205.4199" style="stroke: #A80036; stroke-width: 1.0;"/><line style="stroke: #A80036; stroke-width: 1.0;" x1="287" x2="657" y1="205.4199" y2="205.4199"/><text fill="#000000" font-family="sans-serif" font-size="13" font-weight="bold" lengthAdjust="spacingAndGlyphs" textLength="9" x="294" y="200.9883">4</text><text fill="#000000" font-family="sans-serif" font-size="13" lengthAdjust="spacingAndGlyphs" textLength="339" x="307" y="200.9883">WANT alias-create ON user@domain AS user@domain</text><polygon fill="#A80036" points="298,230.7305,288,234.7305,298,238.7305,294,234.7305" style="stroke: #A80036; stroke-width: 1.0;"/><line style="stroke: #A80036; stroke-width: 1.0;" x1="292" x2="667" y1="234.7305" y2="234.7305"/><text fill="#000000" font-family="sans-serif" font-size="13" font-weight="bold" lengthAdjust="spacingAndGlyphs" textLength="9" x="304" y="230.2988">5</text><text fill="#000000" font-family="sans-serif" font-size="13" lengthAdjust="spacingAndGlyphs" textLength="144" x="317" y="230.2988">OK FOR user1@domain</text><polygon fill="#A80036" points="940,260.041,950,264.041,940,268.041,944,264.041" style="stroke: #A80036; stroke-width: 1.0;"/><line style="stroke: #A80036; stroke-width: 1.0;" x1="287" x2="946" y1="264.041" y2="264.041"/><text fill="#000000" font-family="sans-serif" font-size="13" font-weight="bold" lengthAdjust="spacingAndGlyphs" textLength="9" x="294" y="259.6094">6</text><text fill="#000000" font-family="sans-serif" font-size="13" lengthAdjust="spacingAndGlyphs" textLength="287" x="307" y="259.6094">Compare user+ali@domain AS user1@domain</text><polygon fill="#0000FF" points="298,294.3516,288,298.3516,298,302.3516,294,298.3516" style="stroke: #0000FF; stroke-width: 1.0;"/><line style="stroke: #0000FF; stroke-width: 1.0; stroke-dasharray: 2.0,2.0;" x1="292" x2="951" y1="298.3516" y2="298.3516"/><text fill="#000000" font-family="sans-serif" font-size="13" font-weight="bold" lengthAdjust="spacingAndGlyphs" textLength="9" x="304" y="293.9199">7</text><text fill="#000000" font-family="sans-serif" font-size="13" lengthAdjust="spacingAndGlyphs" textLength="85" x="317" y="293.9199">UserID Found</text><polygon fill="#FBFB77" filter="url(#fb7v042)" points="78,277.3516,78,302.3516,268,302.3516,268,287.3516,258,277.3516,78,277.3516" style="stroke: #A80036; stroke-width: 1.0;"/><line style="stroke: #A80036; stroke-width: 1.0;" x1="258" x2="258" y1="277.3516" y2="287.3516"/><line style="stroke: #A80036; stroke-width: 1.0;" x1="268" x2="258" y1="287.3516" y2="287.3516"/><text fill="#0000FF" font-family="sans-serif" font-size="13" lengthAdjust="spacingAndGlyphs" textLength="169" x="84" y="294.9199">Alternative flow, fatal error</text><polygon fill="#0000FF" points="42.5,328.6621,32.5,332.6621,42.5,336.6621,38.5,332.6621" style="stroke: #0000FF; stroke-width: 1.0;"/><line style="stroke: #0000FF; stroke-width: 1.0; stroke-dasharray: 2.0,2.0;" x1="36.5" x2="276" y1="332.6621" y2="332.6621"/><text fill="#000000" font-family="sans-serif" font-size="13" font-weight="bold" lengthAdjust="spacingAndGlyphs" textLength="9" x="48.5" y="328.2305">8</text><text fill="#000000" font-family="sans-serif" font-size="13" lengthAdjust="spacingAndGlyphs" textLength="89" x="61.5" y="328.2305">Already Exists</text><polygon fill="#A80036" points="298,357.9727,288,361.9727,298,365.9727,294,361.9727" style="stroke: #A80036; stroke-width: 1.0;"/><line style="stroke: #A80036; stroke-width: 1.0;" x1="292" x2="956" y1="361.9727" y2="361.9727"/><text fill="#000000" font-family="sans-serif" font-size="13" font-weight="bold" lengthAdjust="spacingAndGlyphs" textLength="9" x="304" y="357.541">9</text><text fill="#000000" font-family="sans-serif" font-size="13" lengthAdjust="spacingAndGlyphs" textLength="112" x="317" y="357.541">UserID Not Found</text><polygon fill="#A80036" points="37.5,387.2832,27.5,391.2832,37.5,395.2832,33.5,391.2832" style="stroke: #A80036; stroke-width: 1.0;"/><line style="stroke: #A80036; stroke-width: 1.0;" x1="31.5" x2="276" y1="391.2832" y2="391.2832"/><text fill="#000000" font-family="sans-serif" font-size="13" font-weight="bold" lengthAdjust="spacingAndGlyphs" textLength="18" x="43.5" y="386.8516">10</text><text fill="#000000" font-family="sans-serif" font-size="13" lengthAdjust="spacingAndGlyphs" textLength="48" x="65.5" y="386.8516">Queued</text><polygon fill="#A80036" points="498,416.5938,508,420.5938,498,424.5938,502,420.5938" style="stroke: #A80036; stroke-width: 1.0;"/><line style="stroke: #A80036; stroke-width: 1.0;" x1="287" x2="504" y1="420.5938" y2="420.5938"/><text fill="#000000" font-family="sans-serif" font-size="13" font-weight="bold" lengthAdjust="spacingAndGlyphs" textLength="18" x="294" y="416.1621">11</text><text fill="#000000" font-family="sans-serif" font-size="13" lengthAdjust="spacingAndGlyphs" textLength="177" x="316" y="416.1621">Have User user+ali@domain</text><polygon fill="#A80036" points="293,445.9043,283,449.9043,293,453.9043,289,449.9043" style="stroke: #A80036; stroke-width: 1.0;"/><line style="stroke: #A80036; stroke-width: 1.0;" x1="287" x2="509" y1="449.9043" y2="449.9043"/><text fill="#000000" font-family="sans-serif" font-size="13" font-weight="bold" lengthAdjust="spacingAndGlyphs" textLength="18" x="299" y="445.4727">12</text><text fill="#000000" font-family="sans-serif" font-size="13" lengthAdjust="spacingAndGlyphs" textLength="48" x="321" y="445.4727">Queued</text><polygon fill="#A80036" points="940,480.2148,950,484.2148,940,488.2148,944,484.2148" style="stroke: #A80036; stroke-width: 1.0;"/><line style="stroke: #A80036; stroke-width: 1.0;" x1="520" x2="946" y1="484.2148" y2="484.2148"/><text fill="#000000" font-family="sans-serif" font-size="13" font-weight="bold" lengthAdjust="spacingAndGlyphs" textLength="18" x="527" y="479.7832">13</text><text fill="#000000" font-family="sans-serif" font-size="13" lengthAdjust="spacingAndGlyphs" textLength="139" x="549" y="479.7832">Retrieve user@domain</text><polygon fill="#FBFB77" filter="url(#fb7v042)" points="295,463.2148,295,488.2148,501,488.2148,501,473.2148,491,463.2148,295,463.2148" style="stroke: #A80036; stroke-width: 1.0;"/><line style="stroke: #A80036; stroke-width: 1.0;" x1="491" x2="491" y1="463.2148" y2="473.2148"/><line style="stroke: #A80036; stroke-width: 1.0;" x1="501" x2="491" y1="473.2148" y2="473.2148"/><text fill="#000000" font-family="sans-serif" font-size="13" lengthAdjust="spacingAndGlyphs" textLength="185" x="301" y="480.7832">When copying the LDAP entry</text><polygon fill="#A80036" points="531,514.5254,521,518.5254,531,522.5254,527,518.5254" style="stroke: #A80036; stroke-width: 1.0;"/><line style="stroke: #A80036; stroke-width: 1.0;" x1="525" x2="951" y1="518.5254" y2="518.5254"/><text fill="#000000" font-family="sans-serif" font-size="13" font-weight="bold" lengthAdjust="spacingAndGlyphs" textLength="18" x="537" y="514.0938">14</text><text fill="#000000" font-family="sans-serif" font-size="13" lengthAdjust="spacingAndGlyphs" textLength="127" x="559" y="514.0938">Creds MIIEVzCCAz...</text><polygon fill="#A80036" points="531,543.8359,521,547.8359,531,551.8359,527,547.8359" style="stroke: #A80036; stroke-width: 1.0;"/><line style="stroke: #A80036; stroke-width: 1.0;" x1="525" x2="951" y1="547.8359" y2="547.8359"/><text fill="#000000" font-family="sans-serif" font-size="13" font-weight="bold" lengthAdjust="spacingAndGlyphs" textLength="18" x="537" y="543.4043">15</text><text fill="#000000" font-family="sans-serif" font-size="13" lengthAdjust="spacingAndGlyphs" textLength="103" x="559" y="543.4043">pkcs11:xxx;y;zz</text><polygon fill="#A80036" points="940,573.1465,950,577.1465,940,581.1465,944,577.1465" style="stroke: #A80036; stroke-width: 1.0;"/><line style="stroke: #A80036; stroke-width: 1.0;" x1="520" x2="946" y1="577.1465" y2="577.1465"/><text fill="#000000" font-family="sans-serif" font-size="13" font-weight="bold" lengthAdjust="spacingAndGlyphs" textLength="18" x="527" y="572.7148">16</text><text fill="#000000" font-family="sans-serif" font-size="13" lengthAdjust="spacingAndGlyphs" textLength="324" x="549" y="572.7148">Have user+ali@domain XS public AS user1@domain</text><polygon fill="#A80036" points="940,602.457,950,606.457,940,610.457,944,606.457" style="stroke: #A80036; stroke-width: 1.0;"/><line style="stroke: #A80036; stroke-width: 1.0;" x1="520" x2="946" y1="606.457" y2="606.457"/><text fill="#000000" font-family="sans-serif" font-size="13" font-weight="bold" lengthAdjust="spacingAndGlyphs" textLength="18" x="527" y="602.0254">17</text><text fill="#000000" font-family="sans-serif" font-size="13" lengthAdjust="spacingAndGlyphs" textLength="386" x="549" y="602.0254">Have user+ali@domain Alias user@domain AS user1@domain</text><polygon fill="#A80036" points="940,631.7676,950,635.7676,940,639.7676,944,635.7676" style="stroke: #A80036; stroke-width: 1.0;"/><line style="stroke: #A80036; stroke-width: 1.0;" x1="520" x2="946" y1="635.7676" y2="635.7676"/><text fill="#000000" font-family="sans-serif" font-size="13" font-weight="bold" lengthAdjust="spacingAndGlyphs" textLength="18" x="527" y="631.3359">18</text><text fill="#000000" font-family="sans-serif" font-size="13" lengthAdjust="spacingAndGlyphs" textLength="324" x="549" y="631.3359">Have Creds for user+ali@domain AS user1@domain</text><polygon fill="#A80036" points="940,666.0781,950,670.0781,940,674.0781,944,670.0781" style="stroke: #A80036; stroke-width: 1.0;"/><line style="stroke: #A80036; stroke-width: 1.0;" x1="520" x2="946" y1="670.0781" y2="670.0781"/><text fill="#000000" font-family="sans-serif" font-size="13" font-weight="bold" lengthAdjust="spacingAndGlyphs" textLength="18" x="527" y="665.6465">19</text><text fill="#000000" font-family="sans-serif" font-size="13" lengthAdjust="spacingAndGlyphs" textLength="363" x="549" y="665.6465">Have pkcs11:xxx;y;zz XS user@domain AS user1@domain</text><polygon fill="#FBFB77" filter="url(#fb7v042)" points="330,649.0781,330,674.0781,501,674.0781,501,659.0781,491,649.0781,330,649.0781" style="stroke: #A80036; stroke-width: 1.0;"/><line style="stroke: #A80036; stroke-width: 1.0;" x1="491" x2="491" y1="649.0781" y2="659.0781"/><line style="stroke: #A80036; stroke-width: 1.0;" x1="501" x2="491" y1="659.0781" y2="659.0781"/><text fill="#000000" font-family="sans-serif" font-size="13" lengthAdjust="spacingAndGlyphs" textLength="150" x="336" y="666.6465">Or share the LDAP entry</text><polygon fill="#A80036" points="526,700.3887,516,704.3887,526,708.3887,522,704.3887" style="stroke: #A80036; stroke-width: 1.0;"/><line style="stroke: #A80036; stroke-width: 1.0;" x1="520" x2="956" y1="704.3887" y2="704.3887"/><text fill="#000000" font-family="sans-serif" font-size="13" font-weight="bold" lengthAdjust="spacingAndGlyphs" textLength="18" x="532" y="699.957">20</text><text fill="#000000" font-family="sans-serif" font-size="13" lengthAdjust="spacingAndGlyphs" textLength="37" x="554" y="699.957">Ready</text></g></svg>