<?xml version="1.0" encoding="UTF-8" standalone="no"?><svg xmlns="http://www.w3.org/2000/svg" xmlns:xlink="http://www.w3.org/1999/xlink" contentScriptType="application/ecmascript" contentStyleType="text/css" height="996px" preserveAspectRatio="none" style="width:982px;height:996px;" version="1.1" viewBox="0 0 982 996" width="982px" zoomAndPan="magnify"><defs><filter height="300%" id="feyudbv" width="300%" x="-1" y="-1"><feGaussianBlur result="blurOut" stdDeviation="2.0"/><feColorMatrix in="blurOut" result="blurOut2" type="matrix" values="0 0 0 0 0 0 0 0 0 0 0 0 0 0 0 0 0 0 .4 0"/><feOffset dx="4.0" dy="4.0" in="blurOut2" result="blurOut3"/><feBlend in="SourceGraphic" in2="blurOut3" mode="normal"/></filter></defs><g><rect fill="#FFFFFF" filter="url(#feyudbv)" height="360.416" style="stroke: #A80036; stroke-width: 1.0;" width="10" x="21.5" y="117.4883"/><rect fill="#FFFFFF" filter="url(#feyudbv)" height="29.3105" style="stroke: #A80036; stroke-width: 1.0;" width="10" x="80" y="190.1094"/><rect fill="#FFFFFF" filter="url(#feyudbv)" height="462.3477" style="stroke: #A80036; stroke-width: 1.0;" width="10" x="277" y="117.4883"/><rect fill="#FFFFFF" filter="url(#feyudbv)" height="343.1055" style="stroke: #A80036; stroke-width: 1.0;" width="10" x="505" y="550.5254"/><rect fill="#FFFFFF" filter="url(#feyudbv)" height="29.3105" style="stroke: #A80036; stroke-width: 1.0;" width="10" x="658" y="248.7305"/><rect fill="#FFFFFF" filter="url(#feyudbv)" height="30" style="stroke: #A80036; stroke-width: 1.0;" width="10" x="658" y="863.6309"/><rect fill="#FFFFFF" filter="url(#feyudbv)" height="97.9316" style="stroke: #A80036; stroke-width: 1.0;" width="10" x="947" y="350.6621"/><rect fill="#FFFFFF" filter="url(#feyudbv)" height="220.1738" style="stroke: #A80036; stroke-width: 1.0;" width="10" x="947" y="614.1465"/><line style="stroke: #A80036; stroke-width: 1.0; stroke-dasharray: 5.0,5.0;" x1="26" x2="26" y1="86.4883" y2="911.9414"/><line style="stroke: #A80036; stroke-width: 1.0; stroke-dasharray: 5.0,5.0;" x1="85" x2="85" y1="86.4883" y2="911.9414"/><line style="stroke: #A80036; stroke-width: 1.0; stroke-dasharray: 5.0,5.0;" x1="281.5" x2="281.5" y1="86.4883" y2="911.9414"/><line style="stroke: #A80036; stroke-width: 1.0; stroke-dasharray: 5.0,5.0;" x1="510" x2="510" y1="86.4883" y2="911.9414"/><line style="stroke: #A80036; stroke-width: 1.0; stroke-dasharray: 5.0,5.0;" x1="662.5" x2="662.5" y1="86.4883" y2="911.9414"/><line style="stroke: #A80036; stroke-width: 1.0; stroke-dasharray: 5.0,5.0;" x1="951.5" x2="951.5" y1="86.4883" y2="911.9414"/><text fill="#000000" font-family="sans-serif" font-size="14" lengthAdjust="spacingAndGlyphs" textLength="31" x="8" y="83.5352">User</text><ellipse cx="26.5" cy="13" fill="#FEFECE" filter="url(#feyudbv)" rx="8" ry="8" style="stroke: #A80036; stroke-width: 2.0;"/><path d="M26.5,21 L26.5,48 M13.5,29 L39.5,29 M26.5,48 L13.5,63 M26.5,48 L39.5,63 " fill="#FEFECE" filter="url(#feyudbv)" style="stroke: #A80036; stroke-width: 2.0;"/><text fill="#000000" font-family="sans-serif" font-size="14" lengthAdjust="spacingAndGlyphs" textLength="31" x="8" y="924.4766">User</text><ellipse cx="26.5" cy="937.4297" fill="#FEFECE" filter="url(#feyudbv)" rx="8" ry="8" style="stroke: #A80036; stroke-width: 2.0;"/><path d="M26.5,945.4297 L26.5,972.4297 M13.5,953.4297 L39.5,953.4297 M26.5,972.4297 L13.5,987.4297 M26.5,972.4297 L39.5,987.4297 " fill="#FEFECE" filter="url(#feyudbv)" style="stroke: #A80036; stroke-width: 2.0;"/><rect fill="#FEFECE" filter="url(#feyudbv)" height="30.4883" style="stroke: #A80036; stroke-width: 1.5;" width="56" x="55" y="51"/><text fill="#000000" font-family="sans-serif" font-size="14" lengthAdjust="spacingAndGlyphs" textLength="42" x="62" y="71.5352">Authn</text><rect fill="#FEFECE" filter="url(#feyudbv)" height="30.4883" style="stroke: #A80036; stroke-width: 1.5;" width="56" x="55" y="910.9414"/><text fill="#000000" font-family="sans-serif" font-size="14" lengthAdjust="spacingAndGlyphs" textLength="42" x="62" y="931.4766">Authn</text><rect fill="#FEFECE" filter="url(#feyudbv)" height="30.4883" style="stroke: #A80036; stroke-width: 1.5;" width="111" x="224.5" y="51"/><text fill="#000000" font-family="sans-serif" font-size="14" lengthAdjust="spacingAndGlyphs" textLength="97" x="231.5" y="71.5352">IdHub Control</text><rect fill="#FEFECE" filter="url(#feyudbv)" height="30.4883" style="stroke: #A80036; stroke-width: 1.5;" width="111" x="224.5" y="910.9414"/><text fill="#000000" font-family="sans-serif" font-size="14" lengthAdjust="spacingAndGlyphs" textLength="97" x="231.5" y="931.4766">IdHub Control</text><rect fill="#FEFECE" filter="url(#feyudbv)" height="30.4883" style="stroke: #A80036; stroke-width: 1.5;" width="102" x="457" y="51"/><text fill="#000000" font-family="sans-serif" font-size="14" lengthAdjust="spacingAndGlyphs" textLength="88" x="464" y="71.5352">Key Manager</text><rect fill="#FEFECE" filter="url(#feyudbv)" height="30.4883" style="stroke: #A80036; stroke-width: 1.5;" width="102" x="457" y="910.9414"/><text fill="#000000" font-family="sans-serif" font-size="14" lengthAdjust="spacingAndGlyphs" textLength="88" x="464" y="931.4766">Key Manager</text><rect fill="#FEFECE" filter="url(#feyudbv)" height="30.4883" style="stroke: #A80036; stroke-width: 1.5;" width="55" x="633.5" y="51"/><text fill="#000000" font-family="sans-serif" font-size="14" lengthAdjust="spacingAndGlyphs" textLength="41" x="640.5" y="71.5352">Authz</text><rect fill="#FEFECE" filter="url(#feyudbv)" height="30.4883" style="stroke: #A80036; stroke-width: 1.5;" width="55" x="633.5" y="910.9414"/><text fill="#000000" font-family="sans-serif" font-size="14" lengthAdjust="spacingAndGlyphs" textLength="41" x="640.5" y="931.4766">Authz</text><text fill="#000000" font-family="sans-serif" font-size="14" lengthAdjust="spacingAndGlyphs" textLength="35" x="931.5" y="83.5352">LDAP</text><path d="M934,34 C934,24 952,24 952,24 C952,24 970,24 970,34 L970,60 C970,70 952,70 952,70 C952,70 934,70 934,60 L934,34 " fill="#FEFECE" filter="url(#feyudbv)" style="stroke: #000000; stroke-width: 1.5;"/><path d="M934,34 C934,44 952,44 952,44 C952,44 970,44 970,34 " fill="none" style="stroke: #000000; stroke-width: 1.5;"/><text fill="#000000" font-family="sans-serif" font-size="14" lengthAdjust="spacingAndGlyphs" textLength="35" x="931.5" y="924.4766">LDAP</text><path d="M934,937.4297 C934,927.4297 952,927.4297 952,927.4297 C952,927.4297 970,927.4297 970,937.4297 L970,963.4297 C970,973.4297 952,973.4297 952,973.4297 C952,973.4297 934,973.4297 934,963.4297 L934,937.4297 " fill="#FEFECE" filter="url(#feyudbv)" style="stroke: #000000; stroke-width: 1.5;"/><path d="M934,937.4297 C934,947.4297 952,947.4297 952,947.4297 C952,947.4297 970,947.4297 970,937.4297 " fill="none" style="stroke: #000000; stroke-width: 1.5;"/><rect fill="#FFFFFF" filter="url(#feyudbv)" height="360.416" style="stroke: #A80036; stroke-width: 1.0;" width="10" x="21.5" y="117.4883"/><rect fill="#FFFFFF" filter="url(#feyudbv)" height="29.3105" style="stroke: #A80036; stroke-width: 1.0;" width="10" x="80" y="190.1094"/><rect fill="#FFFFFF" filter="url(#feyudbv)" height="462.3477" style="stroke: #A80036; stroke-width: 1.0;" width="10" x="277" y="117.4883"/><rect fill="#FFFFFF" filter="url(#feyudbv)" height="343.1055" style="stroke: #A80036; stroke-width: 1.0;" width="10" x="505" y="550.5254"/><rect fill="#FFFFFF" filter="url(#feyudbv)" height="29.3105" style="stroke: #A80036; stroke-width: 1.0;" width="10" x="658" y="248.7305"/><rect fill="#FFFFFF" filter="url(#feyudbv)" height="30" style="stroke: #A80036; stroke-width: 1.0;" width="10" x="658" y="863.6309"/><rect fill="#FFFFFF" filter="url(#feyudbv)" height="97.9316" style="stroke: #A80036; stroke-width: 1.0;" width="10" x="947" y="350.6621"/><rect fill="#FFFFFF" filter="url(#feyudbv)" height="220.1738" style="stroke: #A80036; stroke-width: 1.0;" width="10" x="947" y="614.1465"/><polygon fill="#A80036" points="265,113.4883,275,117.4883,265,121.4883,269,117.4883" style="stroke: #A80036; stroke-width: 1.0;"/><line style="stroke: #A80036; stroke-width: 1.0;" x1="31.5" x2="271" y1="117.4883" y2="117.4883"/><text fill="#000000" font-family="sans-serif" font-size="13" font-weight="bold" lengthAdjust="spacingAndGlyphs" textLength="9" x="38.5" y="113.0566">1</text><text fill="#000000" font-family="sans-serif" font-size="13" lengthAdjust="spacingAndGlyphs" textLength="174" x="51.5" y="113.0566">Alias Add user+ali@domain</text><rect fill="#EEEEEE" filter="url(#feyudbv)" height="3" style="stroke: #EEEEEE; stroke-width: 1.0;" width="974.5" x="3" y="146.4541"/><line style="stroke: #000000; stroke-width: 1.0;" x1="3" x2="977.5" y1="146.4541" y2="146.4541"/><line style="stroke: #000000; stroke-width: 1.0;" x1="3" x2="977.5" y1="149.4541" y2="149.4541"/><rect fill="#EEEEEE" filter="url(#feyudbv)" height="23.3105" style="stroke: #000000; stroke-width: 2.0;" width="117" x="431.75" y="135.7988"/><text fill="#000000" font-family="sans-serif" font-size="13" font-weight="bold" lengthAdjust="spacingAndGlyphs" textLength="99" x="437.75" y="152.3672">Access Control</text><polygon fill="#A80036" points="101,186.1094,91,190.1094,101,194.1094,97,190.1094" style="stroke: #A80036; stroke-width: 1.0;"/><line style="stroke: #A80036; stroke-width: 1.0;" x1="95" x2="276" y1="190.1094" y2="190.1094"/><text fill="#000000" font-family="sans-serif" font-size="13" font-weight="bold" lengthAdjust="spacingAndGlyphs" textLength="9" x="107" y="185.6777">2</text><text fill="#000000" font-family="sans-serif" font-size="13" lengthAdjust="spacingAndGlyphs" textLength="136" x="120" y="185.6777">SecureLayer @domain</text><polygon fill="#A80036" points="265,215.4199,275,219.4199,265,223.4199,269,219.4199" style="stroke: #A80036; stroke-width: 1.0;"/><line style="stroke: #A80036; stroke-width: 1.0;" x1="85" x2="271" y1="219.4199" y2="219.4199"/><text fill="#000000" font-family="sans-serif" font-size="13" font-weight="bold" lengthAdjust="spacingAndGlyphs" textLength="9" x="92" y="214.9883">3</text><text fill="#000000" font-family="sans-serif" font-size="13" lengthAdjust="spacingAndGlyphs" textLength="150" x="105" y="214.9883">RemoteID user@domain</text><polygon fill="#A80036" points="646,244.7305,656,248.7305,646,252.7305,650,248.7305" style="stroke: #A80036; stroke-width: 1.0;"/><line style="stroke: #A80036; stroke-width: 1.0;" x1="287" x2="652" y1="248.7305" y2="248.7305"/><text fill="#000000" font-family="sans-serif" font-size="13" font-weight="bold" lengthAdjust="spacingAndGlyphs" textLength="9" x="294" y="244.2988">4</text><text fill="#000000" font-family="sans-serif" font-size="13" lengthAdjust="spacingAndGlyphs" textLength="339" x="307" y="244.2988">WANT alias-create ON user@domain AS user@domain</text><polygon fill="#A80036" points="298,274.041,288,278.041,298,282.041,294,278.041" style="stroke: #A80036; stroke-width: 1.0;"/><line style="stroke: #A80036; stroke-width: 1.0;" x1="292" x2="662" y1="278.041" y2="278.041"/><text fill="#000000" font-family="sans-serif" font-size="13" font-weight="bold" lengthAdjust="spacingAndGlyphs" textLength="9" x="304" y="273.6094">5</text><text fill="#000000" font-family="sans-serif" font-size="13" lengthAdjust="spacingAndGlyphs" textLength="144" x="317" y="273.6094">OK FOR user1@domain</text><rect fill="#EEEEEE" filter="url(#feyudbv)" height="3" style="stroke: #EEEEEE; stroke-width: 1.0;" width="974.5" x="3" y="307.0068"/><line style="stroke: #000000; stroke-width: 1.0;" x1="3" x2="977.5" y1="307.0068" y2="307.0068"/><line style="stroke: #000000; stroke-width: 1.0;" x1="3" x2="977.5" y1="310.0068" y2="310.0068"/><rect fill="#EEEEEE" filter="url(#feyudbv)" height="23.3105" style="stroke: #000000; stroke-width: 2.0;" width="104" x="438.25" y="296.3516"/><text fill="#000000" font-family="sans-serif" font-size="13" font-weight="bold" lengthAdjust="spacingAndGlyphs" textLength="86" x="444.25" y="312.9199">Sanity Check</text><polygon fill="#A80036" points="935,346.6621,945,350.6621,935,354.6621,939,350.6621" style="stroke: #A80036; stroke-width: 1.0;"/><line style="stroke: #A80036; stroke-width: 1.0;" x1="287" x2="941" y1="350.6621" y2="350.6621"/><text fill="#000000" font-family="sans-serif" font-size="13" font-weight="bold" lengthAdjust="spacingAndGlyphs" textLength="9" x="294" y="346.2305">6</text><text fill="#000000" font-family="sans-serif" font-size="13" lengthAdjust="spacingAndGlyphs" textLength="287" x="307" y="346.2305">Compare user+ali@domain AS user1@domain</text><polygon fill="#0000FF" points="298,380.9727,288,384.9727,298,388.9727,294,384.9727" style="stroke: #0000FF; stroke-width: 1.0;"/><line style="stroke: #0000FF; stroke-width: 1.0; stroke-dasharray: 2.0,2.0;" x1="292" x2="946" y1="384.9727" y2="384.9727"/><text fill="#000000" font-family="sans-serif" font-size="13" font-weight="bold" lengthAdjust="spacingAndGlyphs" textLength="9" x="304" y="380.541">7</text><text fill="#000000" font-family="sans-serif" font-size="13" lengthAdjust="spacingAndGlyphs" textLength="85" x="317" y="380.541">UserID Found</text><polygon fill="#FBFB77" filter="url(#feyudbv)" points="78,363.9727,78,388.9727,268,388.9727,268,373.9727,258,363.9727,78,363.9727" style="stroke: #A80036; stroke-width: 1.0;"/><line style="stroke: #A80036; stroke-width: 1.0;" x1="258" x2="258" y1="363.9727" y2="373.9727"/><line style="stroke: #A80036; stroke-width: 1.0;" x1="268" x2="258" y1="373.9727" y2="373.9727"/><text fill="#0000FF" font-family="sans-serif" font-size="13" lengthAdjust="spacingAndGlyphs" textLength="169" x="84" y="381.541">Alternative flow, fatal error</text><polygon fill="#0000FF" points="42.5,415.2832,32.5,419.2832,42.5,423.2832,38.5,419.2832" style="stroke: #0000FF; stroke-width: 1.0;"/><line style="stroke: #0000FF; stroke-width: 1.0; stroke-dasharray: 2.0,2.0;" x1="36.5" x2="276" y1="419.2832" y2="419.2832"/><text fill="#000000" font-family="sans-serif" font-size="13" font-weight="bold" lengthAdjust="spacingAndGlyphs" textLength="9" x="48.5" y="414.8516">8</text><text fill="#000000" font-family="sans-serif" font-size="13" lengthAdjust="spacingAndGlyphs" textLength="89" x="61.5" y="414.8516">Already Exists</text><polygon fill="#A80036" points="298,444.5938,288,448.5938,298,452.5938,294,448.5938" style="stroke: #A80036; stroke-width: 1.0;"/><line style="stroke: #A80036; stroke-width: 1.0;" x1="292" x2="951" y1="448.5938" y2="448.5938"/><text fill="#000000" font-family="sans-serif" font-size="13" font-weight="bold" lengthAdjust="spacingAndGlyphs" textLength="9" x="304" y="444.1621">9</text><text fill="#000000" font-family="sans-serif" font-size="13" lengthAdjust="spacingAndGlyphs" textLength="112" x="317" y="444.1621">UserID Not Found</text><polygon fill="#A80036" points="37.5,473.9043,27.5,477.9043,37.5,481.9043,33.5,477.9043" style="stroke: #A80036; stroke-width: 1.0;"/><line style="stroke: #A80036; stroke-width: 1.0;" x1="31.5" x2="276" y1="477.9043" y2="477.9043"/><text fill="#000000" font-family="sans-serif" font-size="13" font-weight="bold" lengthAdjust="spacingAndGlyphs" textLength="18" x="43.5" y="473.4727">10</text><text fill="#000000" font-family="sans-serif" font-size="13" lengthAdjust="spacingAndGlyphs" textLength="48" x="65.5" y="473.4727">Queued</text><rect fill="#EEEEEE" filter="url(#feyudbv)" height="3" style="stroke: #EEEEEE; stroke-width: 1.0;" width="974.5" x="3" y="506.8701"/><line style="stroke: #000000; stroke-width: 1.0;" x1="3" x2="977.5" y1="506.8701" y2="506.8701"/><line style="stroke: #000000; stroke-width: 1.0;" x1="3" x2="977.5" y1="509.8701" y2="509.8701"/><rect fill="#EEEEEE" filter="url(#feyudbv)" height="23.3105" style="stroke: #000000; stroke-width: 2.0;" width="136" x="422.25" y="496.2148"/><text fill="#000000" font-family="sans-serif" font-size="13" font-weight="bold" lengthAdjust="spacingAndGlyphs" textLength="118" x="428.25" y="512.7832">Key Management</text><polygon fill="#A80036" points="493,546.5254,503,550.5254,493,554.5254,497,550.5254" style="stroke: #A80036; stroke-width: 1.0;"/><line style="stroke: #A80036; stroke-width: 1.0;" x1="287" x2="499" y1="550.5254" y2="550.5254"/><text fill="#000000" font-family="sans-serif" font-size="13" font-weight="bold" lengthAdjust="spacingAndGlyphs" textLength="18" x="294" y="546.0938">11</text><text fill="#000000" font-family="sans-serif" font-size="13" lengthAdjust="spacingAndGlyphs" textLength="177" x="316" y="546.0938">Have User user+ali@domain</text><polygon fill="#A80036" points="293,575.8359,283,579.8359,293,583.8359,289,579.8359" style="stroke: #A80036; stroke-width: 1.0;"/><line style="stroke: #A80036; stroke-width: 1.0;" x1="287" x2="504" y1="579.8359" y2="579.8359"/><text fill="#000000" font-family="sans-serif" font-size="13" font-weight="bold" lengthAdjust="spacingAndGlyphs" textLength="18" x="299" y="575.4043">12</text><text fill="#000000" font-family="sans-serif" font-size="13" lengthAdjust="spacingAndGlyphs" textLength="48" x="321" y="575.4043">Queued</text><polygon fill="#A80036" points="935,610.1465,945,614.1465,935,618.1465,939,614.1465" style="stroke: #A80036; stroke-width: 1.0;"/><line style="stroke: #A80036; stroke-width: 1.0;" x1="515" x2="941" y1="614.1465" y2="614.1465"/><text fill="#000000" font-family="sans-serif" font-size="13" font-weight="bold" lengthAdjust="spacingAndGlyphs" textLength="18" x="522" y="609.7148">13</text><text fill="#000000" font-family="sans-serif" font-size="13" lengthAdjust="spacingAndGlyphs" textLength="139" x="544" y="609.7148">Retrieve user@domain</text><polygon fill="#FBFB77" filter="url(#feyudbv)" points="290,593.1465,290,618.1465,496,618.1465,496,603.1465,486,593.1465,290,593.1465" style="stroke: #A80036; stroke-width: 1.0;"/><line style="stroke: #A80036; stroke-width: 1.0;" x1="486" x2="486" y1="593.1465" y2="603.1465"/><line style="stroke: #A80036; stroke-width: 1.0;" x1="496" x2="486" y1="603.1465" y2="603.1465"/><text fill="#000000" font-family="sans-serif" font-size="13" lengthAdjust="spacingAndGlyphs" textLength="185" x="296" y="610.7148">When copying the LDAP entry</text><polygon fill="#A80036" points="526,644.457,516,648.457,526,652.457,522,648.457" style="stroke: #A80036; stroke-width: 1.0;"/><line style="stroke: #A80036; stroke-width: 1.0;" x1="520" x2="946" y1="648.457" y2="648.457"/><text fill="#000000" font-family="sans-serif" font-size="13" font-weight="bold" lengthAdjust="spacingAndGlyphs" textLength="18" x="532" y="644.0254">14</text><text fill="#000000" font-family="sans-serif" font-size="13" lengthAdjust="spacingAndGlyphs" textLength="127" x="554" y="644.0254">Creds MIIEVzCCAz...</text><polygon fill="#A80036" points="526,673.7676,516,677.7676,526,681.7676,522,677.7676" style="stroke: #A80036; stroke-width: 1.0;"/><line style="stroke: #A80036; stroke-width: 1.0;" x1="520" x2="946" y1="677.7676" y2="677.7676"/><text fill="#000000" font-family="sans-serif" font-size="13" font-weight="bold" lengthAdjust="spacingAndGlyphs" textLength="18" x="532" y="673.3359">15</text><text fill="#000000" font-family="sans-serif" font-size="13" lengthAdjust="spacingAndGlyphs" textLength="103" x="554" y="673.3359">pkcs11:xxx;y;zz</text><polygon fill="#A80036" points="935,703.0781,945,707.0781,935,711.0781,939,707.0781" style="stroke: #A80036; stroke-width: 1.0;"/><line style="stroke: #A80036; stroke-width: 1.0;" x1="515" x2="941" y1="707.0781" y2="707.0781"/><text fill="#000000" font-family="sans-serif" font-size="13" font-weight="bold" lengthAdjust="spacingAndGlyphs" textLength="18" x="522" y="702.6465">16</text><text fill="#000000" font-family="sans-serif" font-size="13" lengthAdjust="spacingAndGlyphs" textLength="324" x="544" y="702.6465">Have user+ali@domain XS public AS user1@domain</text><polygon fill="#A80036" points="935,732.3887,945,736.3887,935,740.3887,939,736.3887" style="stroke: #A80036; stroke-width: 1.0;"/><line style="stroke: #A80036; stroke-width: 1.0;" x1="515" x2="941" y1="736.3887" y2="736.3887"/><text fill="#000000" font-family="sans-serif" font-size="13" font-weight="bold" lengthAdjust="spacingAndGlyphs" textLength="18" x="522" y="731.957">17</text><text fill="#000000" font-family="sans-serif" font-size="13" lengthAdjust="spacingAndGlyphs" textLength="386" x="544" y="731.957">Have user+ali@domain Alias user@domain AS user1@domain</text><polygon fill="#A80036" points="935,761.6992,945,765.6992,935,769.6992,939,765.6992" style="stroke: #A80036; stroke-width: 1.0;"/><line style="stroke: #A80036; stroke-width: 1.0;" x1="515" x2="941" y1="765.6992" y2="765.6992"/><text fill="#000000" font-family="sans-serif" font-size="13" font-weight="bold" lengthAdjust="spacingAndGlyphs" textLength="18" x="522" y="761.2676">18</text><text fill="#000000" font-family="sans-serif" font-size="13" lengthAdjust="spacingAndGlyphs" textLength="324" x="544" y="761.2676">Have Creds for user+ali@domain AS user1@domain</text><polygon fill="#A80036" points="935,796.0098,945,800.0098,935,804.0098,939,800.0098" style="stroke: #A80036; stroke-width: 1.0;"/><line style="stroke: #A80036; stroke-width: 1.0;" x1="515" x2="941" y1="800.0098" y2="800.0098"/><text fill="#000000" font-family="sans-serif" font-size="13" font-weight="bold" lengthAdjust="spacingAndGlyphs" textLength="18" x="522" y="795.5781">19</text><text fill="#000000" font-family="sans-serif" font-size="13" lengthAdjust="spacingAndGlyphs" textLength="363" x="544" y="795.5781">Have pkcs11:xxx;y;zz XS user@domain AS user1@domain</text><polygon fill="#FBFB77" filter="url(#feyudbv)" points="325,779.0098,325,804.0098,496,804.0098,496,789.0098,486,779.0098,325,779.0098" style="stroke: #A80036; stroke-width: 1.0;"/><line style="stroke: #A80036; stroke-width: 1.0;" x1="486" x2="486" y1="779.0098" y2="789.0098"/><line style="stroke: #A80036; stroke-width: 1.0;" x1="496" x2="486" y1="789.0098" y2="789.0098"/><text fill="#000000" font-family="sans-serif" font-size="13" lengthAdjust="spacingAndGlyphs" textLength="150" x="331" y="796.5781">Or share the LDAP entry</text><polygon fill="#A80036" points="526,830.3203,516,834.3203,526,838.3203,522,834.3203" style="stroke: #A80036; stroke-width: 1.0;"/><line style="stroke: #A80036; stroke-width: 1.0;" x1="520" x2="951" y1="834.3203" y2="834.3203"/><text fill="#000000" font-family="sans-serif" font-size="13" font-weight="bold" lengthAdjust="spacingAndGlyphs" textLength="18" x="532" y="829.8887">20</text><text fill="#000000" font-family="sans-serif" font-size="13" lengthAdjust="spacingAndGlyphs" textLength="37" x="554" y="829.8887">Ready</text><polygon fill="#A80036" points="646,859.6309,656,863.6309,646,867.6309,650,863.6309" style="stroke: #A80036; stroke-width: 1.0;"/><line style="stroke: #A80036; stroke-width: 1.0;" x1="515" x2="652" y1="863.6309" y2="863.6309"/><text fill="#000000" font-family="sans-serif" font-size="13" font-weight="bold" lengthAdjust="spacingAndGlyphs" textLength="18" x="522" y="859.1992">21</text><text fill="#000000" font-family="sans-serif" font-size="13" lengthAdjust="spacingAndGlyphs" textLength="74" x="544" y="859.1992">Cache hints</text></g></svg>