<?xml version="1.0" encoding="UTF-8" standalone="no"?><svg xmlns="http://www.w3.org/2000/svg" xmlns:xlink="http://www.w3.org/1999/xlink" contentScriptType="application/ecmascript" contentStyleType="text/css" height="820px" preserveAspectRatio="none" style="width:1241px;height:820px;" version="1.1" viewBox="0 0 1241 820" width="1241px" zoomAndPan="magnify"><defs><filter height="300%" id="fctrbrf" width="300%" x="-1" y="-1"><feGaussianBlur result="blurOut" stdDeviation="2.0"/><feColorMatrix in="blurOut" result="blurOut2" type="matrix" values="0 0 0 0 0 0 0 0 0 0 0 0 0 0 0 0 0 0 .4 0"/><feOffset dx="4.0" dy="4.0" in="blurOut2" result="blurOut3"/><feBlend in="SourceGraphic" in2="blurOut3" mode="normal"/></filter></defs><g><rect fill="#FFFFFF" filter="url(#fctrbrf)" height="294.7949" style="stroke: #A80036; stroke-width: 1.0;" width="10" x="21.5" y="96.4883"/><rect fill="#FFFFFF" filter="url(#fctrbrf)" height="58.6211" style="stroke: #A80036; stroke-width: 1.0;" width="10" x="80" y="117.4883"/><rect fill="#FFFFFF" filter="url(#fctrbrf)" height="353.416" style="stroke: #A80036; stroke-width: 1.0;" width="10" x="385.5" y="96.4883"/><rect fill="#FFFFFF" filter="url(#fctrbrf)" height="326.1055" style="stroke: #A80036; stroke-width: 1.0;" width="10" x="722.5" y="391.2832"/><rect fill="#FFFFFF" filter="url(#fctrbrf)" height="35.3105" style="stroke: #A80036; stroke-width: 1.0;" width="10" x="727.5" y="547.8359"/><rect fill="#FFFFFF" filter="url(#fctrbrf)" height="58.6211" style="stroke: #A80036; stroke-width: 1.0;" width="10" x="975.5" y="176.1094"/><rect fill="#FFFFFF" filter="url(#fctrbrf)" height="127.2422" style="stroke: #A80036; stroke-width: 1.0;" width="10" x="1211.5" y="234.7305"/><rect fill="#FFFFFF" filter="url(#fctrbrf)" height="97.9316" style="stroke: #A80036; stroke-width: 1.0;" width="10" x="1211.5" y="449.9043"/><rect fill="#FFFFFF" filter="url(#fctrbrf)" height="132.2422" style="stroke: #A80036; stroke-width: 1.0;" width="10" x="1211.5" y="585.1465"/><line style="stroke: #A80036; stroke-width: 1.0; stroke-dasharray: 5.0,5.0;" x1="26" x2="26" y1="86.4883" y2="735.6992"/><line style="stroke: #A80036; stroke-width: 1.0; stroke-dasharray: 5.0,5.0;" x1="85" x2="85" y1="86.4883" y2="735.6992"/><line style="stroke: #A80036; stroke-width: 1.0; stroke-dasharray: 5.0,5.0;" x1="390" x2="390" y1="86.4883" y2="735.6992"/><line style="stroke: #A80036; stroke-width: 1.0; stroke-dasharray: 5.0,5.0;" x1="727.5" x2="727.5" y1="86.4883" y2="735.6992"/><line style="stroke: #A80036; stroke-width: 1.0; stroke-dasharray: 5.0,5.0;" x1="980" x2="980" y1="86.4883" y2="735.6992"/><line style="stroke: #A80036; stroke-width: 1.0; stroke-dasharray: 5.0,5.0;" x1="1216" x2="1216" y1="86.4883" y2="735.6992"/><text fill="#000000" font-family="sans-serif" font-size="14" lengthAdjust="spacingAndGlyphs" textLength="31" x="8" y="83.5352">User</text><ellipse cx="26.5" cy="13" fill="#FEFECE" filter="url(#fctrbrf)" rx="8" ry="8" style="stroke: #A80036; stroke-width: 2.0;"/><path d="M26.5,21 L26.5,48 M13.5,29 L39.5,29 M26.5,48 L13.5,63 M26.5,48 L39.5,63 " fill="#FEFECE" filter="url(#fctrbrf)" style="stroke: #A80036; stroke-width: 2.0;"/><text fill="#000000" font-family="sans-serif" font-size="14" lengthAdjust="spacingAndGlyphs" textLength="31" x="8" y="748.2344">User</text><ellipse cx="26.5" cy="761.1875" fill="#FEFECE" filter="url(#fctrbrf)" rx="8" ry="8" style="stroke: #A80036; stroke-width: 2.0;"/><path d="M26.5,769.1875 L26.5,796.1875 M13.5,777.1875 L39.5,777.1875 M26.5,796.1875 L13.5,811.1875 M26.5,796.1875 L39.5,811.1875 " fill="#FEFECE" filter="url(#fctrbrf)" style="stroke: #A80036; stroke-width: 2.0;"/><rect fill="#FEFECE" filter="url(#fctrbrf)" height="30.4883" style="stroke: #A80036; stroke-width: 1.5;" width="56" x="55" y="51"/><text fill="#000000" font-family="sans-serif" font-size="14" lengthAdjust="spacingAndGlyphs" textLength="42" x="62" y="71.5352">Authn</text><rect fill="#FEFECE" filter="url(#fctrbrf)" height="30.4883" style="stroke: #A80036; stroke-width: 1.5;" width="56" x="55" y="734.6992"/><text fill="#000000" font-family="sans-serif" font-size="14" lengthAdjust="spacingAndGlyphs" textLength="42" x="62" y="755.2344">Authn</text><rect fill="#FEFECE" filter="url(#fctrbrf)" height="30.4883" style="stroke: #A80036; stroke-width: 1.5;" width="111" x="333" y="51"/><text fill="#000000" font-family="sans-serif" font-size="14" lengthAdjust="spacingAndGlyphs" textLength="97" x="340" y="71.5352">IdHub Control</text><rect fill="#FEFECE" filter="url(#fctrbrf)" height="30.4883" style="stroke: #A80036; stroke-width: 1.5;" width="111" x="333" y="734.6992"/><text fill="#000000" font-family="sans-serif" font-size="14" lengthAdjust="spacingAndGlyphs" textLength="97" x="340" y="755.2344">IdHub Control</text><rect fill="#FEFECE" filter="url(#fctrbrf)" height="30.4883" style="stroke: #A80036; stroke-width: 1.5;" width="102" x="674.5" y="51"/><text fill="#000000" font-family="sans-serif" font-size="14" lengthAdjust="spacingAndGlyphs" textLength="88" x="681.5" y="71.5352">Key Manager</text><rect fill="#FEFECE" filter="url(#fctrbrf)" height="30.4883" style="stroke: #A80036; stroke-width: 1.5;" width="102" x="674.5" y="734.6992"/><text fill="#000000" font-family="sans-serif" font-size="14" lengthAdjust="spacingAndGlyphs" textLength="88" x="681.5" y="755.2344">Key Manager</text><rect fill="#FEFECE" filter="url(#fctrbrf)" height="30.4883" style="stroke: #A80036; stroke-width: 1.5;" width="55" x="951" y="51"/><text fill="#000000" font-family="sans-serif" font-size="14" lengthAdjust="spacingAndGlyphs" textLength="41" x="958" y="71.5352">Authz</text><rect fill="#FEFECE" filter="url(#fctrbrf)" height="30.4883" style="stroke: #A80036; stroke-width: 1.5;" width="55" x="951" y="734.6992"/><text fill="#000000" font-family="sans-serif" font-size="14" lengthAdjust="spacingAndGlyphs" textLength="41" x="958" y="755.2344">Authz</text><text fill="#000000" font-family="sans-serif" font-size="14" lengthAdjust="spacingAndGlyphs" textLength="35" x="1196" y="83.5352">LDAP</text><path d="M1198.5,34 C1198.5,24 1216.5,24 1216.5,24 C1216.5,24 1234.5,24 1234.5,34 L1234.5,60 C1234.5,70 1216.5,70 1216.5,70 C1216.5,70 1198.5,70 1198.5,60 L1198.5,34 " fill="#FEFECE" filter="url(#fctrbrf)" style="stroke: #000000; stroke-width: 1.5;"/><path d="M1198.5,34 C1198.5,44 1216.5,44 1216.5,44 C1216.5,44 1234.5,44 1234.5,34 " fill="none" style="stroke: #000000; stroke-width: 1.5;"/><text fill="#000000" font-family="sans-serif" font-size="14" lengthAdjust="spacingAndGlyphs" textLength="35" x="1196" y="748.2344">LDAP</text><path d="M1198.5,761.1875 C1198.5,751.1875 1216.5,751.1875 1216.5,751.1875 C1216.5,751.1875 1234.5,751.1875 1234.5,761.1875 L1234.5,787.1875 C1234.5,797.1875 1216.5,797.1875 1216.5,797.1875 C1216.5,797.1875 1198.5,797.1875 1198.5,787.1875 L1198.5,761.1875 " fill="#FEFECE" filter="url(#fctrbrf)" style="stroke: #000000; stroke-width: 1.5;"/><path d="M1198.5,761.1875 C1198.5,771.1875 1216.5,771.1875 1216.5,771.1875 C1216.5,771.1875 1234.5,771.1875 1234.5,761.1875 " fill="none" style="stroke: #000000; stroke-width: 1.5;"/><rect fill="#FFFFFF" filter="url(#fctrbrf)" height="294.7949" style="stroke: #A80036; stroke-width: 1.0;" width="10" x="21.5" y="96.4883"/><rect fill="#FFFFFF" filter="url(#fctrbrf)" height="58.6211" style="stroke: #A80036; stroke-width: 1.0;" width="10" x="80" y="117.4883"/><rect fill="#FFFFFF" filter="url(#fctrbrf)" height="353.416" style="stroke: #A80036; stroke-width: 1.0;" width="10" x="385.5" y="96.4883"/><rect fill="#FFFFFF" filter="url(#fctrbrf)" height="326.1055" style="stroke: #A80036; stroke-width: 1.0;" width="10" x="722.5" y="391.2832"/><rect fill="#FFFFFF" filter="url(#fctrbrf)" height="35.3105" style="stroke: #A80036; stroke-width: 1.0;" width="10" x="727.5" y="547.8359"/><rect fill="#FFFFFF" filter="url(#fctrbrf)" height="58.6211" style="stroke: #A80036; stroke-width: 1.0;" width="10" x="975.5" y="176.1094"/><rect fill="#FFFFFF" filter="url(#fctrbrf)" height="127.2422" style="stroke: #A80036; stroke-width: 1.0;" width="10" x="1211.5" y="234.7305"/><rect fill="#FFFFFF" filter="url(#fctrbrf)" height="97.9316" style="stroke: #A80036; stroke-width: 1.0;" width="10" x="1211.5" y="449.9043"/><rect fill="#FFFFFF" filter="url(#fctrbrf)" height="132.2422" style="stroke: #A80036; stroke-width: 1.0;" width="10" x="1211.5" y="585.1465"/><polygon fill="#A80036" points="373.5,113.4883,383.5,117.4883,373.5,121.4883,377.5,117.4883" style="stroke: #A80036; stroke-width: 1.0;"/><line style="stroke: #A80036; stroke-width: 1.0;" x1="31.5" x2="379.5" y1="117.4883" y2="117.4883"/><text fill="#000000" font-family="sans-serif" font-size="13" font-weight="bold" lengthAdjust="spacingAndGlyphs" textLength="9" x="38.5" y="113.0566">1</text><text fill="#000000" font-family="sans-serif" font-size="13" lengthAdjust="spacingAndGlyphs" textLength="317" x="51.5" y="113.0566">Group group@domain Member Add user@domain1</text><polygon fill="#A80036" points="101,142.7988,91,146.7988,101,150.7988,97,146.7988" style="stroke: #A80036; stroke-width: 1.0;"/><line style="stroke: #A80036; stroke-width: 1.0;" x1="95" x2="384.5" y1="146.7988" y2="146.7988"/><text fill="#000000" font-family="sans-serif" font-size="13" font-weight="bold" lengthAdjust="spacingAndGlyphs" textLength="9" x="107" y="142.3672">2</text><text fill="#000000" font-family="sans-serif" font-size="13" lengthAdjust="spacingAndGlyphs" textLength="136" x="120" y="142.3672">SecureLayer @domain</text><polygon fill="#A80036" points="373.5,172.1094,383.5,176.1094,373.5,180.1094,377.5,176.1094" style="stroke: #A80036; stroke-width: 1.0;"/><line style="stroke: #A80036; stroke-width: 1.0;" x1="85" x2="379.5" y1="176.1094" y2="176.1094"/><text fill="#000000" font-family="sans-serif" font-size="13" font-weight="bold" lengthAdjust="spacingAndGlyphs" textLength="9" x="92" y="171.6777">3</text><text fill="#000000" font-family="sans-serif" font-size="13" lengthAdjust="spacingAndGlyphs" textLength="193" x="105" y="171.6777">RemoteID group+you@domain</text><polygon fill="#A80036" points="963.5,201.4199,973.5,205.4199,963.5,209.4199,967.5,205.4199" style="stroke: #A80036; stroke-width: 1.0;"/><line style="stroke: #A80036; stroke-width: 1.0;" x1="395.5" x2="969.5" y1="205.4199" y2="205.4199"/><text fill="#000000" font-family="sans-serif" font-size="13" font-weight="bold" lengthAdjust="spacingAndGlyphs" textLength="9" x="402.5" y="200.9883">4</text><text fill="#000000" font-family="sans-serif" font-size="13" lengthAdjust="spacingAndGlyphs" textLength="440" x="415.5" y="200.9883">WANT group-membership ON group@domain AS group+you@domain</text><polygon fill="#A80036" points="406.5,230.7305,396.5,234.7305,406.5,238.7305,402.5,234.7305" style="stroke: #A80036; stroke-width: 1.0;"/><line style="stroke: #A80036; stroke-width: 1.0;" x1="400.5" x2="979.5" y1="234.7305" y2="234.7305"/><text fill="#000000" font-family="sans-serif" font-size="13" font-weight="bold" lengthAdjust="spacingAndGlyphs" textLength="9" x="412.5" y="230.2988">5</text><text fill="#000000" font-family="sans-serif" font-size="13" lengthAdjust="spacingAndGlyphs" textLength="179" x="425.5" y="230.2988">OK FOR group+you@domain</text><polygon fill="#A80036" points="1199.5,260.041,1209.5,264.041,1199.5,268.041,1203.5,264.041" style="stroke: #A80036; stroke-width: 1.0;"/><line style="stroke: #A80036; stroke-width: 1.0;" x1="395.5" x2="1205.5" y1="264.041" y2="264.041"/><text fill="#000000" font-family="sans-serif" font-size="13" font-weight="bold" lengthAdjust="spacingAndGlyphs" textLength="9" x="402.5" y="259.6094">6</text><text fill="#000000" font-family="sans-serif" font-size="13" lengthAdjust="spacingAndGlyphs" textLength="458" x="415.5" y="259.6094">Compare group@domain Member user@domain1 AS group+you@domain</text><polygon fill="#0000FF" points="406.5,294.3516,396.5,298.3516,406.5,302.3516,402.5,298.3516" style="stroke: #0000FF; stroke-width: 1.0;"/><line style="stroke: #0000FF; stroke-width: 1.0; stroke-dasharray: 2.0,2.0;" x1="400.5" x2="1210.5" y1="298.3516" y2="298.3516"/><text fill="#000000" font-family="sans-serif" font-size="13" font-weight="bold" lengthAdjust="spacingAndGlyphs" textLength="9" x="412.5" y="293.9199">7</text><text fill="#000000" font-family="sans-serif" font-size="13" lengthAdjust="spacingAndGlyphs" textLength="85" x="425.5" y="293.9199">UserID Found</text><polygon fill="#FBFB77" filter="url(#fctrbrf)" points="186,277.3516,186,302.3516,376,302.3516,376,287.3516,366,277.3516,186,277.3516" style="stroke: #A80036; stroke-width: 1.0;"/><line style="stroke: #A80036; stroke-width: 1.0;" x1="366" x2="366" y1="277.3516" y2="287.3516"/><line style="stroke: #A80036; stroke-width: 1.0;" x1="376" x2="366" y1="287.3516" y2="287.3516"/><text fill="#0000FF" font-family="sans-serif" font-size="13" lengthAdjust="spacingAndGlyphs" textLength="169" x="192" y="294.9199">Alternative flow, fatal error</text><polygon fill="#0000FF" points="42.5,328.6621,32.5,332.6621,42.5,336.6621,38.5,332.6621" style="stroke: #0000FF; stroke-width: 1.0;"/><line style="stroke: #0000FF; stroke-width: 1.0; stroke-dasharray: 2.0,2.0;" x1="36.5" x2="384.5" y1="332.6621" y2="332.6621"/><text fill="#000000" font-family="sans-serif" font-size="13" font-weight="bold" lengthAdjust="spacingAndGlyphs" textLength="9" x="48.5" y="328.2305">8</text><text fill="#000000" font-family="sans-serif" font-size="13" lengthAdjust="spacingAndGlyphs" textLength="101" x="61.5" y="328.2305">Already Member</text><polygon fill="#A80036" points="406.5,357.9727,396.5,361.9727,406.5,365.9727,402.5,361.9727" style="stroke: #A80036; stroke-width: 1.0;"/><line style="stroke: #A80036; stroke-width: 1.0;" x1="400.5" x2="1215.5" y1="361.9727" y2="361.9727"/><text fill="#000000" font-family="sans-serif" font-size="13" font-weight="bold" lengthAdjust="spacingAndGlyphs" textLength="9" x="412.5" y="357.541">9</text><text fill="#000000" font-family="sans-serif" font-size="13" lengthAdjust="spacingAndGlyphs" textLength="112" x="425.5" y="357.541">UserID Not Found</text><polygon fill="#A80036" points="37.5,387.2832,27.5,391.2832,37.5,395.2832,33.5,391.2832" style="stroke: #A80036; stroke-width: 1.0;"/><line style="stroke: #A80036; stroke-width: 1.0;" x1="31.5" x2="384.5" y1="391.2832" y2="391.2832"/><text fill="#000000" font-family="sans-serif" font-size="13" font-weight="bold" lengthAdjust="spacingAndGlyphs" textLength="18" x="43.5" y="386.8516">10</text><text fill="#000000" font-family="sans-serif" font-size="13" lengthAdjust="spacingAndGlyphs" textLength="48" x="65.5" y="386.8516">Queued</text><polygon fill="#A80036" points="710.5,416.5938,720.5,420.5938,710.5,424.5938,714.5,420.5938" style="stroke: #A80036; stroke-width: 1.0;"/><line style="stroke: #A80036; stroke-width: 1.0;" x1="395.5" x2="716.5" y1="420.5938" y2="420.5938"/><text fill="#000000" font-family="sans-serif" font-size="13" font-weight="bold" lengthAdjust="spacingAndGlyphs" textLength="18" x="402.5" y="416.1621">11</text><text fill="#000000" font-family="sans-serif" font-size="13" lengthAdjust="spacingAndGlyphs" textLength="281" x="424.5" y="416.1621">Have group@domain Member user@domain1</text><polygon fill="#A80036" points="401.5,445.9043,391.5,449.9043,401.5,453.9043,397.5,449.9043" style="stroke: #A80036; stroke-width: 1.0;"/><line style="stroke: #A80036; stroke-width: 1.0;" x1="395.5" x2="721.5" y1="449.9043" y2="449.9043"/><text fill="#000000" font-family="sans-serif" font-size="13" font-weight="bold" lengthAdjust="spacingAndGlyphs" textLength="18" x="407.5" y="445.4727">12</text><text fill="#000000" font-family="sans-serif" font-size="13" lengthAdjust="spacingAndGlyphs" textLength="48" x="429.5" y="445.4727">Queued</text><polygon fill="#A80036" points="1199.5,480.2148,1209.5,484.2148,1199.5,488.2148,1203.5,484.2148" style="stroke: #A80036; stroke-width: 1.0;"/><line style="stroke: #A80036; stroke-width: 1.0;" x1="732.5" x2="1205.5" y1="484.2148" y2="484.2148"/><text fill="#000000" font-family="sans-serif" font-size="13" font-weight="bold" lengthAdjust="spacingAndGlyphs" textLength="18" x="739.5" y="479.7832">13</text><text fill="#000000" font-family="sans-serif" font-size="13" lengthAdjust="spacingAndGlyphs" textLength="149" x="761.5" y="479.7832">Retrieve group@domain</text><polygon fill="#FBFB77" filter="url(#fctrbrf)" points="507,463.2148,507,488.2148,713,488.2148,713,473.2148,703,463.2148,507,463.2148" style="stroke: #A80036; stroke-width: 1.0;"/><line style="stroke: #A80036; stroke-width: 1.0;" x1="703" x2="703" y1="463.2148" y2="473.2148"/><line style="stroke: #A80036; stroke-width: 1.0;" x1="713" x2="703" y1="473.2148" y2="473.2148"/><text fill="#000000" font-family="sans-serif" font-size="13" lengthAdjust="spacingAndGlyphs" textLength="185" x="513" y="480.7832">When copying the LDAP entry</text><polygon fill="#A80036" points="743.5,514.5254,733.5,518.5254,743.5,522.5254,739.5,518.5254" style="stroke: #A80036; stroke-width: 1.0;"/><line style="stroke: #A80036; stroke-width: 1.0;" x1="737.5" x2="1210.5" y1="518.5254" y2="518.5254"/><text fill="#000000" font-family="sans-serif" font-size="13" font-weight="bold" lengthAdjust="spacingAndGlyphs" textLength="18" x="749.5" y="514.0938">14</text><text fill="#000000" font-family="sans-serif" font-size="13" lengthAdjust="spacingAndGlyphs" textLength="127" x="771.5" y="514.0938">Creds MIIEVzCCAz...</text><polygon fill="#A80036" points="748.5,543.8359,738.5,547.8359,748.5,551.8359,744.5,547.8359" style="stroke: #A80036; stroke-width: 1.0;"/><line style="stroke: #A80036; stroke-width: 1.0;" x1="742.5" x2="1215.5" y1="547.8359" y2="547.8359"/><text fill="#000000" font-family="sans-serif" font-size="13" font-weight="bold" lengthAdjust="spacingAndGlyphs" textLength="18" x="754.5" y="543.4043">15</text><text fill="#000000" font-family="sans-serif" font-size="13" lengthAdjust="spacingAndGlyphs" textLength="103" x="776.5" y="543.4043">pkcs11:xxx;y;zz</text><line style="stroke: #A80036; stroke-width: 1.0;" x1="742.5" x2="784.5" y1="577.457" y2="577.457"/><line style="stroke: #A80036; stroke-width: 1.0;" x1="784.5" x2="784.5" y1="577.457" y2="590.457"/><line style="stroke: #A80036; stroke-width: 1.0;" x1="743.5" x2="784.5" y1="590.457" y2="590.457"/><polygon fill="#A80036" points="753.5,586.457,743.5,590.457,753.5,594.457,749.5,590.457" style="stroke: #A80036; stroke-width: 1.0;"/><text fill="#000000" font-family="sans-serif" font-size="13" font-weight="bold" lengthAdjust="spacingAndGlyphs" textLength="18" x="749.5" y="572.7148">16</text><text fill="#000000" font-family="sans-serif" font-size="13" lengthAdjust="spacingAndGlyphs" textLength="202" x="771.5" y="572.7148">Pick a group-internal MemberID</text><polygon fill="#A80036" points="1199.5,615.457,1209.5,619.457,1199.5,623.457,1203.5,619.457" style="stroke: #A80036; stroke-width: 1.0;"/><line style="stroke: #A80036; stroke-width: 1.0;" x1="732.5" x2="1205.5" y1="619.457" y2="619.457"/><text fill="#000000" font-family="sans-serif" font-size="13" font-weight="bold" lengthAdjust="spacingAndGlyphs" textLength="18" x="739.5" y="615.0254">17</text><text fill="#000000" font-family="sans-serif" font-size="13" lengthAdjust="spacingAndGlyphs" textLength="433" x="761.5" y="615.0254">Have group@domain Member user@domain1 AS group+you@domain</text><polygon fill="#A80036" points="1199.5,644.7676,1209.5,648.7676,1199.5,652.7676,1203.5,648.7676" style="stroke: #A80036; stroke-width: 1.0;"/><line style="stroke: #A80036; stroke-width: 1.0;" x1="732.5" x2="1205.5" y1="648.7676" y2="648.7676"/><text fill="#000000" font-family="sans-serif" font-size="13" font-weight="bold" lengthAdjust="spacingAndGlyphs" textLength="18" x="739.5" y="644.3359">18</text><text fill="#000000" font-family="sans-serif" font-size="13" lengthAdjust="spacingAndGlyphs" textLength="342" x="761.5" y="644.3359">Have Creds for user@domain1 AS group+you@domain</text><polygon fill="#A80036" points="1199.5,679.0781,1209.5,683.0781,1199.5,687.0781,1203.5,683.0781" style="stroke: #A80036; stroke-width: 1.0;"/><line style="stroke: #A80036; stroke-width: 1.0;" x1="732.5" x2="1205.5" y1="683.0781" y2="683.0781"/><text fill="#000000" font-family="sans-serif" font-size="13" font-weight="bold" lengthAdjust="spacingAndGlyphs" textLength="18" x="739.5" y="678.6465">19</text><text fill="#000000" font-family="sans-serif" font-size="13" lengthAdjust="spacingAndGlyphs" textLength="406" x="761.5" y="678.6465">Have pkcs11:xxx;y;zz XS user@domain1 AS group+you@domain</text><polygon fill="#FBFB77" filter="url(#fctrbrf)" points="542,662.0781,542,687.0781,713,687.0781,713,672.0781,703,662.0781,542,662.0781" style="stroke: #A80036; stroke-width: 1.0;"/><line style="stroke: #A80036; stroke-width: 1.0;" x1="703" x2="703" y1="662.0781" y2="672.0781"/><line style="stroke: #A80036; stroke-width: 1.0;" x1="713" x2="703" y1="672.0781" y2="672.0781"/><text fill="#000000" font-family="sans-serif" font-size="13" lengthAdjust="spacingAndGlyphs" textLength="150" x="548" y="679.6465">Or share the LDAP entry</text><polygon fill="#A80036" points="738.5,713.3887,728.5,717.3887,738.5,721.3887,734.5,717.3887" style="stroke: #A80036; stroke-width: 1.0;"/><line style="stroke: #A80036; stroke-width: 1.0;" x1="732.5" x2="1215.5" y1="717.3887" y2="717.3887"/><text fill="#000000" font-family="sans-serif" font-size="13" font-weight="bold" lengthAdjust="spacingAndGlyphs" textLength="18" x="744.5" y="712.957">20</text><text fill="#000000" font-family="sans-serif" font-size="13" lengthAdjust="spacingAndGlyphs" textLength="37" x="766.5" y="712.957">Ready</text></g></svg>