<?xml version="1.0" encoding="UTF-8" standalone="no"?><svg xmlns="http://www.w3.org/2000/svg" xmlns:xlink="http://www.w3.org/1999/xlink" contentScriptType="application/ecmascript" contentStyleType="text/css" height="1145px" preserveAspectRatio="none" style="width:1048px;height:1145px;" version="1.1" viewBox="0 0 1048 1145" width="1048px" zoomAndPan="magnify"><defs><filter height="300%" id="flzdkjd" width="300%" x="-1" y="-1"><feGaussianBlur result="blurOut" stdDeviation="2.0"/><feColorMatrix in="blurOut" result="blurOut2" type="matrix" values="0 0 0 0 0 0 0 0 0 0 0 0 0 0 0 0 0 0 .4 0"/><feOffset dx="4.0" dy="4.0" in="blurOut2" result="blurOut3"/><feBlend in="SourceGraphic" in2="blurOut3" mode="normal"/></filter></defs><g><rect fill="#FFFFFF" filter="url(#flzdkjd)" height="381.416" style="stroke: #A80036; stroke-width: 1.0;" width="10" x="21.5" y="96.4883"/><rect fill="#FFFFFF" filter="url(#flzdkjd)" height="101.9316" style="stroke: #A80036; stroke-width: 1.0;" width="10" x="80" y="117.4883"/><rect fill="#FFFFFF" filter="url(#flzdkjd)" height="483.3477" style="stroke: #A80036; stroke-width: 1.0;" width="10" x="273" y="96.4883"/><rect fill="#FFFFFF" filter="url(#flzdkjd)" height="565.2793" style="stroke: #A80036; stroke-width: 1.0;" width="10" x="501" y="477.9043"/><rect fill="#FFFFFF" filter="url(#flzdkjd)" height="28" style="stroke: #A80036; stroke-width: 1.0;" width="10" x="506" y="822.3203"/><rect fill="#FFFFFF" filter="url(#flzdkjd)" height="58.6211" style="stroke: #A80036; stroke-width: 1.0;" width="10" x="740" y="219.4199"/><rect fill="#FFFFFF" filter="url(#flzdkjd)" height="175.8633" style="stroke: #A80036; stroke-width: 1.0;" width="10" x="854" y="609.1465"/><rect fill="#FFFFFF" filter="url(#flzdkjd)" height="87.9316" style="stroke: #A80036; stroke-width: 1.0;" width="10" x="918" y="579.8359"/><rect fill="#FFFFFF" filter="url(#flzdkjd)" height="170.5527" style="stroke: #A80036; stroke-width: 1.0;" width="10" x="966.5" y="278.041"/><rect fill="#FFFFFF" filter="url(#flzdkjd)" height="220.8633" style="stroke: #A80036; stroke-width: 1.0;" width="10" x="966.5" y="822.3203"/><rect fill="#FFFFFF" filter="url(#flzdkjd)" height="68.6211" style="stroke: #A80036; stroke-width: 1.0;" width="10" x="1015" y="945.252"/><line style="stroke: #A80036; stroke-width: 1.0; stroke-dasharray: 5.0,5.0;" x1="26" x2="26" y1="86.4883" y2="1061.4941"/><line style="stroke: #A80036; stroke-width: 1.0; stroke-dasharray: 5.0,5.0;" x1="85" x2="85" y1="86.4883" y2="1061.4941"/><line style="stroke: #A80036; stroke-width: 1.0; stroke-dasharray: 5.0,5.0;" x1="277.5" x2="277.5" y1="86.4883" y2="1061.4941"/><line style="stroke: #A80036; stroke-width: 1.0; stroke-dasharray: 5.0,5.0;" x1="506" x2="506" y1="86.4883" y2="1061.4941"/><line style="stroke: #A80036; stroke-width: 1.0; stroke-dasharray: 5.0,5.0;" x1="744.5" x2="744.5" y1="86.4883" y2="1061.4941"/><line style="stroke: #A80036; stroke-width: 1.0; stroke-dasharray: 5.0,5.0;" x1="859" x2="859" y1="86.4883" y2="1061.4941"/><line style="stroke: #A80036; stroke-width: 1.0; stroke-dasharray: 5.0,5.0;" x1="923" x2="923" y1="86.4883" y2="1061.4941"/><line style="stroke: #A80036; stroke-width: 1.0; stroke-dasharray: 5.0,5.0;" x1="971" x2="971" y1="86.4883" y2="1061.4941"/><line style="stroke: #A80036; stroke-width: 1.0; stroke-dasharray: 5.0,5.0;" x1="1020" x2="1020" y1="86.4883" y2="1061.4941"/><text fill="#000000" font-family="sans-serif" font-size="14" lengthAdjust="spacingAndGlyphs" textLength="31" x="8" y="83.5352">User</text><ellipse cx="26.5" cy="13" fill="#FEFECE" filter="url(#flzdkjd)" rx="8" ry="8" style="stroke: #A80036; stroke-width: 2.0;"/><path d="M26.5,21 L26.5,48 M13.5,29 L39.5,29 M26.5,48 L13.5,63 M26.5,48 L39.5,63 " fill="#FEFECE" filter="url(#flzdkjd)" style="stroke: #A80036; stroke-width: 2.0;"/><text fill="#000000" font-family="sans-serif" font-size="14" lengthAdjust="spacingAndGlyphs" textLength="31" x="8" y="1074.0293">User</text><ellipse cx="26.5" cy="1086.9824" fill="#FEFECE" filter="url(#flzdkjd)" rx="8" ry="8" style="stroke: #A80036; stroke-width: 2.0;"/><path d="M26.5,1094.9824 L26.5,1121.9824 M13.5,1102.9824 L39.5,1102.9824 M26.5,1121.9824 L13.5,1136.9824 M26.5,1121.9824 L39.5,1136.9824 " fill="#FEFECE" filter="url(#flzdkjd)" style="stroke: #A80036; stroke-width: 2.0;"/><rect fill="#FEFECE" filter="url(#flzdkjd)" height="30.4883" style="stroke: #A80036; stroke-width: 1.5;" width="56" x="55" y="51"/><text fill="#000000" font-family="sans-serif" font-size="14" lengthAdjust="spacingAndGlyphs" textLength="42" x="62" y="71.5352">Authn</text><rect fill="#FEFECE" filter="url(#flzdkjd)" height="30.4883" style="stroke: #A80036; stroke-width: 1.5;" width="56" x="55" y="1060.4941"/><text fill="#000000" font-family="sans-serif" font-size="14" lengthAdjust="spacingAndGlyphs" textLength="42" x="62" y="1081.0293">Authn</text><rect fill="#FEFECE" filter="url(#flzdkjd)" height="30.4883" style="stroke: #A80036; stroke-width: 1.5;" width="111" x="220.5" y="51"/><text fill="#000000" font-family="sans-serif" font-size="14" lengthAdjust="spacingAndGlyphs" textLength="97" x="227.5" y="71.5352">IdHub Control</text><rect fill="#FEFECE" filter="url(#flzdkjd)" height="30.4883" style="stroke: #A80036; stroke-width: 1.5;" width="111" x="220.5" y="1060.4941"/><text fill="#000000" font-family="sans-serif" font-size="14" lengthAdjust="spacingAndGlyphs" textLength="97" x="227.5" y="1081.0293">IdHub Control</text><rect fill="#FEFECE" filter="url(#flzdkjd)" height="30.4883" style="stroke: #A80036; stroke-width: 1.5;" width="102" x="453" y="51"/><text fill="#000000" font-family="sans-serif" font-size="14" lengthAdjust="spacingAndGlyphs" textLength="88" x="460" y="71.5352">Key Manager</text><rect fill="#FEFECE" filter="url(#flzdkjd)" height="30.4883" style="stroke: #A80036; stroke-width: 1.5;" width="102" x="453" y="1060.4941"/><text fill="#000000" font-family="sans-serif" font-size="14" lengthAdjust="spacingAndGlyphs" textLength="88" x="460" y="1081.0293">Key Manager</text><rect fill="#FEFECE" filter="url(#flzdkjd)" height="30.4883" style="stroke: #A80036; stroke-width: 1.5;" width="55" x="715.5" y="51"/><text fill="#000000" font-family="sans-serif" font-size="14" lengthAdjust="spacingAndGlyphs" textLength="41" x="722.5" y="71.5352">Authz</text><rect fill="#FEFECE" filter="url(#flzdkjd)" height="30.4883" style="stroke: #A80036; stroke-width: 1.5;" width="55" x="715.5" y="1060.4941"/><text fill="#000000" font-family="sans-serif" font-size="14" lengthAdjust="spacingAndGlyphs" textLength="41" x="722.5" y="1081.0293">Authz</text><text fill="#000000" font-family="sans-serif" font-size="14" lengthAdjust="spacingAndGlyphs" textLength="66" x="823" y="83.5352">PKCS #11</text><path d="M841,34 C841,24 859,24 859,24 C859,24 877,24 877,34 L877,60 C877,70 859,70 859,70 C859,70 841,70 841,60 L841,34 " fill="#FEFECE" filter="url(#flzdkjd)" style="stroke: #000000; stroke-width: 1.5;"/><path d="M841,34 C841,44 859,44 859,44 C859,44 877,44 877,34 " fill="none" style="stroke: #000000; stroke-width: 1.5;"/><text fill="#000000" font-family="sans-serif" font-size="14" lengthAdjust="spacingAndGlyphs" textLength="66" x="823" y="1074.0293">PKCS #11</text><path d="M841,1086.9824 C841,1076.9824 859,1076.9824 859,1076.9824 C859,1076.9824 877,1076.9824 877,1086.9824 L877,1112.9824 C877,1122.9824 859,1122.9824 859,1122.9824 C859,1122.9824 841,1122.9824 841,1112.9824 L841,1086.9824 " fill="#FEFECE" filter="url(#flzdkjd)" style="stroke: #000000; stroke-width: 1.5;"/><path d="M841,1086.9824 C841,1096.9824 859,1096.9824 859,1096.9824 C859,1096.9824 877,1096.9824 877,1086.9824 " fill="none" style="stroke: #000000; stroke-width: 1.5;"/><text fill="#000000" font-family="sans-serif" font-size="14" lengthAdjust="spacingAndGlyphs" textLength="29" x="905.5" y="83.5352">KDC</text><path d="M905,34 C905,24 923,24 923,24 C923,24 941,24 941,34 L941,60 C941,70 923,70 923,70 C923,70 905,70 905,60 L905,34 " fill="#FEFECE" filter="url(#flzdkjd)" style="stroke: #000000; stroke-width: 1.5;"/><path d="M905,34 C905,44 923,44 923,44 C923,44 941,44 941,34 " fill="none" style="stroke: #000000; stroke-width: 1.5;"/><text fill="#000000" font-family="sans-serif" font-size="14" lengthAdjust="spacingAndGlyphs" textLength="29" x="905.5" y="1074.0293">KDC</text><path d="M905,1086.9824 C905,1076.9824 923,1076.9824 923,1076.9824 C923,1076.9824 941,1076.9824 941,1086.9824 L941,1112.9824 C941,1122.9824 923,1122.9824 923,1122.9824 C923,1122.9824 905,1122.9824 905,1112.9824 L905,1086.9824 " fill="#FEFECE" filter="url(#flzdkjd)" style="stroke: #000000; stroke-width: 1.5;"/><path d="M905,1086.9824 C905,1096.9824 923,1096.9824 923,1096.9824 C923,1096.9824 941,1096.9824 941,1086.9824 " fill="none" style="stroke: #000000; stroke-width: 1.5;"/><text fill="#000000" font-family="sans-serif" font-size="14" lengthAdjust="spacingAndGlyphs" textLength="35" x="951" y="83.5352">LDAP</text><path d="M953.5,34 C953.5,24 971.5,24 971.5,24 C971.5,24 989.5,24 989.5,34 L989.5,60 C989.5,70 971.5,70 971.5,70 C971.5,70 953.5,70 953.5,60 L953.5,34 " fill="#FEFECE" filter="url(#flzdkjd)" style="stroke: #000000; stroke-width: 1.5;"/><path d="M953.5,34 C953.5,44 971.5,44 971.5,44 C971.5,44 989.5,44 989.5,34 " fill="none" style="stroke: #000000; stroke-width: 1.5;"/><text fill="#000000" font-family="sans-serif" font-size="14" lengthAdjust="spacingAndGlyphs" textLength="35" x="951" y="1074.0293">LDAP</text><path d="M953.5,1086.9824 C953.5,1076.9824 971.5,1076.9824 971.5,1076.9824 C971.5,1076.9824 989.5,1076.9824 989.5,1086.9824 L989.5,1112.9824 C989.5,1122.9824 971.5,1122.9824 971.5,1122.9824 C971.5,1122.9824 953.5,1122.9824 953.5,1112.9824 L953.5,1086.9824 " fill="#FEFECE" filter="url(#flzdkjd)" style="stroke: #000000; stroke-width: 1.5;"/><path d="M953.5,1086.9824 C953.5,1096.9824 971.5,1096.9824 971.5,1096.9824 C971.5,1096.9824 989.5,1096.9824 989.5,1086.9824 " fill="none" style="stroke: #000000; stroke-width: 1.5;"/><text fill="#000000" font-family="sans-serif" font-size="14" lengthAdjust="spacingAndGlyphs" textLength="28" x="1003" y="83.5352">DNS</text><path d="M1002,34 C1002,24 1020,24 1020,24 C1020,24 1038,24 1038,34 L1038,60 C1038,70 1020,70 1020,70 C1020,70 1002,70 1002,60 L1002,34 " fill="#FEFECE" filter="url(#flzdkjd)" style="stroke: #000000; stroke-width: 1.5;"/><path d="M1002,34 C1002,44 1020,44 1020,44 C1020,44 1038,44 1038,34 " fill="none" style="stroke: #000000; stroke-width: 1.5;"/><text fill="#000000" font-family="sans-serif" font-size="14" lengthAdjust="spacingAndGlyphs" textLength="28" x="1003" y="1074.0293">DNS</text><path d="M1002,1086.9824 C1002,1076.9824 1020,1076.9824 1020,1076.9824 C1020,1076.9824 1038,1076.9824 1038,1086.9824 L1038,1112.9824 C1038,1122.9824 1020,1122.9824 1020,1122.9824 C1020,1122.9824 1002,1122.9824 1002,1112.9824 L1002,1086.9824 " fill="#FEFECE" filter="url(#flzdkjd)" style="stroke: #000000; stroke-width: 1.5;"/><path d="M1002,1086.9824 C1002,1096.9824 1020,1096.9824 1020,1096.9824 C1020,1096.9824 1038,1096.9824 1038,1086.9824 " fill="none" style="stroke: #000000; stroke-width: 1.5;"/><rect fill="#FFFFFF" filter="url(#flzdkjd)" height="381.416" style="stroke: #A80036; stroke-width: 1.0;" width="10" x="21.5" y="96.4883"/><rect fill="#FFFFFF" filter="url(#flzdkjd)" height="101.9316" style="stroke: #A80036; stroke-width: 1.0;" width="10" x="80" y="117.4883"/><rect fill="#FFFFFF" filter="url(#flzdkjd)" height="483.3477" style="stroke: #A80036; stroke-width: 1.0;" width="10" x="273" y="96.4883"/><rect fill="#FFFFFF" filter="url(#flzdkjd)" height="565.2793" style="stroke: #A80036; stroke-width: 1.0;" width="10" x="501" y="477.9043"/><rect fill="#FFFFFF" filter="url(#flzdkjd)" height="28" style="stroke: #A80036; stroke-width: 1.0;" width="10" x="506" y="822.3203"/><rect fill="#FFFFFF" filter="url(#flzdkjd)" height="58.6211" style="stroke: #A80036; stroke-width: 1.0;" width="10" x="740" y="219.4199"/><rect fill="#FFFFFF" filter="url(#flzdkjd)" height="175.8633" style="stroke: #A80036; stroke-width: 1.0;" width="10" x="854" y="609.1465"/><rect fill="#FFFFFF" filter="url(#flzdkjd)" height="87.9316" style="stroke: #A80036; stroke-width: 1.0;" width="10" x="918" y="579.8359"/><rect fill="#FFFFFF" filter="url(#flzdkjd)" height="170.5527" style="stroke: #A80036; stroke-width: 1.0;" width="10" x="966.5" y="278.041"/><rect fill="#FFFFFF" filter="url(#flzdkjd)" height="220.8633" style="stroke: #A80036; stroke-width: 1.0;" width="10" x="966.5" y="822.3203"/><rect fill="#FFFFFF" filter="url(#flzdkjd)" height="68.6211" style="stroke: #A80036; stroke-width: 1.0;" width="10" x="1015" y="945.252"/><polygon fill="#A80036" points="261,113.4883,271,117.4883,261,121.4883,265,117.4883" style="stroke: #A80036; stroke-width: 1.0;"/><line style="stroke: #A80036; stroke-width: 1.0;" x1="31.5" x2="267" y1="117.4883" y2="117.4883"/><text fill="#000000" font-family="sans-serif" font-size="13" font-weight="bold" lengthAdjust="spacingAndGlyphs" textLength="9" x="38.5" y="113.0566">1</text><text fill="#000000" font-family="sans-serif" font-size="13" lengthAdjust="spacingAndGlyphs" textLength="166" x="51.5" y="113.0566">Group Add group@domain</text><rect fill="#EEEEEE" filter="url(#flzdkjd)" height="3" style="stroke: #EEEEEE; stroke-width: 1.0;" width="1040" x="3" y="146.4541"/><line style="stroke: #000000; stroke-width: 1.0;" x1="3" x2="1043" y1="146.4541" y2="146.4541"/><line style="stroke: #000000; stroke-width: 1.0;" x1="3" x2="1043" y1="149.4541" y2="149.4541"/><rect fill="#EEEEEE" filter="url(#flzdkjd)" height="23.3105" style="stroke: #000000; stroke-width: 2.0;" width="117" x="464.5" y="135.7988"/><text fill="#000000" font-family="sans-serif" font-size="13" font-weight="bold" lengthAdjust="spacingAndGlyphs" textLength="99" x="470.5" y="152.3672">Access Control</text><polygon fill="#A80036" points="101,186.1094,91,190.1094,101,194.1094,97,190.1094" style="stroke: #A80036; stroke-width: 1.0;"/><line style="stroke: #A80036; stroke-width: 1.0;" x1="95" x2="272" y1="190.1094" y2="190.1094"/><text fill="#000000" font-family="sans-serif" font-size="13" font-weight="bold" lengthAdjust="spacingAndGlyphs" textLength="9" x="107" y="185.6777">2</text><text fill="#000000" font-family="sans-serif" font-size="13" lengthAdjust="spacingAndGlyphs" textLength="136" x="120" y="185.6777">SecureLayer @domain</text><polygon fill="#A80036" points="261,215.4199,271,219.4199,261,223.4199,265,219.4199" style="stroke: #A80036; stroke-width: 1.0;"/><line style="stroke: #A80036; stroke-width: 1.0;" x1="85" x2="267" y1="219.4199" y2="219.4199"/><text fill="#000000" font-family="sans-serif" font-size="13" font-weight="bold" lengthAdjust="spacingAndGlyphs" textLength="9" x="92" y="214.9883">3</text><text fill="#000000" font-family="sans-serif" font-size="13" lengthAdjust="spacingAndGlyphs" textLength="146" x="105" y="214.9883">RemoteID you@domain</text><polygon fill="#A80036" points="728,244.7305,738,248.7305,728,252.7305,732,248.7305" style="stroke: #A80036; stroke-width: 1.0;"/><line style="stroke: #A80036; stroke-width: 1.0;" x1="283" x2="734" y1="248.7305" y2="248.7305"/><text fill="#000000" font-family="sans-serif" font-size="13" font-weight="bold" lengthAdjust="spacingAndGlyphs" textLength="9" x="290" y="244.2988">4</text><text fill="#000000" font-family="sans-serif" font-size="13" lengthAdjust="spacingAndGlyphs" textLength="328" x="303" y="244.2988">WANT groupid-create ON @domain AS you@domain</text><polygon fill="#A80036" points="294,274.041,284,278.041,294,282.041,290,278.041" style="stroke: #A80036; stroke-width: 1.0;"/><line style="stroke: #A80036; stroke-width: 1.0;" x1="288" x2="744" y1="278.041" y2="278.041"/><text fill="#000000" font-family="sans-serif" font-size="13" font-weight="bold" lengthAdjust="spacingAndGlyphs" textLength="9" x="300" y="273.6094">5</text><text fill="#000000" font-family="sans-serif" font-size="13" lengthAdjust="spacingAndGlyphs" textLength="148" x="313" y="273.6094">OK FOR admin@domain</text><rect fill="#EEEEEE" filter="url(#flzdkjd)" height="3" style="stroke: #EEEEEE; stroke-width: 1.0;" width="1040" x="3" y="307.0068"/><line style="stroke: #000000; stroke-width: 1.0;" x1="3" x2="1043" y1="307.0068" y2="307.0068"/><line style="stroke: #000000; stroke-width: 1.0;" x1="3" x2="1043" y1="310.0068" y2="310.0068"/><rect fill="#EEEEEE" filter="url(#flzdkjd)" height="23.3105" style="stroke: #000000; stroke-width: 2.0;" width="104" x="471" y="296.3516"/><text fill="#000000" font-family="sans-serif" font-size="13" font-weight="bold" lengthAdjust="spacingAndGlyphs" textLength="86" x="477" y="312.9199">Sanity Check</text><polygon fill="#A80036" points="954.5,346.6621,964.5,350.6621,954.5,354.6621,958.5,350.6621" style="stroke: #A80036; stroke-width: 1.0;"/><line style="stroke: #A80036; stroke-width: 1.0;" x1="283" x2="960.5" y1="350.6621" y2="350.6621"/><text fill="#000000" font-family="sans-serif" font-size="13" font-weight="bold" lengthAdjust="spacingAndGlyphs" textLength="9" x="290" y="346.2305">6</text><text fill="#000000" font-family="sans-serif" font-size="13" lengthAdjust="spacingAndGlyphs" textLength="276" x="303" y="346.2305">Compare group@domain AS admin@domain</text><polygon fill="#0000FF" points="294,380.9727,284,384.9727,294,388.9727,290,384.9727" style="stroke: #0000FF; stroke-width: 1.0;"/><line style="stroke: #0000FF; stroke-width: 1.0; stroke-dasharray: 2.0,2.0;" x1="288" x2="965.5" y1="384.9727" y2="384.9727"/><text fill="#000000" font-family="sans-serif" font-size="13" font-weight="bold" lengthAdjust="spacingAndGlyphs" textLength="9" x="300" y="380.541">7</text><text fill="#000000" font-family="sans-serif" font-size="13" lengthAdjust="spacingAndGlyphs" textLength="85" x="313" y="380.541">UserID Found</text><polygon fill="#FBFB77" filter="url(#flzdkjd)" points="74,363.9727,74,388.9727,264,388.9727,264,373.9727,254,363.9727,74,363.9727" style="stroke: #A80036; stroke-width: 1.0;"/><line style="stroke: #A80036; stroke-width: 1.0;" x1="254" x2="254" y1="363.9727" y2="373.9727"/><line style="stroke: #A80036; stroke-width: 1.0;" x1="264" x2="254" y1="373.9727" y2="373.9727"/><text fill="#0000FF" font-family="sans-serif" font-size="13" lengthAdjust="spacingAndGlyphs" textLength="169" x="80" y="381.541">Alternative flow, fatal error</text><polygon fill="#0000FF" points="42.5,415.2832,32.5,419.2832,42.5,423.2832,38.5,419.2832" style="stroke: #0000FF; stroke-width: 1.0;"/><line style="stroke: #0000FF; stroke-width: 1.0; stroke-dasharray: 2.0,2.0;" x1="36.5" x2="272" y1="419.2832" y2="419.2832"/><text fill="#000000" font-family="sans-serif" font-size="13" font-weight="bold" lengthAdjust="spacingAndGlyphs" textLength="9" x="48.5" y="414.8516">8</text><text fill="#000000" font-family="sans-serif" font-size="13" lengthAdjust="spacingAndGlyphs" textLength="89" x="61.5" y="414.8516">Already Exists</text><polygon fill="#A80036" points="294,444.5938,284,448.5938,294,452.5938,290,448.5938" style="stroke: #A80036; stroke-width: 1.0;"/><line style="stroke: #A80036; stroke-width: 1.0;" x1="288" x2="970.5" y1="448.5938" y2="448.5938"/><text fill="#000000" font-family="sans-serif" font-size="13" font-weight="bold" lengthAdjust="spacingAndGlyphs" textLength="9" x="300" y="444.1621">9</text><text fill="#000000" font-family="sans-serif" font-size="13" lengthAdjust="spacingAndGlyphs" textLength="112" x="313" y="444.1621">UserID Not Found</text><polygon fill="#A80036" points="37.5,473.9043,27.5,477.9043,37.5,481.9043,33.5,477.9043" style="stroke: #A80036; stroke-width: 1.0;"/><line style="stroke: #A80036; stroke-width: 1.0;" x1="31.5" x2="272" y1="477.9043" y2="477.9043"/><text fill="#000000" font-family="sans-serif" font-size="13" font-weight="bold" lengthAdjust="spacingAndGlyphs" textLength="18" x="43.5" y="473.4727">10</text><text fill="#000000" font-family="sans-serif" font-size="13" lengthAdjust="spacingAndGlyphs" textLength="48" x="65.5" y="473.4727">Queued</text><rect fill="#EEEEEE" filter="url(#flzdkjd)" height="3" style="stroke: #EEEEEE; stroke-width: 1.0;" width="1040" x="3" y="506.8701"/><line style="stroke: #000000; stroke-width: 1.0;" x1="3" x2="1043" y1="506.8701" y2="506.8701"/><line style="stroke: #000000; stroke-width: 1.0;" x1="3" x2="1043" y1="509.8701" y2="509.8701"/><rect fill="#EEEEEE" filter="url(#flzdkjd)" height="23.3105" style="stroke: #000000; stroke-width: 2.0;" width="136" x="455" y="496.2148"/><text fill="#000000" font-family="sans-serif" font-size="13" font-weight="bold" lengthAdjust="spacingAndGlyphs" textLength="118" x="461" y="512.7832">Key Management</text><polygon fill="#A80036" points="489,546.5254,499,550.5254,489,554.5254,493,550.5254" style="stroke: #A80036; stroke-width: 1.0;"/><line style="stroke: #A80036; stroke-width: 1.0;" x1="283" x2="495" y1="550.5254" y2="550.5254"/><text fill="#000000" font-family="sans-serif" font-size="13" font-weight="bold" lengthAdjust="spacingAndGlyphs" textLength="18" x="290" y="546.0938">11</text><text fill="#000000" font-family="sans-serif" font-size="13" lengthAdjust="spacingAndGlyphs" textLength="172" x="312" y="546.0938">Have Group group@domain</text><polygon fill="#A80036" points="289,575.8359,279,579.8359,289,583.8359,285,579.8359" style="stroke: #A80036; stroke-width: 1.0;"/><line style="stroke: #A80036; stroke-width: 1.0;" x1="283" x2="500" y1="579.8359" y2="579.8359"/><text fill="#000000" font-family="sans-serif" font-size="13" font-weight="bold" lengthAdjust="spacingAndGlyphs" textLength="18" x="295" y="575.4043">12</text><text fill="#000000" font-family="sans-serif" font-size="13" lengthAdjust="spacingAndGlyphs" textLength="48" x="317" y="575.4043">Queued</text><polygon fill="#A80036" points="906,605.1465,916,609.1465,906,613.1465,910,609.1465" style="stroke: #A80036; stroke-width: 1.0;"/><line style="stroke: #A80036; stroke-width: 1.0;" x1="511" x2="912" y1="609.1465" y2="609.1465"/><text fill="#000000" font-family="sans-serif" font-size="13" font-weight="bold" lengthAdjust="spacingAndGlyphs" textLength="18" x="518" y="604.7148">13</text><text fill="#000000" font-family="sans-serif" font-size="13" lengthAdjust="spacingAndGlyphs" textLength="188" x="540" y="604.7148">Have Principal group@domain</text><polygon fill="#A80036" points="842,634.457,852,638.457,842,642.457,846,638.457" style="stroke: #A80036; stroke-width: 1.0;"/><line style="stroke: #A80036; stroke-width: 1.0;" x1="511" x2="848" y1="638.457" y2="638.457"/><text fill="#000000" font-family="sans-serif" font-size="13" font-weight="bold" lengthAdjust="spacingAndGlyphs" textLength="18" x="518" y="634.0254">14</text><text fill="#000000" font-family="sans-serif" font-size="13" lengthAdjust="spacingAndGlyphs" textLength="297" x="540" y="634.0254">Have Layer group@domain FOR admin@domain</text><polygon fill="#A80036" points="522,663.7676,512,667.7676,522,671.7676,518,667.7676" style="stroke: #A80036; stroke-width: 1.0;"/><line style="stroke: #A80036; stroke-width: 1.0;" x1="516" x2="922" y1="667.7676" y2="667.7676"/><text fill="#000000" font-family="sans-serif" font-size="13" font-weight="bold" lengthAdjust="spacingAndGlyphs" textLength="18" x="528" y="663.3359">15</text><text fill="#000000" font-family="sans-serif" font-size="13" lengthAdjust="spacingAndGlyphs" textLength="18" x="550" y="663.3359">OK</text><polygon fill="#A80036" points="842,693.0781,852,697.0781,842,701.0781,846,697.0781" style="stroke: #A80036; stroke-width: 1.0;"/><line style="stroke: #A80036; stroke-width: 1.0;" x1="511" x2="848" y1="697.0781" y2="697.0781"/><text fill="#000000" font-family="sans-serif" font-size="13" font-weight="bold" lengthAdjust="spacingAndGlyphs" textLength="18" x="518" y="692.6465">16</text><text fill="#000000" font-family="sans-serif" font-size="13" lengthAdjust="spacingAndGlyphs" textLength="163" x="540" y="692.6465">Have Keys group@domain</text><polygon fill="#A80036" points="522,722.3887,512,726.3887,522,730.3887,518,726.3887" style="stroke: #A80036; stroke-width: 1.0;"/><line style="stroke: #A80036; stroke-width: 1.0;" x1="516" x2="853" y1="726.3887" y2="726.3887"/><text fill="#000000" font-family="sans-serif" font-size="13" font-weight="bold" lengthAdjust="spacingAndGlyphs" textLength="18" x="528" y="721.957">17</text><text fill="#000000" font-family="sans-serif" font-size="13" lengthAdjust="spacingAndGlyphs" textLength="140" x="550" y="721.957">Made pkcs11:xxx;y;zz</text><polygon fill="#A80036" points="842,751.6992,852,755.6992,842,759.6992,846,755.6992" style="stroke: #A80036; stroke-width: 1.0;"/><line style="stroke: #A80036; stroke-width: 1.0;" x1="511" x2="848" y1="755.6992" y2="755.6992"/><text fill="#000000" font-family="sans-serif" font-size="13" font-weight="bold" lengthAdjust="spacingAndGlyphs" textLength="18" x="518" y="751.2676">18</text><text fill="#000000" font-family="sans-serif" font-size="13" lengthAdjust="spacingAndGlyphs" textLength="149" x="540" y="751.2676">Retrieve group@domain</text><polygon fill="#A80036" points="522,781.0098,512,785.0098,522,789.0098,518,785.0098" style="stroke: #A80036; stroke-width: 1.0;"/><line style="stroke: #A80036; stroke-width: 1.0;" x1="516" x2="858" y1="785.0098" y2="785.0098"/><text fill="#000000" font-family="sans-serif" font-size="13" font-weight="bold" lengthAdjust="spacingAndGlyphs" textLength="18" x="528" y="780.5781">19</text><text fill="#000000" font-family="sans-serif" font-size="13" lengthAdjust="spacingAndGlyphs" textLength="136" x="550" y="780.5781">PubKey MIIEVzCCAz...</text><line style="stroke: #A80036; stroke-width: 1.0;" x1="516" x2="558" y1="814.6309" y2="814.6309"/><line style="stroke: #A80036; stroke-width: 1.0;" x1="558" x2="558" y1="814.6309" y2="827.6309"/><line style="stroke: #A80036; stroke-width: 1.0;" x1="517" x2="558" y1="827.6309" y2="827.6309"/><polygon fill="#A80036" points="527,823.6309,517,827.6309,527,831.6309,523,827.6309" style="stroke: #A80036; stroke-width: 1.0;"/><text fill="#000000" font-family="sans-serif" font-size="13" font-weight="bold" lengthAdjust="spacingAndGlyphs" textLength="18" x="523" y="809.8887">20</text><text fill="#000000" font-family="sans-serif" font-size="13" lengthAdjust="spacingAndGlyphs" textLength="193" x="545" y="809.8887">PubKey MIIEVzCCAz... to Creds</text><polygon fill="#A80036" points="954.5,882.6309,964.5,886.6309,954.5,890.6309,958.5,886.6309" style="stroke: #A80036; stroke-width: 1.0;"/><line style="stroke: #A80036; stroke-width: 1.0;" x1="511" x2="960.5" y1="886.6309" y2="886.6309"/><text fill="#000000" font-family="sans-serif" font-size="13" font-weight="bold" lengthAdjust="spacingAndGlyphs" textLength="18" x="518" y="882.1992">21</text><text fill="#000000" font-family="sans-serif" font-size="13" lengthAdjust="spacingAndGlyphs" textLength="313" x="540" y="882.1992">Have group@domain XS public AS admin@domain</text><polygon fill="#A80036" points="954.5,911.9414,964.5,915.9414,954.5,919.9414,958.5,915.9414" style="stroke: #A80036; stroke-width: 1.0;"/><line style="stroke: #A80036; stroke-width: 1.0;" x1="511" x2="960.5" y1="915.9414" y2="915.9414"/><text fill="#000000" font-family="sans-serif" font-size="13" font-weight="bold" lengthAdjust="spacingAndGlyphs" textLength="18" x="518" y="911.5098">22</text><text fill="#000000" font-family="sans-serif" font-size="13" lengthAdjust="spacingAndGlyphs" textLength="375" x="540" y="911.5098">Have Creds for group@domain XS public AS admin@domain</text><polygon fill="#A80036" points="954.5,941.252,964.5,945.252,954.5,949.252,958.5,945.252" style="stroke: #A80036; stroke-width: 1.0;"/><line style="stroke: #A80036; stroke-width: 1.0;" x1="511" x2="960.5" y1="945.252" y2="945.252"/><text fill="#000000" font-family="sans-serif" font-size="13" font-weight="bold" lengthAdjust="spacingAndGlyphs" textLength="18" x="518" y="940.8203">23</text><text fill="#000000" font-family="sans-serif" font-size="13" lengthAdjust="spacingAndGlyphs" textLength="377" x="540" y="940.8203">Have pkcs11:xxx;y;zz XS group@domain AS admin@domain</text><polygon fill="#0000FF" points="1003,975.5625,1013,979.5625,1003,983.5625,1007,979.5625" style="stroke: #0000FF; stroke-width: 1.0;"/><line style="stroke: #0000FF; stroke-width: 1.0; stroke-dasharray: 2.0,2.0;" x1="511" x2="1009" y1="979.5625" y2="979.5625"/><text fill="#000000" font-family="sans-serif" font-size="13" font-weight="bold" lengthAdjust="spacingAndGlyphs" textLength="18" x="518" y="975.1309">24</text><text fill="#000000" font-family="sans-serif" font-size="13" lengthAdjust="spacingAndGlyphs" textLength="238" x="540" y="975.1309">Have TLSA records AS admin@domain</text><polygon fill="#FBFB77" filter="url(#flzdkjd)" points="348,958.5625,348,983.5625,492,983.5625,492,968.5625,482,958.5625,348,958.5625" style="stroke: #A80036; stroke-width: 1.0;"/><line style="stroke: #A80036; stroke-width: 1.0;" x1="482" x2="482" y1="958.5625" y2="968.5625"/><line style="stroke: #A80036; stroke-width: 1.0;" x1="492" x2="482" y1="968.5625" y2="968.5625"/><text fill="#0000FF" font-family="sans-serif" font-size="13" lengthAdjust="spacingAndGlyphs" textLength="123" x="354" y="976.1309">TLSA only for hosts</text><polygon fill="#0000FF" points="522,1009.873,512,1013.873,522,1017.873,518,1013.873" style="stroke: #0000FF; stroke-width: 1.0;"/><line style="stroke: #0000FF; stroke-width: 1.0; stroke-dasharray: 2.0,2.0;" x1="516" x2="1019" y1="1013.873" y2="1013.873"/><text fill="#000000" font-family="sans-serif" font-size="13" font-weight="bold" lengthAdjust="spacingAndGlyphs" textLength="18" x="528" y="1009.4414">25</text><text fill="#000000" font-family="sans-serif" font-size="13" lengthAdjust="spacingAndGlyphs" textLength="48" x="550" y="1009.4414">Queued</text><polygon fill="#A80036" points="517,1039.1836,507,1043.1836,517,1047.1836,513,1043.1836" style="stroke: #A80036; stroke-width: 1.0;"/><line style="stroke: #A80036; stroke-width: 1.0;" x1="511" x2="970.5" y1="1043.1836" y2="1043.1836"/><text fill="#000000" font-family="sans-serif" font-size="13" font-weight="bold" lengthAdjust="spacingAndGlyphs" textLength="18" x="523" y="1038.752">26</text><text fill="#000000" font-family="sans-serif" font-size="13" lengthAdjust="spacingAndGlyphs" textLength="37" x="545" y="1038.752">Ready</text></g></svg>