<?xml version="1.0" encoding="UTF-8" standalone="no"?><svg xmlns="http://www.w3.org/2000/svg" xmlns:xlink="http://www.w3.org/1999/xlink" contentScriptType="application/ecmascript" contentStyleType="text/css" height="790px" preserveAspectRatio="none" style="width:1231px;height:790px;" version="1.1" viewBox="0 0 1231 790" width="1231px" zoomAndPan="magnify"><defs><filter height="300%" id="fogw726" width="300%" x="-1" y="-1"><feGaussianBlur result="blurOut" stdDeviation="2.0"/><feColorMatrix in="blurOut" result="blurOut2" type="matrix" values="0 0 0 0 0 0 0 0 0 0 0 0 0 0 0 0 0 0 .4 0"/><feOffset dx="4.0" dy="4.0" in="blurOut2" result="blurOut3"/><feBlend in="SourceGraphic" in2="blurOut3" mode="normal"/></filter></defs><g><rect fill="#FFFFFF" filter="url(#fogw726)" height="58.6211" style="stroke: #A80036; stroke-width: 1.0;" width="10" x="80" y="117.4883"/><rect fill="#FFFFFF" filter="url(#fogw726)" height="284.7949" style="stroke: #A80036; stroke-width: 1.0;" width="10" x="380.5" y="96.4883"/><rect fill="#FFFFFF" filter="url(#fogw726)" height="306.1055" style="stroke: #A80036; stroke-width: 1.0;" width="10" x="712.5" y="381.2832"/><rect fill="#FFFFFF" filter="url(#fogw726)" height="35.3105" style="stroke: #A80036; stroke-width: 1.0;" width="10" x="717.5" y="527.8359"/><rect fill="#FFFFFF" filter="url(#fogw726)" height="58.6211" style="stroke: #A80036; stroke-width: 1.0;" width="10" x="965.5" y="176.1094"/><rect fill="#FFFFFF" filter="url(#fogw726)" height="117.2422" style="stroke: #A80036; stroke-width: 1.0;" width="10" x="1201.5" y="234.7305"/><rect fill="#FFFFFF" filter="url(#fogw726)" height="87.9316" style="stroke: #A80036; stroke-width: 1.0;" width="10" x="1201.5" y="439.9043"/><rect fill="#FFFFFF" filter="url(#fogw726)" height="122.2422" style="stroke: #A80036; stroke-width: 1.0;" width="10" x="1201.5" y="565.1465"/><line style="stroke: #A80036; stroke-width: 1.0; stroke-dasharray: 5.0,5.0;" x1="26" x2="26" y1="86.4883" y2="705.6992"/><line style="stroke: #A80036; stroke-width: 1.0; stroke-dasharray: 5.0,5.0;" x1="85" x2="85" y1="86.4883" y2="705.6992"/><line style="stroke: #A80036; stroke-width: 1.0; stroke-dasharray: 5.0,5.0;" x1="385" x2="385" y1="86.4883" y2="705.6992"/><line style="stroke: #A80036; stroke-width: 1.0; stroke-dasharray: 5.0,5.0;" x1="717.5" x2="717.5" y1="86.4883" y2="705.6992"/><line style="stroke: #A80036; stroke-width: 1.0; stroke-dasharray: 5.0,5.0;" x1="970" x2="970" y1="86.4883" y2="705.6992"/><line style="stroke: #A80036; stroke-width: 1.0; stroke-dasharray: 5.0,5.0;" x1="1206" x2="1206" y1="86.4883" y2="705.6992"/><text fill="#000000" font-family="sans-serif" font-size="14" lengthAdjust="spacingAndGlyphs" textLength="31" x="8" y="83.5352">User</text><ellipse cx="26.5" cy="13" fill="#FEFECE" filter="url(#fogw726)" rx="8" ry="8" style="stroke: #A80036; stroke-width: 2.0;"/><path d="M26.5,21 L26.5,48 M13.5,29 L39.5,29 M26.5,48 L13.5,63 M26.5,48 L39.5,63 " fill="#FEFECE" filter="url(#fogw726)" style="stroke: #A80036; stroke-width: 2.0;"/><text fill="#000000" font-family="sans-serif" font-size="14" lengthAdjust="spacingAndGlyphs" textLength="31" x="8" y="718.2344">User</text><ellipse cx="26.5" cy="731.1875" fill="#FEFECE" filter="url(#fogw726)" rx="8" ry="8" style="stroke: #A80036; stroke-width: 2.0;"/><path d="M26.5,739.1875 L26.5,766.1875 M13.5,747.1875 L39.5,747.1875 M26.5,766.1875 L13.5,781.1875 M26.5,766.1875 L39.5,781.1875 " fill="#FEFECE" filter="url(#fogw726)" style="stroke: #A80036; stroke-width: 2.0;"/><rect fill="#FEFECE" filter="url(#fogw726)" height="30.4883" style="stroke: #A80036; stroke-width: 1.5;" width="56" x="55" y="51"/><text fill="#000000" font-family="sans-serif" font-size="14" lengthAdjust="spacingAndGlyphs" textLength="42" x="62" y="71.5352">Authn</text><rect fill="#FEFECE" filter="url(#fogw726)" height="30.4883" style="stroke: #A80036; stroke-width: 1.5;" width="56" x="55" y="704.6992"/><text fill="#000000" font-family="sans-serif" font-size="14" lengthAdjust="spacingAndGlyphs" textLength="42" x="62" y="725.2344">Authn</text><rect fill="#FEFECE" filter="url(#fogw726)" height="30.4883" style="stroke: #A80036; stroke-width: 1.5;" width="111" x="328" y="51"/><text fill="#000000" font-family="sans-serif" font-size="14" lengthAdjust="spacingAndGlyphs" textLength="97" x="335" y="71.5352">IdHub Control</text><rect fill="#FEFECE" filter="url(#fogw726)" height="30.4883" style="stroke: #A80036; stroke-width: 1.5;" width="111" x="328" y="704.6992"/><text fill="#000000" font-family="sans-serif" font-size="14" lengthAdjust="spacingAndGlyphs" textLength="97" x="335" y="725.2344">IdHub Control</text><rect fill="#FEFECE" filter="url(#fogw726)" height="30.4883" style="stroke: #A80036; stroke-width: 1.5;" width="102" x="664.5" y="51"/><text fill="#000000" font-family="sans-serif" font-size="14" lengthAdjust="spacingAndGlyphs" textLength="88" x="671.5" y="71.5352">Key Manager</text><rect fill="#FEFECE" filter="url(#fogw726)" height="30.4883" style="stroke: #A80036; stroke-width: 1.5;" width="102" x="664.5" y="704.6992"/><text fill="#000000" font-family="sans-serif" font-size="14" lengthAdjust="spacingAndGlyphs" textLength="88" x="671.5" y="725.2344">Key Manager</text><rect fill="#FEFECE" filter="url(#fogw726)" height="30.4883" style="stroke: #A80036; stroke-width: 1.5;" width="55" x="941" y="51"/><text fill="#000000" font-family="sans-serif" font-size="14" lengthAdjust="spacingAndGlyphs" textLength="41" x="948" y="71.5352">Authz</text><rect fill="#FEFECE" filter="url(#fogw726)" height="30.4883" style="stroke: #A80036; stroke-width: 1.5;" width="55" x="941" y="704.6992"/><text fill="#000000" font-family="sans-serif" font-size="14" lengthAdjust="spacingAndGlyphs" textLength="41" x="948" y="725.2344">Authz</text><text fill="#000000" font-family="sans-serif" font-size="14" lengthAdjust="spacingAndGlyphs" textLength="35" x="1186" y="83.5352">LDAP</text><path d="M1188.5,34 C1188.5,24 1206.5,24 1206.5,24 C1206.5,24 1224.5,24 1224.5,34 L1224.5,60 C1224.5,70 1206.5,70 1206.5,70 C1206.5,70 1188.5,70 1188.5,60 L1188.5,34 " fill="#FEFECE" filter="url(#fogw726)" style="stroke: #000000; stroke-width: 1.5;"/><path d="M1188.5,34 C1188.5,44 1206.5,44 1206.5,44 C1206.5,44 1224.5,44 1224.5,34 " fill="none" style="stroke: #000000; stroke-width: 1.5;"/><text fill="#000000" font-family="sans-serif" font-size="14" lengthAdjust="spacingAndGlyphs" textLength="35" x="1186" y="718.2344">LDAP</text><path d="M1188.5,731.1875 C1188.5,721.1875 1206.5,721.1875 1206.5,721.1875 C1206.5,721.1875 1224.5,721.1875 1224.5,731.1875 L1224.5,757.1875 C1224.5,767.1875 1206.5,767.1875 1206.5,767.1875 C1206.5,767.1875 1188.5,767.1875 1188.5,757.1875 L1188.5,731.1875 " fill="#FEFECE" filter="url(#fogw726)" style="stroke: #000000; stroke-width: 1.5;"/><path d="M1188.5,731.1875 C1188.5,741.1875 1206.5,741.1875 1206.5,741.1875 C1206.5,741.1875 1224.5,741.1875 1224.5,731.1875 " fill="none" style="stroke: #000000; stroke-width: 1.5;"/><rect fill="#FFFFFF" filter="url(#fogw726)" height="58.6211" style="stroke: #A80036; stroke-width: 1.0;" width="10" x="80" y="117.4883"/><rect fill="#FFFFFF" filter="url(#fogw726)" height="284.7949" style="stroke: #A80036; stroke-width: 1.0;" width="10" x="380.5" y="96.4883"/><rect fill="#FFFFFF" filter="url(#fogw726)" height="306.1055" style="stroke: #A80036; stroke-width: 1.0;" width="10" x="712.5" y="381.2832"/><rect fill="#FFFFFF" filter="url(#fogw726)" height="35.3105" style="stroke: #A80036; stroke-width: 1.0;" width="10" x="717.5" y="527.8359"/><rect fill="#FFFFFF" filter="url(#fogw726)" height="58.6211" style="stroke: #A80036; stroke-width: 1.0;" width="10" x="965.5" y="176.1094"/><rect fill="#FFFFFF" filter="url(#fogw726)" height="117.2422" style="stroke: #A80036; stroke-width: 1.0;" width="10" x="1201.5" y="234.7305"/><rect fill="#FFFFFF" filter="url(#fogw726)" height="87.9316" style="stroke: #A80036; stroke-width: 1.0;" width="10" x="1201.5" y="439.9043"/><rect fill="#FFFFFF" filter="url(#fogw726)" height="122.2422" style="stroke: #A80036; stroke-width: 1.0;" width="10" x="1201.5" y="565.1465"/><polygon fill="#A80036" points="368.5,113.4883,378.5,117.4883,368.5,121.4883,372.5,117.4883" style="stroke: #A80036; stroke-width: 1.0;"/><line style="stroke: #A80036; stroke-width: 1.0;" x1="26.5" x2="374.5" y1="117.4883" y2="117.4883"/><text fill="#000000" font-family="sans-serif" font-size="13" font-weight="bold" lengthAdjust="spacingAndGlyphs" textLength="9" x="33.5" y="113.0566">1</text><text fill="#000000" font-family="sans-serif" font-size="13" lengthAdjust="spacingAndGlyphs" textLength="317" x="46.5" y="113.0566">Group group@domain Member Add user@domain1</text><polygon fill="#A80036" points="101,142.7988,91,146.7988,101,150.7988,97,146.7988" style="stroke: #A80036; stroke-width: 1.0;"/><line style="stroke: #A80036; stroke-width: 1.0;" x1="95" x2="379.5" y1="146.7988" y2="146.7988"/><text fill="#000000" font-family="sans-serif" font-size="13" font-weight="bold" lengthAdjust="spacingAndGlyphs" textLength="9" x="107" y="142.3672">2</text><text fill="#000000" font-family="sans-serif" font-size="13" lengthAdjust="spacingAndGlyphs" textLength="136" x="120" y="142.3672">SecureLayer @domain</text><polygon fill="#A80036" points="368.5,172.1094,378.5,176.1094,368.5,180.1094,372.5,176.1094" style="stroke: #A80036; stroke-width: 1.0;"/><line style="stroke: #A80036; stroke-width: 1.0;" x1="85" x2="374.5" y1="176.1094" y2="176.1094"/><text fill="#000000" font-family="sans-serif" font-size="13" font-weight="bold" lengthAdjust="spacingAndGlyphs" textLength="9" x="92" y="171.6777">3</text><text fill="#000000" font-family="sans-serif" font-size="13" lengthAdjust="spacingAndGlyphs" textLength="193" x="105" y="171.6777">RemoteID group+you@domain</text><polygon fill="#A80036" points="953.5,201.4199,963.5,205.4199,953.5,209.4199,957.5,205.4199" style="stroke: #A80036; stroke-width: 1.0;"/><line style="stroke: #A80036; stroke-width: 1.0;" x1="390.5" x2="959.5" y1="205.4199" y2="205.4199"/><text fill="#000000" font-family="sans-serif" font-size="13" font-weight="bold" lengthAdjust="spacingAndGlyphs" textLength="9" x="397.5" y="200.9883">4</text><text fill="#000000" font-family="sans-serif" font-size="13" lengthAdjust="spacingAndGlyphs" textLength="440" x="410.5" y="200.9883">WANT group-membership ON group@domain AS group+you@domain</text><polygon fill="#A80036" points="401.5,230.7305,391.5,234.7305,401.5,238.7305,397.5,234.7305" style="stroke: #A80036; stroke-width: 1.0;"/><line style="stroke: #A80036; stroke-width: 1.0;" x1="395.5" x2="969.5" y1="234.7305" y2="234.7305"/><text fill="#000000" font-family="sans-serif" font-size="13" font-weight="bold" lengthAdjust="spacingAndGlyphs" textLength="9" x="407.5" y="230.2988">5</text><text fill="#000000" font-family="sans-serif" font-size="13" lengthAdjust="spacingAndGlyphs" textLength="179" x="420.5" y="230.2988">OK FOR group+you@domain</text><polygon fill="#A80036" points="1189.5,260.041,1199.5,264.041,1189.5,268.041,1193.5,264.041" style="stroke: #A80036; stroke-width: 1.0;"/><line style="stroke: #A80036; stroke-width: 1.0;" x1="390.5" x2="1195.5" y1="264.041" y2="264.041"/><text fill="#000000" font-family="sans-serif" font-size="13" font-weight="bold" lengthAdjust="spacingAndGlyphs" textLength="9" x="397.5" y="259.6094">6</text><text fill="#000000" font-family="sans-serif" font-size="13" lengthAdjust="spacingAndGlyphs" textLength="443" x="410.5" y="259.6094">Search group@domain Member user@domain1 AS group+you@domain</text><polygon fill="#0000FF" points="401.5,289.3516,391.5,293.3516,401.5,297.3516,397.5,293.3516" style="stroke: #0000FF; stroke-width: 1.0;"/><line style="stroke: #0000FF; stroke-width: 1.0; stroke-dasharray: 2.0,2.0;" x1="395.5" x2="1200.5" y1="293.3516" y2="293.3516"/><text fill="#000000" font-family="sans-serif" font-size="13" font-weight="bold" lengthAdjust="spacingAndGlyphs" textLength="9" x="407.5" y="288.9199">7</text><text fill="#000000" font-family="sans-serif" font-size="13" lengthAdjust="spacingAndGlyphs" textLength="85" x="420.5" y="288.9199">UserID Found</text><polygon fill="#0000FF" points="37.5,318.6621,27.5,322.6621,37.5,326.6621,33.5,322.6621" style="stroke: #0000FF; stroke-width: 1.0;"/><line style="stroke: #0000FF; stroke-width: 1.0; stroke-dasharray: 2.0,2.0;" x1="31.5" x2="379.5" y1="322.6621" y2="322.6621"/><text fill="#000000" font-family="sans-serif" font-size="13" font-weight="bold" lengthAdjust="spacingAndGlyphs" textLength="9" x="43.5" y="318.2305">8</text><text fill="#000000" font-family="sans-serif" font-size="13" lengthAdjust="spacingAndGlyphs" textLength="101" x="56.5" y="318.2305">Already Member</text><polygon fill="#A80036" points="401.5,347.9727,391.5,351.9727,401.5,355.9727,397.5,351.9727" style="stroke: #A80036; stroke-width: 1.0;"/><line style="stroke: #A80036; stroke-width: 1.0;" x1="395.5" x2="1205.5" y1="351.9727" y2="351.9727"/><text fill="#000000" font-family="sans-serif" font-size="13" font-weight="bold" lengthAdjust="spacingAndGlyphs" textLength="9" x="407.5" y="347.541">9</text><text fill="#000000" font-family="sans-serif" font-size="13" lengthAdjust="spacingAndGlyphs" textLength="112" x="420.5" y="347.541">UserID Not Found</text><polygon fill="#A80036" points="37.5,377.2832,27.5,381.2832,37.5,385.2832,33.5,381.2832" style="stroke: #A80036; stroke-width: 1.0;"/><line style="stroke: #A80036; stroke-width: 1.0;" x1="31.5" x2="384.5" y1="381.2832" y2="381.2832"/><text fill="#000000" font-family="sans-serif" font-size="13" font-weight="bold" lengthAdjust="spacingAndGlyphs" textLength="18" x="43.5" y="376.8516">10</text><text fill="#000000" font-family="sans-serif" font-size="13" lengthAdjust="spacingAndGlyphs" textLength="48" x="65.5" y="376.8516">Queued</text><polygon fill="#A80036" points="700.5,406.5938,710.5,410.5938,700.5,414.5938,704.5,410.5938" style="stroke: #A80036; stroke-width: 1.0;"/><line style="stroke: #A80036; stroke-width: 1.0;" x1="385.5" x2="706.5" y1="410.5938" y2="410.5938"/><text fill="#000000" font-family="sans-serif" font-size="13" font-weight="bold" lengthAdjust="spacingAndGlyphs" textLength="18" x="392.5" y="406.1621">11</text><text fill="#000000" font-family="sans-serif" font-size="13" lengthAdjust="spacingAndGlyphs" textLength="281" x="414.5" y="406.1621">Have group@domain Member user@domain1</text><polygon fill="#A80036" points="396.5,435.9043,386.5,439.9043,396.5,443.9043,392.5,439.9043" style="stroke: #A80036; stroke-width: 1.0;"/><line style="stroke: #A80036; stroke-width: 1.0;" x1="390.5" x2="711.5" y1="439.9043" y2="439.9043"/><text fill="#000000" font-family="sans-serif" font-size="13" font-weight="bold" lengthAdjust="spacingAndGlyphs" textLength="18" x="402.5" y="435.4727">12</text><text fill="#000000" font-family="sans-serif" font-size="13" lengthAdjust="spacingAndGlyphs" textLength="48" x="424.5" y="435.4727">Queued</text><polygon fill="#A80036" points="1189.5,465.2148,1199.5,469.2148,1189.5,473.2148,1193.5,469.2148" style="stroke: #A80036; stroke-width: 1.0;"/><line style="stroke: #A80036; stroke-width: 1.0;" x1="722.5" x2="1195.5" y1="469.2148" y2="469.2148"/><text fill="#000000" font-family="sans-serif" font-size="13" font-weight="bold" lengthAdjust="spacingAndGlyphs" textLength="18" x="729.5" y="464.7832">13</text><text fill="#000000" font-family="sans-serif" font-size="13" lengthAdjust="spacingAndGlyphs" textLength="149" x="751.5" y="464.7832">Retrieve group@domain</text><polygon fill="#A80036" points="733.5,494.5254,723.5,498.5254,733.5,502.5254,729.5,498.5254" style="stroke: #A80036; stroke-width: 1.0;"/><line style="stroke: #A80036; stroke-width: 1.0;" x1="727.5" x2="1200.5" y1="498.5254" y2="498.5254"/><text fill="#000000" font-family="sans-serif" font-size="13" font-weight="bold" lengthAdjust="spacingAndGlyphs" textLength="18" x="739.5" y="494.0938">14</text><text fill="#000000" font-family="sans-serif" font-size="13" lengthAdjust="spacingAndGlyphs" textLength="127" x="761.5" y="494.0938">Creds MIIEVzCCAz...</text><polygon fill="#A80036" points="738.5,523.8359,728.5,527.8359,738.5,531.8359,734.5,527.8359" style="stroke: #A80036; stroke-width: 1.0;"/><line style="stroke: #A80036; stroke-width: 1.0;" x1="732.5" x2="1205.5" y1="527.8359" y2="527.8359"/><text fill="#000000" font-family="sans-serif" font-size="13" font-weight="bold" lengthAdjust="spacingAndGlyphs" textLength="18" x="744.5" y="523.4043">15</text><text fill="#000000" font-family="sans-serif" font-size="13" lengthAdjust="spacingAndGlyphs" textLength="103" x="766.5" y="523.4043">pkcs11:xxx;y;zz</text><line style="stroke: #A80036; stroke-width: 1.0;" x1="732.5" x2="774.5" y1="557.457" y2="557.457"/><line style="stroke: #A80036; stroke-width: 1.0;" x1="774.5" x2="774.5" y1="557.457" y2="570.457"/><line style="stroke: #A80036; stroke-width: 1.0;" x1="733.5" x2="774.5" y1="570.457" y2="570.457"/><polygon fill="#A80036" points="743.5,566.457,733.5,570.457,743.5,574.457,739.5,570.457" style="stroke: #A80036; stroke-width: 1.0;"/><text fill="#000000" font-family="sans-serif" font-size="13" font-weight="bold" lengthAdjust="spacingAndGlyphs" textLength="18" x="739.5" y="552.7148">16</text><text fill="#000000" font-family="sans-serif" font-size="13" lengthAdjust="spacingAndGlyphs" textLength="202" x="761.5" y="552.7148">Pick a group-internal MemberID</text><polygon fill="#A80036" points="1189.5,595.457,1199.5,599.457,1189.5,603.457,1193.5,599.457" style="stroke: #A80036; stroke-width: 1.0;"/><line style="stroke: #A80036; stroke-width: 1.0;" x1="722.5" x2="1195.5" y1="599.457" y2="599.457"/><text fill="#000000" font-family="sans-serif" font-size="13" font-weight="bold" lengthAdjust="spacingAndGlyphs" textLength="18" x="729.5" y="595.0254">17</text><text fill="#000000" font-family="sans-serif" font-size="13" lengthAdjust="spacingAndGlyphs" textLength="433" x="751.5" y="595.0254">Have group@domain Member user@domain1 AS group+you@domain</text><polygon fill="#A80036" points="1189.5,624.7676,1199.5,628.7676,1189.5,632.7676,1193.5,628.7676" style="stroke: #A80036; stroke-width: 1.0;"/><line style="stroke: #A80036; stroke-width: 1.0;" x1="722.5" x2="1195.5" y1="628.7676" y2="628.7676"/><text fill="#000000" font-family="sans-serif" font-size="13" font-weight="bold" lengthAdjust="spacingAndGlyphs" textLength="18" x="729.5" y="624.3359">18</text><text fill="#000000" font-family="sans-serif" font-size="13" lengthAdjust="spacingAndGlyphs" textLength="342" x="751.5" y="624.3359">Have Creds for user@domain1 AS group+you@domain</text><polygon fill="#A80036" points="1189.5,654.0781,1199.5,658.0781,1189.5,662.0781,1193.5,658.0781" style="stroke: #A80036; stroke-width: 1.0;"/><line style="stroke: #A80036; stroke-width: 1.0;" x1="722.5" x2="1195.5" y1="658.0781" y2="658.0781"/><text fill="#000000" font-family="sans-serif" font-size="13" font-weight="bold" lengthAdjust="spacingAndGlyphs" textLength="18" x="729.5" y="653.6465">19</text><text fill="#000000" font-family="sans-serif" font-size="13" lengthAdjust="spacingAndGlyphs" textLength="406" x="751.5" y="653.6465">Have pkcs11:xxx;y;zz XS user@domain1 AS group+you@domain</text><polygon fill="#A80036" points="728.5,683.3887,718.5,687.3887,728.5,691.3887,724.5,687.3887" style="stroke: #A80036; stroke-width: 1.0;"/><line style="stroke: #A80036; stroke-width: 1.0;" x1="722.5" x2="1205.5" y1="687.3887" y2="687.3887"/><text fill="#000000" font-family="sans-serif" font-size="13" font-weight="bold" lengthAdjust="spacingAndGlyphs" textLength="18" x="734.5" y="682.957">20</text><text fill="#000000" font-family="sans-serif" font-size="13" lengthAdjust="spacingAndGlyphs" textLength="37" x="756.5" y="682.957">Ready</text></g></svg>