<?xml version="1.0" encoding="UTF-8" standalone="no"?><svg xmlns="http://www.w3.org/2000/svg" xmlns:xlink="http://www.w3.org/1999/xlink" contentScriptType="application/ecmascript" contentStyleType="text/css" height="601px" preserveAspectRatio="none" style="width:1227px;height:601px;" version="1.1" viewBox="0 0 1227 601" width="1227px" zoomAndPan="magnify"><defs><filter height="300%" id="fwds4j6" width="300%" x="-1" y="-1"><feGaussianBlur result="blurOut" stdDeviation="2.0"/><feColorMatrix in="blurOut" result="blurOut2" type="matrix" values="0 0 0 0 0 0 0 0 0 0 0 0 0 0 0 0 0 0 .4 0"/><feOffset dx="4.0" dy="4.0" in="blurOut2" result="blurOut3"/><feBlend in="SourceGraphic" in2="blurOut3" mode="normal"/></filter></defs><g><rect fill="#FFFFFF" filter="url(#fwds4j6)" height="58.6211" style="stroke: #A80036; stroke-width: 1.0;" width="10" x="80" y="117.4883"/><rect fill="#FFFFFF" filter="url(#fwds4j6)" height="284.7949" style="stroke: #A80036; stroke-width: 1.0;" width="10" x="376.5" y="96.4883"/><rect fill="#FFFFFF" filter="url(#fwds4j6)" height="117.2422" style="stroke: #A80036; stroke-width: 1.0;" width="10" x="708.5" y="381.2832"/><rect fill="#FFFFFF" filter="url(#fwds4j6)" height="58.6211" style="stroke: #A80036; stroke-width: 1.0;" width="10" x="863.5" y="176.1094"/><rect fill="#FFFFFF" filter="url(#fwds4j6)" height="117.2422" style="stroke: #A80036; stroke-width: 1.0;" width="10" x="1197.5" y="234.7305"/><rect fill="#FFFFFF" filter="url(#fwds4j6)" height="58.6211" style="stroke: #A80036; stroke-width: 1.0;" width="10" x="1197.5" y="439.9043"/><line style="stroke: #A80036; stroke-width: 1.0; stroke-dasharray: 5.0,5.0;" x1="26" x2="26" y1="86.4883" y2="516.8359"/><line style="stroke: #A80036; stroke-width: 1.0; stroke-dasharray: 5.0,5.0;" x1="85" x2="85" y1="86.4883" y2="516.8359"/><line style="stroke: #A80036; stroke-width: 1.0; stroke-dasharray: 5.0,5.0;" x1="381" x2="381" y1="86.4883" y2="516.8359"/><line style="stroke: #A80036; stroke-width: 1.0; stroke-dasharray: 5.0,5.0;" x1="713.5" x2="713.5" y1="86.4883" y2="516.8359"/><line style="stroke: #A80036; stroke-width: 1.0; stroke-dasharray: 5.0,5.0;" x1="868" x2="868" y1="86.4883" y2="516.8359"/><line style="stroke: #A80036; stroke-width: 1.0; stroke-dasharray: 5.0,5.0;" x1="1202" x2="1202" y1="86.4883" y2="516.8359"/><text fill="#000000" font-family="sans-serif" font-size="14" lengthAdjust="spacingAndGlyphs" textLength="31" x="8" y="83.5352">User</text><ellipse cx="26.5" cy="13" fill="#FEFECE" filter="url(#fwds4j6)" rx="8" ry="8" style="stroke: #A80036; stroke-width: 2.0;"/><path d="M26.5,21 L26.5,48 M13.5,29 L39.5,29 M26.5,48 L13.5,63 M26.5,48 L39.5,63 " fill="#FEFECE" filter="url(#fwds4j6)" style="stroke: #A80036; stroke-width: 2.0;"/><text fill="#000000" font-family="sans-serif" font-size="14" lengthAdjust="spacingAndGlyphs" textLength="31" x="8" y="529.3711">User</text><ellipse cx="26.5" cy="542.3242" fill="#FEFECE" filter="url(#fwds4j6)" rx="8" ry="8" style="stroke: #A80036; stroke-width: 2.0;"/><path d="M26.5,550.3242 L26.5,577.3242 M13.5,558.3242 L39.5,558.3242 M26.5,577.3242 L13.5,592.3242 M26.5,577.3242 L39.5,592.3242 " fill="#FEFECE" filter="url(#fwds4j6)" style="stroke: #A80036; stroke-width: 2.0;"/><rect fill="#FEFECE" filter="url(#fwds4j6)" height="30.4883" style="stroke: #A80036; stroke-width: 1.5;" width="56" x="55" y="51"/><text fill="#000000" font-family="sans-serif" font-size="14" lengthAdjust="spacingAndGlyphs" textLength="42" x="62" y="71.5352">Authn</text><rect fill="#FEFECE" filter="url(#fwds4j6)" height="30.4883" style="stroke: #A80036; stroke-width: 1.5;" width="56" x="55" y="515.8359"/><text fill="#000000" font-family="sans-serif" font-size="14" lengthAdjust="spacingAndGlyphs" textLength="42" x="62" y="536.3711">Authn</text><rect fill="#FEFECE" filter="url(#fwds4j6)" height="30.4883" style="stroke: #A80036; stroke-width: 1.5;" width="111" x="324" y="51"/><text fill="#000000" font-family="sans-serif" font-size="14" lengthAdjust="spacingAndGlyphs" textLength="97" x="331" y="71.5352">IdHub Control</text><rect fill="#FEFECE" filter="url(#fwds4j6)" height="30.4883" style="stroke: #A80036; stroke-width: 1.5;" width="111" x="324" y="515.8359"/><text fill="#000000" font-family="sans-serif" font-size="14" lengthAdjust="spacingAndGlyphs" textLength="97" x="331" y="536.3711">IdHub Control</text><rect fill="#FEFECE" filter="url(#fwds4j6)" height="30.4883" style="stroke: #A80036; stroke-width: 1.5;" width="102" x="660.5" y="51"/><text fill="#000000" font-family="sans-serif" font-size="14" lengthAdjust="spacingAndGlyphs" textLength="88" x="667.5" y="71.5352">Key Manager</text><rect fill="#FEFECE" filter="url(#fwds4j6)" height="30.4883" style="stroke: #A80036; stroke-width: 1.5;" width="102" x="660.5" y="515.8359"/><text fill="#000000" font-family="sans-serif" font-size="14" lengthAdjust="spacingAndGlyphs" textLength="88" x="667.5" y="536.3711">Key Manager</text><rect fill="#FEFECE" filter="url(#fwds4j6)" height="30.4883" style="stroke: #A80036; stroke-width: 1.5;" width="55" x="839" y="51"/><text fill="#000000" font-family="sans-serif" font-size="14" lengthAdjust="spacingAndGlyphs" textLength="41" x="846" y="71.5352">Authz</text><rect fill="#FEFECE" filter="url(#fwds4j6)" height="30.4883" style="stroke: #A80036; stroke-width: 1.5;" width="55" x="839" y="515.8359"/><text fill="#000000" font-family="sans-serif" font-size="14" lengthAdjust="spacingAndGlyphs" textLength="41" x="846" y="536.3711">Authz</text><text fill="#000000" font-family="sans-serif" font-size="14" lengthAdjust="spacingAndGlyphs" textLength="35" x="1182" y="83.5352">LDAP</text><path d="M1184.5,34 C1184.5,24 1202.5,24 1202.5,24 C1202.5,24 1220.5,24 1220.5,34 L1220.5,60 C1220.5,70 1202.5,70 1202.5,70 C1202.5,70 1184.5,70 1184.5,60 L1184.5,34 " fill="#FEFECE" filter="url(#fwds4j6)" style="stroke: #000000; stroke-width: 1.5;"/><path d="M1184.5,34 C1184.5,44 1202.5,44 1202.5,44 C1202.5,44 1220.5,44 1220.5,34 " fill="none" style="stroke: #000000; stroke-width: 1.5;"/><text fill="#000000" font-family="sans-serif" font-size="14" lengthAdjust="spacingAndGlyphs" textLength="35" x="1182" y="529.3711">LDAP</text><path d="M1184.5,542.3242 C1184.5,532.3242 1202.5,532.3242 1202.5,532.3242 C1202.5,532.3242 1220.5,532.3242 1220.5,542.3242 L1220.5,568.3242 C1220.5,578.3242 1202.5,578.3242 1202.5,578.3242 C1202.5,578.3242 1184.5,578.3242 1184.5,568.3242 L1184.5,542.3242 " fill="#FEFECE" filter="url(#fwds4j6)" style="stroke: #000000; stroke-width: 1.5;"/><path d="M1184.5,542.3242 C1184.5,552.3242 1202.5,552.3242 1202.5,552.3242 C1202.5,552.3242 1220.5,552.3242 1220.5,542.3242 " fill="none" style="stroke: #000000; stroke-width: 1.5;"/><rect fill="#FFFFFF" filter="url(#fwds4j6)" height="58.6211" style="stroke: #A80036; stroke-width: 1.0;" width="10" x="80" y="117.4883"/><rect fill="#FFFFFF" filter="url(#fwds4j6)" height="284.7949" style="stroke: #A80036; stroke-width: 1.0;" width="10" x="376.5" y="96.4883"/><rect fill="#FFFFFF" filter="url(#fwds4j6)" height="117.2422" style="stroke: #A80036; stroke-width: 1.0;" width="10" x="708.5" y="381.2832"/><rect fill="#FFFFFF" filter="url(#fwds4j6)" height="58.6211" style="stroke: #A80036; stroke-width: 1.0;" width="10" x="863.5" y="176.1094"/><rect fill="#FFFFFF" filter="url(#fwds4j6)" height="117.2422" style="stroke: #A80036; stroke-width: 1.0;" width="10" x="1197.5" y="234.7305"/><rect fill="#FFFFFF" filter="url(#fwds4j6)" height="58.6211" style="stroke: #A80036; stroke-width: 1.0;" width="10" x="1197.5" y="439.9043"/><polygon fill="#A80036" points="364.5,113.4883,374.5,117.4883,364.5,121.4883,368.5,117.4883" style="stroke: #A80036; stroke-width: 1.0;"/><line style="stroke: #A80036; stroke-width: 1.0;" x1="26.5" x2="370.5" y1="117.4883" y2="117.4883"/><text fill="#000000" font-family="sans-serif" font-size="13" font-weight="bold" lengthAdjust="spacingAndGlyphs" textLength="9" x="33.5" y="113.0566">1</text><text fill="#000000" font-family="sans-serif" font-size="13" lengthAdjust="spacingAndGlyphs" textLength="313" x="46.5" y="113.0566">Group group@domain Member Del user@domain1</text><polygon fill="#A80036" points="101,142.7988,91,146.7988,101,150.7988,97,146.7988" style="stroke: #A80036; stroke-width: 1.0;"/><line style="stroke: #A80036; stroke-width: 1.0;" x1="95" x2="375.5" y1="146.7988" y2="146.7988"/><text fill="#000000" font-family="sans-serif" font-size="13" font-weight="bold" lengthAdjust="spacingAndGlyphs" textLength="9" x="107" y="142.3672">2</text><text fill="#000000" font-family="sans-serif" font-size="13" lengthAdjust="spacingAndGlyphs" textLength="136" x="120" y="142.3672">SecureLayer @domain</text><polygon fill="#A80036" points="364.5,172.1094,374.5,176.1094,364.5,180.1094,368.5,176.1094" style="stroke: #A80036; stroke-width: 1.0;"/><line style="stroke: #A80036; stroke-width: 1.0;" x1="85" x2="370.5" y1="176.1094" y2="176.1094"/><text fill="#000000" font-family="sans-serif" font-size="13" font-weight="bold" lengthAdjust="spacingAndGlyphs" textLength="9" x="92" y="171.6777">3</text><text fill="#000000" font-family="sans-serif" font-size="13" lengthAdjust="spacingAndGlyphs" textLength="193" x="105" y="171.6777">RemoteID group+you@domain</text><polygon fill="#A80036" points="851.5,201.4199,861.5,205.4199,851.5,209.4199,855.5,205.4199" style="stroke: #A80036; stroke-width: 1.0;"/><line style="stroke: #A80036; stroke-width: 1.0;" x1="386.5" x2="857.5" y1="205.4199" y2="205.4199"/><text fill="#000000" font-family="sans-serif" font-size="13" font-weight="bold" lengthAdjust="spacingAndGlyphs" textLength="9" x="393.5" y="200.9883">4</text><text fill="#000000" font-family="sans-serif" font-size="13" lengthAdjust="spacingAndGlyphs" textLength="440" x="406.5" y="200.9883">WANT group-membership ON group@domain AS group+you@domain</text><polygon fill="#A80036" points="397.5,230.7305,387.5,234.7305,397.5,238.7305,393.5,234.7305" style="stroke: #A80036; stroke-width: 1.0;"/><line style="stroke: #A80036; stroke-width: 1.0;" x1="391.5" x2="867.5" y1="234.7305" y2="234.7305"/><text fill="#000000" font-family="sans-serif" font-size="13" font-weight="bold" lengthAdjust="spacingAndGlyphs" textLength="9" x="403.5" y="230.2988">5</text><text fill="#000000" font-family="sans-serif" font-size="13" lengthAdjust="spacingAndGlyphs" textLength="179" x="416.5" y="230.2988">OK FOR group+you@domain</text><polygon fill="#A80036" points="1185.5,260.041,1195.5,264.041,1185.5,268.041,1189.5,264.041" style="stroke: #A80036; stroke-width: 1.0;"/><line style="stroke: #A80036; stroke-width: 1.0;" x1="386.5" x2="1191.5" y1="264.041" y2="264.041"/><text fill="#000000" font-family="sans-serif" font-size="13" font-weight="bold" lengthAdjust="spacingAndGlyphs" textLength="9" x="393.5" y="259.6094">6</text><text fill="#000000" font-family="sans-serif" font-size="13" lengthAdjust="spacingAndGlyphs" textLength="443" x="406.5" y="259.6094">Search group@domain Member user@domain1 AS group+you@domain</text><polygon fill="#0000FF" points="397.5,289.3516,387.5,293.3516,397.5,297.3516,393.5,293.3516" style="stroke: #0000FF; stroke-width: 1.0;"/><line style="stroke: #0000FF; stroke-width: 1.0; stroke-dasharray: 2.0,2.0;" x1="391.5" x2="1196.5" y1="293.3516" y2="293.3516"/><text fill="#000000" font-family="sans-serif" font-size="13" font-weight="bold" lengthAdjust="spacingAndGlyphs" textLength="9" x="403.5" y="288.9199">7</text><text fill="#000000" font-family="sans-serif" font-size="13" lengthAdjust="spacingAndGlyphs" textLength="112" x="416.5" y="288.9199">UserID Not Found</text><polygon fill="#0000FF" points="37.5,318.6621,27.5,322.6621,37.5,326.6621,33.5,322.6621" style="stroke: #0000FF; stroke-width: 1.0;"/><line style="stroke: #0000FF; stroke-width: 1.0; stroke-dasharray: 2.0,2.0;" x1="31.5" x2="375.5" y1="322.6621" y2="322.6621"/><text fill="#000000" font-family="sans-serif" font-size="13" font-weight="bold" lengthAdjust="spacingAndGlyphs" textLength="9" x="43.5" y="318.2305">8</text><text fill="#000000" font-family="sans-serif" font-size="13" lengthAdjust="spacingAndGlyphs" textLength="113" x="56.5" y="318.2305">Unknown Member</text><polygon fill="#A80036" points="397.5,347.9727,387.5,351.9727,397.5,355.9727,393.5,351.9727" style="stroke: #A80036; stroke-width: 1.0;"/><line style="stroke: #A80036; stroke-width: 1.0;" x1="391.5" x2="1201.5" y1="351.9727" y2="351.9727"/><text fill="#000000" font-family="sans-serif" font-size="13" font-weight="bold" lengthAdjust="spacingAndGlyphs" textLength="9" x="403.5" y="347.541">9</text><text fill="#000000" font-family="sans-serif" font-size="13" lengthAdjust="spacingAndGlyphs" textLength="85" x="416.5" y="347.541">UserID Found</text><polygon fill="#A80036" points="37.5,377.2832,27.5,381.2832,37.5,385.2832,33.5,381.2832" style="stroke: #A80036; stroke-width: 1.0;"/><line style="stroke: #A80036; stroke-width: 1.0;" x1="31.5" x2="380.5" y1="381.2832" y2="381.2832"/><text fill="#000000" font-family="sans-serif" font-size="13" font-weight="bold" lengthAdjust="spacingAndGlyphs" textLength="18" x="43.5" y="376.8516">10</text><text fill="#000000" font-family="sans-serif" font-size="13" lengthAdjust="spacingAndGlyphs" textLength="48" x="65.5" y="376.8516">Queued</text><polygon fill="#A80036" points="696.5,406.5938,706.5,410.5938,696.5,414.5938,700.5,410.5938" style="stroke: #A80036; stroke-width: 1.0;"/><line style="stroke: #A80036; stroke-width: 1.0;" x1="381.5" x2="702.5" y1="410.5938" y2="410.5938"/><text fill="#000000" font-family="sans-serif" font-size="13" font-weight="bold" lengthAdjust="spacingAndGlyphs" textLength="18" x="388.5" y="406.1621">11</text><text fill="#000000" font-family="sans-serif" font-size="13" lengthAdjust="spacingAndGlyphs" textLength="281" x="410.5" y="406.1621">Drop group@domain Member user@domain1</text><polygon fill="#A80036" points="392.5,435.9043,382.5,439.9043,392.5,443.9043,388.5,439.9043" style="stroke: #A80036; stroke-width: 1.0;"/><line style="stroke: #A80036; stroke-width: 1.0;" x1="386.5" x2="707.5" y1="439.9043" y2="439.9043"/><text fill="#000000" font-family="sans-serif" font-size="13" font-weight="bold" lengthAdjust="spacingAndGlyphs" textLength="18" x="398.5" y="435.4727">12</text><text fill="#000000" font-family="sans-serif" font-size="13" lengthAdjust="spacingAndGlyphs" textLength="48" x="420.5" y="435.4727">Queued</text><polygon fill="#A80036" points="1185.5,465.2148,1195.5,469.2148,1185.5,473.2148,1189.5,469.2148" style="stroke: #A80036; stroke-width: 1.0;"/><line style="stroke: #A80036; stroke-width: 1.0;" x1="718.5" x2="1191.5" y1="469.2148" y2="469.2148"/><text fill="#000000" font-family="sans-serif" font-size="13" font-weight="bold" lengthAdjust="spacingAndGlyphs" textLength="18" x="725.5" y="464.7832">13</text><text fill="#000000" font-family="sans-serif" font-size="13" lengthAdjust="spacingAndGlyphs" textLength="433" x="747.5" y="464.7832">Drop group@domain Member user@domain1 AS group+you@domain</text><polygon fill="#A80036" points="724.5,494.5254,714.5,498.5254,724.5,502.5254,720.5,498.5254" style="stroke: #A80036; stroke-width: 1.0;"/><line style="stroke: #A80036; stroke-width: 1.0;" x1="718.5" x2="1201.5" y1="498.5254" y2="498.5254"/><text fill="#000000" font-family="sans-serif" font-size="13" font-weight="bold" lengthAdjust="spacingAndGlyphs" textLength="18" x="730.5" y="494.0938">14</text><text fill="#000000" font-family="sans-serif" font-size="13" lengthAdjust="spacingAndGlyphs" textLength="37" x="752.5" y="494.0938">Ready</text></g></svg>