<?xml version="1.0" encoding="UTF-8" standalone="no"?><svg xmlns="http://www.w3.org/2000/svg" xmlns:xlink="http://www.w3.org/1999/xlink" contentScriptType="application/ecmascript" contentStyleType="text/css" height="1016px" preserveAspectRatio="none" style="width:1045px;height:1016px;" version="1.1" viewBox="0 0 1045 1016" width="1045px" zoomAndPan="magnify"><defs><filter height="300%" id="ffgwaua" width="300%" x="-1" y="-1"><feGaussianBlur result="blurOut" stdDeviation="2.0"/><feColorMatrix in="blurOut" result="blurOut2" type="matrix" values="0 0 0 0 0 0 0 0 0 0 0 0 0 0 0 0 0 0 .4 0"/><feOffset dx="4.0" dy="4.0" in="blurOut2" result="blurOut3"/><feBlend in="SourceGraphic" in2="blurOut3" mode="normal"/></filter></defs><g><rect fill="#FFFFFF" filter="url(#ffgwaua)" height="294.7949" style="stroke: #A80036; stroke-width: 1.0;" width="10" x="21.5" y="96.4883"/><rect fill="#FFFFFF" filter="url(#ffgwaua)" height="58.6211" style="stroke: #A80036; stroke-width: 1.0;" width="10" x="80" y="117.4883"/><rect fill="#FFFFFF" filter="url(#ffgwaua)" height="353.416" style="stroke: #A80036; stroke-width: 1.0;" width="10" x="273" y="96.4883"/><rect fill="#FFFFFF" filter="url(#ffgwaua)" height="521.9688" style="stroke: #A80036; stroke-width: 1.0;" width="10" x="501" y="391.2832"/><rect fill="#FFFFFF" filter="url(#ffgwaua)" height="28" style="stroke: #A80036; stroke-width: 1.0;" width="10" x="506" y="692.3887"/><rect fill="#FFFFFF" filter="url(#ffgwaua)" height="58.6211" style="stroke: #A80036; stroke-width: 1.0;" width="10" x="740" y="176.1094"/><rect fill="#FFFFFF" filter="url(#ffgwaua)" height="175.8633" style="stroke: #A80036; stroke-width: 1.0;" width="10" x="854" y="479.2148"/><rect fill="#FFFFFF" filter="url(#ffgwaua)" height="87.9316" style="stroke: #A80036; stroke-width: 1.0;" width="10" x="918" y="449.9043"/><rect fill="#FFFFFF" filter="url(#ffgwaua)" height="127.2422" style="stroke: #A80036; stroke-width: 1.0;" width="10" x="966.5" y="234.7305"/><rect fill="#FFFFFF" filter="url(#ffgwaua)" height="220.8633" style="stroke: #A80036; stroke-width: 1.0;" width="10" x="966.5" y="692.3887"/><rect fill="#FFFFFF" filter="url(#ffgwaua)" height="68.6211" style="stroke: #A80036; stroke-width: 1.0;" width="10" x="1015" y="815.3203"/><line style="stroke: #A80036; stroke-width: 1.0; stroke-dasharray: 5.0,5.0;" x1="26" x2="26" y1="86.4883" y2="931.5625"/><line style="stroke: #A80036; stroke-width: 1.0; stroke-dasharray: 5.0,5.0;" x1="85" x2="85" y1="86.4883" y2="931.5625"/><line style="stroke: #A80036; stroke-width: 1.0; stroke-dasharray: 5.0,5.0;" x1="277.5" x2="277.5" y1="86.4883" y2="931.5625"/><line style="stroke: #A80036; stroke-width: 1.0; stroke-dasharray: 5.0,5.0;" x1="506" x2="506" y1="86.4883" y2="931.5625"/><line style="stroke: #A80036; stroke-width: 1.0; stroke-dasharray: 5.0,5.0;" x1="744.5" x2="744.5" y1="86.4883" y2="931.5625"/><line style="stroke: #A80036; stroke-width: 1.0; stroke-dasharray: 5.0,5.0;" x1="859" x2="859" y1="86.4883" y2="931.5625"/><line style="stroke: #A80036; stroke-width: 1.0; stroke-dasharray: 5.0,5.0;" x1="923" x2="923" y1="86.4883" y2="931.5625"/><line style="stroke: #A80036; stroke-width: 1.0; stroke-dasharray: 5.0,5.0;" x1="971" x2="971" y1="86.4883" y2="931.5625"/><line style="stroke: #A80036; stroke-width: 1.0; stroke-dasharray: 5.0,5.0;" x1="1020" x2="1020" y1="86.4883" y2="931.5625"/><text fill="#000000" font-family="sans-serif" font-size="14" lengthAdjust="spacingAndGlyphs" textLength="31" x="8" y="83.5352">User</text><ellipse cx="26.5" cy="13" fill="#FEFECE" filter="url(#ffgwaua)" rx="8" ry="8" style="stroke: #A80036; stroke-width: 2.0;"/><path d="M26.5,21 L26.5,48 M13.5,29 L39.5,29 M26.5,48 L13.5,63 M26.5,48 L39.5,63 " fill="#FEFECE" filter="url(#ffgwaua)" style="stroke: #A80036; stroke-width: 2.0;"/><text fill="#000000" font-family="sans-serif" font-size="14" lengthAdjust="spacingAndGlyphs" textLength="31" x="8" y="944.0977">User</text><ellipse cx="26.5" cy="957.0508" fill="#FEFECE" filter="url(#ffgwaua)" rx="8" ry="8" style="stroke: #A80036; stroke-width: 2.0;"/><path d="M26.5,965.0508 L26.5,992.0508 M13.5,973.0508 L39.5,973.0508 M26.5,992.0508 L13.5,1007.0508 M26.5,992.0508 L39.5,1007.0508 " fill="#FEFECE" filter="url(#ffgwaua)" style="stroke: #A80036; stroke-width: 2.0;"/><rect fill="#FEFECE" filter="url(#ffgwaua)" height="30.4883" style="stroke: #A80036; stroke-width: 1.5;" width="56" x="55" y="51"/><text fill="#000000" font-family="sans-serif" font-size="14" lengthAdjust="spacingAndGlyphs" textLength="42" x="62" y="71.5352">Authn</text><rect fill="#FEFECE" filter="url(#ffgwaua)" height="30.4883" style="stroke: #A80036; stroke-width: 1.5;" width="56" x="55" y="930.5625"/><text fill="#000000" font-family="sans-serif" font-size="14" lengthAdjust="spacingAndGlyphs" textLength="42" x="62" y="951.0977">Authn</text><rect fill="#FEFECE" filter="url(#ffgwaua)" height="30.4883" style="stroke: #A80036; stroke-width: 1.5;" width="111" x="220.5" y="51"/><text fill="#000000" font-family="sans-serif" font-size="14" lengthAdjust="spacingAndGlyphs" textLength="97" x="227.5" y="71.5352">IdHub Control</text><rect fill="#FEFECE" filter="url(#ffgwaua)" height="30.4883" style="stroke: #A80036; stroke-width: 1.5;" width="111" x="220.5" y="930.5625"/><text fill="#000000" font-family="sans-serif" font-size="14" lengthAdjust="spacingAndGlyphs" textLength="97" x="227.5" y="951.0977">IdHub Control</text><rect fill="#FEFECE" filter="url(#ffgwaua)" height="30.4883" style="stroke: #A80036; stroke-width: 1.5;" width="102" x="453" y="51"/><text fill="#000000" font-family="sans-serif" font-size="14" lengthAdjust="spacingAndGlyphs" textLength="88" x="460" y="71.5352">Key Manager</text><rect fill="#FEFECE" filter="url(#ffgwaua)" height="30.4883" style="stroke: #A80036; stroke-width: 1.5;" width="102" x="453" y="930.5625"/><text fill="#000000" font-family="sans-serif" font-size="14" lengthAdjust="spacingAndGlyphs" textLength="88" x="460" y="951.0977">Key Manager</text><rect fill="#FEFECE" filter="url(#ffgwaua)" height="30.4883" style="stroke: #A80036; stroke-width: 1.5;" width="55" x="715.5" y="51"/><text fill="#000000" font-family="sans-serif" font-size="14" lengthAdjust="spacingAndGlyphs" textLength="41" x="722.5" y="71.5352">Authz</text><rect fill="#FEFECE" filter="url(#ffgwaua)" height="30.4883" style="stroke: #A80036; stroke-width: 1.5;" width="55" x="715.5" y="930.5625"/><text fill="#000000" font-family="sans-serif" font-size="14" lengthAdjust="spacingAndGlyphs" textLength="41" x="722.5" y="951.0977">Authz</text><text fill="#000000" font-family="sans-serif" font-size="14" lengthAdjust="spacingAndGlyphs" textLength="66" x="823" y="83.5352">PKCS #11</text><path d="M841,34 C841,24 859,24 859,24 C859,24 877,24 877,34 L877,60 C877,70 859,70 859,70 C859,70 841,70 841,60 L841,34 " fill="#FEFECE" filter="url(#ffgwaua)" style="stroke: #000000; stroke-width: 1.5;"/><path d="M841,34 C841,44 859,44 859,44 C859,44 877,44 877,34 " fill="none" style="stroke: #000000; stroke-width: 1.5;"/><text fill="#000000" font-family="sans-serif" font-size="14" lengthAdjust="spacingAndGlyphs" textLength="66" x="823" y="944.0977">PKCS #11</text><path d="M841,957.0508 C841,947.0508 859,947.0508 859,947.0508 C859,947.0508 877,947.0508 877,957.0508 L877,983.0508 C877,993.0508 859,993.0508 859,993.0508 C859,993.0508 841,993.0508 841,983.0508 L841,957.0508 " fill="#FEFECE" filter="url(#ffgwaua)" style="stroke: #000000; stroke-width: 1.5;"/><path d="M841,957.0508 C841,967.0508 859,967.0508 859,967.0508 C859,967.0508 877,967.0508 877,957.0508 " fill="none" style="stroke: #000000; stroke-width: 1.5;"/><text fill="#000000" font-family="sans-serif" font-size="14" lengthAdjust="spacingAndGlyphs" textLength="29" x="905.5" y="83.5352">KDC</text><path d="M905,34 C905,24 923,24 923,24 C923,24 941,24 941,34 L941,60 C941,70 923,70 923,70 C923,70 905,70 905,60 L905,34 " fill="#FEFECE" filter="url(#ffgwaua)" style="stroke: #000000; stroke-width: 1.5;"/><path d="M905,34 C905,44 923,44 923,44 C923,44 941,44 941,34 " fill="none" style="stroke: #000000; stroke-width: 1.5;"/><text fill="#000000" font-family="sans-serif" font-size="14" lengthAdjust="spacingAndGlyphs" textLength="29" x="905.5" y="944.0977">KDC</text><path d="M905,957.0508 C905,947.0508 923,947.0508 923,947.0508 C923,947.0508 941,947.0508 941,957.0508 L941,983.0508 C941,993.0508 923,993.0508 923,993.0508 C923,993.0508 905,993.0508 905,983.0508 L905,957.0508 " fill="#FEFECE" filter="url(#ffgwaua)" style="stroke: #000000; stroke-width: 1.5;"/><path d="M905,957.0508 C905,967.0508 923,967.0508 923,967.0508 C923,967.0508 941,967.0508 941,957.0508 " fill="none" style="stroke: #000000; stroke-width: 1.5;"/><text fill="#000000" font-family="sans-serif" font-size="14" lengthAdjust="spacingAndGlyphs" textLength="35" x="951" y="83.5352">LDAP</text><path d="M953.5,34 C953.5,24 971.5,24 971.5,24 C971.5,24 989.5,24 989.5,34 L989.5,60 C989.5,70 971.5,70 971.5,70 C971.5,70 953.5,70 953.5,60 L953.5,34 " fill="#FEFECE" filter="url(#ffgwaua)" style="stroke: #000000; stroke-width: 1.5;"/><path d="M953.5,34 C953.5,44 971.5,44 971.5,44 C971.5,44 989.5,44 989.5,34 " fill="none" style="stroke: #000000; stroke-width: 1.5;"/><text fill="#000000" font-family="sans-serif" font-size="14" lengthAdjust="spacingAndGlyphs" textLength="35" x="951" y="944.0977">LDAP</text><path d="M953.5,957.0508 C953.5,947.0508 971.5,947.0508 971.5,947.0508 C971.5,947.0508 989.5,947.0508 989.5,957.0508 L989.5,983.0508 C989.5,993.0508 971.5,993.0508 971.5,993.0508 C971.5,993.0508 953.5,993.0508 953.5,983.0508 L953.5,957.0508 " fill="#FEFECE" filter="url(#ffgwaua)" style="stroke: #000000; stroke-width: 1.5;"/><path d="M953.5,957.0508 C953.5,967.0508 971.5,967.0508 971.5,967.0508 C971.5,967.0508 989.5,967.0508 989.5,957.0508 " fill="none" style="stroke: #000000; stroke-width: 1.5;"/><text fill="#000000" font-family="sans-serif" font-size="14" lengthAdjust="spacingAndGlyphs" textLength="28" x="1003" y="83.5352">DNS</text><path d="M1002,34 C1002,24 1020,24 1020,24 C1020,24 1038,24 1038,34 L1038,60 C1038,70 1020,70 1020,70 C1020,70 1002,70 1002,60 L1002,34 " fill="#FEFECE" filter="url(#ffgwaua)" style="stroke: #000000; stroke-width: 1.5;"/><path d="M1002,34 C1002,44 1020,44 1020,44 C1020,44 1038,44 1038,34 " fill="none" style="stroke: #000000; stroke-width: 1.5;"/><text fill="#000000" font-family="sans-serif" font-size="14" lengthAdjust="spacingAndGlyphs" textLength="28" x="1003" y="944.0977">DNS</text><path d="M1002,957.0508 C1002,947.0508 1020,947.0508 1020,947.0508 C1020,947.0508 1038,947.0508 1038,957.0508 L1038,983.0508 C1038,993.0508 1020,993.0508 1020,993.0508 C1020,993.0508 1002,993.0508 1002,983.0508 L1002,957.0508 " fill="#FEFECE" filter="url(#ffgwaua)" style="stroke: #000000; stroke-width: 1.5;"/><path d="M1002,957.0508 C1002,967.0508 1020,967.0508 1020,967.0508 C1020,967.0508 1038,967.0508 1038,957.0508 " fill="none" style="stroke: #000000; stroke-width: 1.5;"/><rect fill="#FFFFFF" filter="url(#ffgwaua)" height="294.7949" style="stroke: #A80036; stroke-width: 1.0;" width="10" x="21.5" y="96.4883"/><rect fill="#FFFFFF" filter="url(#ffgwaua)" height="58.6211" style="stroke: #A80036; stroke-width: 1.0;" width="10" x="80" y="117.4883"/><rect fill="#FFFFFF" filter="url(#ffgwaua)" height="353.416" style="stroke: #A80036; stroke-width: 1.0;" width="10" x="273" y="96.4883"/><rect fill="#FFFFFF" filter="url(#ffgwaua)" height="521.9688" style="stroke: #A80036; stroke-width: 1.0;" width="10" x="501" y="391.2832"/><rect fill="#FFFFFF" filter="url(#ffgwaua)" height="28" style="stroke: #A80036; stroke-width: 1.0;" width="10" x="506" y="692.3887"/><rect fill="#FFFFFF" filter="url(#ffgwaua)" height="58.6211" style="stroke: #A80036; stroke-width: 1.0;" width="10" x="740" y="176.1094"/><rect fill="#FFFFFF" filter="url(#ffgwaua)" height="175.8633" style="stroke: #A80036; stroke-width: 1.0;" width="10" x="854" y="479.2148"/><rect fill="#FFFFFF" filter="url(#ffgwaua)" height="87.9316" style="stroke: #A80036; stroke-width: 1.0;" width="10" x="918" y="449.9043"/><rect fill="#FFFFFF" filter="url(#ffgwaua)" height="127.2422" style="stroke: #A80036; stroke-width: 1.0;" width="10" x="966.5" y="234.7305"/><rect fill="#FFFFFF" filter="url(#ffgwaua)" height="220.8633" style="stroke: #A80036; stroke-width: 1.0;" width="10" x="966.5" y="692.3887"/><rect fill="#FFFFFF" filter="url(#ffgwaua)" height="68.6211" style="stroke: #A80036; stroke-width: 1.0;" width="10" x="1015" y="815.3203"/><polygon fill="#A80036" points="261,113.4883,271,117.4883,261,121.4883,265,117.4883" style="stroke: #A80036; stroke-width: 1.0;"/><line style="stroke: #A80036; stroke-width: 1.0;" x1="31.5" x2="267" y1="117.4883" y2="117.4883"/><text fill="#000000" font-family="sans-serif" font-size="13" font-weight="bold" lengthAdjust="spacingAndGlyphs" textLength="9" x="38.5" y="113.0566">1</text><text fill="#000000" font-family="sans-serif" font-size="13" lengthAdjust="spacingAndGlyphs" textLength="166" x="51.5" y="113.0566">Group Add group@domain</text><polygon fill="#A80036" points="101,142.7988,91,146.7988,101,150.7988,97,146.7988" style="stroke: #A80036; stroke-width: 1.0;"/><line style="stroke: #A80036; stroke-width: 1.0;" x1="95" x2="272" y1="146.7988" y2="146.7988"/><text fill="#000000" font-family="sans-serif" font-size="13" font-weight="bold" lengthAdjust="spacingAndGlyphs" textLength="9" x="107" y="142.3672">2</text><text fill="#000000" font-family="sans-serif" font-size="13" lengthAdjust="spacingAndGlyphs" textLength="136" x="120" y="142.3672">SecureLayer @domain</text><polygon fill="#A80036" points="261,172.1094,271,176.1094,261,180.1094,265,176.1094" style="stroke: #A80036; stroke-width: 1.0;"/><line style="stroke: #A80036; stroke-width: 1.0;" x1="85" x2="267" y1="176.1094" y2="176.1094"/><text fill="#000000" font-family="sans-serif" font-size="13" font-weight="bold" lengthAdjust="spacingAndGlyphs" textLength="9" x="92" y="171.6777">3</text><text fill="#000000" font-family="sans-serif" font-size="13" lengthAdjust="spacingAndGlyphs" textLength="146" x="105" y="171.6777">RemoteID you@domain</text><polygon fill="#A80036" points="728,201.4199,738,205.4199,728,209.4199,732,205.4199" style="stroke: #A80036; stroke-width: 1.0;"/><line style="stroke: #A80036; stroke-width: 1.0;" x1="283" x2="734" y1="205.4199" y2="205.4199"/><text fill="#000000" font-family="sans-serif" font-size="13" font-weight="bold" lengthAdjust="spacingAndGlyphs" textLength="9" x="290" y="200.9883">4</text><text fill="#000000" font-family="sans-serif" font-size="13" lengthAdjust="spacingAndGlyphs" textLength="328" x="303" y="200.9883">WANT groupid-create ON @domain AS you@domain</text><polygon fill="#A80036" points="294,230.7305,284,234.7305,294,238.7305,290,234.7305" style="stroke: #A80036; stroke-width: 1.0;"/><line style="stroke: #A80036; stroke-width: 1.0;" x1="288" x2="744" y1="234.7305" y2="234.7305"/><text fill="#000000" font-family="sans-serif" font-size="13" font-weight="bold" lengthAdjust="spacingAndGlyphs" textLength="9" x="300" y="230.2988">5</text><text fill="#000000" font-family="sans-serif" font-size="13" lengthAdjust="spacingAndGlyphs" textLength="148" x="313" y="230.2988">OK FOR admin@domain</text><polygon fill="#A80036" points="954.5,260.041,964.5,264.041,954.5,268.041,958.5,264.041" style="stroke: #A80036; stroke-width: 1.0;"/><line style="stroke: #A80036; stroke-width: 1.0;" x1="283" x2="960.5" y1="264.041" y2="264.041"/><text fill="#000000" font-family="sans-serif" font-size="13" font-weight="bold" lengthAdjust="spacingAndGlyphs" textLength="9" x="290" y="259.6094">6</text><text fill="#000000" font-family="sans-serif" font-size="13" lengthAdjust="spacingAndGlyphs" textLength="276" x="303" y="259.6094">Compare group@domain AS admin@domain</text><polygon fill="#0000FF" points="294,294.3516,284,298.3516,294,302.3516,290,298.3516" style="stroke: #0000FF; stroke-width: 1.0;"/><line style="stroke: #0000FF; stroke-width: 1.0; stroke-dasharray: 2.0,2.0;" x1="288" x2="965.5" y1="298.3516" y2="298.3516"/><text fill="#000000" font-family="sans-serif" font-size="13" font-weight="bold" lengthAdjust="spacingAndGlyphs" textLength="9" x="300" y="293.9199">7</text><text fill="#000000" font-family="sans-serif" font-size="13" lengthAdjust="spacingAndGlyphs" textLength="85" x="313" y="293.9199">UserID Found</text><polygon fill="#FBFB77" filter="url(#ffgwaua)" points="74,277.3516,74,302.3516,264,302.3516,264,287.3516,254,277.3516,74,277.3516" style="stroke: #A80036; stroke-width: 1.0;"/><line style="stroke: #A80036; stroke-width: 1.0;" x1="254" x2="254" y1="277.3516" y2="287.3516"/><line style="stroke: #A80036; stroke-width: 1.0;" x1="264" x2="254" y1="287.3516" y2="287.3516"/><text fill="#0000FF" font-family="sans-serif" font-size="13" lengthAdjust="spacingAndGlyphs" textLength="169" x="80" y="294.9199">Alternative flow, fatal error</text><polygon fill="#0000FF" points="42.5,328.6621,32.5,332.6621,42.5,336.6621,38.5,332.6621" style="stroke: #0000FF; stroke-width: 1.0;"/><line style="stroke: #0000FF; stroke-width: 1.0; stroke-dasharray: 2.0,2.0;" x1="36.5" x2="272" y1="332.6621" y2="332.6621"/><text fill="#000000" font-family="sans-serif" font-size="13" font-weight="bold" lengthAdjust="spacingAndGlyphs" textLength="9" x="48.5" y="328.2305">8</text><text fill="#000000" font-family="sans-serif" font-size="13" lengthAdjust="spacingAndGlyphs" textLength="89" x="61.5" y="328.2305">Already Exists</text><polygon fill="#A80036" points="294,357.9727,284,361.9727,294,365.9727,290,361.9727" style="stroke: #A80036; stroke-width: 1.0;"/><line style="stroke: #A80036; stroke-width: 1.0;" x1="288" x2="970.5" y1="361.9727" y2="361.9727"/><text fill="#000000" font-family="sans-serif" font-size="13" font-weight="bold" lengthAdjust="spacingAndGlyphs" textLength="9" x="300" y="357.541">9</text><text fill="#000000" font-family="sans-serif" font-size="13" lengthAdjust="spacingAndGlyphs" textLength="112" x="313" y="357.541">UserID Not Found</text><polygon fill="#A80036" points="37.5,387.2832,27.5,391.2832,37.5,395.2832,33.5,391.2832" style="stroke: #A80036; stroke-width: 1.0;"/><line style="stroke: #A80036; stroke-width: 1.0;" x1="31.5" x2="272" y1="391.2832" y2="391.2832"/><text fill="#000000" font-family="sans-serif" font-size="13" font-weight="bold" lengthAdjust="spacingAndGlyphs" textLength="18" x="43.5" y="386.8516">10</text><text fill="#000000" font-family="sans-serif" font-size="13" lengthAdjust="spacingAndGlyphs" textLength="48" x="65.5" y="386.8516">Queued</text><polygon fill="#A80036" points="489,416.5938,499,420.5938,489,424.5938,493,420.5938" style="stroke: #A80036; stroke-width: 1.0;"/><line style="stroke: #A80036; stroke-width: 1.0;" x1="283" x2="495" y1="420.5938" y2="420.5938"/><text fill="#000000" font-family="sans-serif" font-size="13" font-weight="bold" lengthAdjust="spacingAndGlyphs" textLength="18" x="290" y="416.1621">11</text><text fill="#000000" font-family="sans-serif" font-size="13" lengthAdjust="spacingAndGlyphs" textLength="172" x="312" y="416.1621">Have Group group@domain</text><polygon fill="#A80036" points="289,445.9043,279,449.9043,289,453.9043,285,449.9043" style="stroke: #A80036; stroke-width: 1.0;"/><line style="stroke: #A80036; stroke-width: 1.0;" x1="283" x2="500" y1="449.9043" y2="449.9043"/><text fill="#000000" font-family="sans-serif" font-size="13" font-weight="bold" lengthAdjust="spacingAndGlyphs" textLength="18" x="295" y="445.4727">12</text><text fill="#000000" font-family="sans-serif" font-size="13" lengthAdjust="spacingAndGlyphs" textLength="48" x="317" y="445.4727">Queued</text><polygon fill="#A80036" points="906,475.2148,916,479.2148,906,483.2148,910,479.2148" style="stroke: #A80036; stroke-width: 1.0;"/><line style="stroke: #A80036; stroke-width: 1.0;" x1="511" x2="912" y1="479.2148" y2="479.2148"/><text fill="#000000" font-family="sans-serif" font-size="13" font-weight="bold" lengthAdjust="spacingAndGlyphs" textLength="18" x="518" y="474.7832">13</text><text fill="#000000" font-family="sans-serif" font-size="13" lengthAdjust="spacingAndGlyphs" textLength="188" x="540" y="474.7832">Have Principal group@domain</text><polygon fill="#A80036" points="842,504.5254,852,508.5254,842,512.5254,846,508.5254" style="stroke: #A80036; stroke-width: 1.0;"/><line style="stroke: #A80036; stroke-width: 1.0;" x1="511" x2="848" y1="508.5254" y2="508.5254"/><text fill="#000000" font-family="sans-serif" font-size="13" font-weight="bold" lengthAdjust="spacingAndGlyphs" textLength="18" x="518" y="504.0938">14</text><text fill="#000000" font-family="sans-serif" font-size="13" lengthAdjust="spacingAndGlyphs" textLength="297" x="540" y="504.0938">Have Layer group@domain FOR admin@domain</text><polygon fill="#A80036" points="522,533.8359,512,537.8359,522,541.8359,518,537.8359" style="stroke: #A80036; stroke-width: 1.0;"/><line style="stroke: #A80036; stroke-width: 1.0;" x1="516" x2="922" y1="537.8359" y2="537.8359"/><text fill="#000000" font-family="sans-serif" font-size="13" font-weight="bold" lengthAdjust="spacingAndGlyphs" textLength="18" x="528" y="533.4043">15</text><text fill="#000000" font-family="sans-serif" font-size="13" lengthAdjust="spacingAndGlyphs" textLength="18" x="550" y="533.4043">OK</text><polygon fill="#A80036" points="842,563.1465,852,567.1465,842,571.1465,846,567.1465" style="stroke: #A80036; stroke-width: 1.0;"/><line style="stroke: #A80036; stroke-width: 1.0;" x1="511" x2="848" y1="567.1465" y2="567.1465"/><text fill="#000000" font-family="sans-serif" font-size="13" font-weight="bold" lengthAdjust="spacingAndGlyphs" textLength="18" x="518" y="562.7148">16</text><text fill="#000000" font-family="sans-serif" font-size="13" lengthAdjust="spacingAndGlyphs" textLength="163" x="540" y="562.7148">Have Keys group@domain</text><polygon fill="#A80036" points="522,592.457,512,596.457,522,600.457,518,596.457" style="stroke: #A80036; stroke-width: 1.0;"/><line style="stroke: #A80036; stroke-width: 1.0;" x1="516" x2="853" y1="596.457" y2="596.457"/><text fill="#000000" font-family="sans-serif" font-size="13" font-weight="bold" lengthAdjust="spacingAndGlyphs" textLength="18" x="528" y="592.0254">17</text><text fill="#000000" font-family="sans-serif" font-size="13" lengthAdjust="spacingAndGlyphs" textLength="140" x="550" y="592.0254">Made pkcs11:xxx;y;zz</text><polygon fill="#A80036" points="842,621.7676,852,625.7676,842,629.7676,846,625.7676" style="stroke: #A80036; stroke-width: 1.0;"/><line style="stroke: #A80036; stroke-width: 1.0;" x1="511" x2="848" y1="625.7676" y2="625.7676"/><text fill="#000000" font-family="sans-serif" font-size="13" font-weight="bold" lengthAdjust="spacingAndGlyphs" textLength="18" x="518" y="621.3359">18</text><text fill="#000000" font-family="sans-serif" font-size="13" lengthAdjust="spacingAndGlyphs" textLength="149" x="540" y="621.3359">Retrieve group@domain</text><polygon fill="#A80036" points="522,651.0781,512,655.0781,522,659.0781,518,655.0781" style="stroke: #A80036; stroke-width: 1.0;"/><line style="stroke: #A80036; stroke-width: 1.0;" x1="516" x2="858" y1="655.0781" y2="655.0781"/><text fill="#000000" font-family="sans-serif" font-size="13" font-weight="bold" lengthAdjust="spacingAndGlyphs" textLength="18" x="528" y="650.6465">19</text><text fill="#000000" font-family="sans-serif" font-size="13" lengthAdjust="spacingAndGlyphs" textLength="136" x="550" y="650.6465">PubKey MIIEVzCCAz...</text><line style="stroke: #A80036; stroke-width: 1.0;" x1="516" x2="558" y1="684.6992" y2="684.6992"/><line style="stroke: #A80036; stroke-width: 1.0;" x1="558" x2="558" y1="684.6992" y2="697.6992"/><line style="stroke: #A80036; stroke-width: 1.0;" x1="517" x2="558" y1="697.6992" y2="697.6992"/><polygon fill="#A80036" points="527,693.6992,517,697.6992,527,701.6992,523,697.6992" style="stroke: #A80036; stroke-width: 1.0;"/><text fill="#000000" font-family="sans-serif" font-size="13" font-weight="bold" lengthAdjust="spacingAndGlyphs" textLength="18" x="523" y="679.957">20</text><text fill="#000000" font-family="sans-serif" font-size="13" lengthAdjust="spacingAndGlyphs" textLength="193" x="545" y="679.957">PubKey MIIEVzCCAz... to Creds</text><polygon fill="#A80036" points="954.5,752.6992,964.5,756.6992,954.5,760.6992,958.5,756.6992" style="stroke: #A80036; stroke-width: 1.0;"/><line style="stroke: #A80036; stroke-width: 1.0;" x1="511" x2="960.5" y1="756.6992" y2="756.6992"/><text fill="#000000" font-family="sans-serif" font-size="13" font-weight="bold" lengthAdjust="spacingAndGlyphs" textLength="18" x="518" y="752.2676">21</text><text fill="#000000" font-family="sans-serif" font-size="13" lengthAdjust="spacingAndGlyphs" textLength="313" x="540" y="752.2676">Have group@domain XS public AS admin@domain</text><polygon fill="#A80036" points="954.5,782.0098,964.5,786.0098,954.5,790.0098,958.5,786.0098" style="stroke: #A80036; stroke-width: 1.0;"/><line style="stroke: #A80036; stroke-width: 1.0;" x1="511" x2="960.5" y1="786.0098" y2="786.0098"/><text fill="#000000" font-family="sans-serif" font-size="13" font-weight="bold" lengthAdjust="spacingAndGlyphs" textLength="18" x="518" y="781.5781">22</text><text fill="#000000" font-family="sans-serif" font-size="13" lengthAdjust="spacingAndGlyphs" textLength="375" x="540" y="781.5781">Have Creds for group@domain XS public AS admin@domain</text><polygon fill="#A80036" points="954.5,811.3203,964.5,815.3203,954.5,819.3203,958.5,815.3203" style="stroke: #A80036; stroke-width: 1.0;"/><line style="stroke: #A80036; stroke-width: 1.0;" x1="511" x2="960.5" y1="815.3203" y2="815.3203"/><text fill="#000000" font-family="sans-serif" font-size="13" font-weight="bold" lengthAdjust="spacingAndGlyphs" textLength="18" x="518" y="810.8887">23</text><text fill="#000000" font-family="sans-serif" font-size="13" lengthAdjust="spacingAndGlyphs" textLength="377" x="540" y="810.8887">Have pkcs11:xxx;y;zz XS group@domain AS admin@domain</text><polygon fill="#0000FF" points="1003,845.6309,1013,849.6309,1003,853.6309,1007,849.6309" style="stroke: #0000FF; stroke-width: 1.0;"/><line style="stroke: #0000FF; stroke-width: 1.0; stroke-dasharray: 2.0,2.0;" x1="511" x2="1009" y1="849.6309" y2="849.6309"/><text fill="#000000" font-family="sans-serif" font-size="13" font-weight="bold" lengthAdjust="spacingAndGlyphs" textLength="18" x="518" y="845.1992">24</text><text fill="#000000" font-family="sans-serif" font-size="13" lengthAdjust="spacingAndGlyphs" textLength="238" x="540" y="845.1992">Have TLSA records AS admin@domain</text><polygon fill="#FBFB77" filter="url(#ffgwaua)" points="348,828.6309,348,853.6309,492,853.6309,492,838.6309,482,828.6309,348,828.6309" style="stroke: #A80036; stroke-width: 1.0;"/><line style="stroke: #A80036; stroke-width: 1.0;" x1="482" x2="482" y1="828.6309" y2="838.6309"/><line style="stroke: #A80036; stroke-width: 1.0;" x1="492" x2="482" y1="838.6309" y2="838.6309"/><text fill="#0000FF" font-family="sans-serif" font-size="13" lengthAdjust="spacingAndGlyphs" textLength="123" x="354" y="846.1992">TLSA only for hosts</text><polygon fill="#0000FF" points="522,879.9414,512,883.9414,522,887.9414,518,883.9414" style="stroke: #0000FF; stroke-width: 1.0;"/><line style="stroke: #0000FF; stroke-width: 1.0; stroke-dasharray: 2.0,2.0;" x1="516" x2="1019" y1="883.9414" y2="883.9414"/><text fill="#000000" font-family="sans-serif" font-size="13" font-weight="bold" lengthAdjust="spacingAndGlyphs" textLength="18" x="528" y="879.5098">25</text><text fill="#000000" font-family="sans-serif" font-size="13" lengthAdjust="spacingAndGlyphs" textLength="48" x="550" y="879.5098">Queued</text><polygon fill="#A80036" points="517,909.252,507,913.252,517,917.252,513,913.252" style="stroke: #A80036; stroke-width: 1.0;"/><line style="stroke: #A80036; stroke-width: 1.0;" x1="511" x2="970.5" y1="913.252" y2="913.252"/><text fill="#000000" font-family="sans-serif" font-size="13" font-weight="bold" lengthAdjust="spacingAndGlyphs" textLength="18" x="523" y="908.8203">26</text><text fill="#000000" font-family="sans-serif" font-size="13" lengthAdjust="spacingAndGlyphs" textLength="37" x="545" y="908.8203">Ready</text></g></svg>