<?xml version="1.0" encoding="UTF-8" standalone="no"?><svg xmlns="http://www.w3.org/2000/svg" xmlns:xlink="http://www.w3.org/1999/xlink" contentScriptType="application/ecmascript" contentStyleType="text/css" height="799px" preserveAspectRatio="none" style="width:1223px;height:799px;" version="1.1" viewBox="0 0 1223 799" width="1223px" zoomAndPan="magnify"><defs><filter height="300%" id="f8ty0vz" width="300%" x="-1" y="-1"><feGaussianBlur result="blurOut" stdDeviation="2.0"/><feColorMatrix in="blurOut" result="blurOut2" type="matrix" values="0 0 0 0 0 0 0 0 0 0 0 0 0 0 0 0 0 0 .4 0"/><feOffset dx="4.0" dy="4.0" in="blurOut2" result="blurOut3"/><feBlend in="SourceGraphic" in2="blurOut3" mode="normal"/></filter></defs><g><rect fill="#FFFFFF" filter="url(#f8ty0vz)" height="360.416" style="stroke: #A80036; stroke-width: 1.0;" width="10" x="21.5" y="117.4883"/><rect fill="#FFFFFF" filter="url(#f8ty0vz)" height="29.3105" style="stroke: #A80036; stroke-width: 1.0;" width="10" x="80" y="190.1094"/><rect fill="#FFFFFF" filter="url(#f8ty0vz)" height="462.3477" style="stroke: #A80036; stroke-width: 1.0;" width="10" x="371.5" y="117.4883"/><rect fill="#FFFFFF" filter="url(#f8ty0vz)" height="146.5527" style="stroke: #A80036; stroke-width: 1.0;" width="10" x="703.5" y="550.5254"/><rect fill="#FFFFFF" filter="url(#f8ty0vz)" height="29.3105" style="stroke: #A80036; stroke-width: 1.0;" width="10" x="945.5" y="248.7305"/><rect fill="#FFFFFF" filter="url(#f8ty0vz)" height="29.3105" style="stroke: #A80036; stroke-width: 1.0;" width="10" x="945.5" y="638.457"/><rect fill="#FFFFFF" filter="url(#f8ty0vz)" height="97.9316" style="stroke: #A80036; stroke-width: 1.0;" width="10" x="1187.5" y="350.6621"/><rect fill="#FFFFFF" filter="url(#f8ty0vz)" height="87.9316" style="stroke: #A80036; stroke-width: 1.0;" width="10" x="1187.5" y="609.1465"/><line style="stroke: #A80036; stroke-width: 1.0; stroke-dasharray: 5.0,5.0;" x1="26" x2="26" y1="86.4883" y2="715.3887"/><line style="stroke: #A80036; stroke-width: 1.0; stroke-dasharray: 5.0,5.0;" x1="85" x2="85" y1="86.4883" y2="715.3887"/><line style="stroke: #A80036; stroke-width: 1.0; stroke-dasharray: 5.0,5.0;" x1="376" x2="376" y1="86.4883" y2="715.3887"/><line style="stroke: #A80036; stroke-width: 1.0; stroke-dasharray: 5.0,5.0;" x1="708.5" x2="708.5" y1="86.4883" y2="715.3887"/><line style="stroke: #A80036; stroke-width: 1.0; stroke-dasharray: 5.0,5.0;" x1="950" x2="950" y1="86.4883" y2="715.3887"/><line style="stroke: #A80036; stroke-width: 1.0; stroke-dasharray: 5.0,5.0;" x1="1192" x2="1192" y1="86.4883" y2="715.3887"/><text fill="#000000" font-family="sans-serif" font-size="14" lengthAdjust="spacingAndGlyphs" textLength="31" x="8" y="83.5352">User</text><ellipse cx="26.5" cy="13" fill="#FEFECE" filter="url(#f8ty0vz)" rx="8" ry="8" style="stroke: #A80036; stroke-width: 2.0;"/><path d="M26.5,21 L26.5,48 M13.5,29 L39.5,29 M26.5,48 L13.5,63 M26.5,48 L39.5,63 " fill="#FEFECE" filter="url(#f8ty0vz)" style="stroke: #A80036; stroke-width: 2.0;"/><text fill="#000000" font-family="sans-serif" font-size="14" lengthAdjust="spacingAndGlyphs" textLength="31" x="8" y="727.9238">User</text><ellipse cx="26.5" cy="740.877" fill="#FEFECE" filter="url(#f8ty0vz)" rx="8" ry="8" style="stroke: #A80036; stroke-width: 2.0;"/><path d="M26.5,748.877 L26.5,775.877 M13.5,756.877 L39.5,756.877 M26.5,775.877 L13.5,790.877 M26.5,775.877 L39.5,790.877 " fill="#FEFECE" filter="url(#f8ty0vz)" style="stroke: #A80036; stroke-width: 2.0;"/><rect fill="#FEFECE" filter="url(#f8ty0vz)" height="30.4883" style="stroke: #A80036; stroke-width: 1.5;" width="56" x="55" y="51"/><text fill="#000000" font-family="sans-serif" font-size="14" lengthAdjust="spacingAndGlyphs" textLength="42" x="62" y="71.5352">Authn</text><rect fill="#FEFECE" filter="url(#f8ty0vz)" height="30.4883" style="stroke: #A80036; stroke-width: 1.5;" width="56" x="55" y="714.3887"/><text fill="#000000" font-family="sans-serif" font-size="14" lengthAdjust="spacingAndGlyphs" textLength="42" x="62" y="734.9238">Authn</text><rect fill="#FEFECE" filter="url(#f8ty0vz)" height="30.4883" style="stroke: #A80036; stroke-width: 1.5;" width="111" x="319" y="51"/><text fill="#000000" font-family="sans-serif" font-size="14" lengthAdjust="spacingAndGlyphs" textLength="97" x="326" y="71.5352">IdHub Control</text><rect fill="#FEFECE" filter="url(#f8ty0vz)" height="30.4883" style="stroke: #A80036; stroke-width: 1.5;" width="111" x="319" y="714.3887"/><text fill="#000000" font-family="sans-serif" font-size="14" lengthAdjust="spacingAndGlyphs" textLength="97" x="326" y="734.9238">IdHub Control</text><rect fill="#FEFECE" filter="url(#f8ty0vz)" height="30.4883" style="stroke: #A80036; stroke-width: 1.5;" width="102" x="655.5" y="51"/><text fill="#000000" font-family="sans-serif" font-size="14" lengthAdjust="spacingAndGlyphs" textLength="88" x="662.5" y="71.5352">Key Manager</text><rect fill="#FEFECE" filter="url(#f8ty0vz)" height="30.4883" style="stroke: #A80036; stroke-width: 1.5;" width="102" x="655.5" y="714.3887"/><text fill="#000000" font-family="sans-serif" font-size="14" lengthAdjust="spacingAndGlyphs" textLength="88" x="662.5" y="734.9238">Key Manager</text><rect fill="#FEFECE" filter="url(#f8ty0vz)" height="30.4883" style="stroke: #A80036; stroke-width: 1.5;" width="55" x="921" y="51"/><text fill="#000000" font-family="sans-serif" font-size="14" lengthAdjust="spacingAndGlyphs" textLength="41" x="928" y="71.5352">Authz</text><rect fill="#FEFECE" filter="url(#f8ty0vz)" height="30.4883" style="stroke: #A80036; stroke-width: 1.5;" width="55" x="921" y="714.3887"/><text fill="#000000" font-family="sans-serif" font-size="14" lengthAdjust="spacingAndGlyphs" textLength="41" x="928" y="734.9238">Authz</text><text fill="#000000" font-family="sans-serif" font-size="14" lengthAdjust="spacingAndGlyphs" textLength="35" x="1172" y="83.5352">LDAP</text><path d="M1174.5,34 C1174.5,24 1192.5,24 1192.5,24 C1192.5,24 1210.5,24 1210.5,34 L1210.5,60 C1210.5,70 1192.5,70 1192.5,70 C1192.5,70 1174.5,70 1174.5,60 L1174.5,34 " fill="#FEFECE" filter="url(#f8ty0vz)" style="stroke: #000000; stroke-width: 1.5;"/><path d="M1174.5,34 C1174.5,44 1192.5,44 1192.5,44 C1192.5,44 1210.5,44 1210.5,34 " fill="none" style="stroke: #000000; stroke-width: 1.5;"/><text fill="#000000" font-family="sans-serif" font-size="14" lengthAdjust="spacingAndGlyphs" textLength="35" x="1172" y="727.9238">LDAP</text><path d="M1174.5,740.877 C1174.5,730.877 1192.5,730.877 1192.5,730.877 C1192.5,730.877 1210.5,730.877 1210.5,740.877 L1210.5,766.877 C1210.5,776.877 1192.5,776.877 1192.5,776.877 C1192.5,776.877 1174.5,776.877 1174.5,766.877 L1174.5,740.877 " fill="#FEFECE" filter="url(#f8ty0vz)" style="stroke: #000000; stroke-width: 1.5;"/><path d="M1174.5,740.877 C1174.5,750.877 1192.5,750.877 1192.5,750.877 C1192.5,750.877 1210.5,750.877 1210.5,740.877 " fill="none" style="stroke: #000000; stroke-width: 1.5;"/><rect fill="#FFFFFF" filter="url(#f8ty0vz)" height="360.416" style="stroke: #A80036; stroke-width: 1.0;" width="10" x="21.5" y="117.4883"/><rect fill="#FFFFFF" filter="url(#f8ty0vz)" height="29.3105" style="stroke: #A80036; stroke-width: 1.0;" width="10" x="80" y="190.1094"/><rect fill="#FFFFFF" filter="url(#f8ty0vz)" height="462.3477" style="stroke: #A80036; stroke-width: 1.0;" width="10" x="371.5" y="117.4883"/><rect fill="#FFFFFF" filter="url(#f8ty0vz)" height="146.5527" style="stroke: #A80036; stroke-width: 1.0;" width="10" x="703.5" y="550.5254"/><rect fill="#FFFFFF" filter="url(#f8ty0vz)" height="29.3105" style="stroke: #A80036; stroke-width: 1.0;" width="10" x="945.5" y="248.7305"/><rect fill="#FFFFFF" filter="url(#f8ty0vz)" height="29.3105" style="stroke: #A80036; stroke-width: 1.0;" width="10" x="945.5" y="638.457"/><rect fill="#FFFFFF" filter="url(#f8ty0vz)" height="97.9316" style="stroke: #A80036; stroke-width: 1.0;" width="10" x="1187.5" y="350.6621"/><rect fill="#FFFFFF" filter="url(#f8ty0vz)" height="87.9316" style="stroke: #A80036; stroke-width: 1.0;" width="10" x="1187.5" y="609.1465"/><polygon fill="#A80036" points="359.5,113.4883,369.5,117.4883,359.5,121.4883,363.5,117.4883" style="stroke: #A80036; stroke-width: 1.0;"/><line style="stroke: #A80036; stroke-width: 1.0;" x1="31.5" x2="365.5" y1="117.4883" y2="117.4883"/><text fill="#000000" font-family="sans-serif" font-size="13" font-weight="bold" lengthAdjust="spacingAndGlyphs" textLength="9" x="38.5" y="113.0566">1</text><text fill="#000000" font-family="sans-serif" font-size="13" lengthAdjust="spacingAndGlyphs" textLength="313" x="51.5" y="113.0566">Group group@domain Member Del user@domain1</text><rect fill="#EEEEEE" filter="url(#f8ty0vz)" height="3" style="stroke: #EEEEEE; stroke-width: 1.0;" width="1215" x="3" y="146.4541"/><line style="stroke: #000000; stroke-width: 1.0;" x1="3" x2="1218" y1="146.4541" y2="146.4541"/><line style="stroke: #000000; stroke-width: 1.0;" x1="3" x2="1218" y1="149.4541" y2="149.4541"/><rect fill="#EEEEEE" filter="url(#f8ty0vz)" height="23.3105" style="stroke: #000000; stroke-width: 2.0;" width="117" x="552" y="135.7988"/><text fill="#000000" font-family="sans-serif" font-size="13" font-weight="bold" lengthAdjust="spacingAndGlyphs" textLength="99" x="558" y="152.3672">Access Control</text><polygon fill="#A80036" points="101,186.1094,91,190.1094,101,194.1094,97,190.1094" style="stroke: #A80036; stroke-width: 1.0;"/><line style="stroke: #A80036; stroke-width: 1.0;" x1="95" x2="370.5" y1="190.1094" y2="190.1094"/><text fill="#000000" font-family="sans-serif" font-size="13" font-weight="bold" lengthAdjust="spacingAndGlyphs" textLength="9" x="107" y="185.6777">2</text><text fill="#000000" font-family="sans-serif" font-size="13" lengthAdjust="spacingAndGlyphs" textLength="136" x="120" y="185.6777">SecureLayer @domain</text><polygon fill="#A80036" points="359.5,215.4199,369.5,219.4199,359.5,223.4199,363.5,219.4199" style="stroke: #A80036; stroke-width: 1.0;"/><line style="stroke: #A80036; stroke-width: 1.0;" x1="85" x2="365.5" y1="219.4199" y2="219.4199"/><text fill="#000000" font-family="sans-serif" font-size="13" font-weight="bold" lengthAdjust="spacingAndGlyphs" textLength="9" x="92" y="214.9883">3</text><text fill="#000000" font-family="sans-serif" font-size="13" lengthAdjust="spacingAndGlyphs" textLength="193" x="105" y="214.9883">RemoteID group+you@domain</text><polygon fill="#A80036" points="933.5,244.7305,943.5,248.7305,933.5,252.7305,937.5,248.7305" style="stroke: #A80036; stroke-width: 1.0;"/><line style="stroke: #A80036; stroke-width: 1.0;" x1="381.5" x2="939.5" y1="248.7305" y2="248.7305"/><text fill="#000000" font-family="sans-serif" font-size="13" font-weight="bold" lengthAdjust="spacingAndGlyphs" textLength="9" x="388.5" y="244.2988">4</text><text fill="#000000" font-family="sans-serif" font-size="13" lengthAdjust="spacingAndGlyphs" textLength="440" x="401.5" y="244.2988">WANT group-membership ON group@domain AS group+you@domain</text><polygon fill="#A80036" points="392.5,274.041,382.5,278.041,392.5,282.041,388.5,278.041" style="stroke: #A80036; stroke-width: 1.0;"/><line style="stroke: #A80036; stroke-width: 1.0;" x1="386.5" x2="949.5" y1="278.041" y2="278.041"/><text fill="#000000" font-family="sans-serif" font-size="13" font-weight="bold" lengthAdjust="spacingAndGlyphs" textLength="9" x="398.5" y="273.6094">5</text><text fill="#000000" font-family="sans-serif" font-size="13" lengthAdjust="spacingAndGlyphs" textLength="179" x="411.5" y="273.6094">OK FOR group+you@domain</text><rect fill="#EEEEEE" filter="url(#f8ty0vz)" height="3" style="stroke: #EEEEEE; stroke-width: 1.0;" width="1215" x="3" y="307.0068"/><line style="stroke: #000000; stroke-width: 1.0;" x1="3" x2="1218" y1="307.0068" y2="307.0068"/><line style="stroke: #000000; stroke-width: 1.0;" x1="3" x2="1218" y1="310.0068" y2="310.0068"/><rect fill="#EEEEEE" filter="url(#f8ty0vz)" height="23.3105" style="stroke: #000000; stroke-width: 2.0;" width="104" x="558.5" y="296.3516"/><text fill="#000000" font-family="sans-serif" font-size="13" font-weight="bold" lengthAdjust="spacingAndGlyphs" textLength="86" x="564.5" y="312.9199">Sanity Check</text><polygon fill="#A80036" points="1175.5,346.6621,1185.5,350.6621,1175.5,354.6621,1179.5,350.6621" style="stroke: #A80036; stroke-width: 1.0;"/><line style="stroke: #A80036; stroke-width: 1.0;" x1="381.5" x2="1181.5" y1="350.6621" y2="350.6621"/><text fill="#000000" font-family="sans-serif" font-size="13" font-weight="bold" lengthAdjust="spacingAndGlyphs" textLength="9" x="388.5" y="346.2305">6</text><text fill="#000000" font-family="sans-serif" font-size="13" lengthAdjust="spacingAndGlyphs" textLength="458" x="401.5" y="346.2305">Compare group@domain Member user@domain1 AS group+you@domain</text><polygon fill="#0000FF" points="392.5,380.9727,382.5,384.9727,392.5,388.9727,388.5,384.9727" style="stroke: #0000FF; stroke-width: 1.0;"/><line style="stroke: #0000FF; stroke-width: 1.0; stroke-dasharray: 2.0,2.0;" x1="386.5" x2="1186.5" y1="384.9727" y2="384.9727"/><text fill="#000000" font-family="sans-serif" font-size="13" font-weight="bold" lengthAdjust="spacingAndGlyphs" textLength="9" x="398.5" y="380.541">7</text><text fill="#000000" font-family="sans-serif" font-size="13" lengthAdjust="spacingAndGlyphs" textLength="112" x="411.5" y="380.541">UserID Not Found</text><polygon fill="#FBFB77" filter="url(#f8ty0vz)" points="172,363.9727,172,388.9727,362,388.9727,362,373.9727,352,363.9727,172,363.9727" style="stroke: #A80036; stroke-width: 1.0;"/><line style="stroke: #A80036; stroke-width: 1.0;" x1="352" x2="352" y1="363.9727" y2="373.9727"/><line style="stroke: #A80036; stroke-width: 1.0;" x1="362" x2="352" y1="373.9727" y2="373.9727"/><text fill="#0000FF" font-family="sans-serif" font-size="13" lengthAdjust="spacingAndGlyphs" textLength="169" x="178" y="381.541">Alternative flow, fatal error</text><polygon fill="#0000FF" points="42.5,415.2832,32.5,419.2832,42.5,423.2832,38.5,419.2832" style="stroke: #0000FF; stroke-width: 1.0;"/><line style="stroke: #0000FF; stroke-width: 1.0; stroke-dasharray: 2.0,2.0;" x1="36.5" x2="370.5" y1="419.2832" y2="419.2832"/><text fill="#000000" font-family="sans-serif" font-size="13" font-weight="bold" lengthAdjust="spacingAndGlyphs" textLength="9" x="48.5" y="414.8516">8</text><text fill="#000000" font-family="sans-serif" font-size="13" lengthAdjust="spacingAndGlyphs" textLength="113" x="61.5" y="414.8516">Unknown Member</text><polygon fill="#A80036" points="392.5,444.5938,382.5,448.5938,392.5,452.5938,388.5,448.5938" style="stroke: #A80036; stroke-width: 1.0;"/><line style="stroke: #A80036; stroke-width: 1.0;" x1="386.5" x2="1191.5" y1="448.5938" y2="448.5938"/><text fill="#000000" font-family="sans-serif" font-size="13" font-weight="bold" lengthAdjust="spacingAndGlyphs" textLength="9" x="398.5" y="444.1621">9</text><text fill="#000000" font-family="sans-serif" font-size="13" lengthAdjust="spacingAndGlyphs" textLength="85" x="411.5" y="444.1621">UserID Found</text><polygon fill="#A80036" points="37.5,473.9043,27.5,477.9043,37.5,481.9043,33.5,477.9043" style="stroke: #A80036; stroke-width: 1.0;"/><line style="stroke: #A80036; stroke-width: 1.0;" x1="31.5" x2="370.5" y1="477.9043" y2="477.9043"/><text fill="#000000" font-family="sans-serif" font-size="13" font-weight="bold" lengthAdjust="spacingAndGlyphs" textLength="18" x="43.5" y="473.4727">10</text><text fill="#000000" font-family="sans-serif" font-size="13" lengthAdjust="spacingAndGlyphs" textLength="48" x="65.5" y="473.4727">Queued</text><rect fill="#EEEEEE" filter="url(#f8ty0vz)" height="3" style="stroke: #EEEEEE; stroke-width: 1.0;" width="1215" x="3" y="506.8701"/><line style="stroke: #000000; stroke-width: 1.0;" x1="3" x2="1218" y1="506.8701" y2="506.8701"/><line style="stroke: #000000; stroke-width: 1.0;" x1="3" x2="1218" y1="509.8701" y2="509.8701"/><rect fill="#EEEEEE" filter="url(#f8ty0vz)" height="23.3105" style="stroke: #000000; stroke-width: 2.0;" width="136" x="542.5" y="496.2148"/><text fill="#000000" font-family="sans-serif" font-size="13" font-weight="bold" lengthAdjust="spacingAndGlyphs" textLength="118" x="548.5" y="512.7832">Key Management</text><polygon fill="#A80036" points="691.5,546.5254,701.5,550.5254,691.5,554.5254,695.5,550.5254" style="stroke: #A80036; stroke-width: 1.0;"/><line style="stroke: #A80036; stroke-width: 1.0;" x1="381.5" x2="697.5" y1="550.5254" y2="550.5254"/><text fill="#000000" font-family="sans-serif" font-size="13" font-weight="bold" lengthAdjust="spacingAndGlyphs" textLength="18" x="388.5" y="546.0938">11</text><text fill="#000000" font-family="sans-serif" font-size="13" lengthAdjust="spacingAndGlyphs" textLength="281" x="410.5" y="546.0938">Drop group@domain Member user@domain1</text><polygon fill="#A80036" points="387.5,575.8359,377.5,579.8359,387.5,583.8359,383.5,579.8359" style="stroke: #A80036; stroke-width: 1.0;"/><line style="stroke: #A80036; stroke-width: 1.0;" x1="381.5" x2="702.5" y1="579.8359" y2="579.8359"/><text fill="#000000" font-family="sans-serif" font-size="13" font-weight="bold" lengthAdjust="spacingAndGlyphs" textLength="18" x="393.5" y="575.4043">12</text><text fill="#000000" font-family="sans-serif" font-size="13" lengthAdjust="spacingAndGlyphs" textLength="48" x="415.5" y="575.4043">Queued</text><polygon fill="#A80036" points="1175.5,605.1465,1185.5,609.1465,1175.5,613.1465,1179.5,609.1465" style="stroke: #A80036; stroke-width: 1.0;"/><line style="stroke: #A80036; stroke-width: 1.0;" x1="713.5" x2="1181.5" y1="609.1465" y2="609.1465"/><text fill="#000000" font-family="sans-serif" font-size="13" font-weight="bold" lengthAdjust="spacingAndGlyphs" textLength="18" x="720.5" y="604.7148">13</text><text fill="#000000" font-family="sans-serif" font-size="13" lengthAdjust="spacingAndGlyphs" textLength="433" x="742.5" y="604.7148">Drop group@domain Member user@domain1 AS group+you@domain</text><polygon fill="#A80036" points="933.5,634.457,943.5,638.457,933.5,642.457,937.5,638.457" style="stroke: #A80036; stroke-width: 1.0;"/><line style="stroke: #A80036; stroke-width: 1.0;" x1="713.5" x2="939.5" y1="638.457" y2="638.457"/><text fill="#000000" font-family="sans-serif" font-size="13" font-weight="bold" lengthAdjust="spacingAndGlyphs" textLength="18" x="720.5" y="634.0254">14</text><text fill="#000000" font-family="sans-serif" font-size="13" lengthAdjust="spacingAndGlyphs" textLength="191" x="742.5" y="634.0254">Drop certain cached privileges</text><polygon fill="#A80036" points="724.5,663.7676,714.5,667.7676,724.5,671.7676,720.5,667.7676" style="stroke: #A80036; stroke-width: 1.0;"/><line style="stroke: #A80036; stroke-width: 1.0;" x1="718.5" x2="949.5" y1="667.7676" y2="667.7676"/><text fill="#000000" font-family="sans-serif" font-size="13" font-weight="bold" lengthAdjust="spacingAndGlyphs" textLength="18" x="730.5" y="663.3359">15</text><text fill="#000000" font-family="sans-serif" font-size="13" lengthAdjust="spacingAndGlyphs" textLength="37" x="752.5" y="663.3359">Ready</text><polygon fill="#A80036" points="719.5,693.0781,709.5,697.0781,719.5,701.0781,715.5,697.0781" style="stroke: #A80036; stroke-width: 1.0;"/><line style="stroke: #A80036; stroke-width: 1.0;" x1="713.5" x2="1191.5" y1="697.0781" y2="697.0781"/><text fill="#000000" font-family="sans-serif" font-size="13" font-weight="bold" lengthAdjust="spacingAndGlyphs" textLength="18" x="725.5" y="692.6465">16</text><text fill="#000000" font-family="sans-serif" font-size="13" lengthAdjust="spacingAndGlyphs" textLength="37" x="747.5" y="692.6465">Ready</text></g></svg>