<?xml version="1.0" encoding="UTF-8" standalone="no"?><svg xmlns="http://www.w3.org/2000/svg" xmlns:xlink="http://www.w3.org/1999/xlink" contentScriptType="application/ecmascript" contentStyleType="text/css" height="1103px" preserveAspectRatio="none" style="width:1029px;height:1103px;" version="1.1" viewBox="0 0 1029 1103" width="1029px" zoomAndPan="magnify"><defs><filter height="300%" id="fbob2oz" width="300%" x="-1" y="-1"><feGaussianBlur result="blurOut" stdDeviation="2.0"/><feColorMatrix in="blurOut" result="blurOut2" type="matrix" values="0 0 0 0 0 0 0 0 0 0 0 0 0 0 0 0 0 0 .4 0"/><feOffset dx="4.0" dy="4.0" in="blurOut2" result="blurOut3"/><feBlend in="SourceGraphic" in2="blurOut3" mode="normal"/></filter></defs><g><rect fill="#FFFFFF" filter="url(#fbob2oz)" height="360.416" style="stroke: #A80036; stroke-width: 1.0;" width="10" x="21.5" y="117.4883"/><rect fill="#FFFFFF" filter="url(#fbob2oz)" height="29.3105" style="stroke: #A80036; stroke-width: 1.0;" width="10" x="80" y="190.1094"/><rect fill="#FFFFFF" filter="url(#fbob2oz)" height="462.3477" style="stroke: #A80036; stroke-width: 1.0;" width="10" x="273" y="117.4883"/><rect fill="#FFFFFF" filter="url(#fbob2oz)" height="450.3477" style="stroke: #A80036; stroke-width: 1.0;" width="10" x="496" y="550.5254"/><rect fill="#FFFFFF" filter="url(#fbob2oz)" height="29.3105" style="stroke: #A80036; stroke-width: 1.0;" width="10" x="680" y="248.7305"/><rect fill="#FFFFFF" filter="url(#fbob2oz)" height="30" style="stroke: #A80036; stroke-width: 1.0;" width="10" x="680" y="970.873"/><rect fill="#FFFFFF" filter="url(#fbob2oz)" height="29.3105" style="stroke: #A80036; stroke-width: 1.0;" width="10" x="835" y="667.7676"/><rect fill="#FFFFFF" filter="url(#fbob2oz)" height="58.6211" style="stroke: #A80036; stroke-width: 1.0;" width="10" x="899" y="638.457"/><rect fill="#FFFFFF" filter="url(#fbob2oz)" height="97.9316" style="stroke: #A80036; stroke-width: 1.0;" width="10" x="947.5" y="350.6621"/><rect fill="#FFFFFF" filter="url(#fbob2oz)" height="215.1738" style="stroke: #A80036; stroke-width: 1.0;" width="10" x="947.5" y="726.3887"/><rect fill="#FFFFFF" filter="url(#fbob2oz)" height="34.3105" style="stroke: #A80036; stroke-width: 1.0;" width="10" x="996" y="877.9414"/><line style="stroke: #A80036; stroke-width: 1.0; stroke-dasharray: 5.0,5.0;" x1="26" x2="26" y1="86.4883" y2="1019.1836"/><line style="stroke: #A80036; stroke-width: 1.0; stroke-dasharray: 5.0,5.0;" x1="85" x2="85" y1="86.4883" y2="1019.1836"/><line style="stroke: #A80036; stroke-width: 1.0; stroke-dasharray: 5.0,5.0;" x1="277.5" x2="277.5" y1="86.4883" y2="1019.1836"/><line style="stroke: #A80036; stroke-width: 1.0; stroke-dasharray: 5.0,5.0;" x1="501" x2="501" y1="86.4883" y2="1019.1836"/><line style="stroke: #A80036; stroke-width: 1.0; stroke-dasharray: 5.0,5.0;" x1="684.5" x2="684.5" y1="86.4883" y2="1019.1836"/><line style="stroke: #A80036; stroke-width: 1.0; stroke-dasharray: 5.0,5.0;" x1="840" x2="840" y1="86.4883" y2="1019.1836"/><line style="stroke: #A80036; stroke-width: 1.0; stroke-dasharray: 5.0,5.0;" x1="904" x2="904" y1="86.4883" y2="1019.1836"/><line style="stroke: #A80036; stroke-width: 1.0; stroke-dasharray: 5.0,5.0;" x1="952" x2="952" y1="86.4883" y2="1019.1836"/><line style="stroke: #A80036; stroke-width: 1.0; stroke-dasharray: 5.0,5.0;" x1="1001" x2="1001" y1="86.4883" y2="1019.1836"/><text fill="#000000" font-family="sans-serif" font-size="14" lengthAdjust="spacingAndGlyphs" textLength="31" x="8" y="83.5352">User</text><ellipse cx="26.5" cy="13" fill="#FEFECE" filter="url(#fbob2oz)" rx="8" ry="8" style="stroke: #A80036; stroke-width: 2.0;"/><path d="M26.5,21 L26.5,48 M13.5,29 L39.5,29 M26.5,48 L13.5,63 M26.5,48 L39.5,63 " fill="#FEFECE" filter="url(#fbob2oz)" style="stroke: #A80036; stroke-width: 2.0;"/><text fill="#000000" font-family="sans-serif" font-size="14" lengthAdjust="spacingAndGlyphs" textLength="31" x="8" y="1031.7188">User</text><ellipse cx="26.5" cy="1044.6719" fill="#FEFECE" filter="url(#fbob2oz)" rx="8" ry="8" style="stroke: #A80036; stroke-width: 2.0;"/><path d="M26.5,1052.6719 L26.5,1079.6719 M13.5,1060.6719 L39.5,1060.6719 M26.5,1079.6719 L13.5,1094.6719 M26.5,1079.6719 L39.5,1094.6719 " fill="#FEFECE" filter="url(#fbob2oz)" style="stroke: #A80036; stroke-width: 2.0;"/><rect fill="#FEFECE" filter="url(#fbob2oz)" height="30.4883" style="stroke: #A80036; stroke-width: 1.5;" width="56" x="55" y="51"/><text fill="#000000" font-family="sans-serif" font-size="14" lengthAdjust="spacingAndGlyphs" textLength="42" x="62" y="71.5352">Authn</text><rect fill="#FEFECE" filter="url(#fbob2oz)" height="30.4883" style="stroke: #A80036; stroke-width: 1.5;" width="56" x="55" y="1018.1836"/><text fill="#000000" font-family="sans-serif" font-size="14" lengthAdjust="spacingAndGlyphs" textLength="42" x="62" y="1038.7188">Authn</text><rect fill="#FEFECE" filter="url(#fbob2oz)" height="30.4883" style="stroke: #A80036; stroke-width: 1.5;" width="111" x="220.5" y="51"/><text fill="#000000" font-family="sans-serif" font-size="14" lengthAdjust="spacingAndGlyphs" textLength="97" x="227.5" y="71.5352">IdHub Control</text><rect fill="#FEFECE" filter="url(#fbob2oz)" height="30.4883" style="stroke: #A80036; stroke-width: 1.5;" width="111" x="220.5" y="1018.1836"/><text fill="#000000" font-family="sans-serif" font-size="14" lengthAdjust="spacingAndGlyphs" textLength="97" x="227.5" y="1038.7188">IdHub Control</text><rect fill="#FEFECE" filter="url(#fbob2oz)" height="30.4883" style="stroke: #A80036; stroke-width: 1.5;" width="102" x="448" y="51"/><text fill="#000000" font-family="sans-serif" font-size="14" lengthAdjust="spacingAndGlyphs" textLength="88" x="455" y="71.5352">Key Manager</text><rect fill="#FEFECE" filter="url(#fbob2oz)" height="30.4883" style="stroke: #A80036; stroke-width: 1.5;" width="102" x="448" y="1018.1836"/><text fill="#000000" font-family="sans-serif" font-size="14" lengthAdjust="spacingAndGlyphs" textLength="88" x="455" y="1038.7188">Key Manager</text><rect fill="#FEFECE" filter="url(#fbob2oz)" height="30.4883" style="stroke: #A80036; stroke-width: 1.5;" width="55" x="655.5" y="51"/><text fill="#000000" font-family="sans-serif" font-size="14" lengthAdjust="spacingAndGlyphs" textLength="41" x="662.5" y="71.5352">Authz</text><rect fill="#FEFECE" filter="url(#fbob2oz)" height="30.4883" style="stroke: #A80036; stroke-width: 1.5;" width="55" x="655.5" y="1018.1836"/><text fill="#000000" font-family="sans-serif" font-size="14" lengthAdjust="spacingAndGlyphs" textLength="41" x="662.5" y="1038.7188">Authz</text><text fill="#000000" font-family="sans-serif" font-size="14" lengthAdjust="spacingAndGlyphs" textLength="66" x="804" y="83.5352">PKCS #11</text><path d="M822,34 C822,24 840,24 840,24 C840,24 858,24 858,34 L858,60 C858,70 840,70 840,70 C840,70 822,70 822,60 L822,34 " fill="#FEFECE" filter="url(#fbob2oz)" style="stroke: #000000; stroke-width: 1.5;"/><path d="M822,34 C822,44 840,44 840,44 C840,44 858,44 858,34 " fill="none" style="stroke: #000000; stroke-width: 1.5;"/><text fill="#000000" font-family="sans-serif" font-size="14" lengthAdjust="spacingAndGlyphs" textLength="66" x="804" y="1031.7188">PKCS #11</text><path d="M822,1044.6719 C822,1034.6719 840,1034.6719 840,1034.6719 C840,1034.6719 858,1034.6719 858,1044.6719 L858,1070.6719 C858,1080.6719 840,1080.6719 840,1080.6719 C840,1080.6719 822,1080.6719 822,1070.6719 L822,1044.6719 " fill="#FEFECE" filter="url(#fbob2oz)" style="stroke: #000000; stroke-width: 1.5;"/><path d="M822,1044.6719 C822,1054.6719 840,1054.6719 840,1054.6719 C840,1054.6719 858,1054.6719 858,1044.6719 " fill="none" style="stroke: #000000; stroke-width: 1.5;"/><text fill="#000000" font-family="sans-serif" font-size="14" lengthAdjust="spacingAndGlyphs" textLength="29" x="886.5" y="83.5352">KDC</text><path d="M886,34 C886,24 904,24 904,24 C904,24 922,24 922,34 L922,60 C922,70 904,70 904,70 C904,70 886,70 886,60 L886,34 " fill="#FEFECE" filter="url(#fbob2oz)" style="stroke: #000000; stroke-width: 1.5;"/><path d="M886,34 C886,44 904,44 904,44 C904,44 922,44 922,34 " fill="none" style="stroke: #000000; stroke-width: 1.5;"/><text fill="#000000" font-family="sans-serif" font-size="14" lengthAdjust="spacingAndGlyphs" textLength="29" x="886.5" y="1031.7188">KDC</text><path d="M886,1044.6719 C886,1034.6719 904,1034.6719 904,1034.6719 C904,1034.6719 922,1034.6719 922,1044.6719 L922,1070.6719 C922,1080.6719 904,1080.6719 904,1080.6719 C904,1080.6719 886,1080.6719 886,1070.6719 L886,1044.6719 " fill="#FEFECE" filter="url(#fbob2oz)" style="stroke: #000000; stroke-width: 1.5;"/><path d="M886,1044.6719 C886,1054.6719 904,1054.6719 904,1054.6719 C904,1054.6719 922,1054.6719 922,1044.6719 " fill="none" style="stroke: #000000; stroke-width: 1.5;"/><text fill="#000000" font-family="sans-serif" font-size="14" lengthAdjust="spacingAndGlyphs" textLength="35" x="932" y="83.5352">LDAP</text><path d="M934.5,34 C934.5,24 952.5,24 952.5,24 C952.5,24 970.5,24 970.5,34 L970.5,60 C970.5,70 952.5,70 952.5,70 C952.5,70 934.5,70 934.5,60 L934.5,34 " fill="#FEFECE" filter="url(#fbob2oz)" style="stroke: #000000; stroke-width: 1.5;"/><path d="M934.5,34 C934.5,44 952.5,44 952.5,44 C952.5,44 970.5,44 970.5,34 " fill="none" style="stroke: #000000; stroke-width: 1.5;"/><text fill="#000000" font-family="sans-serif" font-size="14" lengthAdjust="spacingAndGlyphs" textLength="35" x="932" y="1031.7188">LDAP</text><path d="M934.5,1044.6719 C934.5,1034.6719 952.5,1034.6719 952.5,1034.6719 C952.5,1034.6719 970.5,1034.6719 970.5,1044.6719 L970.5,1070.6719 C970.5,1080.6719 952.5,1080.6719 952.5,1080.6719 C952.5,1080.6719 934.5,1080.6719 934.5,1070.6719 L934.5,1044.6719 " fill="#FEFECE" filter="url(#fbob2oz)" style="stroke: #000000; stroke-width: 1.5;"/><path d="M934.5,1044.6719 C934.5,1054.6719 952.5,1054.6719 952.5,1054.6719 C952.5,1054.6719 970.5,1054.6719 970.5,1044.6719 " fill="none" style="stroke: #000000; stroke-width: 1.5;"/><text fill="#000000" font-family="sans-serif" font-size="14" lengthAdjust="spacingAndGlyphs" textLength="28" x="984" y="83.5352">DNS</text><path d="M983,34 C983,24 1001,24 1001,24 C1001,24 1019,24 1019,34 L1019,60 C1019,70 1001,70 1001,70 C1001,70 983,70 983,60 L983,34 " fill="#FEFECE" filter="url(#fbob2oz)" style="stroke: #000000; stroke-width: 1.5;"/><path d="M983,34 C983,44 1001,44 1001,44 C1001,44 1019,44 1019,34 " fill="none" style="stroke: #000000; stroke-width: 1.5;"/><text fill="#000000" font-family="sans-serif" font-size="14" lengthAdjust="spacingAndGlyphs" textLength="28" x="984" y="1031.7188">DNS</text><path d="M983,1044.6719 C983,1034.6719 1001,1034.6719 1001,1034.6719 C1001,1034.6719 1019,1034.6719 1019,1044.6719 L1019,1070.6719 C1019,1080.6719 1001,1080.6719 1001,1080.6719 C1001,1080.6719 983,1080.6719 983,1070.6719 L983,1044.6719 " fill="#FEFECE" filter="url(#fbob2oz)" style="stroke: #000000; stroke-width: 1.5;"/><path d="M983,1044.6719 C983,1054.6719 1001,1054.6719 1001,1054.6719 C1001,1054.6719 1019,1054.6719 1019,1044.6719 " fill="none" style="stroke: #000000; stroke-width: 1.5;"/><rect fill="#FFFFFF" filter="url(#fbob2oz)" height="360.416" style="stroke: #A80036; stroke-width: 1.0;" width="10" x="21.5" y="117.4883"/><rect fill="#FFFFFF" filter="url(#fbob2oz)" height="29.3105" style="stroke: #A80036; stroke-width: 1.0;" width="10" x="80" y="190.1094"/><rect fill="#FFFFFF" filter="url(#fbob2oz)" height="462.3477" style="stroke: #A80036; stroke-width: 1.0;" width="10" x="273" y="117.4883"/><rect fill="#FFFFFF" filter="url(#fbob2oz)" height="450.3477" style="stroke: #A80036; stroke-width: 1.0;" width="10" x="496" y="550.5254"/><rect fill="#FFFFFF" filter="url(#fbob2oz)" height="29.3105" style="stroke: #A80036; stroke-width: 1.0;" width="10" x="680" y="248.7305"/><rect fill="#FFFFFF" filter="url(#fbob2oz)" height="30" style="stroke: #A80036; stroke-width: 1.0;" width="10" x="680" y="970.873"/><rect fill="#FFFFFF" filter="url(#fbob2oz)" height="29.3105" style="stroke: #A80036; stroke-width: 1.0;" width="10" x="835" y="667.7676"/><rect fill="#FFFFFF" filter="url(#fbob2oz)" height="58.6211" style="stroke: #A80036; stroke-width: 1.0;" width="10" x="899" y="638.457"/><rect fill="#FFFFFF" filter="url(#fbob2oz)" height="97.9316" style="stroke: #A80036; stroke-width: 1.0;" width="10" x="947.5" y="350.6621"/><rect fill="#FFFFFF" filter="url(#fbob2oz)" height="215.1738" style="stroke: #A80036; stroke-width: 1.0;" width="10" x="947.5" y="726.3887"/><rect fill="#FFFFFF" filter="url(#fbob2oz)" height="34.3105" style="stroke: #A80036; stroke-width: 1.0;" width="10" x="996" y="877.9414"/><polygon fill="#A80036" points="261,113.4883,271,117.4883,261,121.4883,265,117.4883" style="stroke: #A80036; stroke-width: 1.0;"/><line style="stroke: #A80036; stroke-width: 1.0;" x1="31.5" x2="267" y1="117.4883" y2="117.4883"/><text fill="#000000" font-family="sans-serif" font-size="13" font-weight="bold" lengthAdjust="spacingAndGlyphs" textLength="9" x="38.5" y="113.0566">1</text><text fill="#000000" font-family="sans-serif" font-size="13" lengthAdjust="spacingAndGlyphs" textLength="162" x="51.5" y="113.0566">Group Del group@domain</text><rect fill="#EEEEEE" filter="url(#fbob2oz)" height="3" style="stroke: #EEEEEE; stroke-width: 1.0;" width="1021" x="3" y="146.4541"/><line style="stroke: #000000; stroke-width: 1.0;" x1="3" x2="1024" y1="146.4541" y2="146.4541"/><line style="stroke: #000000; stroke-width: 1.0;" x1="3" x2="1024" y1="149.4541" y2="149.4541"/><rect fill="#EEEEEE" filter="url(#fbob2oz)" height="23.3105" style="stroke: #000000; stroke-width: 2.0;" width="117" x="455" y="135.7988"/><text fill="#000000" font-family="sans-serif" font-size="13" font-weight="bold" lengthAdjust="spacingAndGlyphs" textLength="99" x="461" y="152.3672">Access Control</text><polygon fill="#A80036" points="101,186.1094,91,190.1094,101,194.1094,97,190.1094" style="stroke: #A80036; stroke-width: 1.0;"/><line style="stroke: #A80036; stroke-width: 1.0;" x1="95" x2="272" y1="190.1094" y2="190.1094"/><text fill="#000000" font-family="sans-serif" font-size="13" font-weight="bold" lengthAdjust="spacingAndGlyphs" textLength="9" x="107" y="185.6777">2</text><text fill="#000000" font-family="sans-serif" font-size="13" lengthAdjust="spacingAndGlyphs" textLength="136" x="120" y="185.6777">SecureLayer @domain</text><polygon fill="#A80036" points="261,215.4199,271,219.4199,261,223.4199,265,219.4199" style="stroke: #A80036; stroke-width: 1.0;"/><line style="stroke: #A80036; stroke-width: 1.0;" x1="85" x2="267" y1="219.4199" y2="219.4199"/><text fill="#000000" font-family="sans-serif" font-size="13" font-weight="bold" lengthAdjust="spacingAndGlyphs" textLength="9" x="92" y="214.9883">3</text><text fill="#000000" font-family="sans-serif" font-size="13" lengthAdjust="spacingAndGlyphs" textLength="146" x="105" y="214.9883">RemoteID you@domain</text><polygon fill="#A80036" points="668,244.7305,678,248.7305,668,252.7305,672,248.7305" style="stroke: #A80036; stroke-width: 1.0;"/><line style="stroke: #A80036; stroke-width: 1.0;" x1="283" x2="674" y1="248.7305" y2="248.7305"/><text fill="#000000" font-family="sans-serif" font-size="13" font-weight="bold" lengthAdjust="spacingAndGlyphs" textLength="9" x="290" y="244.2988">4</text><text fill="#000000" font-family="sans-serif" font-size="13" lengthAdjust="spacingAndGlyphs" textLength="365" x="303" y="244.2988">WANT groupid-delete ON group@domain AS you@domain</text><polygon fill="#A80036" points="294,274.041,284,278.041,294,282.041,290,278.041" style="stroke: #A80036; stroke-width: 1.0;"/><line style="stroke: #A80036; stroke-width: 1.0;" x1="288" x2="684" y1="278.041" y2="278.041"/><text fill="#000000" font-family="sans-serif" font-size="13" font-weight="bold" lengthAdjust="spacingAndGlyphs" textLength="9" x="300" y="273.6094">5</text><text fill="#000000" font-family="sans-serif" font-size="13" lengthAdjust="spacingAndGlyphs" textLength="148" x="313" y="273.6094">OK FOR admin@domain</text><rect fill="#EEEEEE" filter="url(#fbob2oz)" height="3" style="stroke: #EEEEEE; stroke-width: 1.0;" width="1021" x="3" y="307.0068"/><line style="stroke: #000000; stroke-width: 1.0;" x1="3" x2="1024" y1="307.0068" y2="307.0068"/><line style="stroke: #000000; stroke-width: 1.0;" x1="3" x2="1024" y1="310.0068" y2="310.0068"/><rect fill="#EEEEEE" filter="url(#fbob2oz)" height="23.3105" style="stroke: #000000; stroke-width: 2.0;" width="104" x="461.5" y="296.3516"/><text fill="#000000" font-family="sans-serif" font-size="13" font-weight="bold" lengthAdjust="spacingAndGlyphs" textLength="86" x="467.5" y="312.9199">Sanity Check</text><polygon fill="#A80036" points="935.5,346.6621,945.5,350.6621,935.5,354.6621,939.5,350.6621" style="stroke: #A80036; stroke-width: 1.0;"/><line style="stroke: #A80036; stroke-width: 1.0;" x1="283" x2="941.5" y1="350.6621" y2="350.6621"/><text fill="#000000" font-family="sans-serif" font-size="13" font-weight="bold" lengthAdjust="spacingAndGlyphs" textLength="9" x="290" y="346.2305">6</text><text fill="#000000" font-family="sans-serif" font-size="13" lengthAdjust="spacingAndGlyphs" textLength="276" x="303" y="346.2305">Compare group@domain AS admin@domain</text><polygon fill="#0000FF" points="294,380.9727,284,384.9727,294,388.9727,290,384.9727" style="stroke: #0000FF; stroke-width: 1.0;"/><line style="stroke: #0000FF; stroke-width: 1.0; stroke-dasharray: 2.0,2.0;" x1="288" x2="946.5" y1="384.9727" y2="384.9727"/><text fill="#000000" font-family="sans-serif" font-size="13" font-weight="bold" lengthAdjust="spacingAndGlyphs" textLength="9" x="300" y="380.541">7</text><text fill="#000000" font-family="sans-serif" font-size="13" lengthAdjust="spacingAndGlyphs" textLength="112" x="313" y="380.541">UserID Not Found</text><polygon fill="#FBFB77" filter="url(#fbob2oz)" points="74,363.9727,74,388.9727,264,388.9727,264,373.9727,254,363.9727,74,363.9727" style="stroke: #A80036; stroke-width: 1.0;"/><line style="stroke: #A80036; stroke-width: 1.0;" x1="254" x2="254" y1="363.9727" y2="373.9727"/><line style="stroke: #A80036; stroke-width: 1.0;" x1="264" x2="254" y1="373.9727" y2="373.9727"/><text fill="#0000FF" font-family="sans-serif" font-size="13" lengthAdjust="spacingAndGlyphs" textLength="169" x="80" y="381.541">Alternative flow, fatal error</text><polygon fill="#0000FF" points="42.5,415.2832,32.5,419.2832,42.5,423.2832,38.5,419.2832" style="stroke: #0000FF; stroke-width: 1.0;"/><line style="stroke: #0000FF; stroke-width: 1.0; stroke-dasharray: 2.0,2.0;" x1="36.5" x2="272" y1="419.2832" y2="419.2832"/><text fill="#000000" font-family="sans-serif" font-size="13" font-weight="bold" lengthAdjust="spacingAndGlyphs" textLength="9" x="48.5" y="414.8516">8</text><text fill="#000000" font-family="sans-serif" font-size="13" lengthAdjust="spacingAndGlyphs" textLength="66" x="61.5" y="414.8516">Not Found</text><polygon fill="#A80036" points="294,444.5938,284,448.5938,294,452.5938,290,448.5938" style="stroke: #A80036; stroke-width: 1.0;"/><line style="stroke: #A80036; stroke-width: 1.0;" x1="288" x2="951.5" y1="448.5938" y2="448.5938"/><text fill="#000000" font-family="sans-serif" font-size="13" font-weight="bold" lengthAdjust="spacingAndGlyphs" textLength="9" x="300" y="444.1621">9</text><text fill="#000000" font-family="sans-serif" font-size="13" lengthAdjust="spacingAndGlyphs" textLength="85" x="313" y="444.1621">UserID Found</text><polygon fill="#A80036" points="37.5,473.9043,27.5,477.9043,37.5,481.9043,33.5,477.9043" style="stroke: #A80036; stroke-width: 1.0;"/><line style="stroke: #A80036; stroke-width: 1.0;" x1="31.5" x2="272" y1="477.9043" y2="477.9043"/><text fill="#000000" font-family="sans-serif" font-size="13" font-weight="bold" lengthAdjust="spacingAndGlyphs" textLength="18" x="43.5" y="473.4727">10</text><text fill="#000000" font-family="sans-serif" font-size="13" lengthAdjust="spacingAndGlyphs" textLength="48" x="65.5" y="473.4727">Queued</text><rect fill="#EEEEEE" filter="url(#fbob2oz)" height="3" style="stroke: #EEEEEE; stroke-width: 1.0;" width="1021" x="3" y="506.8701"/><line style="stroke: #000000; stroke-width: 1.0;" x1="3" x2="1024" y1="506.8701" y2="506.8701"/><line style="stroke: #000000; stroke-width: 1.0;" x1="3" x2="1024" y1="509.8701" y2="509.8701"/><rect fill="#EEEEEE" filter="url(#fbob2oz)" height="23.3105" style="stroke: #000000; stroke-width: 2.0;" width="136" x="445.5" y="496.2148"/><text fill="#000000" font-family="sans-serif" font-size="13" font-weight="bold" lengthAdjust="spacingAndGlyphs" textLength="118" x="451.5" y="512.7832">Key Management</text><polygon fill="#A80036" points="484,546.5254,494,550.5254,484,554.5254,488,550.5254" style="stroke: #A80036; stroke-width: 1.0;"/><line style="stroke: #A80036; stroke-width: 1.0;" x1="283" x2="490" y1="550.5254" y2="550.5254"/><text fill="#000000" font-family="sans-serif" font-size="13" font-weight="bold" lengthAdjust="spacingAndGlyphs" textLength="18" x="290" y="546.0938">11</text><text fill="#000000" font-family="sans-serif" font-size="13" lengthAdjust="spacingAndGlyphs" textLength="172" x="312" y="546.0938">Drop Group group@domain</text><polygon fill="#A80036" points="289,575.8359,279,579.8359,289,583.8359,285,579.8359" style="stroke: #A80036; stroke-width: 1.0;"/><line style="stroke: #A80036; stroke-width: 1.0;" x1="283" x2="495" y1="579.8359" y2="579.8359"/><text fill="#000000" font-family="sans-serif" font-size="13" font-weight="bold" lengthAdjust="spacingAndGlyphs" textLength="18" x="295" y="575.4043">12</text><text fill="#000000" font-family="sans-serif" font-size="13" lengthAdjust="spacingAndGlyphs" textLength="48" x="317" y="575.4043">Queued</text><polygon fill="#A80036" points="892,605.1465,902,609.1465,892,613.1465,896,609.1465" style="stroke: #A80036; stroke-width: 1.0;"/><line style="stroke: #A80036; stroke-width: 1.0;" x1="506" x2="898" y1="609.1465" y2="609.1465"/><text fill="#000000" font-family="sans-serif" font-size="13" font-weight="bold" lengthAdjust="spacingAndGlyphs" textLength="18" x="513" y="604.7148">13</text><text fill="#000000" font-family="sans-serif" font-size="13" lengthAdjust="spacingAndGlyphs" textLength="188" x="535" y="604.7148">Drop Principal group@domain</text><polygon fill="#A80036" points="887,634.457,897,638.457,887,642.457,891,638.457" style="stroke: #A80036; stroke-width: 1.0;"/><line style="stroke: #A80036; stroke-width: 1.0;" x1="506" x2="893" y1="638.457" y2="638.457"/><text fill="#000000" font-family="sans-serif" font-size="13" font-weight="bold" lengthAdjust="spacingAndGlyphs" textLength="18" x="513" y="634.0254">14</text><text fill="#000000" font-family="sans-serif" font-size="13" lengthAdjust="spacingAndGlyphs" textLength="217" x="535" y="634.0254">Drop Principals group+...@domain</text><polygon fill="#A80036" points="823,663.7676,833,667.7676,823,671.7676,827,667.7676" style="stroke: #A80036; stroke-width: 1.0;"/><line style="stroke: #A80036; stroke-width: 1.0;" x1="506" x2="829" y1="667.7676" y2="667.7676"/><text fill="#000000" font-family="sans-serif" font-size="13" font-weight="bold" lengthAdjust="spacingAndGlyphs" textLength="18" x="513" y="663.3359">15</text><text fill="#000000" font-family="sans-serif" font-size="13" lengthAdjust="spacingAndGlyphs" textLength="288" x="535" y="663.3359">Drop Layer group@domain AS admin@domain</text><polygon fill="#A80036" points="517,693.0781,507,697.0781,517,701.0781,513,697.0781" style="stroke: #A80036; stroke-width: 1.0;"/><line style="stroke: #A80036; stroke-width: 1.0;" x1="511" x2="903" y1="697.0781" y2="697.0781"/><text fill="#000000" font-family="sans-serif" font-size="13" font-weight="bold" lengthAdjust="spacingAndGlyphs" textLength="18" x="523" y="692.6465">16</text><text fill="#000000" font-family="sans-serif" font-size="13" lengthAdjust="spacingAndGlyphs" textLength="18" x="545" y="692.6465">OK</text><polygon fill="#A80036" points="935.5,722.3887,945.5,726.3887,935.5,730.3887,939.5,726.3887" style="stroke: #A80036; stroke-width: 1.0;"/><line style="stroke: #A80036; stroke-width: 1.0;" x1="506" x2="941.5" y1="726.3887" y2="726.3887"/><text fill="#000000" font-family="sans-serif" font-size="13" font-weight="bold" lengthAdjust="spacingAndGlyphs" textLength="18" x="513" y="721.957">17</text><text fill="#000000" font-family="sans-serif" font-size="13" lengthAdjust="spacingAndGlyphs" textLength="313" x="535" y="721.957">Drop Creds for group@domain AS admin@domain</text><polygon fill="#A80036" points="935.5,751.6992,945.5,755.6992,935.5,759.6992,939.5,755.6992" style="stroke: #A80036; stroke-width: 1.0;"/><line style="stroke: #A80036; stroke-width: 1.0;" x1="506" x2="941.5" y1="755.6992" y2="755.6992"/><text fill="#000000" font-family="sans-serif" font-size="13" font-weight="bold" lengthAdjust="spacingAndGlyphs" textLength="18" x="513" y="751.2676">18</text><text fill="#000000" font-family="sans-serif" font-size="13" lengthAdjust="spacingAndGlyphs" textLength="335" x="535" y="751.2676">Drop Creds for group+...@domain AS admin@domain</text><polygon fill="#A80036" points="935.5,781.0098,945.5,785.0098,935.5,789.0098,939.5,785.0098" style="stroke: #A80036; stroke-width: 1.0;"/><line style="stroke: #A80036; stroke-width: 1.0;" x1="506" x2="941.5" y1="785.0098" y2="785.0098"/><text fill="#000000" font-family="sans-serif" font-size="13" font-weight="bold" lengthAdjust="spacingAndGlyphs" textLength="18" x="513" y="780.5781">19</text><text fill="#000000" font-family="sans-serif" font-size="13" lengthAdjust="spacingAndGlyphs" textLength="259" x="535" y="780.5781">Drop pkcs11:xxx;y;zz AS admin@domain</text><polygon fill="#A80036" points="935.5,810.3203,945.5,814.3203,935.5,818.3203,939.5,814.3203" style="stroke: #A80036; stroke-width: 1.0;"/><line style="stroke: #A80036; stroke-width: 1.0;" x1="506" x2="941.5" y1="814.3203" y2="814.3203"/><text fill="#000000" font-family="sans-serif" font-size="13" font-weight="bold" lengthAdjust="spacingAndGlyphs" textLength="18" x="513" y="809.8887">20</text><text fill="#000000" font-family="sans-serif" font-size="13" lengthAdjust="spacingAndGlyphs" textLength="251" x="535" y="809.8887">Drop group@domain AS admin@domain</text><polygon fill="#A80036" points="935.5,839.6309,945.5,843.6309,935.5,847.6309,939.5,843.6309" style="stroke: #A80036; stroke-width: 1.0;"/><line style="stroke: #A80036; stroke-width: 1.0;" x1="506" x2="941.5" y1="843.6309" y2="843.6309"/><text fill="#000000" font-family="sans-serif" font-size="13" font-weight="bold" lengthAdjust="spacingAndGlyphs" textLength="18" x="513" y="839.1992">21</text><text fill="#000000" font-family="sans-serif" font-size="13" lengthAdjust="spacingAndGlyphs" textLength="273" x="535" y="839.1992">Drop group+...@domain AS admin@domain</text><polygon fill="#0000FF" points="984,873.9414,994,877.9414,984,881.9414,988,877.9414" style="stroke: #0000FF; stroke-width: 1.0;"/><line style="stroke: #0000FF; stroke-width: 1.0; stroke-dasharray: 2.0,2.0;" x1="506" x2="990" y1="877.9414" y2="877.9414"/><text fill="#000000" font-family="sans-serif" font-size="13" font-weight="bold" lengthAdjust="spacingAndGlyphs" textLength="18" x="513" y="873.5098">22</text><text fill="#000000" font-family="sans-serif" font-size="13" lengthAdjust="spacingAndGlyphs" textLength="238" x="535" y="873.5098">Drop TLSA records AS admin@domain</text><polygon fill="#FBFB77" filter="url(#fbob2oz)" points="343,856.9414,343,881.9414,487,881.9414,487,866.9414,477,856.9414,343,856.9414" style="stroke: #A80036; stroke-width: 1.0;"/><line style="stroke: #A80036; stroke-width: 1.0;" x1="477" x2="477" y1="856.9414" y2="866.9414"/><line style="stroke: #A80036; stroke-width: 1.0;" x1="487" x2="477" y1="866.9414" y2="866.9414"/><text fill="#0000FF" font-family="sans-serif" font-size="13" lengthAdjust="spacingAndGlyphs" textLength="123" x="349" y="874.5098">TLSA only for hosts</text><polygon fill="#0000FF" points="517,908.252,507,912.252,517,916.252,513,912.252" style="stroke: #0000FF; stroke-width: 1.0;"/><line style="stroke: #0000FF; stroke-width: 1.0; stroke-dasharray: 2.0,2.0;" x1="511" x2="1000" y1="912.252" y2="912.252"/><text fill="#000000" font-family="sans-serif" font-size="13" font-weight="bold" lengthAdjust="spacingAndGlyphs" textLength="18" x="523" y="907.8203">23</text><text fill="#000000" font-family="sans-serif" font-size="13" lengthAdjust="spacingAndGlyphs" textLength="48" x="545" y="907.8203">Queued</text><polygon fill="#A80036" points="517,937.5625,507,941.5625,517,945.5625,513,941.5625" style="stroke: #A80036; stroke-width: 1.0;"/><line style="stroke: #A80036; stroke-width: 1.0;" x1="511" x2="951.5" y1="941.5625" y2="941.5625"/><text fill="#000000" font-family="sans-serif" font-size="13" font-weight="bold" lengthAdjust="spacingAndGlyphs" textLength="18" x="523" y="937.1309">24</text><text fill="#000000" font-family="sans-serif" font-size="13" lengthAdjust="spacingAndGlyphs" textLength="37" x="545" y="937.1309">Ready</text><polygon fill="#A80036" points="668,966.873,678,970.873,668,974.873,672,970.873" style="stroke: #A80036; stroke-width: 1.0;"/><line style="stroke: #A80036; stroke-width: 1.0;" x1="506" x2="674" y1="970.873" y2="970.873"/><text fill="#000000" font-family="sans-serif" font-size="13" font-weight="bold" lengthAdjust="spacingAndGlyphs" textLength="18" x="513" y="966.4414">25</text><text fill="#000000" font-family="sans-serif" font-size="13" lengthAdjust="spacingAndGlyphs" textLength="74" x="535" y="966.4414">Cache hints</text></g></svg>