<?xml version="1.0" encoding="UTF-8" standalone="no"?><svg xmlns="http://www.w3.org/2000/svg" xmlns:xlink="http://www.w3.org/1999/xlink" contentScriptType="application/ecmascript" contentStyleType="text/css" height="996px" preserveAspectRatio="none" style="width:1040px;height:996px;" version="1.1" viewBox="0 0 1040 996" width="1040px" zoomAndPan="magnify"><defs><filter height="300%" id="f0g67lc" width="300%" x="-1" y="-1"><feGaussianBlur result="blurOut" stdDeviation="2.0"/><feColorMatrix in="blurOut" result="blurOut2" type="matrix" values="0 0 0 0 0 0 0 0 0 0 0 0 0 0 0 0 0 0 .4 0"/><feOffset dx="4.0" dy="4.0" in="blurOut2" result="blurOut3"/><feBlend in="SourceGraphic" in2="blurOut3" mode="normal"/></filter></defs><g><rect fill="#FFFFFF" filter="url(#f0g67lc)" height="58.6211" style="stroke: #A80036; stroke-width: 1.0;" width="10" x="80" y="117.4883"/><rect fill="#FFFFFF" filter="url(#f0g67lc)" height="284.7949" style="stroke: #A80036; stroke-width: 1.0;" width="10" x="273" y="96.4883"/><rect fill="#FFFFFF" filter="url(#f0g67lc)" height="511.9688" style="stroke: #A80036; stroke-width: 1.0;" width="10" x="496" y="381.2832"/><rect fill="#FFFFFF" filter="url(#f0g67lc)" height="28" style="stroke: #A80036; stroke-width: 1.0;" width="10" x="501" y="682.3887"/><rect fill="#FFFFFF" filter="url(#f0g67lc)" height="58.6211" style="stroke: #A80036; stroke-width: 1.0;" width="10" x="735" y="176.1094"/><rect fill="#FFFFFF" filter="url(#f0g67lc)" height="175.8633" style="stroke: #A80036; stroke-width: 1.0;" width="10" x="849" y="469.2148"/><rect fill="#FFFFFF" filter="url(#f0g67lc)" height="87.9316" style="stroke: #A80036; stroke-width: 1.0;" width="10" x="913" y="439.9043"/><rect fill="#FFFFFF" filter="url(#f0g67lc)" height="117.2422" style="stroke: #A80036; stroke-width: 1.0;" width="10" x="961.5" y="234.7305"/><rect fill="#FFFFFF" filter="url(#f0g67lc)" height="210.8633" style="stroke: #A80036; stroke-width: 1.0;" width="10" x="961.5" y="682.3887"/><rect fill="#FFFFFF" filter="url(#f0g67lc)" height="58.6211" style="stroke: #A80036; stroke-width: 1.0;" width="10" x="1010" y="805.3203"/><line style="stroke: #A80036; stroke-width: 1.0; stroke-dasharray: 5.0,5.0;" x1="26" x2="26" y1="86.4883" y2="911.5625"/><line style="stroke: #A80036; stroke-width: 1.0; stroke-dasharray: 5.0,5.0;" x1="85" x2="85" y1="86.4883" y2="911.5625"/><line style="stroke: #A80036; stroke-width: 1.0; stroke-dasharray: 5.0,5.0;" x1="277.5" x2="277.5" y1="86.4883" y2="911.5625"/><line style="stroke: #A80036; stroke-width: 1.0; stroke-dasharray: 5.0,5.0;" x1="501" x2="501" y1="86.4883" y2="911.5625"/><line style="stroke: #A80036; stroke-width: 1.0; stroke-dasharray: 5.0,5.0;" x1="739.5" x2="739.5" y1="86.4883" y2="911.5625"/><line style="stroke: #A80036; stroke-width: 1.0; stroke-dasharray: 5.0,5.0;" x1="854" x2="854" y1="86.4883" y2="911.5625"/><line style="stroke: #A80036; stroke-width: 1.0; stroke-dasharray: 5.0,5.0;" x1="918" x2="918" y1="86.4883" y2="911.5625"/><line style="stroke: #A80036; stroke-width: 1.0; stroke-dasharray: 5.0,5.0;" x1="966" x2="966" y1="86.4883" y2="911.5625"/><line style="stroke: #A80036; stroke-width: 1.0; stroke-dasharray: 5.0,5.0;" x1="1015" x2="1015" y1="86.4883" y2="911.5625"/><text fill="#000000" font-family="sans-serif" font-size="14" lengthAdjust="spacingAndGlyphs" textLength="31" x="8" y="83.5352">User</text><ellipse cx="26.5" cy="13" fill="#FEFECE" filter="url(#f0g67lc)" rx="8" ry="8" style="stroke: #A80036; stroke-width: 2.0;"/><path d="M26.5,21 L26.5,48 M13.5,29 L39.5,29 M26.5,48 L13.5,63 M26.5,48 L39.5,63 " fill="#FEFECE" filter="url(#f0g67lc)" style="stroke: #A80036; stroke-width: 2.0;"/><text fill="#000000" font-family="sans-serif" font-size="14" lengthAdjust="spacingAndGlyphs" textLength="31" x="8" y="924.0977">User</text><ellipse cx="26.5" cy="937.0508" fill="#FEFECE" filter="url(#f0g67lc)" rx="8" ry="8" style="stroke: #A80036; stroke-width: 2.0;"/><path d="M26.5,945.0508 L26.5,972.0508 M13.5,953.0508 L39.5,953.0508 M26.5,972.0508 L13.5,987.0508 M26.5,972.0508 L39.5,987.0508 " fill="#FEFECE" filter="url(#f0g67lc)" style="stroke: #A80036; stroke-width: 2.0;"/><rect fill="#FEFECE" filter="url(#f0g67lc)" height="30.4883" style="stroke: #A80036; stroke-width: 1.5;" width="56" x="55" y="51"/><text fill="#000000" font-family="sans-serif" font-size="14" lengthAdjust="spacingAndGlyphs" textLength="42" x="62" y="71.5352">Authn</text><rect fill="#FEFECE" filter="url(#f0g67lc)" height="30.4883" style="stroke: #A80036; stroke-width: 1.5;" width="56" x="55" y="910.5625"/><text fill="#000000" font-family="sans-serif" font-size="14" lengthAdjust="spacingAndGlyphs" textLength="42" x="62" y="931.0977">Authn</text><rect fill="#FEFECE" filter="url(#f0g67lc)" height="30.4883" style="stroke: #A80036; stroke-width: 1.5;" width="111" x="220.5" y="51"/><text fill="#000000" font-family="sans-serif" font-size="14" lengthAdjust="spacingAndGlyphs" textLength="97" x="227.5" y="71.5352">IdHub Control</text><rect fill="#FEFECE" filter="url(#f0g67lc)" height="30.4883" style="stroke: #A80036; stroke-width: 1.5;" width="111" x="220.5" y="910.5625"/><text fill="#000000" font-family="sans-serif" font-size="14" lengthAdjust="spacingAndGlyphs" textLength="97" x="227.5" y="931.0977">IdHub Control</text><rect fill="#FEFECE" filter="url(#f0g67lc)" height="30.4883" style="stroke: #A80036; stroke-width: 1.5;" width="102" x="448" y="51"/><text fill="#000000" font-family="sans-serif" font-size="14" lengthAdjust="spacingAndGlyphs" textLength="88" x="455" y="71.5352">Key Manager</text><rect fill="#FEFECE" filter="url(#f0g67lc)" height="30.4883" style="stroke: #A80036; stroke-width: 1.5;" width="102" x="448" y="910.5625"/><text fill="#000000" font-family="sans-serif" font-size="14" lengthAdjust="spacingAndGlyphs" textLength="88" x="455" y="931.0977">Key Manager</text><rect fill="#FEFECE" filter="url(#f0g67lc)" height="30.4883" style="stroke: #A80036; stroke-width: 1.5;" width="55" x="710.5" y="51"/><text fill="#000000" font-family="sans-serif" font-size="14" lengthAdjust="spacingAndGlyphs" textLength="41" x="717.5" y="71.5352">Authz</text><rect fill="#FEFECE" filter="url(#f0g67lc)" height="30.4883" style="stroke: #A80036; stroke-width: 1.5;" width="55" x="710.5" y="910.5625"/><text fill="#000000" font-family="sans-serif" font-size="14" lengthAdjust="spacingAndGlyphs" textLength="41" x="717.5" y="931.0977">Authz</text><text fill="#000000" font-family="sans-serif" font-size="14" lengthAdjust="spacingAndGlyphs" textLength="66" x="818" y="83.5352">PKCS #11</text><path d="M836,34 C836,24 854,24 854,24 C854,24 872,24 872,34 L872,60 C872,70 854,70 854,70 C854,70 836,70 836,60 L836,34 " fill="#FEFECE" filter="url(#f0g67lc)" style="stroke: #000000; stroke-width: 1.5;"/><path d="M836,34 C836,44 854,44 854,44 C854,44 872,44 872,34 " fill="none" style="stroke: #000000; stroke-width: 1.5;"/><text fill="#000000" font-family="sans-serif" font-size="14" lengthAdjust="spacingAndGlyphs" textLength="66" x="818" y="924.0977">PKCS #11</text><path d="M836,937.0508 C836,927.0508 854,927.0508 854,927.0508 C854,927.0508 872,927.0508 872,937.0508 L872,963.0508 C872,973.0508 854,973.0508 854,973.0508 C854,973.0508 836,973.0508 836,963.0508 L836,937.0508 " fill="#FEFECE" filter="url(#f0g67lc)" style="stroke: #000000; stroke-width: 1.5;"/><path d="M836,937.0508 C836,947.0508 854,947.0508 854,947.0508 C854,947.0508 872,947.0508 872,937.0508 " fill="none" style="stroke: #000000; stroke-width: 1.5;"/><text fill="#000000" font-family="sans-serif" font-size="14" lengthAdjust="spacingAndGlyphs" textLength="29" x="900.5" y="83.5352">KDC</text><path d="M900,34 C900,24 918,24 918,24 C918,24 936,24 936,34 L936,60 C936,70 918,70 918,70 C918,70 900,70 900,60 L900,34 " fill="#FEFECE" filter="url(#f0g67lc)" style="stroke: #000000; stroke-width: 1.5;"/><path d="M900,34 C900,44 918,44 918,44 C918,44 936,44 936,34 " fill="none" style="stroke: #000000; stroke-width: 1.5;"/><text fill="#000000" font-family="sans-serif" font-size="14" lengthAdjust="spacingAndGlyphs" textLength="29" x="900.5" y="924.0977">KDC</text><path d="M900,937.0508 C900,927.0508 918,927.0508 918,927.0508 C918,927.0508 936,927.0508 936,937.0508 L936,963.0508 C936,973.0508 918,973.0508 918,973.0508 C918,973.0508 900,973.0508 900,963.0508 L900,937.0508 " fill="#FEFECE" filter="url(#f0g67lc)" style="stroke: #000000; stroke-width: 1.5;"/><path d="M900,937.0508 C900,947.0508 918,947.0508 918,947.0508 C918,947.0508 936,947.0508 936,937.0508 " fill="none" style="stroke: #000000; stroke-width: 1.5;"/><text fill="#000000" font-family="sans-serif" font-size="14" lengthAdjust="spacingAndGlyphs" textLength="35" x="946" y="83.5352">LDAP</text><path d="M948.5,34 C948.5,24 966.5,24 966.5,24 C966.5,24 984.5,24 984.5,34 L984.5,60 C984.5,70 966.5,70 966.5,70 C966.5,70 948.5,70 948.5,60 L948.5,34 " fill="#FEFECE" filter="url(#f0g67lc)" style="stroke: #000000; stroke-width: 1.5;"/><path d="M948.5,34 C948.5,44 966.5,44 966.5,44 C966.5,44 984.5,44 984.5,34 " fill="none" style="stroke: #000000; stroke-width: 1.5;"/><text fill="#000000" font-family="sans-serif" font-size="14" lengthAdjust="spacingAndGlyphs" textLength="35" x="946" y="924.0977">LDAP</text><path d="M948.5,937.0508 C948.5,927.0508 966.5,927.0508 966.5,927.0508 C966.5,927.0508 984.5,927.0508 984.5,937.0508 L984.5,963.0508 C984.5,973.0508 966.5,973.0508 966.5,973.0508 C966.5,973.0508 948.5,973.0508 948.5,963.0508 L948.5,937.0508 " fill="#FEFECE" filter="url(#f0g67lc)" style="stroke: #000000; stroke-width: 1.5;"/><path d="M948.5,937.0508 C948.5,947.0508 966.5,947.0508 966.5,947.0508 C966.5,947.0508 984.5,947.0508 984.5,937.0508 " fill="none" style="stroke: #000000; stroke-width: 1.5;"/><text fill="#000000" font-family="sans-serif" font-size="14" lengthAdjust="spacingAndGlyphs" textLength="28" x="998" y="83.5352">DNS</text><path d="M997,34 C997,24 1015,24 1015,24 C1015,24 1033,24 1033,34 L1033,60 C1033,70 1015,70 1015,70 C1015,70 997,70 997,60 L997,34 " fill="#FEFECE" filter="url(#f0g67lc)" style="stroke: #000000; stroke-width: 1.5;"/><path d="M997,34 C997,44 1015,44 1015,44 C1015,44 1033,44 1033,34 " fill="none" style="stroke: #000000; stroke-width: 1.5;"/><text fill="#000000" font-family="sans-serif" font-size="14" lengthAdjust="spacingAndGlyphs" textLength="28" x="998" y="924.0977">DNS</text><path d="M997,937.0508 C997,927.0508 1015,927.0508 1015,927.0508 C1015,927.0508 1033,927.0508 1033,937.0508 L1033,963.0508 C1033,973.0508 1015,973.0508 1015,973.0508 C1015,973.0508 997,973.0508 997,963.0508 L997,937.0508 " fill="#FEFECE" filter="url(#f0g67lc)" style="stroke: #000000; stroke-width: 1.5;"/><path d="M997,937.0508 C997,947.0508 1015,947.0508 1015,947.0508 C1015,947.0508 1033,947.0508 1033,937.0508 " fill="none" style="stroke: #000000; stroke-width: 1.5;"/><rect fill="#FFFFFF" filter="url(#f0g67lc)" height="58.6211" style="stroke: #A80036; stroke-width: 1.0;" width="10" x="80" y="117.4883"/><rect fill="#FFFFFF" filter="url(#f0g67lc)" height="284.7949" style="stroke: #A80036; stroke-width: 1.0;" width="10" x="273" y="96.4883"/><rect fill="#FFFFFF" filter="url(#f0g67lc)" height="511.9688" style="stroke: #A80036; stroke-width: 1.0;" width="10" x="496" y="381.2832"/><rect fill="#FFFFFF" filter="url(#f0g67lc)" height="28" style="stroke: #A80036; stroke-width: 1.0;" width="10" x="501" y="682.3887"/><rect fill="#FFFFFF" filter="url(#f0g67lc)" height="58.6211" style="stroke: #A80036; stroke-width: 1.0;" width="10" x="735" y="176.1094"/><rect fill="#FFFFFF" filter="url(#f0g67lc)" height="175.8633" style="stroke: #A80036; stroke-width: 1.0;" width="10" x="849" y="469.2148"/><rect fill="#FFFFFF" filter="url(#f0g67lc)" height="87.9316" style="stroke: #A80036; stroke-width: 1.0;" width="10" x="913" y="439.9043"/><rect fill="#FFFFFF" filter="url(#f0g67lc)" height="117.2422" style="stroke: #A80036; stroke-width: 1.0;" width="10" x="961.5" y="234.7305"/><rect fill="#FFFFFF" filter="url(#f0g67lc)" height="210.8633" style="stroke: #A80036; stroke-width: 1.0;" width="10" x="961.5" y="682.3887"/><rect fill="#FFFFFF" filter="url(#f0g67lc)" height="58.6211" style="stroke: #A80036; stroke-width: 1.0;" width="10" x="1010" y="805.3203"/><polygon fill="#A80036" points="261,113.4883,271,117.4883,261,121.4883,265,117.4883" style="stroke: #A80036; stroke-width: 1.0;"/><line style="stroke: #A80036; stroke-width: 1.0;" x1="26.5" x2="267" y1="117.4883" y2="117.4883"/><text fill="#000000" font-family="sans-serif" font-size="13" font-weight="bold" lengthAdjust="spacingAndGlyphs" textLength="9" x="33.5" y="113.0566">1</text><text fill="#000000" font-family="sans-serif" font-size="13" lengthAdjust="spacingAndGlyphs" textLength="166" x="46.5" y="113.0566">Group Add group@domain</text><polygon fill="#A80036" points="101,142.7988,91,146.7988,101,150.7988,97,146.7988" style="stroke: #A80036; stroke-width: 1.0;"/><line style="stroke: #A80036; stroke-width: 1.0;" x1="95" x2="272" y1="146.7988" y2="146.7988"/><text fill="#000000" font-family="sans-serif" font-size="13" font-weight="bold" lengthAdjust="spacingAndGlyphs" textLength="9" x="107" y="142.3672">2</text><text fill="#000000" font-family="sans-serif" font-size="13" lengthAdjust="spacingAndGlyphs" textLength="136" x="120" y="142.3672">SecureLayer @domain</text><polygon fill="#A80036" points="261,172.1094,271,176.1094,261,180.1094,265,176.1094" style="stroke: #A80036; stroke-width: 1.0;"/><line style="stroke: #A80036; stroke-width: 1.0;" x1="85" x2="267" y1="176.1094" y2="176.1094"/><text fill="#000000" font-family="sans-serif" font-size="13" font-weight="bold" lengthAdjust="spacingAndGlyphs" textLength="9" x="92" y="171.6777">3</text><text fill="#000000" font-family="sans-serif" font-size="13" lengthAdjust="spacingAndGlyphs" textLength="146" x="105" y="171.6777">RemoteID you@domain</text><polygon fill="#A80036" points="723,201.4199,733,205.4199,723,209.4199,727,205.4199" style="stroke: #A80036; stroke-width: 1.0;"/><line style="stroke: #A80036; stroke-width: 1.0;" x1="283" x2="729" y1="205.4199" y2="205.4199"/><text fill="#000000" font-family="sans-serif" font-size="13" font-weight="bold" lengthAdjust="spacingAndGlyphs" textLength="9" x="290" y="200.9883">4</text><text fill="#000000" font-family="sans-serif" font-size="13" lengthAdjust="spacingAndGlyphs" textLength="328" x="303" y="200.9883">WANT groupid-create ON @domain AS you@domain</text><polygon fill="#A80036" points="294,230.7305,284,234.7305,294,238.7305,290,234.7305" style="stroke: #A80036; stroke-width: 1.0;"/><line style="stroke: #A80036; stroke-width: 1.0;" x1="288" x2="739" y1="234.7305" y2="234.7305"/><text fill="#000000" font-family="sans-serif" font-size="13" font-weight="bold" lengthAdjust="spacingAndGlyphs" textLength="9" x="300" y="230.2988">5</text><text fill="#000000" font-family="sans-serif" font-size="13" lengthAdjust="spacingAndGlyphs" textLength="148" x="313" y="230.2988">OK FOR admin@domain</text><polygon fill="#A80036" points="949.5,260.041,959.5,264.041,949.5,268.041,953.5,264.041" style="stroke: #A80036; stroke-width: 1.0;"/><line style="stroke: #A80036; stroke-width: 1.0;" x1="283" x2="955.5" y1="264.041" y2="264.041"/><text fill="#000000" font-family="sans-serif" font-size="13" font-weight="bold" lengthAdjust="spacingAndGlyphs" textLength="9" x="290" y="259.6094">6</text><text fill="#000000" font-family="sans-serif" font-size="13" lengthAdjust="spacingAndGlyphs" textLength="261" x="303" y="259.6094">Search group@domain AS admin@domain</text><polygon fill="#0000FF" points="294,289.3516,284,293.3516,294,297.3516,290,293.3516" style="stroke: #0000FF; stroke-width: 1.0;"/><line style="stroke: #0000FF; stroke-width: 1.0; stroke-dasharray: 2.0,2.0;" x1="288" x2="960.5" y1="293.3516" y2="293.3516"/><text fill="#000000" font-family="sans-serif" font-size="13" font-weight="bold" lengthAdjust="spacingAndGlyphs" textLength="9" x="300" y="288.9199">7</text><text fill="#000000" font-family="sans-serif" font-size="13" lengthAdjust="spacingAndGlyphs" textLength="85" x="313" y="288.9199">UserID Found</text><polygon fill="#0000FF" points="37.5,318.6621,27.5,322.6621,37.5,326.6621,33.5,322.6621" style="stroke: #0000FF; stroke-width: 1.0;"/><line style="stroke: #0000FF; stroke-width: 1.0; stroke-dasharray: 2.0,2.0;" x1="31.5" x2="272" y1="322.6621" y2="322.6621"/><text fill="#000000" font-family="sans-serif" font-size="13" font-weight="bold" lengthAdjust="spacingAndGlyphs" textLength="9" x="43.5" y="318.2305">8</text><text fill="#000000" font-family="sans-serif" font-size="13" lengthAdjust="spacingAndGlyphs" textLength="89" x="56.5" y="318.2305">Already Exists</text><polygon fill="#A80036" points="294,347.9727,284,351.9727,294,355.9727,290,351.9727" style="stroke: #A80036; stroke-width: 1.0;"/><line style="stroke: #A80036; stroke-width: 1.0;" x1="288" x2="965.5" y1="351.9727" y2="351.9727"/><text fill="#000000" font-family="sans-serif" font-size="13" font-weight="bold" lengthAdjust="spacingAndGlyphs" textLength="9" x="300" y="347.541">9</text><text fill="#000000" font-family="sans-serif" font-size="13" lengthAdjust="spacingAndGlyphs" textLength="112" x="313" y="347.541">UserID Not Found</text><polygon fill="#A80036" points="37.5,377.2832,27.5,381.2832,37.5,385.2832,33.5,381.2832" style="stroke: #A80036; stroke-width: 1.0;"/><line style="stroke: #A80036; stroke-width: 1.0;" x1="31.5" x2="277" y1="381.2832" y2="381.2832"/><text fill="#000000" font-family="sans-serif" font-size="13" font-weight="bold" lengthAdjust="spacingAndGlyphs" textLength="18" x="43.5" y="376.8516">10</text><text fill="#000000" font-family="sans-serif" font-size="13" lengthAdjust="spacingAndGlyphs" textLength="48" x="65.5" y="376.8516">Queued</text><polygon fill="#A80036" points="484,406.5938,494,410.5938,484,414.5938,488,410.5938" style="stroke: #A80036; stroke-width: 1.0;"/><line style="stroke: #A80036; stroke-width: 1.0;" x1="278" x2="490" y1="410.5938" y2="410.5938"/><text fill="#000000" font-family="sans-serif" font-size="13" font-weight="bold" lengthAdjust="spacingAndGlyphs" textLength="18" x="285" y="406.1621">11</text><text fill="#000000" font-family="sans-serif" font-size="13" lengthAdjust="spacingAndGlyphs" textLength="172" x="307" y="406.1621">Have Group group@domain</text><polygon fill="#A80036" points="289,435.9043,279,439.9043,289,443.9043,285,439.9043" style="stroke: #A80036; stroke-width: 1.0;"/><line style="stroke: #A80036; stroke-width: 1.0;" x1="283" x2="495" y1="439.9043" y2="439.9043"/><text fill="#000000" font-family="sans-serif" font-size="13" font-weight="bold" lengthAdjust="spacingAndGlyphs" textLength="18" x="295" y="435.4727">12</text><text fill="#000000" font-family="sans-serif" font-size="13" lengthAdjust="spacingAndGlyphs" textLength="48" x="317" y="435.4727">Queued</text><polygon fill="#A80036" points="901,465.2148,911,469.2148,901,473.2148,905,469.2148" style="stroke: #A80036; stroke-width: 1.0;"/><line style="stroke: #A80036; stroke-width: 1.0;" x1="506" x2="907" y1="469.2148" y2="469.2148"/><text fill="#000000" font-family="sans-serif" font-size="13" font-weight="bold" lengthAdjust="spacingAndGlyphs" textLength="18" x="513" y="464.7832">13</text><text fill="#000000" font-family="sans-serif" font-size="13" lengthAdjust="spacingAndGlyphs" textLength="188" x="535" y="464.7832">Have Principal group@domain</text><polygon fill="#A80036" points="837,494.5254,847,498.5254,837,502.5254,841,498.5254" style="stroke: #A80036; stroke-width: 1.0;"/><line style="stroke: #A80036; stroke-width: 1.0;" x1="506" x2="843" y1="498.5254" y2="498.5254"/><text fill="#000000" font-family="sans-serif" font-size="13" font-weight="bold" lengthAdjust="spacingAndGlyphs" textLength="18" x="513" y="494.0938">14</text><text fill="#000000" font-family="sans-serif" font-size="13" lengthAdjust="spacingAndGlyphs" textLength="297" x="535" y="494.0938">Have Layer group@domain FOR admin@domain</text><polygon fill="#A80036" points="517,523.8359,507,527.8359,517,531.8359,513,527.8359" style="stroke: #A80036; stroke-width: 1.0;"/><line style="stroke: #A80036; stroke-width: 1.0;" x1="511" x2="917" y1="527.8359" y2="527.8359"/><text fill="#000000" font-family="sans-serif" font-size="13" font-weight="bold" lengthAdjust="spacingAndGlyphs" textLength="18" x="523" y="523.4043">15</text><text fill="#000000" font-family="sans-serif" font-size="13" lengthAdjust="spacingAndGlyphs" textLength="18" x="545" y="523.4043">OK</text><polygon fill="#A80036" points="837,553.1465,847,557.1465,837,561.1465,841,557.1465" style="stroke: #A80036; stroke-width: 1.0;"/><line style="stroke: #A80036; stroke-width: 1.0;" x1="506" x2="843" y1="557.1465" y2="557.1465"/><text fill="#000000" font-family="sans-serif" font-size="13" font-weight="bold" lengthAdjust="spacingAndGlyphs" textLength="18" x="513" y="552.7148">16</text><text fill="#000000" font-family="sans-serif" font-size="13" lengthAdjust="spacingAndGlyphs" textLength="163" x="535" y="552.7148">Have Keys group@domain</text><polygon fill="#A80036" points="517,582.457,507,586.457,517,590.457,513,586.457" style="stroke: #A80036; stroke-width: 1.0;"/><line style="stroke: #A80036; stroke-width: 1.0;" x1="511" x2="848" y1="586.457" y2="586.457"/><text fill="#000000" font-family="sans-serif" font-size="13" font-weight="bold" lengthAdjust="spacingAndGlyphs" textLength="18" x="523" y="582.0254">17</text><text fill="#000000" font-family="sans-serif" font-size="13" lengthAdjust="spacingAndGlyphs" textLength="140" x="545" y="582.0254">Made pkcs11:xxx;y;zz</text><polygon fill="#A80036" points="837,611.7676,847,615.7676,837,619.7676,841,615.7676" style="stroke: #A80036; stroke-width: 1.0;"/><line style="stroke: #A80036; stroke-width: 1.0;" x1="506" x2="843" y1="615.7676" y2="615.7676"/><text fill="#000000" font-family="sans-serif" font-size="13" font-weight="bold" lengthAdjust="spacingAndGlyphs" textLength="18" x="513" y="611.3359">18</text><text fill="#000000" font-family="sans-serif" font-size="13" lengthAdjust="spacingAndGlyphs" textLength="149" x="535" y="611.3359">Retrieve group@domain</text><polygon fill="#A80036" points="517,641.0781,507,645.0781,517,649.0781,513,645.0781" style="stroke: #A80036; stroke-width: 1.0;"/><line style="stroke: #A80036; stroke-width: 1.0;" x1="511" x2="853" y1="645.0781" y2="645.0781"/><text fill="#000000" font-family="sans-serif" font-size="13" font-weight="bold" lengthAdjust="spacingAndGlyphs" textLength="18" x="523" y="640.6465">19</text><text fill="#000000" font-family="sans-serif" font-size="13" lengthAdjust="spacingAndGlyphs" textLength="136" x="545" y="640.6465">PubKey MIIEVzCCAz...</text><line style="stroke: #A80036; stroke-width: 1.0;" x1="511" x2="553" y1="674.6992" y2="674.6992"/><line style="stroke: #A80036; stroke-width: 1.0;" x1="553" x2="553" y1="674.6992" y2="687.6992"/><line style="stroke: #A80036; stroke-width: 1.0;" x1="512" x2="553" y1="687.6992" y2="687.6992"/><polygon fill="#A80036" points="522,683.6992,512,687.6992,522,691.6992,518,687.6992" style="stroke: #A80036; stroke-width: 1.0;"/><text fill="#000000" font-family="sans-serif" font-size="13" font-weight="bold" lengthAdjust="spacingAndGlyphs" textLength="18" x="518" y="669.957">20</text><text fill="#000000" font-family="sans-serif" font-size="13" lengthAdjust="spacingAndGlyphs" textLength="193" x="540" y="669.957">PubKey MIIEVzCCAz... to Creds</text><polygon fill="#A80036" points="949.5,742.6992,959.5,746.6992,949.5,750.6992,953.5,746.6992" style="stroke: #A80036; stroke-width: 1.0;"/><line style="stroke: #A80036; stroke-width: 1.0;" x1="506" x2="955.5" y1="746.6992" y2="746.6992"/><text fill="#000000" font-family="sans-serif" font-size="13" font-weight="bold" lengthAdjust="spacingAndGlyphs" textLength="18" x="513" y="742.2676">21</text><text fill="#000000" font-family="sans-serif" font-size="13" lengthAdjust="spacingAndGlyphs" textLength="313" x="535" y="742.2676">Have group@domain XS public AS admin@domain</text><polygon fill="#A80036" points="949.5,772.0098,959.5,776.0098,949.5,780.0098,953.5,776.0098" style="stroke: #A80036; stroke-width: 1.0;"/><line style="stroke: #A80036; stroke-width: 1.0;" x1="506" x2="955.5" y1="776.0098" y2="776.0098"/><text fill="#000000" font-family="sans-serif" font-size="13" font-weight="bold" lengthAdjust="spacingAndGlyphs" textLength="18" x="513" y="771.5781">22</text><text fill="#000000" font-family="sans-serif" font-size="13" lengthAdjust="spacingAndGlyphs" textLength="375" x="535" y="771.5781">Have Creds for group@domain XS public AS admin@domain</text><polygon fill="#A80036" points="949.5,801.3203,959.5,805.3203,949.5,809.3203,953.5,805.3203" style="stroke: #A80036; stroke-width: 1.0;"/><line style="stroke: #A80036; stroke-width: 1.0;" x1="506" x2="955.5" y1="805.3203" y2="805.3203"/><text fill="#000000" font-family="sans-serif" font-size="13" font-weight="bold" lengthAdjust="spacingAndGlyphs" textLength="18" x="513" y="800.8887">23</text><text fill="#000000" font-family="sans-serif" font-size="13" lengthAdjust="spacingAndGlyphs" textLength="377" x="535" y="800.8887">Have pkcs11:xxx;y;zz XS group@domain AS admin@domain</text><polygon fill="#0000FF" points="998,830.6309,1008,834.6309,998,838.6309,1002,834.6309" style="stroke: #0000FF; stroke-width: 1.0;"/><line style="stroke: #0000FF; stroke-width: 1.0; stroke-dasharray: 2.0,2.0;" x1="506" x2="1004" y1="834.6309" y2="834.6309"/><text fill="#000000" font-family="sans-serif" font-size="13" font-weight="bold" lengthAdjust="spacingAndGlyphs" textLength="18" x="513" y="830.1992">24</text><text fill="#000000" font-family="sans-serif" font-size="13" lengthAdjust="spacingAndGlyphs" textLength="238" x="535" y="830.1992">Have TLSA records AS admin@domain</text><polygon fill="#0000FF" points="517,859.9414,507,863.9414,517,867.9414,513,863.9414" style="stroke: #0000FF; stroke-width: 1.0;"/><line style="stroke: #0000FF; stroke-width: 1.0; stroke-dasharray: 2.0,2.0;" x1="511" x2="1014" y1="863.9414" y2="863.9414"/><text fill="#000000" font-family="sans-serif" font-size="13" font-weight="bold" lengthAdjust="spacingAndGlyphs" textLength="18" x="523" y="859.5098">25</text><text fill="#000000" font-family="sans-serif" font-size="13" lengthAdjust="spacingAndGlyphs" textLength="48" x="545" y="859.5098">Queued</text><polygon fill="#A80036" points="512,889.252,502,893.252,512,897.252,508,893.252" style="stroke: #A80036; stroke-width: 1.0;"/><line style="stroke: #A80036; stroke-width: 1.0;" x1="506" x2="965.5" y1="893.252" y2="893.252"/><text fill="#000000" font-family="sans-serif" font-size="13" font-weight="bold" lengthAdjust="spacingAndGlyphs" textLength="18" x="518" y="888.8203">26</text><text fill="#000000" font-family="sans-serif" font-size="13" lengthAdjust="spacingAndGlyphs" textLength="37" x="540" y="888.8203">Ready</text></g></svg>