<?xml version="1.0" encoding="UTF-8" standalone="no"?><svg xmlns="http://www.w3.org/2000/svg" xmlns:xlink="http://www.w3.org/1999/xlink" contentScriptType="application/ecmascript" contentStyleType="text/css" height="669px" preserveAspectRatio="none" style="width:1237px;height:669px;" version="1.1" viewBox="0 0 1237 669" width="1237px" zoomAndPan="magnify"><defs><filter height="300%" id="f3rg5ev" width="300%" x="-1" y="-1"><feGaussianBlur result="blurOut" stdDeviation="2.0"/><feColorMatrix in="blurOut" result="blurOut2" type="matrix" values="0 0 0 0 0 0 0 0 0 0 0 0 0 0 0 0 0 0 .4 0"/><feOffset dx="4.0" dy="4.0" in="blurOut2" result="blurOut3"/><feBlend in="SourceGraphic" in2="blurOut3" mode="normal"/></filter></defs><g><rect fill="#FFFFFF" filter="url(#f3rg5ev)" height="294.7949" style="stroke: #A80036; stroke-width: 1.0;" width="10" x="21.5" y="96.4883"/><rect fill="#FFFFFF" filter="url(#f3rg5ev)" height="58.6211" style="stroke: #A80036; stroke-width: 1.0;" width="10" x="80" y="117.4883"/><rect fill="#FFFFFF" filter="url(#f3rg5ev)" height="353.416" style="stroke: #A80036; stroke-width: 1.0;" width="10" x="381.5" y="96.4883"/><rect fill="#FFFFFF" filter="url(#f3rg5ev)" height="175.8633" style="stroke: #A80036; stroke-width: 1.0;" width="10" x="718.5" y="391.2832"/><rect fill="#FFFFFF" filter="url(#f3rg5ev)" height="58.6211" style="stroke: #A80036; stroke-width: 1.0;" width="10" x="868.5" y="176.1094"/><rect fill="#FFFFFF" filter="url(#f3rg5ev)" height="58.6211" style="stroke: #A80036; stroke-width: 1.0;" width="10" x="868.5" y="479.2148"/><rect fill="#FFFFFF" filter="url(#f3rg5ev)" height="127.2422" style="stroke: #A80036; stroke-width: 1.0;" width="10" x="1207.5" y="234.7305"/><rect fill="#FFFFFF" filter="url(#f3rg5ev)" height="117.2422" style="stroke: #A80036; stroke-width: 1.0;" width="10" x="1207.5" y="449.9043"/><line style="stroke: #A80036; stroke-width: 1.0; stroke-dasharray: 5.0,5.0;" x1="26" x2="26" y1="86.4883" y2="585.457"/><line style="stroke: #A80036; stroke-width: 1.0; stroke-dasharray: 5.0,5.0;" x1="85" x2="85" y1="86.4883" y2="585.457"/><line style="stroke: #A80036; stroke-width: 1.0; stroke-dasharray: 5.0,5.0;" x1="386" x2="386" y1="86.4883" y2="585.457"/><line style="stroke: #A80036; stroke-width: 1.0; stroke-dasharray: 5.0,5.0;" x1="723.5" x2="723.5" y1="86.4883" y2="585.457"/><line style="stroke: #A80036; stroke-width: 1.0; stroke-dasharray: 5.0,5.0;" x1="873" x2="873" y1="86.4883" y2="585.457"/><line style="stroke: #A80036; stroke-width: 1.0; stroke-dasharray: 5.0,5.0;" x1="1212" x2="1212" y1="86.4883" y2="585.457"/><text fill="#000000" font-family="sans-serif" font-size="14" lengthAdjust="spacingAndGlyphs" textLength="31" x="8" y="83.5352">User</text><ellipse cx="26.5" cy="13" fill="#FEFECE" filter="url(#f3rg5ev)" rx="8" ry="8" style="stroke: #A80036; stroke-width: 2.0;"/><path d="M26.5,21 L26.5,48 M13.5,29 L39.5,29 M26.5,48 L13.5,63 M26.5,48 L39.5,63 " fill="#FEFECE" filter="url(#f3rg5ev)" style="stroke: #A80036; stroke-width: 2.0;"/><text fill="#000000" font-family="sans-serif" font-size="14" lengthAdjust="spacingAndGlyphs" textLength="31" x="8" y="597.9922">User</text><ellipse cx="26.5" cy="610.9453" fill="#FEFECE" filter="url(#f3rg5ev)" rx="8" ry="8" style="stroke: #A80036; stroke-width: 2.0;"/><path d="M26.5,618.9453 L26.5,645.9453 M13.5,626.9453 L39.5,626.9453 M26.5,645.9453 L13.5,660.9453 M26.5,645.9453 L39.5,660.9453 " fill="#FEFECE" filter="url(#f3rg5ev)" style="stroke: #A80036; stroke-width: 2.0;"/><rect fill="#FEFECE" filter="url(#f3rg5ev)" height="30.4883" style="stroke: #A80036; stroke-width: 1.5;" width="56" x="55" y="51"/><text fill="#000000" font-family="sans-serif" font-size="14" lengthAdjust="spacingAndGlyphs" textLength="42" x="62" y="71.5352">Authn</text><rect fill="#FEFECE" filter="url(#f3rg5ev)" height="30.4883" style="stroke: #A80036; stroke-width: 1.5;" width="56" x="55" y="584.457"/><text fill="#000000" font-family="sans-serif" font-size="14" lengthAdjust="spacingAndGlyphs" textLength="42" x="62" y="604.9922">Authn</text><rect fill="#FEFECE" filter="url(#f3rg5ev)" height="30.4883" style="stroke: #A80036; stroke-width: 1.5;" width="111" x="329" y="51"/><text fill="#000000" font-family="sans-serif" font-size="14" lengthAdjust="spacingAndGlyphs" textLength="97" x="336" y="71.5352">IdHub Control</text><rect fill="#FEFECE" filter="url(#f3rg5ev)" height="30.4883" style="stroke: #A80036; stroke-width: 1.5;" width="111" x="329" y="584.457"/><text fill="#000000" font-family="sans-serif" font-size="14" lengthAdjust="spacingAndGlyphs" textLength="97" x="336" y="604.9922">IdHub Control</text><rect fill="#FEFECE" filter="url(#f3rg5ev)" height="30.4883" style="stroke: #A80036; stroke-width: 1.5;" width="102" x="670.5" y="51"/><text fill="#000000" font-family="sans-serif" font-size="14" lengthAdjust="spacingAndGlyphs" textLength="88" x="677.5" y="71.5352">Key Manager</text><rect fill="#FEFECE" filter="url(#f3rg5ev)" height="30.4883" style="stroke: #A80036; stroke-width: 1.5;" width="102" x="670.5" y="584.457"/><text fill="#000000" font-family="sans-serif" font-size="14" lengthAdjust="spacingAndGlyphs" textLength="88" x="677.5" y="604.9922">Key Manager</text><rect fill="#FEFECE" filter="url(#f3rg5ev)" height="30.4883" style="stroke: #A80036; stroke-width: 1.5;" width="55" x="844" y="51"/><text fill="#000000" font-family="sans-serif" font-size="14" lengthAdjust="spacingAndGlyphs" textLength="41" x="851" y="71.5352">Authz</text><rect fill="#FEFECE" filter="url(#f3rg5ev)" height="30.4883" style="stroke: #A80036; stroke-width: 1.5;" width="55" x="844" y="584.457"/><text fill="#000000" font-family="sans-serif" font-size="14" lengthAdjust="spacingAndGlyphs" textLength="41" x="851" y="604.9922">Authz</text><text fill="#000000" font-family="sans-serif" font-size="14" lengthAdjust="spacingAndGlyphs" textLength="35" x="1192" y="83.5352">LDAP</text><path d="M1194.5,34 C1194.5,24 1212.5,24 1212.5,24 C1212.5,24 1230.5,24 1230.5,34 L1230.5,60 C1230.5,70 1212.5,70 1212.5,70 C1212.5,70 1194.5,70 1194.5,60 L1194.5,34 " fill="#FEFECE" filter="url(#f3rg5ev)" style="stroke: #000000; stroke-width: 1.5;"/><path d="M1194.5,34 C1194.5,44 1212.5,44 1212.5,44 C1212.5,44 1230.5,44 1230.5,34 " fill="none" style="stroke: #000000; stroke-width: 1.5;"/><text fill="#000000" font-family="sans-serif" font-size="14" lengthAdjust="spacingAndGlyphs" textLength="35" x="1192" y="597.9922">LDAP</text><path d="M1194.5,610.9453 C1194.5,600.9453 1212.5,600.9453 1212.5,600.9453 C1212.5,600.9453 1230.5,600.9453 1230.5,610.9453 L1230.5,636.9453 C1230.5,646.9453 1212.5,646.9453 1212.5,646.9453 C1212.5,646.9453 1194.5,646.9453 1194.5,636.9453 L1194.5,610.9453 " fill="#FEFECE" filter="url(#f3rg5ev)" style="stroke: #000000; stroke-width: 1.5;"/><path d="M1194.5,610.9453 C1194.5,620.9453 1212.5,620.9453 1212.5,620.9453 C1212.5,620.9453 1230.5,620.9453 1230.5,610.9453 " fill="none" style="stroke: #000000; stroke-width: 1.5;"/><rect fill="#FFFFFF" filter="url(#f3rg5ev)" height="294.7949" style="stroke: #A80036; stroke-width: 1.0;" width="10" x="21.5" y="96.4883"/><rect fill="#FFFFFF" filter="url(#f3rg5ev)" height="58.6211" style="stroke: #A80036; stroke-width: 1.0;" width="10" x="80" y="117.4883"/><rect fill="#FFFFFF" filter="url(#f3rg5ev)" height="353.416" style="stroke: #A80036; stroke-width: 1.0;" width="10" x="381.5" y="96.4883"/><rect fill="#FFFFFF" filter="url(#f3rg5ev)" height="175.8633" style="stroke: #A80036; stroke-width: 1.0;" width="10" x="718.5" y="391.2832"/><rect fill="#FFFFFF" filter="url(#f3rg5ev)" height="58.6211" style="stroke: #A80036; stroke-width: 1.0;" width="10" x="868.5" y="176.1094"/><rect fill="#FFFFFF" filter="url(#f3rg5ev)" height="58.6211" style="stroke: #A80036; stroke-width: 1.0;" width="10" x="868.5" y="479.2148"/><rect fill="#FFFFFF" filter="url(#f3rg5ev)" height="127.2422" style="stroke: #A80036; stroke-width: 1.0;" width="10" x="1207.5" y="234.7305"/><rect fill="#FFFFFF" filter="url(#f3rg5ev)" height="117.2422" style="stroke: #A80036; stroke-width: 1.0;" width="10" x="1207.5" y="449.9043"/><polygon fill="#A80036" points="369.5,113.4883,379.5,117.4883,369.5,121.4883,373.5,117.4883" style="stroke: #A80036; stroke-width: 1.0;"/><line style="stroke: #A80036; stroke-width: 1.0;" x1="31.5" x2="375.5" y1="117.4883" y2="117.4883"/><text fill="#000000" font-family="sans-serif" font-size="13" font-weight="bold" lengthAdjust="spacingAndGlyphs" textLength="9" x="38.5" y="113.0566">1</text><text fill="#000000" font-family="sans-serif" font-size="13" lengthAdjust="spacingAndGlyphs" textLength="313" x="51.5" y="113.0566">Group group@domain Member Del user@domain1</text><polygon fill="#A80036" points="101,142.7988,91,146.7988,101,150.7988,97,146.7988" style="stroke: #A80036; stroke-width: 1.0;"/><line style="stroke: #A80036; stroke-width: 1.0;" x1="95" x2="380.5" y1="146.7988" y2="146.7988"/><text fill="#000000" font-family="sans-serif" font-size="13" font-weight="bold" lengthAdjust="spacingAndGlyphs" textLength="9" x="107" y="142.3672">2</text><text fill="#000000" font-family="sans-serif" font-size="13" lengthAdjust="spacingAndGlyphs" textLength="136" x="120" y="142.3672">SecureLayer @domain</text><polygon fill="#A80036" points="369.5,172.1094,379.5,176.1094,369.5,180.1094,373.5,176.1094" style="stroke: #A80036; stroke-width: 1.0;"/><line style="stroke: #A80036; stroke-width: 1.0;" x1="85" x2="375.5" y1="176.1094" y2="176.1094"/><text fill="#000000" font-family="sans-serif" font-size="13" font-weight="bold" lengthAdjust="spacingAndGlyphs" textLength="9" x="92" y="171.6777">3</text><text fill="#000000" font-family="sans-serif" font-size="13" lengthAdjust="spacingAndGlyphs" textLength="193" x="105" y="171.6777">RemoteID group+you@domain</text><polygon fill="#A80036" points="856.5,201.4199,866.5,205.4199,856.5,209.4199,860.5,205.4199" style="stroke: #A80036; stroke-width: 1.0;"/><line style="stroke: #A80036; stroke-width: 1.0;" x1="391.5" x2="862.5" y1="205.4199" y2="205.4199"/><text fill="#000000" font-family="sans-serif" font-size="13" font-weight="bold" lengthAdjust="spacingAndGlyphs" textLength="9" x="398.5" y="200.9883">4</text><text fill="#000000" font-family="sans-serif" font-size="13" lengthAdjust="spacingAndGlyphs" textLength="440" x="411.5" y="200.9883">WANT group-membership ON group@domain AS group+you@domain</text><polygon fill="#A80036" points="402.5,230.7305,392.5,234.7305,402.5,238.7305,398.5,234.7305" style="stroke: #A80036; stroke-width: 1.0;"/><line style="stroke: #A80036; stroke-width: 1.0;" x1="396.5" x2="872.5" y1="234.7305" y2="234.7305"/><text fill="#000000" font-family="sans-serif" font-size="13" font-weight="bold" lengthAdjust="spacingAndGlyphs" textLength="9" x="408.5" y="230.2988">5</text><text fill="#000000" font-family="sans-serif" font-size="13" lengthAdjust="spacingAndGlyphs" textLength="179" x="421.5" y="230.2988">OK FOR group+you@domain</text><polygon fill="#A80036" points="1195.5,260.041,1205.5,264.041,1195.5,268.041,1199.5,264.041" style="stroke: #A80036; stroke-width: 1.0;"/><line style="stroke: #A80036; stroke-width: 1.0;" x1="391.5" x2="1201.5" y1="264.041" y2="264.041"/><text fill="#000000" font-family="sans-serif" font-size="13" font-weight="bold" lengthAdjust="spacingAndGlyphs" textLength="9" x="398.5" y="259.6094">6</text><text fill="#000000" font-family="sans-serif" font-size="13" lengthAdjust="spacingAndGlyphs" textLength="458" x="411.5" y="259.6094">Compare group@domain Member user@domain1 AS group+you@domain</text><polygon fill="#0000FF" points="402.5,294.3516,392.5,298.3516,402.5,302.3516,398.5,298.3516" style="stroke: #0000FF; stroke-width: 1.0;"/><line style="stroke: #0000FF; stroke-width: 1.0; stroke-dasharray: 2.0,2.0;" x1="396.5" x2="1206.5" y1="298.3516" y2="298.3516"/><text fill="#000000" font-family="sans-serif" font-size="13" font-weight="bold" lengthAdjust="spacingAndGlyphs" textLength="9" x="408.5" y="293.9199">7</text><text fill="#000000" font-family="sans-serif" font-size="13" lengthAdjust="spacingAndGlyphs" textLength="112" x="421.5" y="293.9199">UserID Not Found</text><polygon fill="#FBFB77" filter="url(#f3rg5ev)" points="182,277.3516,182,302.3516,372,302.3516,372,287.3516,362,277.3516,182,277.3516" style="stroke: #A80036; stroke-width: 1.0;"/><line style="stroke: #A80036; stroke-width: 1.0;" x1="362" x2="362" y1="277.3516" y2="287.3516"/><line style="stroke: #A80036; stroke-width: 1.0;" x1="372" x2="362" y1="287.3516" y2="287.3516"/><text fill="#0000FF" font-family="sans-serif" font-size="13" lengthAdjust="spacingAndGlyphs" textLength="169" x="188" y="294.9199">Alternative flow, fatal error</text><polygon fill="#0000FF" points="42.5,328.6621,32.5,332.6621,42.5,336.6621,38.5,332.6621" style="stroke: #0000FF; stroke-width: 1.0;"/><line style="stroke: #0000FF; stroke-width: 1.0; stroke-dasharray: 2.0,2.0;" x1="36.5" x2="380.5" y1="332.6621" y2="332.6621"/><text fill="#000000" font-family="sans-serif" font-size="13" font-weight="bold" lengthAdjust="spacingAndGlyphs" textLength="9" x="48.5" y="328.2305">8</text><text fill="#000000" font-family="sans-serif" font-size="13" lengthAdjust="spacingAndGlyphs" textLength="113" x="61.5" y="328.2305">Unknown Member</text><polygon fill="#A80036" points="402.5,357.9727,392.5,361.9727,402.5,365.9727,398.5,361.9727" style="stroke: #A80036; stroke-width: 1.0;"/><line style="stroke: #A80036; stroke-width: 1.0;" x1="396.5" x2="1211.5" y1="361.9727" y2="361.9727"/><text fill="#000000" font-family="sans-serif" font-size="13" font-weight="bold" lengthAdjust="spacingAndGlyphs" textLength="9" x="408.5" y="357.541">9</text><text fill="#000000" font-family="sans-serif" font-size="13" lengthAdjust="spacingAndGlyphs" textLength="85" x="421.5" y="357.541">UserID Found</text><polygon fill="#A80036" points="37.5,387.2832,27.5,391.2832,37.5,395.2832,33.5,391.2832" style="stroke: #A80036; stroke-width: 1.0;"/><line style="stroke: #A80036; stroke-width: 1.0;" x1="31.5" x2="380.5" y1="391.2832" y2="391.2832"/><text fill="#000000" font-family="sans-serif" font-size="13" font-weight="bold" lengthAdjust="spacingAndGlyphs" textLength="18" x="43.5" y="386.8516">10</text><text fill="#000000" font-family="sans-serif" font-size="13" lengthAdjust="spacingAndGlyphs" textLength="48" x="65.5" y="386.8516">Queued</text><polygon fill="#A80036" points="706.5,416.5938,716.5,420.5938,706.5,424.5938,710.5,420.5938" style="stroke: #A80036; stroke-width: 1.0;"/><line style="stroke: #A80036; stroke-width: 1.0;" x1="391.5" x2="712.5" y1="420.5938" y2="420.5938"/><text fill="#000000" font-family="sans-serif" font-size="13" font-weight="bold" lengthAdjust="spacingAndGlyphs" textLength="18" x="398.5" y="416.1621">11</text><text fill="#000000" font-family="sans-serif" font-size="13" lengthAdjust="spacingAndGlyphs" textLength="281" x="420.5" y="416.1621">Drop group@domain Member user@domain1</text><polygon fill="#A80036" points="397.5,445.9043,387.5,449.9043,397.5,453.9043,393.5,449.9043" style="stroke: #A80036; stroke-width: 1.0;"/><line style="stroke: #A80036; stroke-width: 1.0;" x1="391.5" x2="717.5" y1="449.9043" y2="449.9043"/><text fill="#000000" font-family="sans-serif" font-size="13" font-weight="bold" lengthAdjust="spacingAndGlyphs" textLength="18" x="403.5" y="445.4727">12</text><text fill="#000000" font-family="sans-serif" font-size="13" lengthAdjust="spacingAndGlyphs" textLength="48" x="425.5" y="445.4727">Queued</text><polygon fill="#A80036" points="1195.5,475.2148,1205.5,479.2148,1195.5,483.2148,1199.5,479.2148" style="stroke: #A80036; stroke-width: 1.0;"/><line style="stroke: #A80036; stroke-width: 1.0;" x1="728.5" x2="1201.5" y1="479.2148" y2="479.2148"/><text fill="#000000" font-family="sans-serif" font-size="13" font-weight="bold" lengthAdjust="spacingAndGlyphs" textLength="18" x="735.5" y="474.7832">13</text><text fill="#000000" font-family="sans-serif" font-size="13" lengthAdjust="spacingAndGlyphs" textLength="433" x="757.5" y="474.7832">Drop group@domain Member user@domain1 AS group+you@domain</text><polygon fill="#A80036" points="889.5,504.5254,879.5,508.5254,889.5,512.5254,885.5,508.5254" style="stroke: #A80036; stroke-width: 1.0;"/><line style="stroke: #A80036; stroke-width: 1.0;" x1="883.5" x2="1206.5" y1="508.5254" y2="508.5254"/><text fill="#000000" font-family="sans-serif" font-size="13" font-weight="bold" lengthAdjust="spacingAndGlyphs" textLength="18" x="895.5" y="504.0938">14</text><text fill="#000000" font-family="sans-serif" font-size="13" lengthAdjust="spacingAndGlyphs" textLength="191" x="917.5" y="504.0938">Drop certain cached privileges</text><polygon fill="#A80036" points="1195.5,533.8359,1205.5,537.8359,1195.5,541.8359,1199.5,537.8359" style="stroke: #A80036; stroke-width: 1.0;"/><line style="stroke: #A80036; stroke-width: 1.0;" x1="873.5" x2="1201.5" y1="537.8359" y2="537.8359"/><text fill="#000000" font-family="sans-serif" font-size="13" font-weight="bold" lengthAdjust="spacingAndGlyphs" textLength="18" x="880.5" y="533.4043">15</text><text fill="#000000" font-family="sans-serif" font-size="13" lengthAdjust="spacingAndGlyphs" textLength="37" x="902.5" y="533.4043">Ready</text><polygon fill="#A80036" points="734.5,563.1465,724.5,567.1465,734.5,571.1465,730.5,567.1465" style="stroke: #A80036; stroke-width: 1.0;"/><line style="stroke: #A80036; stroke-width: 1.0;" x1="728.5" x2="1211.5" y1="567.1465" y2="567.1465"/><text fill="#000000" font-family="sans-serif" font-size="13" font-weight="bold" lengthAdjust="spacingAndGlyphs" textLength="18" x="740.5" y="562.7148">16</text><text fill="#000000" font-family="sans-serif" font-size="13" lengthAdjust="spacingAndGlyphs" textLength="37" x="762.5" y="562.7148">Ready</text></g></svg>