<?xml version="1.0" encoding="UTF-8" standalone="no"?><svg xmlns="http://www.w3.org/2000/svg" xmlns:xlink="http://www.w3.org/1999/xlink" contentScriptType="application/ecmascript" contentStyleType="text/css" height="950px" preserveAspectRatio="none" style="width:1247px;height:950px;" version="1.1" viewBox="0 0 1247 950" width="1247px" zoomAndPan="magnify"><defs><filter height="300%" id="f0lfhbz" width="300%" x="-1" y="-1"><feGaussianBlur result="blurOut" stdDeviation="2.0"/><feColorMatrix in="blurOut" result="blurOut2" type="matrix" values="0 0 0 0 0 0 0 0 0 0 0 0 0 0 0 0 0 0 .4 0"/><feOffset dx="4.0" dy="4.0" in="blurOut2" result="blurOut3"/><feBlend in="SourceGraphic" in2="blurOut3" mode="normal"/></filter></defs><g><rect fill="#FFFFFF" filter="url(#f0lfhbz)" height="381.416" style="stroke: #A80036; stroke-width: 1.0;" width="10" x="21.5" y="96.4883"/><rect fill="#FFFFFF" filter="url(#f0lfhbz)" height="101.9316" style="stroke: #A80036; stroke-width: 1.0;" width="10" x="80" y="117.4883"/><rect fill="#FFFFFF" filter="url(#f0lfhbz)" height="483.3477" style="stroke: #A80036; stroke-width: 1.0;" width="10" x="385.5" y="96.4883"/><rect fill="#FFFFFF" filter="url(#f0lfhbz)" height="369.416" style="stroke: #A80036; stroke-width: 1.0;" width="10" x="722.5" y="477.9043"/><rect fill="#FFFFFF" filter="url(#f0lfhbz)" height="35.3105" style="stroke: #A80036; stroke-width: 1.0;" width="10" x="727.5" y="677.7676"/><rect fill="#FFFFFF" filter="url(#f0lfhbz)" height="58.6211" style="stroke: #A80036; stroke-width: 1.0;" width="10" x="975.5" y="219.4199"/><rect fill="#FFFFFF" filter="url(#f0lfhbz)" height="170.5527" style="stroke: #A80036; stroke-width: 1.0;" width="10" x="1211.5" y="278.041"/><rect fill="#FFFFFF" filter="url(#f0lfhbz)" height="97.9316" style="stroke: #A80036; stroke-width: 1.0;" width="10" x="1211.5" y="579.8359"/><rect fill="#FFFFFF" filter="url(#f0lfhbz)" height="132.2422" style="stroke: #A80036; stroke-width: 1.0;" width="10" x="1211.5" y="715.0781"/><line style="stroke: #A80036; stroke-width: 1.0; stroke-dasharray: 5.0,5.0;" x1="26" x2="26" y1="86.4883" y2="865.6309"/><line style="stroke: #A80036; stroke-width: 1.0; stroke-dasharray: 5.0,5.0;" x1="85" x2="85" y1="86.4883" y2="865.6309"/><line style="stroke: #A80036; stroke-width: 1.0; stroke-dasharray: 5.0,5.0;" x1="390" x2="390" y1="86.4883" y2="865.6309"/><line style="stroke: #A80036; stroke-width: 1.0; stroke-dasharray: 5.0,5.0;" x1="727.5" x2="727.5" y1="86.4883" y2="865.6309"/><line style="stroke: #A80036; stroke-width: 1.0; stroke-dasharray: 5.0,5.0;" x1="980" x2="980" y1="86.4883" y2="865.6309"/><line style="stroke: #A80036; stroke-width: 1.0; stroke-dasharray: 5.0,5.0;" x1="1216" x2="1216" y1="86.4883" y2="865.6309"/><text fill="#000000" font-family="sans-serif" font-size="14" lengthAdjust="spacingAndGlyphs" textLength="31" x="8" y="83.5352">User</text><ellipse cx="26.5" cy="13" fill="#FEFECE" filter="url(#f0lfhbz)" rx="8" ry="8" style="stroke: #A80036; stroke-width: 2.0;"/><path d="M26.5,21 L26.5,48 M13.5,29 L39.5,29 M26.5,48 L13.5,63 M26.5,48 L39.5,63 " fill="#FEFECE" filter="url(#f0lfhbz)" style="stroke: #A80036; stroke-width: 2.0;"/><text fill="#000000" font-family="sans-serif" font-size="14" lengthAdjust="spacingAndGlyphs" textLength="31" x="8" y="878.166">User</text><ellipse cx="26.5" cy="891.1191" fill="#FEFECE" filter="url(#f0lfhbz)" rx="8" ry="8" style="stroke: #A80036; stroke-width: 2.0;"/><path d="M26.5,899.1191 L26.5,926.1191 M13.5,907.1191 L39.5,907.1191 M26.5,926.1191 L13.5,941.1191 M26.5,926.1191 L39.5,941.1191 " fill="#FEFECE" filter="url(#f0lfhbz)" style="stroke: #A80036; stroke-width: 2.0;"/><rect fill="#FEFECE" filter="url(#f0lfhbz)" height="30.4883" style="stroke: #A80036; stroke-width: 1.5;" width="56" x="55" y="51"/><text fill="#000000" font-family="sans-serif" font-size="14" lengthAdjust="spacingAndGlyphs" textLength="42" x="62" y="71.5352">Authn</text><rect fill="#FEFECE" filter="url(#f0lfhbz)" height="30.4883" style="stroke: #A80036; stroke-width: 1.5;" width="56" x="55" y="864.6309"/><text fill="#000000" font-family="sans-serif" font-size="14" lengthAdjust="spacingAndGlyphs" textLength="42" x="62" y="885.166">Authn</text><rect fill="#FEFECE" filter="url(#f0lfhbz)" height="30.4883" style="stroke: #A80036; stroke-width: 1.5;" width="111" x="333" y="51"/><text fill="#000000" font-family="sans-serif" font-size="14" lengthAdjust="spacingAndGlyphs" textLength="97" x="340" y="71.5352">IdHub Control</text><rect fill="#FEFECE" filter="url(#f0lfhbz)" height="30.4883" style="stroke: #A80036; stroke-width: 1.5;" width="111" x="333" y="864.6309"/><text fill="#000000" font-family="sans-serif" font-size="14" lengthAdjust="spacingAndGlyphs" textLength="97" x="340" y="885.166">IdHub Control</text><rect fill="#FEFECE" filter="url(#f0lfhbz)" height="30.4883" style="stroke: #A80036; stroke-width: 1.5;" width="102" x="674.5" y="51"/><text fill="#000000" font-family="sans-serif" font-size="14" lengthAdjust="spacingAndGlyphs" textLength="88" x="681.5" y="71.5352">Key Manager</text><rect fill="#FEFECE" filter="url(#f0lfhbz)" height="30.4883" style="stroke: #A80036; stroke-width: 1.5;" width="102" x="674.5" y="864.6309"/><text fill="#000000" font-family="sans-serif" font-size="14" lengthAdjust="spacingAndGlyphs" textLength="88" x="681.5" y="885.166">Key Manager</text><rect fill="#FEFECE" filter="url(#f0lfhbz)" height="30.4883" style="stroke: #A80036; stroke-width: 1.5;" width="55" x="951" y="51"/><text fill="#000000" font-family="sans-serif" font-size="14" lengthAdjust="spacingAndGlyphs" textLength="41" x="958" y="71.5352">Authz</text><rect fill="#FEFECE" filter="url(#f0lfhbz)" height="30.4883" style="stroke: #A80036; stroke-width: 1.5;" width="55" x="951" y="864.6309"/><text fill="#000000" font-family="sans-serif" font-size="14" lengthAdjust="spacingAndGlyphs" textLength="41" x="958" y="885.166">Authz</text><text fill="#000000" font-family="sans-serif" font-size="14" lengthAdjust="spacingAndGlyphs" textLength="35" x="1196" y="83.5352">LDAP</text><path d="M1198.5,34 C1198.5,24 1216.5,24 1216.5,24 C1216.5,24 1234.5,24 1234.5,34 L1234.5,60 C1234.5,70 1216.5,70 1216.5,70 C1216.5,70 1198.5,70 1198.5,60 L1198.5,34 " fill="#FEFECE" filter="url(#f0lfhbz)" style="stroke: #000000; stroke-width: 1.5;"/><path d="M1198.5,34 C1198.5,44 1216.5,44 1216.5,44 C1216.5,44 1234.5,44 1234.5,34 " fill="none" style="stroke: #000000; stroke-width: 1.5;"/><text fill="#000000" font-family="sans-serif" font-size="14" lengthAdjust="spacingAndGlyphs" textLength="35" x="1196" y="878.166">LDAP</text><path d="M1198.5,891.1191 C1198.5,881.1191 1216.5,881.1191 1216.5,881.1191 C1216.5,881.1191 1234.5,881.1191 1234.5,891.1191 L1234.5,917.1191 C1234.5,927.1191 1216.5,927.1191 1216.5,927.1191 C1216.5,927.1191 1198.5,927.1191 1198.5,917.1191 L1198.5,891.1191 " fill="#FEFECE" filter="url(#f0lfhbz)" style="stroke: #000000; stroke-width: 1.5;"/><path d="M1198.5,891.1191 C1198.5,901.1191 1216.5,901.1191 1216.5,901.1191 C1216.5,901.1191 1234.5,901.1191 1234.5,891.1191 " fill="none" style="stroke: #000000; stroke-width: 1.5;"/><rect fill="#FFFFFF" filter="url(#f0lfhbz)" height="381.416" style="stroke: #A80036; stroke-width: 1.0;" width="10" x="21.5" y="96.4883"/><rect fill="#FFFFFF" filter="url(#f0lfhbz)" height="101.9316" style="stroke: #A80036; stroke-width: 1.0;" width="10" x="80" y="117.4883"/><rect fill="#FFFFFF" filter="url(#f0lfhbz)" height="483.3477" style="stroke: #A80036; stroke-width: 1.0;" width="10" x="385.5" y="96.4883"/><rect fill="#FFFFFF" filter="url(#f0lfhbz)" height="369.416" style="stroke: #A80036; stroke-width: 1.0;" width="10" x="722.5" y="477.9043"/><rect fill="#FFFFFF" filter="url(#f0lfhbz)" height="35.3105" style="stroke: #A80036; stroke-width: 1.0;" width="10" x="727.5" y="677.7676"/><rect fill="#FFFFFF" filter="url(#f0lfhbz)" height="58.6211" style="stroke: #A80036; stroke-width: 1.0;" width="10" x="975.5" y="219.4199"/><rect fill="#FFFFFF" filter="url(#f0lfhbz)" height="170.5527" style="stroke: #A80036; stroke-width: 1.0;" width="10" x="1211.5" y="278.041"/><rect fill="#FFFFFF" filter="url(#f0lfhbz)" height="97.9316" style="stroke: #A80036; stroke-width: 1.0;" width="10" x="1211.5" y="579.8359"/><rect fill="#FFFFFF" filter="url(#f0lfhbz)" height="132.2422" style="stroke: #A80036; stroke-width: 1.0;" width="10" x="1211.5" y="715.0781"/><polygon fill="#A80036" points="373.5,113.4883,383.5,117.4883,373.5,121.4883,377.5,117.4883" style="stroke: #A80036; stroke-width: 1.0;"/><line style="stroke: #A80036; stroke-width: 1.0;" x1="31.5" x2="379.5" y1="117.4883" y2="117.4883"/><text fill="#000000" font-family="sans-serif" font-size="13" font-weight="bold" lengthAdjust="spacingAndGlyphs" textLength="9" x="38.5" y="113.0566">1</text><text fill="#000000" font-family="sans-serif" font-size="13" lengthAdjust="spacingAndGlyphs" textLength="317" x="51.5" y="113.0566">Group group@domain Member Add user@domain1</text><rect fill="#EEEEEE" filter="url(#f0lfhbz)" height="3" style="stroke: #EEEEEE; stroke-width: 1.0;" width="1239" x="3" y="146.4541"/><line style="stroke: #000000; stroke-width: 1.0;" x1="3" x2="1242" y1="146.4541" y2="146.4541"/><line style="stroke: #000000; stroke-width: 1.0;" x1="3" x2="1242" y1="149.4541" y2="149.4541"/><rect fill="#EEEEEE" filter="url(#f0lfhbz)" height="23.3105" style="stroke: #000000; stroke-width: 2.0;" width="117" x="564" y="135.7988"/><text fill="#000000" font-family="sans-serif" font-size="13" font-weight="bold" lengthAdjust="spacingAndGlyphs" textLength="99" x="570" y="152.3672">Access Control</text><polygon fill="#A80036" points="101,186.1094,91,190.1094,101,194.1094,97,190.1094" style="stroke: #A80036; stroke-width: 1.0;"/><line style="stroke: #A80036; stroke-width: 1.0;" x1="95" x2="384.5" y1="190.1094" y2="190.1094"/><text fill="#000000" font-family="sans-serif" font-size="13" font-weight="bold" lengthAdjust="spacingAndGlyphs" textLength="9" x="107" y="185.6777">2</text><text fill="#000000" font-family="sans-serif" font-size="13" lengthAdjust="spacingAndGlyphs" textLength="136" x="120" y="185.6777">SecureLayer @domain</text><polygon fill="#A80036" points="373.5,215.4199,383.5,219.4199,373.5,223.4199,377.5,219.4199" style="stroke: #A80036; stroke-width: 1.0;"/><line style="stroke: #A80036; stroke-width: 1.0;" x1="85" x2="379.5" y1="219.4199" y2="219.4199"/><text fill="#000000" font-family="sans-serif" font-size="13" font-weight="bold" lengthAdjust="spacingAndGlyphs" textLength="9" x="92" y="214.9883">3</text><text fill="#000000" font-family="sans-serif" font-size="13" lengthAdjust="spacingAndGlyphs" textLength="193" x="105" y="214.9883">RemoteID group+you@domain</text><polygon fill="#A80036" points="963.5,244.7305,973.5,248.7305,963.5,252.7305,967.5,248.7305" style="stroke: #A80036; stroke-width: 1.0;"/><line style="stroke: #A80036; stroke-width: 1.0;" x1="395.5" x2="969.5" y1="248.7305" y2="248.7305"/><text fill="#000000" font-family="sans-serif" font-size="13" font-weight="bold" lengthAdjust="spacingAndGlyphs" textLength="9" x="402.5" y="244.2988">4</text><text fill="#000000" font-family="sans-serif" font-size="13" lengthAdjust="spacingAndGlyphs" textLength="440" x="415.5" y="244.2988">WANT group-membership ON group@domain AS group+you@domain</text><polygon fill="#A80036" points="406.5,274.041,396.5,278.041,406.5,282.041,402.5,278.041" style="stroke: #A80036; stroke-width: 1.0;"/><line style="stroke: #A80036; stroke-width: 1.0;" x1="400.5" x2="979.5" y1="278.041" y2="278.041"/><text fill="#000000" font-family="sans-serif" font-size="13" font-weight="bold" lengthAdjust="spacingAndGlyphs" textLength="9" x="412.5" y="273.6094">5</text><text fill="#000000" font-family="sans-serif" font-size="13" lengthAdjust="spacingAndGlyphs" textLength="179" x="425.5" y="273.6094">OK FOR group+you@domain</text><rect fill="#EEEEEE" filter="url(#f0lfhbz)" height="3" style="stroke: #EEEEEE; stroke-width: 1.0;" width="1239" x="3" y="307.0068"/><line style="stroke: #000000; stroke-width: 1.0;" x1="3" x2="1242" y1="307.0068" y2="307.0068"/><line style="stroke: #000000; stroke-width: 1.0;" x1="3" x2="1242" y1="310.0068" y2="310.0068"/><rect fill="#EEEEEE" filter="url(#f0lfhbz)" height="23.3105" style="stroke: #000000; stroke-width: 2.0;" width="104" x="570.5" y="296.3516"/><text fill="#000000" font-family="sans-serif" font-size="13" font-weight="bold" lengthAdjust="spacingAndGlyphs" textLength="86" x="576.5" y="312.9199">Sanity Check</text><polygon fill="#A80036" points="1199.5,346.6621,1209.5,350.6621,1199.5,354.6621,1203.5,350.6621" style="stroke: #A80036; stroke-width: 1.0;"/><line style="stroke: #A80036; stroke-width: 1.0;" x1="395.5" x2="1205.5" y1="350.6621" y2="350.6621"/><text fill="#000000" font-family="sans-serif" font-size="13" font-weight="bold" lengthAdjust="spacingAndGlyphs" textLength="9" x="402.5" y="346.2305">6</text><text fill="#000000" font-family="sans-serif" font-size="13" lengthAdjust="spacingAndGlyphs" textLength="458" x="415.5" y="346.2305">Compare group@domain Member user@domain1 AS group+you@domain</text><polygon fill="#0000FF" points="406.5,380.9727,396.5,384.9727,406.5,388.9727,402.5,384.9727" style="stroke: #0000FF; stroke-width: 1.0;"/><line style="stroke: #0000FF; stroke-width: 1.0; stroke-dasharray: 2.0,2.0;" x1="400.5" x2="1210.5" y1="384.9727" y2="384.9727"/><text fill="#000000" font-family="sans-serif" font-size="13" font-weight="bold" lengthAdjust="spacingAndGlyphs" textLength="9" x="412.5" y="380.541">7</text><text fill="#000000" font-family="sans-serif" font-size="13" lengthAdjust="spacingAndGlyphs" textLength="85" x="425.5" y="380.541">UserID Found</text><polygon fill="#FBFB77" filter="url(#f0lfhbz)" points="186,363.9727,186,388.9727,376,388.9727,376,373.9727,366,363.9727,186,363.9727" style="stroke: #A80036; stroke-width: 1.0;"/><line style="stroke: #A80036; stroke-width: 1.0;" x1="366" x2="366" y1="363.9727" y2="373.9727"/><line style="stroke: #A80036; stroke-width: 1.0;" x1="376" x2="366" y1="373.9727" y2="373.9727"/><text fill="#0000FF" font-family="sans-serif" font-size="13" lengthAdjust="spacingAndGlyphs" textLength="169" x="192" y="381.541">Alternative flow, fatal error</text><polygon fill="#0000FF" points="42.5,415.2832,32.5,419.2832,42.5,423.2832,38.5,419.2832" style="stroke: #0000FF; stroke-width: 1.0;"/><line style="stroke: #0000FF; stroke-width: 1.0; stroke-dasharray: 2.0,2.0;" x1="36.5" x2="384.5" y1="419.2832" y2="419.2832"/><text fill="#000000" font-family="sans-serif" font-size="13" font-weight="bold" lengthAdjust="spacingAndGlyphs" textLength="9" x="48.5" y="414.8516">8</text><text fill="#000000" font-family="sans-serif" font-size="13" lengthAdjust="spacingAndGlyphs" textLength="101" x="61.5" y="414.8516">Already Member</text><polygon fill="#A80036" points="406.5,444.5938,396.5,448.5938,406.5,452.5938,402.5,448.5938" style="stroke: #A80036; stroke-width: 1.0;"/><line style="stroke: #A80036; stroke-width: 1.0;" x1="400.5" x2="1215.5" y1="448.5938" y2="448.5938"/><text fill="#000000" font-family="sans-serif" font-size="13" font-weight="bold" lengthAdjust="spacingAndGlyphs" textLength="9" x="412.5" y="444.1621">9</text><text fill="#000000" font-family="sans-serif" font-size="13" lengthAdjust="spacingAndGlyphs" textLength="112" x="425.5" y="444.1621">UserID Not Found</text><polygon fill="#A80036" points="37.5,473.9043,27.5,477.9043,37.5,481.9043,33.5,477.9043" style="stroke: #A80036; stroke-width: 1.0;"/><line style="stroke: #A80036; stroke-width: 1.0;" x1="31.5" x2="384.5" y1="477.9043" y2="477.9043"/><text fill="#000000" font-family="sans-serif" font-size="13" font-weight="bold" lengthAdjust="spacingAndGlyphs" textLength="18" x="43.5" y="473.4727">10</text><text fill="#000000" font-family="sans-serif" font-size="13" lengthAdjust="spacingAndGlyphs" textLength="48" x="65.5" y="473.4727">Queued</text><rect fill="#EEEEEE" filter="url(#f0lfhbz)" height="3" style="stroke: #EEEEEE; stroke-width: 1.0;" width="1239" x="3" y="506.8701"/><line style="stroke: #000000; stroke-width: 1.0;" x1="3" x2="1242" y1="506.8701" y2="506.8701"/><line style="stroke: #000000; stroke-width: 1.0;" x1="3" x2="1242" y1="509.8701" y2="509.8701"/><rect fill="#EEEEEE" filter="url(#f0lfhbz)" height="23.3105" style="stroke: #000000; stroke-width: 2.0;" width="136" x="554.5" y="496.2148"/><text fill="#000000" font-family="sans-serif" font-size="13" font-weight="bold" lengthAdjust="spacingAndGlyphs" textLength="118" x="560.5" y="512.7832">Key Management</text><polygon fill="#A80036" points="710.5,546.5254,720.5,550.5254,710.5,554.5254,714.5,550.5254" style="stroke: #A80036; stroke-width: 1.0;"/><line style="stroke: #A80036; stroke-width: 1.0;" x1="395.5" x2="716.5" y1="550.5254" y2="550.5254"/><text fill="#000000" font-family="sans-serif" font-size="13" font-weight="bold" lengthAdjust="spacingAndGlyphs" textLength="18" x="402.5" y="546.0938">11</text><text fill="#000000" font-family="sans-serif" font-size="13" lengthAdjust="spacingAndGlyphs" textLength="281" x="424.5" y="546.0938">Have group@domain Member user@domain1</text><polygon fill="#A80036" points="401.5,575.8359,391.5,579.8359,401.5,583.8359,397.5,579.8359" style="stroke: #A80036; stroke-width: 1.0;"/><line style="stroke: #A80036; stroke-width: 1.0;" x1="395.5" x2="721.5" y1="579.8359" y2="579.8359"/><text fill="#000000" font-family="sans-serif" font-size="13" font-weight="bold" lengthAdjust="spacingAndGlyphs" textLength="18" x="407.5" y="575.4043">12</text><text fill="#000000" font-family="sans-serif" font-size="13" lengthAdjust="spacingAndGlyphs" textLength="48" x="429.5" y="575.4043">Queued</text><polygon fill="#A80036" points="1199.5,610.1465,1209.5,614.1465,1199.5,618.1465,1203.5,614.1465" style="stroke: #A80036; stroke-width: 1.0;"/><line style="stroke: #A80036; stroke-width: 1.0;" x1="732.5" x2="1205.5" y1="614.1465" y2="614.1465"/><text fill="#000000" font-family="sans-serif" font-size="13" font-weight="bold" lengthAdjust="spacingAndGlyphs" textLength="18" x="739.5" y="609.7148">13</text><text fill="#000000" font-family="sans-serif" font-size="13" lengthAdjust="spacingAndGlyphs" textLength="149" x="761.5" y="609.7148">Retrieve group@domain</text><polygon fill="#FBFB77" filter="url(#f0lfhbz)" points="507,593.1465,507,618.1465,713,618.1465,713,603.1465,703,593.1465,507,593.1465" style="stroke: #A80036; stroke-width: 1.0;"/><line style="stroke: #A80036; stroke-width: 1.0;" x1="703" x2="703" y1="593.1465" y2="603.1465"/><line style="stroke: #A80036; stroke-width: 1.0;" x1="713" x2="703" y1="603.1465" y2="603.1465"/><text fill="#000000" font-family="sans-serif" font-size="13" lengthAdjust="spacingAndGlyphs" textLength="185" x="513" y="610.7148">When copying the LDAP entry</text><polygon fill="#A80036" points="743.5,644.457,733.5,648.457,743.5,652.457,739.5,648.457" style="stroke: #A80036; stroke-width: 1.0;"/><line style="stroke: #A80036; stroke-width: 1.0;" x1="737.5" x2="1210.5" y1="648.457" y2="648.457"/><text fill="#000000" font-family="sans-serif" font-size="13" font-weight="bold" lengthAdjust="spacingAndGlyphs" textLength="18" x="749.5" y="644.0254">14</text><text fill="#000000" font-family="sans-serif" font-size="13" lengthAdjust="spacingAndGlyphs" textLength="127" x="771.5" y="644.0254">Creds MIIEVzCCAz...</text><polygon fill="#A80036" points="748.5,673.7676,738.5,677.7676,748.5,681.7676,744.5,677.7676" style="stroke: #A80036; stroke-width: 1.0;"/><line style="stroke: #A80036; stroke-width: 1.0;" x1="742.5" x2="1215.5" y1="677.7676" y2="677.7676"/><text fill="#000000" font-family="sans-serif" font-size="13" font-weight="bold" lengthAdjust="spacingAndGlyphs" textLength="18" x="754.5" y="673.3359">15</text><text fill="#000000" font-family="sans-serif" font-size="13" lengthAdjust="spacingAndGlyphs" textLength="103" x="776.5" y="673.3359">pkcs11:xxx;y;zz</text><line style="stroke: #A80036; stroke-width: 1.0;" x1="742.5" x2="784.5" y1="707.3887" y2="707.3887"/><line style="stroke: #A80036; stroke-width: 1.0;" x1="784.5" x2="784.5" y1="707.3887" y2="720.3887"/><line style="stroke: #A80036; stroke-width: 1.0;" x1="743.5" x2="784.5" y1="720.3887" y2="720.3887"/><polygon fill="#A80036" points="753.5,716.3887,743.5,720.3887,753.5,724.3887,749.5,720.3887" style="stroke: #A80036; stroke-width: 1.0;"/><text fill="#000000" font-family="sans-serif" font-size="13" font-weight="bold" lengthAdjust="spacingAndGlyphs" textLength="18" x="749.5" y="702.6465">16</text><text fill="#000000" font-family="sans-serif" font-size="13" lengthAdjust="spacingAndGlyphs" textLength="202" x="771.5" y="702.6465">Pick a group-internal MemberID</text><polygon fill="#A80036" points="1199.5,745.3887,1209.5,749.3887,1199.5,753.3887,1203.5,749.3887" style="stroke: #A80036; stroke-width: 1.0;"/><line style="stroke: #A80036; stroke-width: 1.0;" x1="732.5" x2="1205.5" y1="749.3887" y2="749.3887"/><text fill="#000000" font-family="sans-serif" font-size="13" font-weight="bold" lengthAdjust="spacingAndGlyphs" textLength="18" x="739.5" y="744.957">17</text><text fill="#000000" font-family="sans-serif" font-size="13" lengthAdjust="spacingAndGlyphs" textLength="433" x="761.5" y="744.957">Have group@domain Member user@domain1 AS group+you@domain</text><polygon fill="#A80036" points="1199.5,774.6992,1209.5,778.6992,1199.5,782.6992,1203.5,778.6992" style="stroke: #A80036; stroke-width: 1.0;"/><line style="stroke: #A80036; stroke-width: 1.0;" x1="732.5" x2="1205.5" y1="778.6992" y2="778.6992"/><text fill="#000000" font-family="sans-serif" font-size="13" font-weight="bold" lengthAdjust="spacingAndGlyphs" textLength="18" x="739.5" y="774.2676">18</text><text fill="#000000" font-family="sans-serif" font-size="13" lengthAdjust="spacingAndGlyphs" textLength="342" x="761.5" y="774.2676">Have Creds for user@domain1 AS group+you@domain</text><polygon fill="#A80036" points="1199.5,809.0098,1209.5,813.0098,1199.5,817.0098,1203.5,813.0098" style="stroke: #A80036; stroke-width: 1.0;"/><line style="stroke: #A80036; stroke-width: 1.0;" x1="732.5" x2="1205.5" y1="813.0098" y2="813.0098"/><text fill="#000000" font-family="sans-serif" font-size="13" font-weight="bold" lengthAdjust="spacingAndGlyphs" textLength="18" x="739.5" y="808.5781">19</text><text fill="#000000" font-family="sans-serif" font-size="13" lengthAdjust="spacingAndGlyphs" textLength="406" x="761.5" y="808.5781">Have pkcs11:xxx;y;zz XS user@domain1 AS group+you@domain</text><polygon fill="#FBFB77" filter="url(#f0lfhbz)" points="542,792.0098,542,817.0098,713,817.0098,713,802.0098,703,792.0098,542,792.0098" style="stroke: #A80036; stroke-width: 1.0;"/><line style="stroke: #A80036; stroke-width: 1.0;" x1="703" x2="703" y1="792.0098" y2="802.0098"/><line style="stroke: #A80036; stroke-width: 1.0;" x1="713" x2="703" y1="802.0098" y2="802.0098"/><text fill="#000000" font-family="sans-serif" font-size="13" lengthAdjust="spacingAndGlyphs" textLength="150" x="548" y="809.5781">Or share the LDAP entry</text><polygon fill="#A80036" points="738.5,843.3203,728.5,847.3203,738.5,851.3203,734.5,847.3203" style="stroke: #A80036; stroke-width: 1.0;"/><line style="stroke: #A80036; stroke-width: 1.0;" x1="732.5" x2="1215.5" y1="847.3203" y2="847.3203"/><text fill="#000000" font-family="sans-serif" font-size="13" font-weight="bold" lengthAdjust="spacingAndGlyphs" textLength="18" x="744.5" y="842.8887">20</text><text fill="#000000" font-family="sans-serif" font-size="13" lengthAdjust="spacingAndGlyphs" textLength="37" x="766.5" y="842.8887">Ready</text></g></svg>