<?xml version="1.0" encoding="UTF-8" standalone="no"?><svg xmlns="http://www.w3.org/2000/svg" xmlns:xlink="http://www.w3.org/1999/xlink" contentScriptType="application/ecmascript" contentStyleType="text/css" height="1045px" preserveAspectRatio="none" style="width:1025px;height:1045px;" version="1.1" viewBox="0 0 1025 1045" width="1025px" zoomAndPan="magnify"><defs><filter height="300%" id="fxuee97" width="300%" x="-1" y="-1"><feGaussianBlur result="blurOut" stdDeviation="2.0"/><feColorMatrix in="blurOut" result="blurOut2" type="matrix" values="0 0 0 0 0 0 0 0 0 0 0 0 0 0 0 0 0 0 .4 0"/><feOffset dx="4.0" dy="4.0" in="blurOut2" result="blurOut3"/><feBlend in="SourceGraphic" in2="blurOut3" mode="normal"/></filter></defs><g><rect fill="#FFFFFF" filter="url(#fxuee97)" height="294.7949" style="stroke: #A80036; stroke-width: 1.0;" width="10" x="21.5" y="96.4883"/><rect fill="#FFFFFF" filter="url(#fxuee97)" height="58.6211" style="stroke: #A80036; stroke-width: 1.0;" width="10" x="80" y="117.4883"/><rect fill="#FFFFFF" filter="url(#fxuee97)" height="353.416" style="stroke: #A80036; stroke-width: 1.0;" width="10" x="277" y="96.4883"/><rect fill="#FFFFFF" filter="url(#fxuee97)" height="551.2793" style="stroke: #A80036; stroke-width: 1.0;" width="10" x="490" y="391.2832"/><rect fill="#FFFFFF" filter="url(#fxuee97)" height="28" style="stroke: #A80036; stroke-width: 1.0;" width="10" x="495" y="692.3887"/><rect fill="#FFFFFF" filter="url(#fxuee97)" height="58.6211" style="stroke: #A80036; stroke-width: 1.0;" width="10" x="729" y="176.1094"/><rect fill="#FFFFFF" filter="url(#fxuee97)" height="175.8633" style="stroke: #A80036; stroke-width: 1.0;" width="10" x="834" y="479.2148"/><rect fill="#FFFFFF" filter="url(#fxuee97)" height="87.9316" style="stroke: #A80036; stroke-width: 1.0;" width="10" x="898" y="449.9043"/><rect fill="#FFFFFF" filter="url(#fxuee97)" height="127.2422" style="stroke: #A80036; stroke-width: 1.0;" width="10" x="946.5" y="234.7305"/><rect fill="#FFFFFF" filter="url(#fxuee97)" height="250.1738" style="stroke: #A80036; stroke-width: 1.0;" width="10" x="946.5" y="692.3887"/><rect fill="#FFFFFF" filter="url(#fxuee97)" height="68.6211" style="stroke: #A80036; stroke-width: 1.0;" width="10" x="995" y="844.6309"/><line style="stroke: #A80036; stroke-width: 1.0; stroke-dasharray: 5.0,5.0;" x1="26" x2="26" y1="86.4883" y2="960.873"/><line style="stroke: #A80036; stroke-width: 1.0; stroke-dasharray: 5.0,5.0;" x1="85" x2="85" y1="86.4883" y2="960.873"/><line style="stroke: #A80036; stroke-width: 1.0; stroke-dasharray: 5.0,5.0;" x1="281.5" x2="281.5" y1="86.4883" y2="960.873"/><line style="stroke: #A80036; stroke-width: 1.0; stroke-dasharray: 5.0,5.0;" x1="495" x2="495" y1="86.4883" y2="960.873"/><line style="stroke: #A80036; stroke-width: 1.0; stroke-dasharray: 5.0,5.0;" x1="733.5" x2="733.5" y1="86.4883" y2="960.873"/><line style="stroke: #A80036; stroke-width: 1.0; stroke-dasharray: 5.0,5.0;" x1="839" x2="839" y1="86.4883" y2="960.873"/><line style="stroke: #A80036; stroke-width: 1.0; stroke-dasharray: 5.0,5.0;" x1="903" x2="903" y1="86.4883" y2="960.873"/><line style="stroke: #A80036; stroke-width: 1.0; stroke-dasharray: 5.0,5.0;" x1="951" x2="951" y1="86.4883" y2="960.873"/><line style="stroke: #A80036; stroke-width: 1.0; stroke-dasharray: 5.0,5.0;" x1="1000" x2="1000" y1="86.4883" y2="960.873"/><text fill="#000000" font-family="sans-serif" font-size="14" lengthAdjust="spacingAndGlyphs" textLength="31" x="8" y="83.5352">User</text><ellipse cx="26.5" cy="13" fill="#FEFECE" filter="url(#fxuee97)" rx="8" ry="8" style="stroke: #A80036; stroke-width: 2.0;"/><path d="M26.5,21 L26.5,48 M13.5,29 L39.5,29 M26.5,48 L13.5,63 M26.5,48 L39.5,63 " fill="#FEFECE" filter="url(#fxuee97)" style="stroke: #A80036; stroke-width: 2.0;"/><text fill="#000000" font-family="sans-serif" font-size="14" lengthAdjust="spacingAndGlyphs" textLength="31" x="8" y="973.4082">User</text><ellipse cx="26.5" cy="986.3613" fill="#FEFECE" filter="url(#fxuee97)" rx="8" ry="8" style="stroke: #A80036; stroke-width: 2.0;"/><path d="M26.5,994.3613 L26.5,1021.3613 M13.5,1002.3613 L39.5,1002.3613 M26.5,1021.3613 L13.5,1036.3613 M26.5,1021.3613 L39.5,1036.3613 " fill="#FEFECE" filter="url(#fxuee97)" style="stroke: #A80036; stroke-width: 2.0;"/><rect fill="#FEFECE" filter="url(#fxuee97)" height="30.4883" style="stroke: #A80036; stroke-width: 1.5;" width="56" x="55" y="51"/><text fill="#000000" font-family="sans-serif" font-size="14" lengthAdjust="spacingAndGlyphs" textLength="42" x="62" y="71.5352">Authn</text><rect fill="#FEFECE" filter="url(#fxuee97)" height="30.4883" style="stroke: #A80036; stroke-width: 1.5;" width="56" x="55" y="959.873"/><text fill="#000000" font-family="sans-serif" font-size="14" lengthAdjust="spacingAndGlyphs" textLength="42" x="62" y="980.4082">Authn</text><rect fill="#FEFECE" filter="url(#fxuee97)" height="30.4883" style="stroke: #A80036; stroke-width: 1.5;" width="111" x="224.5" y="51"/><text fill="#000000" font-family="sans-serif" font-size="14" lengthAdjust="spacingAndGlyphs" textLength="97" x="231.5" y="71.5352">IdHub Control</text><rect fill="#FEFECE" filter="url(#fxuee97)" height="30.4883" style="stroke: #A80036; stroke-width: 1.5;" width="111" x="224.5" y="959.873"/><text fill="#000000" font-family="sans-serif" font-size="14" lengthAdjust="spacingAndGlyphs" textLength="97" x="231.5" y="980.4082">IdHub Control</text><rect fill="#FEFECE" filter="url(#fxuee97)" height="30.4883" style="stroke: #A80036; stroke-width: 1.5;" width="102" x="442" y="51"/><text fill="#000000" font-family="sans-serif" font-size="14" lengthAdjust="spacingAndGlyphs" textLength="88" x="449" y="71.5352">Key Manager</text><rect fill="#FEFECE" filter="url(#fxuee97)" height="30.4883" style="stroke: #A80036; stroke-width: 1.5;" width="102" x="442" y="959.873"/><text fill="#000000" font-family="sans-serif" font-size="14" lengthAdjust="spacingAndGlyphs" textLength="88" x="449" y="980.4082">Key Manager</text><rect fill="#FEFECE" filter="url(#fxuee97)" height="30.4883" style="stroke: #A80036; stroke-width: 1.5;" width="55" x="704.5" y="51"/><text fill="#000000" font-family="sans-serif" font-size="14" lengthAdjust="spacingAndGlyphs" textLength="41" x="711.5" y="71.5352">Authz</text><rect fill="#FEFECE" filter="url(#fxuee97)" height="30.4883" style="stroke: #A80036; stroke-width: 1.5;" width="55" x="704.5" y="959.873"/><text fill="#000000" font-family="sans-serif" font-size="14" lengthAdjust="spacingAndGlyphs" textLength="41" x="711.5" y="980.4082">Authz</text><text fill="#000000" font-family="sans-serif" font-size="14" lengthAdjust="spacingAndGlyphs" textLength="66" x="803" y="83.5352">PKCS #11</text><path d="M821,34 C821,24 839,24 839,24 C839,24 857,24 857,34 L857,60 C857,70 839,70 839,70 C839,70 821,70 821,60 L821,34 " fill="#FEFECE" filter="url(#fxuee97)" style="stroke: #000000; stroke-width: 1.5;"/><path d="M821,34 C821,44 839,44 839,44 C839,44 857,44 857,34 " fill="none" style="stroke: #000000; stroke-width: 1.5;"/><text fill="#000000" font-family="sans-serif" font-size="14" lengthAdjust="spacingAndGlyphs" textLength="66" x="803" y="973.4082">PKCS #11</text><path d="M821,986.3613 C821,976.3613 839,976.3613 839,976.3613 C839,976.3613 857,976.3613 857,986.3613 L857,1012.3613 C857,1022.3613 839,1022.3613 839,1022.3613 C839,1022.3613 821,1022.3613 821,1012.3613 L821,986.3613 " fill="#FEFECE" filter="url(#fxuee97)" style="stroke: #000000; stroke-width: 1.5;"/><path d="M821,986.3613 C821,996.3613 839,996.3613 839,996.3613 C839,996.3613 857,996.3613 857,986.3613 " fill="none" style="stroke: #000000; stroke-width: 1.5;"/><text fill="#000000" font-family="sans-serif" font-size="14" lengthAdjust="spacingAndGlyphs" textLength="29" x="885.5" y="83.5352">KDC</text><path d="M885,34 C885,24 903,24 903,24 C903,24 921,24 921,34 L921,60 C921,70 903,70 903,70 C903,70 885,70 885,60 L885,34 " fill="#FEFECE" filter="url(#fxuee97)" style="stroke: #000000; stroke-width: 1.5;"/><path d="M885,34 C885,44 903,44 903,44 C903,44 921,44 921,34 " fill="none" style="stroke: #000000; stroke-width: 1.5;"/><text fill="#000000" font-family="sans-serif" font-size="14" lengthAdjust="spacingAndGlyphs" textLength="29" x="885.5" y="973.4082">KDC</text><path d="M885,986.3613 C885,976.3613 903,976.3613 903,976.3613 C903,976.3613 921,976.3613 921,986.3613 L921,1012.3613 C921,1022.3613 903,1022.3613 903,1022.3613 C903,1022.3613 885,1022.3613 885,1012.3613 L885,986.3613 " fill="#FEFECE" filter="url(#fxuee97)" style="stroke: #000000; stroke-width: 1.5;"/><path d="M885,986.3613 C885,996.3613 903,996.3613 903,996.3613 C903,996.3613 921,996.3613 921,986.3613 " fill="none" style="stroke: #000000; stroke-width: 1.5;"/><text fill="#000000" font-family="sans-serif" font-size="14" lengthAdjust="spacingAndGlyphs" textLength="35" x="931" y="83.5352">LDAP</text><path d="M933.5,34 C933.5,24 951.5,24 951.5,24 C951.5,24 969.5,24 969.5,34 L969.5,60 C969.5,70 951.5,70 951.5,70 C951.5,70 933.5,70 933.5,60 L933.5,34 " fill="#FEFECE" filter="url(#fxuee97)" style="stroke: #000000; stroke-width: 1.5;"/><path d="M933.5,34 C933.5,44 951.5,44 951.5,44 C951.5,44 969.5,44 969.5,34 " fill="none" style="stroke: #000000; stroke-width: 1.5;"/><text fill="#000000" font-family="sans-serif" font-size="14" lengthAdjust="spacingAndGlyphs" textLength="35" x="931" y="973.4082">LDAP</text><path d="M933.5,986.3613 C933.5,976.3613 951.5,976.3613 951.5,976.3613 C951.5,976.3613 969.5,976.3613 969.5,986.3613 L969.5,1012.3613 C969.5,1022.3613 951.5,1022.3613 951.5,1022.3613 C951.5,1022.3613 933.5,1022.3613 933.5,1012.3613 L933.5,986.3613 " fill="#FEFECE" filter="url(#fxuee97)" style="stroke: #000000; stroke-width: 1.5;"/><path d="M933.5,986.3613 C933.5,996.3613 951.5,996.3613 951.5,996.3613 C951.5,996.3613 969.5,996.3613 969.5,986.3613 " fill="none" style="stroke: #000000; stroke-width: 1.5;"/><text fill="#000000" font-family="sans-serif" font-size="14" lengthAdjust="spacingAndGlyphs" textLength="28" x="983" y="83.5352">DNS</text><path d="M982,34 C982,24 1000,24 1000,24 C1000,24 1018,24 1018,34 L1018,60 C1018,70 1000,70 1000,70 C1000,70 982,70 982,60 L982,34 " fill="#FEFECE" filter="url(#fxuee97)" style="stroke: #000000; stroke-width: 1.5;"/><path d="M982,34 C982,44 1000,44 1000,44 C1000,44 1018,44 1018,34 " fill="none" style="stroke: #000000; stroke-width: 1.5;"/><text fill="#000000" font-family="sans-serif" font-size="14" lengthAdjust="spacingAndGlyphs" textLength="28" x="983" y="973.4082">DNS</text><path d="M982,986.3613 C982,976.3613 1000,976.3613 1000,976.3613 C1000,976.3613 1018,976.3613 1018,986.3613 L1018,1012.3613 C1018,1022.3613 1000,1022.3613 1000,1022.3613 C1000,1022.3613 982,1022.3613 982,1012.3613 L982,986.3613 " fill="#FEFECE" filter="url(#fxuee97)" style="stroke: #000000; stroke-width: 1.5;"/><path d="M982,986.3613 C982,996.3613 1000,996.3613 1000,996.3613 C1000,996.3613 1018,996.3613 1018,986.3613 " fill="none" style="stroke: #000000; stroke-width: 1.5;"/><rect fill="#FFFFFF" filter="url(#fxuee97)" height="294.7949" style="stroke: #A80036; stroke-width: 1.0;" width="10" x="21.5" y="96.4883"/><rect fill="#FFFFFF" filter="url(#fxuee97)" height="58.6211" style="stroke: #A80036; stroke-width: 1.0;" width="10" x="80" y="117.4883"/><rect fill="#FFFFFF" filter="url(#fxuee97)" height="353.416" style="stroke: #A80036; stroke-width: 1.0;" width="10" x="277" y="96.4883"/><rect fill="#FFFFFF" filter="url(#fxuee97)" height="551.2793" style="stroke: #A80036; stroke-width: 1.0;" width="10" x="490" y="391.2832"/><rect fill="#FFFFFF" filter="url(#fxuee97)" height="28" style="stroke: #A80036; stroke-width: 1.0;" width="10" x="495" y="692.3887"/><rect fill="#FFFFFF" filter="url(#fxuee97)" height="58.6211" style="stroke: #A80036; stroke-width: 1.0;" width="10" x="729" y="176.1094"/><rect fill="#FFFFFF" filter="url(#fxuee97)" height="175.8633" style="stroke: #A80036; stroke-width: 1.0;" width="10" x="834" y="479.2148"/><rect fill="#FFFFFF" filter="url(#fxuee97)" height="87.9316" style="stroke: #A80036; stroke-width: 1.0;" width="10" x="898" y="449.9043"/><rect fill="#FFFFFF" filter="url(#fxuee97)" height="127.2422" style="stroke: #A80036; stroke-width: 1.0;" width="10" x="946.5" y="234.7305"/><rect fill="#FFFFFF" filter="url(#fxuee97)" height="250.1738" style="stroke: #A80036; stroke-width: 1.0;" width="10" x="946.5" y="692.3887"/><rect fill="#FFFFFF" filter="url(#fxuee97)" height="68.6211" style="stroke: #A80036; stroke-width: 1.0;" width="10" x="995" y="844.6309"/><polygon fill="#A80036" points="265,113.4883,275,117.4883,265,121.4883,269,117.4883" style="stroke: #A80036; stroke-width: 1.0;"/><line style="stroke: #A80036; stroke-width: 1.0;" x1="31.5" x2="271" y1="117.4883" y2="117.4883"/><text fill="#000000" font-family="sans-serif" font-size="13" font-weight="bold" lengthAdjust="spacingAndGlyphs" textLength="9" x="38.5" y="113.0566">1</text><text fill="#000000" font-family="sans-serif" font-size="13" lengthAdjust="spacingAndGlyphs" textLength="195" x="51.5" y="113.0566">Pseudonym Add psew@domain</text><polygon fill="#A80036" points="101,142.7988,91,146.7988,101,150.7988,97,146.7988" style="stroke: #A80036; stroke-width: 1.0;"/><line style="stroke: #A80036; stroke-width: 1.0;" x1="95" x2="276" y1="146.7988" y2="146.7988"/><text fill="#000000" font-family="sans-serif" font-size="13" font-weight="bold" lengthAdjust="spacingAndGlyphs" textLength="9" x="107" y="142.3672">2</text><text fill="#000000" font-family="sans-serif" font-size="13" lengthAdjust="spacingAndGlyphs" textLength="136" x="120" y="142.3672">SecureLayer @domain</text><polygon fill="#A80036" points="265,172.1094,275,176.1094,265,180.1094,269,176.1094" style="stroke: #A80036; stroke-width: 1.0;"/><line style="stroke: #A80036; stroke-width: 1.0;" x1="85" x2="271" y1="176.1094" y2="176.1094"/><text fill="#000000" font-family="sans-serif" font-size="13" font-weight="bold" lengthAdjust="spacingAndGlyphs" textLength="9" x="92" y="171.6777">3</text><text fill="#000000" font-family="sans-serif" font-size="13" lengthAdjust="spacingAndGlyphs" textLength="150" x="105" y="171.6777">RemoteID user@domain</text><polygon fill="#A80036" points="717,201.4199,727,205.4199,717,209.4199,721,205.4199" style="stroke: #A80036; stroke-width: 1.0;"/><line style="stroke: #A80036; stroke-width: 1.0;" x1="287" x2="723" y1="205.4199" y2="205.4199"/><text fill="#000000" font-family="sans-serif" font-size="13" font-weight="bold" lengthAdjust="spacingAndGlyphs" textLength="9" x="294" y="200.9883">4</text><text fill="#000000" font-family="sans-serif" font-size="13" lengthAdjust="spacingAndGlyphs" textLength="383" x="307" y="200.9883">WANT pseudonym-create ON user@domain AS user@domain</text><polygon fill="#A80036" points="298,230.7305,288,234.7305,298,238.7305,294,234.7305" style="stroke: #A80036; stroke-width: 1.0;"/><line style="stroke: #A80036; stroke-width: 1.0;" x1="292" x2="733" y1="234.7305" y2="234.7305"/><text fill="#000000" font-family="sans-serif" font-size="13" font-weight="bold" lengthAdjust="spacingAndGlyphs" textLength="9" x="304" y="230.2988">5</text><text fill="#000000" font-family="sans-serif" font-size="13" lengthAdjust="spacingAndGlyphs" textLength="144" x="317" y="230.2988">OK FOR user1@domain</text><polygon fill="#A80036" points="934.5,260.041,944.5,264.041,934.5,268.041,938.5,264.041" style="stroke: #A80036; stroke-width: 1.0;"/><line style="stroke: #A80036; stroke-width: 1.0;" x1="287" x2="940.5" y1="264.041" y2="264.041"/><text fill="#000000" font-family="sans-serif" font-size="13" font-weight="bold" lengthAdjust="spacingAndGlyphs" textLength="9" x="294" y="259.6094">6</text><text fill="#000000" font-family="sans-serif" font-size="13" lengthAdjust="spacingAndGlyphs" textLength="267" x="307" y="259.6094">Compare psew@domain AS user1@domain</text><polygon fill="#0000FF" points="298,294.3516,288,298.3516,298,302.3516,294,298.3516" style="stroke: #0000FF; stroke-width: 1.0;"/><line style="stroke: #0000FF; stroke-width: 1.0; stroke-dasharray: 2.0,2.0;" x1="292" x2="945.5" y1="298.3516" y2="298.3516"/><text fill="#000000" font-family="sans-serif" font-size="13" font-weight="bold" lengthAdjust="spacingAndGlyphs" textLength="9" x="304" y="293.9199">7</text><text fill="#000000" font-family="sans-serif" font-size="13" lengthAdjust="spacingAndGlyphs" textLength="85" x="317" y="293.9199">UserID Found</text><polygon fill="#FBFB77" filter="url(#fxuee97)" points="78,277.3516,78,302.3516,268,302.3516,268,287.3516,258,277.3516,78,277.3516" style="stroke: #A80036; stroke-width: 1.0;"/><line style="stroke: #A80036; stroke-width: 1.0;" x1="258" x2="258" y1="277.3516" y2="287.3516"/><line style="stroke: #A80036; stroke-width: 1.0;" x1="268" x2="258" y1="287.3516" y2="287.3516"/><text fill="#0000FF" font-family="sans-serif" font-size="13" lengthAdjust="spacingAndGlyphs" textLength="169" x="84" y="294.9199">Alternative flow, fatal error</text><polygon fill="#0000FF" points="42.5,328.6621,32.5,332.6621,42.5,336.6621,38.5,332.6621" style="stroke: #0000FF; stroke-width: 1.0;"/><line style="stroke: #0000FF; stroke-width: 1.0; stroke-dasharray: 2.0,2.0;" x1="36.5" x2="276" y1="332.6621" y2="332.6621"/><text fill="#000000" font-family="sans-serif" font-size="13" font-weight="bold" lengthAdjust="spacingAndGlyphs" textLength="9" x="48.5" y="328.2305">8</text><text fill="#000000" font-family="sans-serif" font-size="13" lengthAdjust="spacingAndGlyphs" textLength="89" x="61.5" y="328.2305">Already Exists</text><polygon fill="#A80036" points="298,357.9727,288,361.9727,298,365.9727,294,361.9727" style="stroke: #A80036; stroke-width: 1.0;"/><line style="stroke: #A80036; stroke-width: 1.0;" x1="292" x2="950.5" y1="361.9727" y2="361.9727"/><text fill="#000000" font-family="sans-serif" font-size="13" font-weight="bold" lengthAdjust="spacingAndGlyphs" textLength="9" x="304" y="357.541">9</text><text fill="#000000" font-family="sans-serif" font-size="13" lengthAdjust="spacingAndGlyphs" textLength="112" x="317" y="357.541">UserID Not Found</text><polygon fill="#A80036" points="37.5,387.2832,27.5,391.2832,37.5,395.2832,33.5,391.2832" style="stroke: #A80036; stroke-width: 1.0;"/><line style="stroke: #A80036; stroke-width: 1.0;" x1="31.5" x2="276" y1="391.2832" y2="391.2832"/><text fill="#000000" font-family="sans-serif" font-size="13" font-weight="bold" lengthAdjust="spacingAndGlyphs" textLength="18" x="43.5" y="386.8516">10</text><text fill="#000000" font-family="sans-serif" font-size="13" lengthAdjust="spacingAndGlyphs" textLength="48" x="65.5" y="386.8516">Queued</text><polygon fill="#A80036" points="478,416.5938,488,420.5938,478,424.5938,482,420.5938" style="stroke: #A80036; stroke-width: 1.0;"/><line style="stroke: #A80036; stroke-width: 1.0;" x1="287" x2="484" y1="420.5938" y2="420.5938"/><text fill="#000000" font-family="sans-serif" font-size="13" font-weight="bold" lengthAdjust="spacingAndGlyphs" textLength="18" x="294" y="416.1621">11</text><text fill="#000000" font-family="sans-serif" font-size="13" lengthAdjust="spacingAndGlyphs" textLength="157" x="316" y="416.1621">Have User psew@domain</text><polygon fill="#A80036" points="293,445.9043,283,449.9043,293,453.9043,289,449.9043" style="stroke: #A80036; stroke-width: 1.0;"/><line style="stroke: #A80036; stroke-width: 1.0;" x1="287" x2="489" y1="449.9043" y2="449.9043"/><text fill="#000000" font-family="sans-serif" font-size="13" font-weight="bold" lengthAdjust="spacingAndGlyphs" textLength="18" x="299" y="445.4727">12</text><text fill="#000000" font-family="sans-serif" font-size="13" lengthAdjust="spacingAndGlyphs" textLength="48" x="321" y="445.4727">Queued</text><polygon fill="#A80036" points="886,475.2148,896,479.2148,886,483.2148,890,479.2148" style="stroke: #A80036; stroke-width: 1.0;"/><line style="stroke: #A80036; stroke-width: 1.0;" x1="500" x2="892" y1="479.2148" y2="479.2148"/><text fill="#000000" font-family="sans-serif" font-size="13" font-weight="bold" lengthAdjust="spacingAndGlyphs" textLength="18" x="507" y="474.7832">13</text><text fill="#000000" font-family="sans-serif" font-size="13" lengthAdjust="spacingAndGlyphs" textLength="183" x="529" y="474.7832">Have Principal psew@domain</text><polygon fill="#A80036" points="822,504.5254,832,508.5254,822,512.5254,826,508.5254" style="stroke: #A80036; stroke-width: 1.0;"/><line style="stroke: #A80036; stroke-width: 1.0;" x1="500" x2="828" y1="508.5254" y2="508.5254"/><text fill="#000000" font-family="sans-serif" font-size="13" font-weight="bold" lengthAdjust="spacingAndGlyphs" textLength="18" x="507" y="504.0938">14</text><text fill="#000000" font-family="sans-serif" font-size="13" lengthAdjust="spacingAndGlyphs" textLength="288" x="529" y="504.0938">Have Layer psew@domain FOR user1@domain</text><polygon fill="#A80036" points="511,533.8359,501,537.8359,511,541.8359,507,537.8359" style="stroke: #A80036; stroke-width: 1.0;"/><line style="stroke: #A80036; stroke-width: 1.0;" x1="505" x2="902" y1="537.8359" y2="537.8359"/><text fill="#000000" font-family="sans-serif" font-size="13" font-weight="bold" lengthAdjust="spacingAndGlyphs" textLength="18" x="517" y="533.4043">15</text><text fill="#000000" font-family="sans-serif" font-size="13" lengthAdjust="spacingAndGlyphs" textLength="18" x="539" y="533.4043">OK</text><polygon fill="#A80036" points="822,563.1465,832,567.1465,822,571.1465,826,567.1465" style="stroke: #A80036; stroke-width: 1.0;"/><line style="stroke: #A80036; stroke-width: 1.0;" x1="500" x2="828" y1="567.1465" y2="567.1465"/><text fill="#000000" font-family="sans-serif" font-size="13" font-weight="bold" lengthAdjust="spacingAndGlyphs" textLength="18" x="507" y="562.7148">16</text><text fill="#000000" font-family="sans-serif" font-size="13" lengthAdjust="spacingAndGlyphs" textLength="158" x="529" y="562.7148">Have Keys psew@domain</text><polygon fill="#A80036" points="511,592.457,501,596.457,511,600.457,507,596.457" style="stroke: #A80036; stroke-width: 1.0;"/><line style="stroke: #A80036; stroke-width: 1.0;" x1="505" x2="833" y1="596.457" y2="596.457"/><text fill="#000000" font-family="sans-serif" font-size="13" font-weight="bold" lengthAdjust="spacingAndGlyphs" textLength="18" x="517" y="592.0254">17</text><text fill="#000000" font-family="sans-serif" font-size="13" lengthAdjust="spacingAndGlyphs" textLength="140" x="539" y="592.0254">Made pkcs11:xxx;y;zz</text><polygon fill="#A80036" points="822,621.7676,832,625.7676,822,629.7676,826,625.7676" style="stroke: #A80036; stroke-width: 1.0;"/><line style="stroke: #A80036; stroke-width: 1.0;" x1="500" x2="828" y1="625.7676" y2="625.7676"/><text fill="#000000" font-family="sans-serif" font-size="13" font-weight="bold" lengthAdjust="spacingAndGlyphs" textLength="18" x="507" y="621.3359">18</text><text fill="#000000" font-family="sans-serif" font-size="13" lengthAdjust="spacingAndGlyphs" textLength="144" x="529" y="621.3359">Retrieve psew@domain</text><polygon fill="#A80036" points="511,651.0781,501,655.0781,511,659.0781,507,655.0781" style="stroke: #A80036; stroke-width: 1.0;"/><line style="stroke: #A80036; stroke-width: 1.0;" x1="505" x2="838" y1="655.0781" y2="655.0781"/><text fill="#000000" font-family="sans-serif" font-size="13" font-weight="bold" lengthAdjust="spacingAndGlyphs" textLength="18" x="517" y="650.6465">19</text><text fill="#000000" font-family="sans-serif" font-size="13" lengthAdjust="spacingAndGlyphs" textLength="136" x="539" y="650.6465">PubKey MIIEVzCCAz...</text><line style="stroke: #A80036; stroke-width: 1.0;" x1="505" x2="547" y1="684.6992" y2="684.6992"/><line style="stroke: #A80036; stroke-width: 1.0;" x1="547" x2="547" y1="684.6992" y2="697.6992"/><line style="stroke: #A80036; stroke-width: 1.0;" x1="506" x2="547" y1="697.6992" y2="697.6992"/><polygon fill="#A80036" points="516,693.6992,506,697.6992,516,701.6992,512,697.6992" style="stroke: #A80036; stroke-width: 1.0;"/><text fill="#000000" font-family="sans-serif" font-size="13" font-weight="bold" lengthAdjust="spacingAndGlyphs" textLength="18" x="512" y="679.957">20</text><text fill="#000000" font-family="sans-serif" font-size="13" lengthAdjust="spacingAndGlyphs" textLength="193" x="534" y="679.957">PubKey MIIEVzCCAz... to Creds</text><polygon fill="#A80036" points="934.5,752.6992,944.5,756.6992,934.5,760.6992,938.5,756.6992" style="stroke: #A80036; stroke-width: 1.0;"/><line style="stroke: #A80036; stroke-width: 1.0;" x1="500" x2="940.5" y1="756.6992" y2="756.6992"/><text fill="#000000" font-family="sans-serif" font-size="13" font-weight="bold" lengthAdjust="spacingAndGlyphs" textLength="18" x="507" y="752.2676">21</text><text fill="#000000" font-family="sans-serif" font-size="13" lengthAdjust="spacingAndGlyphs" textLength="304" x="529" y="752.2676">Have psew@domain XS public AS user1@domain</text><polygon fill="#A80036" points="934.5,782.0098,944.5,786.0098,934.5,790.0098,938.5,786.0098" style="stroke: #A80036; stroke-width: 1.0;"/><line style="stroke: #A80036; stroke-width: 1.0;" x1="500" x2="940.5" y1="786.0098" y2="786.0098"/><text fill="#000000" font-family="sans-serif" font-size="13" font-weight="bold" lengthAdjust="spacingAndGlyphs" textLength="18" x="507" y="781.5781">22</text><text fill="#000000" font-family="sans-serif" font-size="13" lengthAdjust="spacingAndGlyphs" textLength="279" x="529" y="781.5781">Pseudonym psew@domain For user@domain</text><polygon fill="#A80036" points="934.5,811.3203,944.5,815.3203,934.5,819.3203,938.5,815.3203" style="stroke: #A80036; stroke-width: 1.0;"/><line style="stroke: #A80036; stroke-width: 1.0;" x1="500" x2="940.5" y1="815.3203" y2="815.3203"/><text fill="#000000" font-family="sans-serif" font-size="13" font-weight="bold" lengthAdjust="spacingAndGlyphs" textLength="18" x="507" y="810.8887">23</text><text fill="#000000" font-family="sans-serif" font-size="13" lengthAdjust="spacingAndGlyphs" textLength="366" x="529" y="810.8887">Have Creds for psew@domain XS public AS user1@domain</text><polygon fill="#A80036" points="934.5,840.6309,944.5,844.6309,934.5,848.6309,938.5,844.6309" style="stroke: #A80036; stroke-width: 1.0;"/><line style="stroke: #A80036; stroke-width: 1.0;" x1="500" x2="940.5" y1="844.6309" y2="844.6309"/><text fill="#000000" font-family="sans-serif" font-size="13" font-weight="bold" lengthAdjust="spacingAndGlyphs" textLength="18" x="507" y="840.1992">24</text><text fill="#000000" font-family="sans-serif" font-size="13" lengthAdjust="spacingAndGlyphs" textLength="368" x="529" y="840.1992">Have pkcs11:xxx;y;zz XS psew@domain AS user1@domain</text><polygon fill="#0000FF" points="983,874.9414,993,878.9414,983,882.9414,987,878.9414" style="stroke: #0000FF; stroke-width: 1.0;"/><line style="stroke: #0000FF; stroke-width: 1.0; stroke-dasharray: 2.0,2.0;" x1="500" x2="989" y1="878.9414" y2="878.9414"/><text fill="#000000" font-family="sans-serif" font-size="13" font-weight="bold" lengthAdjust="spacingAndGlyphs" textLength="18" x="507" y="874.5098">25</text><text fill="#000000" font-family="sans-serif" font-size="13" lengthAdjust="spacingAndGlyphs" textLength="234" x="529" y="874.5098">Have TLSA records AS user1@domain</text><polygon fill="#FBFB77" filter="url(#fxuee97)" points="337,857.9414,337,882.9414,481,882.9414,481,867.9414,471,857.9414,337,857.9414" style="stroke: #A80036; stroke-width: 1.0;"/><line style="stroke: #A80036; stroke-width: 1.0;" x1="471" x2="471" y1="857.9414" y2="867.9414"/><line style="stroke: #A80036; stroke-width: 1.0;" x1="481" x2="471" y1="867.9414" y2="867.9414"/><text fill="#0000FF" font-family="sans-serif" font-size="13" lengthAdjust="spacingAndGlyphs" textLength="123" x="343" y="875.5098">TLSA only for hosts</text><polygon fill="#0000FF" points="511,909.252,501,913.252,511,917.252,507,913.252" style="stroke: #0000FF; stroke-width: 1.0;"/><line style="stroke: #0000FF; stroke-width: 1.0; stroke-dasharray: 2.0,2.0;" x1="505" x2="999" y1="913.252" y2="913.252"/><text fill="#000000" font-family="sans-serif" font-size="13" font-weight="bold" lengthAdjust="spacingAndGlyphs" textLength="18" x="517" y="908.8203">26</text><text fill="#000000" font-family="sans-serif" font-size="13" lengthAdjust="spacingAndGlyphs" textLength="48" x="539" y="908.8203">Queued</text><polygon fill="#A80036" points="506,938.5625,496,942.5625,506,946.5625,502,942.5625" style="stroke: #A80036; stroke-width: 1.0;"/><line style="stroke: #A80036; stroke-width: 1.0;" x1="500" x2="950.5" y1="942.5625" y2="942.5625"/><text fill="#000000" font-family="sans-serif" font-size="13" font-weight="bold" lengthAdjust="spacingAndGlyphs" textLength="18" x="512" y="938.1309">27</text><text fill="#000000" font-family="sans-serif" font-size="13" lengthAdjust="spacingAndGlyphs" textLength="37" x="534" y="938.1309">Ready</text></g></svg>