<?xml version="1.0" encoding="UTF-8" standalone="no"?><svg xmlns="http://www.w3.org/2000/svg" xmlns:xlink="http://www.w3.org/1999/xlink" contentScriptType="application/ecmascript" contentStyleType="text/css" height="1175px" preserveAspectRatio="none" style="width:1028px;height:1175px;" version="1.1" viewBox="0 0 1028 1175" width="1028px" zoomAndPan="magnify"><defs><filter height="300%" id="fqktpdm" width="300%" x="-1" y="-1"><feGaussianBlur result="blurOut" stdDeviation="2.0"/><feColorMatrix in="blurOut" result="blurOut2" type="matrix" values="0 0 0 0 0 0 0 0 0 0 0 0 0 0 0 0 0 0 .4 0"/><feOffset dx="4.0" dy="4.0" in="blurOut2" result="blurOut3"/><feBlend in="SourceGraphic" in2="blurOut3" mode="normal"/></filter></defs><g><rect fill="#FFFFFF" filter="url(#fqktpdm)" height="381.416" style="stroke: #A80036; stroke-width: 1.0;" width="10" x="21.5" y="96.4883"/><rect fill="#FFFFFF" filter="url(#fqktpdm)" height="101.9316" style="stroke: #A80036; stroke-width: 1.0;" width="10" x="80" y="117.4883"/><rect fill="#FFFFFF" filter="url(#fqktpdm)" height="483.3477" style="stroke: #A80036; stroke-width: 1.0;" width="10" x="277" y="96.4883"/><rect fill="#FFFFFF" filter="url(#fqktpdm)" height="594.5898" style="stroke: #A80036; stroke-width: 1.0;" width="10" x="490" y="477.9043"/><rect fill="#FFFFFF" filter="url(#fqktpdm)" height="28" style="stroke: #A80036; stroke-width: 1.0;" width="10" x="495" y="822.3203"/><rect fill="#FFFFFF" filter="url(#fqktpdm)" height="58.6211" style="stroke: #A80036; stroke-width: 1.0;" width="10" x="729" y="219.4199"/><rect fill="#FFFFFF" filter="url(#fqktpdm)" height="175.8633" style="stroke: #A80036; stroke-width: 1.0;" width="10" x="834" y="609.1465"/><rect fill="#FFFFFF" filter="url(#fqktpdm)" height="87.9316" style="stroke: #A80036; stroke-width: 1.0;" width="10" x="898" y="579.8359"/><rect fill="#FFFFFF" filter="url(#fqktpdm)" height="170.5527" style="stroke: #A80036; stroke-width: 1.0;" width="10" x="946.5" y="278.041"/><rect fill="#FFFFFF" filter="url(#fqktpdm)" height="250.1738" style="stroke: #A80036; stroke-width: 1.0;" width="10" x="946.5" y="822.3203"/><rect fill="#FFFFFF" filter="url(#fqktpdm)" height="68.6211" style="stroke: #A80036; stroke-width: 1.0;" width="10" x="995" y="974.5625"/><line style="stroke: #A80036; stroke-width: 1.0; stroke-dasharray: 5.0,5.0;" x1="26" x2="26" y1="86.4883" y2="1090.8047"/><line style="stroke: #A80036; stroke-width: 1.0; stroke-dasharray: 5.0,5.0;" x1="85" x2="85" y1="86.4883" y2="1090.8047"/><line style="stroke: #A80036; stroke-width: 1.0; stroke-dasharray: 5.0,5.0;" x1="281.5" x2="281.5" y1="86.4883" y2="1090.8047"/><line style="stroke: #A80036; stroke-width: 1.0; stroke-dasharray: 5.0,5.0;" x1="495" x2="495" y1="86.4883" y2="1090.8047"/><line style="stroke: #A80036; stroke-width: 1.0; stroke-dasharray: 5.0,5.0;" x1="733.5" x2="733.5" y1="86.4883" y2="1090.8047"/><line style="stroke: #A80036; stroke-width: 1.0; stroke-dasharray: 5.0,5.0;" x1="839" x2="839" y1="86.4883" y2="1090.8047"/><line style="stroke: #A80036; stroke-width: 1.0; stroke-dasharray: 5.0,5.0;" x1="903" x2="903" y1="86.4883" y2="1090.8047"/><line style="stroke: #A80036; stroke-width: 1.0; stroke-dasharray: 5.0,5.0;" x1="951" x2="951" y1="86.4883" y2="1090.8047"/><line style="stroke: #A80036; stroke-width: 1.0; stroke-dasharray: 5.0,5.0;" x1="1000" x2="1000" y1="86.4883" y2="1090.8047"/><text fill="#000000" font-family="sans-serif" font-size="14" lengthAdjust="spacingAndGlyphs" textLength="31" x="8" y="83.5352">User</text><ellipse cx="26.5" cy="13" fill="#FEFECE" filter="url(#fqktpdm)" rx="8" ry="8" style="stroke: #A80036; stroke-width: 2.0;"/><path d="M26.5,21 L26.5,48 M13.5,29 L39.5,29 M26.5,48 L13.5,63 M26.5,48 L39.5,63 " fill="#FEFECE" filter="url(#fqktpdm)" style="stroke: #A80036; stroke-width: 2.0;"/><text fill="#000000" font-family="sans-serif" font-size="14" lengthAdjust="spacingAndGlyphs" textLength="31" x="8" y="1103.3398">User</text><ellipse cx="26.5" cy="1116.293" fill="#FEFECE" filter="url(#fqktpdm)" rx="8" ry="8" style="stroke: #A80036; stroke-width: 2.0;"/><path d="M26.5,1124.293 L26.5,1151.293 M13.5,1132.293 L39.5,1132.293 M26.5,1151.293 L13.5,1166.293 M26.5,1151.293 L39.5,1166.293 " fill="#FEFECE" filter="url(#fqktpdm)" style="stroke: #A80036; stroke-width: 2.0;"/><rect fill="#FEFECE" filter="url(#fqktpdm)" height="30.4883" style="stroke: #A80036; stroke-width: 1.5;" width="56" x="55" y="51"/><text fill="#000000" font-family="sans-serif" font-size="14" lengthAdjust="spacingAndGlyphs" textLength="42" x="62" y="71.5352">Authn</text><rect fill="#FEFECE" filter="url(#fqktpdm)" height="30.4883" style="stroke: #A80036; stroke-width: 1.5;" width="56" x="55" y="1089.8047"/><text fill="#000000" font-family="sans-serif" font-size="14" lengthAdjust="spacingAndGlyphs" textLength="42" x="62" y="1110.3398">Authn</text><rect fill="#FEFECE" filter="url(#fqktpdm)" height="30.4883" style="stroke: #A80036; stroke-width: 1.5;" width="111" x="224.5" y="51"/><text fill="#000000" font-family="sans-serif" font-size="14" lengthAdjust="spacingAndGlyphs" textLength="97" x="231.5" y="71.5352">IdHub Control</text><rect fill="#FEFECE" filter="url(#fqktpdm)" height="30.4883" style="stroke: #A80036; stroke-width: 1.5;" width="111" x="224.5" y="1089.8047"/><text fill="#000000" font-family="sans-serif" font-size="14" lengthAdjust="spacingAndGlyphs" textLength="97" x="231.5" y="1110.3398">IdHub Control</text><rect fill="#FEFECE" filter="url(#fqktpdm)" height="30.4883" style="stroke: #A80036; stroke-width: 1.5;" width="102" x="442" y="51"/><text fill="#000000" font-family="sans-serif" font-size="14" lengthAdjust="spacingAndGlyphs" textLength="88" x="449" y="71.5352">Key Manager</text><rect fill="#FEFECE" filter="url(#fqktpdm)" height="30.4883" style="stroke: #A80036; stroke-width: 1.5;" width="102" x="442" y="1089.8047"/><text fill="#000000" font-family="sans-serif" font-size="14" lengthAdjust="spacingAndGlyphs" textLength="88" x="449" y="1110.3398">Key Manager</text><rect fill="#FEFECE" filter="url(#fqktpdm)" height="30.4883" style="stroke: #A80036; stroke-width: 1.5;" width="55" x="704.5" y="51"/><text fill="#000000" font-family="sans-serif" font-size="14" lengthAdjust="spacingAndGlyphs" textLength="41" x="711.5" y="71.5352">Authz</text><rect fill="#FEFECE" filter="url(#fqktpdm)" height="30.4883" style="stroke: #A80036; stroke-width: 1.5;" width="55" x="704.5" y="1089.8047"/><text fill="#000000" font-family="sans-serif" font-size="14" lengthAdjust="spacingAndGlyphs" textLength="41" x="711.5" y="1110.3398">Authz</text><text fill="#000000" font-family="sans-serif" font-size="14" lengthAdjust="spacingAndGlyphs" textLength="66" x="803" y="83.5352">PKCS #11</text><path d="M821,34 C821,24 839,24 839,24 C839,24 857,24 857,34 L857,60 C857,70 839,70 839,70 C839,70 821,70 821,60 L821,34 " fill="#FEFECE" filter="url(#fqktpdm)" style="stroke: #000000; stroke-width: 1.5;"/><path d="M821,34 C821,44 839,44 839,44 C839,44 857,44 857,34 " fill="none" style="stroke: #000000; stroke-width: 1.5;"/><text fill="#000000" font-family="sans-serif" font-size="14" lengthAdjust="spacingAndGlyphs" textLength="66" x="803" y="1103.3398">PKCS #11</text><path d="M821,1116.293 C821,1106.293 839,1106.293 839,1106.293 C839,1106.293 857,1106.293 857,1116.293 L857,1142.293 C857,1152.293 839,1152.293 839,1152.293 C839,1152.293 821,1152.293 821,1142.293 L821,1116.293 " fill="#FEFECE" filter="url(#fqktpdm)" style="stroke: #000000; stroke-width: 1.5;"/><path d="M821,1116.293 C821,1126.293 839,1126.293 839,1126.293 C839,1126.293 857,1126.293 857,1116.293 " fill="none" style="stroke: #000000; stroke-width: 1.5;"/><text fill="#000000" font-family="sans-serif" font-size="14" lengthAdjust="spacingAndGlyphs" textLength="29" x="885.5" y="83.5352">KDC</text><path d="M885,34 C885,24 903,24 903,24 C903,24 921,24 921,34 L921,60 C921,70 903,70 903,70 C903,70 885,70 885,60 L885,34 " fill="#FEFECE" filter="url(#fqktpdm)" style="stroke: #000000; stroke-width: 1.5;"/><path d="M885,34 C885,44 903,44 903,44 C903,44 921,44 921,34 " fill="none" style="stroke: #000000; stroke-width: 1.5;"/><text fill="#000000" font-family="sans-serif" font-size="14" lengthAdjust="spacingAndGlyphs" textLength="29" x="885.5" y="1103.3398">KDC</text><path d="M885,1116.293 C885,1106.293 903,1106.293 903,1106.293 C903,1106.293 921,1106.293 921,1116.293 L921,1142.293 C921,1152.293 903,1152.293 903,1152.293 C903,1152.293 885,1152.293 885,1142.293 L885,1116.293 " fill="#FEFECE" filter="url(#fqktpdm)" style="stroke: #000000; stroke-width: 1.5;"/><path d="M885,1116.293 C885,1126.293 903,1126.293 903,1126.293 C903,1126.293 921,1126.293 921,1116.293 " fill="none" style="stroke: #000000; stroke-width: 1.5;"/><text fill="#000000" font-family="sans-serif" font-size="14" lengthAdjust="spacingAndGlyphs" textLength="35" x="931" y="83.5352">LDAP</text><path d="M933.5,34 C933.5,24 951.5,24 951.5,24 C951.5,24 969.5,24 969.5,34 L969.5,60 C969.5,70 951.5,70 951.5,70 C951.5,70 933.5,70 933.5,60 L933.5,34 " fill="#FEFECE" filter="url(#fqktpdm)" style="stroke: #000000; stroke-width: 1.5;"/><path d="M933.5,34 C933.5,44 951.5,44 951.5,44 C951.5,44 969.5,44 969.5,34 " fill="none" style="stroke: #000000; stroke-width: 1.5;"/><text fill="#000000" font-family="sans-serif" font-size="14" lengthAdjust="spacingAndGlyphs" textLength="35" x="931" y="1103.3398">LDAP</text><path d="M933.5,1116.293 C933.5,1106.293 951.5,1106.293 951.5,1106.293 C951.5,1106.293 969.5,1106.293 969.5,1116.293 L969.5,1142.293 C969.5,1152.293 951.5,1152.293 951.5,1152.293 C951.5,1152.293 933.5,1152.293 933.5,1142.293 L933.5,1116.293 " fill="#FEFECE" filter="url(#fqktpdm)" style="stroke: #000000; stroke-width: 1.5;"/><path d="M933.5,1116.293 C933.5,1126.293 951.5,1126.293 951.5,1126.293 C951.5,1126.293 969.5,1126.293 969.5,1116.293 " fill="none" style="stroke: #000000; stroke-width: 1.5;"/><text fill="#000000" font-family="sans-serif" font-size="14" lengthAdjust="spacingAndGlyphs" textLength="28" x="983" y="83.5352">DNS</text><path d="M982,34 C982,24 1000,24 1000,24 C1000,24 1018,24 1018,34 L1018,60 C1018,70 1000,70 1000,70 C1000,70 982,70 982,60 L982,34 " fill="#FEFECE" filter="url(#fqktpdm)" style="stroke: #000000; stroke-width: 1.5;"/><path d="M982,34 C982,44 1000,44 1000,44 C1000,44 1018,44 1018,34 " fill="none" style="stroke: #000000; stroke-width: 1.5;"/><text fill="#000000" font-family="sans-serif" font-size="14" lengthAdjust="spacingAndGlyphs" textLength="28" x="983" y="1103.3398">DNS</text><path d="M982,1116.293 C982,1106.293 1000,1106.293 1000,1106.293 C1000,1106.293 1018,1106.293 1018,1116.293 L1018,1142.293 C1018,1152.293 1000,1152.293 1000,1152.293 C1000,1152.293 982,1152.293 982,1142.293 L982,1116.293 " fill="#FEFECE" filter="url(#fqktpdm)" style="stroke: #000000; stroke-width: 1.5;"/><path d="M982,1116.293 C982,1126.293 1000,1126.293 1000,1126.293 C1000,1126.293 1018,1126.293 1018,1116.293 " fill="none" style="stroke: #000000; stroke-width: 1.5;"/><rect fill="#FFFFFF" filter="url(#fqktpdm)" height="381.416" style="stroke: #A80036; stroke-width: 1.0;" width="10" x="21.5" y="96.4883"/><rect fill="#FFFFFF" filter="url(#fqktpdm)" height="101.9316" style="stroke: #A80036; stroke-width: 1.0;" width="10" x="80" y="117.4883"/><rect fill="#FFFFFF" filter="url(#fqktpdm)" height="483.3477" style="stroke: #A80036; stroke-width: 1.0;" width="10" x="277" y="96.4883"/><rect fill="#FFFFFF" filter="url(#fqktpdm)" height="594.5898" style="stroke: #A80036; stroke-width: 1.0;" width="10" x="490" y="477.9043"/><rect fill="#FFFFFF" filter="url(#fqktpdm)" height="28" style="stroke: #A80036; stroke-width: 1.0;" width="10" x="495" y="822.3203"/><rect fill="#FFFFFF" filter="url(#fqktpdm)" height="58.6211" style="stroke: #A80036; stroke-width: 1.0;" width="10" x="729" y="219.4199"/><rect fill="#FFFFFF" filter="url(#fqktpdm)" height="175.8633" style="stroke: #A80036; stroke-width: 1.0;" width="10" x="834" y="609.1465"/><rect fill="#FFFFFF" filter="url(#fqktpdm)" height="87.9316" style="stroke: #A80036; stroke-width: 1.0;" width="10" x="898" y="579.8359"/><rect fill="#FFFFFF" filter="url(#fqktpdm)" height="170.5527" style="stroke: #A80036; stroke-width: 1.0;" width="10" x="946.5" y="278.041"/><rect fill="#FFFFFF" filter="url(#fqktpdm)" height="250.1738" style="stroke: #A80036; stroke-width: 1.0;" width="10" x="946.5" y="822.3203"/><rect fill="#FFFFFF" filter="url(#fqktpdm)" height="68.6211" style="stroke: #A80036; stroke-width: 1.0;" width="10" x="995" y="974.5625"/><polygon fill="#A80036" points="265,113.4883,275,117.4883,265,121.4883,269,117.4883" style="stroke: #A80036; stroke-width: 1.0;"/><line style="stroke: #A80036; stroke-width: 1.0;" x1="31.5" x2="271" y1="117.4883" y2="117.4883"/><text fill="#000000" font-family="sans-serif" font-size="13" font-weight="bold" lengthAdjust="spacingAndGlyphs" textLength="9" x="38.5" y="113.0566">1</text><text fill="#000000" font-family="sans-serif" font-size="13" lengthAdjust="spacingAndGlyphs" textLength="195" x="51.5" y="113.0566">Pseudonym Add psew@domain</text><rect fill="#EEEEEE" filter="url(#fqktpdm)" height="3" style="stroke: #EEEEEE; stroke-width: 1.0;" width="1020" x="3" y="146.4541"/><line style="stroke: #000000; stroke-width: 1.0;" x1="3" x2="1023" y1="146.4541" y2="146.4541"/><line style="stroke: #000000; stroke-width: 1.0;" x1="3" x2="1023" y1="149.4541" y2="149.4541"/><rect fill="#EEEEEE" filter="url(#fqktpdm)" height="23.3105" style="stroke: #000000; stroke-width: 2.0;" width="117" x="454.5" y="135.7988"/><text fill="#000000" font-family="sans-serif" font-size="13" font-weight="bold" lengthAdjust="spacingAndGlyphs" textLength="99" x="460.5" y="152.3672">Access Control</text><polygon fill="#A80036" points="101,186.1094,91,190.1094,101,194.1094,97,190.1094" style="stroke: #A80036; stroke-width: 1.0;"/><line style="stroke: #A80036; stroke-width: 1.0;" x1="95" x2="276" y1="190.1094" y2="190.1094"/><text fill="#000000" font-family="sans-serif" font-size="13" font-weight="bold" lengthAdjust="spacingAndGlyphs" textLength="9" x="107" y="185.6777">2</text><text fill="#000000" font-family="sans-serif" font-size="13" lengthAdjust="spacingAndGlyphs" textLength="136" x="120" y="185.6777">SecureLayer @domain</text><polygon fill="#A80036" points="265,215.4199,275,219.4199,265,223.4199,269,219.4199" style="stroke: #A80036; stroke-width: 1.0;"/><line style="stroke: #A80036; stroke-width: 1.0;" x1="85" x2="271" y1="219.4199" y2="219.4199"/><text fill="#000000" font-family="sans-serif" font-size="13" font-weight="bold" lengthAdjust="spacingAndGlyphs" textLength="9" x="92" y="214.9883">3</text><text fill="#000000" font-family="sans-serif" font-size="13" lengthAdjust="spacingAndGlyphs" textLength="150" x="105" y="214.9883">RemoteID user@domain</text><polygon fill="#A80036" points="717,244.7305,727,248.7305,717,252.7305,721,248.7305" style="stroke: #A80036; stroke-width: 1.0;"/><line style="stroke: #A80036; stroke-width: 1.0;" x1="287" x2="723" y1="248.7305" y2="248.7305"/><text fill="#000000" font-family="sans-serif" font-size="13" font-weight="bold" lengthAdjust="spacingAndGlyphs" textLength="9" x="294" y="244.2988">4</text><text fill="#000000" font-family="sans-serif" font-size="13" lengthAdjust="spacingAndGlyphs" textLength="383" x="307" y="244.2988">WANT pseudonym-create ON user@domain AS user@domain</text><polygon fill="#A80036" points="298,274.041,288,278.041,298,282.041,294,278.041" style="stroke: #A80036; stroke-width: 1.0;"/><line style="stroke: #A80036; stroke-width: 1.0;" x1="292" x2="733" y1="278.041" y2="278.041"/><text fill="#000000" font-family="sans-serif" font-size="13" font-weight="bold" lengthAdjust="spacingAndGlyphs" textLength="9" x="304" y="273.6094">5</text><text fill="#000000" font-family="sans-serif" font-size="13" lengthAdjust="spacingAndGlyphs" textLength="144" x="317" y="273.6094">OK FOR user1@domain</text><rect fill="#EEEEEE" filter="url(#fqktpdm)" height="3" style="stroke: #EEEEEE; stroke-width: 1.0;" width="1020" x="3" y="307.0068"/><line style="stroke: #000000; stroke-width: 1.0;" x1="3" x2="1023" y1="307.0068" y2="307.0068"/><line style="stroke: #000000; stroke-width: 1.0;" x1="3" x2="1023" y1="310.0068" y2="310.0068"/><rect fill="#EEEEEE" filter="url(#fqktpdm)" height="23.3105" style="stroke: #000000; stroke-width: 2.0;" width="104" x="461" y="296.3516"/><text fill="#000000" font-family="sans-serif" font-size="13" font-weight="bold" lengthAdjust="spacingAndGlyphs" textLength="86" x="467" y="312.9199">Sanity Check</text><polygon fill="#A80036" points="934.5,346.6621,944.5,350.6621,934.5,354.6621,938.5,350.6621" style="stroke: #A80036; stroke-width: 1.0;"/><line style="stroke: #A80036; stroke-width: 1.0;" x1="287" x2="940.5" y1="350.6621" y2="350.6621"/><text fill="#000000" font-family="sans-serif" font-size="13" font-weight="bold" lengthAdjust="spacingAndGlyphs" textLength="9" x="294" y="346.2305">6</text><text fill="#000000" font-family="sans-serif" font-size="13" lengthAdjust="spacingAndGlyphs" textLength="267" x="307" y="346.2305">Compare psew@domain AS user1@domain</text><polygon fill="#0000FF" points="298,380.9727,288,384.9727,298,388.9727,294,384.9727" style="stroke: #0000FF; stroke-width: 1.0;"/><line style="stroke: #0000FF; stroke-width: 1.0; stroke-dasharray: 2.0,2.0;" x1="292" x2="945.5" y1="384.9727" y2="384.9727"/><text fill="#000000" font-family="sans-serif" font-size="13" font-weight="bold" lengthAdjust="spacingAndGlyphs" textLength="9" x="304" y="380.541">7</text><text fill="#000000" font-family="sans-serif" font-size="13" lengthAdjust="spacingAndGlyphs" textLength="85" x="317" y="380.541">UserID Found</text><polygon fill="#FBFB77" filter="url(#fqktpdm)" points="78,363.9727,78,388.9727,268,388.9727,268,373.9727,258,363.9727,78,363.9727" style="stroke: #A80036; stroke-width: 1.0;"/><line style="stroke: #A80036; stroke-width: 1.0;" x1="258" x2="258" y1="363.9727" y2="373.9727"/><line style="stroke: #A80036; stroke-width: 1.0;" x1="268" x2="258" y1="373.9727" y2="373.9727"/><text fill="#0000FF" font-family="sans-serif" font-size="13" lengthAdjust="spacingAndGlyphs" textLength="169" x="84" y="381.541">Alternative flow, fatal error</text><polygon fill="#0000FF" points="42.5,415.2832,32.5,419.2832,42.5,423.2832,38.5,419.2832" style="stroke: #0000FF; stroke-width: 1.0;"/><line style="stroke: #0000FF; stroke-width: 1.0; stroke-dasharray: 2.0,2.0;" x1="36.5" x2="276" y1="419.2832" y2="419.2832"/><text fill="#000000" font-family="sans-serif" font-size="13" font-weight="bold" lengthAdjust="spacingAndGlyphs" textLength="9" x="48.5" y="414.8516">8</text><text fill="#000000" font-family="sans-serif" font-size="13" lengthAdjust="spacingAndGlyphs" textLength="89" x="61.5" y="414.8516">Already Exists</text><polygon fill="#A80036" points="298,444.5938,288,448.5938,298,452.5938,294,448.5938" style="stroke: #A80036; stroke-width: 1.0;"/><line style="stroke: #A80036; stroke-width: 1.0;" x1="292" x2="950.5" y1="448.5938" y2="448.5938"/><text fill="#000000" font-family="sans-serif" font-size="13" font-weight="bold" lengthAdjust="spacingAndGlyphs" textLength="9" x="304" y="444.1621">9</text><text fill="#000000" font-family="sans-serif" font-size="13" lengthAdjust="spacingAndGlyphs" textLength="112" x="317" y="444.1621">UserID Not Found</text><polygon fill="#A80036" points="37.5,473.9043,27.5,477.9043,37.5,481.9043,33.5,477.9043" style="stroke: #A80036; stroke-width: 1.0;"/><line style="stroke: #A80036; stroke-width: 1.0;" x1="31.5" x2="276" y1="477.9043" y2="477.9043"/><text fill="#000000" font-family="sans-serif" font-size="13" font-weight="bold" lengthAdjust="spacingAndGlyphs" textLength="18" x="43.5" y="473.4727">10</text><text fill="#000000" font-family="sans-serif" font-size="13" lengthAdjust="spacingAndGlyphs" textLength="48" x="65.5" y="473.4727">Queued</text><rect fill="#EEEEEE" filter="url(#fqktpdm)" height="3" style="stroke: #EEEEEE; stroke-width: 1.0;" width="1020" x="3" y="506.8701"/><line style="stroke: #000000; stroke-width: 1.0;" x1="3" x2="1023" y1="506.8701" y2="506.8701"/><line style="stroke: #000000; stroke-width: 1.0;" x1="3" x2="1023" y1="509.8701" y2="509.8701"/><rect fill="#EEEEEE" filter="url(#fqktpdm)" height="23.3105" style="stroke: #000000; stroke-width: 2.0;" width="136" x="445" y="496.2148"/><text fill="#000000" font-family="sans-serif" font-size="13" font-weight="bold" lengthAdjust="spacingAndGlyphs" textLength="118" x="451" y="512.7832">Key Management</text><polygon fill="#A80036" points="478,546.5254,488,550.5254,478,554.5254,482,550.5254" style="stroke: #A80036; stroke-width: 1.0;"/><line style="stroke: #A80036; stroke-width: 1.0;" x1="287" x2="484" y1="550.5254" y2="550.5254"/><text fill="#000000" font-family="sans-serif" font-size="13" font-weight="bold" lengthAdjust="spacingAndGlyphs" textLength="18" x="294" y="546.0938">11</text><text fill="#000000" font-family="sans-serif" font-size="13" lengthAdjust="spacingAndGlyphs" textLength="157" x="316" y="546.0938">Have User psew@domain</text><polygon fill="#A80036" points="293,575.8359,283,579.8359,293,583.8359,289,579.8359" style="stroke: #A80036; stroke-width: 1.0;"/><line style="stroke: #A80036; stroke-width: 1.0;" x1="287" x2="489" y1="579.8359" y2="579.8359"/><text fill="#000000" font-family="sans-serif" font-size="13" font-weight="bold" lengthAdjust="spacingAndGlyphs" textLength="18" x="299" y="575.4043">12</text><text fill="#000000" font-family="sans-serif" font-size="13" lengthAdjust="spacingAndGlyphs" textLength="48" x="321" y="575.4043">Queued</text><polygon fill="#A80036" points="886,605.1465,896,609.1465,886,613.1465,890,609.1465" style="stroke: #A80036; stroke-width: 1.0;"/><line style="stroke: #A80036; stroke-width: 1.0;" x1="500" x2="892" y1="609.1465" y2="609.1465"/><text fill="#000000" font-family="sans-serif" font-size="13" font-weight="bold" lengthAdjust="spacingAndGlyphs" textLength="18" x="507" y="604.7148">13</text><text fill="#000000" font-family="sans-serif" font-size="13" lengthAdjust="spacingAndGlyphs" textLength="183" x="529" y="604.7148">Have Principal psew@domain</text><polygon fill="#A80036" points="822,634.457,832,638.457,822,642.457,826,638.457" style="stroke: #A80036; stroke-width: 1.0;"/><line style="stroke: #A80036; stroke-width: 1.0;" x1="500" x2="828" y1="638.457" y2="638.457"/><text fill="#000000" font-family="sans-serif" font-size="13" font-weight="bold" lengthAdjust="spacingAndGlyphs" textLength="18" x="507" y="634.0254">14</text><text fill="#000000" font-family="sans-serif" font-size="13" lengthAdjust="spacingAndGlyphs" textLength="288" x="529" y="634.0254">Have Layer psew@domain FOR user1@domain</text><polygon fill="#A80036" points="511,663.7676,501,667.7676,511,671.7676,507,667.7676" style="stroke: #A80036; stroke-width: 1.0;"/><line style="stroke: #A80036; stroke-width: 1.0;" x1="505" x2="902" y1="667.7676" y2="667.7676"/><text fill="#000000" font-family="sans-serif" font-size="13" font-weight="bold" lengthAdjust="spacingAndGlyphs" textLength="18" x="517" y="663.3359">15</text><text fill="#000000" font-family="sans-serif" font-size="13" lengthAdjust="spacingAndGlyphs" textLength="18" x="539" y="663.3359">OK</text><polygon fill="#A80036" points="822,693.0781,832,697.0781,822,701.0781,826,697.0781" style="stroke: #A80036; stroke-width: 1.0;"/><line style="stroke: #A80036; stroke-width: 1.0;" x1="500" x2="828" y1="697.0781" y2="697.0781"/><text fill="#000000" font-family="sans-serif" font-size="13" font-weight="bold" lengthAdjust="spacingAndGlyphs" textLength="18" x="507" y="692.6465">16</text><text fill="#000000" font-family="sans-serif" font-size="13" lengthAdjust="spacingAndGlyphs" textLength="158" x="529" y="692.6465">Have Keys psew@domain</text><polygon fill="#A80036" points="511,722.3887,501,726.3887,511,730.3887,507,726.3887" style="stroke: #A80036; stroke-width: 1.0;"/><line style="stroke: #A80036; stroke-width: 1.0;" x1="505" x2="833" y1="726.3887" y2="726.3887"/><text fill="#000000" font-family="sans-serif" font-size="13" font-weight="bold" lengthAdjust="spacingAndGlyphs" textLength="18" x="517" y="721.957">17</text><text fill="#000000" font-family="sans-serif" font-size="13" lengthAdjust="spacingAndGlyphs" textLength="140" x="539" y="721.957">Made pkcs11:xxx;y;zz</text><polygon fill="#A80036" points="822,751.6992,832,755.6992,822,759.6992,826,755.6992" style="stroke: #A80036; stroke-width: 1.0;"/><line style="stroke: #A80036; stroke-width: 1.0;" x1="500" x2="828" y1="755.6992" y2="755.6992"/><text fill="#000000" font-family="sans-serif" font-size="13" font-weight="bold" lengthAdjust="spacingAndGlyphs" textLength="18" x="507" y="751.2676">18</text><text fill="#000000" font-family="sans-serif" font-size="13" lengthAdjust="spacingAndGlyphs" textLength="144" x="529" y="751.2676">Retrieve psew@domain</text><polygon fill="#A80036" points="511,781.0098,501,785.0098,511,789.0098,507,785.0098" style="stroke: #A80036; stroke-width: 1.0;"/><line style="stroke: #A80036; stroke-width: 1.0;" x1="505" x2="838" y1="785.0098" y2="785.0098"/><text fill="#000000" font-family="sans-serif" font-size="13" font-weight="bold" lengthAdjust="spacingAndGlyphs" textLength="18" x="517" y="780.5781">19</text><text fill="#000000" font-family="sans-serif" font-size="13" lengthAdjust="spacingAndGlyphs" textLength="136" x="539" y="780.5781">PubKey MIIEVzCCAz...</text><line style="stroke: #A80036; stroke-width: 1.0;" x1="505" x2="547" y1="814.6309" y2="814.6309"/><line style="stroke: #A80036; stroke-width: 1.0;" x1="547" x2="547" y1="814.6309" y2="827.6309"/><line style="stroke: #A80036; stroke-width: 1.0;" x1="506" x2="547" y1="827.6309" y2="827.6309"/><polygon fill="#A80036" points="516,823.6309,506,827.6309,516,831.6309,512,827.6309" style="stroke: #A80036; stroke-width: 1.0;"/><text fill="#000000" font-family="sans-serif" font-size="13" font-weight="bold" lengthAdjust="spacingAndGlyphs" textLength="18" x="512" y="809.8887">20</text><text fill="#000000" font-family="sans-serif" font-size="13" lengthAdjust="spacingAndGlyphs" textLength="193" x="534" y="809.8887">PubKey MIIEVzCCAz... to Creds</text><polygon fill="#A80036" points="934.5,882.6309,944.5,886.6309,934.5,890.6309,938.5,886.6309" style="stroke: #A80036; stroke-width: 1.0;"/><line style="stroke: #A80036; stroke-width: 1.0;" x1="500" x2="940.5" y1="886.6309" y2="886.6309"/><text fill="#000000" font-family="sans-serif" font-size="13" font-weight="bold" lengthAdjust="spacingAndGlyphs" textLength="18" x="507" y="882.1992">21</text><text fill="#000000" font-family="sans-serif" font-size="13" lengthAdjust="spacingAndGlyphs" textLength="304" x="529" y="882.1992">Have psew@domain XS public AS user1@domain</text><polygon fill="#A80036" points="934.5,911.9414,944.5,915.9414,934.5,919.9414,938.5,915.9414" style="stroke: #A80036; stroke-width: 1.0;"/><line style="stroke: #A80036; stroke-width: 1.0;" x1="500" x2="940.5" y1="915.9414" y2="915.9414"/><text fill="#000000" font-family="sans-serif" font-size="13" font-weight="bold" lengthAdjust="spacingAndGlyphs" textLength="18" x="507" y="911.5098">22</text><text fill="#000000" font-family="sans-serif" font-size="13" lengthAdjust="spacingAndGlyphs" textLength="279" x="529" y="911.5098">Pseudonym psew@domain For user@domain</text><polygon fill="#A80036" points="934.5,941.252,944.5,945.252,934.5,949.252,938.5,945.252" style="stroke: #A80036; stroke-width: 1.0;"/><line style="stroke: #A80036; stroke-width: 1.0;" x1="500" x2="940.5" y1="945.252" y2="945.252"/><text fill="#000000" font-family="sans-serif" font-size="13" font-weight="bold" lengthAdjust="spacingAndGlyphs" textLength="18" x="507" y="940.8203">23</text><text fill="#000000" font-family="sans-serif" font-size="13" lengthAdjust="spacingAndGlyphs" textLength="366" x="529" y="940.8203">Have Creds for psew@domain XS public AS user1@domain</text><polygon fill="#A80036" points="934.5,970.5625,944.5,974.5625,934.5,978.5625,938.5,974.5625" style="stroke: #A80036; stroke-width: 1.0;"/><line style="stroke: #A80036; stroke-width: 1.0;" x1="500" x2="940.5" y1="974.5625" y2="974.5625"/><text fill="#000000" font-family="sans-serif" font-size="13" font-weight="bold" lengthAdjust="spacingAndGlyphs" textLength="18" x="507" y="970.1309">24</text><text fill="#000000" font-family="sans-serif" font-size="13" lengthAdjust="spacingAndGlyphs" textLength="368" x="529" y="970.1309">Have pkcs11:xxx;y;zz XS psew@domain AS user1@domain</text><polygon fill="#0000FF" points="983,1004.873,993,1008.873,983,1012.873,987,1008.873" style="stroke: #0000FF; stroke-width: 1.0;"/><line style="stroke: #0000FF; stroke-width: 1.0; stroke-dasharray: 2.0,2.0;" x1="500" x2="989" y1="1008.873" y2="1008.873"/><text fill="#000000" font-family="sans-serif" font-size="13" font-weight="bold" lengthAdjust="spacingAndGlyphs" textLength="18" x="507" y="1004.4414">25</text><text fill="#000000" font-family="sans-serif" font-size="13" lengthAdjust="spacingAndGlyphs" textLength="234" x="529" y="1004.4414">Have TLSA records AS user1@domain</text><polygon fill="#FBFB77" filter="url(#fqktpdm)" points="337,987.873,337,1012.873,481,1012.873,481,997.873,471,987.873,337,987.873" style="stroke: #A80036; stroke-width: 1.0;"/><line style="stroke: #A80036; stroke-width: 1.0;" x1="471" x2="471" y1="987.873" y2="997.873"/><line style="stroke: #A80036; stroke-width: 1.0;" x1="481" x2="471" y1="997.873" y2="997.873"/><text fill="#0000FF" font-family="sans-serif" font-size="13" lengthAdjust="spacingAndGlyphs" textLength="123" x="343" y="1005.4414">TLSA only for hosts</text><polygon fill="#0000FF" points="511,1039.1836,501,1043.1836,511,1047.1836,507,1043.1836" style="stroke: #0000FF; stroke-width: 1.0;"/><line style="stroke: #0000FF; stroke-width: 1.0; stroke-dasharray: 2.0,2.0;" x1="505" x2="999" y1="1043.1836" y2="1043.1836"/><text fill="#000000" font-family="sans-serif" font-size="13" font-weight="bold" lengthAdjust="spacingAndGlyphs" textLength="18" x="517" y="1038.752">26</text><text fill="#000000" font-family="sans-serif" font-size="13" lengthAdjust="spacingAndGlyphs" textLength="48" x="539" y="1038.752">Queued</text><polygon fill="#A80036" points="506,1068.4941,496,1072.4941,506,1076.4941,502,1072.4941" style="stroke: #A80036; stroke-width: 1.0;"/><line style="stroke: #A80036; stroke-width: 1.0;" x1="500" x2="950.5" y1="1072.4941" y2="1072.4941"/><text fill="#000000" font-family="sans-serif" font-size="13" font-weight="bold" lengthAdjust="spacingAndGlyphs" textLength="18" x="512" y="1068.0625">27</text><text fill="#000000" font-family="sans-serif" font-size="13" lengthAdjust="spacingAndGlyphs" textLength="37" x="534" y="1068.0625">Ready</text></g></svg>