<?xml version="1.0" encoding="UTF-8" standalone="no"?><svg xmlns="http://www.w3.org/2000/svg" xmlns:xlink="http://www.w3.org/1999/xlink" contentScriptType="application/ecmascript" contentStyleType="text/css" height="1025px" preserveAspectRatio="none" style="width:1020px;height:1025px;" version="1.1" viewBox="0 0 1020 1025" width="1020px" zoomAndPan="magnify"><defs><filter height="300%" id="fhz7h6q" width="300%" x="-1" y="-1"><feGaussianBlur result="blurOut" stdDeviation="2.0"/><feColorMatrix in="blurOut" result="blurOut2" type="matrix" values="0 0 0 0 0 0 0 0 0 0 0 0 0 0 0 0 0 0 .4 0"/><feOffset dx="4.0" dy="4.0" in="blurOut2" result="blurOut3"/><feBlend in="SourceGraphic" in2="blurOut3" mode="normal"/></filter></defs><g><rect fill="#FFFFFF" filter="url(#fhz7h6q)" height="58.6211" style="stroke: #A80036; stroke-width: 1.0;" width="10" x="80" y="117.4883"/><rect fill="#FFFFFF" filter="url(#fhz7h6q)" height="284.7949" style="stroke: #A80036; stroke-width: 1.0;" width="10" x="277" y="96.4883"/><rect fill="#FFFFFF" filter="url(#fhz7h6q)" height="541.2793" style="stroke: #A80036; stroke-width: 1.0;" width="10" x="485" y="381.2832"/><rect fill="#FFFFFF" filter="url(#fhz7h6q)" height="28" style="stroke: #A80036; stroke-width: 1.0;" width="10" x="490" y="682.3887"/><rect fill="#FFFFFF" filter="url(#fhz7h6q)" height="58.6211" style="stroke: #A80036; stroke-width: 1.0;" width="10" x="724" y="176.1094"/><rect fill="#FFFFFF" filter="url(#fhz7h6q)" height="175.8633" style="stroke: #A80036; stroke-width: 1.0;" width="10" x="829" y="469.2148"/><rect fill="#FFFFFF" filter="url(#fhz7h6q)" height="87.9316" style="stroke: #A80036; stroke-width: 1.0;" width="10" x="893" y="439.9043"/><rect fill="#FFFFFF" filter="url(#fhz7h6q)" height="117.2422" style="stroke: #A80036; stroke-width: 1.0;" width="10" x="941.5" y="234.7305"/><rect fill="#FFFFFF" filter="url(#fhz7h6q)" height="240.1738" style="stroke: #A80036; stroke-width: 1.0;" width="10" x="941.5" y="682.3887"/><rect fill="#FFFFFF" filter="url(#fhz7h6q)" height="58.6211" style="stroke: #A80036; stroke-width: 1.0;" width="10" x="990" y="834.6309"/><line style="stroke: #A80036; stroke-width: 1.0; stroke-dasharray: 5.0,5.0;" x1="26" x2="26" y1="86.4883" y2="940.873"/><line style="stroke: #A80036; stroke-width: 1.0; stroke-dasharray: 5.0,5.0;" x1="85" x2="85" y1="86.4883" y2="940.873"/><line style="stroke: #A80036; stroke-width: 1.0; stroke-dasharray: 5.0,5.0;" x1="281.5" x2="281.5" y1="86.4883" y2="940.873"/><line style="stroke: #A80036; stroke-width: 1.0; stroke-dasharray: 5.0,5.0;" x1="490" x2="490" y1="86.4883" y2="940.873"/><line style="stroke: #A80036; stroke-width: 1.0; stroke-dasharray: 5.0,5.0;" x1="728.5" x2="728.5" y1="86.4883" y2="940.873"/><line style="stroke: #A80036; stroke-width: 1.0; stroke-dasharray: 5.0,5.0;" x1="834" x2="834" y1="86.4883" y2="940.873"/><line style="stroke: #A80036; stroke-width: 1.0; stroke-dasharray: 5.0,5.0;" x1="898" x2="898" y1="86.4883" y2="940.873"/><line style="stroke: #A80036; stroke-width: 1.0; stroke-dasharray: 5.0,5.0;" x1="946" x2="946" y1="86.4883" y2="940.873"/><line style="stroke: #A80036; stroke-width: 1.0; stroke-dasharray: 5.0,5.0;" x1="995" x2="995" y1="86.4883" y2="940.873"/><text fill="#000000" font-family="sans-serif" font-size="14" lengthAdjust="spacingAndGlyphs" textLength="31" x="8" y="83.5352">User</text><ellipse cx="26.5" cy="13" fill="#FEFECE" filter="url(#fhz7h6q)" rx="8" ry="8" style="stroke: #A80036; stroke-width: 2.0;"/><path d="M26.5,21 L26.5,48 M13.5,29 L39.5,29 M26.5,48 L13.5,63 M26.5,48 L39.5,63 " fill="#FEFECE" filter="url(#fhz7h6q)" style="stroke: #A80036; stroke-width: 2.0;"/><text fill="#000000" font-family="sans-serif" font-size="14" lengthAdjust="spacingAndGlyphs" textLength="31" x="8" y="953.4082">User</text><ellipse cx="26.5" cy="966.3613" fill="#FEFECE" filter="url(#fhz7h6q)" rx="8" ry="8" style="stroke: #A80036; stroke-width: 2.0;"/><path d="M26.5,974.3613 L26.5,1001.3613 M13.5,982.3613 L39.5,982.3613 M26.5,1001.3613 L13.5,1016.3613 M26.5,1001.3613 L39.5,1016.3613 " fill="#FEFECE" filter="url(#fhz7h6q)" style="stroke: #A80036; stroke-width: 2.0;"/><rect fill="#FEFECE" filter="url(#fhz7h6q)" height="30.4883" style="stroke: #A80036; stroke-width: 1.5;" width="56" x="55" y="51"/><text fill="#000000" font-family="sans-serif" font-size="14" lengthAdjust="spacingAndGlyphs" textLength="42" x="62" y="71.5352">Authn</text><rect fill="#FEFECE" filter="url(#fhz7h6q)" height="30.4883" style="stroke: #A80036; stroke-width: 1.5;" width="56" x="55" y="939.873"/><text fill="#000000" font-family="sans-serif" font-size="14" lengthAdjust="spacingAndGlyphs" textLength="42" x="62" y="960.4082">Authn</text><rect fill="#FEFECE" filter="url(#fhz7h6q)" height="30.4883" style="stroke: #A80036; stroke-width: 1.5;" width="111" x="224.5" y="51"/><text fill="#000000" font-family="sans-serif" font-size="14" lengthAdjust="spacingAndGlyphs" textLength="97" x="231.5" y="71.5352">IdHub Control</text><rect fill="#FEFECE" filter="url(#fhz7h6q)" height="30.4883" style="stroke: #A80036; stroke-width: 1.5;" width="111" x="224.5" y="939.873"/><text fill="#000000" font-family="sans-serif" font-size="14" lengthAdjust="spacingAndGlyphs" textLength="97" x="231.5" y="960.4082">IdHub Control</text><rect fill="#FEFECE" filter="url(#fhz7h6q)" height="30.4883" style="stroke: #A80036; stroke-width: 1.5;" width="102" x="437" y="51"/><text fill="#000000" font-family="sans-serif" font-size="14" lengthAdjust="spacingAndGlyphs" textLength="88" x="444" y="71.5352">Key Manager</text><rect fill="#FEFECE" filter="url(#fhz7h6q)" height="30.4883" style="stroke: #A80036; stroke-width: 1.5;" width="102" x="437" y="939.873"/><text fill="#000000" font-family="sans-serif" font-size="14" lengthAdjust="spacingAndGlyphs" textLength="88" x="444" y="960.4082">Key Manager</text><rect fill="#FEFECE" filter="url(#fhz7h6q)" height="30.4883" style="stroke: #A80036; stroke-width: 1.5;" width="55" x="699.5" y="51"/><text fill="#000000" font-family="sans-serif" font-size="14" lengthAdjust="spacingAndGlyphs" textLength="41" x="706.5" y="71.5352">Authz</text><rect fill="#FEFECE" filter="url(#fhz7h6q)" height="30.4883" style="stroke: #A80036; stroke-width: 1.5;" width="55" x="699.5" y="939.873"/><text fill="#000000" font-family="sans-serif" font-size="14" lengthAdjust="spacingAndGlyphs" textLength="41" x="706.5" y="960.4082">Authz</text><text fill="#000000" font-family="sans-serif" font-size="14" lengthAdjust="spacingAndGlyphs" textLength="66" x="798" y="83.5352">PKCS #11</text><path d="M816,34 C816,24 834,24 834,24 C834,24 852,24 852,34 L852,60 C852,70 834,70 834,70 C834,70 816,70 816,60 L816,34 " fill="#FEFECE" filter="url(#fhz7h6q)" style="stroke: #000000; stroke-width: 1.5;"/><path d="M816,34 C816,44 834,44 834,44 C834,44 852,44 852,34 " fill="none" style="stroke: #000000; stroke-width: 1.5;"/><text fill="#000000" font-family="sans-serif" font-size="14" lengthAdjust="spacingAndGlyphs" textLength="66" x="798" y="953.4082">PKCS #11</text><path d="M816,966.3613 C816,956.3613 834,956.3613 834,956.3613 C834,956.3613 852,956.3613 852,966.3613 L852,992.3613 C852,1002.3613 834,1002.3613 834,1002.3613 C834,1002.3613 816,1002.3613 816,992.3613 L816,966.3613 " fill="#FEFECE" filter="url(#fhz7h6q)" style="stroke: #000000; stroke-width: 1.5;"/><path d="M816,966.3613 C816,976.3613 834,976.3613 834,976.3613 C834,976.3613 852,976.3613 852,966.3613 " fill="none" style="stroke: #000000; stroke-width: 1.5;"/><text fill="#000000" font-family="sans-serif" font-size="14" lengthAdjust="spacingAndGlyphs" textLength="29" x="880.5" y="83.5352">KDC</text><path d="M880,34 C880,24 898,24 898,24 C898,24 916,24 916,34 L916,60 C916,70 898,70 898,70 C898,70 880,70 880,60 L880,34 " fill="#FEFECE" filter="url(#fhz7h6q)" style="stroke: #000000; stroke-width: 1.5;"/><path d="M880,34 C880,44 898,44 898,44 C898,44 916,44 916,34 " fill="none" style="stroke: #000000; stroke-width: 1.5;"/><text fill="#000000" font-family="sans-serif" font-size="14" lengthAdjust="spacingAndGlyphs" textLength="29" x="880.5" y="953.4082">KDC</text><path d="M880,966.3613 C880,956.3613 898,956.3613 898,956.3613 C898,956.3613 916,956.3613 916,966.3613 L916,992.3613 C916,1002.3613 898,1002.3613 898,1002.3613 C898,1002.3613 880,1002.3613 880,992.3613 L880,966.3613 " fill="#FEFECE" filter="url(#fhz7h6q)" style="stroke: #000000; stroke-width: 1.5;"/><path d="M880,966.3613 C880,976.3613 898,976.3613 898,976.3613 C898,976.3613 916,976.3613 916,966.3613 " fill="none" style="stroke: #000000; stroke-width: 1.5;"/><text fill="#000000" font-family="sans-serif" font-size="14" lengthAdjust="spacingAndGlyphs" textLength="35" x="926" y="83.5352">LDAP</text><path d="M928.5,34 C928.5,24 946.5,24 946.5,24 C946.5,24 964.5,24 964.5,34 L964.5,60 C964.5,70 946.5,70 946.5,70 C946.5,70 928.5,70 928.5,60 L928.5,34 " fill="#FEFECE" filter="url(#fhz7h6q)" style="stroke: #000000; stroke-width: 1.5;"/><path d="M928.5,34 C928.5,44 946.5,44 946.5,44 C946.5,44 964.5,44 964.5,34 " fill="none" style="stroke: #000000; stroke-width: 1.5;"/><text fill="#000000" font-family="sans-serif" font-size="14" lengthAdjust="spacingAndGlyphs" textLength="35" x="926" y="953.4082">LDAP</text><path d="M928.5,966.3613 C928.5,956.3613 946.5,956.3613 946.5,956.3613 C946.5,956.3613 964.5,956.3613 964.5,966.3613 L964.5,992.3613 C964.5,1002.3613 946.5,1002.3613 946.5,1002.3613 C946.5,1002.3613 928.5,1002.3613 928.5,992.3613 L928.5,966.3613 " fill="#FEFECE" filter="url(#fhz7h6q)" style="stroke: #000000; stroke-width: 1.5;"/><path d="M928.5,966.3613 C928.5,976.3613 946.5,976.3613 946.5,976.3613 C946.5,976.3613 964.5,976.3613 964.5,966.3613 " fill="none" style="stroke: #000000; stroke-width: 1.5;"/><text fill="#000000" font-family="sans-serif" font-size="14" lengthAdjust="spacingAndGlyphs" textLength="28" x="978" y="83.5352">DNS</text><path d="M977,34 C977,24 995,24 995,24 C995,24 1013,24 1013,34 L1013,60 C1013,70 995,70 995,70 C995,70 977,70 977,60 L977,34 " fill="#FEFECE" filter="url(#fhz7h6q)" style="stroke: #000000; stroke-width: 1.5;"/><path d="M977,34 C977,44 995,44 995,44 C995,44 1013,44 1013,34 " fill="none" style="stroke: #000000; stroke-width: 1.5;"/><text fill="#000000" font-family="sans-serif" font-size="14" lengthAdjust="spacingAndGlyphs" textLength="28" x="978" y="953.4082">DNS</text><path d="M977,966.3613 C977,956.3613 995,956.3613 995,956.3613 C995,956.3613 1013,956.3613 1013,966.3613 L1013,992.3613 C1013,1002.3613 995,1002.3613 995,1002.3613 C995,1002.3613 977,1002.3613 977,992.3613 L977,966.3613 " fill="#FEFECE" filter="url(#fhz7h6q)" style="stroke: #000000; stroke-width: 1.5;"/><path d="M977,966.3613 C977,976.3613 995,976.3613 995,976.3613 C995,976.3613 1013,976.3613 1013,966.3613 " fill="none" style="stroke: #000000; stroke-width: 1.5;"/><rect fill="#FFFFFF" filter="url(#fhz7h6q)" height="58.6211" style="stroke: #A80036; stroke-width: 1.0;" width="10" x="80" y="117.4883"/><rect fill="#FFFFFF" filter="url(#fhz7h6q)" height="284.7949" style="stroke: #A80036; stroke-width: 1.0;" width="10" x="277" y="96.4883"/><rect fill="#FFFFFF" filter="url(#fhz7h6q)" height="541.2793" style="stroke: #A80036; stroke-width: 1.0;" width="10" x="485" y="381.2832"/><rect fill="#FFFFFF" filter="url(#fhz7h6q)" height="28" style="stroke: #A80036; stroke-width: 1.0;" width="10" x="490" y="682.3887"/><rect fill="#FFFFFF" filter="url(#fhz7h6q)" height="58.6211" style="stroke: #A80036; stroke-width: 1.0;" width="10" x="724" y="176.1094"/><rect fill="#FFFFFF" filter="url(#fhz7h6q)" height="175.8633" style="stroke: #A80036; stroke-width: 1.0;" width="10" x="829" y="469.2148"/><rect fill="#FFFFFF" filter="url(#fhz7h6q)" height="87.9316" style="stroke: #A80036; stroke-width: 1.0;" width="10" x="893" y="439.9043"/><rect fill="#FFFFFF" filter="url(#fhz7h6q)" height="117.2422" style="stroke: #A80036; stroke-width: 1.0;" width="10" x="941.5" y="234.7305"/><rect fill="#FFFFFF" filter="url(#fhz7h6q)" height="240.1738" style="stroke: #A80036; stroke-width: 1.0;" width="10" x="941.5" y="682.3887"/><rect fill="#FFFFFF" filter="url(#fhz7h6q)" height="58.6211" style="stroke: #A80036; stroke-width: 1.0;" width="10" x="990" y="834.6309"/><polygon fill="#A80036" points="265,113.4883,275,117.4883,265,121.4883,269,117.4883" style="stroke: #A80036; stroke-width: 1.0;"/><line style="stroke: #A80036; stroke-width: 1.0;" x1="26.5" x2="271" y1="117.4883" y2="117.4883"/><text fill="#000000" font-family="sans-serif" font-size="13" font-weight="bold" lengthAdjust="spacingAndGlyphs" textLength="9" x="33.5" y="113.0566">1</text><text fill="#000000" font-family="sans-serif" font-size="13" lengthAdjust="spacingAndGlyphs" textLength="195" x="46.5" y="113.0566">Pseudonym Add psew@domain</text><polygon fill="#A80036" points="101,142.7988,91,146.7988,101,150.7988,97,146.7988" style="stroke: #A80036; stroke-width: 1.0;"/><line style="stroke: #A80036; stroke-width: 1.0;" x1="95" x2="276" y1="146.7988" y2="146.7988"/><text fill="#000000" font-family="sans-serif" font-size="13" font-weight="bold" lengthAdjust="spacingAndGlyphs" textLength="9" x="107" y="142.3672">2</text><text fill="#000000" font-family="sans-serif" font-size="13" lengthAdjust="spacingAndGlyphs" textLength="136" x="120" y="142.3672">SecureLayer @domain</text><polygon fill="#A80036" points="265,172.1094,275,176.1094,265,180.1094,269,176.1094" style="stroke: #A80036; stroke-width: 1.0;"/><line style="stroke: #A80036; stroke-width: 1.0;" x1="85" x2="271" y1="176.1094" y2="176.1094"/><text fill="#000000" font-family="sans-serif" font-size="13" font-weight="bold" lengthAdjust="spacingAndGlyphs" textLength="9" x="92" y="171.6777">3</text><text fill="#000000" font-family="sans-serif" font-size="13" lengthAdjust="spacingAndGlyphs" textLength="150" x="105" y="171.6777">RemoteID user@domain</text><polygon fill="#A80036" points="712,201.4199,722,205.4199,712,209.4199,716,205.4199" style="stroke: #A80036; stroke-width: 1.0;"/><line style="stroke: #A80036; stroke-width: 1.0;" x1="287" x2="718" y1="205.4199" y2="205.4199"/><text fill="#000000" font-family="sans-serif" font-size="13" font-weight="bold" lengthAdjust="spacingAndGlyphs" textLength="9" x="294" y="200.9883">4</text><text fill="#000000" font-family="sans-serif" font-size="13" lengthAdjust="spacingAndGlyphs" textLength="383" x="307" y="200.9883">WANT pseudonym-create ON user@domain AS user@domain</text><polygon fill="#A80036" points="298,230.7305,288,234.7305,298,238.7305,294,234.7305" style="stroke: #A80036; stroke-width: 1.0;"/><line style="stroke: #A80036; stroke-width: 1.0;" x1="292" x2="728" y1="234.7305" y2="234.7305"/><text fill="#000000" font-family="sans-serif" font-size="13" font-weight="bold" lengthAdjust="spacingAndGlyphs" textLength="9" x="304" y="230.2988">5</text><text fill="#000000" font-family="sans-serif" font-size="13" lengthAdjust="spacingAndGlyphs" textLength="144" x="317" y="230.2988">OK FOR user1@domain</text><polygon fill="#A80036" points="929.5,260.041,939.5,264.041,929.5,268.041,933.5,264.041" style="stroke: #A80036; stroke-width: 1.0;"/><line style="stroke: #A80036; stroke-width: 1.0;" x1="287" x2="935.5" y1="264.041" y2="264.041"/><text fill="#000000" font-family="sans-serif" font-size="13" font-weight="bold" lengthAdjust="spacingAndGlyphs" textLength="9" x="294" y="259.6094">6</text><text fill="#000000" font-family="sans-serif" font-size="13" lengthAdjust="spacingAndGlyphs" textLength="252" x="307" y="259.6094">Search psew@domain AS user1@domain</text><polygon fill="#0000FF" points="298,289.3516,288,293.3516,298,297.3516,294,293.3516" style="stroke: #0000FF; stroke-width: 1.0;"/><line style="stroke: #0000FF; stroke-width: 1.0; stroke-dasharray: 2.0,2.0;" x1="292" x2="940.5" y1="293.3516" y2="293.3516"/><text fill="#000000" font-family="sans-serif" font-size="13" font-weight="bold" lengthAdjust="spacingAndGlyphs" textLength="9" x="304" y="288.9199">7</text><text fill="#000000" font-family="sans-serif" font-size="13" lengthAdjust="spacingAndGlyphs" textLength="85" x="317" y="288.9199">UserID Found</text><polygon fill="#0000FF" points="37.5,318.6621,27.5,322.6621,37.5,326.6621,33.5,322.6621" style="stroke: #0000FF; stroke-width: 1.0;"/><line style="stroke: #0000FF; stroke-width: 1.0; stroke-dasharray: 2.0,2.0;" x1="31.5" x2="276" y1="322.6621" y2="322.6621"/><text fill="#000000" font-family="sans-serif" font-size="13" font-weight="bold" lengthAdjust="spacingAndGlyphs" textLength="9" x="43.5" y="318.2305">8</text><text fill="#000000" font-family="sans-serif" font-size="13" lengthAdjust="spacingAndGlyphs" textLength="89" x="56.5" y="318.2305">Already Exists</text><polygon fill="#A80036" points="298,347.9727,288,351.9727,298,355.9727,294,351.9727" style="stroke: #A80036; stroke-width: 1.0;"/><line style="stroke: #A80036; stroke-width: 1.0;" x1="292" x2="945.5" y1="351.9727" y2="351.9727"/><text fill="#000000" font-family="sans-serif" font-size="13" font-weight="bold" lengthAdjust="spacingAndGlyphs" textLength="9" x="304" y="347.541">9</text><text fill="#000000" font-family="sans-serif" font-size="13" lengthAdjust="spacingAndGlyphs" textLength="112" x="317" y="347.541">UserID Not Found</text><polygon fill="#A80036" points="37.5,377.2832,27.5,381.2832,37.5,385.2832,33.5,381.2832" style="stroke: #A80036; stroke-width: 1.0;"/><line style="stroke: #A80036; stroke-width: 1.0;" x1="31.5" x2="281" y1="381.2832" y2="381.2832"/><text fill="#000000" font-family="sans-serif" font-size="13" font-weight="bold" lengthAdjust="spacingAndGlyphs" textLength="18" x="43.5" y="376.8516">10</text><text fill="#000000" font-family="sans-serif" font-size="13" lengthAdjust="spacingAndGlyphs" textLength="48" x="65.5" y="376.8516">Queued</text><polygon fill="#A80036" points="473,406.5938,483,410.5938,473,414.5938,477,410.5938" style="stroke: #A80036; stroke-width: 1.0;"/><line style="stroke: #A80036; stroke-width: 1.0;" x1="282" x2="479" y1="410.5938" y2="410.5938"/><text fill="#000000" font-family="sans-serif" font-size="13" font-weight="bold" lengthAdjust="spacingAndGlyphs" textLength="18" x="289" y="406.1621">11</text><text fill="#000000" font-family="sans-serif" font-size="13" lengthAdjust="spacingAndGlyphs" textLength="157" x="311" y="406.1621">Have User psew@domain</text><polygon fill="#A80036" points="293,435.9043,283,439.9043,293,443.9043,289,439.9043" style="stroke: #A80036; stroke-width: 1.0;"/><line style="stroke: #A80036; stroke-width: 1.0;" x1="287" x2="484" y1="439.9043" y2="439.9043"/><text fill="#000000" font-family="sans-serif" font-size="13" font-weight="bold" lengthAdjust="spacingAndGlyphs" textLength="18" x="299" y="435.4727">12</text><text fill="#000000" font-family="sans-serif" font-size="13" lengthAdjust="spacingAndGlyphs" textLength="48" x="321" y="435.4727">Queued</text><polygon fill="#A80036" points="881,465.2148,891,469.2148,881,473.2148,885,469.2148" style="stroke: #A80036; stroke-width: 1.0;"/><line style="stroke: #A80036; stroke-width: 1.0;" x1="495" x2="887" y1="469.2148" y2="469.2148"/><text fill="#000000" font-family="sans-serif" font-size="13" font-weight="bold" lengthAdjust="spacingAndGlyphs" textLength="18" x="502" y="464.7832">13</text><text fill="#000000" font-family="sans-serif" font-size="13" lengthAdjust="spacingAndGlyphs" textLength="183" x="524" y="464.7832">Have Principal psew@domain</text><polygon fill="#A80036" points="817,494.5254,827,498.5254,817,502.5254,821,498.5254" style="stroke: #A80036; stroke-width: 1.0;"/><line style="stroke: #A80036; stroke-width: 1.0;" x1="495" x2="823" y1="498.5254" y2="498.5254"/><text fill="#000000" font-family="sans-serif" font-size="13" font-weight="bold" lengthAdjust="spacingAndGlyphs" textLength="18" x="502" y="494.0938">14</text><text fill="#000000" font-family="sans-serif" font-size="13" lengthAdjust="spacingAndGlyphs" textLength="288" x="524" y="494.0938">Have Layer psew@domain FOR user1@domain</text><polygon fill="#A80036" points="506,523.8359,496,527.8359,506,531.8359,502,527.8359" style="stroke: #A80036; stroke-width: 1.0;"/><line style="stroke: #A80036; stroke-width: 1.0;" x1="500" x2="897" y1="527.8359" y2="527.8359"/><text fill="#000000" font-family="sans-serif" font-size="13" font-weight="bold" lengthAdjust="spacingAndGlyphs" textLength="18" x="512" y="523.4043">15</text><text fill="#000000" font-family="sans-serif" font-size="13" lengthAdjust="spacingAndGlyphs" textLength="18" x="534" y="523.4043">OK</text><polygon fill="#A80036" points="817,553.1465,827,557.1465,817,561.1465,821,557.1465" style="stroke: #A80036; stroke-width: 1.0;"/><line style="stroke: #A80036; stroke-width: 1.0;" x1="495" x2="823" y1="557.1465" y2="557.1465"/><text fill="#000000" font-family="sans-serif" font-size="13" font-weight="bold" lengthAdjust="spacingAndGlyphs" textLength="18" x="502" y="552.7148">16</text><text fill="#000000" font-family="sans-serif" font-size="13" lengthAdjust="spacingAndGlyphs" textLength="158" x="524" y="552.7148">Have Keys psew@domain</text><polygon fill="#A80036" points="506,582.457,496,586.457,506,590.457,502,586.457" style="stroke: #A80036; stroke-width: 1.0;"/><line style="stroke: #A80036; stroke-width: 1.0;" x1="500" x2="828" y1="586.457" y2="586.457"/><text fill="#000000" font-family="sans-serif" font-size="13" font-weight="bold" lengthAdjust="spacingAndGlyphs" textLength="18" x="512" y="582.0254">17</text><text fill="#000000" font-family="sans-serif" font-size="13" lengthAdjust="spacingAndGlyphs" textLength="140" x="534" y="582.0254">Made pkcs11:xxx;y;zz</text><polygon fill="#A80036" points="817,611.7676,827,615.7676,817,619.7676,821,615.7676" style="stroke: #A80036; stroke-width: 1.0;"/><line style="stroke: #A80036; stroke-width: 1.0;" x1="495" x2="823" y1="615.7676" y2="615.7676"/><text fill="#000000" font-family="sans-serif" font-size="13" font-weight="bold" lengthAdjust="spacingAndGlyphs" textLength="18" x="502" y="611.3359">18</text><text fill="#000000" font-family="sans-serif" font-size="13" lengthAdjust="spacingAndGlyphs" textLength="144" x="524" y="611.3359">Retrieve psew@domain</text><polygon fill="#A80036" points="506,641.0781,496,645.0781,506,649.0781,502,645.0781" style="stroke: #A80036; stroke-width: 1.0;"/><line style="stroke: #A80036; stroke-width: 1.0;" x1="500" x2="833" y1="645.0781" y2="645.0781"/><text fill="#000000" font-family="sans-serif" font-size="13" font-weight="bold" lengthAdjust="spacingAndGlyphs" textLength="18" x="512" y="640.6465">19</text><text fill="#000000" font-family="sans-serif" font-size="13" lengthAdjust="spacingAndGlyphs" textLength="136" x="534" y="640.6465">PubKey MIIEVzCCAz...</text><line style="stroke: #A80036; stroke-width: 1.0;" x1="500" x2="542" y1="674.6992" y2="674.6992"/><line style="stroke: #A80036; stroke-width: 1.0;" x1="542" x2="542" y1="674.6992" y2="687.6992"/><line style="stroke: #A80036; stroke-width: 1.0;" x1="501" x2="542" y1="687.6992" y2="687.6992"/><polygon fill="#A80036" points="511,683.6992,501,687.6992,511,691.6992,507,687.6992" style="stroke: #A80036; stroke-width: 1.0;"/><text fill="#000000" font-family="sans-serif" font-size="13" font-weight="bold" lengthAdjust="spacingAndGlyphs" textLength="18" x="507" y="669.957">20</text><text fill="#000000" font-family="sans-serif" font-size="13" lengthAdjust="spacingAndGlyphs" textLength="193" x="529" y="669.957">PubKey MIIEVzCCAz... to Creds</text><polygon fill="#A80036" points="929.5,742.6992,939.5,746.6992,929.5,750.6992,933.5,746.6992" style="stroke: #A80036; stroke-width: 1.0;"/><line style="stroke: #A80036; stroke-width: 1.0;" x1="495" x2="935.5" y1="746.6992" y2="746.6992"/><text fill="#000000" font-family="sans-serif" font-size="13" font-weight="bold" lengthAdjust="spacingAndGlyphs" textLength="18" x="502" y="742.2676">21</text><text fill="#000000" font-family="sans-serif" font-size="13" lengthAdjust="spacingAndGlyphs" textLength="304" x="524" y="742.2676">Have psew@domain XS public AS user1@domain</text><polygon fill="#A80036" points="929.5,772.0098,939.5,776.0098,929.5,780.0098,933.5,776.0098" style="stroke: #A80036; stroke-width: 1.0;"/><line style="stroke: #A80036; stroke-width: 1.0;" x1="495" x2="935.5" y1="776.0098" y2="776.0098"/><text fill="#000000" font-family="sans-serif" font-size="13" font-weight="bold" lengthAdjust="spacingAndGlyphs" textLength="18" x="502" y="771.5781">22</text><text fill="#000000" font-family="sans-serif" font-size="13" lengthAdjust="spacingAndGlyphs" textLength="279" x="524" y="771.5781">Pseudonym psew@domain For user@domain</text><polygon fill="#A80036" points="929.5,801.3203,939.5,805.3203,929.5,809.3203,933.5,805.3203" style="stroke: #A80036; stroke-width: 1.0;"/><line style="stroke: #A80036; stroke-width: 1.0;" x1="495" x2="935.5" y1="805.3203" y2="805.3203"/><text fill="#000000" font-family="sans-serif" font-size="13" font-weight="bold" lengthAdjust="spacingAndGlyphs" textLength="18" x="502" y="800.8887">23</text><text fill="#000000" font-family="sans-serif" font-size="13" lengthAdjust="spacingAndGlyphs" textLength="366" x="524" y="800.8887">Have Creds for psew@domain XS public AS user1@domain</text><polygon fill="#A80036" points="929.5,830.6309,939.5,834.6309,929.5,838.6309,933.5,834.6309" style="stroke: #A80036; stroke-width: 1.0;"/><line style="stroke: #A80036; stroke-width: 1.0;" x1="495" x2="935.5" y1="834.6309" y2="834.6309"/><text fill="#000000" font-family="sans-serif" font-size="13" font-weight="bold" lengthAdjust="spacingAndGlyphs" textLength="18" x="502" y="830.1992">24</text><text fill="#000000" font-family="sans-serif" font-size="13" lengthAdjust="spacingAndGlyphs" textLength="368" x="524" y="830.1992">Have pkcs11:xxx;y;zz XS psew@domain AS user1@domain</text><polygon fill="#0000FF" points="978,859.9414,988,863.9414,978,867.9414,982,863.9414" style="stroke: #0000FF; stroke-width: 1.0;"/><line style="stroke: #0000FF; stroke-width: 1.0; stroke-dasharray: 2.0,2.0;" x1="495" x2="984" y1="863.9414" y2="863.9414"/><text fill="#000000" font-family="sans-serif" font-size="13" font-weight="bold" lengthAdjust="spacingAndGlyphs" textLength="18" x="502" y="859.5098">25</text><text fill="#000000" font-family="sans-serif" font-size="13" lengthAdjust="spacingAndGlyphs" textLength="234" x="524" y="859.5098">Have TLSA records AS user1@domain</text><polygon fill="#0000FF" points="506,889.252,496,893.252,506,897.252,502,893.252" style="stroke: #0000FF; stroke-width: 1.0;"/><line style="stroke: #0000FF; stroke-width: 1.0; stroke-dasharray: 2.0,2.0;" x1="500" x2="994" y1="893.252" y2="893.252"/><text fill="#000000" font-family="sans-serif" font-size="13" font-weight="bold" lengthAdjust="spacingAndGlyphs" textLength="18" x="512" y="888.8203">26</text><text fill="#000000" font-family="sans-serif" font-size="13" lengthAdjust="spacingAndGlyphs" textLength="48" x="534" y="888.8203">Queued</text><polygon fill="#A80036" points="501,918.5625,491,922.5625,501,926.5625,497,922.5625" style="stroke: #A80036; stroke-width: 1.0;"/><line style="stroke: #A80036; stroke-width: 1.0;" x1="495" x2="945.5" y1="922.5625" y2="922.5625"/><text fill="#000000" font-family="sans-serif" font-size="13" font-weight="bold" lengthAdjust="spacingAndGlyphs" textLength="18" x="507" y="918.1309">27</text><text fill="#000000" font-family="sans-serif" font-size="13" lengthAdjust="spacingAndGlyphs" textLength="37" x="529" y="918.1309">Ready</text></g></svg>