<?xml version="1.0" encoding="UTF-8" standalone="no"?><svg xmlns="http://www.w3.org/2000/svg" xmlns:xlink="http://www.w3.org/1999/xlink" contentScriptType="application/ecmascript" contentStyleType="text/css" height="790px" preserveAspectRatio="none" style="width:1143px;height:790px;" version="1.1" viewBox="0 0 1143 790" width="1143px" zoomAndPan="magnify"><defs><filter height="300%" id="f37w664" width="300%" x="-1" y="-1"><feGaussianBlur result="blurOut" stdDeviation="2.0"/><feColorMatrix in="blurOut" result="blurOut2" type="matrix" values="0 0 0 0 0 0 0 0 0 0 0 0 0 0 0 0 0 0 .4 0"/><feOffset dx="4.0" dy="4.0" in="blurOut2" result="blurOut3"/><feBlend in="SourceGraphic" in2="blurOut3" mode="normal"/></filter></defs><g><rect fill="#FFFFFF" filter="url(#f37w664)" height="58.6211" style="stroke: #A80036; stroke-width: 1.0;" width="10" x="80" y="117.4883"/><rect fill="#FFFFFF" filter="url(#f37w664)" height="284.7949" style="stroke: #A80036; stroke-width: 1.0;" width="10" x="311.5" y="96.4883"/><rect fill="#FFFFFF" filter="url(#f37w664)" height="306.1055" style="stroke: #A80036; stroke-width: 1.0;" width="10" x="640.5" y="381.2832"/><rect fill="#FFFFFF" filter="url(#f37w664)" height="35.3105" style="stroke: #A80036; stroke-width: 1.0;" width="10" x="645.5" y="527.8359"/><rect fill="#FFFFFF" filter="url(#f37w664)" height="58.6211" style="stroke: #A80036; stroke-width: 1.0;" width="10" x="890.5" y="176.1094"/><rect fill="#FFFFFF" filter="url(#f37w664)" height="117.2422" style="stroke: #A80036; stroke-width: 1.0;" width="10" x="1113.5" y="234.7305"/><rect fill="#FFFFFF" filter="url(#f37w664)" height="87.9316" style="stroke: #A80036; stroke-width: 1.0;" width="10" x="1113.5" y="439.9043"/><rect fill="#FFFFFF" filter="url(#f37w664)" height="122.2422" style="stroke: #A80036; stroke-width: 1.0;" width="10" x="1113.5" y="565.1465"/><line style="stroke: #A80036; stroke-width: 1.0; stroke-dasharray: 5.0,5.0;" x1="26" x2="26" y1="86.4883" y2="705.6992"/><line style="stroke: #A80036; stroke-width: 1.0; stroke-dasharray: 5.0,5.0;" x1="85" x2="85" y1="86.4883" y2="705.6992"/><line style="stroke: #A80036; stroke-width: 1.0; stroke-dasharray: 5.0,5.0;" x1="316" x2="316" y1="86.4883" y2="705.6992"/><line style="stroke: #A80036; stroke-width: 1.0; stroke-dasharray: 5.0,5.0;" x1="645.5" x2="645.5" y1="86.4883" y2="705.6992"/><line style="stroke: #A80036; stroke-width: 1.0; stroke-dasharray: 5.0,5.0;" x1="895" x2="895" y1="86.4883" y2="705.6992"/><line style="stroke: #A80036; stroke-width: 1.0; stroke-dasharray: 5.0,5.0;" x1="1118" x2="1118" y1="86.4883" y2="705.6992"/><text fill="#000000" font-family="sans-serif" font-size="14" lengthAdjust="spacingAndGlyphs" textLength="31" x="8" y="83.5352">User</text><ellipse cx="26.5" cy="13" fill="#FEFECE" filter="url(#f37w664)" rx="8" ry="8" style="stroke: #A80036; stroke-width: 2.0;"/><path d="M26.5,21 L26.5,48 M13.5,29 L39.5,29 M26.5,48 L13.5,63 M26.5,48 L39.5,63 " fill="#FEFECE" filter="url(#f37w664)" style="stroke: #A80036; stroke-width: 2.0;"/><text fill="#000000" font-family="sans-serif" font-size="14" lengthAdjust="spacingAndGlyphs" textLength="31" x="8" y="718.2344">User</text><ellipse cx="26.5" cy="731.1875" fill="#FEFECE" filter="url(#f37w664)" rx="8" ry="8" style="stroke: #A80036; stroke-width: 2.0;"/><path d="M26.5,739.1875 L26.5,766.1875 M13.5,747.1875 L39.5,747.1875 M26.5,766.1875 L13.5,781.1875 M26.5,766.1875 L39.5,781.1875 " fill="#FEFECE" filter="url(#f37w664)" style="stroke: #A80036; stroke-width: 2.0;"/><rect fill="#FEFECE" filter="url(#f37w664)" height="30.4883" style="stroke: #A80036; stroke-width: 1.5;" width="56" x="55" y="51"/><text fill="#000000" font-family="sans-serif" font-size="14" lengthAdjust="spacingAndGlyphs" textLength="42" x="62" y="71.5352">Authn</text><rect fill="#FEFECE" filter="url(#f37w664)" height="30.4883" style="stroke: #A80036; stroke-width: 1.5;" width="56" x="55" y="704.6992"/><text fill="#000000" font-family="sans-serif" font-size="14" lengthAdjust="spacingAndGlyphs" textLength="42" x="62" y="725.2344">Authn</text><rect fill="#FEFECE" filter="url(#f37w664)" height="30.4883" style="stroke: #A80036; stroke-width: 1.5;" width="111" x="259" y="51"/><text fill="#000000" font-family="sans-serif" font-size="14" lengthAdjust="spacingAndGlyphs" textLength="97" x="266" y="71.5352">IdHub Control</text><rect fill="#FEFECE" filter="url(#f37w664)" height="30.4883" style="stroke: #A80036; stroke-width: 1.5;" width="111" x="259" y="704.6992"/><text fill="#000000" font-family="sans-serif" font-size="14" lengthAdjust="spacingAndGlyphs" textLength="97" x="266" y="725.2344">IdHub Control</text><rect fill="#FEFECE" filter="url(#f37w664)" height="30.4883" style="stroke: #A80036; stroke-width: 1.5;" width="102" x="592.5" y="51"/><text fill="#000000" font-family="sans-serif" font-size="14" lengthAdjust="spacingAndGlyphs" textLength="88" x="599.5" y="71.5352">Key Manager</text><rect fill="#FEFECE" filter="url(#f37w664)" height="30.4883" style="stroke: #A80036; stroke-width: 1.5;" width="102" x="592.5" y="704.6992"/><text fill="#000000" font-family="sans-serif" font-size="14" lengthAdjust="spacingAndGlyphs" textLength="88" x="599.5" y="725.2344">Key Manager</text><rect fill="#FEFECE" filter="url(#f37w664)" height="30.4883" style="stroke: #A80036; stroke-width: 1.5;" width="55" x="866" y="51"/><text fill="#000000" font-family="sans-serif" font-size="14" lengthAdjust="spacingAndGlyphs" textLength="41" x="873" y="71.5352">Authz</text><rect fill="#FEFECE" filter="url(#f37w664)" height="30.4883" style="stroke: #A80036; stroke-width: 1.5;" width="55" x="866" y="704.6992"/><text fill="#000000" font-family="sans-serif" font-size="14" lengthAdjust="spacingAndGlyphs" textLength="41" x="873" y="725.2344">Authz</text><text fill="#000000" font-family="sans-serif" font-size="14" lengthAdjust="spacingAndGlyphs" textLength="35" x="1098" y="83.5352">LDAP</text><path d="M1100.5,34 C1100.5,24 1118.5,24 1118.5,24 C1118.5,24 1136.5,24 1136.5,34 L1136.5,60 C1136.5,70 1118.5,70 1118.5,70 C1118.5,70 1100.5,70 1100.5,60 L1100.5,34 " fill="#FEFECE" filter="url(#f37w664)" style="stroke: #000000; stroke-width: 1.5;"/><path d="M1100.5,34 C1100.5,44 1118.5,44 1118.5,44 C1118.5,44 1136.5,44 1136.5,34 " fill="none" style="stroke: #000000; stroke-width: 1.5;"/><text fill="#000000" font-family="sans-serif" font-size="14" lengthAdjust="spacingAndGlyphs" textLength="35" x="1098" y="718.2344">LDAP</text><path d="M1100.5,731.1875 C1100.5,721.1875 1118.5,721.1875 1118.5,721.1875 C1118.5,721.1875 1136.5,721.1875 1136.5,731.1875 L1136.5,757.1875 C1136.5,767.1875 1118.5,767.1875 1118.5,767.1875 C1118.5,767.1875 1100.5,767.1875 1100.5,757.1875 L1100.5,731.1875 " fill="#FEFECE" filter="url(#f37w664)" style="stroke: #000000; stroke-width: 1.5;"/><path d="M1100.5,731.1875 C1100.5,741.1875 1118.5,741.1875 1118.5,741.1875 C1118.5,741.1875 1136.5,741.1875 1136.5,731.1875 " fill="none" style="stroke: #000000; stroke-width: 1.5;"/><rect fill="#FFFFFF" filter="url(#f37w664)" height="58.6211" style="stroke: #A80036; stroke-width: 1.0;" width="10" x="80" y="117.4883"/><rect fill="#FFFFFF" filter="url(#f37w664)" height="284.7949" style="stroke: #A80036; stroke-width: 1.0;" width="10" x="311.5" y="96.4883"/><rect fill="#FFFFFF" filter="url(#f37w664)" height="306.1055" style="stroke: #A80036; stroke-width: 1.0;" width="10" x="640.5" y="381.2832"/><rect fill="#FFFFFF" filter="url(#f37w664)" height="35.3105" style="stroke: #A80036; stroke-width: 1.0;" width="10" x="645.5" y="527.8359"/><rect fill="#FFFFFF" filter="url(#f37w664)" height="58.6211" style="stroke: #A80036; stroke-width: 1.0;" width="10" x="890.5" y="176.1094"/><rect fill="#FFFFFF" filter="url(#f37w664)" height="117.2422" style="stroke: #A80036; stroke-width: 1.0;" width="10" x="1113.5" y="234.7305"/><rect fill="#FFFFFF" filter="url(#f37w664)" height="87.9316" style="stroke: #A80036; stroke-width: 1.0;" width="10" x="1113.5" y="439.9043"/><rect fill="#FFFFFF" filter="url(#f37w664)" height="122.2422" style="stroke: #A80036; stroke-width: 1.0;" width="10" x="1113.5" y="565.1465"/><polygon fill="#A80036" points="299.5,113.4883,309.5,117.4883,299.5,121.4883,303.5,117.4883" style="stroke: #A80036; stroke-width: 1.0;"/><line style="stroke: #A80036; stroke-width: 1.0;" x1="26.5" x2="305.5" y1="117.4883" y2="117.4883"/><text fill="#000000" font-family="sans-serif" font-size="13" font-weight="bold" lengthAdjust="spacingAndGlyphs" textLength="9" x="33.5" y="113.0566">1</text><text fill="#000000" font-family="sans-serif" font-size="13" lengthAdjust="spacingAndGlyphs" textLength="248" x="46.5" y="113.0566">Role role@domain Grant user@domain1</text><polygon fill="#A80036" points="101,142.7988,91,146.7988,101,150.7988,97,146.7988" style="stroke: #A80036; stroke-width: 1.0;"/><line style="stroke: #A80036; stroke-width: 1.0;" x1="95" x2="310.5" y1="146.7988" y2="146.7988"/><text fill="#000000" font-family="sans-serif" font-size="13" font-weight="bold" lengthAdjust="spacingAndGlyphs" textLength="9" x="107" y="142.3672">2</text><text fill="#000000" font-family="sans-serif" font-size="13" lengthAdjust="spacingAndGlyphs" textLength="136" x="120" y="142.3672">SecureLayer @domain</text><polygon fill="#A80036" points="299.5,172.1094,309.5,176.1094,299.5,180.1094,303.5,176.1094" style="stroke: #A80036; stroke-width: 1.0;"/><line style="stroke: #A80036; stroke-width: 1.0;" x1="85" x2="305.5" y1="176.1094" y2="176.1094"/><text fill="#000000" font-family="sans-serif" font-size="13" font-weight="bold" lengthAdjust="spacingAndGlyphs" textLength="9" x="92" y="171.6777">3</text><text fill="#000000" font-family="sans-serif" font-size="13" lengthAdjust="spacingAndGlyphs" textLength="180" x="105" y="171.6777">RemoteID role+you@domain</text><polygon fill="#A80036" points="878.5,201.4199,888.5,205.4199,878.5,209.4199,882.5,205.4199" style="stroke: #A80036; stroke-width: 1.0;"/><line style="stroke: #A80036; stroke-width: 1.0;" x1="321.5" x2="884.5" y1="205.4199" y2="205.4199"/><text fill="#000000" font-family="sans-serif" font-size="13" font-weight="bold" lengthAdjust="spacingAndGlyphs" textLength="9" x="328.5" y="200.9883">4</text><text fill="#000000" font-family="sans-serif" font-size="13" lengthAdjust="spacingAndGlyphs" textLength="390" x="341.5" y="200.9883">WANT role-occupancy ON role@domain AS role+you@domain</text><polygon fill="#A80036" points="332.5,230.7305,322.5,234.7305,332.5,238.7305,328.5,234.7305" style="stroke: #A80036; stroke-width: 1.0;"/><line style="stroke: #A80036; stroke-width: 1.0;" x1="326.5" x2="894.5" y1="234.7305" y2="234.7305"/><text fill="#000000" font-family="sans-serif" font-size="13" font-weight="bold" lengthAdjust="spacingAndGlyphs" textLength="9" x="338.5" y="230.2988">5</text><text fill="#000000" font-family="sans-serif" font-size="13" lengthAdjust="spacingAndGlyphs" textLength="166" x="351.5" y="230.2988">OK FOR role+you@domain</text><polygon fill="#A80036" points="1101.5,260.041,1111.5,264.041,1101.5,268.041,1105.5,264.041" style="stroke: #A80036; stroke-width: 1.0;"/><line style="stroke: #A80036; stroke-width: 1.0;" x1="321.5" x2="1107.5" y1="264.041" y2="264.041"/><text fill="#000000" font-family="sans-serif" font-size="13" font-weight="bold" lengthAdjust="spacingAndGlyphs" textLength="9" x="328.5" y="259.6094">6</text><text fill="#000000" font-family="sans-serif" font-size="13" lengthAdjust="spacingAndGlyphs" textLength="427" x="341.5" y="259.6094">Search role@domain Occupant user@domain1 AS role+you@domain</text><polygon fill="#0000FF" points="332.5,289.3516,322.5,293.3516,332.5,297.3516,328.5,293.3516" style="stroke: #0000FF; stroke-width: 1.0;"/><line style="stroke: #0000FF; stroke-width: 1.0; stroke-dasharray: 2.0,2.0;" x1="326.5" x2="1112.5" y1="293.3516" y2="293.3516"/><text fill="#000000" font-family="sans-serif" font-size="13" font-weight="bold" lengthAdjust="spacingAndGlyphs" textLength="9" x="338.5" y="288.9199">7</text><text fill="#000000" font-family="sans-serif" font-size="13" lengthAdjust="spacingAndGlyphs" textLength="85" x="351.5" y="288.9199">UserID Found</text><polygon fill="#0000FF" points="37.5,318.6621,27.5,322.6621,37.5,326.6621,33.5,322.6621" style="stroke: #0000FF; stroke-width: 1.0;"/><line style="stroke: #0000FF; stroke-width: 1.0; stroke-dasharray: 2.0,2.0;" x1="31.5" x2="310.5" y1="322.6621" y2="322.6621"/><text fill="#000000" font-family="sans-serif" font-size="13" font-weight="bold" lengthAdjust="spacingAndGlyphs" textLength="9" x="43.5" y="318.2305">8</text><text fill="#000000" font-family="sans-serif" font-size="13" lengthAdjust="spacingAndGlyphs" textLength="111" x="56.5" y="318.2305">Already Occupant</text><polygon fill="#A80036" points="332.5,347.9727,322.5,351.9727,332.5,355.9727,328.5,351.9727" style="stroke: #A80036; stroke-width: 1.0;"/><line style="stroke: #A80036; stroke-width: 1.0;" x1="326.5" x2="1117.5" y1="351.9727" y2="351.9727"/><text fill="#000000" font-family="sans-serif" font-size="13" font-weight="bold" lengthAdjust="spacingAndGlyphs" textLength="9" x="338.5" y="347.541">9</text><text fill="#000000" font-family="sans-serif" font-size="13" lengthAdjust="spacingAndGlyphs" textLength="112" x="351.5" y="347.541">UserID Not Found</text><polygon fill="#A80036" points="37.5,377.2832,27.5,381.2832,37.5,385.2832,33.5,381.2832" style="stroke: #A80036; stroke-width: 1.0;"/><line style="stroke: #A80036; stroke-width: 1.0;" x1="31.5" x2="315.5" y1="381.2832" y2="381.2832"/><text fill="#000000" font-family="sans-serif" font-size="13" font-weight="bold" lengthAdjust="spacingAndGlyphs" textLength="18" x="43.5" y="376.8516">10</text><text fill="#000000" font-family="sans-serif" font-size="13" lengthAdjust="spacingAndGlyphs" textLength="48" x="65.5" y="376.8516">Queued</text><polygon fill="#A80036" points="628.5,406.5938,638.5,410.5938,628.5,414.5938,632.5,410.5938" style="stroke: #A80036; stroke-width: 1.0;"/><line style="stroke: #A80036; stroke-width: 1.0;" x1="316.5" x2="634.5" y1="410.5938" y2="410.5938"/><text fill="#000000" font-family="sans-serif" font-size="13" font-weight="bold" lengthAdjust="spacingAndGlyphs" textLength="18" x="323.5" y="406.1621">11</text><text fill="#000000" font-family="sans-serif" font-size="13" lengthAdjust="spacingAndGlyphs" textLength="278" x="345.5" y="406.1621">Have role@domain Occupant user@domain1</text><polygon fill="#A80036" points="327.5,435.9043,317.5,439.9043,327.5,443.9043,323.5,439.9043" style="stroke: #A80036; stroke-width: 1.0;"/><line style="stroke: #A80036; stroke-width: 1.0;" x1="321.5" x2="639.5" y1="439.9043" y2="439.9043"/><text fill="#000000" font-family="sans-serif" font-size="13" font-weight="bold" lengthAdjust="spacingAndGlyphs" textLength="18" x="333.5" y="435.4727">12</text><text fill="#000000" font-family="sans-serif" font-size="13" lengthAdjust="spacingAndGlyphs" textLength="48" x="355.5" y="435.4727">Queued</text><polygon fill="#A80036" points="1101.5,465.2148,1111.5,469.2148,1101.5,473.2148,1105.5,469.2148" style="stroke: #A80036; stroke-width: 1.0;"/><line style="stroke: #A80036; stroke-width: 1.0;" x1="650.5" x2="1107.5" y1="469.2148" y2="469.2148"/><text fill="#000000" font-family="sans-serif" font-size="13" font-weight="bold" lengthAdjust="spacingAndGlyphs" textLength="18" x="657.5" y="464.7832">13</text><text fill="#000000" font-family="sans-serif" font-size="13" lengthAdjust="spacingAndGlyphs" textLength="136" x="679.5" y="464.7832">Retrieve role@domain</text><polygon fill="#A80036" points="661.5,494.5254,651.5,498.5254,661.5,502.5254,657.5,498.5254" style="stroke: #A80036; stroke-width: 1.0;"/><line style="stroke: #A80036; stroke-width: 1.0;" x1="655.5" x2="1112.5" y1="498.5254" y2="498.5254"/><text fill="#000000" font-family="sans-serif" font-size="13" font-weight="bold" lengthAdjust="spacingAndGlyphs" textLength="18" x="667.5" y="494.0938">14</text><text fill="#000000" font-family="sans-serif" font-size="13" lengthAdjust="spacingAndGlyphs" textLength="127" x="689.5" y="494.0938">Creds MIIEVzCCAz...</text><polygon fill="#A80036" points="666.5,523.8359,656.5,527.8359,666.5,531.8359,662.5,527.8359" style="stroke: #A80036; stroke-width: 1.0;"/><line style="stroke: #A80036; stroke-width: 1.0;" x1="660.5" x2="1117.5" y1="527.8359" y2="527.8359"/><text fill="#000000" font-family="sans-serif" font-size="13" font-weight="bold" lengthAdjust="spacingAndGlyphs" textLength="18" x="672.5" y="523.4043">15</text><text fill="#000000" font-family="sans-serif" font-size="13" lengthAdjust="spacingAndGlyphs" textLength="103" x="694.5" y="523.4043">pkcs11:xxx;y;zz</text><line style="stroke: #A80036; stroke-width: 1.0;" x1="660.5" x2="702.5" y1="557.457" y2="557.457"/><line style="stroke: #A80036; stroke-width: 1.0;" x1="702.5" x2="702.5" y1="557.457" y2="570.457"/><line style="stroke: #A80036; stroke-width: 1.0;" x1="661.5" x2="702.5" y1="570.457" y2="570.457"/><polygon fill="#A80036" points="671.5,566.457,661.5,570.457,671.5,574.457,667.5,570.457" style="stroke: #A80036; stroke-width: 1.0;"/><text fill="#000000" font-family="sans-serif" font-size="13" font-weight="bold" lengthAdjust="spacingAndGlyphs" textLength="18" x="667.5" y="552.7148">16</text><text fill="#000000" font-family="sans-serif" font-size="13" lengthAdjust="spacingAndGlyphs" textLength="199" x="689.5" y="552.7148">Pick a role-internal OccupantID</text><polygon fill="#A80036" points="1101.5,595.457,1111.5,599.457,1101.5,603.457,1105.5,599.457" style="stroke: #A80036; stroke-width: 1.0;"/><line style="stroke: #A80036; stroke-width: 1.0;" x1="650.5" x2="1107.5" y1="599.457" y2="599.457"/><text fill="#000000" font-family="sans-serif" font-size="13" font-weight="bold" lengthAdjust="spacingAndGlyphs" textLength="18" x="657.5" y="595.0254">17</text><text fill="#000000" font-family="sans-serif" font-size="13" lengthAdjust="spacingAndGlyphs" textLength="417" x="679.5" y="595.0254">Have role@domain Occupant user@domain1 AS role+you@domain</text><polygon fill="#A80036" points="1101.5,624.7676,1111.5,628.7676,1101.5,632.7676,1105.5,628.7676" style="stroke: #A80036; stroke-width: 1.0;"/><line style="stroke: #A80036; stroke-width: 1.0;" x1="650.5" x2="1107.5" y1="628.7676" y2="628.7676"/><text fill="#000000" font-family="sans-serif" font-size="13" font-weight="bold" lengthAdjust="spacingAndGlyphs" textLength="18" x="657.5" y="624.3359">18</text><text fill="#000000" font-family="sans-serif" font-size="13" lengthAdjust="spacingAndGlyphs" textLength="329" x="679.5" y="624.3359">Have Creds for user@domain1 AS role+you@domain</text><polygon fill="#A80036" points="1101.5,654.0781,1111.5,658.0781,1101.5,662.0781,1105.5,658.0781" style="stroke: #A80036; stroke-width: 1.0;"/><line style="stroke: #A80036; stroke-width: 1.0;" x1="650.5" x2="1107.5" y1="658.0781" y2="658.0781"/><text fill="#000000" font-family="sans-serif" font-size="13" font-weight="bold" lengthAdjust="spacingAndGlyphs" textLength="18" x="657.5" y="653.6465">19</text><text fill="#000000" font-family="sans-serif" font-size="13" lengthAdjust="spacingAndGlyphs" textLength="393" x="679.5" y="653.6465">Have pkcs11:xxx;y;zz XS user@domain1 AS role+you@domain</text><polygon fill="#A80036" points="656.5,683.3887,646.5,687.3887,656.5,691.3887,652.5,687.3887" style="stroke: #A80036; stroke-width: 1.0;"/><line style="stroke: #A80036; stroke-width: 1.0;" x1="650.5" x2="1117.5" y1="687.3887" y2="687.3887"/><text fill="#000000" font-family="sans-serif" font-size="13" font-weight="bold" lengthAdjust="spacingAndGlyphs" textLength="18" x="662.5" y="682.957">20</text><text fill="#000000" font-family="sans-serif" font-size="13" lengthAdjust="spacingAndGlyphs" textLength="37" x="684.5" y="682.957">Ready</text></g></svg>