<?xml version="1.0" encoding="UTF-8" standalone="no"?><svg xmlns="http://www.w3.org/2000/svg" xmlns:xlink="http://www.w3.org/1999/xlink" contentScriptType="application/ecmascript" contentStyleType="text/css" height="950px" preserveAspectRatio="none" style="width:1159px;height:950px;" version="1.1" viewBox="0 0 1159 950" width="1159px" zoomAndPan="magnify"><defs><filter height="300%" id="fcyqdhu" width="300%" x="-1" y="-1"><feGaussianBlur result="blurOut" stdDeviation="2.0"/><feColorMatrix in="blurOut" result="blurOut2" type="matrix" values="0 0 0 0 0 0 0 0 0 0 0 0 0 0 0 0 0 0 .4 0"/><feOffset dx="4.0" dy="4.0" in="blurOut2" result="blurOut3"/><feBlend in="SourceGraphic" in2="blurOut3" mode="normal"/></filter></defs><g><rect fill="#FFFFFF" filter="url(#fcyqdhu)" height="381.416" style="stroke: #A80036; stroke-width: 1.0;" width="10" x="21.5" y="96.4883"/><rect fill="#FFFFFF" filter="url(#fcyqdhu)" height="101.9316" style="stroke: #A80036; stroke-width: 1.0;" width="10" x="80" y="117.4883"/><rect fill="#FFFFFF" filter="url(#fcyqdhu)" height="483.3477" style="stroke: #A80036; stroke-width: 1.0;" width="10" x="316.5" y="96.4883"/><rect fill="#FFFFFF" filter="url(#fcyqdhu)" height="369.416" style="stroke: #A80036; stroke-width: 1.0;" width="10" x="650.5" y="477.9043"/><rect fill="#FFFFFF" filter="url(#fcyqdhu)" height="35.3105" style="stroke: #A80036; stroke-width: 1.0;" width="10" x="655.5" y="677.7676"/><rect fill="#FFFFFF" filter="url(#fcyqdhu)" height="58.6211" style="stroke: #A80036; stroke-width: 1.0;" width="10" x="900.5" y="219.4199"/><rect fill="#FFFFFF" filter="url(#fcyqdhu)" height="170.5527" style="stroke: #A80036; stroke-width: 1.0;" width="10" x="1123.5" y="278.041"/><rect fill="#FFFFFF" filter="url(#fcyqdhu)" height="97.9316" style="stroke: #A80036; stroke-width: 1.0;" width="10" x="1123.5" y="579.8359"/><rect fill="#FFFFFF" filter="url(#fcyqdhu)" height="132.2422" style="stroke: #A80036; stroke-width: 1.0;" width="10" x="1123.5" y="715.0781"/><line style="stroke: #A80036; stroke-width: 1.0; stroke-dasharray: 5.0,5.0;" x1="26" x2="26" y1="86.4883" y2="865.6309"/><line style="stroke: #A80036; stroke-width: 1.0; stroke-dasharray: 5.0,5.0;" x1="85" x2="85" y1="86.4883" y2="865.6309"/><line style="stroke: #A80036; stroke-width: 1.0; stroke-dasharray: 5.0,5.0;" x1="321" x2="321" y1="86.4883" y2="865.6309"/><line style="stroke: #A80036; stroke-width: 1.0; stroke-dasharray: 5.0,5.0;" x1="655.5" x2="655.5" y1="86.4883" y2="865.6309"/><line style="stroke: #A80036; stroke-width: 1.0; stroke-dasharray: 5.0,5.0;" x1="905" x2="905" y1="86.4883" y2="865.6309"/><line style="stroke: #A80036; stroke-width: 1.0; stroke-dasharray: 5.0,5.0;" x1="1128" x2="1128" y1="86.4883" y2="865.6309"/><text fill="#000000" font-family="sans-serif" font-size="14" lengthAdjust="spacingAndGlyphs" textLength="31" x="8" y="83.5352">User</text><ellipse cx="26.5" cy="13" fill="#FEFECE" filter="url(#fcyqdhu)" rx="8" ry="8" style="stroke: #A80036; stroke-width: 2.0;"/><path d="M26.5,21 L26.5,48 M13.5,29 L39.5,29 M26.5,48 L13.5,63 M26.5,48 L39.5,63 " fill="#FEFECE" filter="url(#fcyqdhu)" style="stroke: #A80036; stroke-width: 2.0;"/><text fill="#000000" font-family="sans-serif" font-size="14" lengthAdjust="spacingAndGlyphs" textLength="31" x="8" y="878.166">User</text><ellipse cx="26.5" cy="891.1191" fill="#FEFECE" filter="url(#fcyqdhu)" rx="8" ry="8" style="stroke: #A80036; stroke-width: 2.0;"/><path d="M26.5,899.1191 L26.5,926.1191 M13.5,907.1191 L39.5,907.1191 M26.5,926.1191 L13.5,941.1191 M26.5,926.1191 L39.5,941.1191 " fill="#FEFECE" filter="url(#fcyqdhu)" style="stroke: #A80036; stroke-width: 2.0;"/><rect fill="#FEFECE" filter="url(#fcyqdhu)" height="30.4883" style="stroke: #A80036; stroke-width: 1.5;" width="56" x="55" y="51"/><text fill="#000000" font-family="sans-serif" font-size="14" lengthAdjust="spacingAndGlyphs" textLength="42" x="62" y="71.5352">Authn</text><rect fill="#FEFECE" filter="url(#fcyqdhu)" height="30.4883" style="stroke: #A80036; stroke-width: 1.5;" width="56" x="55" y="864.6309"/><text fill="#000000" font-family="sans-serif" font-size="14" lengthAdjust="spacingAndGlyphs" textLength="42" x="62" y="885.166">Authn</text><rect fill="#FEFECE" filter="url(#fcyqdhu)" height="30.4883" style="stroke: #A80036; stroke-width: 1.5;" width="111" x="264" y="51"/><text fill="#000000" font-family="sans-serif" font-size="14" lengthAdjust="spacingAndGlyphs" textLength="97" x="271" y="71.5352">IdHub Control</text><rect fill="#FEFECE" filter="url(#fcyqdhu)" height="30.4883" style="stroke: #A80036; stroke-width: 1.5;" width="111" x="264" y="864.6309"/><text fill="#000000" font-family="sans-serif" font-size="14" lengthAdjust="spacingAndGlyphs" textLength="97" x="271" y="885.166">IdHub Control</text><rect fill="#FEFECE" filter="url(#fcyqdhu)" height="30.4883" style="stroke: #A80036; stroke-width: 1.5;" width="102" x="602.5" y="51"/><text fill="#000000" font-family="sans-serif" font-size="14" lengthAdjust="spacingAndGlyphs" textLength="88" x="609.5" y="71.5352">Key Manager</text><rect fill="#FEFECE" filter="url(#fcyqdhu)" height="30.4883" style="stroke: #A80036; stroke-width: 1.5;" width="102" x="602.5" y="864.6309"/><text fill="#000000" font-family="sans-serif" font-size="14" lengthAdjust="spacingAndGlyphs" textLength="88" x="609.5" y="885.166">Key Manager</text><rect fill="#FEFECE" filter="url(#fcyqdhu)" height="30.4883" style="stroke: #A80036; stroke-width: 1.5;" width="55" x="876" y="51"/><text fill="#000000" font-family="sans-serif" font-size="14" lengthAdjust="spacingAndGlyphs" textLength="41" x="883" y="71.5352">Authz</text><rect fill="#FEFECE" filter="url(#fcyqdhu)" height="30.4883" style="stroke: #A80036; stroke-width: 1.5;" width="55" x="876" y="864.6309"/><text fill="#000000" font-family="sans-serif" font-size="14" lengthAdjust="spacingAndGlyphs" textLength="41" x="883" y="885.166">Authz</text><text fill="#000000" font-family="sans-serif" font-size="14" lengthAdjust="spacingAndGlyphs" textLength="35" x="1108" y="83.5352">LDAP</text><path d="M1110.5,34 C1110.5,24 1128.5,24 1128.5,24 C1128.5,24 1146.5,24 1146.5,34 L1146.5,60 C1146.5,70 1128.5,70 1128.5,70 C1128.5,70 1110.5,70 1110.5,60 L1110.5,34 " fill="#FEFECE" filter="url(#fcyqdhu)" style="stroke: #000000; stroke-width: 1.5;"/><path d="M1110.5,34 C1110.5,44 1128.5,44 1128.5,44 C1128.5,44 1146.5,44 1146.5,34 " fill="none" style="stroke: #000000; stroke-width: 1.5;"/><text fill="#000000" font-family="sans-serif" font-size="14" lengthAdjust="spacingAndGlyphs" textLength="35" x="1108" y="878.166">LDAP</text><path d="M1110.5,891.1191 C1110.5,881.1191 1128.5,881.1191 1128.5,881.1191 C1128.5,881.1191 1146.5,881.1191 1146.5,891.1191 L1146.5,917.1191 C1146.5,927.1191 1128.5,927.1191 1128.5,927.1191 C1128.5,927.1191 1110.5,927.1191 1110.5,917.1191 L1110.5,891.1191 " fill="#FEFECE" filter="url(#fcyqdhu)" style="stroke: #000000; stroke-width: 1.5;"/><path d="M1110.5,891.1191 C1110.5,901.1191 1128.5,901.1191 1128.5,901.1191 C1128.5,901.1191 1146.5,901.1191 1146.5,891.1191 " fill="none" style="stroke: #000000; stroke-width: 1.5;"/><rect fill="#FFFFFF" filter="url(#fcyqdhu)" height="381.416" style="stroke: #A80036; stroke-width: 1.0;" width="10" x="21.5" y="96.4883"/><rect fill="#FFFFFF" filter="url(#fcyqdhu)" height="101.9316" style="stroke: #A80036; stroke-width: 1.0;" width="10" x="80" y="117.4883"/><rect fill="#FFFFFF" filter="url(#fcyqdhu)" height="483.3477" style="stroke: #A80036; stroke-width: 1.0;" width="10" x="316.5" y="96.4883"/><rect fill="#FFFFFF" filter="url(#fcyqdhu)" height="369.416" style="stroke: #A80036; stroke-width: 1.0;" width="10" x="650.5" y="477.9043"/><rect fill="#FFFFFF" filter="url(#fcyqdhu)" height="35.3105" style="stroke: #A80036; stroke-width: 1.0;" width="10" x="655.5" y="677.7676"/><rect fill="#FFFFFF" filter="url(#fcyqdhu)" height="58.6211" style="stroke: #A80036; stroke-width: 1.0;" width="10" x="900.5" y="219.4199"/><rect fill="#FFFFFF" filter="url(#fcyqdhu)" height="170.5527" style="stroke: #A80036; stroke-width: 1.0;" width="10" x="1123.5" y="278.041"/><rect fill="#FFFFFF" filter="url(#fcyqdhu)" height="97.9316" style="stroke: #A80036; stroke-width: 1.0;" width="10" x="1123.5" y="579.8359"/><rect fill="#FFFFFF" filter="url(#fcyqdhu)" height="132.2422" style="stroke: #A80036; stroke-width: 1.0;" width="10" x="1123.5" y="715.0781"/><polygon fill="#A80036" points="304.5,113.4883,314.5,117.4883,304.5,121.4883,308.5,117.4883" style="stroke: #A80036; stroke-width: 1.0;"/><line style="stroke: #A80036; stroke-width: 1.0;" x1="31.5" x2="310.5" y1="117.4883" y2="117.4883"/><text fill="#000000" font-family="sans-serif" font-size="13" font-weight="bold" lengthAdjust="spacingAndGlyphs" textLength="9" x="38.5" y="113.0566">1</text><text fill="#000000" font-family="sans-serif" font-size="13" lengthAdjust="spacingAndGlyphs" textLength="248" x="51.5" y="113.0566">Role role@domain Grant user@domain1</text><rect fill="#EEEEEE" filter="url(#fcyqdhu)" height="3" style="stroke: #EEEEEE; stroke-width: 1.0;" width="1151" x="3" y="146.4541"/><line style="stroke: #000000; stroke-width: 1.0;" x1="3" x2="1154" y1="146.4541" y2="146.4541"/><line style="stroke: #000000; stroke-width: 1.0;" x1="3" x2="1154" y1="149.4541" y2="149.4541"/><rect fill="#EEEEEE" filter="url(#fcyqdhu)" height="23.3105" style="stroke: #000000; stroke-width: 2.0;" width="117" x="520" y="135.7988"/><text fill="#000000" font-family="sans-serif" font-size="13" font-weight="bold" lengthAdjust="spacingAndGlyphs" textLength="99" x="526" y="152.3672">Access Control</text><polygon fill="#A80036" points="101,186.1094,91,190.1094,101,194.1094,97,190.1094" style="stroke: #A80036; stroke-width: 1.0;"/><line style="stroke: #A80036; stroke-width: 1.0;" x1="95" x2="315.5" y1="190.1094" y2="190.1094"/><text fill="#000000" font-family="sans-serif" font-size="13" font-weight="bold" lengthAdjust="spacingAndGlyphs" textLength="9" x="107" y="185.6777">2</text><text fill="#000000" font-family="sans-serif" font-size="13" lengthAdjust="spacingAndGlyphs" textLength="136" x="120" y="185.6777">SecureLayer @domain</text><polygon fill="#A80036" points="304.5,215.4199,314.5,219.4199,304.5,223.4199,308.5,219.4199" style="stroke: #A80036; stroke-width: 1.0;"/><line style="stroke: #A80036; stroke-width: 1.0;" x1="85" x2="310.5" y1="219.4199" y2="219.4199"/><text fill="#000000" font-family="sans-serif" font-size="13" font-weight="bold" lengthAdjust="spacingAndGlyphs" textLength="9" x="92" y="214.9883">3</text><text fill="#000000" font-family="sans-serif" font-size="13" lengthAdjust="spacingAndGlyphs" textLength="180" x="105" y="214.9883">RemoteID role+you@domain</text><polygon fill="#A80036" points="888.5,244.7305,898.5,248.7305,888.5,252.7305,892.5,248.7305" style="stroke: #A80036; stroke-width: 1.0;"/><line style="stroke: #A80036; stroke-width: 1.0;" x1="326.5" x2="894.5" y1="248.7305" y2="248.7305"/><text fill="#000000" font-family="sans-serif" font-size="13" font-weight="bold" lengthAdjust="spacingAndGlyphs" textLength="9" x="333.5" y="244.2988">4</text><text fill="#000000" font-family="sans-serif" font-size="13" lengthAdjust="spacingAndGlyphs" textLength="390" x="346.5" y="244.2988">WANT role-occupancy ON role@domain AS role+you@domain</text><polygon fill="#A80036" points="337.5,274.041,327.5,278.041,337.5,282.041,333.5,278.041" style="stroke: #A80036; stroke-width: 1.0;"/><line style="stroke: #A80036; stroke-width: 1.0;" x1="331.5" x2="904.5" y1="278.041" y2="278.041"/><text fill="#000000" font-family="sans-serif" font-size="13" font-weight="bold" lengthAdjust="spacingAndGlyphs" textLength="9" x="343.5" y="273.6094">5</text><text fill="#000000" font-family="sans-serif" font-size="13" lengthAdjust="spacingAndGlyphs" textLength="166" x="356.5" y="273.6094">OK FOR role+you@domain</text><rect fill="#EEEEEE" filter="url(#fcyqdhu)" height="3" style="stroke: #EEEEEE; stroke-width: 1.0;" width="1151" x="3" y="307.0068"/><line style="stroke: #000000; stroke-width: 1.0;" x1="3" x2="1154" y1="307.0068" y2="307.0068"/><line style="stroke: #000000; stroke-width: 1.0;" x1="3" x2="1154" y1="310.0068" y2="310.0068"/><rect fill="#EEEEEE" filter="url(#fcyqdhu)" height="23.3105" style="stroke: #000000; stroke-width: 2.0;" width="104" x="526.5" y="296.3516"/><text fill="#000000" font-family="sans-serif" font-size="13" font-weight="bold" lengthAdjust="spacingAndGlyphs" textLength="86" x="532.5" y="312.9199">Sanity Check</text><polygon fill="#A80036" points="1111.5,346.6621,1121.5,350.6621,1111.5,354.6621,1115.5,350.6621" style="stroke: #A80036; stroke-width: 1.0;"/><line style="stroke: #A80036; stroke-width: 1.0;" x1="326.5" x2="1117.5" y1="350.6621" y2="350.6621"/><text fill="#000000" font-family="sans-serif" font-size="13" font-weight="bold" lengthAdjust="spacingAndGlyphs" textLength="9" x="333.5" y="346.2305">6</text><text fill="#000000" font-family="sans-serif" font-size="13" lengthAdjust="spacingAndGlyphs" textLength="442" x="346.5" y="346.2305">Compare role@domain Occupant user@domain1 AS role+you@domain</text><polygon fill="#0000FF" points="337.5,380.9727,327.5,384.9727,337.5,388.9727,333.5,384.9727" style="stroke: #0000FF; stroke-width: 1.0;"/><line style="stroke: #0000FF; stroke-width: 1.0; stroke-dasharray: 2.0,2.0;" x1="331.5" x2="1122.5" y1="384.9727" y2="384.9727"/><text fill="#000000" font-family="sans-serif" font-size="13" font-weight="bold" lengthAdjust="spacingAndGlyphs" textLength="9" x="343.5" y="380.541">7</text><text fill="#000000" font-family="sans-serif" font-size="13" lengthAdjust="spacingAndGlyphs" textLength="85" x="356.5" y="380.541">UserID Found</text><polygon fill="#FBFB77" filter="url(#fcyqdhu)" points="117,363.9727,117,388.9727,307,388.9727,307,373.9727,297,363.9727,117,363.9727" style="stroke: #A80036; stroke-width: 1.0;"/><line style="stroke: #A80036; stroke-width: 1.0;" x1="297" x2="297" y1="363.9727" y2="373.9727"/><line style="stroke: #A80036; stroke-width: 1.0;" x1="307" x2="297" y1="373.9727" y2="373.9727"/><text fill="#0000FF" font-family="sans-serif" font-size="13" lengthAdjust="spacingAndGlyphs" textLength="169" x="123" y="381.541">Alternative flow, fatal error</text><polygon fill="#0000FF" points="42.5,415.2832,32.5,419.2832,42.5,423.2832,38.5,419.2832" style="stroke: #0000FF; stroke-width: 1.0;"/><line style="stroke: #0000FF; stroke-width: 1.0; stroke-dasharray: 2.0,2.0;" x1="36.5" x2="315.5" y1="419.2832" y2="419.2832"/><text fill="#000000" font-family="sans-serif" font-size="13" font-weight="bold" lengthAdjust="spacingAndGlyphs" textLength="9" x="48.5" y="414.8516">8</text><text fill="#000000" font-family="sans-serif" font-size="13" lengthAdjust="spacingAndGlyphs" textLength="111" x="61.5" y="414.8516">Already Occupant</text><polygon fill="#A80036" points="337.5,444.5938,327.5,448.5938,337.5,452.5938,333.5,448.5938" style="stroke: #A80036; stroke-width: 1.0;"/><line style="stroke: #A80036; stroke-width: 1.0;" x1="331.5" x2="1127.5" y1="448.5938" y2="448.5938"/><text fill="#000000" font-family="sans-serif" font-size="13" font-weight="bold" lengthAdjust="spacingAndGlyphs" textLength="9" x="343.5" y="444.1621">9</text><text fill="#000000" font-family="sans-serif" font-size="13" lengthAdjust="spacingAndGlyphs" textLength="112" x="356.5" y="444.1621">UserID Not Found</text><polygon fill="#A80036" points="37.5,473.9043,27.5,477.9043,37.5,481.9043,33.5,477.9043" style="stroke: #A80036; stroke-width: 1.0;"/><line style="stroke: #A80036; stroke-width: 1.0;" x1="31.5" x2="315.5" y1="477.9043" y2="477.9043"/><text fill="#000000" font-family="sans-serif" font-size="13" font-weight="bold" lengthAdjust="spacingAndGlyphs" textLength="18" x="43.5" y="473.4727">10</text><text fill="#000000" font-family="sans-serif" font-size="13" lengthAdjust="spacingAndGlyphs" textLength="48" x="65.5" y="473.4727">Queued</text><rect fill="#EEEEEE" filter="url(#fcyqdhu)" height="3" style="stroke: #EEEEEE; stroke-width: 1.0;" width="1151" x="3" y="506.8701"/><line style="stroke: #000000; stroke-width: 1.0;" x1="3" x2="1154" y1="506.8701" y2="506.8701"/><line style="stroke: #000000; stroke-width: 1.0;" x1="3" x2="1154" y1="509.8701" y2="509.8701"/><rect fill="#EEEEEE" filter="url(#fcyqdhu)" height="23.3105" style="stroke: #000000; stroke-width: 2.0;" width="136" x="510.5" y="496.2148"/><text fill="#000000" font-family="sans-serif" font-size="13" font-weight="bold" lengthAdjust="spacingAndGlyphs" textLength="118" x="516.5" y="512.7832">Key Management</text><polygon fill="#A80036" points="638.5,546.5254,648.5,550.5254,638.5,554.5254,642.5,550.5254" style="stroke: #A80036; stroke-width: 1.0;"/><line style="stroke: #A80036; stroke-width: 1.0;" x1="326.5" x2="644.5" y1="550.5254" y2="550.5254"/><text fill="#000000" font-family="sans-serif" font-size="13" font-weight="bold" lengthAdjust="spacingAndGlyphs" textLength="18" x="333.5" y="546.0938">11</text><text fill="#000000" font-family="sans-serif" font-size="13" lengthAdjust="spacingAndGlyphs" textLength="278" x="355.5" y="546.0938">Have role@domain Occupant user@domain1</text><polygon fill="#A80036" points="332.5,575.8359,322.5,579.8359,332.5,583.8359,328.5,579.8359" style="stroke: #A80036; stroke-width: 1.0;"/><line style="stroke: #A80036; stroke-width: 1.0;" x1="326.5" x2="649.5" y1="579.8359" y2="579.8359"/><text fill="#000000" font-family="sans-serif" font-size="13" font-weight="bold" lengthAdjust="spacingAndGlyphs" textLength="18" x="338.5" y="575.4043">12</text><text fill="#000000" font-family="sans-serif" font-size="13" lengthAdjust="spacingAndGlyphs" textLength="48" x="360.5" y="575.4043">Queued</text><polygon fill="#A80036" points="1111.5,610.1465,1121.5,614.1465,1111.5,618.1465,1115.5,614.1465" style="stroke: #A80036; stroke-width: 1.0;"/><line style="stroke: #A80036; stroke-width: 1.0;" x1="660.5" x2="1117.5" y1="614.1465" y2="614.1465"/><text fill="#000000" font-family="sans-serif" font-size="13" font-weight="bold" lengthAdjust="spacingAndGlyphs" textLength="18" x="667.5" y="609.7148">13</text><text fill="#000000" font-family="sans-serif" font-size="13" lengthAdjust="spacingAndGlyphs" textLength="136" x="689.5" y="609.7148">Retrieve role@domain</text><polygon fill="#FBFB77" filter="url(#fcyqdhu)" points="435,593.1465,435,618.1465,641,618.1465,641,603.1465,631,593.1465,435,593.1465" style="stroke: #A80036; stroke-width: 1.0;"/><line style="stroke: #A80036; stroke-width: 1.0;" x1="631" x2="631" y1="593.1465" y2="603.1465"/><line style="stroke: #A80036; stroke-width: 1.0;" x1="641" x2="631" y1="603.1465" y2="603.1465"/><text fill="#000000" font-family="sans-serif" font-size="13" lengthAdjust="spacingAndGlyphs" textLength="185" x="441" y="610.7148">When copying the LDAP entry</text><polygon fill="#A80036" points="671.5,644.457,661.5,648.457,671.5,652.457,667.5,648.457" style="stroke: #A80036; stroke-width: 1.0;"/><line style="stroke: #A80036; stroke-width: 1.0;" x1="665.5" x2="1122.5" y1="648.457" y2="648.457"/><text fill="#000000" font-family="sans-serif" font-size="13" font-weight="bold" lengthAdjust="spacingAndGlyphs" textLength="18" x="677.5" y="644.0254">14</text><text fill="#000000" font-family="sans-serif" font-size="13" lengthAdjust="spacingAndGlyphs" textLength="127" x="699.5" y="644.0254">Creds MIIEVzCCAz...</text><polygon fill="#A80036" points="676.5,673.7676,666.5,677.7676,676.5,681.7676,672.5,677.7676" style="stroke: #A80036; stroke-width: 1.0;"/><line style="stroke: #A80036; stroke-width: 1.0;" x1="670.5" x2="1127.5" y1="677.7676" y2="677.7676"/><text fill="#000000" font-family="sans-serif" font-size="13" font-weight="bold" lengthAdjust="spacingAndGlyphs" textLength="18" x="682.5" y="673.3359">15</text><text fill="#000000" font-family="sans-serif" font-size="13" lengthAdjust="spacingAndGlyphs" textLength="103" x="704.5" y="673.3359">pkcs11:xxx;y;zz</text><line style="stroke: #A80036; stroke-width: 1.0;" x1="670.5" x2="712.5" y1="707.3887" y2="707.3887"/><line style="stroke: #A80036; stroke-width: 1.0;" x1="712.5" x2="712.5" y1="707.3887" y2="720.3887"/><line style="stroke: #A80036; stroke-width: 1.0;" x1="671.5" x2="712.5" y1="720.3887" y2="720.3887"/><polygon fill="#A80036" points="681.5,716.3887,671.5,720.3887,681.5,724.3887,677.5,720.3887" style="stroke: #A80036; stroke-width: 1.0;"/><text fill="#000000" font-family="sans-serif" font-size="13" font-weight="bold" lengthAdjust="spacingAndGlyphs" textLength="18" x="677.5" y="702.6465">16</text><text fill="#000000" font-family="sans-serif" font-size="13" lengthAdjust="spacingAndGlyphs" textLength="199" x="699.5" y="702.6465">Pick a role-internal OccupantID</text><polygon fill="#A80036" points="1111.5,745.3887,1121.5,749.3887,1111.5,753.3887,1115.5,749.3887" style="stroke: #A80036; stroke-width: 1.0;"/><line style="stroke: #A80036; stroke-width: 1.0;" x1="660.5" x2="1117.5" y1="749.3887" y2="749.3887"/><text fill="#000000" font-family="sans-serif" font-size="13" font-weight="bold" lengthAdjust="spacingAndGlyphs" textLength="18" x="667.5" y="744.957">17</text><text fill="#000000" font-family="sans-serif" font-size="13" lengthAdjust="spacingAndGlyphs" textLength="417" x="689.5" y="744.957">Have role@domain Occupant user@domain1 AS role+you@domain</text><polygon fill="#A80036" points="1111.5,774.6992,1121.5,778.6992,1111.5,782.6992,1115.5,778.6992" style="stroke: #A80036; stroke-width: 1.0;"/><line style="stroke: #A80036; stroke-width: 1.0;" x1="660.5" x2="1117.5" y1="778.6992" y2="778.6992"/><text fill="#000000" font-family="sans-serif" font-size="13" font-weight="bold" lengthAdjust="spacingAndGlyphs" textLength="18" x="667.5" y="774.2676">18</text><text fill="#000000" font-family="sans-serif" font-size="13" lengthAdjust="spacingAndGlyphs" textLength="329" x="689.5" y="774.2676">Have Creds for user@domain1 AS role+you@domain</text><polygon fill="#A80036" points="1111.5,809.0098,1121.5,813.0098,1111.5,817.0098,1115.5,813.0098" style="stroke: #A80036; stroke-width: 1.0;"/><line style="stroke: #A80036; stroke-width: 1.0;" x1="660.5" x2="1117.5" y1="813.0098" y2="813.0098"/><text fill="#000000" font-family="sans-serif" font-size="13" font-weight="bold" lengthAdjust="spacingAndGlyphs" textLength="18" x="667.5" y="808.5781">19</text><text fill="#000000" font-family="sans-serif" font-size="13" lengthAdjust="spacingAndGlyphs" textLength="393" x="689.5" y="808.5781">Have pkcs11:xxx;y;zz XS user@domain1 AS role+you@domain</text><polygon fill="#FBFB77" filter="url(#fcyqdhu)" points="470,792.0098,470,817.0098,641,817.0098,641,802.0098,631,792.0098,470,792.0098" style="stroke: #A80036; stroke-width: 1.0;"/><line style="stroke: #A80036; stroke-width: 1.0;" x1="631" x2="631" y1="792.0098" y2="802.0098"/><line style="stroke: #A80036; stroke-width: 1.0;" x1="641" x2="631" y1="802.0098" y2="802.0098"/><text fill="#000000" font-family="sans-serif" font-size="13" lengthAdjust="spacingAndGlyphs" textLength="150" x="476" y="809.5781">Or share the LDAP entry</text><polygon fill="#A80036" points="666.5,843.3203,656.5,847.3203,666.5,851.3203,662.5,847.3203" style="stroke: #A80036; stroke-width: 1.0;"/><line style="stroke: #A80036; stroke-width: 1.0;" x1="660.5" x2="1127.5" y1="847.3203" y2="847.3203"/><text fill="#000000" font-family="sans-serif" font-size="13" font-weight="bold" lengthAdjust="spacingAndGlyphs" textLength="18" x="672.5" y="842.8887">20</text><text fill="#000000" font-family="sans-serif" font-size="13" lengthAdjust="spacingAndGlyphs" textLength="37" x="694.5" y="842.8887">Ready</text></g></svg>