<?xml version="1.0" encoding="UTF-8" standalone="no"?><svg xmlns="http://www.w3.org/2000/svg" xmlns:xlink="http://www.w3.org/1999/xlink" contentScriptType="application/ecmascript" contentStyleType="text/css" height="669px" preserveAspectRatio="none" style="width:1164px;height:669px;" version="1.1" viewBox="0 0 1164 669" width="1164px" zoomAndPan="magnify"><defs><filter height="300%" id="f2dtdss" width="300%" x="-1" y="-1"><feGaussianBlur result="blurOut" stdDeviation="2.0"/><feColorMatrix in="blurOut" result="blurOut2" type="matrix" values="0 0 0 0 0 0 0 0 0 0 0 0 0 0 0 0 0 0 .4 0"/><feOffset dx="4.0" dy="4.0" in="blurOut2" result="blurOut3"/><feBlend in="SourceGraphic" in2="blurOut3" mode="normal"/></filter></defs><g><rect fill="#FFFFFF" filter="url(#f2dtdss)" height="294.7949" style="stroke: #A80036; stroke-width: 1.0;" width="10" x="21.5" y="96.4883"/><rect fill="#FFFFFF" filter="url(#f2dtdss)" height="58.6211" style="stroke: #A80036; stroke-width: 1.0;" width="10" x="80" y="117.4883"/><rect fill="#FFFFFF" filter="url(#f2dtdss)" height="353.416" style="stroke: #A80036; stroke-width: 1.0;" width="10" x="327.5" y="96.4883"/><rect fill="#FFFFFF" filter="url(#f2dtdss)" height="175.8633" style="stroke: #A80036; stroke-width: 1.0;" width="10" x="661.5" y="391.2832"/><rect fill="#FFFFFF" filter="url(#f2dtdss)" height="58.6211" style="stroke: #A80036; stroke-width: 1.0;" width="10" x="764.5" y="176.1094"/><rect fill="#FFFFFF" filter="url(#f2dtdss)" height="58.6211" style="stroke: #A80036; stroke-width: 1.0;" width="10" x="764.5" y="479.2148"/><rect fill="#FFFFFF" filter="url(#f2dtdss)" height="127.2422" style="stroke: #A80036; stroke-width: 1.0;" width="10" x="1134.5" y="234.7305"/><rect fill="#FFFFFF" filter="url(#f2dtdss)" height="117.2422" style="stroke: #A80036; stroke-width: 1.0;" width="10" x="1134.5" y="449.9043"/><line style="stroke: #A80036; stroke-width: 1.0; stroke-dasharray: 5.0,5.0;" x1="26" x2="26" y1="86.4883" y2="585.457"/><line style="stroke: #A80036; stroke-width: 1.0; stroke-dasharray: 5.0,5.0;" x1="85" x2="85" y1="86.4883" y2="585.457"/><line style="stroke: #A80036; stroke-width: 1.0; stroke-dasharray: 5.0,5.0;" x1="332" x2="332" y1="86.4883" y2="585.457"/><line style="stroke: #A80036; stroke-width: 1.0; stroke-dasharray: 5.0,5.0;" x1="666.5" x2="666.5" y1="86.4883" y2="585.457"/><line style="stroke: #A80036; stroke-width: 1.0; stroke-dasharray: 5.0,5.0;" x1="769" x2="769" y1="86.4883" y2="585.457"/><line style="stroke: #A80036; stroke-width: 1.0; stroke-dasharray: 5.0,5.0;" x1="1139" x2="1139" y1="86.4883" y2="585.457"/><text fill="#000000" font-family="sans-serif" font-size="14" lengthAdjust="spacingAndGlyphs" textLength="31" x="8" y="83.5352">User</text><ellipse cx="26.5" cy="13" fill="#FEFECE" filter="url(#f2dtdss)" rx="8" ry="8" style="stroke: #A80036; stroke-width: 2.0;"/><path d="M26.5,21 L26.5,48 M13.5,29 L39.5,29 M26.5,48 L13.5,63 M26.5,48 L39.5,63 " fill="#FEFECE" filter="url(#f2dtdss)" style="stroke: #A80036; stroke-width: 2.0;"/><text fill="#000000" font-family="sans-serif" font-size="14" lengthAdjust="spacingAndGlyphs" textLength="31" x="8" y="597.9922">User</text><ellipse cx="26.5" cy="610.9453" fill="#FEFECE" filter="url(#f2dtdss)" rx="8" ry="8" style="stroke: #A80036; stroke-width: 2.0;"/><path d="M26.5,618.9453 L26.5,645.9453 M13.5,626.9453 L39.5,626.9453 M26.5,645.9453 L13.5,660.9453 M26.5,645.9453 L39.5,660.9453 " fill="#FEFECE" filter="url(#f2dtdss)" style="stroke: #A80036; stroke-width: 2.0;"/><rect fill="#FEFECE" filter="url(#f2dtdss)" height="30.4883" style="stroke: #A80036; stroke-width: 1.5;" width="56" x="55" y="51"/><text fill="#000000" font-family="sans-serif" font-size="14" lengthAdjust="spacingAndGlyphs" textLength="42" x="62" y="71.5352">Authn</text><rect fill="#FEFECE" filter="url(#f2dtdss)" height="30.4883" style="stroke: #A80036; stroke-width: 1.5;" width="56" x="55" y="584.457"/><text fill="#000000" font-family="sans-serif" font-size="14" lengthAdjust="spacingAndGlyphs" textLength="42" x="62" y="604.9922">Authn</text><rect fill="#FEFECE" filter="url(#f2dtdss)" height="30.4883" style="stroke: #A80036; stroke-width: 1.5;" width="111" x="275" y="51"/><text fill="#000000" font-family="sans-serif" font-size="14" lengthAdjust="spacingAndGlyphs" textLength="97" x="282" y="71.5352">IdHub Control</text><rect fill="#FEFECE" filter="url(#f2dtdss)" height="30.4883" style="stroke: #A80036; stroke-width: 1.5;" width="111" x="275" y="584.457"/><text fill="#000000" font-family="sans-serif" font-size="14" lengthAdjust="spacingAndGlyphs" textLength="97" x="282" y="604.9922">IdHub Control</text><rect fill="#FEFECE" filter="url(#f2dtdss)" height="30.4883" style="stroke: #A80036; stroke-width: 1.5;" width="102" x="613.5" y="51"/><text fill="#000000" font-family="sans-serif" font-size="14" lengthAdjust="spacingAndGlyphs" textLength="88" x="620.5" y="71.5352">Key Manager</text><rect fill="#FEFECE" filter="url(#f2dtdss)" height="30.4883" style="stroke: #A80036; stroke-width: 1.5;" width="102" x="613.5" y="584.457"/><text fill="#000000" font-family="sans-serif" font-size="14" lengthAdjust="spacingAndGlyphs" textLength="88" x="620.5" y="604.9922">Key Manager</text><rect fill="#FEFECE" filter="url(#f2dtdss)" height="30.4883" style="stroke: #A80036; stroke-width: 1.5;" width="55" x="740" y="51"/><text fill="#000000" font-family="sans-serif" font-size="14" lengthAdjust="spacingAndGlyphs" textLength="41" x="747" y="71.5352">Authz</text><rect fill="#FEFECE" filter="url(#f2dtdss)" height="30.4883" style="stroke: #A80036; stroke-width: 1.5;" width="55" x="740" y="584.457"/><text fill="#000000" font-family="sans-serif" font-size="14" lengthAdjust="spacingAndGlyphs" textLength="41" x="747" y="604.9922">Authz</text><text fill="#000000" font-family="sans-serif" font-size="14" lengthAdjust="spacingAndGlyphs" textLength="35" x="1119" y="83.5352">LDAP</text><path d="M1121.5,34 C1121.5,24 1139.5,24 1139.5,24 C1139.5,24 1157.5,24 1157.5,34 L1157.5,60 C1157.5,70 1139.5,70 1139.5,70 C1139.5,70 1121.5,70 1121.5,60 L1121.5,34 " fill="#FEFECE" filter="url(#f2dtdss)" style="stroke: #000000; stroke-width: 1.5;"/><path d="M1121.5,34 C1121.5,44 1139.5,44 1139.5,44 C1139.5,44 1157.5,44 1157.5,34 " fill="none" style="stroke: #000000; stroke-width: 1.5;"/><text fill="#000000" font-family="sans-serif" font-size="14" lengthAdjust="spacingAndGlyphs" textLength="35" x="1119" y="597.9922">LDAP</text><path d="M1121.5,610.9453 C1121.5,600.9453 1139.5,600.9453 1139.5,600.9453 C1139.5,600.9453 1157.5,600.9453 1157.5,610.9453 L1157.5,636.9453 C1157.5,646.9453 1139.5,646.9453 1139.5,646.9453 C1139.5,646.9453 1121.5,646.9453 1121.5,636.9453 L1121.5,610.9453 " fill="#FEFECE" filter="url(#f2dtdss)" style="stroke: #000000; stroke-width: 1.5;"/><path d="M1121.5,610.9453 C1121.5,620.9453 1139.5,620.9453 1139.5,620.9453 C1139.5,620.9453 1157.5,620.9453 1157.5,610.9453 " fill="none" style="stroke: #000000; stroke-width: 1.5;"/><rect fill="#FFFFFF" filter="url(#f2dtdss)" height="294.7949" style="stroke: #A80036; stroke-width: 1.0;" width="10" x="21.5" y="96.4883"/><rect fill="#FFFFFF" filter="url(#f2dtdss)" height="58.6211" style="stroke: #A80036; stroke-width: 1.0;" width="10" x="80" y="117.4883"/><rect fill="#FFFFFF" filter="url(#f2dtdss)" height="353.416" style="stroke: #A80036; stroke-width: 1.0;" width="10" x="327.5" y="96.4883"/><rect fill="#FFFFFF" filter="url(#f2dtdss)" height="175.8633" style="stroke: #A80036; stroke-width: 1.0;" width="10" x="661.5" y="391.2832"/><rect fill="#FFFFFF" filter="url(#f2dtdss)" height="58.6211" style="stroke: #A80036; stroke-width: 1.0;" width="10" x="764.5" y="176.1094"/><rect fill="#FFFFFF" filter="url(#f2dtdss)" height="58.6211" style="stroke: #A80036; stroke-width: 1.0;" width="10" x="764.5" y="479.2148"/><rect fill="#FFFFFF" filter="url(#f2dtdss)" height="127.2422" style="stroke: #A80036; stroke-width: 1.0;" width="10" x="1134.5" y="234.7305"/><rect fill="#FFFFFF" filter="url(#f2dtdss)" height="117.2422" style="stroke: #A80036; stroke-width: 1.0;" width="10" x="1134.5" y="449.9043"/><polygon fill="#A80036" points="315.5,113.4883,325.5,117.4883,315.5,121.4883,319.5,117.4883" style="stroke: #A80036; stroke-width: 1.0;"/><line style="stroke: #A80036; stroke-width: 1.0;" x1="31.5" x2="321.5" y1="117.4883" y2="117.4883"/><text fill="#000000" font-family="sans-serif" font-size="13" font-weight="bold" lengthAdjust="spacingAndGlyphs" textLength="9" x="38.5" y="113.0566">1</text><text fill="#000000" font-family="sans-serif" font-size="13" lengthAdjust="spacingAndGlyphs" textLength="259" x="51.5" y="113.0566">Role role@domain Revoke user@domain1</text><polygon fill="#A80036" points="101,142.7988,91,146.7988,101,150.7988,97,146.7988" style="stroke: #A80036; stroke-width: 1.0;"/><line style="stroke: #A80036; stroke-width: 1.0;" x1="95" x2="326.5" y1="146.7988" y2="146.7988"/><text fill="#000000" font-family="sans-serif" font-size="13" font-weight="bold" lengthAdjust="spacingAndGlyphs" textLength="9" x="107" y="142.3672">2</text><text fill="#000000" font-family="sans-serif" font-size="13" lengthAdjust="spacingAndGlyphs" textLength="136" x="120" y="142.3672">SecureLayer @domain</text><polygon fill="#A80036" points="315.5,172.1094,325.5,176.1094,315.5,180.1094,319.5,176.1094" style="stroke: #A80036; stroke-width: 1.0;"/><line style="stroke: #A80036; stroke-width: 1.0;" x1="85" x2="321.5" y1="176.1094" y2="176.1094"/><text fill="#000000" font-family="sans-serif" font-size="13" font-weight="bold" lengthAdjust="spacingAndGlyphs" textLength="9" x="92" y="171.6777">3</text><text fill="#000000" font-family="sans-serif" font-size="13" lengthAdjust="spacingAndGlyphs" textLength="180" x="105" y="171.6777">RemoteID role+you@domain</text><polygon fill="#A80036" points="752.5,201.4199,762.5,205.4199,752.5,209.4199,756.5,205.4199" style="stroke: #A80036; stroke-width: 1.0;"/><line style="stroke: #A80036; stroke-width: 1.0;" x1="337.5" x2="758.5" y1="205.4199" y2="205.4199"/><text fill="#000000" font-family="sans-serif" font-size="13" font-weight="bold" lengthAdjust="spacingAndGlyphs" textLength="9" x="344.5" y="200.9883">4</text><text fill="#000000" font-family="sans-serif" font-size="13" lengthAdjust="spacingAndGlyphs" textLength="390" x="357.5" y="200.9883">WANT role-occupancy ON role@domain AS role+you@domain</text><polygon fill="#A80036" points="348.5,230.7305,338.5,234.7305,348.5,238.7305,344.5,234.7305" style="stroke: #A80036; stroke-width: 1.0;"/><line style="stroke: #A80036; stroke-width: 1.0;" x1="342.5" x2="768.5" y1="234.7305" y2="234.7305"/><text fill="#000000" font-family="sans-serif" font-size="13" font-weight="bold" lengthAdjust="spacingAndGlyphs" textLength="9" x="354.5" y="230.2988">5</text><text fill="#000000" font-family="sans-serif" font-size="13" lengthAdjust="spacingAndGlyphs" textLength="166" x="367.5" y="230.2988">OK FOR role+you@domain</text><polygon fill="#A80036" points="1122.5,260.041,1132.5,264.041,1122.5,268.041,1126.5,264.041" style="stroke: #A80036; stroke-width: 1.0;"/><line style="stroke: #A80036; stroke-width: 1.0;" x1="337.5" x2="1128.5" y1="264.041" y2="264.041"/><text fill="#000000" font-family="sans-serif" font-size="13" font-weight="bold" lengthAdjust="spacingAndGlyphs" textLength="9" x="344.5" y="259.6094">6</text><text fill="#000000" font-family="sans-serif" font-size="13" lengthAdjust="spacingAndGlyphs" textLength="442" x="357.5" y="259.6094">Compare role@domain Occupant user@domain1 AS role+you@domain</text><polygon fill="#0000FF" points="348.5,294.3516,338.5,298.3516,348.5,302.3516,344.5,298.3516" style="stroke: #0000FF; stroke-width: 1.0;"/><line style="stroke: #0000FF; stroke-width: 1.0; stroke-dasharray: 2.0,2.0;" x1="342.5" x2="1133.5" y1="298.3516" y2="298.3516"/><text fill="#000000" font-family="sans-serif" font-size="13" font-weight="bold" lengthAdjust="spacingAndGlyphs" textLength="9" x="354.5" y="293.9199">7</text><text fill="#000000" font-family="sans-serif" font-size="13" lengthAdjust="spacingAndGlyphs" textLength="112" x="367.5" y="293.9199">UserID Not Found</text><polygon fill="#FBFB77" filter="url(#f2dtdss)" points="128,277.3516,128,302.3516,318,302.3516,318,287.3516,308,277.3516,128,277.3516" style="stroke: #A80036; stroke-width: 1.0;"/><line style="stroke: #A80036; stroke-width: 1.0;" x1="308" x2="308" y1="277.3516" y2="287.3516"/><line style="stroke: #A80036; stroke-width: 1.0;" x1="318" x2="308" y1="287.3516" y2="287.3516"/><text fill="#0000FF" font-family="sans-serif" font-size="13" lengthAdjust="spacingAndGlyphs" textLength="169" x="134" y="294.9199">Alternative flow, fatal error</text><polygon fill="#0000FF" points="42.5,328.6621,32.5,332.6621,42.5,336.6621,38.5,332.6621" style="stroke: #0000FF; stroke-width: 1.0;"/><line style="stroke: #0000FF; stroke-width: 1.0; stroke-dasharray: 2.0,2.0;" x1="36.5" x2="326.5" y1="332.6621" y2="332.6621"/><text fill="#000000" font-family="sans-serif" font-size="13" font-weight="bold" lengthAdjust="spacingAndGlyphs" textLength="9" x="48.5" y="328.2305">8</text><text fill="#000000" font-family="sans-serif" font-size="13" lengthAdjust="spacingAndGlyphs" textLength="123" x="61.5" y="328.2305">Unknown Occupant</text><polygon fill="#A80036" points="348.5,357.9727,338.5,361.9727,348.5,365.9727,344.5,361.9727" style="stroke: #A80036; stroke-width: 1.0;"/><line style="stroke: #A80036; stroke-width: 1.0;" x1="342.5" x2="1138.5" y1="361.9727" y2="361.9727"/><text fill="#000000" font-family="sans-serif" font-size="13" font-weight="bold" lengthAdjust="spacingAndGlyphs" textLength="9" x="354.5" y="357.541">9</text><text fill="#000000" font-family="sans-serif" font-size="13" lengthAdjust="spacingAndGlyphs" textLength="85" x="367.5" y="357.541">UserID Found</text><polygon fill="#A80036" points="37.5,387.2832,27.5,391.2832,37.5,395.2832,33.5,391.2832" style="stroke: #A80036; stroke-width: 1.0;"/><line style="stroke: #A80036; stroke-width: 1.0;" x1="31.5" x2="326.5" y1="391.2832" y2="391.2832"/><text fill="#000000" font-family="sans-serif" font-size="13" font-weight="bold" lengthAdjust="spacingAndGlyphs" textLength="18" x="43.5" y="386.8516">10</text><text fill="#000000" font-family="sans-serif" font-size="13" lengthAdjust="spacingAndGlyphs" textLength="48" x="65.5" y="386.8516">Queued</text><polygon fill="#A80036" points="649.5,416.5938,659.5,420.5938,649.5,424.5938,653.5,420.5938" style="stroke: #A80036; stroke-width: 1.0;"/><line style="stroke: #A80036; stroke-width: 1.0;" x1="337.5" x2="655.5" y1="420.5938" y2="420.5938"/><text fill="#000000" font-family="sans-serif" font-size="13" font-weight="bold" lengthAdjust="spacingAndGlyphs" textLength="18" x="344.5" y="416.1621">11</text><text fill="#000000" font-family="sans-serif" font-size="13" lengthAdjust="spacingAndGlyphs" textLength="278" x="366.5" y="416.1621">Drop role@domain Occupant user@domain1</text><polygon fill="#A80036" points="343.5,445.9043,333.5,449.9043,343.5,453.9043,339.5,449.9043" style="stroke: #A80036; stroke-width: 1.0;"/><line style="stroke: #A80036; stroke-width: 1.0;" x1="337.5" x2="660.5" y1="449.9043" y2="449.9043"/><text fill="#000000" font-family="sans-serif" font-size="13" font-weight="bold" lengthAdjust="spacingAndGlyphs" textLength="18" x="349.5" y="445.4727">12</text><text fill="#000000" font-family="sans-serif" font-size="13" lengthAdjust="spacingAndGlyphs" textLength="48" x="371.5" y="445.4727">Queued</text><polygon fill="#A80036" points="1122.5,475.2148,1132.5,479.2148,1122.5,483.2148,1126.5,479.2148" style="stroke: #A80036; stroke-width: 1.0;"/><line style="stroke: #A80036; stroke-width: 1.0;" x1="671.5" x2="1128.5" y1="479.2148" y2="479.2148"/><text fill="#000000" font-family="sans-serif" font-size="13" font-weight="bold" lengthAdjust="spacingAndGlyphs" textLength="18" x="678.5" y="474.7832">13</text><text fill="#000000" font-family="sans-serif" font-size="13" lengthAdjust="spacingAndGlyphs" textLength="417" x="700.5" y="474.7832">Drop role@domain Occupant user@domain1 AS role+you@domain</text><polygon fill="#A80036" points="785.5,504.5254,775.5,508.5254,785.5,512.5254,781.5,508.5254" style="stroke: #A80036; stroke-width: 1.0;"/><line style="stroke: #A80036; stroke-width: 1.0;" x1="779.5" x2="1133.5" y1="508.5254" y2="508.5254"/><text fill="#000000" font-family="sans-serif" font-size="13" font-weight="bold" lengthAdjust="spacingAndGlyphs" textLength="18" x="791.5" y="504.0938">14</text><text fill="#000000" font-family="sans-serif" font-size="13" lengthAdjust="spacingAndGlyphs" textLength="191" x="813.5" y="504.0938">Drop certain cached privileges</text><polygon fill="#A80036" points="1122.5,533.8359,1132.5,537.8359,1122.5,541.8359,1126.5,537.8359" style="stroke: #A80036; stroke-width: 1.0;"/><line style="stroke: #A80036; stroke-width: 1.0;" x1="769.5" x2="1128.5" y1="537.8359" y2="537.8359"/><text fill="#000000" font-family="sans-serif" font-size="13" font-weight="bold" lengthAdjust="spacingAndGlyphs" textLength="18" x="776.5" y="533.4043">15</text><text fill="#000000" font-family="sans-serif" font-size="13" lengthAdjust="spacingAndGlyphs" textLength="37" x="798.5" y="533.4043">Ready</text><polygon fill="#A80036" points="677.5,563.1465,667.5,567.1465,677.5,571.1465,673.5,567.1465" style="stroke: #A80036; stroke-width: 1.0;"/><line style="stroke: #A80036; stroke-width: 1.0;" x1="671.5" x2="1138.5" y1="567.1465" y2="567.1465"/><text fill="#000000" font-family="sans-serif" font-size="13" font-weight="bold" lengthAdjust="spacingAndGlyphs" textLength="18" x="683.5" y="562.7148">16</text><text fill="#000000" font-family="sans-serif" font-size="13" lengthAdjust="spacingAndGlyphs" textLength="37" x="705.5" y="562.7148">Ready</text></g></svg>