<?xml version="1.0" encoding="UTF-8" standalone="no"?><svg xmlns="http://www.w3.org/2000/svg" xmlns:xlink="http://www.w3.org/1999/xlink" contentScriptType="application/ecmascript" contentStyleType="text/css" height="601px" preserveAspectRatio="none" style="width:1154px;height:601px;" version="1.1" viewBox="0 0 1154 601" width="1154px" zoomAndPan="magnify"><defs><filter height="300%" id="f6t520i" width="300%" x="-1" y="-1"><feGaussianBlur result="blurOut" stdDeviation="2.0"/><feColorMatrix in="blurOut" result="blurOut2" type="matrix" values="0 0 0 0 0 0 0 0 0 0 0 0 0 0 0 0 0 0 .4 0"/><feOffset dx="4.0" dy="4.0" in="blurOut2" result="blurOut3"/><feBlend in="SourceGraphic" in2="blurOut3" mode="normal"/></filter></defs><g><rect fill="#FFFFFF" filter="url(#f6t520i)" height="58.6211" style="stroke: #A80036; stroke-width: 1.0;" width="10" x="80" y="117.4883"/><rect fill="#FFFFFF" filter="url(#f6t520i)" height="284.7949" style="stroke: #A80036; stroke-width: 1.0;" width="10" x="322.5" y="96.4883"/><rect fill="#FFFFFF" filter="url(#f6t520i)" height="117.2422" style="stroke: #A80036; stroke-width: 1.0;" width="10" x="651.5" y="381.2832"/><rect fill="#FFFFFF" filter="url(#f6t520i)" height="58.6211" style="stroke: #A80036; stroke-width: 1.0;" width="10" x="759.5" y="176.1094"/><rect fill="#FFFFFF" filter="url(#f6t520i)" height="117.2422" style="stroke: #A80036; stroke-width: 1.0;" width="10" x="1124.5" y="234.7305"/><rect fill="#FFFFFF" filter="url(#f6t520i)" height="58.6211" style="stroke: #A80036; stroke-width: 1.0;" width="10" x="1124.5" y="439.9043"/><line style="stroke: #A80036; stroke-width: 1.0; stroke-dasharray: 5.0,5.0;" x1="26" x2="26" y1="86.4883" y2="516.8359"/><line style="stroke: #A80036; stroke-width: 1.0; stroke-dasharray: 5.0,5.0;" x1="85" x2="85" y1="86.4883" y2="516.8359"/><line style="stroke: #A80036; stroke-width: 1.0; stroke-dasharray: 5.0,5.0;" x1="327" x2="327" y1="86.4883" y2="516.8359"/><line style="stroke: #A80036; stroke-width: 1.0; stroke-dasharray: 5.0,5.0;" x1="656.5" x2="656.5" y1="86.4883" y2="516.8359"/><line style="stroke: #A80036; stroke-width: 1.0; stroke-dasharray: 5.0,5.0;" x1="764" x2="764" y1="86.4883" y2="516.8359"/><line style="stroke: #A80036; stroke-width: 1.0; stroke-dasharray: 5.0,5.0;" x1="1129" x2="1129" y1="86.4883" y2="516.8359"/><text fill="#000000" font-family="sans-serif" font-size="14" lengthAdjust="spacingAndGlyphs" textLength="31" x="8" y="83.5352">User</text><ellipse cx="26.5" cy="13" fill="#FEFECE" filter="url(#f6t520i)" rx="8" ry="8" style="stroke: #A80036; stroke-width: 2.0;"/><path d="M26.5,21 L26.5,48 M13.5,29 L39.5,29 M26.5,48 L13.5,63 M26.5,48 L39.5,63 " fill="#FEFECE" filter="url(#f6t520i)" style="stroke: #A80036; stroke-width: 2.0;"/><text fill="#000000" font-family="sans-serif" font-size="14" lengthAdjust="spacingAndGlyphs" textLength="31" x="8" y="529.3711">User</text><ellipse cx="26.5" cy="542.3242" fill="#FEFECE" filter="url(#f6t520i)" rx="8" ry="8" style="stroke: #A80036; stroke-width: 2.0;"/><path d="M26.5,550.3242 L26.5,577.3242 M13.5,558.3242 L39.5,558.3242 M26.5,577.3242 L13.5,592.3242 M26.5,577.3242 L39.5,592.3242 " fill="#FEFECE" filter="url(#f6t520i)" style="stroke: #A80036; stroke-width: 2.0;"/><rect fill="#FEFECE" filter="url(#f6t520i)" height="30.4883" style="stroke: #A80036; stroke-width: 1.5;" width="56" x="55" y="51"/><text fill="#000000" font-family="sans-serif" font-size="14" lengthAdjust="spacingAndGlyphs" textLength="42" x="62" y="71.5352">Authn</text><rect fill="#FEFECE" filter="url(#f6t520i)" height="30.4883" style="stroke: #A80036; stroke-width: 1.5;" width="56" x="55" y="515.8359"/><text fill="#000000" font-family="sans-serif" font-size="14" lengthAdjust="spacingAndGlyphs" textLength="42" x="62" y="536.3711">Authn</text><rect fill="#FEFECE" filter="url(#f6t520i)" height="30.4883" style="stroke: #A80036; stroke-width: 1.5;" width="111" x="270" y="51"/><text fill="#000000" font-family="sans-serif" font-size="14" lengthAdjust="spacingAndGlyphs" textLength="97" x="277" y="71.5352">IdHub Control</text><rect fill="#FEFECE" filter="url(#f6t520i)" height="30.4883" style="stroke: #A80036; stroke-width: 1.5;" width="111" x="270" y="515.8359"/><text fill="#000000" font-family="sans-serif" font-size="14" lengthAdjust="spacingAndGlyphs" textLength="97" x="277" y="536.3711">IdHub Control</text><rect fill="#FEFECE" filter="url(#f6t520i)" height="30.4883" style="stroke: #A80036; stroke-width: 1.5;" width="102" x="603.5" y="51"/><text fill="#000000" font-family="sans-serif" font-size="14" lengthAdjust="spacingAndGlyphs" textLength="88" x="610.5" y="71.5352">Key Manager</text><rect fill="#FEFECE" filter="url(#f6t520i)" height="30.4883" style="stroke: #A80036; stroke-width: 1.5;" width="102" x="603.5" y="515.8359"/><text fill="#000000" font-family="sans-serif" font-size="14" lengthAdjust="spacingAndGlyphs" textLength="88" x="610.5" y="536.3711">Key Manager</text><rect fill="#FEFECE" filter="url(#f6t520i)" height="30.4883" style="stroke: #A80036; stroke-width: 1.5;" width="55" x="735" y="51"/><text fill="#000000" font-family="sans-serif" font-size="14" lengthAdjust="spacingAndGlyphs" textLength="41" x="742" y="71.5352">Authz</text><rect fill="#FEFECE" filter="url(#f6t520i)" height="30.4883" style="stroke: #A80036; stroke-width: 1.5;" width="55" x="735" y="515.8359"/><text fill="#000000" font-family="sans-serif" font-size="14" lengthAdjust="spacingAndGlyphs" textLength="41" x="742" y="536.3711">Authz</text><text fill="#000000" font-family="sans-serif" font-size="14" lengthAdjust="spacingAndGlyphs" textLength="35" x="1109" y="83.5352">LDAP</text><path d="M1111.5,34 C1111.5,24 1129.5,24 1129.5,24 C1129.5,24 1147.5,24 1147.5,34 L1147.5,60 C1147.5,70 1129.5,70 1129.5,70 C1129.5,70 1111.5,70 1111.5,60 L1111.5,34 " fill="#FEFECE" filter="url(#f6t520i)" style="stroke: #000000; stroke-width: 1.5;"/><path d="M1111.5,34 C1111.5,44 1129.5,44 1129.5,44 C1129.5,44 1147.5,44 1147.5,34 " fill="none" style="stroke: #000000; stroke-width: 1.5;"/><text fill="#000000" font-family="sans-serif" font-size="14" lengthAdjust="spacingAndGlyphs" textLength="35" x="1109" y="529.3711">LDAP</text><path d="M1111.5,542.3242 C1111.5,532.3242 1129.5,532.3242 1129.5,532.3242 C1129.5,532.3242 1147.5,532.3242 1147.5,542.3242 L1147.5,568.3242 C1147.5,578.3242 1129.5,578.3242 1129.5,578.3242 C1129.5,578.3242 1111.5,578.3242 1111.5,568.3242 L1111.5,542.3242 " fill="#FEFECE" filter="url(#f6t520i)" style="stroke: #000000; stroke-width: 1.5;"/><path d="M1111.5,542.3242 C1111.5,552.3242 1129.5,552.3242 1129.5,552.3242 C1129.5,552.3242 1147.5,552.3242 1147.5,542.3242 " fill="none" style="stroke: #000000; stroke-width: 1.5;"/><rect fill="#FFFFFF" filter="url(#f6t520i)" height="58.6211" style="stroke: #A80036; stroke-width: 1.0;" width="10" x="80" y="117.4883"/><rect fill="#FFFFFF" filter="url(#f6t520i)" height="284.7949" style="stroke: #A80036; stroke-width: 1.0;" width="10" x="322.5" y="96.4883"/><rect fill="#FFFFFF" filter="url(#f6t520i)" height="117.2422" style="stroke: #A80036; stroke-width: 1.0;" width="10" x="651.5" y="381.2832"/><rect fill="#FFFFFF" filter="url(#f6t520i)" height="58.6211" style="stroke: #A80036; stroke-width: 1.0;" width="10" x="759.5" y="176.1094"/><rect fill="#FFFFFF" filter="url(#f6t520i)" height="117.2422" style="stroke: #A80036; stroke-width: 1.0;" width="10" x="1124.5" y="234.7305"/><rect fill="#FFFFFF" filter="url(#f6t520i)" height="58.6211" style="stroke: #A80036; stroke-width: 1.0;" width="10" x="1124.5" y="439.9043"/><polygon fill="#A80036" points="310.5,113.4883,320.5,117.4883,310.5,121.4883,314.5,117.4883" style="stroke: #A80036; stroke-width: 1.0;"/><line style="stroke: #A80036; stroke-width: 1.0;" x1="26.5" x2="316.5" y1="117.4883" y2="117.4883"/><text fill="#000000" font-family="sans-serif" font-size="13" font-weight="bold" lengthAdjust="spacingAndGlyphs" textLength="9" x="33.5" y="113.0566">1</text><text fill="#000000" font-family="sans-serif" font-size="13" lengthAdjust="spacingAndGlyphs" textLength="259" x="46.5" y="113.0566">Role role@domain Revoke user@domain1</text><polygon fill="#A80036" points="101,142.7988,91,146.7988,101,150.7988,97,146.7988" style="stroke: #A80036; stroke-width: 1.0;"/><line style="stroke: #A80036; stroke-width: 1.0;" x1="95" x2="321.5" y1="146.7988" y2="146.7988"/><text fill="#000000" font-family="sans-serif" font-size="13" font-weight="bold" lengthAdjust="spacingAndGlyphs" textLength="9" x="107" y="142.3672">2</text><text fill="#000000" font-family="sans-serif" font-size="13" lengthAdjust="spacingAndGlyphs" textLength="136" x="120" y="142.3672">SecureLayer @domain</text><polygon fill="#A80036" points="310.5,172.1094,320.5,176.1094,310.5,180.1094,314.5,176.1094" style="stroke: #A80036; stroke-width: 1.0;"/><line style="stroke: #A80036; stroke-width: 1.0;" x1="85" x2="316.5" y1="176.1094" y2="176.1094"/><text fill="#000000" font-family="sans-serif" font-size="13" font-weight="bold" lengthAdjust="spacingAndGlyphs" textLength="9" x="92" y="171.6777">3</text><text fill="#000000" font-family="sans-serif" font-size="13" lengthAdjust="spacingAndGlyphs" textLength="180" x="105" y="171.6777">RemoteID role+you@domain</text><polygon fill="#A80036" points="747.5,201.4199,757.5,205.4199,747.5,209.4199,751.5,205.4199" style="stroke: #A80036; stroke-width: 1.0;"/><line style="stroke: #A80036; stroke-width: 1.0;" x1="332.5" x2="753.5" y1="205.4199" y2="205.4199"/><text fill="#000000" font-family="sans-serif" font-size="13" font-weight="bold" lengthAdjust="spacingAndGlyphs" textLength="9" x="339.5" y="200.9883">4</text><text fill="#000000" font-family="sans-serif" font-size="13" lengthAdjust="spacingAndGlyphs" textLength="390" x="352.5" y="200.9883">WANT role-occupancy ON role@domain AS role+you@domain</text><polygon fill="#A80036" points="343.5,230.7305,333.5,234.7305,343.5,238.7305,339.5,234.7305" style="stroke: #A80036; stroke-width: 1.0;"/><line style="stroke: #A80036; stroke-width: 1.0;" x1="337.5" x2="763.5" y1="234.7305" y2="234.7305"/><text fill="#000000" font-family="sans-serif" font-size="13" font-weight="bold" lengthAdjust="spacingAndGlyphs" textLength="9" x="349.5" y="230.2988">5</text><text fill="#000000" font-family="sans-serif" font-size="13" lengthAdjust="spacingAndGlyphs" textLength="166" x="362.5" y="230.2988">OK FOR role+you@domain</text><polygon fill="#A80036" points="1112.5,260.041,1122.5,264.041,1112.5,268.041,1116.5,264.041" style="stroke: #A80036; stroke-width: 1.0;"/><line style="stroke: #A80036; stroke-width: 1.0;" x1="332.5" x2="1118.5" y1="264.041" y2="264.041"/><text fill="#000000" font-family="sans-serif" font-size="13" font-weight="bold" lengthAdjust="spacingAndGlyphs" textLength="9" x="339.5" y="259.6094">6</text><text fill="#000000" font-family="sans-serif" font-size="13" lengthAdjust="spacingAndGlyphs" textLength="427" x="352.5" y="259.6094">Search role@domain Occupant user@domain1 AS role+you@domain</text><polygon fill="#0000FF" points="343.5,289.3516,333.5,293.3516,343.5,297.3516,339.5,293.3516" style="stroke: #0000FF; stroke-width: 1.0;"/><line style="stroke: #0000FF; stroke-width: 1.0; stroke-dasharray: 2.0,2.0;" x1="337.5" x2="1123.5" y1="293.3516" y2="293.3516"/><text fill="#000000" font-family="sans-serif" font-size="13" font-weight="bold" lengthAdjust="spacingAndGlyphs" textLength="9" x="349.5" y="288.9199">7</text><text fill="#000000" font-family="sans-serif" font-size="13" lengthAdjust="spacingAndGlyphs" textLength="112" x="362.5" y="288.9199">UserID Not Found</text><polygon fill="#0000FF" points="37.5,318.6621,27.5,322.6621,37.5,326.6621,33.5,322.6621" style="stroke: #0000FF; stroke-width: 1.0;"/><line style="stroke: #0000FF; stroke-width: 1.0; stroke-dasharray: 2.0,2.0;" x1="31.5" x2="321.5" y1="322.6621" y2="322.6621"/><text fill="#000000" font-family="sans-serif" font-size="13" font-weight="bold" lengthAdjust="spacingAndGlyphs" textLength="9" x="43.5" y="318.2305">8</text><text fill="#000000" font-family="sans-serif" font-size="13" lengthAdjust="spacingAndGlyphs" textLength="123" x="56.5" y="318.2305">Unknown Occupant</text><polygon fill="#A80036" points="343.5,347.9727,333.5,351.9727,343.5,355.9727,339.5,351.9727" style="stroke: #A80036; stroke-width: 1.0;"/><line style="stroke: #A80036; stroke-width: 1.0;" x1="337.5" x2="1128.5" y1="351.9727" y2="351.9727"/><text fill="#000000" font-family="sans-serif" font-size="13" font-weight="bold" lengthAdjust="spacingAndGlyphs" textLength="9" x="349.5" y="347.541">9</text><text fill="#000000" font-family="sans-serif" font-size="13" lengthAdjust="spacingAndGlyphs" textLength="85" x="362.5" y="347.541">UserID Found</text><polygon fill="#A80036" points="37.5,377.2832,27.5,381.2832,37.5,385.2832,33.5,381.2832" style="stroke: #A80036; stroke-width: 1.0;"/><line style="stroke: #A80036; stroke-width: 1.0;" x1="31.5" x2="326.5" y1="381.2832" y2="381.2832"/><text fill="#000000" font-family="sans-serif" font-size="13" font-weight="bold" lengthAdjust="spacingAndGlyphs" textLength="18" x="43.5" y="376.8516">10</text><text fill="#000000" font-family="sans-serif" font-size="13" lengthAdjust="spacingAndGlyphs" textLength="48" x="65.5" y="376.8516">Queued</text><polygon fill="#A80036" points="639.5,406.5938,649.5,410.5938,639.5,414.5938,643.5,410.5938" style="stroke: #A80036; stroke-width: 1.0;"/><line style="stroke: #A80036; stroke-width: 1.0;" x1="327.5" x2="645.5" y1="410.5938" y2="410.5938"/><text fill="#000000" font-family="sans-serif" font-size="13" font-weight="bold" lengthAdjust="spacingAndGlyphs" textLength="18" x="334.5" y="406.1621">11</text><text fill="#000000" font-family="sans-serif" font-size="13" lengthAdjust="spacingAndGlyphs" textLength="278" x="356.5" y="406.1621">Drop role@domain Occupant user@domain1</text><polygon fill="#A80036" points="338.5,435.9043,328.5,439.9043,338.5,443.9043,334.5,439.9043" style="stroke: #A80036; stroke-width: 1.0;"/><line style="stroke: #A80036; stroke-width: 1.0;" x1="332.5" x2="650.5" y1="439.9043" y2="439.9043"/><text fill="#000000" font-family="sans-serif" font-size="13" font-weight="bold" lengthAdjust="spacingAndGlyphs" textLength="18" x="344.5" y="435.4727">12</text><text fill="#000000" font-family="sans-serif" font-size="13" lengthAdjust="spacingAndGlyphs" textLength="48" x="366.5" y="435.4727">Queued</text><polygon fill="#A80036" points="1112.5,465.2148,1122.5,469.2148,1112.5,473.2148,1116.5,469.2148" style="stroke: #A80036; stroke-width: 1.0;"/><line style="stroke: #A80036; stroke-width: 1.0;" x1="661.5" x2="1118.5" y1="469.2148" y2="469.2148"/><text fill="#000000" font-family="sans-serif" font-size="13" font-weight="bold" lengthAdjust="spacingAndGlyphs" textLength="18" x="668.5" y="464.7832">13</text><text fill="#000000" font-family="sans-serif" font-size="13" lengthAdjust="spacingAndGlyphs" textLength="417" x="690.5" y="464.7832">Drop role@domain Occupant user@domain1 AS role+you@domain</text><polygon fill="#A80036" points="667.5,494.5254,657.5,498.5254,667.5,502.5254,663.5,498.5254" style="stroke: #A80036; stroke-width: 1.0;"/><line style="stroke: #A80036; stroke-width: 1.0;" x1="661.5" x2="1128.5" y1="498.5254" y2="498.5254"/><text fill="#000000" font-family="sans-serif" font-size="13" font-weight="bold" lengthAdjust="spacingAndGlyphs" textLength="18" x="673.5" y="494.0938">14</text><text fill="#000000" font-family="sans-serif" font-size="13" lengthAdjust="spacingAndGlyphs" textLength="37" x="695.5" y="494.0938">Ready</text></g></svg>