<?xml version="1.0" encoding="UTF-8" standalone="no"?><svg xmlns="http://www.w3.org/2000/svg" xmlns:xlink="http://www.w3.org/1999/xlink" contentScriptType="application/ecmascript" contentStyleType="text/css" height="799px" preserveAspectRatio="none" style="width:1170px;height:799px;" version="1.1" viewBox="0 0 1170 799" width="1170px" zoomAndPan="magnify"><defs><filter height="300%" id="fuh5gn6" width="300%" x="-1" y="-1"><feGaussianBlur result="blurOut" stdDeviation="2.0"/><feColorMatrix in="blurOut" result="blurOut2" type="matrix" values="0 0 0 0 0 0 0 0 0 0 0 0 0 0 0 0 0 0 .4 0"/><feOffset dx="4.0" dy="4.0" in="blurOut2" result="blurOut3"/><feBlend in="SourceGraphic" in2="blurOut3" mode="normal"/></filter></defs><g><rect fill="#FFFFFF" filter="url(#fuh5gn6)" height="381.416" style="stroke: #A80036; stroke-width: 1.0;" width="10" x="21.5" y="96.4883"/><rect fill="#FFFFFF" filter="url(#fuh5gn6)" height="101.9316" style="stroke: #A80036; stroke-width: 1.0;" width="10" x="80" y="117.4883"/><rect fill="#FFFFFF" filter="url(#fuh5gn6)" height="483.3477" style="stroke: #A80036; stroke-width: 1.0;" width="10" x="327.5" y="96.4883"/><rect fill="#FFFFFF" filter="url(#fuh5gn6)" height="219.1738" style="stroke: #A80036; stroke-width: 1.0;" width="10" x="661.5" y="477.9043"/><rect fill="#FFFFFF" filter="url(#fuh5gn6)" height="58.6211" style="stroke: #A80036; stroke-width: 1.0;" width="10" x="764.5" y="219.4199"/><rect fill="#FFFFFF" filter="url(#fuh5gn6)" height="58.6211" style="stroke: #A80036; stroke-width: 1.0;" width="10" x="764.5" y="609.1465"/><rect fill="#FFFFFF" filter="url(#fuh5gn6)" height="170.5527" style="stroke: #A80036; stroke-width: 1.0;" width="10" x="1134.5" y="278.041"/><rect fill="#FFFFFF" filter="url(#fuh5gn6)" height="117.2422" style="stroke: #A80036; stroke-width: 1.0;" width="10" x="1134.5" y="579.8359"/><line style="stroke: #A80036; stroke-width: 1.0; stroke-dasharray: 5.0,5.0;" x1="26" x2="26" y1="86.4883" y2="715.3887"/><line style="stroke: #A80036; stroke-width: 1.0; stroke-dasharray: 5.0,5.0;" x1="85" x2="85" y1="86.4883" y2="715.3887"/><line style="stroke: #A80036; stroke-width: 1.0; stroke-dasharray: 5.0,5.0;" x1="332" x2="332" y1="86.4883" y2="715.3887"/><line style="stroke: #A80036; stroke-width: 1.0; stroke-dasharray: 5.0,5.0;" x1="666.5" x2="666.5" y1="86.4883" y2="715.3887"/><line style="stroke: #A80036; stroke-width: 1.0; stroke-dasharray: 5.0,5.0;" x1="769" x2="769" y1="86.4883" y2="715.3887"/><line style="stroke: #A80036; stroke-width: 1.0; stroke-dasharray: 5.0,5.0;" x1="1139" x2="1139" y1="86.4883" y2="715.3887"/><text fill="#000000" font-family="sans-serif" font-size="14" lengthAdjust="spacingAndGlyphs" textLength="31" x="8" y="83.5352">User</text><ellipse cx="26.5" cy="13" fill="#FEFECE" filter="url(#fuh5gn6)" rx="8" ry="8" style="stroke: #A80036; stroke-width: 2.0;"/><path d="M26.5,21 L26.5,48 M13.5,29 L39.5,29 M26.5,48 L13.5,63 M26.5,48 L39.5,63 " fill="#FEFECE" filter="url(#fuh5gn6)" style="stroke: #A80036; stroke-width: 2.0;"/><text fill="#000000" font-family="sans-serif" font-size="14" lengthAdjust="spacingAndGlyphs" textLength="31" x="8" y="727.9238">User</text><ellipse cx="26.5" cy="740.877" fill="#FEFECE" filter="url(#fuh5gn6)" rx="8" ry="8" style="stroke: #A80036; stroke-width: 2.0;"/><path d="M26.5,748.877 L26.5,775.877 M13.5,756.877 L39.5,756.877 M26.5,775.877 L13.5,790.877 M26.5,775.877 L39.5,790.877 " fill="#FEFECE" filter="url(#fuh5gn6)" style="stroke: #A80036; stroke-width: 2.0;"/><rect fill="#FEFECE" filter="url(#fuh5gn6)" height="30.4883" style="stroke: #A80036; stroke-width: 1.5;" width="56" x="55" y="51"/><text fill="#000000" font-family="sans-serif" font-size="14" lengthAdjust="spacingAndGlyphs" textLength="42" x="62" y="71.5352">Authn</text><rect fill="#FEFECE" filter="url(#fuh5gn6)" height="30.4883" style="stroke: #A80036; stroke-width: 1.5;" width="56" x="55" y="714.3887"/><text fill="#000000" font-family="sans-serif" font-size="14" lengthAdjust="spacingAndGlyphs" textLength="42" x="62" y="734.9238">Authn</text><rect fill="#FEFECE" filter="url(#fuh5gn6)" height="30.4883" style="stroke: #A80036; stroke-width: 1.5;" width="111" x="275" y="51"/><text fill="#000000" font-family="sans-serif" font-size="14" lengthAdjust="spacingAndGlyphs" textLength="97" x="282" y="71.5352">IdHub Control</text><rect fill="#FEFECE" filter="url(#fuh5gn6)" height="30.4883" style="stroke: #A80036; stroke-width: 1.5;" width="111" x="275" y="714.3887"/><text fill="#000000" font-family="sans-serif" font-size="14" lengthAdjust="spacingAndGlyphs" textLength="97" x="282" y="734.9238">IdHub Control</text><rect fill="#FEFECE" filter="url(#fuh5gn6)" height="30.4883" style="stroke: #A80036; stroke-width: 1.5;" width="102" x="613.5" y="51"/><text fill="#000000" font-family="sans-serif" font-size="14" lengthAdjust="spacingAndGlyphs" textLength="88" x="620.5" y="71.5352">Key Manager</text><rect fill="#FEFECE" filter="url(#fuh5gn6)" height="30.4883" style="stroke: #A80036; stroke-width: 1.5;" width="102" x="613.5" y="714.3887"/><text fill="#000000" font-family="sans-serif" font-size="14" lengthAdjust="spacingAndGlyphs" textLength="88" x="620.5" y="734.9238">Key Manager</text><rect fill="#FEFECE" filter="url(#fuh5gn6)" height="30.4883" style="stroke: #A80036; stroke-width: 1.5;" width="55" x="740" y="51"/><text fill="#000000" font-family="sans-serif" font-size="14" lengthAdjust="spacingAndGlyphs" textLength="41" x="747" y="71.5352">Authz</text><rect fill="#FEFECE" filter="url(#fuh5gn6)" height="30.4883" style="stroke: #A80036; stroke-width: 1.5;" width="55" x="740" y="714.3887"/><text fill="#000000" font-family="sans-serif" font-size="14" lengthAdjust="spacingAndGlyphs" textLength="41" x="747" y="734.9238">Authz</text><text fill="#000000" font-family="sans-serif" font-size="14" lengthAdjust="spacingAndGlyphs" textLength="35" x="1119" y="83.5352">LDAP</text><path d="M1121.5,34 C1121.5,24 1139.5,24 1139.5,24 C1139.5,24 1157.5,24 1157.5,34 L1157.5,60 C1157.5,70 1139.5,70 1139.5,70 C1139.5,70 1121.5,70 1121.5,60 L1121.5,34 " fill="#FEFECE" filter="url(#fuh5gn6)" style="stroke: #000000; stroke-width: 1.5;"/><path d="M1121.5,34 C1121.5,44 1139.5,44 1139.5,44 C1139.5,44 1157.5,44 1157.5,34 " fill="none" style="stroke: #000000; stroke-width: 1.5;"/><text fill="#000000" font-family="sans-serif" font-size="14" lengthAdjust="spacingAndGlyphs" textLength="35" x="1119" y="727.9238">LDAP</text><path d="M1121.5,740.877 C1121.5,730.877 1139.5,730.877 1139.5,730.877 C1139.5,730.877 1157.5,730.877 1157.5,740.877 L1157.5,766.877 C1157.5,776.877 1139.5,776.877 1139.5,776.877 C1139.5,776.877 1121.5,776.877 1121.5,766.877 L1121.5,740.877 " fill="#FEFECE" filter="url(#fuh5gn6)" style="stroke: #000000; stroke-width: 1.5;"/><path d="M1121.5,740.877 C1121.5,750.877 1139.5,750.877 1139.5,750.877 C1139.5,750.877 1157.5,750.877 1157.5,740.877 " fill="none" style="stroke: #000000; stroke-width: 1.5;"/><rect fill="#FFFFFF" filter="url(#fuh5gn6)" height="381.416" style="stroke: #A80036; stroke-width: 1.0;" width="10" x="21.5" y="96.4883"/><rect fill="#FFFFFF" filter="url(#fuh5gn6)" height="101.9316" style="stroke: #A80036; stroke-width: 1.0;" width="10" x="80" y="117.4883"/><rect fill="#FFFFFF" filter="url(#fuh5gn6)" height="483.3477" style="stroke: #A80036; stroke-width: 1.0;" width="10" x="327.5" y="96.4883"/><rect fill="#FFFFFF" filter="url(#fuh5gn6)" height="219.1738" style="stroke: #A80036; stroke-width: 1.0;" width="10" x="661.5" y="477.9043"/><rect fill="#FFFFFF" filter="url(#fuh5gn6)" height="58.6211" style="stroke: #A80036; stroke-width: 1.0;" width="10" x="764.5" y="219.4199"/><rect fill="#FFFFFF" filter="url(#fuh5gn6)" height="58.6211" style="stroke: #A80036; stroke-width: 1.0;" width="10" x="764.5" y="609.1465"/><rect fill="#FFFFFF" filter="url(#fuh5gn6)" height="170.5527" style="stroke: #A80036; stroke-width: 1.0;" width="10" x="1134.5" y="278.041"/><rect fill="#FFFFFF" filter="url(#fuh5gn6)" height="117.2422" style="stroke: #A80036; stroke-width: 1.0;" width="10" x="1134.5" y="579.8359"/><polygon fill="#A80036" points="315.5,113.4883,325.5,117.4883,315.5,121.4883,319.5,117.4883" style="stroke: #A80036; stroke-width: 1.0;"/><line style="stroke: #A80036; stroke-width: 1.0;" x1="31.5" x2="321.5" y1="117.4883" y2="117.4883"/><text fill="#000000" font-family="sans-serif" font-size="13" font-weight="bold" lengthAdjust="spacingAndGlyphs" textLength="9" x="38.5" y="113.0566">1</text><text fill="#000000" font-family="sans-serif" font-size="13" lengthAdjust="spacingAndGlyphs" textLength="259" x="51.5" y="113.0566">Role role@domain Revoke user@domain1</text><rect fill="#EEEEEE" filter="url(#fuh5gn6)" height="3" style="stroke: #EEEEEE; stroke-width: 1.0;" width="1162" x="3" y="146.4541"/><line style="stroke: #000000; stroke-width: 1.0;" x1="3" x2="1165" y1="146.4541" y2="146.4541"/><line style="stroke: #000000; stroke-width: 1.0;" x1="3" x2="1165" y1="149.4541" y2="149.4541"/><rect fill="#EEEEEE" filter="url(#fuh5gn6)" height="23.3105" style="stroke: #000000; stroke-width: 2.0;" width="117" x="525.5" y="135.7988"/><text fill="#000000" font-family="sans-serif" font-size="13" font-weight="bold" lengthAdjust="spacingAndGlyphs" textLength="99" x="531.5" y="152.3672">Access Control</text><polygon fill="#A80036" points="101,186.1094,91,190.1094,101,194.1094,97,190.1094" style="stroke: #A80036; stroke-width: 1.0;"/><line style="stroke: #A80036; stroke-width: 1.0;" x1="95" x2="326.5" y1="190.1094" y2="190.1094"/><text fill="#000000" font-family="sans-serif" font-size="13" font-weight="bold" lengthAdjust="spacingAndGlyphs" textLength="9" x="107" y="185.6777">2</text><text fill="#000000" font-family="sans-serif" font-size="13" lengthAdjust="spacingAndGlyphs" textLength="136" x="120" y="185.6777">SecureLayer @domain</text><polygon fill="#A80036" points="315.5,215.4199,325.5,219.4199,315.5,223.4199,319.5,219.4199" style="stroke: #A80036; stroke-width: 1.0;"/><line style="stroke: #A80036; stroke-width: 1.0;" x1="85" x2="321.5" y1="219.4199" y2="219.4199"/><text fill="#000000" font-family="sans-serif" font-size="13" font-weight="bold" lengthAdjust="spacingAndGlyphs" textLength="9" x="92" y="214.9883">3</text><text fill="#000000" font-family="sans-serif" font-size="13" lengthAdjust="spacingAndGlyphs" textLength="180" x="105" y="214.9883">RemoteID role+you@domain</text><polygon fill="#A80036" points="752.5,244.7305,762.5,248.7305,752.5,252.7305,756.5,248.7305" style="stroke: #A80036; stroke-width: 1.0;"/><line style="stroke: #A80036; stroke-width: 1.0;" x1="337.5" x2="758.5" y1="248.7305" y2="248.7305"/><text fill="#000000" font-family="sans-serif" font-size="13" font-weight="bold" lengthAdjust="spacingAndGlyphs" textLength="9" x="344.5" y="244.2988">4</text><text fill="#000000" font-family="sans-serif" font-size="13" lengthAdjust="spacingAndGlyphs" textLength="390" x="357.5" y="244.2988">WANT role-occupancy ON role@domain AS role+you@domain</text><polygon fill="#A80036" points="348.5,274.041,338.5,278.041,348.5,282.041,344.5,278.041" style="stroke: #A80036; stroke-width: 1.0;"/><line style="stroke: #A80036; stroke-width: 1.0;" x1="342.5" x2="768.5" y1="278.041" y2="278.041"/><text fill="#000000" font-family="sans-serif" font-size="13" font-weight="bold" lengthAdjust="spacingAndGlyphs" textLength="9" x="354.5" y="273.6094">5</text><text fill="#000000" font-family="sans-serif" font-size="13" lengthAdjust="spacingAndGlyphs" textLength="166" x="367.5" y="273.6094">OK FOR role+you@domain</text><rect fill="#EEEEEE" filter="url(#fuh5gn6)" height="3" style="stroke: #EEEEEE; stroke-width: 1.0;" width="1162" x="3" y="307.0068"/><line style="stroke: #000000; stroke-width: 1.0;" x1="3" x2="1165" y1="307.0068" y2="307.0068"/><line style="stroke: #000000; stroke-width: 1.0;" x1="3" x2="1165" y1="310.0068" y2="310.0068"/><rect fill="#EEEEEE" filter="url(#fuh5gn6)" height="23.3105" style="stroke: #000000; stroke-width: 2.0;" width="104" x="532" y="296.3516"/><text fill="#000000" font-family="sans-serif" font-size="13" font-weight="bold" lengthAdjust="spacingAndGlyphs" textLength="86" x="538" y="312.9199">Sanity Check</text><polygon fill="#A80036" points="1122.5,346.6621,1132.5,350.6621,1122.5,354.6621,1126.5,350.6621" style="stroke: #A80036; stroke-width: 1.0;"/><line style="stroke: #A80036; stroke-width: 1.0;" x1="337.5" x2="1128.5" y1="350.6621" y2="350.6621"/><text fill="#000000" font-family="sans-serif" font-size="13" font-weight="bold" lengthAdjust="spacingAndGlyphs" textLength="9" x="344.5" y="346.2305">6</text><text fill="#000000" font-family="sans-serif" font-size="13" lengthAdjust="spacingAndGlyphs" textLength="442" x="357.5" y="346.2305">Compare role@domain Occupant user@domain1 AS role+you@domain</text><polygon fill="#0000FF" points="348.5,380.9727,338.5,384.9727,348.5,388.9727,344.5,384.9727" style="stroke: #0000FF; stroke-width: 1.0;"/><line style="stroke: #0000FF; stroke-width: 1.0; stroke-dasharray: 2.0,2.0;" x1="342.5" x2="1133.5" y1="384.9727" y2="384.9727"/><text fill="#000000" font-family="sans-serif" font-size="13" font-weight="bold" lengthAdjust="spacingAndGlyphs" textLength="9" x="354.5" y="380.541">7</text><text fill="#000000" font-family="sans-serif" font-size="13" lengthAdjust="spacingAndGlyphs" textLength="112" x="367.5" y="380.541">UserID Not Found</text><polygon fill="#FBFB77" filter="url(#fuh5gn6)" points="128,363.9727,128,388.9727,318,388.9727,318,373.9727,308,363.9727,128,363.9727" style="stroke: #A80036; stroke-width: 1.0;"/><line style="stroke: #A80036; stroke-width: 1.0;" x1="308" x2="308" y1="363.9727" y2="373.9727"/><line style="stroke: #A80036; stroke-width: 1.0;" x1="318" x2="308" y1="373.9727" y2="373.9727"/><text fill="#0000FF" font-family="sans-serif" font-size="13" lengthAdjust="spacingAndGlyphs" textLength="169" x="134" y="381.541">Alternative flow, fatal error</text><polygon fill="#0000FF" points="42.5,415.2832,32.5,419.2832,42.5,423.2832,38.5,419.2832" style="stroke: #0000FF; stroke-width: 1.0;"/><line style="stroke: #0000FF; stroke-width: 1.0; stroke-dasharray: 2.0,2.0;" x1="36.5" x2="326.5" y1="419.2832" y2="419.2832"/><text fill="#000000" font-family="sans-serif" font-size="13" font-weight="bold" lengthAdjust="spacingAndGlyphs" textLength="9" x="48.5" y="414.8516">8</text><text fill="#000000" font-family="sans-serif" font-size="13" lengthAdjust="spacingAndGlyphs" textLength="123" x="61.5" y="414.8516">Unknown Occupant</text><polygon fill="#A80036" points="348.5,444.5938,338.5,448.5938,348.5,452.5938,344.5,448.5938" style="stroke: #A80036; stroke-width: 1.0;"/><line style="stroke: #A80036; stroke-width: 1.0;" x1="342.5" x2="1138.5" y1="448.5938" y2="448.5938"/><text fill="#000000" font-family="sans-serif" font-size="13" font-weight="bold" lengthAdjust="spacingAndGlyphs" textLength="9" x="354.5" y="444.1621">9</text><text fill="#000000" font-family="sans-serif" font-size="13" lengthAdjust="spacingAndGlyphs" textLength="85" x="367.5" y="444.1621">UserID Found</text><polygon fill="#A80036" points="37.5,473.9043,27.5,477.9043,37.5,481.9043,33.5,477.9043" style="stroke: #A80036; stroke-width: 1.0;"/><line style="stroke: #A80036; stroke-width: 1.0;" x1="31.5" x2="326.5" y1="477.9043" y2="477.9043"/><text fill="#000000" font-family="sans-serif" font-size="13" font-weight="bold" lengthAdjust="spacingAndGlyphs" textLength="18" x="43.5" y="473.4727">10</text><text fill="#000000" font-family="sans-serif" font-size="13" lengthAdjust="spacingAndGlyphs" textLength="48" x="65.5" y="473.4727">Queued</text><rect fill="#EEEEEE" filter="url(#fuh5gn6)" height="3" style="stroke: #EEEEEE; stroke-width: 1.0;" width="1162" x="3" y="506.8701"/><line style="stroke: #000000; stroke-width: 1.0;" x1="3" x2="1165" y1="506.8701" y2="506.8701"/><line style="stroke: #000000; stroke-width: 1.0;" x1="3" x2="1165" y1="509.8701" y2="509.8701"/><rect fill="#EEEEEE" filter="url(#fuh5gn6)" height="23.3105" style="stroke: #000000; stroke-width: 2.0;" width="136" x="516" y="496.2148"/><text fill="#000000" font-family="sans-serif" font-size="13" font-weight="bold" lengthAdjust="spacingAndGlyphs" textLength="118" x="522" y="512.7832">Key Management</text><polygon fill="#A80036" points="649.5,546.5254,659.5,550.5254,649.5,554.5254,653.5,550.5254" style="stroke: #A80036; stroke-width: 1.0;"/><line style="stroke: #A80036; stroke-width: 1.0;" x1="337.5" x2="655.5" y1="550.5254" y2="550.5254"/><text fill="#000000" font-family="sans-serif" font-size="13" font-weight="bold" lengthAdjust="spacingAndGlyphs" textLength="18" x="344.5" y="546.0938">11</text><text fill="#000000" font-family="sans-serif" font-size="13" lengthAdjust="spacingAndGlyphs" textLength="278" x="366.5" y="546.0938">Drop role@domain Occupant user@domain1</text><polygon fill="#A80036" points="343.5,575.8359,333.5,579.8359,343.5,583.8359,339.5,579.8359" style="stroke: #A80036; stroke-width: 1.0;"/><line style="stroke: #A80036; stroke-width: 1.0;" x1="337.5" x2="660.5" y1="579.8359" y2="579.8359"/><text fill="#000000" font-family="sans-serif" font-size="13" font-weight="bold" lengthAdjust="spacingAndGlyphs" textLength="18" x="349.5" y="575.4043">12</text><text fill="#000000" font-family="sans-serif" font-size="13" lengthAdjust="spacingAndGlyphs" textLength="48" x="371.5" y="575.4043">Queued</text><polygon fill="#A80036" points="1122.5,605.1465,1132.5,609.1465,1122.5,613.1465,1126.5,609.1465" style="stroke: #A80036; stroke-width: 1.0;"/><line style="stroke: #A80036; stroke-width: 1.0;" x1="671.5" x2="1128.5" y1="609.1465" y2="609.1465"/><text fill="#000000" font-family="sans-serif" font-size="13" font-weight="bold" lengthAdjust="spacingAndGlyphs" textLength="18" x="678.5" y="604.7148">13</text><text fill="#000000" font-family="sans-serif" font-size="13" lengthAdjust="spacingAndGlyphs" textLength="417" x="700.5" y="604.7148">Drop role@domain Occupant user@domain1 AS role+you@domain</text><polygon fill="#A80036" points="785.5,634.457,775.5,638.457,785.5,642.457,781.5,638.457" style="stroke: #A80036; stroke-width: 1.0;"/><line style="stroke: #A80036; stroke-width: 1.0;" x1="779.5" x2="1133.5" y1="638.457" y2="638.457"/><text fill="#000000" font-family="sans-serif" font-size="13" font-weight="bold" lengthAdjust="spacingAndGlyphs" textLength="18" x="791.5" y="634.0254">14</text><text fill="#000000" font-family="sans-serif" font-size="13" lengthAdjust="spacingAndGlyphs" textLength="191" x="813.5" y="634.0254">Drop certain cached privileges</text><polygon fill="#A80036" points="1122.5,663.7676,1132.5,667.7676,1122.5,671.7676,1126.5,667.7676" style="stroke: #A80036; stroke-width: 1.0;"/><line style="stroke: #A80036; stroke-width: 1.0;" x1="769.5" x2="1128.5" y1="667.7676" y2="667.7676"/><text fill="#000000" font-family="sans-serif" font-size="13" font-weight="bold" lengthAdjust="spacingAndGlyphs" textLength="18" x="776.5" y="663.3359">15</text><text fill="#000000" font-family="sans-serif" font-size="13" lengthAdjust="spacingAndGlyphs" textLength="37" x="798.5" y="663.3359">Ready</text><polygon fill="#A80036" points="677.5,693.0781,667.5,697.0781,677.5,701.0781,673.5,697.0781" style="stroke: #A80036; stroke-width: 1.0;"/><line style="stroke: #A80036; stroke-width: 1.0;" x1="671.5" x2="1138.5" y1="697.0781" y2="697.0781"/><text fill="#000000" font-family="sans-serif" font-size="13" font-weight="bold" lengthAdjust="spacingAndGlyphs" textLength="18" x="683.5" y="692.6465">16</text><text fill="#000000" font-family="sans-serif" font-size="13" lengthAdjust="spacingAndGlyphs" textLength="37" x="705.5" y="692.6465">Ready</text></g></svg>