<?xml version="1.0" encoding="UTF-8" standalone="no"?><svg xmlns="http://www.w3.org/2000/svg" xmlns:xlink="http://www.w3.org/1999/xlink" contentScriptType="application/ecmascript" contentStyleType="text/css" height="1145px" preserveAspectRatio="none" style="width:1018px;height:1145px;" version="1.1" viewBox="0 0 1018 1145" width="1018px" zoomAndPan="magnify"><defs><filter height="300%" id="fs0mwv0" width="300%" x="-1" y="-1"><feGaussianBlur result="blurOut" stdDeviation="2.0"/><feColorMatrix in="blurOut" result="blurOut2" type="matrix" values="0 0 0 0 0 0 0 0 0 0 0 0 0 0 0 0 0 0 .4 0"/><feOffset dx="4.0" dy="4.0" in="blurOut2" result="blurOut3"/><feBlend in="SourceGraphic" in2="blurOut3" mode="normal"/></filter></defs><g><rect fill="#FFFFFF" filter="url(#fs0mwv0)" height="381.416" style="stroke: #A80036; stroke-width: 1.0;" width="10" x="21.5" y="96.4883"/><rect fill="#FFFFFF" filter="url(#fs0mwv0)" height="101.9316" style="stroke: #A80036; stroke-width: 1.0;" width="10" x="80" y="117.4883"/><rect fill="#FFFFFF" filter="url(#fs0mwv0)" height="483.3477" style="stroke: #A80036; stroke-width: 1.0;" width="10" x="273" y="96.4883"/><rect fill="#FFFFFF" filter="url(#fs0mwv0)" height="565.2793" style="stroke: #A80036; stroke-width: 1.0;" width="10" x="481" y="477.9043"/><rect fill="#FFFFFF" filter="url(#fs0mwv0)" height="28" style="stroke: #A80036; stroke-width: 1.0;" width="10" x="486" y="822.3203"/><rect fill="#FFFFFF" filter="url(#fs0mwv0)" height="58.6211" style="stroke: #A80036; stroke-width: 1.0;" width="10" x="720" y="219.4199"/><rect fill="#FFFFFF" filter="url(#fs0mwv0)" height="175.8633" style="stroke: #A80036; stroke-width: 1.0;" width="10" x="824" y="609.1465"/><rect fill="#FFFFFF" filter="url(#fs0mwv0)" height="87.9316" style="stroke: #A80036; stroke-width: 1.0;" width="10" x="888" y="579.8359"/><rect fill="#FFFFFF" filter="url(#fs0mwv0)" height="170.5527" style="stroke: #A80036; stroke-width: 1.0;" width="10" x="936.5" y="278.041"/><rect fill="#FFFFFF" filter="url(#fs0mwv0)" height="220.8633" style="stroke: #A80036; stroke-width: 1.0;" width="10" x="936.5" y="822.3203"/><rect fill="#FFFFFF" filter="url(#fs0mwv0)" height="68.6211" style="stroke: #A80036; stroke-width: 1.0;" width="10" x="985" y="945.252"/><line style="stroke: #A80036; stroke-width: 1.0; stroke-dasharray: 5.0,5.0;" x1="26" x2="26" y1="86.4883" y2="1061.4941"/><line style="stroke: #A80036; stroke-width: 1.0; stroke-dasharray: 5.0,5.0;" x1="85" x2="85" y1="86.4883" y2="1061.4941"/><line style="stroke: #A80036; stroke-width: 1.0; stroke-dasharray: 5.0,5.0;" x1="277.5" x2="277.5" y1="86.4883" y2="1061.4941"/><line style="stroke: #A80036; stroke-width: 1.0; stroke-dasharray: 5.0,5.0;" x1="486" x2="486" y1="86.4883" y2="1061.4941"/><line style="stroke: #A80036; stroke-width: 1.0; stroke-dasharray: 5.0,5.0;" x1="724.5" x2="724.5" y1="86.4883" y2="1061.4941"/><line style="stroke: #A80036; stroke-width: 1.0; stroke-dasharray: 5.0,5.0;" x1="829" x2="829" y1="86.4883" y2="1061.4941"/><line style="stroke: #A80036; stroke-width: 1.0; stroke-dasharray: 5.0,5.0;" x1="893" x2="893" y1="86.4883" y2="1061.4941"/><line style="stroke: #A80036; stroke-width: 1.0; stroke-dasharray: 5.0,5.0;" x1="941" x2="941" y1="86.4883" y2="1061.4941"/><line style="stroke: #A80036; stroke-width: 1.0; stroke-dasharray: 5.0,5.0;" x1="990" x2="990" y1="86.4883" y2="1061.4941"/><text fill="#000000" font-family="sans-serif" font-size="14" lengthAdjust="spacingAndGlyphs" textLength="31" x="8" y="83.5352">User</text><ellipse cx="26.5" cy="13" fill="#FEFECE" filter="url(#fs0mwv0)" rx="8" ry="8" style="stroke: #A80036; stroke-width: 2.0;"/><path d="M26.5,21 L26.5,48 M13.5,29 L39.5,29 M26.5,48 L13.5,63 M26.5,48 L39.5,63 " fill="#FEFECE" filter="url(#fs0mwv0)" style="stroke: #A80036; stroke-width: 2.0;"/><text fill="#000000" font-family="sans-serif" font-size="14" lengthAdjust="spacingAndGlyphs" textLength="31" x="8" y="1074.0293">User</text><ellipse cx="26.5" cy="1086.9824" fill="#FEFECE" filter="url(#fs0mwv0)" rx="8" ry="8" style="stroke: #A80036; stroke-width: 2.0;"/><path d="M26.5,1094.9824 L26.5,1121.9824 M13.5,1102.9824 L39.5,1102.9824 M26.5,1121.9824 L13.5,1136.9824 M26.5,1121.9824 L39.5,1136.9824 " fill="#FEFECE" filter="url(#fs0mwv0)" style="stroke: #A80036; stroke-width: 2.0;"/><rect fill="#FEFECE" filter="url(#fs0mwv0)" height="30.4883" style="stroke: #A80036; stroke-width: 1.5;" width="56" x="55" y="51"/><text fill="#000000" font-family="sans-serif" font-size="14" lengthAdjust="spacingAndGlyphs" textLength="42" x="62" y="71.5352">Authn</text><rect fill="#FEFECE" filter="url(#fs0mwv0)" height="30.4883" style="stroke: #A80036; stroke-width: 1.5;" width="56" x="55" y="1060.4941"/><text fill="#000000" font-family="sans-serif" font-size="14" lengthAdjust="spacingAndGlyphs" textLength="42" x="62" y="1081.0293">Authn</text><rect fill="#FEFECE" filter="url(#fs0mwv0)" height="30.4883" style="stroke: #A80036; stroke-width: 1.5;" width="111" x="220.5" y="51"/><text fill="#000000" font-family="sans-serif" font-size="14" lengthAdjust="spacingAndGlyphs" textLength="97" x="227.5" y="71.5352">IdHub Control</text><rect fill="#FEFECE" filter="url(#fs0mwv0)" height="30.4883" style="stroke: #A80036; stroke-width: 1.5;" width="111" x="220.5" y="1060.4941"/><text fill="#000000" font-family="sans-serif" font-size="14" lengthAdjust="spacingAndGlyphs" textLength="97" x="227.5" y="1081.0293">IdHub Control</text><rect fill="#FEFECE" filter="url(#fs0mwv0)" height="30.4883" style="stroke: #A80036; stroke-width: 1.5;" width="102" x="433" y="51"/><text fill="#000000" font-family="sans-serif" font-size="14" lengthAdjust="spacingAndGlyphs" textLength="88" x="440" y="71.5352">Key Manager</text><rect fill="#FEFECE" filter="url(#fs0mwv0)" height="30.4883" style="stroke: #A80036; stroke-width: 1.5;" width="102" x="433" y="1060.4941"/><text fill="#000000" font-family="sans-serif" font-size="14" lengthAdjust="spacingAndGlyphs" textLength="88" x="440" y="1081.0293">Key Manager</text><rect fill="#FEFECE" filter="url(#fs0mwv0)" height="30.4883" style="stroke: #A80036; stroke-width: 1.5;" width="55" x="695.5" y="51"/><text fill="#000000" font-family="sans-serif" font-size="14" lengthAdjust="spacingAndGlyphs" textLength="41" x="702.5" y="71.5352">Authz</text><rect fill="#FEFECE" filter="url(#fs0mwv0)" height="30.4883" style="stroke: #A80036; stroke-width: 1.5;" width="55" x="695.5" y="1060.4941"/><text fill="#000000" font-family="sans-serif" font-size="14" lengthAdjust="spacingAndGlyphs" textLength="41" x="702.5" y="1081.0293">Authz</text><text fill="#000000" font-family="sans-serif" font-size="14" lengthAdjust="spacingAndGlyphs" textLength="66" x="793" y="83.5352">PKCS #11</text><path d="M811,34 C811,24 829,24 829,24 C829,24 847,24 847,34 L847,60 C847,70 829,70 829,70 C829,70 811,70 811,60 L811,34 " fill="#FEFECE" filter="url(#fs0mwv0)" style="stroke: #000000; stroke-width: 1.5;"/><path d="M811,34 C811,44 829,44 829,44 C829,44 847,44 847,34 " fill="none" style="stroke: #000000; stroke-width: 1.5;"/><text fill="#000000" font-family="sans-serif" font-size="14" lengthAdjust="spacingAndGlyphs" textLength="66" x="793" y="1074.0293">PKCS #11</text><path d="M811,1086.9824 C811,1076.9824 829,1076.9824 829,1076.9824 C829,1076.9824 847,1076.9824 847,1086.9824 L847,1112.9824 C847,1122.9824 829,1122.9824 829,1122.9824 C829,1122.9824 811,1122.9824 811,1112.9824 L811,1086.9824 " fill="#FEFECE" filter="url(#fs0mwv0)" style="stroke: #000000; stroke-width: 1.5;"/><path d="M811,1086.9824 C811,1096.9824 829,1096.9824 829,1096.9824 C829,1096.9824 847,1096.9824 847,1086.9824 " fill="none" style="stroke: #000000; stroke-width: 1.5;"/><text fill="#000000" font-family="sans-serif" font-size="14" lengthAdjust="spacingAndGlyphs" textLength="29" x="875.5" y="83.5352">KDC</text><path d="M875,34 C875,24 893,24 893,24 C893,24 911,24 911,34 L911,60 C911,70 893,70 893,70 C893,70 875,70 875,60 L875,34 " fill="#FEFECE" filter="url(#fs0mwv0)" style="stroke: #000000; stroke-width: 1.5;"/><path d="M875,34 C875,44 893,44 893,44 C893,44 911,44 911,34 " fill="none" style="stroke: #000000; stroke-width: 1.5;"/><text fill="#000000" font-family="sans-serif" font-size="14" lengthAdjust="spacingAndGlyphs" textLength="29" x="875.5" y="1074.0293">KDC</text><path d="M875,1086.9824 C875,1076.9824 893,1076.9824 893,1076.9824 C893,1076.9824 911,1076.9824 911,1086.9824 L911,1112.9824 C911,1122.9824 893,1122.9824 893,1122.9824 C893,1122.9824 875,1122.9824 875,1112.9824 L875,1086.9824 " fill="#FEFECE" filter="url(#fs0mwv0)" style="stroke: #000000; stroke-width: 1.5;"/><path d="M875,1086.9824 C875,1096.9824 893,1096.9824 893,1096.9824 C893,1096.9824 911,1096.9824 911,1086.9824 " fill="none" style="stroke: #000000; stroke-width: 1.5;"/><text fill="#000000" font-family="sans-serif" font-size="14" lengthAdjust="spacingAndGlyphs" textLength="35" x="921" y="83.5352">LDAP</text><path d="M923.5,34 C923.5,24 941.5,24 941.5,24 C941.5,24 959.5,24 959.5,34 L959.5,60 C959.5,70 941.5,70 941.5,70 C941.5,70 923.5,70 923.5,60 L923.5,34 " fill="#FEFECE" filter="url(#fs0mwv0)" style="stroke: #000000; stroke-width: 1.5;"/><path d="M923.5,34 C923.5,44 941.5,44 941.5,44 C941.5,44 959.5,44 959.5,34 " fill="none" style="stroke: #000000; stroke-width: 1.5;"/><text fill="#000000" font-family="sans-serif" font-size="14" lengthAdjust="spacingAndGlyphs" textLength="35" x="921" y="1074.0293">LDAP</text><path d="M923.5,1086.9824 C923.5,1076.9824 941.5,1076.9824 941.5,1076.9824 C941.5,1076.9824 959.5,1076.9824 959.5,1086.9824 L959.5,1112.9824 C959.5,1122.9824 941.5,1122.9824 941.5,1122.9824 C941.5,1122.9824 923.5,1122.9824 923.5,1112.9824 L923.5,1086.9824 " fill="#FEFECE" filter="url(#fs0mwv0)" style="stroke: #000000; stroke-width: 1.5;"/><path d="M923.5,1086.9824 C923.5,1096.9824 941.5,1096.9824 941.5,1096.9824 C941.5,1096.9824 959.5,1096.9824 959.5,1086.9824 " fill="none" style="stroke: #000000; stroke-width: 1.5;"/><text fill="#000000" font-family="sans-serif" font-size="14" lengthAdjust="spacingAndGlyphs" textLength="28" x="973" y="83.5352">DNS</text><path d="M972,34 C972,24 990,24 990,24 C990,24 1008,24 1008,34 L1008,60 C1008,70 990,70 990,70 C990,70 972,70 972,60 L972,34 " fill="#FEFECE" filter="url(#fs0mwv0)" style="stroke: #000000; stroke-width: 1.5;"/><path d="M972,34 C972,44 990,44 990,44 C990,44 1008,44 1008,34 " fill="none" style="stroke: #000000; stroke-width: 1.5;"/><text fill="#000000" font-family="sans-serif" font-size="14" lengthAdjust="spacingAndGlyphs" textLength="28" x="973" y="1074.0293">DNS</text><path d="M972,1086.9824 C972,1076.9824 990,1076.9824 990,1076.9824 C990,1076.9824 1008,1076.9824 1008,1086.9824 L1008,1112.9824 C1008,1122.9824 990,1122.9824 990,1122.9824 C990,1122.9824 972,1122.9824 972,1112.9824 L972,1086.9824 " fill="#FEFECE" filter="url(#fs0mwv0)" style="stroke: #000000; stroke-width: 1.5;"/><path d="M972,1086.9824 C972,1096.9824 990,1096.9824 990,1096.9824 C990,1096.9824 1008,1096.9824 1008,1086.9824 " fill="none" style="stroke: #000000; stroke-width: 1.5;"/><rect fill="#FFFFFF" filter="url(#fs0mwv0)" height="381.416" style="stroke: #A80036; stroke-width: 1.0;" width="10" x="21.5" y="96.4883"/><rect fill="#FFFFFF" filter="url(#fs0mwv0)" height="101.9316" style="stroke: #A80036; stroke-width: 1.0;" width="10" x="80" y="117.4883"/><rect fill="#FFFFFF" filter="url(#fs0mwv0)" height="483.3477" style="stroke: #A80036; stroke-width: 1.0;" width="10" x="273" y="96.4883"/><rect fill="#FFFFFF" filter="url(#fs0mwv0)" height="565.2793" style="stroke: #A80036; stroke-width: 1.0;" width="10" x="481" y="477.9043"/><rect fill="#FFFFFF" filter="url(#fs0mwv0)" height="28" style="stroke: #A80036; stroke-width: 1.0;" width="10" x="486" y="822.3203"/><rect fill="#FFFFFF" filter="url(#fs0mwv0)" height="58.6211" style="stroke: #A80036; stroke-width: 1.0;" width="10" x="720" y="219.4199"/><rect fill="#FFFFFF" filter="url(#fs0mwv0)" height="175.8633" style="stroke: #A80036; stroke-width: 1.0;" width="10" x="824" y="609.1465"/><rect fill="#FFFFFF" filter="url(#fs0mwv0)" height="87.9316" style="stroke: #A80036; stroke-width: 1.0;" width="10" x="888" y="579.8359"/><rect fill="#FFFFFF" filter="url(#fs0mwv0)" height="170.5527" style="stroke: #A80036; stroke-width: 1.0;" width="10" x="936.5" y="278.041"/><rect fill="#FFFFFF" filter="url(#fs0mwv0)" height="220.8633" style="stroke: #A80036; stroke-width: 1.0;" width="10" x="936.5" y="822.3203"/><rect fill="#FFFFFF" filter="url(#fs0mwv0)" height="68.6211" style="stroke: #A80036; stroke-width: 1.0;" width="10" x="985" y="945.252"/><polygon fill="#A80036" points="261,113.4883,271,117.4883,261,121.4883,265,117.4883" style="stroke: #A80036; stroke-width: 1.0;"/><line style="stroke: #A80036; stroke-width: 1.0;" x1="31.5" x2="267" y1="117.4883" y2="117.4883"/><text fill="#000000" font-family="sans-serif" font-size="13" font-weight="bold" lengthAdjust="spacingAndGlyphs" textLength="9" x="38.5" y="113.0566">1</text><text fill="#000000" font-family="sans-serif" font-size="13" lengthAdjust="spacingAndGlyphs" textLength="146" x="51.5" y="113.0566">User Add user@domain</text><rect fill="#EEEEEE" filter="url(#fs0mwv0)" height="3" style="stroke: #EEEEEE; stroke-width: 1.0;" width="1010" x="3" y="146.4541"/><line style="stroke: #000000; stroke-width: 1.0;" x1="3" x2="1013" y1="146.4541" y2="146.4541"/><line style="stroke: #000000; stroke-width: 1.0;" x1="3" x2="1013" y1="149.4541" y2="149.4541"/><rect fill="#EEEEEE" filter="url(#fs0mwv0)" height="23.3105" style="stroke: #000000; stroke-width: 2.0;" width="117" x="449.5" y="135.7988"/><text fill="#000000" font-family="sans-serif" font-size="13" font-weight="bold" lengthAdjust="spacingAndGlyphs" textLength="99" x="455.5" y="152.3672">Access Control</text><polygon fill="#A80036" points="101,186.1094,91,190.1094,101,194.1094,97,190.1094" style="stroke: #A80036; stroke-width: 1.0;"/><line style="stroke: #A80036; stroke-width: 1.0;" x1="95" x2="272" y1="190.1094" y2="190.1094"/><text fill="#000000" font-family="sans-serif" font-size="13" font-weight="bold" lengthAdjust="spacingAndGlyphs" textLength="9" x="107" y="185.6777">2</text><text fill="#000000" font-family="sans-serif" font-size="13" lengthAdjust="spacingAndGlyphs" textLength="136" x="120" y="185.6777">SecureLayer @domain</text><polygon fill="#A80036" points="261,215.4199,271,219.4199,261,223.4199,265,219.4199" style="stroke: #A80036; stroke-width: 1.0;"/><line style="stroke: #A80036; stroke-width: 1.0;" x1="85" x2="267" y1="219.4199" y2="219.4199"/><text fill="#000000" font-family="sans-serif" font-size="13" font-weight="bold" lengthAdjust="spacingAndGlyphs" textLength="9" x="92" y="214.9883">3</text><text fill="#000000" font-family="sans-serif" font-size="13" lengthAdjust="spacingAndGlyphs" textLength="146" x="105" y="214.9883">RemoteID you@domain</text><polygon fill="#A80036" points="708,244.7305,718,248.7305,708,252.7305,712,248.7305" style="stroke: #A80036; stroke-width: 1.0;"/><line style="stroke: #A80036; stroke-width: 1.0;" x1="283" x2="714" y1="248.7305" y2="248.7305"/><text fill="#000000" font-family="sans-serif" font-size="13" font-weight="bold" lengthAdjust="spacingAndGlyphs" textLength="9" x="290" y="244.2988">4</text><text fill="#000000" font-family="sans-serif" font-size="13" lengthAdjust="spacingAndGlyphs" textLength="318" x="303" y="244.2988">WANT userid-create ON @domain AS you@domain</text><polygon fill="#A80036" points="294,274.041,284,278.041,294,282.041,290,278.041" style="stroke: #A80036; stroke-width: 1.0;"/><line style="stroke: #A80036; stroke-width: 1.0;" x1="288" x2="724" y1="278.041" y2="278.041"/><text fill="#000000" font-family="sans-serif" font-size="13" font-weight="bold" lengthAdjust="spacingAndGlyphs" textLength="9" x="300" y="273.6094">5</text><text fill="#000000" font-family="sans-serif" font-size="13" lengthAdjust="spacingAndGlyphs" textLength="148" x="313" y="273.6094">OK FOR admin@domain</text><rect fill="#EEEEEE" filter="url(#fs0mwv0)" height="3" style="stroke: #EEEEEE; stroke-width: 1.0;" width="1010" x="3" y="307.0068"/><line style="stroke: #000000; stroke-width: 1.0;" x1="3" x2="1013" y1="307.0068" y2="307.0068"/><line style="stroke: #000000; stroke-width: 1.0;" x1="3" x2="1013" y1="310.0068" y2="310.0068"/><rect fill="#EEEEEE" filter="url(#fs0mwv0)" height="23.3105" style="stroke: #000000; stroke-width: 2.0;" width="104" x="456" y="296.3516"/><text fill="#000000" font-family="sans-serif" font-size="13" font-weight="bold" lengthAdjust="spacingAndGlyphs" textLength="86" x="462" y="312.9199">Sanity Check</text><polygon fill="#A80036" points="924.5,346.6621,934.5,350.6621,924.5,354.6621,928.5,350.6621" style="stroke: #A80036; stroke-width: 1.0;"/><line style="stroke: #A80036; stroke-width: 1.0;" x1="283" x2="930.5" y1="350.6621" y2="350.6621"/><text fill="#000000" font-family="sans-serif" font-size="13" font-weight="bold" lengthAdjust="spacingAndGlyphs" textLength="9" x="290" y="346.2305">6</text><text fill="#000000" font-family="sans-serif" font-size="13" lengthAdjust="spacingAndGlyphs" textLength="266" x="303" y="346.2305">Compare user@domain AS admin@domain</text><polygon fill="#0000FF" points="294,380.9727,284,384.9727,294,388.9727,290,384.9727" style="stroke: #0000FF; stroke-width: 1.0;"/><line style="stroke: #0000FF; stroke-width: 1.0; stroke-dasharray: 2.0,2.0;" x1="288" x2="935.5" y1="384.9727" y2="384.9727"/><text fill="#000000" font-family="sans-serif" font-size="13" font-weight="bold" lengthAdjust="spacingAndGlyphs" textLength="9" x="300" y="380.541">7</text><text fill="#000000" font-family="sans-serif" font-size="13" lengthAdjust="spacingAndGlyphs" textLength="85" x="313" y="380.541">UserID Found</text><polygon fill="#FBFB77" filter="url(#fs0mwv0)" points="74,363.9727,74,388.9727,264,388.9727,264,373.9727,254,363.9727,74,363.9727" style="stroke: #A80036; stroke-width: 1.0;"/><line style="stroke: #A80036; stroke-width: 1.0;" x1="254" x2="254" y1="363.9727" y2="373.9727"/><line style="stroke: #A80036; stroke-width: 1.0;" x1="264" x2="254" y1="373.9727" y2="373.9727"/><text fill="#0000FF" font-family="sans-serif" font-size="13" lengthAdjust="spacingAndGlyphs" textLength="169" x="80" y="381.541">Alternative flow, fatal error</text><polygon fill="#0000FF" points="42.5,415.2832,32.5,419.2832,42.5,423.2832,38.5,419.2832" style="stroke: #0000FF; stroke-width: 1.0;"/><line style="stroke: #0000FF; stroke-width: 1.0; stroke-dasharray: 2.0,2.0;" x1="36.5" x2="272" y1="419.2832" y2="419.2832"/><text fill="#000000" font-family="sans-serif" font-size="13" font-weight="bold" lengthAdjust="spacingAndGlyphs" textLength="9" x="48.5" y="414.8516">8</text><text fill="#000000" font-family="sans-serif" font-size="13" lengthAdjust="spacingAndGlyphs" textLength="89" x="61.5" y="414.8516">Already Exists</text><polygon fill="#A80036" points="294,444.5938,284,448.5938,294,452.5938,290,448.5938" style="stroke: #A80036; stroke-width: 1.0;"/><line style="stroke: #A80036; stroke-width: 1.0;" x1="288" x2="940.5" y1="448.5938" y2="448.5938"/><text fill="#000000" font-family="sans-serif" font-size="13" font-weight="bold" lengthAdjust="spacingAndGlyphs" textLength="9" x="300" y="444.1621">9</text><text fill="#000000" font-family="sans-serif" font-size="13" lengthAdjust="spacingAndGlyphs" textLength="112" x="313" y="444.1621">UserID Not Found</text><polygon fill="#A80036" points="37.5,473.9043,27.5,477.9043,37.5,481.9043,33.5,477.9043" style="stroke: #A80036; stroke-width: 1.0;"/><line style="stroke: #A80036; stroke-width: 1.0;" x1="31.5" x2="272" y1="477.9043" y2="477.9043"/><text fill="#000000" font-family="sans-serif" font-size="13" font-weight="bold" lengthAdjust="spacingAndGlyphs" textLength="18" x="43.5" y="473.4727">10</text><text fill="#000000" font-family="sans-serif" font-size="13" lengthAdjust="spacingAndGlyphs" textLength="48" x="65.5" y="473.4727">Queued</text><rect fill="#EEEEEE" filter="url(#fs0mwv0)" height="3" style="stroke: #EEEEEE; stroke-width: 1.0;" width="1010" x="3" y="506.8701"/><line style="stroke: #000000; stroke-width: 1.0;" x1="3" x2="1013" y1="506.8701" y2="506.8701"/><line style="stroke: #000000; stroke-width: 1.0;" x1="3" x2="1013" y1="509.8701" y2="509.8701"/><rect fill="#EEEEEE" filter="url(#fs0mwv0)" height="23.3105" style="stroke: #000000; stroke-width: 2.0;" width="136" x="440" y="496.2148"/><text fill="#000000" font-family="sans-serif" font-size="13" font-weight="bold" lengthAdjust="spacingAndGlyphs" textLength="118" x="446" y="512.7832">Key Management</text><polygon fill="#A80036" points="469,546.5254,479,550.5254,469,554.5254,473,550.5254" style="stroke: #A80036; stroke-width: 1.0;"/><line style="stroke: #A80036; stroke-width: 1.0;" x1="283" x2="475" y1="550.5254" y2="550.5254"/><text fill="#000000" font-family="sans-serif" font-size="13" font-weight="bold" lengthAdjust="spacingAndGlyphs" textLength="18" x="290" y="546.0938">11</text><text fill="#000000" font-family="sans-serif" font-size="13" lengthAdjust="spacingAndGlyphs" textLength="152" x="312" y="546.0938">Have User user@domain</text><polygon fill="#A80036" points="289,575.8359,279,579.8359,289,583.8359,285,579.8359" style="stroke: #A80036; stroke-width: 1.0;"/><line style="stroke: #A80036; stroke-width: 1.0;" x1="283" x2="480" y1="579.8359" y2="579.8359"/><text fill="#000000" font-family="sans-serif" font-size="13" font-weight="bold" lengthAdjust="spacingAndGlyphs" textLength="18" x="295" y="575.4043">12</text><text fill="#000000" font-family="sans-serif" font-size="13" lengthAdjust="spacingAndGlyphs" textLength="48" x="317" y="575.4043">Queued</text><polygon fill="#A80036" points="876,605.1465,886,609.1465,876,613.1465,880,609.1465" style="stroke: #A80036; stroke-width: 1.0;"/><line style="stroke: #A80036; stroke-width: 1.0;" x1="491" x2="882" y1="609.1465" y2="609.1465"/><text fill="#000000" font-family="sans-serif" font-size="13" font-weight="bold" lengthAdjust="spacingAndGlyphs" textLength="18" x="498" y="604.7148">13</text><text fill="#000000" font-family="sans-serif" font-size="13" lengthAdjust="spacingAndGlyphs" textLength="178" x="520" y="604.7148">Have Principal user@domain</text><polygon fill="#A80036" points="812,634.457,822,638.457,812,642.457,816,638.457" style="stroke: #A80036; stroke-width: 1.0;"/><line style="stroke: #A80036; stroke-width: 1.0;" x1="491" x2="818" y1="638.457" y2="638.457"/><text fill="#000000" font-family="sans-serif" font-size="13" font-weight="bold" lengthAdjust="spacingAndGlyphs" textLength="18" x="498" y="634.0254">14</text><text fill="#000000" font-family="sans-serif" font-size="13" lengthAdjust="spacingAndGlyphs" textLength="287" x="520" y="634.0254">Have Layer user@domain FOR admin@domain</text><polygon fill="#A80036" points="502,663.7676,492,667.7676,502,671.7676,498,667.7676" style="stroke: #A80036; stroke-width: 1.0;"/><line style="stroke: #A80036; stroke-width: 1.0;" x1="496" x2="892" y1="667.7676" y2="667.7676"/><text fill="#000000" font-family="sans-serif" font-size="13" font-weight="bold" lengthAdjust="spacingAndGlyphs" textLength="18" x="508" y="663.3359">15</text><text fill="#000000" font-family="sans-serif" font-size="13" lengthAdjust="spacingAndGlyphs" textLength="18" x="530" y="663.3359">OK</text><polygon fill="#A80036" points="812,693.0781,822,697.0781,812,701.0781,816,697.0781" style="stroke: #A80036; stroke-width: 1.0;"/><line style="stroke: #A80036; stroke-width: 1.0;" x1="491" x2="818" y1="697.0781" y2="697.0781"/><text fill="#000000" font-family="sans-serif" font-size="13" font-weight="bold" lengthAdjust="spacingAndGlyphs" textLength="18" x="498" y="692.6465">16</text><text fill="#000000" font-family="sans-serif" font-size="13" lengthAdjust="spacingAndGlyphs" textLength="153" x="520" y="692.6465">Have Keys user@domain</text><polygon fill="#A80036" points="502,722.3887,492,726.3887,502,730.3887,498,726.3887" style="stroke: #A80036; stroke-width: 1.0;"/><line style="stroke: #A80036; stroke-width: 1.0;" x1="496" x2="823" y1="726.3887" y2="726.3887"/><text fill="#000000" font-family="sans-serif" font-size="13" font-weight="bold" lengthAdjust="spacingAndGlyphs" textLength="18" x="508" y="721.957">17</text><text fill="#000000" font-family="sans-serif" font-size="13" lengthAdjust="spacingAndGlyphs" textLength="140" x="530" y="721.957">Made pkcs11:xxx;y;zz</text><polygon fill="#A80036" points="812,751.6992,822,755.6992,812,759.6992,816,755.6992" style="stroke: #A80036; stroke-width: 1.0;"/><line style="stroke: #A80036; stroke-width: 1.0;" x1="491" x2="818" y1="755.6992" y2="755.6992"/><text fill="#000000" font-family="sans-serif" font-size="13" font-weight="bold" lengthAdjust="spacingAndGlyphs" textLength="18" x="498" y="751.2676">18</text><text fill="#000000" font-family="sans-serif" font-size="13" lengthAdjust="spacingAndGlyphs" textLength="139" x="520" y="751.2676">Retrieve user@domain</text><polygon fill="#A80036" points="502,781.0098,492,785.0098,502,789.0098,498,785.0098" style="stroke: #A80036; stroke-width: 1.0;"/><line style="stroke: #A80036; stroke-width: 1.0;" x1="496" x2="828" y1="785.0098" y2="785.0098"/><text fill="#000000" font-family="sans-serif" font-size="13" font-weight="bold" lengthAdjust="spacingAndGlyphs" textLength="18" x="508" y="780.5781">19</text><text fill="#000000" font-family="sans-serif" font-size="13" lengthAdjust="spacingAndGlyphs" textLength="136" x="530" y="780.5781">PubKey MIIEVzCCAz...</text><line style="stroke: #A80036; stroke-width: 1.0;" x1="496" x2="538" y1="814.6309" y2="814.6309"/><line style="stroke: #A80036; stroke-width: 1.0;" x1="538" x2="538" y1="814.6309" y2="827.6309"/><line style="stroke: #A80036; stroke-width: 1.0;" x1="497" x2="538" y1="827.6309" y2="827.6309"/><polygon fill="#A80036" points="507,823.6309,497,827.6309,507,831.6309,503,827.6309" style="stroke: #A80036; stroke-width: 1.0;"/><text fill="#000000" font-family="sans-serif" font-size="13" font-weight="bold" lengthAdjust="spacingAndGlyphs" textLength="18" x="503" y="809.8887">20</text><text fill="#000000" font-family="sans-serif" font-size="13" lengthAdjust="spacingAndGlyphs" textLength="193" x="525" y="809.8887">PubKey MIIEVzCCAz... to Creds</text><polygon fill="#A80036" points="924.5,882.6309,934.5,886.6309,924.5,890.6309,928.5,886.6309" style="stroke: #A80036; stroke-width: 1.0;"/><line style="stroke: #A80036; stroke-width: 1.0;" x1="491" x2="930.5" y1="886.6309" y2="886.6309"/><text fill="#000000" font-family="sans-serif" font-size="13" font-weight="bold" lengthAdjust="spacingAndGlyphs" textLength="18" x="498" y="882.1992">21</text><text fill="#000000" font-family="sans-serif" font-size="13" lengthAdjust="spacingAndGlyphs" textLength="303" x="520" y="882.1992">Have user@domain XS public AS admin@domain</text><polygon fill="#A80036" points="924.5,911.9414,934.5,915.9414,924.5,919.9414,928.5,915.9414" style="stroke: #A80036; stroke-width: 1.0;"/><line style="stroke: #A80036; stroke-width: 1.0;" x1="491" x2="930.5" y1="915.9414" y2="915.9414"/><text fill="#000000" font-family="sans-serif" font-size="13" font-weight="bold" lengthAdjust="spacingAndGlyphs" textLength="18" x="498" y="911.5098">22</text><text fill="#000000" font-family="sans-serif" font-size="13" lengthAdjust="spacingAndGlyphs" textLength="365" x="520" y="911.5098">Have Creds for user@domain XS public AS admin@domain</text><polygon fill="#A80036" points="924.5,941.252,934.5,945.252,924.5,949.252,928.5,945.252" style="stroke: #A80036; stroke-width: 1.0;"/><line style="stroke: #A80036; stroke-width: 1.0;" x1="491" x2="930.5" y1="945.252" y2="945.252"/><text fill="#000000" font-family="sans-serif" font-size="13" font-weight="bold" lengthAdjust="spacingAndGlyphs" textLength="18" x="498" y="940.8203">23</text><text fill="#000000" font-family="sans-serif" font-size="13" lengthAdjust="spacingAndGlyphs" textLength="367" x="520" y="940.8203">Have pkcs11:xxx;y;zz XS user@domain AS admin@domain</text><polygon fill="#0000FF" points="973,975.5625,983,979.5625,973,983.5625,977,979.5625" style="stroke: #0000FF; stroke-width: 1.0;"/><line style="stroke: #0000FF; stroke-width: 1.0; stroke-dasharray: 2.0,2.0;" x1="491" x2="979" y1="979.5625" y2="979.5625"/><text fill="#000000" font-family="sans-serif" font-size="13" font-weight="bold" lengthAdjust="spacingAndGlyphs" textLength="18" x="498" y="975.1309">24</text><text fill="#000000" font-family="sans-serif" font-size="13" lengthAdjust="spacingAndGlyphs" textLength="238" x="520" y="975.1309">Have TLSA records AS admin@domain</text><polygon fill="#FBFB77" filter="url(#fs0mwv0)" points="328,958.5625,328,983.5625,472,983.5625,472,968.5625,462,958.5625,328,958.5625" style="stroke: #A80036; stroke-width: 1.0;"/><line style="stroke: #A80036; stroke-width: 1.0;" x1="462" x2="462" y1="958.5625" y2="968.5625"/><line style="stroke: #A80036; stroke-width: 1.0;" x1="472" x2="462" y1="968.5625" y2="968.5625"/><text fill="#0000FF" font-family="sans-serif" font-size="13" lengthAdjust="spacingAndGlyphs" textLength="123" x="334" y="976.1309">TLSA only for hosts</text><polygon fill="#0000FF" points="502,1009.873,492,1013.873,502,1017.873,498,1013.873" style="stroke: #0000FF; stroke-width: 1.0;"/><line style="stroke: #0000FF; stroke-width: 1.0; stroke-dasharray: 2.0,2.0;" x1="496" x2="989" y1="1013.873" y2="1013.873"/><text fill="#000000" font-family="sans-serif" font-size="13" font-weight="bold" lengthAdjust="spacingAndGlyphs" textLength="18" x="508" y="1009.4414">25</text><text fill="#000000" font-family="sans-serif" font-size="13" lengthAdjust="spacingAndGlyphs" textLength="48" x="530" y="1009.4414">Queued</text><polygon fill="#A80036" points="497,1039.1836,487,1043.1836,497,1047.1836,493,1043.1836" style="stroke: #A80036; stroke-width: 1.0;"/><line style="stroke: #A80036; stroke-width: 1.0;" x1="491" x2="940.5" y1="1043.1836" y2="1043.1836"/><text fill="#000000" font-family="sans-serif" font-size="13" font-weight="bold" lengthAdjust="spacingAndGlyphs" textLength="18" x="503" y="1038.752">26</text><text fill="#000000" font-family="sans-serif" font-size="13" lengthAdjust="spacingAndGlyphs" textLength="37" x="525" y="1038.752">Ready</text></g></svg>