<?xml version="1.0" encoding="UTF-8" standalone="no"?><svg xmlns="http://www.w3.org/2000/svg" xmlns:xlink="http://www.w3.org/1999/xlink" contentScriptType="application/ecmascript" contentStyleType="text/css" height="1205px" preserveAspectRatio="none" style="width:999px;height:1205px;" version="1.1" viewBox="0 0 999 1205" width="999px" zoomAndPan="magnify"><defs><filter height="300%" id="ffqkv8a" width="300%" x="-1" y="-1"><feGaussianBlur result="blurOut" stdDeviation="2.0"/><feColorMatrix in="blurOut" result="blurOut2" type="matrix" values="0 0 0 0 0 0 0 0 0 0 0 0 0 0 0 0 0 0 .4 0"/><feOffset dx="4.0" dy="4.0" in="blurOut2" result="blurOut3"/><feBlend in="SourceGraphic" in2="blurOut3" mode="normal"/></filter></defs><g><rect fill="#FFFFFF" filter="url(#ffqkv8a)" height="360.416" style="stroke: #A80036; stroke-width: 1.0;" width="10" x="21.5" y="117.4883"/><rect fill="#FFFFFF" filter="url(#ffqkv8a)" height="29.3105" style="stroke: #A80036; stroke-width: 1.0;" width="10" x="80" y="190.1094"/><rect fill="#FFFFFF" filter="url(#ffqkv8a)" height="462.3477" style="stroke: #A80036; stroke-width: 1.0;" width="10" x="273" y="117.4883"/><rect fill="#FFFFFF" filter="url(#ffqkv8a)" height="551.9688" style="stroke: #A80036; stroke-width: 1.0;" width="10" x="476" y="550.5254"/><rect fill="#FFFFFF" filter="url(#ffqkv8a)" height="28" style="stroke: #A80036; stroke-width: 1.0;" width="10" x="481" y="822.3203"/><rect fill="#FFFFFF" filter="url(#ffqkv8a)" height="29.3105" style="stroke: #A80036; stroke-width: 1.0;" width="10" x="715" y="248.7305"/><rect fill="#FFFFFF" filter="url(#ffqkv8a)" height="30" style="stroke: #A80036; stroke-width: 1.0;" width="10" x="715" y="1072.4941"/><rect fill="#FFFFFF" filter="url(#ffqkv8a)" height="146.5527" style="stroke: #A80036; stroke-width: 1.0;" width="10" x="805" y="638.457"/><rect fill="#FFFFFF" filter="url(#ffqkv8a)" height="58.6211" style="stroke: #A80036; stroke-width: 1.0;" width="10" x="869" y="609.1465"/><rect fill="#FFFFFF" filter="url(#ffqkv8a)" height="97.9316" style="stroke: #A80036; stroke-width: 1.0;" width="10" x="917.5" y="350.6621"/><rect fill="#FFFFFF" filter="url(#ffqkv8a)" height="156.5527" style="stroke: #A80036; stroke-width: 1.0;" width="10" x="917.5" y="886.6309"/><rect fill="#FFFFFF" filter="url(#ffqkv8a)" height="34.3105" style="stroke: #A80036; stroke-width: 1.0;" width="10" x="966" y="979.5625"/><line style="stroke: #A80036; stroke-width: 1.0; stroke-dasharray: 5.0,5.0;" x1="26" x2="26" y1="86.4883" y2="1120.8047"/><line style="stroke: #A80036; stroke-width: 1.0; stroke-dasharray: 5.0,5.0;" x1="85" x2="85" y1="86.4883" y2="1120.8047"/><line style="stroke: #A80036; stroke-width: 1.0; stroke-dasharray: 5.0,5.0;" x1="277.5" x2="277.5" y1="86.4883" y2="1120.8047"/><line style="stroke: #A80036; stroke-width: 1.0; stroke-dasharray: 5.0,5.0;" x1="481" x2="481" y1="86.4883" y2="1120.8047"/><line style="stroke: #A80036; stroke-width: 1.0; stroke-dasharray: 5.0,5.0;" x1="719.5" x2="719.5" y1="86.4883" y2="1120.8047"/><line style="stroke: #A80036; stroke-width: 1.0; stroke-dasharray: 5.0,5.0;" x1="810" x2="810" y1="86.4883" y2="1120.8047"/><line style="stroke: #A80036; stroke-width: 1.0; stroke-dasharray: 5.0,5.0;" x1="874" x2="874" y1="86.4883" y2="1120.8047"/><line style="stroke: #A80036; stroke-width: 1.0; stroke-dasharray: 5.0,5.0;" x1="922" x2="922" y1="86.4883" y2="1120.8047"/><line style="stroke: #A80036; stroke-width: 1.0; stroke-dasharray: 5.0,5.0;" x1="971" x2="971" y1="86.4883" y2="1120.8047"/><text fill="#000000" font-family="sans-serif" font-size="14" lengthAdjust="spacingAndGlyphs" textLength="31" x="8" y="83.5352">User</text><ellipse cx="26.5" cy="13" fill="#FEFECE" filter="url(#ffqkv8a)" rx="8" ry="8" style="stroke: #A80036; stroke-width: 2.0;"/><path d="M26.5,21 L26.5,48 M13.5,29 L39.5,29 M26.5,48 L13.5,63 M26.5,48 L39.5,63 " fill="#FEFECE" filter="url(#ffqkv8a)" style="stroke: #A80036; stroke-width: 2.0;"/><text fill="#000000" font-family="sans-serif" font-size="14" lengthAdjust="spacingAndGlyphs" textLength="31" x="8" y="1133.3398">User</text><ellipse cx="26.5" cy="1146.293" fill="#FEFECE" filter="url(#ffqkv8a)" rx="8" ry="8" style="stroke: #A80036; stroke-width: 2.0;"/><path d="M26.5,1154.293 L26.5,1181.293 M13.5,1162.293 L39.5,1162.293 M26.5,1181.293 L13.5,1196.293 M26.5,1181.293 L39.5,1196.293 " fill="#FEFECE" filter="url(#ffqkv8a)" style="stroke: #A80036; stroke-width: 2.0;"/><rect fill="#FEFECE" filter="url(#ffqkv8a)" height="30.4883" style="stroke: #A80036; stroke-width: 1.5;" width="56" x="55" y="51"/><text fill="#000000" font-family="sans-serif" font-size="14" lengthAdjust="spacingAndGlyphs" textLength="42" x="62" y="71.5352">Authn</text><rect fill="#FEFECE" filter="url(#ffqkv8a)" height="30.4883" style="stroke: #A80036; stroke-width: 1.5;" width="56" x="55" y="1119.8047"/><text fill="#000000" font-family="sans-serif" font-size="14" lengthAdjust="spacingAndGlyphs" textLength="42" x="62" y="1140.3398">Authn</text><rect fill="#FEFECE" filter="url(#ffqkv8a)" height="30.4883" style="stroke: #A80036; stroke-width: 1.5;" width="111" x="220.5" y="51"/><text fill="#000000" font-family="sans-serif" font-size="14" lengthAdjust="spacingAndGlyphs" textLength="97" x="227.5" y="71.5352">IdHub Control</text><rect fill="#FEFECE" filter="url(#ffqkv8a)" height="30.4883" style="stroke: #A80036; stroke-width: 1.5;" width="111" x="220.5" y="1119.8047"/><text fill="#000000" font-family="sans-serif" font-size="14" lengthAdjust="spacingAndGlyphs" textLength="97" x="227.5" y="1140.3398">IdHub Control</text><rect fill="#FEFECE" filter="url(#ffqkv8a)" height="30.4883" style="stroke: #A80036; stroke-width: 1.5;" width="102" x="428" y="51"/><text fill="#000000" font-family="sans-serif" font-size="14" lengthAdjust="spacingAndGlyphs" textLength="88" x="435" y="71.5352">Key Manager</text><rect fill="#FEFECE" filter="url(#ffqkv8a)" height="30.4883" style="stroke: #A80036; stroke-width: 1.5;" width="102" x="428" y="1119.8047"/><text fill="#000000" font-family="sans-serif" font-size="14" lengthAdjust="spacingAndGlyphs" textLength="88" x="435" y="1140.3398">Key Manager</text><rect fill="#FEFECE" filter="url(#ffqkv8a)" height="30.4883" style="stroke: #A80036; stroke-width: 1.5;" width="55" x="690.5" y="51"/><text fill="#000000" font-family="sans-serif" font-size="14" lengthAdjust="spacingAndGlyphs" textLength="41" x="697.5" y="71.5352">Authz</text><rect fill="#FEFECE" filter="url(#ffqkv8a)" height="30.4883" style="stroke: #A80036; stroke-width: 1.5;" width="55" x="690.5" y="1119.8047"/><text fill="#000000" font-family="sans-serif" font-size="14" lengthAdjust="spacingAndGlyphs" textLength="41" x="697.5" y="1140.3398">Authz</text><text fill="#000000" font-family="sans-serif" font-size="14" lengthAdjust="spacingAndGlyphs" textLength="66" x="774" y="83.5352">PKCS #11</text><path d="M792,34 C792,24 810,24 810,24 C810,24 828,24 828,34 L828,60 C828,70 810,70 810,70 C810,70 792,70 792,60 L792,34 " fill="#FEFECE" filter="url(#ffqkv8a)" style="stroke: #000000; stroke-width: 1.5;"/><path d="M792,34 C792,44 810,44 810,44 C810,44 828,44 828,34 " fill="none" style="stroke: #000000; stroke-width: 1.5;"/><text fill="#000000" font-family="sans-serif" font-size="14" lengthAdjust="spacingAndGlyphs" textLength="66" x="774" y="1133.3398">PKCS #11</text><path d="M792,1146.293 C792,1136.293 810,1136.293 810,1136.293 C810,1136.293 828,1136.293 828,1146.293 L828,1172.293 C828,1182.293 810,1182.293 810,1182.293 C810,1182.293 792,1182.293 792,1172.293 L792,1146.293 " fill="#FEFECE" filter="url(#ffqkv8a)" style="stroke: #000000; stroke-width: 1.5;"/><path d="M792,1146.293 C792,1156.293 810,1156.293 810,1156.293 C810,1156.293 828,1156.293 828,1146.293 " fill="none" style="stroke: #000000; stroke-width: 1.5;"/><text fill="#000000" font-family="sans-serif" font-size="14" lengthAdjust="spacingAndGlyphs" textLength="29" x="856.5" y="83.5352">KDC</text><path d="M856,34 C856,24 874,24 874,24 C874,24 892,24 892,34 L892,60 C892,70 874,70 874,70 C874,70 856,70 856,60 L856,34 " fill="#FEFECE" filter="url(#ffqkv8a)" style="stroke: #000000; stroke-width: 1.5;"/><path d="M856,34 C856,44 874,44 874,44 C874,44 892,44 892,34 " fill="none" style="stroke: #000000; stroke-width: 1.5;"/><text fill="#000000" font-family="sans-serif" font-size="14" lengthAdjust="spacingAndGlyphs" textLength="29" x="856.5" y="1133.3398">KDC</text><path d="M856,1146.293 C856,1136.293 874,1136.293 874,1136.293 C874,1136.293 892,1136.293 892,1146.293 L892,1172.293 C892,1182.293 874,1182.293 874,1182.293 C874,1182.293 856,1182.293 856,1172.293 L856,1146.293 " fill="#FEFECE" filter="url(#ffqkv8a)" style="stroke: #000000; stroke-width: 1.5;"/><path d="M856,1146.293 C856,1156.293 874,1156.293 874,1156.293 C874,1156.293 892,1156.293 892,1146.293 " fill="none" style="stroke: #000000; stroke-width: 1.5;"/><text fill="#000000" font-family="sans-serif" font-size="14" lengthAdjust="spacingAndGlyphs" textLength="35" x="902" y="83.5352">LDAP</text><path d="M904.5,34 C904.5,24 922.5,24 922.5,24 C922.5,24 940.5,24 940.5,34 L940.5,60 C940.5,70 922.5,70 922.5,70 C922.5,70 904.5,70 904.5,60 L904.5,34 " fill="#FEFECE" filter="url(#ffqkv8a)" style="stroke: #000000; stroke-width: 1.5;"/><path d="M904.5,34 C904.5,44 922.5,44 922.5,44 C922.5,44 940.5,44 940.5,34 " fill="none" style="stroke: #000000; stroke-width: 1.5;"/><text fill="#000000" font-family="sans-serif" font-size="14" lengthAdjust="spacingAndGlyphs" textLength="35" x="902" y="1133.3398">LDAP</text><path d="M904.5,1146.293 C904.5,1136.293 922.5,1136.293 922.5,1136.293 C922.5,1136.293 940.5,1136.293 940.5,1146.293 L940.5,1172.293 C940.5,1182.293 922.5,1182.293 922.5,1182.293 C922.5,1182.293 904.5,1182.293 904.5,1172.293 L904.5,1146.293 " fill="#FEFECE" filter="url(#ffqkv8a)" style="stroke: #000000; stroke-width: 1.5;"/><path d="M904.5,1146.293 C904.5,1156.293 922.5,1156.293 922.5,1156.293 C922.5,1156.293 940.5,1156.293 940.5,1146.293 " fill="none" style="stroke: #000000; stroke-width: 1.5;"/><text fill="#000000" font-family="sans-serif" font-size="14" lengthAdjust="spacingAndGlyphs" textLength="28" x="954" y="83.5352">DNS</text><path d="M953,34 C953,24 971,24 971,24 C971,24 989,24 989,34 L989,60 C989,70 971,70 971,70 C971,70 953,70 953,60 L953,34 " fill="#FEFECE" filter="url(#ffqkv8a)" style="stroke: #000000; stroke-width: 1.5;"/><path d="M953,34 C953,44 971,44 971,44 C971,44 989,44 989,34 " fill="none" style="stroke: #000000; stroke-width: 1.5;"/><text fill="#000000" font-family="sans-serif" font-size="14" lengthAdjust="spacingAndGlyphs" textLength="28" x="954" y="1133.3398">DNS</text><path d="M953,1146.293 C953,1136.293 971,1136.293 971,1136.293 C971,1136.293 989,1136.293 989,1146.293 L989,1172.293 C989,1182.293 971,1182.293 971,1182.293 C971,1182.293 953,1182.293 953,1172.293 L953,1146.293 " fill="#FEFECE" filter="url(#ffqkv8a)" style="stroke: #000000; stroke-width: 1.5;"/><path d="M953,1146.293 C953,1156.293 971,1156.293 971,1156.293 C971,1156.293 989,1156.293 989,1146.293 " fill="none" style="stroke: #000000; stroke-width: 1.5;"/><rect fill="#FFFFFF" filter="url(#ffqkv8a)" height="360.416" style="stroke: #A80036; stroke-width: 1.0;" width="10" x="21.5" y="117.4883"/><rect fill="#FFFFFF" filter="url(#ffqkv8a)" height="29.3105" style="stroke: #A80036; stroke-width: 1.0;" width="10" x="80" y="190.1094"/><rect fill="#FFFFFF" filter="url(#ffqkv8a)" height="462.3477" style="stroke: #A80036; stroke-width: 1.0;" width="10" x="273" y="117.4883"/><rect fill="#FFFFFF" filter="url(#ffqkv8a)" height="551.9688" style="stroke: #A80036; stroke-width: 1.0;" width="10" x="476" y="550.5254"/><rect fill="#FFFFFF" filter="url(#ffqkv8a)" height="28" style="stroke: #A80036; stroke-width: 1.0;" width="10" x="481" y="822.3203"/><rect fill="#FFFFFF" filter="url(#ffqkv8a)" height="29.3105" style="stroke: #A80036; stroke-width: 1.0;" width="10" x="715" y="248.7305"/><rect fill="#FFFFFF" filter="url(#ffqkv8a)" height="30" style="stroke: #A80036; stroke-width: 1.0;" width="10" x="715" y="1072.4941"/><rect fill="#FFFFFF" filter="url(#ffqkv8a)" height="146.5527" style="stroke: #A80036; stroke-width: 1.0;" width="10" x="805" y="638.457"/><rect fill="#FFFFFF" filter="url(#ffqkv8a)" height="58.6211" style="stroke: #A80036; stroke-width: 1.0;" width="10" x="869" y="609.1465"/><rect fill="#FFFFFF" filter="url(#ffqkv8a)" height="97.9316" style="stroke: #A80036; stroke-width: 1.0;" width="10" x="917.5" y="350.6621"/><rect fill="#FFFFFF" filter="url(#ffqkv8a)" height="156.5527" style="stroke: #A80036; stroke-width: 1.0;" width="10" x="917.5" y="886.6309"/><rect fill="#FFFFFF" filter="url(#ffqkv8a)" height="34.3105" style="stroke: #A80036; stroke-width: 1.0;" width="10" x="966" y="979.5625"/><polygon fill="#A80036" points="261,113.4883,271,117.4883,261,121.4883,265,117.4883" style="stroke: #A80036; stroke-width: 1.0;"/><line style="stroke: #A80036; stroke-width: 1.0;" x1="31.5" x2="267" y1="117.4883" y2="117.4883"/><text fill="#000000" font-family="sans-serif" font-size="13" font-weight="bold" lengthAdjust="spacingAndGlyphs" textLength="9" x="38.5" y="113.0566">1</text><text fill="#000000" font-family="sans-serif" font-size="13" lengthAdjust="spacingAndGlyphs" textLength="146" x="51.5" y="113.0566">User Add user@domain</text><rect fill="#EEEEEE" filter="url(#ffqkv8a)" height="3" style="stroke: #EEEEEE; stroke-width: 1.0;" width="991" x="3" y="146.4541"/><line style="stroke: #000000; stroke-width: 1.0;" x1="3" x2="994" y1="146.4541" y2="146.4541"/><line style="stroke: #000000; stroke-width: 1.0;" x1="3" x2="994" y1="149.4541" y2="149.4541"/><rect fill="#EEEEEE" filter="url(#ffqkv8a)" height="23.3105" style="stroke: #000000; stroke-width: 2.0;" width="117" x="440" y="135.7988"/><text fill="#000000" font-family="sans-serif" font-size="13" font-weight="bold" lengthAdjust="spacingAndGlyphs" textLength="99" x="446" y="152.3672">Access Control</text><polygon fill="#A80036" points="101,186.1094,91,190.1094,101,194.1094,97,190.1094" style="stroke: #A80036; stroke-width: 1.0;"/><line style="stroke: #A80036; stroke-width: 1.0;" x1="95" x2="272" y1="190.1094" y2="190.1094"/><text fill="#000000" font-family="sans-serif" font-size="13" font-weight="bold" lengthAdjust="spacingAndGlyphs" textLength="9" x="107" y="185.6777">2</text><text fill="#000000" font-family="sans-serif" font-size="13" lengthAdjust="spacingAndGlyphs" textLength="136" x="120" y="185.6777">SecureLayer @domain</text><polygon fill="#A80036" points="261,215.4199,271,219.4199,261,223.4199,265,219.4199" style="stroke: #A80036; stroke-width: 1.0;"/><line style="stroke: #A80036; stroke-width: 1.0;" x1="85" x2="267" y1="219.4199" y2="219.4199"/><text fill="#000000" font-family="sans-serif" font-size="13" font-weight="bold" lengthAdjust="spacingAndGlyphs" textLength="9" x="92" y="214.9883">3</text><text fill="#000000" font-family="sans-serif" font-size="13" lengthAdjust="spacingAndGlyphs" textLength="146" x="105" y="214.9883">RemoteID you@domain</text><polygon fill="#A80036" points="703,244.7305,713,248.7305,703,252.7305,707,248.7305" style="stroke: #A80036; stroke-width: 1.0;"/><line style="stroke: #A80036; stroke-width: 1.0;" x1="283" x2="709" y1="248.7305" y2="248.7305"/><text fill="#000000" font-family="sans-serif" font-size="13" font-weight="bold" lengthAdjust="spacingAndGlyphs" textLength="9" x="290" y="244.2988">4</text><text fill="#000000" font-family="sans-serif" font-size="13" lengthAdjust="spacingAndGlyphs" textLength="318" x="303" y="244.2988">WANT userid-create ON @domain AS you@domain</text><polygon fill="#A80036" points="294,274.041,284,278.041,294,282.041,290,278.041" style="stroke: #A80036; stroke-width: 1.0;"/><line style="stroke: #A80036; stroke-width: 1.0;" x1="288" x2="719" y1="278.041" y2="278.041"/><text fill="#000000" font-family="sans-serif" font-size="13" font-weight="bold" lengthAdjust="spacingAndGlyphs" textLength="9" x="300" y="273.6094">5</text><text fill="#000000" font-family="sans-serif" font-size="13" lengthAdjust="spacingAndGlyphs" textLength="148" x="313" y="273.6094">OK FOR admin@domain</text><rect fill="#EEEEEE" filter="url(#ffqkv8a)" height="3" style="stroke: #EEEEEE; stroke-width: 1.0;" width="991" x="3" y="307.0068"/><line style="stroke: #000000; stroke-width: 1.0;" x1="3" x2="994" y1="307.0068" y2="307.0068"/><line style="stroke: #000000; stroke-width: 1.0;" x1="3" x2="994" y1="310.0068" y2="310.0068"/><rect fill="#EEEEEE" filter="url(#ffqkv8a)" height="23.3105" style="stroke: #000000; stroke-width: 2.0;" width="104" x="446.5" y="296.3516"/><text fill="#000000" font-family="sans-serif" font-size="13" font-weight="bold" lengthAdjust="spacingAndGlyphs" textLength="86" x="452.5" y="312.9199">Sanity Check</text><polygon fill="#A80036" points="905.5,346.6621,915.5,350.6621,905.5,354.6621,909.5,350.6621" style="stroke: #A80036; stroke-width: 1.0;"/><line style="stroke: #A80036; stroke-width: 1.0;" x1="283" x2="911.5" y1="350.6621" y2="350.6621"/><text fill="#000000" font-family="sans-serif" font-size="13" font-weight="bold" lengthAdjust="spacingAndGlyphs" textLength="9" x="290" y="346.2305">6</text><text fill="#000000" font-family="sans-serif" font-size="13" lengthAdjust="spacingAndGlyphs" textLength="266" x="303" y="346.2305">Compare user@domain AS admin@domain</text><polygon fill="#0000FF" points="294,380.9727,284,384.9727,294,388.9727,290,384.9727" style="stroke: #0000FF; stroke-width: 1.0;"/><line style="stroke: #0000FF; stroke-width: 1.0; stroke-dasharray: 2.0,2.0;" x1="288" x2="916.5" y1="384.9727" y2="384.9727"/><text fill="#000000" font-family="sans-serif" font-size="13" font-weight="bold" lengthAdjust="spacingAndGlyphs" textLength="9" x="300" y="380.541">7</text><text fill="#000000" font-family="sans-serif" font-size="13" lengthAdjust="spacingAndGlyphs" textLength="85" x="313" y="380.541">UserID Found</text><polygon fill="#FBFB77" filter="url(#ffqkv8a)" points="74,363.9727,74,388.9727,264,388.9727,264,373.9727,254,363.9727,74,363.9727" style="stroke: #A80036; stroke-width: 1.0;"/><line style="stroke: #A80036; stroke-width: 1.0;" x1="254" x2="254" y1="363.9727" y2="373.9727"/><line style="stroke: #A80036; stroke-width: 1.0;" x1="264" x2="254" y1="373.9727" y2="373.9727"/><text fill="#0000FF" font-family="sans-serif" font-size="13" lengthAdjust="spacingAndGlyphs" textLength="169" x="80" y="381.541">Alternative flow, fatal error</text><polygon fill="#0000FF" points="42.5,415.2832,32.5,419.2832,42.5,423.2832,38.5,419.2832" style="stroke: #0000FF; stroke-width: 1.0;"/><line style="stroke: #0000FF; stroke-width: 1.0; stroke-dasharray: 2.0,2.0;" x1="36.5" x2="272" y1="419.2832" y2="419.2832"/><text fill="#000000" font-family="sans-serif" font-size="13" font-weight="bold" lengthAdjust="spacingAndGlyphs" textLength="9" x="48.5" y="414.8516">8</text><text fill="#000000" font-family="sans-serif" font-size="13" lengthAdjust="spacingAndGlyphs" textLength="89" x="61.5" y="414.8516">Already Exists</text><polygon fill="#A80036" points="294,444.5938,284,448.5938,294,452.5938,290,448.5938" style="stroke: #A80036; stroke-width: 1.0;"/><line style="stroke: #A80036; stroke-width: 1.0;" x1="288" x2="921.5" y1="448.5938" y2="448.5938"/><text fill="#000000" font-family="sans-serif" font-size="13" font-weight="bold" lengthAdjust="spacingAndGlyphs" textLength="9" x="300" y="444.1621">9</text><text fill="#000000" font-family="sans-serif" font-size="13" lengthAdjust="spacingAndGlyphs" textLength="112" x="313" y="444.1621">UserID Not Found</text><polygon fill="#A80036" points="37.5,473.9043,27.5,477.9043,37.5,481.9043,33.5,477.9043" style="stroke: #A80036; stroke-width: 1.0;"/><line style="stroke: #A80036; stroke-width: 1.0;" x1="31.5" x2="272" y1="477.9043" y2="477.9043"/><text fill="#000000" font-family="sans-serif" font-size="13" font-weight="bold" lengthAdjust="spacingAndGlyphs" textLength="18" x="43.5" y="473.4727">10</text><text fill="#000000" font-family="sans-serif" font-size="13" lengthAdjust="spacingAndGlyphs" textLength="48" x="65.5" y="473.4727">Queued</text><rect fill="#EEEEEE" filter="url(#ffqkv8a)" height="3" style="stroke: #EEEEEE; stroke-width: 1.0;" width="991" x="3" y="506.8701"/><line style="stroke: #000000; stroke-width: 1.0;" x1="3" x2="994" y1="506.8701" y2="506.8701"/><line style="stroke: #000000; stroke-width: 1.0;" x1="3" x2="994" y1="509.8701" y2="509.8701"/><rect fill="#EEEEEE" filter="url(#ffqkv8a)" height="23.3105" style="stroke: #000000; stroke-width: 2.0;" width="136" x="430.5" y="496.2148"/><text fill="#000000" font-family="sans-serif" font-size="13" font-weight="bold" lengthAdjust="spacingAndGlyphs" textLength="118" x="436.5" y="512.7832">Key Management</text><polygon fill="#A80036" points="464,546.5254,474,550.5254,464,554.5254,468,550.5254" style="stroke: #A80036; stroke-width: 1.0;"/><line style="stroke: #A80036; stroke-width: 1.0;" x1="283" x2="470" y1="550.5254" y2="550.5254"/><text fill="#000000" font-family="sans-serif" font-size="13" font-weight="bold" lengthAdjust="spacingAndGlyphs" textLength="18" x="290" y="546.0938">11</text><text fill="#000000" font-family="sans-serif" font-size="13" lengthAdjust="spacingAndGlyphs" textLength="152" x="312" y="546.0938">Have User user@domain</text><polygon fill="#A80036" points="289,575.8359,279,579.8359,289,583.8359,285,579.8359" style="stroke: #A80036; stroke-width: 1.0;"/><line style="stroke: #A80036; stroke-width: 1.0;" x1="283" x2="475" y1="579.8359" y2="579.8359"/><text fill="#000000" font-family="sans-serif" font-size="13" font-weight="bold" lengthAdjust="spacingAndGlyphs" textLength="18" x="295" y="575.4043">12</text><text fill="#000000" font-family="sans-serif" font-size="13" lengthAdjust="spacingAndGlyphs" textLength="48" x="317" y="575.4043">Queued</text><polygon fill="#A80036" points="857,605.1465,867,609.1465,857,613.1465,861,609.1465" style="stroke: #A80036; stroke-width: 1.0;"/><line style="stroke: #A80036; stroke-width: 1.0;" x1="486" x2="863" y1="609.1465" y2="609.1465"/><text fill="#000000" font-family="sans-serif" font-size="13" font-weight="bold" lengthAdjust="spacingAndGlyphs" textLength="18" x="493" y="604.7148">13</text><text fill="#000000" font-family="sans-serif" font-size="13" lengthAdjust="spacingAndGlyphs" textLength="178" x="515" y="604.7148">Have Principal user@domain</text><polygon fill="#A80036" points="793,634.457,803,638.457,793,642.457,797,638.457" style="stroke: #A80036; stroke-width: 1.0;"/><line style="stroke: #A80036; stroke-width: 1.0;" x1="486" x2="799" y1="638.457" y2="638.457"/><text fill="#000000" font-family="sans-serif" font-size="13" font-weight="bold" lengthAdjust="spacingAndGlyphs" textLength="18" x="493" y="634.0254">14</text><text fill="#000000" font-family="sans-serif" font-size="13" lengthAdjust="spacingAndGlyphs" textLength="278" x="515" y="634.0254">Have Layer user@domain AS admin@domain</text><polygon fill="#A80036" points="497,663.7676,487,667.7676,497,671.7676,493,667.7676" style="stroke: #A80036; stroke-width: 1.0;"/><line style="stroke: #A80036; stroke-width: 1.0;" x1="491" x2="873" y1="667.7676" y2="667.7676"/><text fill="#000000" font-family="sans-serif" font-size="13" font-weight="bold" lengthAdjust="spacingAndGlyphs" textLength="18" x="503" y="663.3359">15</text><text fill="#000000" font-family="sans-serif" font-size="13" lengthAdjust="spacingAndGlyphs" textLength="18" x="525" y="663.3359">OK</text><polygon fill="#A80036" points="793,693.0781,803,697.0781,793,701.0781,797,697.0781" style="stroke: #A80036; stroke-width: 1.0;"/><line style="stroke: #A80036; stroke-width: 1.0;" x1="486" x2="799" y1="697.0781" y2="697.0781"/><text fill="#000000" font-family="sans-serif" font-size="13" font-weight="bold" lengthAdjust="spacingAndGlyphs" textLength="18" x="493" y="692.6465">16</text><text fill="#000000" font-family="sans-serif" font-size="13" lengthAdjust="spacingAndGlyphs" textLength="153" x="515" y="692.6465">Have Keys user@domain</text><polygon fill="#A80036" points="497,722.3887,487,726.3887,497,730.3887,493,726.3887" style="stroke: #A80036; stroke-width: 1.0;"/><line style="stroke: #A80036; stroke-width: 1.0;" x1="491" x2="804" y1="726.3887" y2="726.3887"/><text fill="#000000" font-family="sans-serif" font-size="13" font-weight="bold" lengthAdjust="spacingAndGlyphs" textLength="18" x="503" y="721.957">17</text><text fill="#000000" font-family="sans-serif" font-size="13" lengthAdjust="spacingAndGlyphs" textLength="140" x="525" y="721.957">Made pkcs11:xxx;y;zz</text><polygon fill="#A80036" points="793,751.6992,803,755.6992,793,759.6992,797,755.6992" style="stroke: #A80036; stroke-width: 1.0;"/><line style="stroke: #A80036; stroke-width: 1.0;" x1="486" x2="799" y1="755.6992" y2="755.6992"/><text fill="#000000" font-family="sans-serif" font-size="13" font-weight="bold" lengthAdjust="spacingAndGlyphs" textLength="18" x="493" y="751.2676">18</text><text fill="#000000" font-family="sans-serif" font-size="13" lengthAdjust="spacingAndGlyphs" textLength="139" x="515" y="751.2676">Retrieve user@domain</text><polygon fill="#A80036" points="497,781.0098,487,785.0098,497,789.0098,493,785.0098" style="stroke: #A80036; stroke-width: 1.0;"/><line style="stroke: #A80036; stroke-width: 1.0;" x1="491" x2="809" y1="785.0098" y2="785.0098"/><text fill="#000000" font-family="sans-serif" font-size="13" font-weight="bold" lengthAdjust="spacingAndGlyphs" textLength="18" x="503" y="780.5781">19</text><text fill="#000000" font-family="sans-serif" font-size="13" lengthAdjust="spacingAndGlyphs" textLength="136" x="525" y="780.5781">PubKey MIIEVzCCAz...</text><line style="stroke: #A80036; stroke-width: 1.0;" x1="491" x2="533" y1="814.6309" y2="814.6309"/><line style="stroke: #A80036; stroke-width: 1.0;" x1="533" x2="533" y1="814.6309" y2="827.6309"/><line style="stroke: #A80036; stroke-width: 1.0;" x1="492" x2="533" y1="827.6309" y2="827.6309"/><polygon fill="#A80036" points="502,823.6309,492,827.6309,502,831.6309,498,827.6309" style="stroke: #A80036; stroke-width: 1.0;"/><text fill="#000000" font-family="sans-serif" font-size="13" font-weight="bold" lengthAdjust="spacingAndGlyphs" textLength="18" x="498" y="809.8887">20</text><text fill="#000000" font-family="sans-serif" font-size="13" lengthAdjust="spacingAndGlyphs" textLength="193" x="520" y="809.8887">PubKey MIIEVzCCAz... to Creds</text><polygon fill="#A80036" points="905.5,882.6309,915.5,886.6309,905.5,890.6309,909.5,886.6309" style="stroke: #A80036; stroke-width: 1.0;"/><line style="stroke: #A80036; stroke-width: 1.0;" x1="486" x2="911.5" y1="886.6309" y2="886.6309"/><text fill="#000000" font-family="sans-serif" font-size="13" font-weight="bold" lengthAdjust="spacingAndGlyphs" textLength="18" x="493" y="882.1992">21</text><text fill="#000000" font-family="sans-serif" font-size="13" lengthAdjust="spacingAndGlyphs" textLength="303" x="515" y="882.1992">Have user@domain XS public AS admin@domain</text><polygon fill="#A80036" points="905.5,911.9414,915.5,915.9414,905.5,919.9414,909.5,915.9414" style="stroke: #A80036; stroke-width: 1.0;"/><line style="stroke: #A80036; stroke-width: 1.0;" x1="486" x2="911.5" y1="915.9414" y2="915.9414"/><text fill="#000000" font-family="sans-serif" font-size="13" font-weight="bold" lengthAdjust="spacingAndGlyphs" textLength="18" x="493" y="911.5098">22</text><text fill="#000000" font-family="sans-serif" font-size="13" lengthAdjust="spacingAndGlyphs" textLength="365" x="515" y="911.5098">Have Creds for user@domain XS public AS admin@domain</text><polygon fill="#A80036" points="905.5,941.252,915.5,945.252,905.5,949.252,909.5,945.252" style="stroke: #A80036; stroke-width: 1.0;"/><line style="stroke: #A80036; stroke-width: 1.0;" x1="486" x2="911.5" y1="945.252" y2="945.252"/><text fill="#000000" font-family="sans-serif" font-size="13" font-weight="bold" lengthAdjust="spacingAndGlyphs" textLength="18" x="493" y="940.8203">23</text><text fill="#000000" font-family="sans-serif" font-size="13" lengthAdjust="spacingAndGlyphs" textLength="367" x="515" y="940.8203">Have pkcs11:xxx;y;zz XS user@domain AS admin@domain</text><polygon fill="#0000FF" points="954,975.5625,964,979.5625,954,983.5625,958,979.5625" style="stroke: #0000FF; stroke-width: 1.0;"/><line style="stroke: #0000FF; stroke-width: 1.0; stroke-dasharray: 2.0,2.0;" x1="486" x2="960" y1="979.5625" y2="979.5625"/><text fill="#000000" font-family="sans-serif" font-size="13" font-weight="bold" lengthAdjust="spacingAndGlyphs" textLength="18" x="493" y="975.1309">24</text><text fill="#000000" font-family="sans-serif" font-size="13" lengthAdjust="spacingAndGlyphs" textLength="238" x="515" y="975.1309">Have TLSA records AS admin@domain</text><polygon fill="#FBFB77" filter="url(#ffqkv8a)" points="323,958.5625,323,983.5625,467,983.5625,467,968.5625,457,958.5625,323,958.5625" style="stroke: #A80036; stroke-width: 1.0;"/><line style="stroke: #A80036; stroke-width: 1.0;" x1="457" x2="457" y1="958.5625" y2="968.5625"/><line style="stroke: #A80036; stroke-width: 1.0;" x1="467" x2="457" y1="968.5625" y2="968.5625"/><text fill="#0000FF" font-family="sans-serif" font-size="13" lengthAdjust="spacingAndGlyphs" textLength="123" x="329" y="976.1309">TLSA only for hosts</text><polygon fill="#0000FF" points="497,1009.873,487,1013.873,497,1017.873,493,1013.873" style="stroke: #0000FF; stroke-width: 1.0;"/><line style="stroke: #0000FF; stroke-width: 1.0; stroke-dasharray: 2.0,2.0;" x1="491" x2="970" y1="1013.873" y2="1013.873"/><text fill="#000000" font-family="sans-serif" font-size="13" font-weight="bold" lengthAdjust="spacingAndGlyphs" textLength="18" x="503" y="1009.4414">25</text><text fill="#000000" font-family="sans-serif" font-size="13" lengthAdjust="spacingAndGlyphs" textLength="48" x="525" y="1009.4414">Queued</text><polygon fill="#A80036" points="497,1039.1836,487,1043.1836,497,1047.1836,493,1043.1836" style="stroke: #A80036; stroke-width: 1.0;"/><line style="stroke: #A80036; stroke-width: 1.0;" x1="491" x2="921.5" y1="1043.1836" y2="1043.1836"/><text fill="#000000" font-family="sans-serif" font-size="13" font-weight="bold" lengthAdjust="spacingAndGlyphs" textLength="18" x="503" y="1038.752">26</text><text fill="#000000" font-family="sans-serif" font-size="13" lengthAdjust="spacingAndGlyphs" textLength="37" x="525" y="1038.752">Ready</text><polygon fill="#A80036" points="703,1068.4941,713,1072.4941,703,1076.4941,707,1072.4941" style="stroke: #A80036; stroke-width: 1.0;"/><line style="stroke: #A80036; stroke-width: 1.0;" x1="486" x2="709" y1="1072.4941" y2="1072.4941"/><text fill="#000000" font-family="sans-serif" font-size="13" font-weight="bold" lengthAdjust="spacingAndGlyphs" textLength="18" x="493" y="1068.0625">27</text><text fill="#000000" font-family="sans-serif" font-size="13" lengthAdjust="spacingAndGlyphs" textLength="74" x="515" y="1068.0625">Cache hints</text></g></svg>