<?xml version="1.0" encoding="UTF-8" standalone="no"?><svg xmlns="http://www.w3.org/2000/svg" xmlns:xlink="http://www.w3.org/1999/xlink" contentScriptType="application/ecmascript" contentStyleType="text/css" height="1132px" preserveAspectRatio="none" style="width:999px;height:1132px;" version="1.1" viewBox="0 0 999 1132" width="999px" zoomAndPan="magnify"><defs><filter height="300%" id="frz20u6" width="300%" x="-1" y="-1"><feGaussianBlur result="blurOut" stdDeviation="2.0"/><feColorMatrix in="blurOut" result="blurOut2" type="matrix" values="0 0 0 0 0 0 0 0 0 0 0 0 0 0 0 0 0 0 .4 0"/><feOffset dx="4.0" dy="4.0" in="blurOut2" result="blurOut3"/><feBlend in="SourceGraphic" in2="blurOut3" mode="normal"/></filter></defs><g><rect fill="#FFFFFF" filter="url(#frz20u6)" height="360.416" style="stroke: #A80036; stroke-width: 1.0;" width="10" x="21.5" y="117.4883"/><rect fill="#FFFFFF" filter="url(#frz20u6)" height="29.3105" style="stroke: #A80036; stroke-width: 1.0;" width="10" x="80" y="190.1094"/><rect fill="#FFFFFF" filter="url(#frz20u6)" height="462.3477" style="stroke: #A80036; stroke-width: 1.0;" width="10" x="273" y="117.4883"/><rect fill="#FFFFFF" filter="url(#frz20u6)" height="479.6582" style="stroke: #A80036; stroke-width: 1.0;" width="10" x="476" y="550.5254"/><rect fill="#FFFFFF" filter="url(#frz20u6)" height="29.3105" style="stroke: #A80036; stroke-width: 1.0;" width="10" x="660" y="248.7305"/><rect fill="#FFFFFF" filter="url(#frz20u6)" height="30" style="stroke: #A80036; stroke-width: 1.0;" width="10" x="660" y="1000.1836"/><rect fill="#FFFFFF" filter="url(#frz20u6)" height="58.6211" style="stroke: #A80036; stroke-width: 1.0;" width="10" x="805" y="667.7676"/><rect fill="#FFFFFF" filter="url(#frz20u6)" height="58.6211" style="stroke: #A80036; stroke-width: 1.0;" width="10" x="869" y="638.457"/><rect fill="#FFFFFF" filter="url(#frz20u6)" height="97.9316" style="stroke: #A80036; stroke-width: 1.0;" width="10" x="917.5" y="350.6621"/><rect fill="#FFFFFF" filter="url(#frz20u6)" height="215.1738" style="stroke: #A80036; stroke-width: 1.0;" width="10" x="917.5" y="755.6992"/><rect fill="#FFFFFF" filter="url(#frz20u6)" height="34.3105" style="stroke: #A80036; stroke-width: 1.0;" width="10" x="966" y="907.252"/><line style="stroke: #A80036; stroke-width: 1.0; stroke-dasharray: 5.0,5.0;" x1="26" x2="26" y1="86.4883" y2="1048.4941"/><line style="stroke: #A80036; stroke-width: 1.0; stroke-dasharray: 5.0,5.0;" x1="85" x2="85" y1="86.4883" y2="1048.4941"/><line style="stroke: #A80036; stroke-width: 1.0; stroke-dasharray: 5.0,5.0;" x1="277.5" x2="277.5" y1="86.4883" y2="1048.4941"/><line style="stroke: #A80036; stroke-width: 1.0; stroke-dasharray: 5.0,5.0;" x1="481" x2="481" y1="86.4883" y2="1048.4941"/><line style="stroke: #A80036; stroke-width: 1.0; stroke-dasharray: 5.0,5.0;" x1="664.5" x2="664.5" y1="86.4883" y2="1048.4941"/><line style="stroke: #A80036; stroke-width: 1.0; stroke-dasharray: 5.0,5.0;" x1="810" x2="810" y1="86.4883" y2="1048.4941"/><line style="stroke: #A80036; stroke-width: 1.0; stroke-dasharray: 5.0,5.0;" x1="874" x2="874" y1="86.4883" y2="1048.4941"/><line style="stroke: #A80036; stroke-width: 1.0; stroke-dasharray: 5.0,5.0;" x1="922" x2="922" y1="86.4883" y2="1048.4941"/><line style="stroke: #A80036; stroke-width: 1.0; stroke-dasharray: 5.0,5.0;" x1="971" x2="971" y1="86.4883" y2="1048.4941"/><text fill="#000000" font-family="sans-serif" font-size="14" lengthAdjust="spacingAndGlyphs" textLength="31" x="8" y="83.5352">User</text><ellipse cx="26.5" cy="13" fill="#FEFECE" filter="url(#frz20u6)" rx="8" ry="8" style="stroke: #A80036; stroke-width: 2.0;"/><path d="M26.5,21 L26.5,48 M13.5,29 L39.5,29 M26.5,48 L13.5,63 M26.5,48 L39.5,63 " fill="#FEFECE" filter="url(#frz20u6)" style="stroke: #A80036; stroke-width: 2.0;"/><text fill="#000000" font-family="sans-serif" font-size="14" lengthAdjust="spacingAndGlyphs" textLength="31" x="8" y="1061.0293">User</text><ellipse cx="26.5" cy="1073.9824" fill="#FEFECE" filter="url(#frz20u6)" rx="8" ry="8" style="stroke: #A80036; stroke-width: 2.0;"/><path d="M26.5,1081.9824 L26.5,1108.9824 M13.5,1089.9824 L39.5,1089.9824 M26.5,1108.9824 L13.5,1123.9824 M26.5,1108.9824 L39.5,1123.9824 " fill="#FEFECE" filter="url(#frz20u6)" style="stroke: #A80036; stroke-width: 2.0;"/><rect fill="#FEFECE" filter="url(#frz20u6)" height="30.4883" style="stroke: #A80036; stroke-width: 1.5;" width="56" x="55" y="51"/><text fill="#000000" font-family="sans-serif" font-size="14" lengthAdjust="spacingAndGlyphs" textLength="42" x="62" y="71.5352">Authn</text><rect fill="#FEFECE" filter="url(#frz20u6)" height="30.4883" style="stroke: #A80036; stroke-width: 1.5;" width="56" x="55" y="1047.4941"/><text fill="#000000" font-family="sans-serif" font-size="14" lengthAdjust="spacingAndGlyphs" textLength="42" x="62" y="1068.0293">Authn</text><rect fill="#FEFECE" filter="url(#frz20u6)" height="30.4883" style="stroke: #A80036; stroke-width: 1.5;" width="111" x="220.5" y="51"/><text fill="#000000" font-family="sans-serif" font-size="14" lengthAdjust="spacingAndGlyphs" textLength="97" x="227.5" y="71.5352">IdHub Control</text><rect fill="#FEFECE" filter="url(#frz20u6)" height="30.4883" style="stroke: #A80036; stroke-width: 1.5;" width="111" x="220.5" y="1047.4941"/><text fill="#000000" font-family="sans-serif" font-size="14" lengthAdjust="spacingAndGlyphs" textLength="97" x="227.5" y="1068.0293">IdHub Control</text><rect fill="#FEFECE" filter="url(#frz20u6)" height="30.4883" style="stroke: #A80036; stroke-width: 1.5;" width="102" x="428" y="51"/><text fill="#000000" font-family="sans-serif" font-size="14" lengthAdjust="spacingAndGlyphs" textLength="88" x="435" y="71.5352">Key Manager</text><rect fill="#FEFECE" filter="url(#frz20u6)" height="30.4883" style="stroke: #A80036; stroke-width: 1.5;" width="102" x="428" y="1047.4941"/><text fill="#000000" font-family="sans-serif" font-size="14" lengthAdjust="spacingAndGlyphs" textLength="88" x="435" y="1068.0293">Key Manager</text><rect fill="#FEFECE" filter="url(#frz20u6)" height="30.4883" style="stroke: #A80036; stroke-width: 1.5;" width="55" x="635.5" y="51"/><text fill="#000000" font-family="sans-serif" font-size="14" lengthAdjust="spacingAndGlyphs" textLength="41" x="642.5" y="71.5352">Authz</text><rect fill="#FEFECE" filter="url(#frz20u6)" height="30.4883" style="stroke: #A80036; stroke-width: 1.5;" width="55" x="635.5" y="1047.4941"/><text fill="#000000" font-family="sans-serif" font-size="14" lengthAdjust="spacingAndGlyphs" textLength="41" x="642.5" y="1068.0293">Authz</text><text fill="#000000" font-family="sans-serif" font-size="14" lengthAdjust="spacingAndGlyphs" textLength="66" x="774" y="83.5352">PKCS #11</text><path d="M792,34 C792,24 810,24 810,24 C810,24 828,24 828,34 L828,60 C828,70 810,70 810,70 C810,70 792,70 792,60 L792,34 " fill="#FEFECE" filter="url(#frz20u6)" style="stroke: #000000; stroke-width: 1.5;"/><path d="M792,34 C792,44 810,44 810,44 C810,44 828,44 828,34 " fill="none" style="stroke: #000000; stroke-width: 1.5;"/><text fill="#000000" font-family="sans-serif" font-size="14" lengthAdjust="spacingAndGlyphs" textLength="66" x="774" y="1061.0293">PKCS #11</text><path d="M792,1073.9824 C792,1063.9824 810,1063.9824 810,1063.9824 C810,1063.9824 828,1063.9824 828,1073.9824 L828,1099.9824 C828,1109.9824 810,1109.9824 810,1109.9824 C810,1109.9824 792,1109.9824 792,1099.9824 L792,1073.9824 " fill="#FEFECE" filter="url(#frz20u6)" style="stroke: #000000; stroke-width: 1.5;"/><path d="M792,1073.9824 C792,1083.9824 810,1083.9824 810,1083.9824 C810,1083.9824 828,1083.9824 828,1073.9824 " fill="none" style="stroke: #000000; stroke-width: 1.5;"/><text fill="#000000" font-family="sans-serif" font-size="14" lengthAdjust="spacingAndGlyphs" textLength="29" x="856.5" y="83.5352">KDC</text><path d="M856,34 C856,24 874,24 874,24 C874,24 892,24 892,34 L892,60 C892,70 874,70 874,70 C874,70 856,70 856,60 L856,34 " fill="#FEFECE" filter="url(#frz20u6)" style="stroke: #000000; stroke-width: 1.5;"/><path d="M856,34 C856,44 874,44 874,44 C874,44 892,44 892,34 " fill="none" style="stroke: #000000; stroke-width: 1.5;"/><text fill="#000000" font-family="sans-serif" font-size="14" lengthAdjust="spacingAndGlyphs" textLength="29" x="856.5" y="1061.0293">KDC</text><path d="M856,1073.9824 C856,1063.9824 874,1063.9824 874,1063.9824 C874,1063.9824 892,1063.9824 892,1073.9824 L892,1099.9824 C892,1109.9824 874,1109.9824 874,1109.9824 C874,1109.9824 856,1109.9824 856,1099.9824 L856,1073.9824 " fill="#FEFECE" filter="url(#frz20u6)" style="stroke: #000000; stroke-width: 1.5;"/><path d="M856,1073.9824 C856,1083.9824 874,1083.9824 874,1083.9824 C874,1083.9824 892,1083.9824 892,1073.9824 " fill="none" style="stroke: #000000; stroke-width: 1.5;"/><text fill="#000000" font-family="sans-serif" font-size="14" lengthAdjust="spacingAndGlyphs" textLength="35" x="902" y="83.5352">LDAP</text><path d="M904.5,34 C904.5,24 922.5,24 922.5,24 C922.5,24 940.5,24 940.5,34 L940.5,60 C940.5,70 922.5,70 922.5,70 C922.5,70 904.5,70 904.5,60 L904.5,34 " fill="#FEFECE" filter="url(#frz20u6)" style="stroke: #000000; stroke-width: 1.5;"/><path d="M904.5,34 C904.5,44 922.5,44 922.5,44 C922.5,44 940.5,44 940.5,34 " fill="none" style="stroke: #000000; stroke-width: 1.5;"/><text fill="#000000" font-family="sans-serif" font-size="14" lengthAdjust="spacingAndGlyphs" textLength="35" x="902" y="1061.0293">LDAP</text><path d="M904.5,1073.9824 C904.5,1063.9824 922.5,1063.9824 922.5,1063.9824 C922.5,1063.9824 940.5,1063.9824 940.5,1073.9824 L940.5,1099.9824 C940.5,1109.9824 922.5,1109.9824 922.5,1109.9824 C922.5,1109.9824 904.5,1109.9824 904.5,1099.9824 L904.5,1073.9824 " fill="#FEFECE" filter="url(#frz20u6)" style="stroke: #000000; stroke-width: 1.5;"/><path d="M904.5,1073.9824 C904.5,1083.9824 922.5,1083.9824 922.5,1083.9824 C922.5,1083.9824 940.5,1083.9824 940.5,1073.9824 " fill="none" style="stroke: #000000; stroke-width: 1.5;"/><text fill="#000000" font-family="sans-serif" font-size="14" lengthAdjust="spacingAndGlyphs" textLength="28" x="954" y="83.5352">DNS</text><path d="M953,34 C953,24 971,24 971,24 C971,24 989,24 989,34 L989,60 C989,70 971,70 971,70 C971,70 953,70 953,60 L953,34 " fill="#FEFECE" filter="url(#frz20u6)" style="stroke: #000000; stroke-width: 1.5;"/><path d="M953,34 C953,44 971,44 971,44 C971,44 989,44 989,34 " fill="none" style="stroke: #000000; stroke-width: 1.5;"/><text fill="#000000" font-family="sans-serif" font-size="14" lengthAdjust="spacingAndGlyphs" textLength="28" x="954" y="1061.0293">DNS</text><path d="M953,1073.9824 C953,1063.9824 971,1063.9824 971,1063.9824 C971,1063.9824 989,1063.9824 989,1073.9824 L989,1099.9824 C989,1109.9824 971,1109.9824 971,1109.9824 C971,1109.9824 953,1109.9824 953,1099.9824 L953,1073.9824 " fill="#FEFECE" filter="url(#frz20u6)" style="stroke: #000000; stroke-width: 1.5;"/><path d="M953,1073.9824 C953,1083.9824 971,1083.9824 971,1083.9824 C971,1083.9824 989,1083.9824 989,1073.9824 " fill="none" style="stroke: #000000; stroke-width: 1.5;"/><rect fill="#FFFFFF" filter="url(#frz20u6)" height="360.416" style="stroke: #A80036; stroke-width: 1.0;" width="10" x="21.5" y="117.4883"/><rect fill="#FFFFFF" filter="url(#frz20u6)" height="29.3105" style="stroke: #A80036; stroke-width: 1.0;" width="10" x="80" y="190.1094"/><rect fill="#FFFFFF" filter="url(#frz20u6)" height="462.3477" style="stroke: #A80036; stroke-width: 1.0;" width="10" x="273" y="117.4883"/><rect fill="#FFFFFF" filter="url(#frz20u6)" height="479.6582" style="stroke: #A80036; stroke-width: 1.0;" width="10" x="476" y="550.5254"/><rect fill="#FFFFFF" filter="url(#frz20u6)" height="29.3105" style="stroke: #A80036; stroke-width: 1.0;" width="10" x="660" y="248.7305"/><rect fill="#FFFFFF" filter="url(#frz20u6)" height="30" style="stroke: #A80036; stroke-width: 1.0;" width="10" x="660" y="1000.1836"/><rect fill="#FFFFFF" filter="url(#frz20u6)" height="58.6211" style="stroke: #A80036; stroke-width: 1.0;" width="10" x="805" y="667.7676"/><rect fill="#FFFFFF" filter="url(#frz20u6)" height="58.6211" style="stroke: #A80036; stroke-width: 1.0;" width="10" x="869" y="638.457"/><rect fill="#FFFFFF" filter="url(#frz20u6)" height="97.9316" style="stroke: #A80036; stroke-width: 1.0;" width="10" x="917.5" y="350.6621"/><rect fill="#FFFFFF" filter="url(#frz20u6)" height="215.1738" style="stroke: #A80036; stroke-width: 1.0;" width="10" x="917.5" y="755.6992"/><rect fill="#FFFFFF" filter="url(#frz20u6)" height="34.3105" style="stroke: #A80036; stroke-width: 1.0;" width="10" x="966" y="907.252"/><polygon fill="#A80036" points="261,113.4883,271,117.4883,261,121.4883,265,117.4883" style="stroke: #A80036; stroke-width: 1.0;"/><line style="stroke: #A80036; stroke-width: 1.0;" x1="31.5" x2="267" y1="117.4883" y2="117.4883"/><text fill="#000000" font-family="sans-serif" font-size="13" font-weight="bold" lengthAdjust="spacingAndGlyphs" textLength="9" x="38.5" y="113.0566">1</text><text fill="#000000" font-family="sans-serif" font-size="13" lengthAdjust="spacingAndGlyphs" textLength="142" x="51.5" y="113.0566">User Del user@domain</text><rect fill="#EEEEEE" filter="url(#frz20u6)" height="3" style="stroke: #EEEEEE; stroke-width: 1.0;" width="991" x="3" y="146.4541"/><line style="stroke: #000000; stroke-width: 1.0;" x1="3" x2="994" y1="146.4541" y2="146.4541"/><line style="stroke: #000000; stroke-width: 1.0;" x1="3" x2="994" y1="149.4541" y2="149.4541"/><rect fill="#EEEEEE" filter="url(#frz20u6)" height="23.3105" style="stroke: #000000; stroke-width: 2.0;" width="117" x="440" y="135.7988"/><text fill="#000000" font-family="sans-serif" font-size="13" font-weight="bold" lengthAdjust="spacingAndGlyphs" textLength="99" x="446" y="152.3672">Access Control</text><polygon fill="#A80036" points="101,186.1094,91,190.1094,101,194.1094,97,190.1094" style="stroke: #A80036; stroke-width: 1.0;"/><line style="stroke: #A80036; stroke-width: 1.0;" x1="95" x2="272" y1="190.1094" y2="190.1094"/><text fill="#000000" font-family="sans-serif" font-size="13" font-weight="bold" lengthAdjust="spacingAndGlyphs" textLength="9" x="107" y="185.6777">2</text><text fill="#000000" font-family="sans-serif" font-size="13" lengthAdjust="spacingAndGlyphs" textLength="136" x="120" y="185.6777">SecureLayer @domain</text><polygon fill="#A80036" points="261,215.4199,271,219.4199,261,223.4199,265,219.4199" style="stroke: #A80036; stroke-width: 1.0;"/><line style="stroke: #A80036; stroke-width: 1.0;" x1="85" x2="267" y1="219.4199" y2="219.4199"/><text fill="#000000" font-family="sans-serif" font-size="13" font-weight="bold" lengthAdjust="spacingAndGlyphs" textLength="9" x="92" y="214.9883">3</text><text fill="#000000" font-family="sans-serif" font-size="13" lengthAdjust="spacingAndGlyphs" textLength="146" x="105" y="214.9883">RemoteID you@domain</text><polygon fill="#A80036" points="648,244.7305,658,248.7305,648,252.7305,652,248.7305" style="stroke: #A80036; stroke-width: 1.0;"/><line style="stroke: #A80036; stroke-width: 1.0;" x1="283" x2="654" y1="248.7305" y2="248.7305"/><text fill="#000000" font-family="sans-serif" font-size="13" font-weight="bold" lengthAdjust="spacingAndGlyphs" textLength="9" x="290" y="244.2988">4</text><text fill="#000000" font-family="sans-serif" font-size="13" lengthAdjust="spacingAndGlyphs" textLength="345" x="303" y="244.2988">WANT userid-delete ON user@domain AS you@domain</text><polygon fill="#A80036" points="294,274.041,284,278.041,294,282.041,290,278.041" style="stroke: #A80036; stroke-width: 1.0;"/><line style="stroke: #A80036; stroke-width: 1.0;" x1="288" x2="664" y1="278.041" y2="278.041"/><text fill="#000000" font-family="sans-serif" font-size="13" font-weight="bold" lengthAdjust="spacingAndGlyphs" textLength="9" x="300" y="273.6094">5</text><text fill="#000000" font-family="sans-serif" font-size="13" lengthAdjust="spacingAndGlyphs" textLength="148" x="313" y="273.6094">OK FOR admin@domain</text><rect fill="#EEEEEE" filter="url(#frz20u6)" height="3" style="stroke: #EEEEEE; stroke-width: 1.0;" width="991" x="3" y="307.0068"/><line style="stroke: #000000; stroke-width: 1.0;" x1="3" x2="994" y1="307.0068" y2="307.0068"/><line style="stroke: #000000; stroke-width: 1.0;" x1="3" x2="994" y1="310.0068" y2="310.0068"/><rect fill="#EEEEEE" filter="url(#frz20u6)" height="23.3105" style="stroke: #000000; stroke-width: 2.0;" width="104" x="446.5" y="296.3516"/><text fill="#000000" font-family="sans-serif" font-size="13" font-weight="bold" lengthAdjust="spacingAndGlyphs" textLength="86" x="452.5" y="312.9199">Sanity Check</text><polygon fill="#A80036" points="905.5,346.6621,915.5,350.6621,905.5,354.6621,909.5,350.6621" style="stroke: #A80036; stroke-width: 1.0;"/><line style="stroke: #A80036; stroke-width: 1.0;" x1="283" x2="911.5" y1="350.6621" y2="350.6621"/><text fill="#000000" font-family="sans-serif" font-size="13" font-weight="bold" lengthAdjust="spacingAndGlyphs" textLength="9" x="290" y="346.2305">6</text><text fill="#000000" font-family="sans-serif" font-size="13" lengthAdjust="spacingAndGlyphs" textLength="266" x="303" y="346.2305">Compare user@domain AS admin@domain</text><polygon fill="#0000FF" points="294,380.9727,284,384.9727,294,388.9727,290,384.9727" style="stroke: #0000FF; stroke-width: 1.0;"/><line style="stroke: #0000FF; stroke-width: 1.0; stroke-dasharray: 2.0,2.0;" x1="288" x2="916.5" y1="384.9727" y2="384.9727"/><text fill="#000000" font-family="sans-serif" font-size="13" font-weight="bold" lengthAdjust="spacingAndGlyphs" textLength="9" x="300" y="380.541">7</text><text fill="#000000" font-family="sans-serif" font-size="13" lengthAdjust="spacingAndGlyphs" textLength="112" x="313" y="380.541">UserID Not Found</text><polygon fill="#FBFB77" filter="url(#frz20u6)" points="74,363.9727,74,388.9727,264,388.9727,264,373.9727,254,363.9727,74,363.9727" style="stroke: #A80036; stroke-width: 1.0;"/><line style="stroke: #A80036; stroke-width: 1.0;" x1="254" x2="254" y1="363.9727" y2="373.9727"/><line style="stroke: #A80036; stroke-width: 1.0;" x1="264" x2="254" y1="373.9727" y2="373.9727"/><text fill="#0000FF" font-family="sans-serif" font-size="13" lengthAdjust="spacingAndGlyphs" textLength="169" x="80" y="381.541">Alternative flow, fatal error</text><polygon fill="#0000FF" points="42.5,415.2832,32.5,419.2832,42.5,423.2832,38.5,419.2832" style="stroke: #0000FF; stroke-width: 1.0;"/><line style="stroke: #0000FF; stroke-width: 1.0; stroke-dasharray: 2.0,2.0;" x1="36.5" x2="272" y1="419.2832" y2="419.2832"/><text fill="#000000" font-family="sans-serif" font-size="13" font-weight="bold" lengthAdjust="spacingAndGlyphs" textLength="9" x="48.5" y="414.8516">8</text><text fill="#000000" font-family="sans-serif" font-size="13" lengthAdjust="spacingAndGlyphs" textLength="66" x="61.5" y="414.8516">Not Found</text><polygon fill="#A80036" points="294,444.5938,284,448.5938,294,452.5938,290,448.5938" style="stroke: #A80036; stroke-width: 1.0;"/><line style="stroke: #A80036; stroke-width: 1.0;" x1="288" x2="921.5" y1="448.5938" y2="448.5938"/><text fill="#000000" font-family="sans-serif" font-size="13" font-weight="bold" lengthAdjust="spacingAndGlyphs" textLength="9" x="300" y="444.1621">9</text><text fill="#000000" font-family="sans-serif" font-size="13" lengthAdjust="spacingAndGlyphs" textLength="85" x="313" y="444.1621">UserID Found</text><polygon fill="#A80036" points="37.5,473.9043,27.5,477.9043,37.5,481.9043,33.5,477.9043" style="stroke: #A80036; stroke-width: 1.0;"/><line style="stroke: #A80036; stroke-width: 1.0;" x1="31.5" x2="272" y1="477.9043" y2="477.9043"/><text fill="#000000" font-family="sans-serif" font-size="13" font-weight="bold" lengthAdjust="spacingAndGlyphs" textLength="18" x="43.5" y="473.4727">10</text><text fill="#000000" font-family="sans-serif" font-size="13" lengthAdjust="spacingAndGlyphs" textLength="48" x="65.5" y="473.4727">Queued</text><rect fill="#EEEEEE" filter="url(#frz20u6)" height="3" style="stroke: #EEEEEE; stroke-width: 1.0;" width="991" x="3" y="506.8701"/><line style="stroke: #000000; stroke-width: 1.0;" x1="3" x2="994" y1="506.8701" y2="506.8701"/><line style="stroke: #000000; stroke-width: 1.0;" x1="3" x2="994" y1="509.8701" y2="509.8701"/><rect fill="#EEEEEE" filter="url(#frz20u6)" height="23.3105" style="stroke: #000000; stroke-width: 2.0;" width="136" x="430.5" y="496.2148"/><text fill="#000000" font-family="sans-serif" font-size="13" font-weight="bold" lengthAdjust="spacingAndGlyphs" textLength="118" x="436.5" y="512.7832">Key Management</text><polygon fill="#A80036" points="464,546.5254,474,550.5254,464,554.5254,468,550.5254" style="stroke: #A80036; stroke-width: 1.0;"/><line style="stroke: #A80036; stroke-width: 1.0;" x1="283" x2="470" y1="550.5254" y2="550.5254"/><text fill="#000000" font-family="sans-serif" font-size="13" font-weight="bold" lengthAdjust="spacingAndGlyphs" textLength="18" x="290" y="546.0938">11</text><text fill="#000000" font-family="sans-serif" font-size="13" lengthAdjust="spacingAndGlyphs" textLength="152" x="312" y="546.0938">Drop User user@domain</text><polygon fill="#A80036" points="289,575.8359,279,579.8359,289,583.8359,285,579.8359" style="stroke: #A80036; stroke-width: 1.0;"/><line style="stroke: #A80036; stroke-width: 1.0;" x1="283" x2="475" y1="579.8359" y2="579.8359"/><text fill="#000000" font-family="sans-serif" font-size="13" font-weight="bold" lengthAdjust="spacingAndGlyphs" textLength="18" x="295" y="575.4043">12</text><text fill="#000000" font-family="sans-serif" font-size="13" lengthAdjust="spacingAndGlyphs" textLength="48" x="317" y="575.4043">Queued</text><polygon fill="#A80036" points="862,605.1465,872,609.1465,862,613.1465,866,609.1465" style="stroke: #A80036; stroke-width: 1.0;"/><line style="stroke: #A80036; stroke-width: 1.0;" x1="486" x2="868" y1="609.1465" y2="609.1465"/><text fill="#000000" font-family="sans-serif" font-size="13" font-weight="bold" lengthAdjust="spacingAndGlyphs" textLength="18" x="493" y="604.7148">13</text><text fill="#000000" font-family="sans-serif" font-size="13" lengthAdjust="spacingAndGlyphs" textLength="178" x="515" y="604.7148">Drop Principal user@domain</text><polygon fill="#A80036" points="857,634.457,867,638.457,857,642.457,861,638.457" style="stroke: #A80036; stroke-width: 1.0;"/><line style="stroke: #A80036; stroke-width: 1.0;" x1="486" x2="863" y1="638.457" y2="638.457"/><text fill="#000000" font-family="sans-serif" font-size="13" font-weight="bold" lengthAdjust="spacingAndGlyphs" textLength="18" x="493" y="634.0254">14</text><text fill="#000000" font-family="sans-serif" font-size="13" lengthAdjust="spacingAndGlyphs" textLength="207" x="515" y="634.0254">Drop Principals user+...@domain</text><polygon fill="#A80036" points="793,663.7676,803,667.7676,793,671.7676,797,667.7676" style="stroke: #A80036; stroke-width: 1.0;"/><line style="stroke: #A80036; stroke-width: 1.0;" x1="486" x2="799" y1="667.7676" y2="667.7676"/><text fill="#000000" font-family="sans-serif" font-size="13" font-weight="bold" lengthAdjust="spacingAndGlyphs" textLength="18" x="493" y="663.3359">15</text><text fill="#000000" font-family="sans-serif" font-size="13" lengthAdjust="spacingAndGlyphs" textLength="278" x="515" y="663.3359">Drop Layer user@domain AS admin@domain</text><polygon fill="#A80036" points="497,693.0781,487,697.0781,497,701.0781,493,697.0781" style="stroke: #A80036; stroke-width: 1.0;"/><line style="stroke: #A80036; stroke-width: 1.0;" x1="491" x2="873" y1="697.0781" y2="697.0781"/><text fill="#000000" font-family="sans-serif" font-size="13" font-weight="bold" lengthAdjust="spacingAndGlyphs" textLength="18" x="503" y="692.6465">16</text><text fill="#000000" font-family="sans-serif" font-size="13" lengthAdjust="spacingAndGlyphs" textLength="18" x="525" y="692.6465">OK</text><polygon fill="#A80036" points="497,722.3887,487,726.3887,497,730.3887,493,726.3887" style="stroke: #A80036; stroke-width: 1.0;"/><line style="stroke: #A80036; stroke-width: 1.0;" x1="491" x2="809" y1="726.3887" y2="726.3887"/><text fill="#000000" font-family="sans-serif" font-size="13" font-weight="bold" lengthAdjust="spacingAndGlyphs" textLength="18" x="503" y="721.957">17</text><text fill="#000000" font-family="sans-serif" font-size="13" lengthAdjust="spacingAndGlyphs" textLength="37" x="525" y="721.957">Ready</text><polygon fill="#A80036" points="905.5,751.6992,915.5,755.6992,905.5,759.6992,909.5,755.6992" style="stroke: #A80036; stroke-width: 1.0;"/><line style="stroke: #A80036; stroke-width: 1.0;" x1="486" x2="911.5" y1="755.6992" y2="755.6992"/><text fill="#000000" font-family="sans-serif" font-size="13" font-weight="bold" lengthAdjust="spacingAndGlyphs" textLength="18" x="493" y="751.2676">18</text><text fill="#000000" font-family="sans-serif" font-size="13" lengthAdjust="spacingAndGlyphs" textLength="303" x="515" y="751.2676">Drop Creds for user@domain AS admin@domain</text><polygon fill="#A80036" points="905.5,781.0098,915.5,785.0098,905.5,789.0098,909.5,785.0098" style="stroke: #A80036; stroke-width: 1.0;"/><line style="stroke: #A80036; stroke-width: 1.0;" x1="486" x2="911.5" y1="785.0098" y2="785.0098"/><text fill="#000000" font-family="sans-serif" font-size="13" font-weight="bold" lengthAdjust="spacingAndGlyphs" textLength="18" x="493" y="780.5781">19</text><text fill="#000000" font-family="sans-serif" font-size="13" lengthAdjust="spacingAndGlyphs" textLength="325" x="515" y="780.5781">Drop Creds for user+...@domain AS admin@domain</text><polygon fill="#A80036" points="905.5,810.3203,915.5,814.3203,905.5,818.3203,909.5,814.3203" style="stroke: #A80036; stroke-width: 1.0;"/><line style="stroke: #A80036; stroke-width: 1.0;" x1="486" x2="911.5" y1="814.3203" y2="814.3203"/><text fill="#000000" font-family="sans-serif" font-size="13" font-weight="bold" lengthAdjust="spacingAndGlyphs" textLength="18" x="493" y="809.8887">20</text><text fill="#000000" font-family="sans-serif" font-size="13" lengthAdjust="spacingAndGlyphs" textLength="259" x="515" y="809.8887">Drop pkcs11:xxx;y;zz AS admin@domain</text><polygon fill="#A80036" points="905.5,839.6309,915.5,843.6309,905.5,847.6309,909.5,843.6309" style="stroke: #A80036; stroke-width: 1.0;"/><line style="stroke: #A80036; stroke-width: 1.0;" x1="486" x2="911.5" y1="843.6309" y2="843.6309"/><text fill="#000000" font-family="sans-serif" font-size="13" font-weight="bold" lengthAdjust="spacingAndGlyphs" textLength="18" x="493" y="839.1992">21</text><text fill="#000000" font-family="sans-serif" font-size="13" lengthAdjust="spacingAndGlyphs" textLength="241" x="515" y="839.1992">Drop user@domain AS admin@domain</text><polygon fill="#A80036" points="905.5,868.9414,915.5,872.9414,905.5,876.9414,909.5,872.9414" style="stroke: #A80036; stroke-width: 1.0;"/><line style="stroke: #A80036; stroke-width: 1.0;" x1="486" x2="911.5" y1="872.9414" y2="872.9414"/><text fill="#000000" font-family="sans-serif" font-size="13" font-weight="bold" lengthAdjust="spacingAndGlyphs" textLength="18" x="493" y="868.5098">22</text><text fill="#000000" font-family="sans-serif" font-size="13" lengthAdjust="spacingAndGlyphs" textLength="263" x="515" y="868.5098">Drop user+...@domain AS admin@domain</text><polygon fill="#0000FF" points="954,903.252,964,907.252,954,911.252,958,907.252" style="stroke: #0000FF; stroke-width: 1.0;"/><line style="stroke: #0000FF; stroke-width: 1.0; stroke-dasharray: 2.0,2.0;" x1="486" x2="960" y1="907.252" y2="907.252"/><text fill="#000000" font-family="sans-serif" font-size="13" font-weight="bold" lengthAdjust="spacingAndGlyphs" textLength="18" x="493" y="902.8203">23</text><text fill="#000000" font-family="sans-serif" font-size="13" lengthAdjust="spacingAndGlyphs" textLength="238" x="515" y="902.8203">Drop TLSA records AS admin@domain</text><polygon fill="#FBFB77" filter="url(#frz20u6)" points="323,886.252,323,911.252,467,911.252,467,896.252,457,886.252,323,886.252" style="stroke: #A80036; stroke-width: 1.0;"/><line style="stroke: #A80036; stroke-width: 1.0;" x1="457" x2="457" y1="886.252" y2="896.252"/><line style="stroke: #A80036; stroke-width: 1.0;" x1="467" x2="457" y1="896.252" y2="896.252"/><text fill="#0000FF" font-family="sans-serif" font-size="13" lengthAdjust="spacingAndGlyphs" textLength="123" x="329" y="903.8203">TLSA only for hosts</text><polygon fill="#0000FF" points="497,937.5625,487,941.5625,497,945.5625,493,941.5625" style="stroke: #0000FF; stroke-width: 1.0;"/><line style="stroke: #0000FF; stroke-width: 1.0; stroke-dasharray: 2.0,2.0;" x1="491" x2="970" y1="941.5625" y2="941.5625"/><text fill="#000000" font-family="sans-serif" font-size="13" font-weight="bold" lengthAdjust="spacingAndGlyphs" textLength="18" x="503" y="937.1309">24</text><text fill="#000000" font-family="sans-serif" font-size="13" lengthAdjust="spacingAndGlyphs" textLength="48" x="525" y="937.1309">Queued</text><polygon fill="#A80036" points="497,966.873,487,970.873,497,974.873,493,970.873" style="stroke: #A80036; stroke-width: 1.0;"/><line style="stroke: #A80036; stroke-width: 1.0;" x1="491" x2="921.5" y1="970.873" y2="970.873"/><text fill="#000000" font-family="sans-serif" font-size="13" font-weight="bold" lengthAdjust="spacingAndGlyphs" textLength="18" x="503" y="966.4414">25</text><text fill="#000000" font-family="sans-serif" font-size="13" lengthAdjust="spacingAndGlyphs" textLength="37" x="525" y="966.4414">Ready</text><polygon fill="#A80036" points="648,996.1836,658,1000.1836,648,1004.1836,652,1000.1836" style="stroke: #A80036; stroke-width: 1.0;"/><line style="stroke: #A80036; stroke-width: 1.0;" x1="486" x2="654" y1="1000.1836" y2="1000.1836"/><text fill="#000000" font-family="sans-serif" font-size="13" font-weight="bold" lengthAdjust="spacingAndGlyphs" textLength="18" x="493" y="995.752">26</text><text fill="#000000" font-family="sans-serif" font-size="13" lengthAdjust="spacingAndGlyphs" textLength="74" x="515" y="995.752">Cache hints</text></g></svg>