<?xml version="1.0" encoding="UTF-8" standalone="no"?><svg xmlns="http://www.w3.org/2000/svg" xmlns:xlink="http://www.w3.org/1999/xlink" contentScriptType="application/ecmascript" contentStyleType="text/css" height="996px" preserveAspectRatio="none" style="width:1015px;height:996px;" version="1.1" viewBox="0 0 1015 996" width="1015px" zoomAndPan="magnify"><defs><filter height="300%" id="femgazw" width="300%" x="-1" y="-1"><feGaussianBlur result="blurOut" stdDeviation="2.0"/><feColorMatrix in="blurOut" result="blurOut2" type="matrix" values="0 0 0 0 0 0 0 0 0 0 0 0 0 0 0 0 0 0 .4 0"/><feOffset dx="4.0" dy="4.0" in="blurOut2" result="blurOut3"/><feBlend in="SourceGraphic" in2="blurOut3" mode="normal"/></filter></defs><g><rect fill="#FFFFFF" filter="url(#femgazw)" height="58.6211" style="stroke: #A80036; stroke-width: 1.0;" width="10" x="80" y="117.4883"/><rect fill="#FFFFFF" filter="url(#femgazw)" height="343.416" style="stroke: #A80036; stroke-width: 1.0;" width="10" x="273" y="96.4883"/><rect fill="#FFFFFF" filter="url(#femgazw)" height="511.9688" style="stroke: #A80036; stroke-width: 1.0;" width="10" x="481" y="381.2832"/><rect fill="#FFFFFF" filter="url(#femgazw)" height="28" style="stroke: #A80036; stroke-width: 1.0;" width="10" x="486" y="682.3887"/><rect fill="#FFFFFF" filter="url(#femgazw)" height="58.6211" style="stroke: #A80036; stroke-width: 1.0;" width="10" x="720" y="176.1094"/><rect fill="#FFFFFF" filter="url(#femgazw)" height="175.8633" style="stroke: #A80036; stroke-width: 1.0;" width="10" x="824" y="469.2148"/><rect fill="#FFFFFF" filter="url(#femgazw)" height="87.9316" style="stroke: #A80036; stroke-width: 1.0;" width="10" x="888" y="439.9043"/><rect fill="#FFFFFF" filter="url(#femgazw)" height="117.2422" style="stroke: #A80036; stroke-width: 1.0;" width="10" x="936.5" y="234.7305"/><rect fill="#FFFFFF" filter="url(#femgazw)" height="210.8633" style="stroke: #A80036; stroke-width: 1.0;" width="10" x="936.5" y="682.3887"/><rect fill="#FFFFFF" filter="url(#femgazw)" height="58.6211" style="stroke: #A80036; stroke-width: 1.0;" width="10" x="985" y="805.3203"/><line style="stroke: #A80036; stroke-width: 1.0; stroke-dasharray: 5.0,5.0;" x1="26" x2="26" y1="86.4883" y2="911.5625"/><line style="stroke: #A80036; stroke-width: 1.0; stroke-dasharray: 5.0,5.0;" x1="85" x2="85" y1="86.4883" y2="911.5625"/><line style="stroke: #A80036; stroke-width: 1.0; stroke-dasharray: 5.0,5.0;" x1="277.5" x2="277.5" y1="86.4883" y2="911.5625"/><line style="stroke: #A80036; stroke-width: 1.0; stroke-dasharray: 5.0,5.0;" x1="486" x2="486" y1="86.4883" y2="911.5625"/><line style="stroke: #A80036; stroke-width: 1.0; stroke-dasharray: 5.0,5.0;" x1="724.5" x2="724.5" y1="86.4883" y2="911.5625"/><line style="stroke: #A80036; stroke-width: 1.0; stroke-dasharray: 5.0,5.0;" x1="829" x2="829" y1="86.4883" y2="911.5625"/><line style="stroke: #A80036; stroke-width: 1.0; stroke-dasharray: 5.0,5.0;" x1="893" x2="893" y1="86.4883" y2="911.5625"/><line style="stroke: #A80036; stroke-width: 1.0; stroke-dasharray: 5.0,5.0;" x1="941" x2="941" y1="86.4883" y2="911.5625"/><line style="stroke: #A80036; stroke-width: 1.0; stroke-dasharray: 5.0,5.0;" x1="990" x2="990" y1="86.4883" y2="911.5625"/><text fill="#000000" font-family="sans-serif" font-size="14" lengthAdjust="spacingAndGlyphs" textLength="31" x="8" y="83.5352">User</text><ellipse cx="26.5" cy="13" fill="#FEFECE" filter="url(#femgazw)" rx="8" ry="8" style="stroke: #A80036; stroke-width: 2.0;"/><path d="M26.5,21 L26.5,48 M13.5,29 L39.5,29 M26.5,48 L13.5,63 M26.5,48 L39.5,63 " fill="#FEFECE" filter="url(#femgazw)" style="stroke: #A80036; stroke-width: 2.0;"/><text fill="#000000" font-family="sans-serif" font-size="14" lengthAdjust="spacingAndGlyphs" textLength="31" x="8" y="924.0977">User</text><ellipse cx="26.5" cy="937.0508" fill="#FEFECE" filter="url(#femgazw)" rx="8" ry="8" style="stroke: #A80036; stroke-width: 2.0;"/><path d="M26.5,945.0508 L26.5,972.0508 M13.5,953.0508 L39.5,953.0508 M26.5,972.0508 L13.5,987.0508 M26.5,972.0508 L39.5,987.0508 " fill="#FEFECE" filter="url(#femgazw)" style="stroke: #A80036; stroke-width: 2.0;"/><rect fill="#FEFECE" filter="url(#femgazw)" height="30.4883" style="stroke: #A80036; stroke-width: 1.5;" width="56" x="55" y="51"/><text fill="#000000" font-family="sans-serif" font-size="14" lengthAdjust="spacingAndGlyphs" textLength="42" x="62" y="71.5352">Authn</text><rect fill="#FEFECE" filter="url(#femgazw)" height="30.4883" style="stroke: #A80036; stroke-width: 1.5;" width="56" x="55" y="910.5625"/><text fill="#000000" font-family="sans-serif" font-size="14" lengthAdjust="spacingAndGlyphs" textLength="42" x="62" y="931.0977">Authn</text><rect fill="#FEFECE" filter="url(#femgazw)" height="30.4883" style="stroke: #A80036; stroke-width: 1.5;" width="111" x="220.5" y="51"/><text fill="#000000" font-family="sans-serif" font-size="14" lengthAdjust="spacingAndGlyphs" textLength="97" x="227.5" y="71.5352">IdHub Control</text><rect fill="#FEFECE" filter="url(#femgazw)" height="30.4883" style="stroke: #A80036; stroke-width: 1.5;" width="111" x="220.5" y="910.5625"/><text fill="#000000" font-family="sans-serif" font-size="14" lengthAdjust="spacingAndGlyphs" textLength="97" x="227.5" y="931.0977">IdHub Control</text><rect fill="#FEFECE" filter="url(#femgazw)" height="30.4883" style="stroke: #A80036; stroke-width: 1.5;" width="102" x="433" y="51"/><text fill="#000000" font-family="sans-serif" font-size="14" lengthAdjust="spacingAndGlyphs" textLength="88" x="440" y="71.5352">Key Manager</text><rect fill="#FEFECE" filter="url(#femgazw)" height="30.4883" style="stroke: #A80036; stroke-width: 1.5;" width="102" x="433" y="910.5625"/><text fill="#000000" font-family="sans-serif" font-size="14" lengthAdjust="spacingAndGlyphs" textLength="88" x="440" y="931.0977">Key Manager</text><rect fill="#FEFECE" filter="url(#femgazw)" height="30.4883" style="stroke: #A80036; stroke-width: 1.5;" width="55" x="695.5" y="51"/><text fill="#000000" font-family="sans-serif" font-size="14" lengthAdjust="spacingAndGlyphs" textLength="41" x="702.5" y="71.5352">Authz</text><rect fill="#FEFECE" filter="url(#femgazw)" height="30.4883" style="stroke: #A80036; stroke-width: 1.5;" width="55" x="695.5" y="910.5625"/><text fill="#000000" font-family="sans-serif" font-size="14" lengthAdjust="spacingAndGlyphs" textLength="41" x="702.5" y="931.0977">Authz</text><text fill="#000000" font-family="sans-serif" font-size="14" lengthAdjust="spacingAndGlyphs" textLength="66" x="793" y="83.5352">PKCS #11</text><path d="M811,34 C811,24 829,24 829,24 C829,24 847,24 847,34 L847,60 C847,70 829,70 829,70 C829,70 811,70 811,60 L811,34 " fill="#FEFECE" filter="url(#femgazw)" style="stroke: #000000; stroke-width: 1.5;"/><path d="M811,34 C811,44 829,44 829,44 C829,44 847,44 847,34 " fill="none" style="stroke: #000000; stroke-width: 1.5;"/><text fill="#000000" font-family="sans-serif" font-size="14" lengthAdjust="spacingAndGlyphs" textLength="66" x="793" y="924.0977">PKCS #11</text><path d="M811,937.0508 C811,927.0508 829,927.0508 829,927.0508 C829,927.0508 847,927.0508 847,937.0508 L847,963.0508 C847,973.0508 829,973.0508 829,973.0508 C829,973.0508 811,973.0508 811,963.0508 L811,937.0508 " fill="#FEFECE" filter="url(#femgazw)" style="stroke: #000000; stroke-width: 1.5;"/><path d="M811,937.0508 C811,947.0508 829,947.0508 829,947.0508 C829,947.0508 847,947.0508 847,937.0508 " fill="none" style="stroke: #000000; stroke-width: 1.5;"/><text fill="#000000" font-family="sans-serif" font-size="14" lengthAdjust="spacingAndGlyphs" textLength="29" x="875.5" y="83.5352">KDC</text><path d="M875,34 C875,24 893,24 893,24 C893,24 911,24 911,34 L911,60 C911,70 893,70 893,70 C893,70 875,70 875,60 L875,34 " fill="#FEFECE" filter="url(#femgazw)" style="stroke: #000000; stroke-width: 1.5;"/><path d="M875,34 C875,44 893,44 893,44 C893,44 911,44 911,34 " fill="none" style="stroke: #000000; stroke-width: 1.5;"/><text fill="#000000" font-family="sans-serif" font-size="14" lengthAdjust="spacingAndGlyphs" textLength="29" x="875.5" y="924.0977">KDC</text><path d="M875,937.0508 C875,927.0508 893,927.0508 893,927.0508 C893,927.0508 911,927.0508 911,937.0508 L911,963.0508 C911,973.0508 893,973.0508 893,973.0508 C893,973.0508 875,973.0508 875,963.0508 L875,937.0508 " fill="#FEFECE" filter="url(#femgazw)" style="stroke: #000000; stroke-width: 1.5;"/><path d="M875,937.0508 C875,947.0508 893,947.0508 893,947.0508 C893,947.0508 911,947.0508 911,937.0508 " fill="none" style="stroke: #000000; stroke-width: 1.5;"/><text fill="#000000" font-family="sans-serif" font-size="14" lengthAdjust="spacingAndGlyphs" textLength="35" x="921" y="83.5352">LDAP</text><path d="M923.5,34 C923.5,24 941.5,24 941.5,24 C941.5,24 959.5,24 959.5,34 L959.5,60 C959.5,70 941.5,70 941.5,70 C941.5,70 923.5,70 923.5,60 L923.5,34 " fill="#FEFECE" filter="url(#femgazw)" style="stroke: #000000; stroke-width: 1.5;"/><path d="M923.5,34 C923.5,44 941.5,44 941.5,44 C941.5,44 959.5,44 959.5,34 " fill="none" style="stroke: #000000; stroke-width: 1.5;"/><text fill="#000000" font-family="sans-serif" font-size="14" lengthAdjust="spacingAndGlyphs" textLength="35" x="921" y="924.0977">LDAP</text><path d="M923.5,937.0508 C923.5,927.0508 941.5,927.0508 941.5,927.0508 C941.5,927.0508 959.5,927.0508 959.5,937.0508 L959.5,963.0508 C959.5,973.0508 941.5,973.0508 941.5,973.0508 C941.5,973.0508 923.5,973.0508 923.5,963.0508 L923.5,937.0508 " fill="#FEFECE" filter="url(#femgazw)" style="stroke: #000000; stroke-width: 1.5;"/><path d="M923.5,937.0508 C923.5,947.0508 941.5,947.0508 941.5,947.0508 C941.5,947.0508 959.5,947.0508 959.5,937.0508 " fill="none" style="stroke: #000000; stroke-width: 1.5;"/><text fill="#000000" font-family="sans-serif" font-size="14" lengthAdjust="spacingAndGlyphs" textLength="28" x="973" y="83.5352">DNS</text><path d="M972,34 C972,24 990,24 990,24 C990,24 1008,24 1008,34 L1008,60 C1008,70 990,70 990,70 C990,70 972,70 972,60 L972,34 " fill="#FEFECE" filter="url(#femgazw)" style="stroke: #000000; stroke-width: 1.5;"/><path d="M972,34 C972,44 990,44 990,44 C990,44 1008,44 1008,34 " fill="none" style="stroke: #000000; stroke-width: 1.5;"/><text fill="#000000" font-family="sans-serif" font-size="14" lengthAdjust="spacingAndGlyphs" textLength="28" x="973" y="924.0977">DNS</text><path d="M972,937.0508 C972,927.0508 990,927.0508 990,927.0508 C990,927.0508 1008,927.0508 1008,937.0508 L1008,963.0508 C1008,973.0508 990,973.0508 990,973.0508 C990,973.0508 972,973.0508 972,963.0508 L972,937.0508 " fill="#FEFECE" filter="url(#femgazw)" style="stroke: #000000; stroke-width: 1.5;"/><path d="M972,937.0508 C972,947.0508 990,947.0508 990,947.0508 C990,947.0508 1008,947.0508 1008,937.0508 " fill="none" style="stroke: #000000; stroke-width: 1.5;"/><rect fill="#FFFFFF" filter="url(#femgazw)" height="58.6211" style="stroke: #A80036; stroke-width: 1.0;" width="10" x="80" y="117.4883"/><rect fill="#FFFFFF" filter="url(#femgazw)" height="343.416" style="stroke: #A80036; stroke-width: 1.0;" width="10" x="273" y="96.4883"/><rect fill="#FFFFFF" filter="url(#femgazw)" height="511.9688" style="stroke: #A80036; stroke-width: 1.0;" width="10" x="481" y="381.2832"/><rect fill="#FFFFFF" filter="url(#femgazw)" height="28" style="stroke: #A80036; stroke-width: 1.0;" width="10" x="486" y="682.3887"/><rect fill="#FFFFFF" filter="url(#femgazw)" height="58.6211" style="stroke: #A80036; stroke-width: 1.0;" width="10" x="720" y="176.1094"/><rect fill="#FFFFFF" filter="url(#femgazw)" height="175.8633" style="stroke: #A80036; stroke-width: 1.0;" width="10" x="824" y="469.2148"/><rect fill="#FFFFFF" filter="url(#femgazw)" height="87.9316" style="stroke: #A80036; stroke-width: 1.0;" width="10" x="888" y="439.9043"/><rect fill="#FFFFFF" filter="url(#femgazw)" height="117.2422" style="stroke: #A80036; stroke-width: 1.0;" width="10" x="936.5" y="234.7305"/><rect fill="#FFFFFF" filter="url(#femgazw)" height="210.8633" style="stroke: #A80036; stroke-width: 1.0;" width="10" x="936.5" y="682.3887"/><rect fill="#FFFFFF" filter="url(#femgazw)" height="58.6211" style="stroke: #A80036; stroke-width: 1.0;" width="10" x="985" y="805.3203"/><polygon fill="#A80036" points="261,113.4883,271,117.4883,261,121.4883,265,117.4883" style="stroke: #A80036; stroke-width: 1.0;"/><line style="stroke: #A80036; stroke-width: 1.0;" x1="26.5" x2="267" y1="117.4883" y2="117.4883"/><text fill="#000000" font-family="sans-serif" font-size="13" font-weight="bold" lengthAdjust="spacingAndGlyphs" textLength="9" x="33.5" y="113.0566">1</text><text fill="#000000" font-family="sans-serif" font-size="13" lengthAdjust="spacingAndGlyphs" textLength="146" x="46.5" y="113.0566">User Add user@domain</text><polygon fill="#A80036" points="101,142.7988,91,146.7988,101,150.7988,97,146.7988" style="stroke: #A80036; stroke-width: 1.0;"/><line style="stroke: #A80036; stroke-width: 1.0;" x1="95" x2="272" y1="146.7988" y2="146.7988"/><text fill="#000000" font-family="sans-serif" font-size="13" font-weight="bold" lengthAdjust="spacingAndGlyphs" textLength="9" x="107" y="142.3672">2</text><text fill="#000000" font-family="sans-serif" font-size="13" lengthAdjust="spacingAndGlyphs" textLength="136" x="120" y="142.3672">SecureLayer @domain</text><polygon fill="#A80036" points="261,172.1094,271,176.1094,261,180.1094,265,176.1094" style="stroke: #A80036; stroke-width: 1.0;"/><line style="stroke: #A80036; stroke-width: 1.0;" x1="85" x2="267" y1="176.1094" y2="176.1094"/><text fill="#000000" font-family="sans-serif" font-size="13" font-weight="bold" lengthAdjust="spacingAndGlyphs" textLength="9" x="92" y="171.6777">3</text><text fill="#000000" font-family="sans-serif" font-size="13" lengthAdjust="spacingAndGlyphs" textLength="146" x="105" y="171.6777">RemoteID you@domain</text><polygon fill="#A80036" points="708,201.4199,718,205.4199,708,209.4199,712,205.4199" style="stroke: #A80036; stroke-width: 1.0;"/><line style="stroke: #A80036; stroke-width: 1.0;" x1="283" x2="714" y1="205.4199" y2="205.4199"/><text fill="#000000" font-family="sans-serif" font-size="13" font-weight="bold" lengthAdjust="spacingAndGlyphs" textLength="9" x="290" y="200.9883">4</text><text fill="#000000" font-family="sans-serif" font-size="13" lengthAdjust="spacingAndGlyphs" textLength="318" x="303" y="200.9883">WANT userid-create ON @domain AS you@domain</text><polygon fill="#A80036" points="294,230.7305,284,234.7305,294,238.7305,290,234.7305" style="stroke: #A80036; stroke-width: 1.0;"/><line style="stroke: #A80036; stroke-width: 1.0;" x1="288" x2="724" y1="234.7305" y2="234.7305"/><text fill="#000000" font-family="sans-serif" font-size="13" font-weight="bold" lengthAdjust="spacingAndGlyphs" textLength="9" x="300" y="230.2988">5</text><text fill="#000000" font-family="sans-serif" font-size="13" lengthAdjust="spacingAndGlyphs" textLength="148" x="313" y="230.2988">OK FOR admin@domain</text><polygon fill="#A80036" points="924.5,260.041,934.5,264.041,924.5,268.041,928.5,264.041" style="stroke: #A80036; stroke-width: 1.0;"/><line style="stroke: #A80036; stroke-width: 1.0;" x1="283" x2="930.5" y1="264.041" y2="264.041"/><text fill="#000000" font-family="sans-serif" font-size="13" font-weight="bold" lengthAdjust="spacingAndGlyphs" textLength="9" x="290" y="259.6094">6</text><text fill="#000000" font-family="sans-serif" font-size="13" lengthAdjust="spacingAndGlyphs" textLength="251" x="303" y="259.6094">Search user@domain AS admin@domain</text><polygon fill="#0000FF" points="294,289.3516,284,293.3516,294,297.3516,290,293.3516" style="stroke: #0000FF; stroke-width: 1.0;"/><line style="stroke: #0000FF; stroke-width: 1.0; stroke-dasharray: 2.0,2.0;" x1="288" x2="935.5" y1="293.3516" y2="293.3516"/><text fill="#000000" font-family="sans-serif" font-size="13" font-weight="bold" lengthAdjust="spacingAndGlyphs" textLength="9" x="300" y="288.9199">7</text><text fill="#000000" font-family="sans-serif" font-size="13" lengthAdjust="spacingAndGlyphs" textLength="85" x="313" y="288.9199">UserID Found</text><polygon fill="#0000FF" points="37.5,318.6621,27.5,322.6621,37.5,326.6621,33.5,322.6621" style="stroke: #0000FF; stroke-width: 1.0;"/><line style="stroke: #0000FF; stroke-width: 1.0; stroke-dasharray: 2.0,2.0;" x1="31.5" x2="272" y1="322.6621" y2="322.6621"/><text fill="#000000" font-family="sans-serif" font-size="13" font-weight="bold" lengthAdjust="spacingAndGlyphs" textLength="9" x="43.5" y="318.2305">8</text><text fill="#000000" font-family="sans-serif" font-size="13" lengthAdjust="spacingAndGlyphs" textLength="89" x="56.5" y="318.2305">Already Exists</text><polygon fill="#A80036" points="294,347.9727,284,351.9727,294,355.9727,290,351.9727" style="stroke: #A80036; stroke-width: 1.0;"/><line style="stroke: #A80036; stroke-width: 1.0;" x1="288" x2="940.5" y1="351.9727" y2="351.9727"/><text fill="#000000" font-family="sans-serif" font-size="13" font-weight="bold" lengthAdjust="spacingAndGlyphs" textLength="9" x="300" y="347.541">9</text><text fill="#000000" font-family="sans-serif" font-size="13" lengthAdjust="spacingAndGlyphs" textLength="112" x="313" y="347.541">UserID Not Found</text><polygon fill="#A80036" points="37.5,377.2832,27.5,381.2832,37.5,385.2832,33.5,381.2832" style="stroke: #A80036; stroke-width: 1.0;"/><line style="stroke: #A80036; stroke-width: 1.0;" x1="31.5" x2="272" y1="381.2832" y2="381.2832"/><text fill="#000000" font-family="sans-serif" font-size="13" font-weight="bold" lengthAdjust="spacingAndGlyphs" textLength="18" x="43.5" y="376.8516">10</text><text fill="#000000" font-family="sans-serif" font-size="13" lengthAdjust="spacingAndGlyphs" textLength="48" x="65.5" y="376.8516">Queued</text><polygon fill="#A80036" points="469,406.5938,479,410.5938,469,414.5938,473,410.5938" style="stroke: #A80036; stroke-width: 1.0;"/><line style="stroke: #A80036; stroke-width: 1.0;" x1="283" x2="475" y1="410.5938" y2="410.5938"/><text fill="#000000" font-family="sans-serif" font-size="13" font-weight="bold" lengthAdjust="spacingAndGlyphs" textLength="18" x="290" y="406.1621">11</text><text fill="#000000" font-family="sans-serif" font-size="13" lengthAdjust="spacingAndGlyphs" textLength="152" x="312" y="406.1621">Have User user@domain</text><polygon fill="#A80036" points="289,435.9043,279,439.9043,289,443.9043,285,439.9043" style="stroke: #A80036; stroke-width: 1.0;"/><line style="stroke: #A80036; stroke-width: 1.0;" x1="283" x2="480" y1="439.9043" y2="439.9043"/><text fill="#000000" font-family="sans-serif" font-size="13" font-weight="bold" lengthAdjust="spacingAndGlyphs" textLength="18" x="295" y="435.4727">12</text><text fill="#000000" font-family="sans-serif" font-size="13" lengthAdjust="spacingAndGlyphs" textLength="48" x="317" y="435.4727">Queued</text><polygon fill="#A80036" points="876,465.2148,886,469.2148,876,473.2148,880,469.2148" style="stroke: #A80036; stroke-width: 1.0;"/><line style="stroke: #A80036; stroke-width: 1.0;" x1="491" x2="882" y1="469.2148" y2="469.2148"/><text fill="#000000" font-family="sans-serif" font-size="13" font-weight="bold" lengthAdjust="spacingAndGlyphs" textLength="18" x="498" y="464.7832">13</text><text fill="#000000" font-family="sans-serif" font-size="13" lengthAdjust="spacingAndGlyphs" textLength="178" x="520" y="464.7832">Have Principal user@domain</text><polygon fill="#A80036" points="812,494.5254,822,498.5254,812,502.5254,816,498.5254" style="stroke: #A80036; stroke-width: 1.0;"/><line style="stroke: #A80036; stroke-width: 1.0;" x1="491" x2="818" y1="498.5254" y2="498.5254"/><text fill="#000000" font-family="sans-serif" font-size="13" font-weight="bold" lengthAdjust="spacingAndGlyphs" textLength="18" x="498" y="494.0938">14</text><text fill="#000000" font-family="sans-serif" font-size="13" lengthAdjust="spacingAndGlyphs" textLength="287" x="520" y="494.0938">Have Layer user@domain FOR admin@domain</text><polygon fill="#A80036" points="502,523.8359,492,527.8359,502,531.8359,498,527.8359" style="stroke: #A80036; stroke-width: 1.0;"/><line style="stroke: #A80036; stroke-width: 1.0;" x1="496" x2="892" y1="527.8359" y2="527.8359"/><text fill="#000000" font-family="sans-serif" font-size="13" font-weight="bold" lengthAdjust="spacingAndGlyphs" textLength="18" x="508" y="523.4043">15</text><text fill="#000000" font-family="sans-serif" font-size="13" lengthAdjust="spacingAndGlyphs" textLength="18" x="530" y="523.4043">OK</text><polygon fill="#A80036" points="812,553.1465,822,557.1465,812,561.1465,816,557.1465" style="stroke: #A80036; stroke-width: 1.0;"/><line style="stroke: #A80036; stroke-width: 1.0;" x1="491" x2="818" y1="557.1465" y2="557.1465"/><text fill="#000000" font-family="sans-serif" font-size="13" font-weight="bold" lengthAdjust="spacingAndGlyphs" textLength="18" x="498" y="552.7148">16</text><text fill="#000000" font-family="sans-serif" font-size="13" lengthAdjust="spacingAndGlyphs" textLength="153" x="520" y="552.7148">Have Keys user@domain</text><polygon fill="#A80036" points="502,582.457,492,586.457,502,590.457,498,586.457" style="stroke: #A80036; stroke-width: 1.0;"/><line style="stroke: #A80036; stroke-width: 1.0;" x1="496" x2="823" y1="586.457" y2="586.457"/><text fill="#000000" font-family="sans-serif" font-size="13" font-weight="bold" lengthAdjust="spacingAndGlyphs" textLength="18" x="508" y="582.0254">17</text><text fill="#000000" font-family="sans-serif" font-size="13" lengthAdjust="spacingAndGlyphs" textLength="140" x="530" y="582.0254">Made pkcs11:xxx;y;zz</text><polygon fill="#A80036" points="812,611.7676,822,615.7676,812,619.7676,816,615.7676" style="stroke: #A80036; stroke-width: 1.0;"/><line style="stroke: #A80036; stroke-width: 1.0;" x1="491" x2="818" y1="615.7676" y2="615.7676"/><text fill="#000000" font-family="sans-serif" font-size="13" font-weight="bold" lengthAdjust="spacingAndGlyphs" textLength="18" x="498" y="611.3359">18</text><text fill="#000000" font-family="sans-serif" font-size="13" lengthAdjust="spacingAndGlyphs" textLength="139" x="520" y="611.3359">Retrieve user@domain</text><polygon fill="#A80036" points="502,641.0781,492,645.0781,502,649.0781,498,645.0781" style="stroke: #A80036; stroke-width: 1.0;"/><line style="stroke: #A80036; stroke-width: 1.0;" x1="496" x2="828" y1="645.0781" y2="645.0781"/><text fill="#000000" font-family="sans-serif" font-size="13" font-weight="bold" lengthAdjust="spacingAndGlyphs" textLength="18" x="508" y="640.6465">19</text><text fill="#000000" font-family="sans-serif" font-size="13" lengthAdjust="spacingAndGlyphs" textLength="136" x="530" y="640.6465">PubKey MIIEVzCCAz...</text><line style="stroke: #A80036; stroke-width: 1.0;" x1="496" x2="538" y1="674.6992" y2="674.6992"/><line style="stroke: #A80036; stroke-width: 1.0;" x1="538" x2="538" y1="674.6992" y2="687.6992"/><line style="stroke: #A80036; stroke-width: 1.0;" x1="497" x2="538" y1="687.6992" y2="687.6992"/><polygon fill="#A80036" points="507,683.6992,497,687.6992,507,691.6992,503,687.6992" style="stroke: #A80036; stroke-width: 1.0;"/><text fill="#000000" font-family="sans-serif" font-size="13" font-weight="bold" lengthAdjust="spacingAndGlyphs" textLength="18" x="503" y="669.957">20</text><text fill="#000000" font-family="sans-serif" font-size="13" lengthAdjust="spacingAndGlyphs" textLength="193" x="525" y="669.957">PubKey MIIEVzCCAz... to Creds</text><polygon fill="#A80036" points="924.5,742.6992,934.5,746.6992,924.5,750.6992,928.5,746.6992" style="stroke: #A80036; stroke-width: 1.0;"/><line style="stroke: #A80036; stroke-width: 1.0;" x1="491" x2="930.5" y1="746.6992" y2="746.6992"/><text fill="#000000" font-family="sans-serif" font-size="13" font-weight="bold" lengthAdjust="spacingAndGlyphs" textLength="18" x="498" y="742.2676">21</text><text fill="#000000" font-family="sans-serif" font-size="13" lengthAdjust="spacingAndGlyphs" textLength="303" x="520" y="742.2676">Have user@domain XS public AS admin@domain</text><polygon fill="#A80036" points="924.5,772.0098,934.5,776.0098,924.5,780.0098,928.5,776.0098" style="stroke: #A80036; stroke-width: 1.0;"/><line style="stroke: #A80036; stroke-width: 1.0;" x1="491" x2="930.5" y1="776.0098" y2="776.0098"/><text fill="#000000" font-family="sans-serif" font-size="13" font-weight="bold" lengthAdjust="spacingAndGlyphs" textLength="18" x="498" y="771.5781">22</text><text fill="#000000" font-family="sans-serif" font-size="13" lengthAdjust="spacingAndGlyphs" textLength="365" x="520" y="771.5781">Have Creds for user@domain XS public AS admin@domain</text><polygon fill="#A80036" points="924.5,801.3203,934.5,805.3203,924.5,809.3203,928.5,805.3203" style="stroke: #A80036; stroke-width: 1.0;"/><line style="stroke: #A80036; stroke-width: 1.0;" x1="491" x2="930.5" y1="805.3203" y2="805.3203"/><text fill="#000000" font-family="sans-serif" font-size="13" font-weight="bold" lengthAdjust="spacingAndGlyphs" textLength="18" x="498" y="800.8887">23</text><text fill="#000000" font-family="sans-serif" font-size="13" lengthAdjust="spacingAndGlyphs" textLength="367" x="520" y="800.8887">Have pkcs11:xxx;y;zz XS user@domain AS admin@domain</text><polygon fill="#0000FF" points="973,830.6309,983,834.6309,973,838.6309,977,834.6309" style="stroke: #0000FF; stroke-width: 1.0;"/><line style="stroke: #0000FF; stroke-width: 1.0; stroke-dasharray: 2.0,2.0;" x1="491" x2="979" y1="834.6309" y2="834.6309"/><text fill="#000000" font-family="sans-serif" font-size="13" font-weight="bold" lengthAdjust="spacingAndGlyphs" textLength="18" x="498" y="830.1992">24</text><text fill="#000000" font-family="sans-serif" font-size="13" lengthAdjust="spacingAndGlyphs" textLength="238" x="520" y="830.1992">Have TLSA records AS admin@domain</text><polygon fill="#0000FF" points="502,859.9414,492,863.9414,502,867.9414,498,863.9414" style="stroke: #0000FF; stroke-width: 1.0;"/><line style="stroke: #0000FF; stroke-width: 1.0; stroke-dasharray: 2.0,2.0;" x1="496" x2="989" y1="863.9414" y2="863.9414"/><text fill="#000000" font-family="sans-serif" font-size="13" font-weight="bold" lengthAdjust="spacingAndGlyphs" textLength="18" x="508" y="859.5098">25</text><text fill="#000000" font-family="sans-serif" font-size="13" lengthAdjust="spacingAndGlyphs" textLength="48" x="530" y="859.5098">Queued</text><polygon fill="#A80036" points="497,889.252,487,893.252,497,897.252,493,893.252" style="stroke: #A80036; stroke-width: 1.0;"/><line style="stroke: #A80036; stroke-width: 1.0;" x1="491" x2="940.5" y1="893.252" y2="893.252"/><text fill="#000000" font-family="sans-serif" font-size="13" font-weight="bold" lengthAdjust="spacingAndGlyphs" textLength="18" x="503" y="888.8203">26</text><text fill="#000000" font-family="sans-serif" font-size="13" lengthAdjust="spacingAndGlyphs" textLength="37" x="525" y="888.8203">Ready</text></g></svg>