<?xml version="1.0" encoding="UTF-8" standalone="no"?><svg xmlns="http://www.w3.org/2000/svg" xmlns:xlink="http://www.w3.org/1999/xlink" contentScriptType="application/ecmascript" contentStyleType="text/css" height="898px" preserveAspectRatio="none" style="width:977px;height:898px;" version="1.1" viewBox="0 0 977 898" width="977px" zoomAndPan="magnify"><defs><filter height="300%" id="fehphyo" width="300%" x="-1" y="-1"><feGaussianBlur result="blurOut" stdDeviation="2.0"/><feColorMatrix in="blurOut" result="blurOut2" type="matrix" values="0 0 0 0 0 0 0 0 0 0 0 0 0 0 0 0 0 0 .4 0"/><feOffset dx="4.0" dy="4.0" in="blurOut2" result="blurOut3"/><feBlend in="SourceGraphic" in2="blurOut3" mode="normal"/></filter></defs><g><rect fill="#FFFFFF" filter="url(#fehphyo)" height="360.416" style="stroke: #A80036; stroke-width: 1.0;" width="10" x="21.5" y="117.4883"/><rect fill="#FFFFFF" filter="url(#fehphyo)" height="29.3105" style="stroke: #A80036; stroke-width: 1.0;" width="10" x="80" y="190.1094"/><rect fill="#FFFFFF" filter="url(#fehphyo)" height="462.3477" style="stroke: #A80036; stroke-width: 1.0;" width="10" x="277" y="117.4883"/><rect fill="#FFFFFF" filter="url(#fehphyo)" height="245.1738" style="stroke: #A80036; stroke-width: 1.0;" width="10" x="505" y="550.5254"/><rect fill="#FFFFFF" filter="url(#fehphyo)" height="29.3105" style="stroke: #A80036; stroke-width: 1.0;" width="10" x="658" y="248.7305"/><rect fill="#FFFFFF" filter="url(#fehphyo)" height="30" style="stroke: #A80036; stroke-width: 1.0;" width="10" x="658" y="765.6992"/><rect fill="#FFFFFF" filter="url(#fehphyo)" height="97.9316" style="stroke: #A80036; stroke-width: 1.0;" width="10" x="942" y="350.6621"/><line style="stroke: #A80036; stroke-width: 1.0; stroke-dasharray: 5.0,5.0;" x1="26" x2="26" y1="86.4883" y2="814.0098"/><line style="stroke: #A80036; stroke-width: 1.0; stroke-dasharray: 5.0,5.0;" x1="85" x2="85" y1="86.4883" y2="814.0098"/><line style="stroke: #A80036; stroke-width: 1.0; stroke-dasharray: 5.0,5.0;" x1="281.5" x2="281.5" y1="86.4883" y2="814.0098"/><line style="stroke: #A80036; stroke-width: 1.0; stroke-dasharray: 5.0,5.0;" x1="510" x2="510" y1="86.4883" y2="814.0098"/><line style="stroke: #A80036; stroke-width: 1.0; stroke-dasharray: 5.0,5.0;" x1="662.5" x2="662.5" y1="86.4883" y2="814.0098"/><line style="stroke: #A80036; stroke-width: 1.0; stroke-dasharray: 5.0,5.0;" x1="946.5" x2="946.5" y1="86.4883" y2="814.0098"/><text fill="#000000" font-family="sans-serif" font-size="14" lengthAdjust="spacingAndGlyphs" textLength="31" x="8" y="83.5352">User</text><ellipse cx="26.5" cy="13" fill="#FEFECE" filter="url(#fehphyo)" rx="8" ry="8" style="stroke: #A80036; stroke-width: 2.0;"/><path d="M26.5,21 L26.5,48 M13.5,29 L39.5,29 M26.5,48 L13.5,63 M26.5,48 L39.5,63 " fill="#FEFECE" filter="url(#fehphyo)" style="stroke: #A80036; stroke-width: 2.0;"/><text fill="#000000" font-family="sans-serif" font-size="14" lengthAdjust="spacingAndGlyphs" textLength="31" x="8" y="826.5449">User</text><ellipse cx="26.5" cy="839.498" fill="#FEFECE" filter="url(#fehphyo)" rx="8" ry="8" style="stroke: #A80036; stroke-width: 2.0;"/><path d="M26.5,847.498 L26.5,874.498 M13.5,855.498 L39.5,855.498 M26.5,874.498 L13.5,889.498 M26.5,874.498 L39.5,889.498 " fill="#FEFECE" filter="url(#fehphyo)" style="stroke: #A80036; stroke-width: 2.0;"/><rect fill="#FEFECE" filter="url(#fehphyo)" height="30.4883" style="stroke: #A80036; stroke-width: 1.5;" width="56" x="55" y="51"/><text fill="#000000" font-family="sans-serif" font-size="14" lengthAdjust="spacingAndGlyphs" textLength="42" x="62" y="71.5352">Authn</text><rect fill="#FEFECE" filter="url(#fehphyo)" height="30.4883" style="stroke: #A80036; stroke-width: 1.5;" width="56" x="55" y="813.0098"/><text fill="#000000" font-family="sans-serif" font-size="14" lengthAdjust="spacingAndGlyphs" textLength="42" x="62" y="833.5449">Authn</text><rect fill="#FEFECE" filter="url(#fehphyo)" height="30.4883" style="stroke: #A80036; stroke-width: 1.5;" width="111" x="224.5" y="51"/><text fill="#000000" font-family="sans-serif" font-size="14" lengthAdjust="spacingAndGlyphs" textLength="97" x="231.5" y="71.5352">IdHub Control</text><rect fill="#FEFECE" filter="url(#fehphyo)" height="30.4883" style="stroke: #A80036; stroke-width: 1.5;" width="111" x="224.5" y="813.0098"/><text fill="#000000" font-family="sans-serif" font-size="14" lengthAdjust="spacingAndGlyphs" textLength="97" x="231.5" y="833.5449">IdHub Control</text><rect fill="#FEFECE" filter="url(#fehphyo)" height="30.4883" style="stroke: #A80036; stroke-width: 1.5;" width="102" x="457" y="51"/><text fill="#000000" font-family="sans-serif" font-size="14" lengthAdjust="spacingAndGlyphs" textLength="88" x="464" y="71.5352">Key Manager</text><rect fill="#FEFECE" filter="url(#fehphyo)" height="30.4883" style="stroke: #A80036; stroke-width: 1.5;" width="102" x="457" y="813.0098"/><text fill="#000000" font-family="sans-serif" font-size="14" lengthAdjust="spacingAndGlyphs" textLength="88" x="464" y="833.5449">Key Manager</text><rect fill="#FEFECE" filter="url(#fehphyo)" height="30.4883" style="stroke: #A80036; stroke-width: 1.5;" width="55" x="633.5" y="51"/><text fill="#000000" font-family="sans-serif" font-size="14" lengthAdjust="spacingAndGlyphs" textLength="41" x="640.5" y="71.5352">Authz</text><rect fill="#FEFECE" filter="url(#fehphyo)" height="30.4883" style="stroke: #A80036; stroke-width: 1.5;" width="55" x="633.5" y="813.0098"/><text fill="#000000" font-family="sans-serif" font-size="14" lengthAdjust="spacingAndGlyphs" textLength="41" x="640.5" y="833.5449">Authz</text><text fill="#000000" font-family="sans-serif" font-size="14" lengthAdjust="spacingAndGlyphs" textLength="35" x="926.5" y="83.5352">LDAP</text><path d="M929,34 C929,24 947,24 947,24 C947,24 965,24 965,34 L965,60 C965,70 947,70 947,70 C947,70 929,70 929,60 L929,34 " fill="#FEFECE" filter="url(#fehphyo)" style="stroke: #000000; stroke-width: 1.5;"/><path d="M929,34 C929,44 947,44 947,44 C947,44 965,44 965,34 " fill="none" style="stroke: #000000; stroke-width: 1.5;"/><text fill="#000000" font-family="sans-serif" font-size="14" lengthAdjust="spacingAndGlyphs" textLength="35" x="926.5" y="826.5449">LDAP</text><path d="M929,839.498 C929,829.498 947,829.498 947,829.498 C947,829.498 965,829.498 965,839.498 L965,865.498 C965,875.498 947,875.498 947,875.498 C947,875.498 929,875.498 929,865.498 L929,839.498 " fill="#FEFECE" filter="url(#fehphyo)" style="stroke: #000000; stroke-width: 1.5;"/><path d="M929,839.498 C929,849.498 947,849.498 947,849.498 C947,849.498 965,849.498 965,839.498 " fill="none" style="stroke: #000000; stroke-width: 1.5;"/><rect fill="#FFFFFF" filter="url(#fehphyo)" height="360.416" style="stroke: #A80036; stroke-width: 1.0;" width="10" x="21.5" y="117.4883"/><rect fill="#FFFFFF" filter="url(#fehphyo)" height="29.3105" style="stroke: #A80036; stroke-width: 1.0;" width="10" x="80" y="190.1094"/><rect fill="#FFFFFF" filter="url(#fehphyo)" height="462.3477" style="stroke: #A80036; stroke-width: 1.0;" width="10" x="277" y="117.4883"/><rect fill="#FFFFFF" filter="url(#fehphyo)" height="245.1738" style="stroke: #A80036; stroke-width: 1.0;" width="10" x="505" y="550.5254"/><rect fill="#FFFFFF" filter="url(#fehphyo)" height="29.3105" style="stroke: #A80036; stroke-width: 1.0;" width="10" x="658" y="248.7305"/><rect fill="#FFFFFF" filter="url(#fehphyo)" height="30" style="stroke: #A80036; stroke-width: 1.0;" width="10" x="658" y="765.6992"/><rect fill="#FFFFFF" filter="url(#fehphyo)" height="97.9316" style="stroke: #A80036; stroke-width: 1.0;" width="10" x="942" y="350.6621"/><polygon fill="#A80036" points="265,113.4883,275,117.4883,265,121.4883,269,117.4883" style="stroke: #A80036; stroke-width: 1.0;"/><line style="stroke: #A80036; stroke-width: 1.0;" x1="31.5" x2="271" y1="117.4883" y2="117.4883"/><text fill="#000000" font-family="sans-serif" font-size="13" font-weight="bold" lengthAdjust="spacingAndGlyphs" textLength="9" x="38.5" y="113.0566">1</text><text fill="#000000" font-family="sans-serif" font-size="13" lengthAdjust="spacingAndGlyphs" textLength="170" x="51.5" y="113.0566">Alias Del user+ali@domain</text><rect fill="#EEEEEE" filter="url(#fehphyo)" height="3" style="stroke: #EEEEEE; stroke-width: 1.0;" width="969.5" x="3" y="146.4541"/><line style="stroke: #000000; stroke-width: 1.0;" x1="3" x2="972.5" y1="146.4541" y2="146.4541"/><line style="stroke: #000000; stroke-width: 1.0;" x1="3" x2="972.5" y1="149.4541" y2="149.4541"/><rect fill="#EEEEEE" filter="url(#fehphyo)" height="23.3105" style="stroke: #000000; stroke-width: 2.0;" width="117" x="429.25" y="135.7988"/><text fill="#000000" font-family="sans-serif" font-size="13" font-weight="bold" lengthAdjust="spacingAndGlyphs" textLength="99" x="435.25" y="152.3672">Access Control</text><polygon fill="#A80036" points="101,186.1094,91,190.1094,101,194.1094,97,190.1094" style="stroke: #A80036; stroke-width: 1.0;"/><line style="stroke: #A80036; stroke-width: 1.0;" x1="95" x2="276" y1="190.1094" y2="190.1094"/><text fill="#000000" font-family="sans-serif" font-size="13" font-weight="bold" lengthAdjust="spacingAndGlyphs" textLength="9" x="107" y="185.6777">2</text><text fill="#000000" font-family="sans-serif" font-size="13" lengthAdjust="spacingAndGlyphs" textLength="136" x="120" y="185.6777">SecureLayer @domain</text><polygon fill="#A80036" points="265,215.4199,275,219.4199,265,223.4199,269,219.4199" style="stroke: #A80036; stroke-width: 1.0;"/><line style="stroke: #A80036; stroke-width: 1.0;" x1="85" x2="271" y1="219.4199" y2="219.4199"/><text fill="#000000" font-family="sans-serif" font-size="13" font-weight="bold" lengthAdjust="spacingAndGlyphs" textLength="9" x="92" y="214.9883">3</text><text fill="#000000" font-family="sans-serif" font-size="13" lengthAdjust="spacingAndGlyphs" textLength="150" x="105" y="214.9883">RemoteID user@domain</text><polygon fill="#A80036" points="646,244.7305,656,248.7305,646,252.7305,650,248.7305" style="stroke: #A80036; stroke-width: 1.0;"/><line style="stroke: #A80036; stroke-width: 1.0;" x1="287" x2="652" y1="248.7305" y2="248.7305"/><text fill="#000000" font-family="sans-serif" font-size="13" font-weight="bold" lengthAdjust="spacingAndGlyphs" textLength="9" x="294" y="244.2988">4</text><text fill="#000000" font-family="sans-serif" font-size="13" lengthAdjust="spacingAndGlyphs" textLength="339" x="307" y="244.2988">WANT alias-delete ON user@domain AS user@domain</text><polygon fill="#A80036" points="298,274.041,288,278.041,298,282.041,294,278.041" style="stroke: #A80036; stroke-width: 1.0;"/><line style="stroke: #A80036; stroke-width: 1.0;" x1="292" x2="662" y1="278.041" y2="278.041"/><text fill="#000000" font-family="sans-serif" font-size="13" font-weight="bold" lengthAdjust="spacingAndGlyphs" textLength="9" x="304" y="273.6094">5</text><text fill="#000000" font-family="sans-serif" font-size="13" lengthAdjust="spacingAndGlyphs" textLength="144" x="317" y="273.6094">OK FOR user1@domain</text><rect fill="#EEEEEE" filter="url(#fehphyo)" height="3" style="stroke: #EEEEEE; stroke-width: 1.0;" width="969.5" x="3" y="307.0068"/><line style="stroke: #000000; stroke-width: 1.0;" x1="3" x2="972.5" y1="307.0068" y2="307.0068"/><line style="stroke: #000000; stroke-width: 1.0;" x1="3" x2="972.5" y1="310.0068" y2="310.0068"/><rect fill="#EEEEEE" filter="url(#fehphyo)" height="23.3105" style="stroke: #000000; stroke-width: 2.0;" width="104" x="435.75" y="296.3516"/><text fill="#000000" font-family="sans-serif" font-size="13" font-weight="bold" lengthAdjust="spacingAndGlyphs" textLength="86" x="441.75" y="312.9199">Sanity Check</text><polygon fill="#A80036" points="930,346.6621,940,350.6621,930,354.6621,934,350.6621" style="stroke: #A80036; stroke-width: 1.0;"/><line style="stroke: #A80036; stroke-width: 1.0;" x1="287" x2="936" y1="350.6621" y2="350.6621"/><text fill="#000000" font-family="sans-serif" font-size="13" font-weight="bold" lengthAdjust="spacingAndGlyphs" textLength="9" x="294" y="346.2305">6</text><text fill="#000000" font-family="sans-serif" font-size="13" lengthAdjust="spacingAndGlyphs" textLength="287" x="307" y="346.2305">Compare user+ali@domain AS user1@domain</text><polygon fill="#0000FF" points="298,380.9727,288,384.9727,298,388.9727,294,384.9727" style="stroke: #0000FF; stroke-width: 1.0;"/><line style="stroke: #0000FF; stroke-width: 1.0; stroke-dasharray: 2.0,2.0;" x1="292" x2="941" y1="384.9727" y2="384.9727"/><text fill="#000000" font-family="sans-serif" font-size="13" font-weight="bold" lengthAdjust="spacingAndGlyphs" textLength="9" x="304" y="380.541">7</text><text fill="#000000" font-family="sans-serif" font-size="13" lengthAdjust="spacingAndGlyphs" textLength="112" x="317" y="380.541">UserID Not Found</text><polygon fill="#FBFB77" filter="url(#fehphyo)" points="78,363.9727,78,388.9727,268,388.9727,268,373.9727,258,363.9727,78,363.9727" style="stroke: #A80036; stroke-width: 1.0;"/><line style="stroke: #A80036; stroke-width: 1.0;" x1="258" x2="258" y1="363.9727" y2="373.9727"/><line style="stroke: #A80036; stroke-width: 1.0;" x1="268" x2="258" y1="373.9727" y2="373.9727"/><text fill="#0000FF" font-family="sans-serif" font-size="13" lengthAdjust="spacingAndGlyphs" textLength="169" x="84" y="381.541">Alternative flow, fatal error</text><polygon fill="#0000FF" points="42.5,415.2832,32.5,419.2832,42.5,423.2832,38.5,419.2832" style="stroke: #0000FF; stroke-width: 1.0;"/><line style="stroke: #0000FF; stroke-width: 1.0; stroke-dasharray: 2.0,2.0;" x1="36.5" x2="276" y1="419.2832" y2="419.2832"/><text fill="#000000" font-family="sans-serif" font-size="13" font-weight="bold" lengthAdjust="spacingAndGlyphs" textLength="9" x="48.5" y="414.8516">8</text><text fill="#000000" font-family="sans-serif" font-size="13" lengthAdjust="spacingAndGlyphs" textLength="66" x="61.5" y="414.8516">Not Found</text><polygon fill="#A80036" points="298,444.5938,288,448.5938,298,452.5938,294,448.5938" style="stroke: #A80036; stroke-width: 1.0;"/><line style="stroke: #A80036; stroke-width: 1.0;" x1="292" x2="946" y1="448.5938" y2="448.5938"/><text fill="#000000" font-family="sans-serif" font-size="13" font-weight="bold" lengthAdjust="spacingAndGlyphs" textLength="9" x="304" y="444.1621">9</text><text fill="#000000" font-family="sans-serif" font-size="13" lengthAdjust="spacingAndGlyphs" textLength="85" x="317" y="444.1621">UserID Found</text><polygon fill="#A80036" points="37.5,473.9043,27.5,477.9043,37.5,481.9043,33.5,477.9043" style="stroke: #A80036; stroke-width: 1.0;"/><line style="stroke: #A80036; stroke-width: 1.0;" x1="31.5" x2="276" y1="477.9043" y2="477.9043"/><text fill="#000000" font-family="sans-serif" font-size="13" font-weight="bold" lengthAdjust="spacingAndGlyphs" textLength="18" x="43.5" y="473.4727">10</text><text fill="#000000" font-family="sans-serif" font-size="13" lengthAdjust="spacingAndGlyphs" textLength="48" x="65.5" y="473.4727">Queued</text><rect fill="#EEEEEE" filter="url(#fehphyo)" height="3" style="stroke: #EEEEEE; stroke-width: 1.0;" width="969.5" x="3" y="506.8701"/><line style="stroke: #000000; stroke-width: 1.0;" x1="3" x2="972.5" y1="506.8701" y2="506.8701"/><line style="stroke: #000000; stroke-width: 1.0;" x1="3" x2="972.5" y1="509.8701" y2="509.8701"/><rect fill="#EEEEEE" filter="url(#fehphyo)" height="23.3105" style="stroke: #000000; stroke-width: 2.0;" width="136" x="419.75" y="496.2148"/><text fill="#000000" font-family="sans-serif" font-size="13" font-weight="bold" lengthAdjust="spacingAndGlyphs" textLength="118" x="425.75" y="512.7832">Key Management</text><polygon fill="#A80036" points="493,546.5254,503,550.5254,493,554.5254,497,550.5254" style="stroke: #A80036; stroke-width: 1.0;"/><line style="stroke: #A80036; stroke-width: 1.0;" x1="287" x2="499" y1="550.5254" y2="550.5254"/><text fill="#000000" font-family="sans-serif" font-size="13" font-weight="bold" lengthAdjust="spacingAndGlyphs" textLength="18" x="294" y="546.0938">11</text><text fill="#000000" font-family="sans-serif" font-size="13" lengthAdjust="spacingAndGlyphs" textLength="177" x="316" y="546.0938">Drop User user+ali@domain</text><polygon fill="#A80036" points="293,575.8359,283,579.8359,293,583.8359,289,579.8359" style="stroke: #A80036; stroke-width: 1.0;"/><line style="stroke: #A80036; stroke-width: 1.0;" x1="287" x2="504" y1="579.8359" y2="579.8359"/><text fill="#000000" font-family="sans-serif" font-size="13" font-weight="bold" lengthAdjust="spacingAndGlyphs" textLength="18" x="299" y="575.4043">12</text><text fill="#000000" font-family="sans-serif" font-size="13" lengthAdjust="spacingAndGlyphs" textLength="48" x="321" y="575.4043">Queued</text><polygon fill="#A80036" points="935,605.1465,945,609.1465,935,613.1465,939,609.1465" style="stroke: #A80036; stroke-width: 1.0;"/><line style="stroke: #A80036; stroke-width: 1.0;" x1="515" x2="941" y1="609.1465" y2="609.1465"/><text fill="#000000" font-family="sans-serif" font-size="13" font-weight="bold" lengthAdjust="spacingAndGlyphs" textLength="18" x="522" y="604.7148">13</text><text fill="#000000" font-family="sans-serif" font-size="13" lengthAdjust="spacingAndGlyphs" textLength="324" x="544" y="604.7148">Drop Creds for user+ali@domain AS user1@domain</text><polygon fill="#A80036" points="935,639.457,945,643.457,935,647.457,939,643.457" style="stroke: #A80036; stroke-width: 1.0;"/><line style="stroke: #A80036; stroke-width: 1.0;" x1="515" x2="941" y1="643.457" y2="643.457"/><text fill="#000000" font-family="sans-serif" font-size="13" font-weight="bold" lengthAdjust="spacingAndGlyphs" textLength="18" x="522" y="639.0254">14</text><text fill="#000000" font-family="sans-serif" font-size="13" lengthAdjust="spacingAndGlyphs" textLength="255" x="544" y="639.0254">Drop pkcs11:xxx;y;zz AS user1@domain</text><polygon fill="#FBFB77" filter="url(#fehphyo)" points="285,622.457,285,647.457,496,647.457,496,632.457,486,622.457,285,622.457" style="stroke: #A80036; stroke-width: 1.0;"/><line style="stroke: #A80036; stroke-width: 1.0;" x1="486" x2="486" y1="622.457" y2="632.457"/><line style="stroke: #A80036; stroke-width: 1.0;" x1="496" x2="486" y1="632.457" y2="632.457"/><text fill="#000000" font-family="sans-serif" font-size="13" lengthAdjust="spacingAndGlyphs" textLength="190" x="291" y="640.0254">Unless sharing the LDAP entry</text><polygon fill="#A80036" points="935,673.7676,945,677.7676,935,681.7676,939,677.7676" style="stroke: #A80036; stroke-width: 1.0;"/><line style="stroke: #A80036; stroke-width: 1.0;" x1="515" x2="941" y1="677.7676" y2="677.7676"/><text fill="#000000" font-family="sans-serif" font-size="13" font-weight="bold" lengthAdjust="spacingAndGlyphs" textLength="18" x="522" y="673.3359">15</text><text fill="#000000" font-family="sans-serif" font-size="13" lengthAdjust="spacingAndGlyphs" textLength="262" x="544" y="673.3359">Drop user+ali@domain AS user1@domain</text><polygon fill="#A80036" points="935,703.0781,945,707.0781,935,711.0781,939,707.0781" style="stroke: #A80036; stroke-width: 1.0;"/><line style="stroke: #A80036; stroke-width: 1.0;" x1="515" x2="941" y1="707.0781" y2="707.0781"/><text fill="#000000" font-family="sans-serif" font-size="13" font-weight="bold" lengthAdjust="spacingAndGlyphs" textLength="18" x="522" y="702.6465">16</text><text fill="#000000" font-family="sans-serif" font-size="13" lengthAdjust="spacingAndGlyphs" textLength="386" x="544" y="702.6465">Drop user+ali@domain Alias user@domain AS user1@domain</text><polygon fill="#A80036" points="526,732.3887,516,736.3887,526,740.3887,522,736.3887" style="stroke: #A80036; stroke-width: 1.0;"/><line style="stroke: #A80036; stroke-width: 1.0;" x1="520" x2="946" y1="736.3887" y2="736.3887"/><text fill="#000000" font-family="sans-serif" font-size="13" font-weight="bold" lengthAdjust="spacingAndGlyphs" textLength="18" x="532" y="731.957">17</text><text fill="#000000" font-family="sans-serif" font-size="13" lengthAdjust="spacingAndGlyphs" textLength="37" x="554" y="731.957">Ready</text><polygon fill="#A80036" points="646,761.6992,656,765.6992,646,769.6992,650,765.6992" style="stroke: #A80036; stroke-width: 1.0;"/><line style="stroke: #A80036; stroke-width: 1.0;" x1="515" x2="652" y1="765.6992" y2="765.6992"/><text fill="#000000" font-family="sans-serif" font-size="13" font-weight="bold" lengthAdjust="spacingAndGlyphs" textLength="18" x="522" y="761.2676">18</text><text fill="#000000" font-family="sans-serif" font-size="13" lengthAdjust="spacingAndGlyphs" textLength="74" x="544" y="761.2676">Cache hints</text></g></svg>