<?xml version="1.0" encoding="UTF-8" standalone="no"?><svg xmlns="http://www.w3.org/2000/svg" xmlns:xlink="http://www.w3.org/1999/xlink" contentScriptType="application/ecmascript" contentStyleType="text/css" height="1039px" preserveAspectRatio="none" style="width:1227px;height:1039px;" version="1.1" viewBox="0 0 1227 1039" width="1227px" zoomAndPan="magnify"><defs><filter height="300%" id="fhalh56" width="300%" x="-1" y="-1"><feGaussianBlur result="blurOut" stdDeviation="2.0"/><feColorMatrix in="blurOut" result="blurOut2" type="matrix" values="0 0 0 0 0 0 0 0 0 0 0 0 0 0 0 0 0 0 .4 0"/><feOffset dx="4.0" dy="4.0" in="blurOut2" result="blurOut3"/><feBlend in="SourceGraphic" in2="blurOut3" mode="normal"/></filter></defs><g><rect fill="#FFFFFF" filter="url(#fhalh56)" height="360.416" style="stroke: #A80036; stroke-width: 1.0;" width="10" x="21.5" y="117.4883"/><rect fill="#FFFFFF" filter="url(#fhalh56)" height="29.3105" style="stroke: #A80036; stroke-width: 1.0;" width="10" x="80" y="190.1094"/><rect fill="#FFFFFF" filter="url(#fhalh56)" height="462.3477" style="stroke: #A80036; stroke-width: 1.0;" width="10" x="375.5" y="117.4883"/><rect fill="#FFFFFF" filter="url(#fhalh56)" height="386.1055" style="stroke: #A80036; stroke-width: 1.0;" width="10" x="707.5" y="550.5254"/><rect fill="#FFFFFF" filter="url(#fhalh56)" height="28" style="stroke: #A80036; stroke-width: 1.0;" width="10" x="712.5" y="715.0781"/><rect fill="#FFFFFF" filter="url(#fhalh56)" height="29.3105" style="stroke: #A80036; stroke-width: 1.0;" width="10" x="955.5" y="248.7305"/><rect fill="#FFFFFF" filter="url(#fhalh56)" height="30" style="stroke: #A80036; stroke-width: 1.0;" width="10" x="955.5" y="906.6309"/><rect fill="#FFFFFF" filter="url(#fhalh56)" height="97.9316" style="stroke: #A80036; stroke-width: 1.0;" width="10" x="1191.5" y="350.6621"/><rect fill="#FFFFFF" filter="url(#fhalh56)" height="63.6211" style="stroke: #A80036; stroke-width: 1.0;" width="10" x="1191.5" y="614.1465"/><rect fill="#FFFFFF" filter="url(#fhalh56)" height="97.9316" style="stroke: #A80036; stroke-width: 1.0;" width="10" x="1191.5" y="779.3887"/><line style="stroke: #A80036; stroke-width: 1.0; stroke-dasharray: 5.0,5.0;" x1="26" x2="26" y1="86.4883" y2="954.9414"/><line style="stroke: #A80036; stroke-width: 1.0; stroke-dasharray: 5.0,5.0;" x1="85" x2="85" y1="86.4883" y2="954.9414"/><line style="stroke: #A80036; stroke-width: 1.0; stroke-dasharray: 5.0,5.0;" x1="380" x2="380" y1="86.4883" y2="954.9414"/><line style="stroke: #A80036; stroke-width: 1.0; stroke-dasharray: 5.0,5.0;" x1="712.5" x2="712.5" y1="86.4883" y2="954.9414"/><line style="stroke: #A80036; stroke-width: 1.0; stroke-dasharray: 5.0,5.0;" x1="960" x2="960" y1="86.4883" y2="954.9414"/><line style="stroke: #A80036; stroke-width: 1.0; stroke-dasharray: 5.0,5.0;" x1="1196" x2="1196" y1="86.4883" y2="954.9414"/><text fill="#000000" font-family="sans-serif" font-size="14" lengthAdjust="spacingAndGlyphs" textLength="31" x="8" y="83.5352">User</text><ellipse cx="26.5" cy="13" fill="#FEFECE" filter="url(#fhalh56)" rx="8" ry="8" style="stroke: #A80036; stroke-width: 2.0;"/><path d="M26.5,21 L26.5,48 M13.5,29 L39.5,29 M26.5,48 L13.5,63 M26.5,48 L39.5,63 " fill="#FEFECE" filter="url(#fhalh56)" style="stroke: #A80036; stroke-width: 2.0;"/><text fill="#000000" font-family="sans-serif" font-size="14" lengthAdjust="spacingAndGlyphs" textLength="31" x="8" y="967.4766">User</text><ellipse cx="26.5" cy="980.4297" fill="#FEFECE" filter="url(#fhalh56)" rx="8" ry="8" style="stroke: #A80036; stroke-width: 2.0;"/><path d="M26.5,988.4297 L26.5,1015.4297 M13.5,996.4297 L39.5,996.4297 M26.5,1015.4297 L13.5,1030.4297 M26.5,1015.4297 L39.5,1030.4297 " fill="#FEFECE" filter="url(#fhalh56)" style="stroke: #A80036; stroke-width: 2.0;"/><rect fill="#FEFECE" filter="url(#fhalh56)" height="30.4883" style="stroke: #A80036; stroke-width: 1.5;" width="56" x="55" y="51"/><text fill="#000000" font-family="sans-serif" font-size="14" lengthAdjust="spacingAndGlyphs" textLength="42" x="62" y="71.5352">Authn</text><rect fill="#FEFECE" filter="url(#fhalh56)" height="30.4883" style="stroke: #A80036; stroke-width: 1.5;" width="56" x="55" y="953.9414"/><text fill="#000000" font-family="sans-serif" font-size="14" lengthAdjust="spacingAndGlyphs" textLength="42" x="62" y="974.4766">Authn</text><rect fill="#FEFECE" filter="url(#fhalh56)" height="30.4883" style="stroke: #A80036; stroke-width: 1.5;" width="111" x="323" y="51"/><text fill="#000000" font-family="sans-serif" font-size="14" lengthAdjust="spacingAndGlyphs" textLength="97" x="330" y="71.5352">IdHub Control</text><rect fill="#FEFECE" filter="url(#fhalh56)" height="30.4883" style="stroke: #A80036; stroke-width: 1.5;" width="111" x="323" y="953.9414"/><text fill="#000000" font-family="sans-serif" font-size="14" lengthAdjust="spacingAndGlyphs" textLength="97" x="330" y="974.4766">IdHub Control</text><rect fill="#FEFECE" filter="url(#fhalh56)" height="30.4883" style="stroke: #A80036; stroke-width: 1.5;" width="102" x="659.5" y="51"/><text fill="#000000" font-family="sans-serif" font-size="14" lengthAdjust="spacingAndGlyphs" textLength="88" x="666.5" y="71.5352">Key Manager</text><rect fill="#FEFECE" filter="url(#fhalh56)" height="30.4883" style="stroke: #A80036; stroke-width: 1.5;" width="102" x="659.5" y="953.9414"/><text fill="#000000" font-family="sans-serif" font-size="14" lengthAdjust="spacingAndGlyphs" textLength="88" x="666.5" y="974.4766">Key Manager</text><rect fill="#FEFECE" filter="url(#fhalh56)" height="30.4883" style="stroke: #A80036; stroke-width: 1.5;" width="55" x="931" y="51"/><text fill="#000000" font-family="sans-serif" font-size="14" lengthAdjust="spacingAndGlyphs" textLength="41" x="938" y="71.5352">Authz</text><rect fill="#FEFECE" filter="url(#fhalh56)" height="30.4883" style="stroke: #A80036; stroke-width: 1.5;" width="55" x="931" y="953.9414"/><text fill="#000000" font-family="sans-serif" font-size="14" lengthAdjust="spacingAndGlyphs" textLength="41" x="938" y="974.4766">Authz</text><text fill="#000000" font-family="sans-serif" font-size="14" lengthAdjust="spacingAndGlyphs" textLength="35" x="1176" y="83.5352">LDAP</text><path d="M1178.5,34 C1178.5,24 1196.5,24 1196.5,24 C1196.5,24 1214.5,24 1214.5,34 L1214.5,60 C1214.5,70 1196.5,70 1196.5,70 C1196.5,70 1178.5,70 1178.5,60 L1178.5,34 " fill="#FEFECE" filter="url(#fhalh56)" style="stroke: #000000; stroke-width: 1.5;"/><path d="M1178.5,34 C1178.5,44 1196.5,44 1196.5,44 C1196.5,44 1214.5,44 1214.5,34 " fill="none" style="stroke: #000000; stroke-width: 1.5;"/><text fill="#000000" font-family="sans-serif" font-size="14" lengthAdjust="spacingAndGlyphs" textLength="35" x="1176" y="967.4766">LDAP</text><path d="M1178.5,980.4297 C1178.5,970.4297 1196.5,970.4297 1196.5,970.4297 C1196.5,970.4297 1214.5,970.4297 1214.5,980.4297 L1214.5,1006.4297 C1214.5,1016.4297 1196.5,1016.4297 1196.5,1016.4297 C1196.5,1016.4297 1178.5,1016.4297 1178.5,1006.4297 L1178.5,980.4297 " fill="#FEFECE" filter="url(#fhalh56)" style="stroke: #000000; stroke-width: 1.5;"/><path d="M1178.5,980.4297 C1178.5,990.4297 1196.5,990.4297 1196.5,990.4297 C1196.5,990.4297 1214.5,990.4297 1214.5,980.4297 " fill="none" style="stroke: #000000; stroke-width: 1.5;"/><rect fill="#FFFFFF" filter="url(#fhalh56)" height="360.416" style="stroke: #A80036; stroke-width: 1.0;" width="10" x="21.5" y="117.4883"/><rect fill="#FFFFFF" filter="url(#fhalh56)" height="29.3105" style="stroke: #A80036; stroke-width: 1.0;" width="10" x="80" y="190.1094"/><rect fill="#FFFFFF" filter="url(#fhalh56)" height="462.3477" style="stroke: #A80036; stroke-width: 1.0;" width="10" x="375.5" y="117.4883"/><rect fill="#FFFFFF" filter="url(#fhalh56)" height="386.1055" style="stroke: #A80036; stroke-width: 1.0;" width="10" x="707.5" y="550.5254"/><rect fill="#FFFFFF" filter="url(#fhalh56)" height="28" style="stroke: #A80036; stroke-width: 1.0;" width="10" x="712.5" y="715.0781"/><rect fill="#FFFFFF" filter="url(#fhalh56)" height="29.3105" style="stroke: #A80036; stroke-width: 1.0;" width="10" x="955.5" y="248.7305"/><rect fill="#FFFFFF" filter="url(#fhalh56)" height="30" style="stroke: #A80036; stroke-width: 1.0;" width="10" x="955.5" y="906.6309"/><rect fill="#FFFFFF" filter="url(#fhalh56)" height="97.9316" style="stroke: #A80036; stroke-width: 1.0;" width="10" x="1191.5" y="350.6621"/><rect fill="#FFFFFF" filter="url(#fhalh56)" height="63.6211" style="stroke: #A80036; stroke-width: 1.0;" width="10" x="1191.5" y="614.1465"/><rect fill="#FFFFFF" filter="url(#fhalh56)" height="97.9316" style="stroke: #A80036; stroke-width: 1.0;" width="10" x="1191.5" y="779.3887"/><polygon fill="#A80036" points="363.5,113.4883,373.5,117.4883,363.5,121.4883,367.5,117.4883" style="stroke: #A80036; stroke-width: 1.0;"/><line style="stroke: #A80036; stroke-width: 1.0;" x1="31.5" x2="369.5" y1="117.4883" y2="117.4883"/><text fill="#000000" font-family="sans-serif" font-size="13" font-weight="bold" lengthAdjust="spacingAndGlyphs" textLength="9" x="38.5" y="113.0566">1</text><text fill="#000000" font-family="sans-serif" font-size="13" lengthAdjust="spacingAndGlyphs" textLength="317" x="51.5" y="113.0566">Group group@domain Member Add user@domain1</text><rect fill="#EEEEEE" filter="url(#fhalh56)" height="3" style="stroke: #EEEEEE; stroke-width: 1.0;" width="1219" x="3" y="146.4541"/><line style="stroke: #000000; stroke-width: 1.0;" x1="3" x2="1222" y1="146.4541" y2="146.4541"/><line style="stroke: #000000; stroke-width: 1.0;" x1="3" x2="1222" y1="149.4541" y2="149.4541"/><rect fill="#EEEEEE" filter="url(#fhalh56)" height="23.3105" style="stroke: #000000; stroke-width: 2.0;" width="117" x="554" y="135.7988"/><text fill="#000000" font-family="sans-serif" font-size="13" font-weight="bold" lengthAdjust="spacingAndGlyphs" textLength="99" x="560" y="152.3672">Access Control</text><polygon fill="#A80036" points="101,186.1094,91,190.1094,101,194.1094,97,190.1094" style="stroke: #A80036; stroke-width: 1.0;"/><line style="stroke: #A80036; stroke-width: 1.0;" x1="95" x2="374.5" y1="190.1094" y2="190.1094"/><text fill="#000000" font-family="sans-serif" font-size="13" font-weight="bold" lengthAdjust="spacingAndGlyphs" textLength="9" x="107" y="185.6777">2</text><text fill="#000000" font-family="sans-serif" font-size="13" lengthAdjust="spacingAndGlyphs" textLength="136" x="120" y="185.6777">SecureLayer @domain</text><polygon fill="#A80036" points="363.5,215.4199,373.5,219.4199,363.5,223.4199,367.5,219.4199" style="stroke: #A80036; stroke-width: 1.0;"/><line style="stroke: #A80036; stroke-width: 1.0;" x1="85" x2="369.5" y1="219.4199" y2="219.4199"/><text fill="#000000" font-family="sans-serif" font-size="13" font-weight="bold" lengthAdjust="spacingAndGlyphs" textLength="9" x="92" y="214.9883">3</text><text fill="#000000" font-family="sans-serif" font-size="13" lengthAdjust="spacingAndGlyphs" textLength="193" x="105" y="214.9883">RemoteID group+you@domain</text><polygon fill="#A80036" points="943.5,244.7305,953.5,248.7305,943.5,252.7305,947.5,248.7305" style="stroke: #A80036; stroke-width: 1.0;"/><line style="stroke: #A80036; stroke-width: 1.0;" x1="385.5" x2="949.5" y1="248.7305" y2="248.7305"/><text fill="#000000" font-family="sans-serif" font-size="13" font-weight="bold" lengthAdjust="spacingAndGlyphs" textLength="9" x="392.5" y="244.2988">4</text><text fill="#000000" font-family="sans-serif" font-size="13" lengthAdjust="spacingAndGlyphs" textLength="440" x="405.5" y="244.2988">WANT group-membership ON group@domain AS group+you@domain</text><polygon fill="#A80036" points="396.5,274.041,386.5,278.041,396.5,282.041,392.5,278.041" style="stroke: #A80036; stroke-width: 1.0;"/><line style="stroke: #A80036; stroke-width: 1.0;" x1="390.5" x2="959.5" y1="278.041" y2="278.041"/><text fill="#000000" font-family="sans-serif" font-size="13" font-weight="bold" lengthAdjust="spacingAndGlyphs" textLength="9" x="402.5" y="273.6094">5</text><text fill="#000000" font-family="sans-serif" font-size="13" lengthAdjust="spacingAndGlyphs" textLength="179" x="415.5" y="273.6094">OK FOR group+you@domain</text><rect fill="#EEEEEE" filter="url(#fhalh56)" height="3" style="stroke: #EEEEEE; stroke-width: 1.0;" width="1219" x="3" y="307.0068"/><line style="stroke: #000000; stroke-width: 1.0;" x1="3" x2="1222" y1="307.0068" y2="307.0068"/><line style="stroke: #000000; stroke-width: 1.0;" x1="3" x2="1222" y1="310.0068" y2="310.0068"/><rect fill="#EEEEEE" filter="url(#fhalh56)" height="23.3105" style="stroke: #000000; stroke-width: 2.0;" width="104" x="560.5" y="296.3516"/><text fill="#000000" font-family="sans-serif" font-size="13" font-weight="bold" lengthAdjust="spacingAndGlyphs" textLength="86" x="566.5" y="312.9199">Sanity Check</text><polygon fill="#A80036" points="1179.5,346.6621,1189.5,350.6621,1179.5,354.6621,1183.5,350.6621" style="stroke: #A80036; stroke-width: 1.0;"/><line style="stroke: #A80036; stroke-width: 1.0;" x1="385.5" x2="1185.5" y1="350.6621" y2="350.6621"/><text fill="#000000" font-family="sans-serif" font-size="13" font-weight="bold" lengthAdjust="spacingAndGlyphs" textLength="9" x="392.5" y="346.2305">6</text><text fill="#000000" font-family="sans-serif" font-size="13" lengthAdjust="spacingAndGlyphs" textLength="458" x="405.5" y="346.2305">Compare group@domain Member user@domain1 AS group+you@domain</text><polygon fill="#0000FF" points="396.5,380.9727,386.5,384.9727,396.5,388.9727,392.5,384.9727" style="stroke: #0000FF; stroke-width: 1.0;"/><line style="stroke: #0000FF; stroke-width: 1.0; stroke-dasharray: 2.0,2.0;" x1="390.5" x2="1190.5" y1="384.9727" y2="384.9727"/><text fill="#000000" font-family="sans-serif" font-size="13" font-weight="bold" lengthAdjust="spacingAndGlyphs" textLength="9" x="402.5" y="380.541">7</text><text fill="#000000" font-family="sans-serif" font-size="13" lengthAdjust="spacingAndGlyphs" textLength="85" x="415.5" y="380.541">UserID Found</text><polygon fill="#FBFB77" filter="url(#fhalh56)" points="176,363.9727,176,388.9727,366,388.9727,366,373.9727,356,363.9727,176,363.9727" style="stroke: #A80036; stroke-width: 1.0;"/><line style="stroke: #A80036; stroke-width: 1.0;" x1="356" x2="356" y1="363.9727" y2="373.9727"/><line style="stroke: #A80036; stroke-width: 1.0;" x1="366" x2="356" y1="373.9727" y2="373.9727"/><text fill="#0000FF" font-family="sans-serif" font-size="13" lengthAdjust="spacingAndGlyphs" textLength="169" x="182" y="381.541">Alternative flow, fatal error</text><polygon fill="#0000FF" points="42.5,415.2832,32.5,419.2832,42.5,423.2832,38.5,419.2832" style="stroke: #0000FF; stroke-width: 1.0;"/><line style="stroke: #0000FF; stroke-width: 1.0; stroke-dasharray: 2.0,2.0;" x1="36.5" x2="374.5" y1="419.2832" y2="419.2832"/><text fill="#000000" font-family="sans-serif" font-size="13" font-weight="bold" lengthAdjust="spacingAndGlyphs" textLength="9" x="48.5" y="414.8516">8</text><text fill="#000000" font-family="sans-serif" font-size="13" lengthAdjust="spacingAndGlyphs" textLength="101" x="61.5" y="414.8516">Already Member</text><polygon fill="#A80036" points="396.5,444.5938,386.5,448.5938,396.5,452.5938,392.5,448.5938" style="stroke: #A80036; stroke-width: 1.0;"/><line style="stroke: #A80036; stroke-width: 1.0;" x1="390.5" x2="1195.5" y1="448.5938" y2="448.5938"/><text fill="#000000" font-family="sans-serif" font-size="13" font-weight="bold" lengthAdjust="spacingAndGlyphs" textLength="9" x="402.5" y="444.1621">9</text><text fill="#000000" font-family="sans-serif" font-size="13" lengthAdjust="spacingAndGlyphs" textLength="112" x="415.5" y="444.1621">UserID Not Found</text><polygon fill="#A80036" points="37.5,473.9043,27.5,477.9043,37.5,481.9043,33.5,477.9043" style="stroke: #A80036; stroke-width: 1.0;"/><line style="stroke: #A80036; stroke-width: 1.0;" x1="31.5" x2="374.5" y1="477.9043" y2="477.9043"/><text fill="#000000" font-family="sans-serif" font-size="13" font-weight="bold" lengthAdjust="spacingAndGlyphs" textLength="18" x="43.5" y="473.4727">10</text><text fill="#000000" font-family="sans-serif" font-size="13" lengthAdjust="spacingAndGlyphs" textLength="48" x="65.5" y="473.4727">Queued</text><rect fill="#EEEEEE" filter="url(#fhalh56)" height="3" style="stroke: #EEEEEE; stroke-width: 1.0;" width="1219" x="3" y="506.8701"/><line style="stroke: #000000; stroke-width: 1.0;" x1="3" x2="1222" y1="506.8701" y2="506.8701"/><line style="stroke: #000000; stroke-width: 1.0;" x1="3" x2="1222" y1="509.8701" y2="509.8701"/><rect fill="#EEEEEE" filter="url(#fhalh56)" height="23.3105" style="stroke: #000000; stroke-width: 2.0;" width="136" x="544.5" y="496.2148"/><text fill="#000000" font-family="sans-serif" font-size="13" font-weight="bold" lengthAdjust="spacingAndGlyphs" textLength="118" x="550.5" y="512.7832">Key Management</text><polygon fill="#A80036" points="695.5,546.5254,705.5,550.5254,695.5,554.5254,699.5,550.5254" style="stroke: #A80036; stroke-width: 1.0;"/><line style="stroke: #A80036; stroke-width: 1.0;" x1="385.5" x2="701.5" y1="550.5254" y2="550.5254"/><text fill="#000000" font-family="sans-serif" font-size="13" font-weight="bold" lengthAdjust="spacingAndGlyphs" textLength="18" x="392.5" y="546.0938">11</text><text fill="#000000" font-family="sans-serif" font-size="13" lengthAdjust="spacingAndGlyphs" textLength="281" x="414.5" y="546.0938">Have group@domain Member user@domain1</text><polygon fill="#A80036" points="391.5,575.8359,381.5,579.8359,391.5,583.8359,387.5,579.8359" style="stroke: #A80036; stroke-width: 1.0;"/><line style="stroke: #A80036; stroke-width: 1.0;" x1="385.5" x2="706.5" y1="579.8359" y2="579.8359"/><text fill="#000000" font-family="sans-serif" font-size="13" font-weight="bold" lengthAdjust="spacingAndGlyphs" textLength="18" x="397.5" y="575.4043">12</text><text fill="#000000" font-family="sans-serif" font-size="13" lengthAdjust="spacingAndGlyphs" textLength="48" x="419.5" y="575.4043">Queued</text><polygon fill="#A80036" points="1179.5,610.1465,1189.5,614.1465,1179.5,618.1465,1183.5,614.1465" style="stroke: #A80036; stroke-width: 1.0;"/><line style="stroke: #A80036; stroke-width: 1.0;" x1="717.5" x2="1185.5" y1="614.1465" y2="614.1465"/><text fill="#000000" font-family="sans-serif" font-size="13" font-weight="bold" lengthAdjust="spacingAndGlyphs" textLength="18" x="724.5" y="609.7148">13</text><text fill="#000000" font-family="sans-serif" font-size="13" lengthAdjust="spacingAndGlyphs" textLength="149" x="746.5" y="609.7148">Retrieve group@domain</text><polygon fill="#FBFB77" filter="url(#fhalh56)" points="492,593.1465,492,618.1465,698,618.1465,698,603.1465,688,593.1465,492,593.1465" style="stroke: #A80036; stroke-width: 1.0;"/><line style="stroke: #A80036; stroke-width: 1.0;" x1="688" x2="688" y1="593.1465" y2="603.1465"/><line style="stroke: #A80036; stroke-width: 1.0;" x1="698" x2="688" y1="603.1465" y2="603.1465"/><text fill="#000000" font-family="sans-serif" font-size="13" lengthAdjust="spacingAndGlyphs" textLength="185" x="498" y="610.7148">When copying the LDAP entry</text><polygon fill="#A80036" points="728.5,644.457,718.5,648.457,728.5,652.457,724.5,648.457" style="stroke: #A80036; stroke-width: 1.0;"/><line style="stroke: #A80036; stroke-width: 1.0;" x1="722.5" x2="1190.5" y1="648.457" y2="648.457"/><text fill="#000000" font-family="sans-serif" font-size="13" font-weight="bold" lengthAdjust="spacingAndGlyphs" textLength="18" x="734.5" y="644.0254">14</text><text fill="#000000" font-family="sans-serif" font-size="13" lengthAdjust="spacingAndGlyphs" textLength="127" x="756.5" y="644.0254">Creds MIIEVzCCAz...</text><polygon fill="#A80036" points="728.5,673.7676,718.5,677.7676,728.5,681.7676,724.5,677.7676" style="stroke: #A80036; stroke-width: 1.0;"/><line style="stroke: #A80036; stroke-width: 1.0;" x1="722.5" x2="1195.5" y1="677.7676" y2="677.7676"/><text fill="#000000" font-family="sans-serif" font-size="13" font-weight="bold" lengthAdjust="spacingAndGlyphs" textLength="18" x="734.5" y="673.3359">15</text><text fill="#000000" font-family="sans-serif" font-size="13" lengthAdjust="spacingAndGlyphs" textLength="103" x="756.5" y="673.3359">pkcs11:xxx;y;zz</text><line style="stroke: #A80036; stroke-width: 1.0;" x1="722.5" x2="764.5" y1="707.3887" y2="707.3887"/><line style="stroke: #A80036; stroke-width: 1.0;" x1="764.5" x2="764.5" y1="707.3887" y2="720.3887"/><line style="stroke: #A80036; stroke-width: 1.0;" x1="723.5" x2="764.5" y1="720.3887" y2="720.3887"/><polygon fill="#A80036" points="733.5,716.3887,723.5,720.3887,733.5,724.3887,729.5,720.3887" style="stroke: #A80036; stroke-width: 1.0;"/><text fill="#000000" font-family="sans-serif" font-size="13" font-weight="bold" lengthAdjust="spacingAndGlyphs" textLength="18" x="729.5" y="702.6465">16</text><text fill="#000000" font-family="sans-serif" font-size="13" lengthAdjust="spacingAndGlyphs" textLength="202" x="751.5" y="702.6465">Pick a group-internal MemberID</text><polygon fill="#A80036" points="1179.5,775.3887,1189.5,779.3887,1179.5,783.3887,1183.5,779.3887" style="stroke: #A80036; stroke-width: 1.0;"/><line style="stroke: #A80036; stroke-width: 1.0;" x1="717.5" x2="1185.5" y1="779.3887" y2="779.3887"/><text fill="#000000" font-family="sans-serif" font-size="13" font-weight="bold" lengthAdjust="spacingAndGlyphs" textLength="18" x="724.5" y="774.957">17</text><text fill="#000000" font-family="sans-serif" font-size="13" lengthAdjust="spacingAndGlyphs" textLength="433" x="746.5" y="774.957">Have group@domain Member user@domain1 AS group+you@domain</text><polygon fill="#A80036" points="1179.5,804.6992,1189.5,808.6992,1179.5,812.6992,1183.5,808.6992" style="stroke: #A80036; stroke-width: 1.0;"/><line style="stroke: #A80036; stroke-width: 1.0;" x1="717.5" x2="1185.5" y1="808.6992" y2="808.6992"/><text fill="#000000" font-family="sans-serif" font-size="13" font-weight="bold" lengthAdjust="spacingAndGlyphs" textLength="18" x="724.5" y="804.2676">18</text><text fill="#000000" font-family="sans-serif" font-size="13" lengthAdjust="spacingAndGlyphs" textLength="342" x="746.5" y="804.2676">Have Creds for user@domain1 AS group+you@domain</text><polygon fill="#A80036" points="1179.5,839.0098,1189.5,843.0098,1179.5,847.0098,1183.5,843.0098" style="stroke: #A80036; stroke-width: 1.0;"/><line style="stroke: #A80036; stroke-width: 1.0;" x1="717.5" x2="1185.5" y1="843.0098" y2="843.0098"/><text fill="#000000" font-family="sans-serif" font-size="13" font-weight="bold" lengthAdjust="spacingAndGlyphs" textLength="18" x="724.5" y="838.5781">19</text><text fill="#000000" font-family="sans-serif" font-size="13" lengthAdjust="spacingAndGlyphs" textLength="406" x="746.5" y="838.5781">Have pkcs11:xxx;y;zz XS user@domain1 AS group+you@domain</text><polygon fill="#FBFB77" filter="url(#fhalh56)" points="527,822.0098,527,847.0098,698,847.0098,698,832.0098,688,822.0098,527,822.0098" style="stroke: #A80036; stroke-width: 1.0;"/><line style="stroke: #A80036; stroke-width: 1.0;" x1="688" x2="688" y1="822.0098" y2="832.0098"/><line style="stroke: #A80036; stroke-width: 1.0;" x1="698" x2="688" y1="832.0098" y2="832.0098"/><text fill="#000000" font-family="sans-serif" font-size="13" lengthAdjust="spacingAndGlyphs" textLength="150" x="533" y="839.5781">Or share the LDAP entry</text><polygon fill="#A80036" points="728.5,873.3203,718.5,877.3203,728.5,881.3203,724.5,877.3203" style="stroke: #A80036; stroke-width: 1.0;"/><line style="stroke: #A80036; stroke-width: 1.0;" x1="722.5" x2="1195.5" y1="877.3203" y2="877.3203"/><text fill="#000000" font-family="sans-serif" font-size="13" font-weight="bold" lengthAdjust="spacingAndGlyphs" textLength="18" x="734.5" y="872.8887">20</text><text fill="#000000" font-family="sans-serif" font-size="13" lengthAdjust="spacingAndGlyphs" textLength="37" x="756.5" y="872.8887">Ready</text><polygon fill="#A80036" points="943.5,902.6309,953.5,906.6309,943.5,910.6309,947.5,906.6309" style="stroke: #A80036; stroke-width: 1.0;"/><line style="stroke: #A80036; stroke-width: 1.0;" x1="717.5" x2="949.5" y1="906.6309" y2="906.6309"/><text fill="#000000" font-family="sans-serif" font-size="13" font-weight="bold" lengthAdjust="spacingAndGlyphs" textLength="18" x="724.5" y="902.1992">21</text><text fill="#000000" font-family="sans-serif" font-size="13" lengthAdjust="spacingAndGlyphs" textLength="74" x="746.5" y="902.1992">Cache hints</text></g></svg>