<?xml version="1.0" encoding="UTF-8" standalone="no"?><svg xmlns="http://www.w3.org/2000/svg" xmlns:xlink="http://www.w3.org/1999/xlink" contentScriptType="application/ecmascript" contentStyleType="text/css" height="1132px" preserveAspectRatio="none" style="width:1000px;height:1132px;" version="1.1" viewBox="0 0 1000 1132" width="1000px" zoomAndPan="magnify"><defs><filter height="300%" id="fyl10yt" width="300%" x="-1" y="-1"><feGaussianBlur result="blurOut" stdDeviation="2.0"/><feColorMatrix in="blurOut" result="blurOut2" type="matrix" values="0 0 0 0 0 0 0 0 0 0 0 0 0 0 0 0 0 0 .4 0"/><feOffset dx="4.0" dy="4.0" in="blurOut2" result="blurOut3"/><feBlend in="SourceGraphic" in2="blurOut3" mode="normal"/></filter></defs><g><rect fill="#FFFFFF" filter="url(#fyl10yt)" height="360.416" style="stroke: #A80036; stroke-width: 1.0;" width="10" x="21.5" y="117.4883"/><rect fill="#FFFFFF" filter="url(#fyl10yt)" height="29.3105" style="stroke: #A80036; stroke-width: 1.0;" width="10" x="80" y="190.1094"/><rect fill="#FFFFFF" filter="url(#fyl10yt)" height="462.3477" style="stroke: #A80036; stroke-width: 1.0;" width="10" x="273" y="117.4883"/><rect fill="#FFFFFF" filter="url(#fyl10yt)" height="479.6582" style="stroke: #A80036; stroke-width: 1.0;" width="10" x="476" y="550.5254"/><rect fill="#FFFFFF" filter="url(#fyl10yt)" height="29.3105" style="stroke: #A80036; stroke-width: 1.0;" width="10" x="703" y="248.7305"/><rect fill="#FFFFFF" filter="url(#fyl10yt)" height="30" style="stroke: #A80036; stroke-width: 1.0;" width="10" x="703" y="1000.1836"/><rect fill="#FFFFFF" filter="url(#fyl10yt)" height="58.6211" style="stroke: #A80036; stroke-width: 1.0;" width="10" x="806" y="667.7676"/><rect fill="#FFFFFF" filter="url(#fyl10yt)" height="58.6211" style="stroke: #A80036; stroke-width: 1.0;" width="10" x="870" y="638.457"/><rect fill="#FFFFFF" filter="url(#fyl10yt)" height="97.9316" style="stroke: #A80036; stroke-width: 1.0;" width="10" x="918.5" y="350.6621"/><rect fill="#FFFFFF" filter="url(#fyl10yt)" height="215.1738" style="stroke: #A80036; stroke-width: 1.0;" width="10" x="918.5" y="755.6992"/><rect fill="#FFFFFF" filter="url(#fyl10yt)" height="34.3105" style="stroke: #A80036; stroke-width: 1.0;" width="10" x="967" y="907.252"/><line style="stroke: #A80036; stroke-width: 1.0; stroke-dasharray: 5.0,5.0;" x1="26" x2="26" y1="86.4883" y2="1048.4941"/><line style="stroke: #A80036; stroke-width: 1.0; stroke-dasharray: 5.0,5.0;" x1="85" x2="85" y1="86.4883" y2="1048.4941"/><line style="stroke: #A80036; stroke-width: 1.0; stroke-dasharray: 5.0,5.0;" x1="277.5" x2="277.5" y1="86.4883" y2="1048.4941"/><line style="stroke: #A80036; stroke-width: 1.0; stroke-dasharray: 5.0,5.0;" x1="481" x2="481" y1="86.4883" y2="1048.4941"/><line style="stroke: #A80036; stroke-width: 1.0; stroke-dasharray: 5.0,5.0;" x1="707.5" x2="707.5" y1="86.4883" y2="1048.4941"/><line style="stroke: #A80036; stroke-width: 1.0; stroke-dasharray: 5.0,5.0;" x1="811" x2="811" y1="86.4883" y2="1048.4941"/><line style="stroke: #A80036; stroke-width: 1.0; stroke-dasharray: 5.0,5.0;" x1="875" x2="875" y1="86.4883" y2="1048.4941"/><line style="stroke: #A80036; stroke-width: 1.0; stroke-dasharray: 5.0,5.0;" x1="923" x2="923" y1="86.4883" y2="1048.4941"/><line style="stroke: #A80036; stroke-width: 1.0; stroke-dasharray: 5.0,5.0;" x1="972" x2="972" y1="86.4883" y2="1048.4941"/><text fill="#000000" font-family="sans-serif" font-size="14" lengthAdjust="spacingAndGlyphs" textLength="31" x="8" y="83.5352">User</text><ellipse cx="26.5" cy="13" fill="#FEFECE" filter="url(#fyl10yt)" rx="8" ry="8" style="stroke: #A80036; stroke-width: 2.0;"/><path d="M26.5,21 L26.5,48 M13.5,29 L39.5,29 M26.5,48 L13.5,63 M26.5,48 L39.5,63 " fill="#FEFECE" filter="url(#fyl10yt)" style="stroke: #A80036; stroke-width: 2.0;"/><text fill="#000000" font-family="sans-serif" font-size="14" lengthAdjust="spacingAndGlyphs" textLength="31" x="8" y="1061.0293">User</text><ellipse cx="26.5" cy="1073.9824" fill="#FEFECE" filter="url(#fyl10yt)" rx="8" ry="8" style="stroke: #A80036; stroke-width: 2.0;"/><path d="M26.5,1081.9824 L26.5,1108.9824 M13.5,1089.9824 L39.5,1089.9824 M26.5,1108.9824 L13.5,1123.9824 M26.5,1108.9824 L39.5,1123.9824 " fill="#FEFECE" filter="url(#fyl10yt)" style="stroke: #A80036; stroke-width: 2.0;"/><rect fill="#FEFECE" filter="url(#fyl10yt)" height="30.4883" style="stroke: #A80036; stroke-width: 1.5;" width="56" x="55" y="51"/><text fill="#000000" font-family="sans-serif" font-size="14" lengthAdjust="spacingAndGlyphs" textLength="42" x="62" y="71.5352">Authn</text><rect fill="#FEFECE" filter="url(#fyl10yt)" height="30.4883" style="stroke: #A80036; stroke-width: 1.5;" width="56" x="55" y="1047.4941"/><text fill="#000000" font-family="sans-serif" font-size="14" lengthAdjust="spacingAndGlyphs" textLength="42" x="62" y="1068.0293">Authn</text><rect fill="#FEFECE" filter="url(#fyl10yt)" height="30.4883" style="stroke: #A80036; stroke-width: 1.5;" width="111" x="220.5" y="51"/><text fill="#000000" font-family="sans-serif" font-size="14" lengthAdjust="spacingAndGlyphs" textLength="97" x="227.5" y="71.5352">IdHub Control</text><rect fill="#FEFECE" filter="url(#fyl10yt)" height="30.4883" style="stroke: #A80036; stroke-width: 1.5;" width="111" x="220.5" y="1047.4941"/><text fill="#000000" font-family="sans-serif" font-size="14" lengthAdjust="spacingAndGlyphs" textLength="97" x="227.5" y="1068.0293">IdHub Control</text><rect fill="#FEFECE" filter="url(#fyl10yt)" height="30.4883" style="stroke: #A80036; stroke-width: 1.5;" width="102" x="428" y="51"/><text fill="#000000" font-family="sans-serif" font-size="14" lengthAdjust="spacingAndGlyphs" textLength="88" x="435" y="71.5352">Key Manager</text><rect fill="#FEFECE" filter="url(#fyl10yt)" height="30.4883" style="stroke: #A80036; stroke-width: 1.5;" width="102" x="428" y="1047.4941"/><text fill="#000000" font-family="sans-serif" font-size="14" lengthAdjust="spacingAndGlyphs" textLength="88" x="435" y="1068.0293">Key Manager</text><rect fill="#FEFECE" filter="url(#fyl10yt)" height="30.4883" style="stroke: #A80036; stroke-width: 1.5;" width="55" x="678.5" y="51"/><text fill="#000000" font-family="sans-serif" font-size="14" lengthAdjust="spacingAndGlyphs" textLength="41" x="685.5" y="71.5352">Authz</text><rect fill="#FEFECE" filter="url(#fyl10yt)" height="30.4883" style="stroke: #A80036; stroke-width: 1.5;" width="55" x="678.5" y="1047.4941"/><text fill="#000000" font-family="sans-serif" font-size="14" lengthAdjust="spacingAndGlyphs" textLength="41" x="685.5" y="1068.0293">Authz</text><text fill="#000000" font-family="sans-serif" font-size="14" lengthAdjust="spacingAndGlyphs" textLength="66" x="775" y="83.5352">PKCS #11</text><path d="M793,34 C793,24 811,24 811,24 C811,24 829,24 829,34 L829,60 C829,70 811,70 811,70 C811,70 793,70 793,60 L793,34 " fill="#FEFECE" filter="url(#fyl10yt)" style="stroke: #000000; stroke-width: 1.5;"/><path d="M793,34 C793,44 811,44 811,44 C811,44 829,44 829,34 " fill="none" style="stroke: #000000; stroke-width: 1.5;"/><text fill="#000000" font-family="sans-serif" font-size="14" lengthAdjust="spacingAndGlyphs" textLength="66" x="775" y="1061.0293">PKCS #11</text><path d="M793,1073.9824 C793,1063.9824 811,1063.9824 811,1063.9824 C811,1063.9824 829,1063.9824 829,1073.9824 L829,1099.9824 C829,1109.9824 811,1109.9824 811,1109.9824 C811,1109.9824 793,1109.9824 793,1099.9824 L793,1073.9824 " fill="#FEFECE" filter="url(#fyl10yt)" style="stroke: #000000; stroke-width: 1.5;"/><path d="M793,1073.9824 C793,1083.9824 811,1083.9824 811,1083.9824 C811,1083.9824 829,1083.9824 829,1073.9824 " fill="none" style="stroke: #000000; stroke-width: 1.5;"/><text fill="#000000" font-family="sans-serif" font-size="14" lengthAdjust="spacingAndGlyphs" textLength="29" x="857.5" y="83.5352">KDC</text><path d="M857,34 C857,24 875,24 875,24 C875,24 893,24 893,34 L893,60 C893,70 875,70 875,70 C875,70 857,70 857,60 L857,34 " fill="#FEFECE" filter="url(#fyl10yt)" style="stroke: #000000; stroke-width: 1.5;"/><path d="M857,34 C857,44 875,44 875,44 C875,44 893,44 893,34 " fill="none" style="stroke: #000000; stroke-width: 1.5;"/><text fill="#000000" font-family="sans-serif" font-size="14" lengthAdjust="spacingAndGlyphs" textLength="29" x="857.5" y="1061.0293">KDC</text><path d="M857,1073.9824 C857,1063.9824 875,1063.9824 875,1063.9824 C875,1063.9824 893,1063.9824 893,1073.9824 L893,1099.9824 C893,1109.9824 875,1109.9824 875,1109.9824 C875,1109.9824 857,1109.9824 857,1099.9824 L857,1073.9824 " fill="#FEFECE" filter="url(#fyl10yt)" style="stroke: #000000; stroke-width: 1.5;"/><path d="M857,1073.9824 C857,1083.9824 875,1083.9824 875,1083.9824 C875,1083.9824 893,1083.9824 893,1073.9824 " fill="none" style="stroke: #000000; stroke-width: 1.5;"/><text fill="#000000" font-family="sans-serif" font-size="14" lengthAdjust="spacingAndGlyphs" textLength="35" x="903" y="83.5352">LDAP</text><path d="M905.5,34 C905.5,24 923.5,24 923.5,24 C923.5,24 941.5,24 941.5,34 L941.5,60 C941.5,70 923.5,70 923.5,70 C923.5,70 905.5,70 905.5,60 L905.5,34 " fill="#FEFECE" filter="url(#fyl10yt)" style="stroke: #000000; stroke-width: 1.5;"/><path d="M905.5,34 C905.5,44 923.5,44 923.5,44 C923.5,44 941.5,44 941.5,34 " fill="none" style="stroke: #000000; stroke-width: 1.5;"/><text fill="#000000" font-family="sans-serif" font-size="14" lengthAdjust="spacingAndGlyphs" textLength="35" x="903" y="1061.0293">LDAP</text><path d="M905.5,1073.9824 C905.5,1063.9824 923.5,1063.9824 923.5,1063.9824 C923.5,1063.9824 941.5,1063.9824 941.5,1073.9824 L941.5,1099.9824 C941.5,1109.9824 923.5,1109.9824 923.5,1109.9824 C923.5,1109.9824 905.5,1109.9824 905.5,1099.9824 L905.5,1073.9824 " fill="#FEFECE" filter="url(#fyl10yt)" style="stroke: #000000; stroke-width: 1.5;"/><path d="M905.5,1073.9824 C905.5,1083.9824 923.5,1083.9824 923.5,1083.9824 C923.5,1083.9824 941.5,1083.9824 941.5,1073.9824 " fill="none" style="stroke: #000000; stroke-width: 1.5;"/><text fill="#000000" font-family="sans-serif" font-size="14" lengthAdjust="spacingAndGlyphs" textLength="28" x="955" y="83.5352">DNS</text><path d="M954,34 C954,24 972,24 972,24 C972,24 990,24 990,34 L990,60 C990,70 972,70 972,70 C972,70 954,70 954,60 L954,34 " fill="#FEFECE" filter="url(#fyl10yt)" style="stroke: #000000; stroke-width: 1.5;"/><path d="M954,34 C954,44 972,44 972,44 C972,44 990,44 990,34 " fill="none" style="stroke: #000000; stroke-width: 1.5;"/><text fill="#000000" font-family="sans-serif" font-size="14" lengthAdjust="spacingAndGlyphs" textLength="28" x="955" y="1061.0293">DNS</text><path d="M954,1073.9824 C954,1063.9824 972,1063.9824 972,1063.9824 C972,1063.9824 990,1063.9824 990,1073.9824 L990,1099.9824 C990,1109.9824 972,1109.9824 972,1109.9824 C972,1109.9824 954,1109.9824 954,1099.9824 L954,1073.9824 " fill="#FEFECE" filter="url(#fyl10yt)" style="stroke: #000000; stroke-width: 1.5;"/><path d="M954,1073.9824 C954,1083.9824 972,1083.9824 972,1083.9824 C972,1083.9824 990,1083.9824 990,1073.9824 " fill="none" style="stroke: #000000; stroke-width: 1.5;"/><rect fill="#FFFFFF" filter="url(#fyl10yt)" height="360.416" style="stroke: #A80036; stroke-width: 1.0;" width="10" x="21.5" y="117.4883"/><rect fill="#FFFFFF" filter="url(#fyl10yt)" height="29.3105" style="stroke: #A80036; stroke-width: 1.0;" width="10" x="80" y="190.1094"/><rect fill="#FFFFFF" filter="url(#fyl10yt)" height="462.3477" style="stroke: #A80036; stroke-width: 1.0;" width="10" x="273" y="117.4883"/><rect fill="#FFFFFF" filter="url(#fyl10yt)" height="479.6582" style="stroke: #A80036; stroke-width: 1.0;" width="10" x="476" y="550.5254"/><rect fill="#FFFFFF" filter="url(#fyl10yt)" height="29.3105" style="stroke: #A80036; stroke-width: 1.0;" width="10" x="703" y="248.7305"/><rect fill="#FFFFFF" filter="url(#fyl10yt)" height="30" style="stroke: #A80036; stroke-width: 1.0;" width="10" x="703" y="1000.1836"/><rect fill="#FFFFFF" filter="url(#fyl10yt)" height="58.6211" style="stroke: #A80036; stroke-width: 1.0;" width="10" x="806" y="667.7676"/><rect fill="#FFFFFF" filter="url(#fyl10yt)" height="58.6211" style="stroke: #A80036; stroke-width: 1.0;" width="10" x="870" y="638.457"/><rect fill="#FFFFFF" filter="url(#fyl10yt)" height="97.9316" style="stroke: #A80036; stroke-width: 1.0;" width="10" x="918.5" y="350.6621"/><rect fill="#FFFFFF" filter="url(#fyl10yt)" height="215.1738" style="stroke: #A80036; stroke-width: 1.0;" width="10" x="918.5" y="755.6992"/><rect fill="#FFFFFF" filter="url(#fyl10yt)" height="34.3105" style="stroke: #A80036; stroke-width: 1.0;" width="10" x="967" y="907.252"/><polygon fill="#A80036" points="261,113.4883,271,117.4883,261,121.4883,265,117.4883" style="stroke: #A80036; stroke-width: 1.0;"/><line style="stroke: #A80036; stroke-width: 1.0;" x1="31.5" x2="267" y1="117.4883" y2="117.4883"/><text fill="#000000" font-family="sans-serif" font-size="13" font-weight="bold" lengthAdjust="spacingAndGlyphs" textLength="9" x="38.5" y="113.0566">1</text><text fill="#000000" font-family="sans-serif" font-size="13" lengthAdjust="spacingAndGlyphs" textLength="191" x="51.5" y="113.0566">Pseudonym Del psew@domain</text><rect fill="#EEEEEE" filter="url(#fyl10yt)" height="3" style="stroke: #EEEEEE; stroke-width: 1.0;" width="992" x="3" y="146.4541"/><line style="stroke: #000000; stroke-width: 1.0;" x1="3" x2="995" y1="146.4541" y2="146.4541"/><line style="stroke: #000000; stroke-width: 1.0;" x1="3" x2="995" y1="149.4541" y2="149.4541"/><rect fill="#EEEEEE" filter="url(#fyl10yt)" height="23.3105" style="stroke: #000000; stroke-width: 2.0;" width="117" x="440.5" y="135.7988"/><text fill="#000000" font-family="sans-serif" font-size="13" font-weight="bold" lengthAdjust="spacingAndGlyphs" textLength="99" x="446.5" y="152.3672">Access Control</text><polygon fill="#A80036" points="101,186.1094,91,190.1094,101,194.1094,97,190.1094" style="stroke: #A80036; stroke-width: 1.0;"/><line style="stroke: #A80036; stroke-width: 1.0;" x1="95" x2="272" y1="190.1094" y2="190.1094"/><text fill="#000000" font-family="sans-serif" font-size="13" font-weight="bold" lengthAdjust="spacingAndGlyphs" textLength="9" x="107" y="185.6777">2</text><text fill="#000000" font-family="sans-serif" font-size="13" lengthAdjust="spacingAndGlyphs" textLength="136" x="120" y="185.6777">SecureLayer @domain</text><polygon fill="#A80036" points="261,215.4199,271,219.4199,261,223.4199,265,219.4199" style="stroke: #A80036; stroke-width: 1.0;"/><line style="stroke: #A80036; stroke-width: 1.0;" x1="85" x2="267" y1="219.4199" y2="219.4199"/><text fill="#000000" font-family="sans-serif" font-size="13" font-weight="bold" lengthAdjust="spacingAndGlyphs" textLength="9" x="92" y="214.9883">3</text><text fill="#000000" font-family="sans-serif" font-size="13" lengthAdjust="spacingAndGlyphs" textLength="146" x="105" y="214.9883">RemoteID you@domain</text><polygon fill="#A80036" points="691,244.7305,701,248.7305,691,252.7305,695,248.7305" style="stroke: #A80036; stroke-width: 1.0;"/><line style="stroke: #A80036; stroke-width: 1.0;" x1="283" x2="697" y1="248.7305" y2="248.7305"/><text fill="#000000" font-family="sans-serif" font-size="13" font-weight="bold" lengthAdjust="spacingAndGlyphs" textLength="9" x="290" y="244.2988">4</text><text fill="#000000" font-family="sans-serif" font-size="13" lengthAdjust="spacingAndGlyphs" textLength="388" x="303" y="244.2988">WANT pseudonym-delete ON psew@domain AS user@domain</text><polygon fill="#A80036" points="294,274.041,284,278.041,294,282.041,290,278.041" style="stroke: #A80036; stroke-width: 1.0;"/><line style="stroke: #A80036; stroke-width: 1.0;" x1="288" x2="707" y1="278.041" y2="278.041"/><text fill="#000000" font-family="sans-serif" font-size="13" font-weight="bold" lengthAdjust="spacingAndGlyphs" textLength="9" x="300" y="273.6094">5</text><text fill="#000000" font-family="sans-serif" font-size="13" lengthAdjust="spacingAndGlyphs" textLength="144" x="313" y="273.6094">OK FOR user1@domain</text><rect fill="#EEEEEE" filter="url(#fyl10yt)" height="3" style="stroke: #EEEEEE; stroke-width: 1.0;" width="992" x="3" y="307.0068"/><line style="stroke: #000000; stroke-width: 1.0;" x1="3" x2="995" y1="307.0068" y2="307.0068"/><line style="stroke: #000000; stroke-width: 1.0;" x1="3" x2="995" y1="310.0068" y2="310.0068"/><rect fill="#EEEEEE" filter="url(#fyl10yt)" height="23.3105" style="stroke: #000000; stroke-width: 2.0;" width="104" x="447" y="296.3516"/><text fill="#000000" font-family="sans-serif" font-size="13" font-weight="bold" lengthAdjust="spacingAndGlyphs" textLength="86" x="453" y="312.9199">Sanity Check</text><polygon fill="#A80036" points="906.5,346.6621,916.5,350.6621,906.5,354.6621,910.5,350.6621" style="stroke: #A80036; stroke-width: 1.0;"/><line style="stroke: #A80036; stroke-width: 1.0;" x1="283" x2="912.5" y1="350.6621" y2="350.6621"/><text fill="#000000" font-family="sans-serif" font-size="13" font-weight="bold" lengthAdjust="spacingAndGlyphs" textLength="9" x="290" y="346.2305">6</text><text fill="#000000" font-family="sans-serif" font-size="13" lengthAdjust="spacingAndGlyphs" textLength="267" x="303" y="346.2305">Compare psew@domain AS user1@domain</text><polygon fill="#0000FF" points="294,380.9727,284,384.9727,294,388.9727,290,384.9727" style="stroke: #0000FF; stroke-width: 1.0;"/><line style="stroke: #0000FF; stroke-width: 1.0; stroke-dasharray: 2.0,2.0;" x1="288" x2="917.5" y1="384.9727" y2="384.9727"/><text fill="#000000" font-family="sans-serif" font-size="13" font-weight="bold" lengthAdjust="spacingAndGlyphs" textLength="9" x="300" y="380.541">7</text><text fill="#000000" font-family="sans-serif" font-size="13" lengthAdjust="spacingAndGlyphs" textLength="112" x="313" y="380.541">UserID Not Found</text><polygon fill="#FBFB77" filter="url(#fyl10yt)" points="74,363.9727,74,388.9727,264,388.9727,264,373.9727,254,363.9727,74,363.9727" style="stroke: #A80036; stroke-width: 1.0;"/><line style="stroke: #A80036; stroke-width: 1.0;" x1="254" x2="254" y1="363.9727" y2="373.9727"/><line style="stroke: #A80036; stroke-width: 1.0;" x1="264" x2="254" y1="373.9727" y2="373.9727"/><text fill="#0000FF" font-family="sans-serif" font-size="13" lengthAdjust="spacingAndGlyphs" textLength="169" x="80" y="381.541">Alternative flow, fatal error</text><polygon fill="#0000FF" points="42.5,415.2832,32.5,419.2832,42.5,423.2832,38.5,419.2832" style="stroke: #0000FF; stroke-width: 1.0;"/><line style="stroke: #0000FF; stroke-width: 1.0; stroke-dasharray: 2.0,2.0;" x1="36.5" x2="272" y1="419.2832" y2="419.2832"/><text fill="#000000" font-family="sans-serif" font-size="13" font-weight="bold" lengthAdjust="spacingAndGlyphs" textLength="9" x="48.5" y="414.8516">8</text><text fill="#000000" font-family="sans-serif" font-size="13" lengthAdjust="spacingAndGlyphs" textLength="66" x="61.5" y="414.8516">Not Found</text><polygon fill="#A80036" points="294,444.5938,284,448.5938,294,452.5938,290,448.5938" style="stroke: #A80036; stroke-width: 1.0;"/><line style="stroke: #A80036; stroke-width: 1.0;" x1="288" x2="922.5" y1="448.5938" y2="448.5938"/><text fill="#000000" font-family="sans-serif" font-size="13" font-weight="bold" lengthAdjust="spacingAndGlyphs" textLength="9" x="300" y="444.1621">9</text><text fill="#000000" font-family="sans-serif" font-size="13" lengthAdjust="spacingAndGlyphs" textLength="85" x="313" y="444.1621">UserID Found</text><polygon fill="#A80036" points="37.5,473.9043,27.5,477.9043,37.5,481.9043,33.5,477.9043" style="stroke: #A80036; stroke-width: 1.0;"/><line style="stroke: #A80036; stroke-width: 1.0;" x1="31.5" x2="272" y1="477.9043" y2="477.9043"/><text fill="#000000" font-family="sans-serif" font-size="13" font-weight="bold" lengthAdjust="spacingAndGlyphs" textLength="18" x="43.5" y="473.4727">10</text><text fill="#000000" font-family="sans-serif" font-size="13" lengthAdjust="spacingAndGlyphs" textLength="48" x="65.5" y="473.4727">Queued</text><rect fill="#EEEEEE" filter="url(#fyl10yt)" height="3" style="stroke: #EEEEEE; stroke-width: 1.0;" width="992" x="3" y="506.8701"/><line style="stroke: #000000; stroke-width: 1.0;" x1="3" x2="995" y1="506.8701" y2="506.8701"/><line style="stroke: #000000; stroke-width: 1.0;" x1="3" x2="995" y1="509.8701" y2="509.8701"/><rect fill="#EEEEEE" filter="url(#fyl10yt)" height="23.3105" style="stroke: #000000; stroke-width: 2.0;" width="136" x="431" y="496.2148"/><text fill="#000000" font-family="sans-serif" font-size="13" font-weight="bold" lengthAdjust="spacingAndGlyphs" textLength="118" x="437" y="512.7832">Key Management</text><polygon fill="#A80036" points="464,546.5254,474,550.5254,464,554.5254,468,550.5254" style="stroke: #A80036; stroke-width: 1.0;"/><line style="stroke: #A80036; stroke-width: 1.0;" x1="283" x2="470" y1="550.5254" y2="550.5254"/><text fill="#000000" font-family="sans-serif" font-size="13" font-weight="bold" lengthAdjust="spacingAndGlyphs" textLength="18" x="290" y="546.0938">11</text><text fill="#000000" font-family="sans-serif" font-size="13" lengthAdjust="spacingAndGlyphs" textLength="152" x="312" y="546.0938">Drop User user@domain</text><polygon fill="#A80036" points="289,575.8359,279,579.8359,289,583.8359,285,579.8359" style="stroke: #A80036; stroke-width: 1.0;"/><line style="stroke: #A80036; stroke-width: 1.0;" x1="283" x2="475" y1="579.8359" y2="579.8359"/><text fill="#000000" font-family="sans-serif" font-size="13" font-weight="bold" lengthAdjust="spacingAndGlyphs" textLength="18" x="295" y="575.4043">12</text><text fill="#000000" font-family="sans-serif" font-size="13" lengthAdjust="spacingAndGlyphs" textLength="48" x="317" y="575.4043">Queued</text><polygon fill="#A80036" points="863,605.1465,873,609.1465,863,613.1465,867,609.1465" style="stroke: #A80036; stroke-width: 1.0;"/><line style="stroke: #A80036; stroke-width: 1.0;" x1="486" x2="869" y1="609.1465" y2="609.1465"/><text fill="#000000" font-family="sans-serif" font-size="13" font-weight="bold" lengthAdjust="spacingAndGlyphs" textLength="18" x="493" y="604.7148">13</text><text fill="#000000" font-family="sans-serif" font-size="13" lengthAdjust="spacingAndGlyphs" textLength="183" x="515" y="604.7148">Drop Principal psew@domain</text><polygon fill="#A80036" points="858,634.457,868,638.457,858,642.457,862,638.457" style="stroke: #A80036; stroke-width: 1.0;"/><line style="stroke: #A80036; stroke-width: 1.0;" x1="486" x2="864" y1="638.457" y2="638.457"/><text fill="#000000" font-family="sans-serif" font-size="13" font-weight="bold" lengthAdjust="spacingAndGlyphs" textLength="18" x="493" y="634.0254">14</text><text fill="#000000" font-family="sans-serif" font-size="13" lengthAdjust="spacingAndGlyphs" textLength="212" x="515" y="634.0254">Drop Principals psew+...@domain</text><polygon fill="#A80036" points="794,663.7676,804,667.7676,794,671.7676,798,667.7676" style="stroke: #A80036; stroke-width: 1.0;"/><line style="stroke: #A80036; stroke-width: 1.0;" x1="486" x2="800" y1="667.7676" y2="667.7676"/><text fill="#000000" font-family="sans-serif" font-size="13" font-weight="bold" lengthAdjust="spacingAndGlyphs" textLength="18" x="493" y="663.3359">15</text><text fill="#000000" font-family="sans-serif" font-size="13" lengthAdjust="spacingAndGlyphs" textLength="279" x="515" y="663.3359">Drop Layer psew@domain AS user1@domain</text><polygon fill="#A80036" points="497,693.0781,487,697.0781,497,701.0781,493,697.0781" style="stroke: #A80036; stroke-width: 1.0;"/><line style="stroke: #A80036; stroke-width: 1.0;" x1="491" x2="874" y1="697.0781" y2="697.0781"/><text fill="#000000" font-family="sans-serif" font-size="13" font-weight="bold" lengthAdjust="spacingAndGlyphs" textLength="18" x="503" y="692.6465">16</text><text fill="#000000" font-family="sans-serif" font-size="13" lengthAdjust="spacingAndGlyphs" textLength="18" x="525" y="692.6465">OK</text><polygon fill="#A80036" points="497,722.3887,487,726.3887,497,730.3887,493,726.3887" style="stroke: #A80036; stroke-width: 1.0;"/><line style="stroke: #A80036; stroke-width: 1.0;" x1="491" x2="810" y1="726.3887" y2="726.3887"/><text fill="#000000" font-family="sans-serif" font-size="13" font-weight="bold" lengthAdjust="spacingAndGlyphs" textLength="18" x="503" y="721.957">17</text><text fill="#000000" font-family="sans-serif" font-size="13" lengthAdjust="spacingAndGlyphs" textLength="37" x="525" y="721.957">Ready</text><polygon fill="#A80036" points="906.5,751.6992,916.5,755.6992,906.5,759.6992,910.5,755.6992" style="stroke: #A80036; stroke-width: 1.0;"/><line style="stroke: #A80036; stroke-width: 1.0;" x1="486" x2="912.5" y1="755.6992" y2="755.6992"/><text fill="#000000" font-family="sans-serif" font-size="13" font-weight="bold" lengthAdjust="spacingAndGlyphs" textLength="18" x="493" y="751.2676">18</text><text fill="#000000" font-family="sans-serif" font-size="13" lengthAdjust="spacingAndGlyphs" textLength="304" x="515" y="751.2676">Drop Creds for psew@domain AS user1@domain</text><polygon fill="#A80036" points="906.5,781.0098,916.5,785.0098,906.5,789.0098,910.5,785.0098" style="stroke: #A80036; stroke-width: 1.0;"/><line style="stroke: #A80036; stroke-width: 1.0;" x1="486" x2="912.5" y1="785.0098" y2="785.0098"/><text fill="#000000" font-family="sans-serif" font-size="13" font-weight="bold" lengthAdjust="spacingAndGlyphs" textLength="18" x="493" y="780.5781">19</text><text fill="#000000" font-family="sans-serif" font-size="13" lengthAdjust="spacingAndGlyphs" textLength="326" x="515" y="780.5781">Drop Creds for psew+...@domain AS user1@domain</text><polygon fill="#A80036" points="906.5,810.3203,916.5,814.3203,906.5,818.3203,910.5,814.3203" style="stroke: #A80036; stroke-width: 1.0;"/><line style="stroke: #A80036; stroke-width: 1.0;" x1="486" x2="912.5" y1="814.3203" y2="814.3203"/><text fill="#000000" font-family="sans-serif" font-size="13" font-weight="bold" lengthAdjust="spacingAndGlyphs" textLength="18" x="493" y="809.8887">20</text><text fill="#000000" font-family="sans-serif" font-size="13" lengthAdjust="spacingAndGlyphs" textLength="255" x="515" y="809.8887">Drop pkcs11:xxx;y;zz AS user1@domain</text><polygon fill="#A80036" points="906.5,839.6309,916.5,843.6309,906.5,847.6309,910.5,843.6309" style="stroke: #A80036; stroke-width: 1.0;"/><line style="stroke: #A80036; stroke-width: 1.0;" x1="486" x2="912.5" y1="843.6309" y2="843.6309"/><text fill="#000000" font-family="sans-serif" font-size="13" font-weight="bold" lengthAdjust="spacingAndGlyphs" textLength="18" x="493" y="839.1992">21</text><text fill="#000000" font-family="sans-serif" font-size="13" lengthAdjust="spacingAndGlyphs" textLength="242" x="515" y="839.1992">Drop psew@domain AS user1@domain</text><polygon fill="#A80036" points="906.5,868.9414,916.5,872.9414,906.5,876.9414,910.5,872.9414" style="stroke: #A80036; stroke-width: 1.0;"/><line style="stroke: #A80036; stroke-width: 1.0;" x1="486" x2="912.5" y1="872.9414" y2="872.9414"/><text fill="#000000" font-family="sans-serif" font-size="13" font-weight="bold" lengthAdjust="spacingAndGlyphs" textLength="18" x="493" y="868.5098">22</text><text fill="#000000" font-family="sans-serif" font-size="13" lengthAdjust="spacingAndGlyphs" textLength="264" x="515" y="868.5098">Drop psew+...@domain AS user1@domain</text><polygon fill="#0000FF" points="955,903.252,965,907.252,955,911.252,959,907.252" style="stroke: #0000FF; stroke-width: 1.0;"/><line style="stroke: #0000FF; stroke-width: 1.0; stroke-dasharray: 2.0,2.0;" x1="486" x2="961" y1="907.252" y2="907.252"/><text fill="#000000" font-family="sans-serif" font-size="13" font-weight="bold" lengthAdjust="spacingAndGlyphs" textLength="18" x="493" y="902.8203">23</text><text fill="#000000" font-family="sans-serif" font-size="13" lengthAdjust="spacingAndGlyphs" textLength="234" x="515" y="902.8203">Drop TLSA records AS user1@domain</text><polygon fill="#FBFB77" filter="url(#fyl10yt)" points="323,886.252,323,911.252,467,911.252,467,896.252,457,886.252,323,886.252" style="stroke: #A80036; stroke-width: 1.0;"/><line style="stroke: #A80036; stroke-width: 1.0;" x1="457" x2="457" y1="886.252" y2="896.252"/><line style="stroke: #A80036; stroke-width: 1.0;" x1="467" x2="457" y1="896.252" y2="896.252"/><text fill="#0000FF" font-family="sans-serif" font-size="13" lengthAdjust="spacingAndGlyphs" textLength="123" x="329" y="903.8203">TLSA only for hosts</text><polygon fill="#0000FF" points="497,937.5625,487,941.5625,497,945.5625,493,941.5625" style="stroke: #0000FF; stroke-width: 1.0;"/><line style="stroke: #0000FF; stroke-width: 1.0; stroke-dasharray: 2.0,2.0;" x1="491" x2="971" y1="941.5625" y2="941.5625"/><text fill="#000000" font-family="sans-serif" font-size="13" font-weight="bold" lengthAdjust="spacingAndGlyphs" textLength="18" x="503" y="937.1309">24</text><text fill="#000000" font-family="sans-serif" font-size="13" lengthAdjust="spacingAndGlyphs" textLength="48" x="525" y="937.1309">Queued</text><polygon fill="#A80036" points="497,966.873,487,970.873,497,974.873,493,970.873" style="stroke: #A80036; stroke-width: 1.0;"/><line style="stroke: #A80036; stroke-width: 1.0;" x1="491" x2="922.5" y1="970.873" y2="970.873"/><text fill="#000000" font-family="sans-serif" font-size="13" font-weight="bold" lengthAdjust="spacingAndGlyphs" textLength="18" x="503" y="966.4414">25</text><text fill="#000000" font-family="sans-serif" font-size="13" lengthAdjust="spacingAndGlyphs" textLength="37" x="525" y="966.4414">Ready</text><polygon fill="#A80036" points="691,996.1836,701,1000.1836,691,1004.1836,695,1000.1836" style="stroke: #A80036; stroke-width: 1.0;"/><line style="stroke: #A80036; stroke-width: 1.0;" x1="486" x2="697" y1="1000.1836" y2="1000.1836"/><text fill="#000000" font-family="sans-serif" font-size="13" font-weight="bold" lengthAdjust="spacingAndGlyphs" textLength="18" x="493" y="995.752">26</text><text fill="#000000" font-family="sans-serif" font-size="13" lengthAdjust="spacingAndGlyphs" textLength="74" x="515" y="995.752">Cache hints</text></g></svg>