<?xml version="1.0" encoding="UTF-8" standalone="no"?><svg xmlns="http://www.w3.org/2000/svg" xmlns:xlink="http://www.w3.org/1999/xlink" contentScriptType="application/ecmascript" contentStyleType="text/css" height="1234px" preserveAspectRatio="none" style="width:1009px;height:1234px;" version="1.1" viewBox="0 0 1009 1234" width="1009px" zoomAndPan="magnify"><defs><filter height="300%" id="fe21lbt" width="300%" x="-1" y="-1"><feGaussianBlur result="blurOut" stdDeviation="2.0"/><feColorMatrix in="blurOut" result="blurOut2" type="matrix" values="0 0 0 0 0 0 0 0 0 0 0 0 0 0 0 0 0 0 .4 0"/><feOffset dx="4.0" dy="4.0" in="blurOut2" result="blurOut3"/><feBlend in="SourceGraphic" in2="blurOut3" mode="normal"/></filter></defs><g><rect fill="#FFFFFF" filter="url(#fe21lbt)" height="360.416" style="stroke: #A80036; stroke-width: 1.0;" width="10" x="21.5" y="117.4883"/><rect fill="#FFFFFF" filter="url(#fe21lbt)" height="29.3105" style="stroke: #A80036; stroke-width: 1.0;" width="10" x="80" y="190.1094"/><rect fill="#FFFFFF" filter="url(#fe21lbt)" height="462.3477" style="stroke: #A80036; stroke-width: 1.0;" width="10" x="277" y="117.4883"/><rect fill="#FFFFFF" filter="url(#fe21lbt)" height="581.2793" style="stroke: #A80036; stroke-width: 1.0;" width="10" x="485" y="550.5254"/><rect fill="#FFFFFF" filter="url(#fe21lbt)" height="28" style="stroke: #A80036; stroke-width: 1.0;" width="10" x="490" y="822.3203"/><rect fill="#FFFFFF" filter="url(#fe21lbt)" height="29.3105" style="stroke: #A80036; stroke-width: 1.0;" width="10" x="724" y="248.7305"/><rect fill="#FFFFFF" filter="url(#fe21lbt)" height="30" style="stroke: #A80036; stroke-width: 1.0;" width="10" x="724" y="1101.8047"/><rect fill="#FFFFFF" filter="url(#fe21lbt)" height="146.5527" style="stroke: #A80036; stroke-width: 1.0;" width="10" x="815" y="638.457"/><rect fill="#FFFFFF" filter="url(#fe21lbt)" height="58.6211" style="stroke: #A80036; stroke-width: 1.0;" width="10" x="879" y="609.1465"/><rect fill="#FFFFFF" filter="url(#fe21lbt)" height="97.9316" style="stroke: #A80036; stroke-width: 1.0;" width="10" x="927.5" y="350.6621"/><rect fill="#FFFFFF" filter="url(#fe21lbt)" height="185.8633" style="stroke: #A80036; stroke-width: 1.0;" width="10" x="927.5" y="886.6309"/><rect fill="#FFFFFF" filter="url(#fe21lbt)" height="34.3105" style="stroke: #A80036; stroke-width: 1.0;" width="10" x="976" y="1008.873"/><line style="stroke: #A80036; stroke-width: 1.0; stroke-dasharray: 5.0,5.0;" x1="26" x2="26" y1="86.4883" y2="1150.1152"/><line style="stroke: #A80036; stroke-width: 1.0; stroke-dasharray: 5.0,5.0;" x1="85" x2="85" y1="86.4883" y2="1150.1152"/><line style="stroke: #A80036; stroke-width: 1.0; stroke-dasharray: 5.0,5.0;" x1="281.5" x2="281.5" y1="86.4883" y2="1150.1152"/><line style="stroke: #A80036; stroke-width: 1.0; stroke-dasharray: 5.0,5.0;" x1="490" x2="490" y1="86.4883" y2="1150.1152"/><line style="stroke: #A80036; stroke-width: 1.0; stroke-dasharray: 5.0,5.0;" x1="728.5" x2="728.5" y1="86.4883" y2="1150.1152"/><line style="stroke: #A80036; stroke-width: 1.0; stroke-dasharray: 5.0,5.0;" x1="820" x2="820" y1="86.4883" y2="1150.1152"/><line style="stroke: #A80036; stroke-width: 1.0; stroke-dasharray: 5.0,5.0;" x1="884" x2="884" y1="86.4883" y2="1150.1152"/><line style="stroke: #A80036; stroke-width: 1.0; stroke-dasharray: 5.0,5.0;" x1="932" x2="932" y1="86.4883" y2="1150.1152"/><line style="stroke: #A80036; stroke-width: 1.0; stroke-dasharray: 5.0,5.0;" x1="981" x2="981" y1="86.4883" y2="1150.1152"/><text fill="#000000" font-family="sans-serif" font-size="14" lengthAdjust="spacingAndGlyphs" textLength="31" x="8" y="83.5352">User</text><ellipse cx="26.5" cy="13" fill="#FEFECE" filter="url(#fe21lbt)" rx="8" ry="8" style="stroke: #A80036; stroke-width: 2.0;"/><path d="M26.5,21 L26.5,48 M13.5,29 L39.5,29 M26.5,48 L13.5,63 M26.5,48 L39.5,63 " fill="#FEFECE" filter="url(#fe21lbt)" style="stroke: #A80036; stroke-width: 2.0;"/><text fill="#000000" font-family="sans-serif" font-size="14" lengthAdjust="spacingAndGlyphs" textLength="31" x="8" y="1162.6504">User</text><ellipse cx="26.5" cy="1175.6035" fill="#FEFECE" filter="url(#fe21lbt)" rx="8" ry="8" style="stroke: #A80036; stroke-width: 2.0;"/><path d="M26.5,1183.6035 L26.5,1210.6035 M13.5,1191.6035 L39.5,1191.6035 M26.5,1210.6035 L13.5,1225.6035 M26.5,1210.6035 L39.5,1225.6035 " fill="#FEFECE" filter="url(#fe21lbt)" style="stroke: #A80036; stroke-width: 2.0;"/><rect fill="#FEFECE" filter="url(#fe21lbt)" height="30.4883" style="stroke: #A80036; stroke-width: 1.5;" width="56" x="55" y="51"/><text fill="#000000" font-family="sans-serif" font-size="14" lengthAdjust="spacingAndGlyphs" textLength="42" x="62" y="71.5352">Authn</text><rect fill="#FEFECE" filter="url(#fe21lbt)" height="30.4883" style="stroke: #A80036; stroke-width: 1.5;" width="56" x="55" y="1149.1152"/><text fill="#000000" font-family="sans-serif" font-size="14" lengthAdjust="spacingAndGlyphs" textLength="42" x="62" y="1169.6504">Authn</text><rect fill="#FEFECE" filter="url(#fe21lbt)" height="30.4883" style="stroke: #A80036; stroke-width: 1.5;" width="111" x="224.5" y="51"/><text fill="#000000" font-family="sans-serif" font-size="14" lengthAdjust="spacingAndGlyphs" textLength="97" x="231.5" y="71.5352">IdHub Control</text><rect fill="#FEFECE" filter="url(#fe21lbt)" height="30.4883" style="stroke: #A80036; stroke-width: 1.5;" width="111" x="224.5" y="1149.1152"/><text fill="#000000" font-family="sans-serif" font-size="14" lengthAdjust="spacingAndGlyphs" textLength="97" x="231.5" y="1169.6504">IdHub Control</text><rect fill="#FEFECE" filter="url(#fe21lbt)" height="30.4883" style="stroke: #A80036; stroke-width: 1.5;" width="102" x="437" y="51"/><text fill="#000000" font-family="sans-serif" font-size="14" lengthAdjust="spacingAndGlyphs" textLength="88" x="444" y="71.5352">Key Manager</text><rect fill="#FEFECE" filter="url(#fe21lbt)" height="30.4883" style="stroke: #A80036; stroke-width: 1.5;" width="102" x="437" y="1149.1152"/><text fill="#000000" font-family="sans-serif" font-size="14" lengthAdjust="spacingAndGlyphs" textLength="88" x="444" y="1169.6504">Key Manager</text><rect fill="#FEFECE" filter="url(#fe21lbt)" height="30.4883" style="stroke: #A80036; stroke-width: 1.5;" width="55" x="699.5" y="51"/><text fill="#000000" font-family="sans-serif" font-size="14" lengthAdjust="spacingAndGlyphs" textLength="41" x="706.5" y="71.5352">Authz</text><rect fill="#FEFECE" filter="url(#fe21lbt)" height="30.4883" style="stroke: #A80036; stroke-width: 1.5;" width="55" x="699.5" y="1149.1152"/><text fill="#000000" font-family="sans-serif" font-size="14" lengthAdjust="spacingAndGlyphs" textLength="41" x="706.5" y="1169.6504">Authz</text><text fill="#000000" font-family="sans-serif" font-size="14" lengthAdjust="spacingAndGlyphs" textLength="66" x="784" y="83.5352">PKCS #11</text><path d="M802,34 C802,24 820,24 820,24 C820,24 838,24 838,34 L838,60 C838,70 820,70 820,70 C820,70 802,70 802,60 L802,34 " fill="#FEFECE" filter="url(#fe21lbt)" style="stroke: #000000; stroke-width: 1.5;"/><path d="M802,34 C802,44 820,44 820,44 C820,44 838,44 838,34 " fill="none" style="stroke: #000000; stroke-width: 1.5;"/><text fill="#000000" font-family="sans-serif" font-size="14" lengthAdjust="spacingAndGlyphs" textLength="66" x="784" y="1162.6504">PKCS #11</text><path d="M802,1175.6035 C802,1165.6035 820,1165.6035 820,1165.6035 C820,1165.6035 838,1165.6035 838,1175.6035 L838,1201.6035 C838,1211.6035 820,1211.6035 820,1211.6035 C820,1211.6035 802,1211.6035 802,1201.6035 L802,1175.6035 " fill="#FEFECE" filter="url(#fe21lbt)" style="stroke: #000000; stroke-width: 1.5;"/><path d="M802,1175.6035 C802,1185.6035 820,1185.6035 820,1185.6035 C820,1185.6035 838,1185.6035 838,1175.6035 " fill="none" style="stroke: #000000; stroke-width: 1.5;"/><text fill="#000000" font-family="sans-serif" font-size="14" lengthAdjust="spacingAndGlyphs" textLength="29" x="866.5" y="83.5352">KDC</text><path d="M866,34 C866,24 884,24 884,24 C884,24 902,24 902,34 L902,60 C902,70 884,70 884,70 C884,70 866,70 866,60 L866,34 " fill="#FEFECE" filter="url(#fe21lbt)" style="stroke: #000000; stroke-width: 1.5;"/><path d="M866,34 C866,44 884,44 884,44 C884,44 902,44 902,34 " fill="none" style="stroke: #000000; stroke-width: 1.5;"/><text fill="#000000" font-family="sans-serif" font-size="14" lengthAdjust="spacingAndGlyphs" textLength="29" x="866.5" y="1162.6504">KDC</text><path d="M866,1175.6035 C866,1165.6035 884,1165.6035 884,1165.6035 C884,1165.6035 902,1165.6035 902,1175.6035 L902,1201.6035 C902,1211.6035 884,1211.6035 884,1211.6035 C884,1211.6035 866,1211.6035 866,1201.6035 L866,1175.6035 " fill="#FEFECE" filter="url(#fe21lbt)" style="stroke: #000000; stroke-width: 1.5;"/><path d="M866,1175.6035 C866,1185.6035 884,1185.6035 884,1185.6035 C884,1185.6035 902,1185.6035 902,1175.6035 " fill="none" style="stroke: #000000; stroke-width: 1.5;"/><text fill="#000000" font-family="sans-serif" font-size="14" lengthAdjust="spacingAndGlyphs" textLength="35" x="912" y="83.5352">LDAP</text><path d="M914.5,34 C914.5,24 932.5,24 932.5,24 C932.5,24 950.5,24 950.5,34 L950.5,60 C950.5,70 932.5,70 932.5,70 C932.5,70 914.5,70 914.5,60 L914.5,34 " fill="#FEFECE" filter="url(#fe21lbt)" style="stroke: #000000; stroke-width: 1.5;"/><path d="M914.5,34 C914.5,44 932.5,44 932.5,44 C932.5,44 950.5,44 950.5,34 " fill="none" style="stroke: #000000; stroke-width: 1.5;"/><text fill="#000000" font-family="sans-serif" font-size="14" lengthAdjust="spacingAndGlyphs" textLength="35" x="912" y="1162.6504">LDAP</text><path d="M914.5,1175.6035 C914.5,1165.6035 932.5,1165.6035 932.5,1165.6035 C932.5,1165.6035 950.5,1165.6035 950.5,1175.6035 L950.5,1201.6035 C950.5,1211.6035 932.5,1211.6035 932.5,1211.6035 C932.5,1211.6035 914.5,1211.6035 914.5,1201.6035 L914.5,1175.6035 " fill="#FEFECE" filter="url(#fe21lbt)" style="stroke: #000000; stroke-width: 1.5;"/><path d="M914.5,1175.6035 C914.5,1185.6035 932.5,1185.6035 932.5,1185.6035 C932.5,1185.6035 950.5,1185.6035 950.5,1175.6035 " fill="none" style="stroke: #000000; stroke-width: 1.5;"/><text fill="#000000" font-family="sans-serif" font-size="14" lengthAdjust="spacingAndGlyphs" textLength="28" x="964" y="83.5352">DNS</text><path d="M963,34 C963,24 981,24 981,24 C981,24 999,24 999,34 L999,60 C999,70 981,70 981,70 C981,70 963,70 963,60 L963,34 " fill="#FEFECE" filter="url(#fe21lbt)" style="stroke: #000000; stroke-width: 1.5;"/><path d="M963,34 C963,44 981,44 981,44 C981,44 999,44 999,34 " fill="none" style="stroke: #000000; stroke-width: 1.5;"/><text fill="#000000" font-family="sans-serif" font-size="14" lengthAdjust="spacingAndGlyphs" textLength="28" x="964" y="1162.6504">DNS</text><path d="M963,1175.6035 C963,1165.6035 981,1165.6035 981,1165.6035 C981,1165.6035 999,1165.6035 999,1175.6035 L999,1201.6035 C999,1211.6035 981,1211.6035 981,1211.6035 C981,1211.6035 963,1211.6035 963,1201.6035 L963,1175.6035 " fill="#FEFECE" filter="url(#fe21lbt)" style="stroke: #000000; stroke-width: 1.5;"/><path d="M963,1175.6035 C963,1185.6035 981,1185.6035 981,1185.6035 C981,1185.6035 999,1185.6035 999,1175.6035 " fill="none" style="stroke: #000000; stroke-width: 1.5;"/><rect fill="#FFFFFF" filter="url(#fe21lbt)" height="360.416" style="stroke: #A80036; stroke-width: 1.0;" width="10" x="21.5" y="117.4883"/><rect fill="#FFFFFF" filter="url(#fe21lbt)" height="29.3105" style="stroke: #A80036; stroke-width: 1.0;" width="10" x="80" y="190.1094"/><rect fill="#FFFFFF" filter="url(#fe21lbt)" height="462.3477" style="stroke: #A80036; stroke-width: 1.0;" width="10" x="277" y="117.4883"/><rect fill="#FFFFFF" filter="url(#fe21lbt)" height="581.2793" style="stroke: #A80036; stroke-width: 1.0;" width="10" x="485" y="550.5254"/><rect fill="#FFFFFF" filter="url(#fe21lbt)" height="28" style="stroke: #A80036; stroke-width: 1.0;" width="10" x="490" y="822.3203"/><rect fill="#FFFFFF" filter="url(#fe21lbt)" height="29.3105" style="stroke: #A80036; stroke-width: 1.0;" width="10" x="724" y="248.7305"/><rect fill="#FFFFFF" filter="url(#fe21lbt)" height="30" style="stroke: #A80036; stroke-width: 1.0;" width="10" x="724" y="1101.8047"/><rect fill="#FFFFFF" filter="url(#fe21lbt)" height="146.5527" style="stroke: #A80036; stroke-width: 1.0;" width="10" x="815" y="638.457"/><rect fill="#FFFFFF" filter="url(#fe21lbt)" height="58.6211" style="stroke: #A80036; stroke-width: 1.0;" width="10" x="879" y="609.1465"/><rect fill="#FFFFFF" filter="url(#fe21lbt)" height="97.9316" style="stroke: #A80036; stroke-width: 1.0;" width="10" x="927.5" y="350.6621"/><rect fill="#FFFFFF" filter="url(#fe21lbt)" height="185.8633" style="stroke: #A80036; stroke-width: 1.0;" width="10" x="927.5" y="886.6309"/><rect fill="#FFFFFF" filter="url(#fe21lbt)" height="34.3105" style="stroke: #A80036; stroke-width: 1.0;" width="10" x="976" y="1008.873"/><polygon fill="#A80036" points="265,113.4883,275,117.4883,265,121.4883,269,117.4883" style="stroke: #A80036; stroke-width: 1.0;"/><line style="stroke: #A80036; stroke-width: 1.0;" x1="31.5" x2="271" y1="117.4883" y2="117.4883"/><text fill="#000000" font-family="sans-serif" font-size="13" font-weight="bold" lengthAdjust="spacingAndGlyphs" textLength="9" x="38.5" y="113.0566">1</text><text fill="#000000" font-family="sans-serif" font-size="13" lengthAdjust="spacingAndGlyphs" textLength="195" x="51.5" y="113.0566">Pseudonym Add psew@domain</text><rect fill="#EEEEEE" filter="url(#fe21lbt)" height="3" style="stroke: #EEEEEE; stroke-width: 1.0;" width="1001" x="3" y="146.4541"/><line style="stroke: #000000; stroke-width: 1.0;" x1="3" x2="1004" y1="146.4541" y2="146.4541"/><line style="stroke: #000000; stroke-width: 1.0;" x1="3" x2="1004" y1="149.4541" y2="149.4541"/><rect fill="#EEEEEE" filter="url(#fe21lbt)" height="23.3105" style="stroke: #000000; stroke-width: 2.0;" width="117" x="445" y="135.7988"/><text fill="#000000" font-family="sans-serif" font-size="13" font-weight="bold" lengthAdjust="spacingAndGlyphs" textLength="99" x="451" y="152.3672">Access Control</text><polygon fill="#A80036" points="101,186.1094,91,190.1094,101,194.1094,97,190.1094" style="stroke: #A80036; stroke-width: 1.0;"/><line style="stroke: #A80036; stroke-width: 1.0;" x1="95" x2="276" y1="190.1094" y2="190.1094"/><text fill="#000000" font-family="sans-serif" font-size="13" font-weight="bold" lengthAdjust="spacingAndGlyphs" textLength="9" x="107" y="185.6777">2</text><text fill="#000000" font-family="sans-serif" font-size="13" lengthAdjust="spacingAndGlyphs" textLength="136" x="120" y="185.6777">SecureLayer @domain</text><polygon fill="#A80036" points="265,215.4199,275,219.4199,265,223.4199,269,219.4199" style="stroke: #A80036; stroke-width: 1.0;"/><line style="stroke: #A80036; stroke-width: 1.0;" x1="85" x2="271" y1="219.4199" y2="219.4199"/><text fill="#000000" font-family="sans-serif" font-size="13" font-weight="bold" lengthAdjust="spacingAndGlyphs" textLength="9" x="92" y="214.9883">3</text><text fill="#000000" font-family="sans-serif" font-size="13" lengthAdjust="spacingAndGlyphs" textLength="150" x="105" y="214.9883">RemoteID user@domain</text><polygon fill="#A80036" points="712,244.7305,722,248.7305,712,252.7305,716,248.7305" style="stroke: #A80036; stroke-width: 1.0;"/><line style="stroke: #A80036; stroke-width: 1.0;" x1="287" x2="718" y1="248.7305" y2="248.7305"/><text fill="#000000" font-family="sans-serif" font-size="13" font-weight="bold" lengthAdjust="spacingAndGlyphs" textLength="9" x="294" y="244.2988">4</text><text fill="#000000" font-family="sans-serif" font-size="13" lengthAdjust="spacingAndGlyphs" textLength="383" x="307" y="244.2988">WANT pseudonym-create ON user@domain AS user@domain</text><polygon fill="#A80036" points="298,274.041,288,278.041,298,282.041,294,278.041" style="stroke: #A80036; stroke-width: 1.0;"/><line style="stroke: #A80036; stroke-width: 1.0;" x1="292" x2="728" y1="278.041" y2="278.041"/><text fill="#000000" font-family="sans-serif" font-size="13" font-weight="bold" lengthAdjust="spacingAndGlyphs" textLength="9" x="304" y="273.6094">5</text><text fill="#000000" font-family="sans-serif" font-size="13" lengthAdjust="spacingAndGlyphs" textLength="144" x="317" y="273.6094">OK FOR user1@domain</text><rect fill="#EEEEEE" filter="url(#fe21lbt)" height="3" style="stroke: #EEEEEE; stroke-width: 1.0;" width="1001" x="3" y="307.0068"/><line style="stroke: #000000; stroke-width: 1.0;" x1="3" x2="1004" y1="307.0068" y2="307.0068"/><line style="stroke: #000000; stroke-width: 1.0;" x1="3" x2="1004" y1="310.0068" y2="310.0068"/><rect fill="#EEEEEE" filter="url(#fe21lbt)" height="23.3105" style="stroke: #000000; stroke-width: 2.0;" width="104" x="451.5" y="296.3516"/><text fill="#000000" font-family="sans-serif" font-size="13" font-weight="bold" lengthAdjust="spacingAndGlyphs" textLength="86" x="457.5" y="312.9199">Sanity Check</text><polygon fill="#A80036" points="915.5,346.6621,925.5,350.6621,915.5,354.6621,919.5,350.6621" style="stroke: #A80036; stroke-width: 1.0;"/><line style="stroke: #A80036; stroke-width: 1.0;" x1="287" x2="921.5" y1="350.6621" y2="350.6621"/><text fill="#000000" font-family="sans-serif" font-size="13" font-weight="bold" lengthAdjust="spacingAndGlyphs" textLength="9" x="294" y="346.2305">6</text><text fill="#000000" font-family="sans-serif" font-size="13" lengthAdjust="spacingAndGlyphs" textLength="267" x="307" y="346.2305">Compare psew@domain AS user1@domain</text><polygon fill="#0000FF" points="298,380.9727,288,384.9727,298,388.9727,294,384.9727" style="stroke: #0000FF; stroke-width: 1.0;"/><line style="stroke: #0000FF; stroke-width: 1.0; stroke-dasharray: 2.0,2.0;" x1="292" x2="926.5" y1="384.9727" y2="384.9727"/><text fill="#000000" font-family="sans-serif" font-size="13" font-weight="bold" lengthAdjust="spacingAndGlyphs" textLength="9" x="304" y="380.541">7</text><text fill="#000000" font-family="sans-serif" font-size="13" lengthAdjust="spacingAndGlyphs" textLength="85" x="317" y="380.541">UserID Found</text><polygon fill="#FBFB77" filter="url(#fe21lbt)" points="78,363.9727,78,388.9727,268,388.9727,268,373.9727,258,363.9727,78,363.9727" style="stroke: #A80036; stroke-width: 1.0;"/><line style="stroke: #A80036; stroke-width: 1.0;" x1="258" x2="258" y1="363.9727" y2="373.9727"/><line style="stroke: #A80036; stroke-width: 1.0;" x1="268" x2="258" y1="373.9727" y2="373.9727"/><text fill="#0000FF" font-family="sans-serif" font-size="13" lengthAdjust="spacingAndGlyphs" textLength="169" x="84" y="381.541">Alternative flow, fatal error</text><polygon fill="#0000FF" points="42.5,415.2832,32.5,419.2832,42.5,423.2832,38.5,419.2832" style="stroke: #0000FF; stroke-width: 1.0;"/><line style="stroke: #0000FF; stroke-width: 1.0; stroke-dasharray: 2.0,2.0;" x1="36.5" x2="276" y1="419.2832" y2="419.2832"/><text fill="#000000" font-family="sans-serif" font-size="13" font-weight="bold" lengthAdjust="spacingAndGlyphs" textLength="9" x="48.5" y="414.8516">8</text><text fill="#000000" font-family="sans-serif" font-size="13" lengthAdjust="spacingAndGlyphs" textLength="89" x="61.5" y="414.8516">Already Exists</text><polygon fill="#A80036" points="298,444.5938,288,448.5938,298,452.5938,294,448.5938" style="stroke: #A80036; stroke-width: 1.0;"/><line style="stroke: #A80036; stroke-width: 1.0;" x1="292" x2="931.5" y1="448.5938" y2="448.5938"/><text fill="#000000" font-family="sans-serif" font-size="13" font-weight="bold" lengthAdjust="spacingAndGlyphs" textLength="9" x="304" y="444.1621">9</text><text fill="#000000" font-family="sans-serif" font-size="13" lengthAdjust="spacingAndGlyphs" textLength="112" x="317" y="444.1621">UserID Not Found</text><polygon fill="#A80036" points="37.5,473.9043,27.5,477.9043,37.5,481.9043,33.5,477.9043" style="stroke: #A80036; stroke-width: 1.0;"/><line style="stroke: #A80036; stroke-width: 1.0;" x1="31.5" x2="276" y1="477.9043" y2="477.9043"/><text fill="#000000" font-family="sans-serif" font-size="13" font-weight="bold" lengthAdjust="spacingAndGlyphs" textLength="18" x="43.5" y="473.4727">10</text><text fill="#000000" font-family="sans-serif" font-size="13" lengthAdjust="spacingAndGlyphs" textLength="48" x="65.5" y="473.4727">Queued</text><rect fill="#EEEEEE" filter="url(#fe21lbt)" height="3" style="stroke: #EEEEEE; stroke-width: 1.0;" width="1001" x="3" y="506.8701"/><line style="stroke: #000000; stroke-width: 1.0;" x1="3" x2="1004" y1="506.8701" y2="506.8701"/><line style="stroke: #000000; stroke-width: 1.0;" x1="3" x2="1004" y1="509.8701" y2="509.8701"/><rect fill="#EEEEEE" filter="url(#fe21lbt)" height="23.3105" style="stroke: #000000; stroke-width: 2.0;" width="136" x="435.5" y="496.2148"/><text fill="#000000" font-family="sans-serif" font-size="13" font-weight="bold" lengthAdjust="spacingAndGlyphs" textLength="118" x="441.5" y="512.7832">Key Management</text><polygon fill="#A80036" points="473,546.5254,483,550.5254,473,554.5254,477,550.5254" style="stroke: #A80036; stroke-width: 1.0;"/><line style="stroke: #A80036; stroke-width: 1.0;" x1="287" x2="479" y1="550.5254" y2="550.5254"/><text fill="#000000" font-family="sans-serif" font-size="13" font-weight="bold" lengthAdjust="spacingAndGlyphs" textLength="18" x="294" y="546.0938">11</text><text fill="#000000" font-family="sans-serif" font-size="13" lengthAdjust="spacingAndGlyphs" textLength="157" x="316" y="546.0938">Have User psew@domain</text><polygon fill="#A80036" points="293,575.8359,283,579.8359,293,583.8359,289,579.8359" style="stroke: #A80036; stroke-width: 1.0;"/><line style="stroke: #A80036; stroke-width: 1.0;" x1="287" x2="484" y1="579.8359" y2="579.8359"/><text fill="#000000" font-family="sans-serif" font-size="13" font-weight="bold" lengthAdjust="spacingAndGlyphs" textLength="18" x="299" y="575.4043">12</text><text fill="#000000" font-family="sans-serif" font-size="13" lengthAdjust="spacingAndGlyphs" textLength="48" x="321" y="575.4043">Queued</text><polygon fill="#A80036" points="867,605.1465,877,609.1465,867,613.1465,871,609.1465" style="stroke: #A80036; stroke-width: 1.0;"/><line style="stroke: #A80036; stroke-width: 1.0;" x1="495" x2="873" y1="609.1465" y2="609.1465"/><text fill="#000000" font-family="sans-serif" font-size="13" font-weight="bold" lengthAdjust="spacingAndGlyphs" textLength="18" x="502" y="604.7148">13</text><text fill="#000000" font-family="sans-serif" font-size="13" lengthAdjust="spacingAndGlyphs" textLength="183" x="524" y="604.7148">Have Principal psew@domain</text><polygon fill="#A80036" points="803,634.457,813,638.457,803,642.457,807,638.457" style="stroke: #A80036; stroke-width: 1.0;"/><line style="stroke: #A80036; stroke-width: 1.0;" x1="495" x2="809" y1="638.457" y2="638.457"/><text fill="#000000" font-family="sans-serif" font-size="13" font-weight="bold" lengthAdjust="spacingAndGlyphs" textLength="18" x="502" y="634.0254">14</text><text fill="#000000" font-family="sans-serif" font-size="13" lengthAdjust="spacingAndGlyphs" textLength="279" x="524" y="634.0254">Have Layer psew@domain AS user1@domain</text><polygon fill="#A80036" points="506,663.7676,496,667.7676,506,671.7676,502,667.7676" style="stroke: #A80036; stroke-width: 1.0;"/><line style="stroke: #A80036; stroke-width: 1.0;" x1="500" x2="883" y1="667.7676" y2="667.7676"/><text fill="#000000" font-family="sans-serif" font-size="13" font-weight="bold" lengthAdjust="spacingAndGlyphs" textLength="18" x="512" y="663.3359">15</text><text fill="#000000" font-family="sans-serif" font-size="13" lengthAdjust="spacingAndGlyphs" textLength="18" x="534" y="663.3359">OK</text><polygon fill="#A80036" points="803,693.0781,813,697.0781,803,701.0781,807,697.0781" style="stroke: #A80036; stroke-width: 1.0;"/><line style="stroke: #A80036; stroke-width: 1.0;" x1="495" x2="809" y1="697.0781" y2="697.0781"/><text fill="#000000" font-family="sans-serif" font-size="13" font-weight="bold" lengthAdjust="spacingAndGlyphs" textLength="18" x="502" y="692.6465">16</text><text fill="#000000" font-family="sans-serif" font-size="13" lengthAdjust="spacingAndGlyphs" textLength="158" x="524" y="692.6465">Have Keys psew@domain</text><polygon fill="#A80036" points="506,722.3887,496,726.3887,506,730.3887,502,726.3887" style="stroke: #A80036; stroke-width: 1.0;"/><line style="stroke: #A80036; stroke-width: 1.0;" x1="500" x2="814" y1="726.3887" y2="726.3887"/><text fill="#000000" font-family="sans-serif" font-size="13" font-weight="bold" lengthAdjust="spacingAndGlyphs" textLength="18" x="512" y="721.957">17</text><text fill="#000000" font-family="sans-serif" font-size="13" lengthAdjust="spacingAndGlyphs" textLength="140" x="534" y="721.957">Made pkcs11:xxx;y;zz</text><polygon fill="#A80036" points="803,751.6992,813,755.6992,803,759.6992,807,755.6992" style="stroke: #A80036; stroke-width: 1.0;"/><line style="stroke: #A80036; stroke-width: 1.0;" x1="495" x2="809" y1="755.6992" y2="755.6992"/><text fill="#000000" font-family="sans-serif" font-size="13" font-weight="bold" lengthAdjust="spacingAndGlyphs" textLength="18" x="502" y="751.2676">18</text><text fill="#000000" font-family="sans-serif" font-size="13" lengthAdjust="spacingAndGlyphs" textLength="144" x="524" y="751.2676">Retrieve psew@domain</text><polygon fill="#A80036" points="506,781.0098,496,785.0098,506,789.0098,502,785.0098" style="stroke: #A80036; stroke-width: 1.0;"/><line style="stroke: #A80036; stroke-width: 1.0;" x1="500" x2="819" y1="785.0098" y2="785.0098"/><text fill="#000000" font-family="sans-serif" font-size="13" font-weight="bold" lengthAdjust="spacingAndGlyphs" textLength="18" x="512" y="780.5781">19</text><text fill="#000000" font-family="sans-serif" font-size="13" lengthAdjust="spacingAndGlyphs" textLength="136" x="534" y="780.5781">PubKey MIIEVzCCAz...</text><line style="stroke: #A80036; stroke-width: 1.0;" x1="500" x2="542" y1="814.6309" y2="814.6309"/><line style="stroke: #A80036; stroke-width: 1.0;" x1="542" x2="542" y1="814.6309" y2="827.6309"/><line style="stroke: #A80036; stroke-width: 1.0;" x1="501" x2="542" y1="827.6309" y2="827.6309"/><polygon fill="#A80036" points="511,823.6309,501,827.6309,511,831.6309,507,827.6309" style="stroke: #A80036; stroke-width: 1.0;"/><text fill="#000000" font-family="sans-serif" font-size="13" font-weight="bold" lengthAdjust="spacingAndGlyphs" textLength="18" x="507" y="809.8887">20</text><text fill="#000000" font-family="sans-serif" font-size="13" lengthAdjust="spacingAndGlyphs" textLength="193" x="529" y="809.8887">PubKey MIIEVzCCAz... to Creds</text><polygon fill="#A80036" points="915.5,882.6309,925.5,886.6309,915.5,890.6309,919.5,886.6309" style="stroke: #A80036; stroke-width: 1.0;"/><line style="stroke: #A80036; stroke-width: 1.0;" x1="495" x2="921.5" y1="886.6309" y2="886.6309"/><text fill="#000000" font-family="sans-serif" font-size="13" font-weight="bold" lengthAdjust="spacingAndGlyphs" textLength="18" x="502" y="882.1992">21</text><text fill="#000000" font-family="sans-serif" font-size="13" lengthAdjust="spacingAndGlyphs" textLength="304" x="524" y="882.1992">Have psew@domain XS public AS user1@domain</text><polygon fill="#A80036" points="915.5,911.9414,925.5,915.9414,915.5,919.9414,919.5,915.9414" style="stroke: #A80036; stroke-width: 1.0;"/><line style="stroke: #A80036; stroke-width: 1.0;" x1="495" x2="921.5" y1="915.9414" y2="915.9414"/><text fill="#000000" font-family="sans-serif" font-size="13" font-weight="bold" lengthAdjust="spacingAndGlyphs" textLength="18" x="502" y="911.5098">22</text><text fill="#000000" font-family="sans-serif" font-size="13" lengthAdjust="spacingAndGlyphs" textLength="279" x="524" y="911.5098">Pseudonym psew@domain For user@domain</text><polygon fill="#A80036" points="915.5,941.252,925.5,945.252,915.5,949.252,919.5,945.252" style="stroke: #A80036; stroke-width: 1.0;"/><line style="stroke: #A80036; stroke-width: 1.0;" x1="495" x2="921.5" y1="945.252" y2="945.252"/><text fill="#000000" font-family="sans-serif" font-size="13" font-weight="bold" lengthAdjust="spacingAndGlyphs" textLength="18" x="502" y="940.8203">23</text><text fill="#000000" font-family="sans-serif" font-size="13" lengthAdjust="spacingAndGlyphs" textLength="366" x="524" y="940.8203">Have Creds for psew@domain XS public AS user1@domain</text><polygon fill="#A80036" points="915.5,970.5625,925.5,974.5625,915.5,978.5625,919.5,974.5625" style="stroke: #A80036; stroke-width: 1.0;"/><line style="stroke: #A80036; stroke-width: 1.0;" x1="495" x2="921.5" y1="974.5625" y2="974.5625"/><text fill="#000000" font-family="sans-serif" font-size="13" font-weight="bold" lengthAdjust="spacingAndGlyphs" textLength="18" x="502" y="970.1309">24</text><text fill="#000000" font-family="sans-serif" font-size="13" lengthAdjust="spacingAndGlyphs" textLength="368" x="524" y="970.1309">Have pkcs11:xxx;y;zz XS psew@domain AS user1@domain</text><polygon fill="#0000FF" points="964,1004.873,974,1008.873,964,1012.873,968,1008.873" style="stroke: #0000FF; stroke-width: 1.0;"/><line style="stroke: #0000FF; stroke-width: 1.0; stroke-dasharray: 2.0,2.0;" x1="495" x2="970" y1="1008.873" y2="1008.873"/><text fill="#000000" font-family="sans-serif" font-size="13" font-weight="bold" lengthAdjust="spacingAndGlyphs" textLength="18" x="502" y="1004.4414">25</text><text fill="#000000" font-family="sans-serif" font-size="13" lengthAdjust="spacingAndGlyphs" textLength="234" x="524" y="1004.4414">Have TLSA records AS user1@domain</text><polygon fill="#FBFB77" filter="url(#fe21lbt)" points="332,987.873,332,1012.873,476,1012.873,476,997.873,466,987.873,332,987.873" style="stroke: #A80036; stroke-width: 1.0;"/><line style="stroke: #A80036; stroke-width: 1.0;" x1="466" x2="466" y1="987.873" y2="997.873"/><line style="stroke: #A80036; stroke-width: 1.0;" x1="476" x2="466" y1="997.873" y2="997.873"/><text fill="#0000FF" font-family="sans-serif" font-size="13" lengthAdjust="spacingAndGlyphs" textLength="123" x="338" y="1005.4414">TLSA only for hosts</text><polygon fill="#0000FF" points="506,1039.1836,496,1043.1836,506,1047.1836,502,1043.1836" style="stroke: #0000FF; stroke-width: 1.0;"/><line style="stroke: #0000FF; stroke-width: 1.0; stroke-dasharray: 2.0,2.0;" x1="500" x2="980" y1="1043.1836" y2="1043.1836"/><text fill="#000000" font-family="sans-serif" font-size="13" font-weight="bold" lengthAdjust="spacingAndGlyphs" textLength="18" x="512" y="1038.752">26</text><text fill="#000000" font-family="sans-serif" font-size="13" lengthAdjust="spacingAndGlyphs" textLength="48" x="534" y="1038.752">Queued</text><polygon fill="#A80036" points="506,1068.4941,496,1072.4941,506,1076.4941,502,1072.4941" style="stroke: #A80036; stroke-width: 1.0;"/><line style="stroke: #A80036; stroke-width: 1.0;" x1="500" x2="931.5" y1="1072.4941" y2="1072.4941"/><text fill="#000000" font-family="sans-serif" font-size="13" font-weight="bold" lengthAdjust="spacingAndGlyphs" textLength="18" x="512" y="1068.0625">27</text><text fill="#000000" font-family="sans-serif" font-size="13" lengthAdjust="spacingAndGlyphs" textLength="37" x="534" y="1068.0625">Ready</text><polygon fill="#A80036" points="712,1097.8047,722,1101.8047,712,1105.8047,716,1101.8047" style="stroke: #A80036; stroke-width: 1.0;"/><line style="stroke: #A80036; stroke-width: 1.0;" x1="495" x2="718" y1="1101.8047" y2="1101.8047"/><text fill="#000000" font-family="sans-serif" font-size="13" font-weight="bold" lengthAdjust="spacingAndGlyphs" textLength="18" x="502" y="1097.373">28</text><text fill="#000000" font-family="sans-serif" font-size="13" lengthAdjust="spacingAndGlyphs" textLength="74" x="524" y="1097.373">Cache hints</text></g></svg>