<?xml version="1.0" encoding="UTF-8" standalone="no"?><svg xmlns="http://www.w3.org/2000/svg" xmlns:xlink="http://www.w3.org/1999/xlink" contentScriptType="application/ecmascript" contentStyleType="text/css" height="1039px" preserveAspectRatio="none" style="width:1139px;height:1039px;" version="1.1" viewBox="0 0 1139 1039" width="1139px" zoomAndPan="magnify"><defs><filter height="300%" id="ftxyhn1" width="300%" x="-1" y="-1"><feGaussianBlur result="blurOut" stdDeviation="2.0"/><feColorMatrix in="blurOut" result="blurOut2" type="matrix" values="0 0 0 0 0 0 0 0 0 0 0 0 0 0 0 0 0 0 .4 0"/><feOffset dx="4.0" dy="4.0" in="blurOut2" result="blurOut3"/><feBlend in="SourceGraphic" in2="blurOut3" mode="normal"/></filter></defs><g><rect fill="#FFFFFF" filter="url(#ftxyhn1)" height="360.416" style="stroke: #A80036; stroke-width: 1.0;" width="10" x="21.5" y="117.4883"/><rect fill="#FFFFFF" filter="url(#ftxyhn1)" height="29.3105" style="stroke: #A80036; stroke-width: 1.0;" width="10" x="80" y="190.1094"/><rect fill="#FFFFFF" filter="url(#ftxyhn1)" height="462.3477" style="stroke: #A80036; stroke-width: 1.0;" width="10" x="307" y="117.4883"/><rect fill="#FFFFFF" filter="url(#ftxyhn1)" height="386.1055" style="stroke: #A80036; stroke-width: 1.0;" width="10" x="636" y="550.5254"/><rect fill="#FFFFFF" filter="url(#ftxyhn1)" height="28" style="stroke: #A80036; stroke-width: 1.0;" width="10" x="641" y="715.0781"/><rect fill="#FFFFFF" filter="url(#ftxyhn1)" height="29.3105" style="stroke: #A80036; stroke-width: 1.0;" width="10" x="881" y="248.7305"/><rect fill="#FFFFFF" filter="url(#ftxyhn1)" height="30" style="stroke: #A80036; stroke-width: 1.0;" width="10" x="881" y="906.6309"/><rect fill="#FFFFFF" filter="url(#ftxyhn1)" height="97.9316" style="stroke: #A80036; stroke-width: 1.0;" width="10" x="1104" y="350.6621"/><rect fill="#FFFFFF" filter="url(#ftxyhn1)" height="63.6211" style="stroke: #A80036; stroke-width: 1.0;" width="10" x="1104" y="614.1465"/><rect fill="#FFFFFF" filter="url(#ftxyhn1)" height="97.9316" style="stroke: #A80036; stroke-width: 1.0;" width="10" x="1104" y="779.3887"/><line style="stroke: #A80036; stroke-width: 1.0; stroke-dasharray: 5.0,5.0;" x1="26" x2="26" y1="86.4883" y2="954.9414"/><line style="stroke: #A80036; stroke-width: 1.0; stroke-dasharray: 5.0,5.0;" x1="85" x2="85" y1="86.4883" y2="954.9414"/><line style="stroke: #A80036; stroke-width: 1.0; stroke-dasharray: 5.0,5.0;" x1="311.5" x2="311.5" y1="86.4883" y2="954.9414"/><line style="stroke: #A80036; stroke-width: 1.0; stroke-dasharray: 5.0,5.0;" x1="641" x2="641" y1="86.4883" y2="954.9414"/><line style="stroke: #A80036; stroke-width: 1.0; stroke-dasharray: 5.0,5.0;" x1="885.5" x2="885.5" y1="86.4883" y2="954.9414"/><line style="stroke: #A80036; stroke-width: 1.0; stroke-dasharray: 5.0,5.0;" x1="1108.5" x2="1108.5" y1="86.4883" y2="954.9414"/><text fill="#000000" font-family="sans-serif" font-size="14" lengthAdjust="spacingAndGlyphs" textLength="31" x="8" y="83.5352">User</text><ellipse cx="26.5" cy="13" fill="#FEFECE" filter="url(#ftxyhn1)" rx="8" ry="8" style="stroke: #A80036; stroke-width: 2.0;"/><path d="M26.5,21 L26.5,48 M13.5,29 L39.5,29 M26.5,48 L13.5,63 M26.5,48 L39.5,63 " fill="#FEFECE" filter="url(#ftxyhn1)" style="stroke: #A80036; stroke-width: 2.0;"/><text fill="#000000" font-family="sans-serif" font-size="14" lengthAdjust="spacingAndGlyphs" textLength="31" x="8" y="967.4766">User</text><ellipse cx="26.5" cy="980.4297" fill="#FEFECE" filter="url(#ftxyhn1)" rx="8" ry="8" style="stroke: #A80036; stroke-width: 2.0;"/><path d="M26.5,988.4297 L26.5,1015.4297 M13.5,996.4297 L39.5,996.4297 M26.5,1015.4297 L13.5,1030.4297 M26.5,1015.4297 L39.5,1030.4297 " fill="#FEFECE" filter="url(#ftxyhn1)" style="stroke: #A80036; stroke-width: 2.0;"/><rect fill="#FEFECE" filter="url(#ftxyhn1)" height="30.4883" style="stroke: #A80036; stroke-width: 1.5;" width="56" x="55" y="51"/><text fill="#000000" font-family="sans-serif" font-size="14" lengthAdjust="spacingAndGlyphs" textLength="42" x="62" y="71.5352">Authn</text><rect fill="#FEFECE" filter="url(#ftxyhn1)" height="30.4883" style="stroke: #A80036; stroke-width: 1.5;" width="56" x="55" y="953.9414"/><text fill="#000000" font-family="sans-serif" font-size="14" lengthAdjust="spacingAndGlyphs" textLength="42" x="62" y="974.4766">Authn</text><rect fill="#FEFECE" filter="url(#ftxyhn1)" height="30.4883" style="stroke: #A80036; stroke-width: 1.5;" width="111" x="254.5" y="51"/><text fill="#000000" font-family="sans-serif" font-size="14" lengthAdjust="spacingAndGlyphs" textLength="97" x="261.5" y="71.5352">IdHub Control</text><rect fill="#FEFECE" filter="url(#ftxyhn1)" height="30.4883" style="stroke: #A80036; stroke-width: 1.5;" width="111" x="254.5" y="953.9414"/><text fill="#000000" font-family="sans-serif" font-size="14" lengthAdjust="spacingAndGlyphs" textLength="97" x="261.5" y="974.4766">IdHub Control</text><rect fill="#FEFECE" filter="url(#ftxyhn1)" height="30.4883" style="stroke: #A80036; stroke-width: 1.5;" width="102" x="588" y="51"/><text fill="#000000" font-family="sans-serif" font-size="14" lengthAdjust="spacingAndGlyphs" textLength="88" x="595" y="71.5352">Key Manager</text><rect fill="#FEFECE" filter="url(#ftxyhn1)" height="30.4883" style="stroke: #A80036; stroke-width: 1.5;" width="102" x="588" y="953.9414"/><text fill="#000000" font-family="sans-serif" font-size="14" lengthAdjust="spacingAndGlyphs" textLength="88" x="595" y="974.4766">Key Manager</text><rect fill="#FEFECE" filter="url(#ftxyhn1)" height="30.4883" style="stroke: #A80036; stroke-width: 1.5;" width="55" x="856.5" y="51"/><text fill="#000000" font-family="sans-serif" font-size="14" lengthAdjust="spacingAndGlyphs" textLength="41" x="863.5" y="71.5352">Authz</text><rect fill="#FEFECE" filter="url(#ftxyhn1)" height="30.4883" style="stroke: #A80036; stroke-width: 1.5;" width="55" x="856.5" y="953.9414"/><text fill="#000000" font-family="sans-serif" font-size="14" lengthAdjust="spacingAndGlyphs" textLength="41" x="863.5" y="974.4766">Authz</text><text fill="#000000" font-family="sans-serif" font-size="14" lengthAdjust="spacingAndGlyphs" textLength="35" x="1088.5" y="83.5352">LDAP</text><path d="M1091,34 C1091,24 1109,24 1109,24 C1109,24 1127,24 1127,34 L1127,60 C1127,70 1109,70 1109,70 C1109,70 1091,70 1091,60 L1091,34 " fill="#FEFECE" filter="url(#ftxyhn1)" style="stroke: #000000; stroke-width: 1.5;"/><path d="M1091,34 C1091,44 1109,44 1109,44 C1109,44 1127,44 1127,34 " fill="none" style="stroke: #000000; stroke-width: 1.5;"/><text fill="#000000" font-family="sans-serif" font-size="14" lengthAdjust="spacingAndGlyphs" textLength="35" x="1088.5" y="967.4766">LDAP</text><path d="M1091,980.4297 C1091,970.4297 1109,970.4297 1109,970.4297 C1109,970.4297 1127,970.4297 1127,980.4297 L1127,1006.4297 C1127,1016.4297 1109,1016.4297 1109,1016.4297 C1109,1016.4297 1091,1016.4297 1091,1006.4297 L1091,980.4297 " fill="#FEFECE" filter="url(#ftxyhn1)" style="stroke: #000000; stroke-width: 1.5;"/><path d="M1091,980.4297 C1091,990.4297 1109,990.4297 1109,990.4297 C1109,990.4297 1127,990.4297 1127,980.4297 " fill="none" style="stroke: #000000; stroke-width: 1.5;"/><rect fill="#FFFFFF" filter="url(#ftxyhn1)" height="360.416" style="stroke: #A80036; stroke-width: 1.0;" width="10" x="21.5" y="117.4883"/><rect fill="#FFFFFF" filter="url(#ftxyhn1)" height="29.3105" style="stroke: #A80036; stroke-width: 1.0;" width="10" x="80" y="190.1094"/><rect fill="#FFFFFF" filter="url(#ftxyhn1)" height="462.3477" style="stroke: #A80036; stroke-width: 1.0;" width="10" x="307" y="117.4883"/><rect fill="#FFFFFF" filter="url(#ftxyhn1)" height="386.1055" style="stroke: #A80036; stroke-width: 1.0;" width="10" x="636" y="550.5254"/><rect fill="#FFFFFF" filter="url(#ftxyhn1)" height="28" style="stroke: #A80036; stroke-width: 1.0;" width="10" x="641" y="715.0781"/><rect fill="#FFFFFF" filter="url(#ftxyhn1)" height="29.3105" style="stroke: #A80036; stroke-width: 1.0;" width="10" x="881" y="248.7305"/><rect fill="#FFFFFF" filter="url(#ftxyhn1)" height="30" style="stroke: #A80036; stroke-width: 1.0;" width="10" x="881" y="906.6309"/><rect fill="#FFFFFF" filter="url(#ftxyhn1)" height="97.9316" style="stroke: #A80036; stroke-width: 1.0;" width="10" x="1104" y="350.6621"/><rect fill="#FFFFFF" filter="url(#ftxyhn1)" height="63.6211" style="stroke: #A80036; stroke-width: 1.0;" width="10" x="1104" y="614.1465"/><rect fill="#FFFFFF" filter="url(#ftxyhn1)" height="97.9316" style="stroke: #A80036; stroke-width: 1.0;" width="10" x="1104" y="779.3887"/><polygon fill="#A80036" points="295,113.4883,305,117.4883,295,121.4883,299,117.4883" style="stroke: #A80036; stroke-width: 1.0;"/><line style="stroke: #A80036; stroke-width: 1.0;" x1="31.5" x2="301" y1="117.4883" y2="117.4883"/><text fill="#000000" font-family="sans-serif" font-size="13" font-weight="bold" lengthAdjust="spacingAndGlyphs" textLength="9" x="38.5" y="113.0566">1</text><text fill="#000000" font-family="sans-serif" font-size="13" lengthAdjust="spacingAndGlyphs" textLength="248" x="51.5" y="113.0566">Role role@domain Grant user@domain1</text><rect fill="#EEEEEE" filter="url(#ftxyhn1)" height="3" style="stroke: #EEEEEE; stroke-width: 1.0;" width="1131.5" x="3" y="146.4541"/><line style="stroke: #000000; stroke-width: 1.0;" x1="3" x2="1134.5" y1="146.4541" y2="146.4541"/><line style="stroke: #000000; stroke-width: 1.0;" x1="3" x2="1134.5" y1="149.4541" y2="149.4541"/><rect fill="#EEEEEE" filter="url(#ftxyhn1)" height="23.3105" style="stroke: #000000; stroke-width: 2.0;" width="117" x="510.25" y="135.7988"/><text fill="#000000" font-family="sans-serif" font-size="13" font-weight="bold" lengthAdjust="spacingAndGlyphs" textLength="99" x="516.25" y="152.3672">Access Control</text><polygon fill="#A80036" points="101,186.1094,91,190.1094,101,194.1094,97,190.1094" style="stroke: #A80036; stroke-width: 1.0;"/><line style="stroke: #A80036; stroke-width: 1.0;" x1="95" x2="306" y1="190.1094" y2="190.1094"/><text fill="#000000" font-family="sans-serif" font-size="13" font-weight="bold" lengthAdjust="spacingAndGlyphs" textLength="9" x="107" y="185.6777">2</text><text fill="#000000" font-family="sans-serif" font-size="13" lengthAdjust="spacingAndGlyphs" textLength="136" x="120" y="185.6777">SecureLayer @domain</text><polygon fill="#A80036" points="295,215.4199,305,219.4199,295,223.4199,299,219.4199" style="stroke: #A80036; stroke-width: 1.0;"/><line style="stroke: #A80036; stroke-width: 1.0;" x1="85" x2="301" y1="219.4199" y2="219.4199"/><text fill="#000000" font-family="sans-serif" font-size="13" font-weight="bold" lengthAdjust="spacingAndGlyphs" textLength="9" x="92" y="214.9883">3</text><text fill="#000000" font-family="sans-serif" font-size="13" lengthAdjust="spacingAndGlyphs" textLength="180" x="105" y="214.9883">RemoteID role+you@domain</text><polygon fill="#A80036" points="869,244.7305,879,248.7305,869,252.7305,873,248.7305" style="stroke: #A80036; stroke-width: 1.0;"/><line style="stroke: #A80036; stroke-width: 1.0;" x1="317" x2="875" y1="248.7305" y2="248.7305"/><text fill="#000000" font-family="sans-serif" font-size="13" font-weight="bold" lengthAdjust="spacingAndGlyphs" textLength="9" x="324" y="244.2988">4</text><text fill="#000000" font-family="sans-serif" font-size="13" lengthAdjust="spacingAndGlyphs" textLength="390" x="337" y="244.2988">WANT role-occupancy ON role@domain AS role+you@domain</text><polygon fill="#A80036" points="328,274.041,318,278.041,328,282.041,324,278.041" style="stroke: #A80036; stroke-width: 1.0;"/><line style="stroke: #A80036; stroke-width: 1.0;" x1="322" x2="885" y1="278.041" y2="278.041"/><text fill="#000000" font-family="sans-serif" font-size="13" font-weight="bold" lengthAdjust="spacingAndGlyphs" textLength="9" x="334" y="273.6094">5</text><text fill="#000000" font-family="sans-serif" font-size="13" lengthAdjust="spacingAndGlyphs" textLength="166" x="347" y="273.6094">OK FOR role+you@domain</text><rect fill="#EEEEEE" filter="url(#ftxyhn1)" height="3" style="stroke: #EEEEEE; stroke-width: 1.0;" width="1131.5" x="3" y="307.0068"/><line style="stroke: #000000; stroke-width: 1.0;" x1="3" x2="1134.5" y1="307.0068" y2="307.0068"/><line style="stroke: #000000; stroke-width: 1.0;" x1="3" x2="1134.5" y1="310.0068" y2="310.0068"/><rect fill="#EEEEEE" filter="url(#ftxyhn1)" height="23.3105" style="stroke: #000000; stroke-width: 2.0;" width="104" x="516.75" y="296.3516"/><text fill="#000000" font-family="sans-serif" font-size="13" font-weight="bold" lengthAdjust="spacingAndGlyphs" textLength="86" x="522.75" y="312.9199">Sanity Check</text><polygon fill="#A80036" points="1092,346.6621,1102,350.6621,1092,354.6621,1096,350.6621" style="stroke: #A80036; stroke-width: 1.0;"/><line style="stroke: #A80036; stroke-width: 1.0;" x1="317" x2="1098" y1="350.6621" y2="350.6621"/><text fill="#000000" font-family="sans-serif" font-size="13" font-weight="bold" lengthAdjust="spacingAndGlyphs" textLength="9" x="324" y="346.2305">6</text><text fill="#000000" font-family="sans-serif" font-size="13" lengthAdjust="spacingAndGlyphs" textLength="442" x="337" y="346.2305">Compare role@domain Occupant user@domain1 AS role+you@domain</text><polygon fill="#0000FF" points="328,380.9727,318,384.9727,328,388.9727,324,384.9727" style="stroke: #0000FF; stroke-width: 1.0;"/><line style="stroke: #0000FF; stroke-width: 1.0; stroke-dasharray: 2.0,2.0;" x1="322" x2="1103" y1="384.9727" y2="384.9727"/><text fill="#000000" font-family="sans-serif" font-size="13" font-weight="bold" lengthAdjust="spacingAndGlyphs" textLength="9" x="334" y="380.541">7</text><text fill="#000000" font-family="sans-serif" font-size="13" lengthAdjust="spacingAndGlyphs" textLength="85" x="347" y="380.541">UserID Found</text><polygon fill="#FBFB77" filter="url(#ftxyhn1)" points="108,363.9727,108,388.9727,298,388.9727,298,373.9727,288,363.9727,108,363.9727" style="stroke: #A80036; stroke-width: 1.0;"/><line style="stroke: #A80036; stroke-width: 1.0;" x1="288" x2="288" y1="363.9727" y2="373.9727"/><line style="stroke: #A80036; stroke-width: 1.0;" x1="298" x2="288" y1="373.9727" y2="373.9727"/><text fill="#0000FF" font-family="sans-serif" font-size="13" lengthAdjust="spacingAndGlyphs" textLength="169" x="114" y="381.541">Alternative flow, fatal error</text><polygon fill="#0000FF" points="42.5,415.2832,32.5,419.2832,42.5,423.2832,38.5,419.2832" style="stroke: #0000FF; stroke-width: 1.0;"/><line style="stroke: #0000FF; stroke-width: 1.0; stroke-dasharray: 2.0,2.0;" x1="36.5" x2="306" y1="419.2832" y2="419.2832"/><text fill="#000000" font-family="sans-serif" font-size="13" font-weight="bold" lengthAdjust="spacingAndGlyphs" textLength="9" x="48.5" y="414.8516">8</text><text fill="#000000" font-family="sans-serif" font-size="13" lengthAdjust="spacingAndGlyphs" textLength="111" x="61.5" y="414.8516">Already Occupant</text><polygon fill="#A80036" points="328,444.5938,318,448.5938,328,452.5938,324,448.5938" style="stroke: #A80036; stroke-width: 1.0;"/><line style="stroke: #A80036; stroke-width: 1.0;" x1="322" x2="1108" y1="448.5938" y2="448.5938"/><text fill="#000000" font-family="sans-serif" font-size="13" font-weight="bold" lengthAdjust="spacingAndGlyphs" textLength="9" x="334" y="444.1621">9</text><text fill="#000000" font-family="sans-serif" font-size="13" lengthAdjust="spacingAndGlyphs" textLength="112" x="347" y="444.1621">UserID Not Found</text><polygon fill="#A80036" points="37.5,473.9043,27.5,477.9043,37.5,481.9043,33.5,477.9043" style="stroke: #A80036; stroke-width: 1.0;"/><line style="stroke: #A80036; stroke-width: 1.0;" x1="31.5" x2="306" y1="477.9043" y2="477.9043"/><text fill="#000000" font-family="sans-serif" font-size="13" font-weight="bold" lengthAdjust="spacingAndGlyphs" textLength="18" x="43.5" y="473.4727">10</text><text fill="#000000" font-family="sans-serif" font-size="13" lengthAdjust="spacingAndGlyphs" textLength="48" x="65.5" y="473.4727">Queued</text><rect fill="#EEEEEE" filter="url(#ftxyhn1)" height="3" style="stroke: #EEEEEE; stroke-width: 1.0;" width="1131.5" x="3" y="506.8701"/><line style="stroke: #000000; stroke-width: 1.0;" x1="3" x2="1134.5" y1="506.8701" y2="506.8701"/><line style="stroke: #000000; stroke-width: 1.0;" x1="3" x2="1134.5" y1="509.8701" y2="509.8701"/><rect fill="#EEEEEE" filter="url(#ftxyhn1)" height="23.3105" style="stroke: #000000; stroke-width: 2.0;" width="136" x="500.75" y="496.2148"/><text fill="#000000" font-family="sans-serif" font-size="13" font-weight="bold" lengthAdjust="spacingAndGlyphs" textLength="118" x="506.75" y="512.7832">Key Management</text><polygon fill="#A80036" points="624,546.5254,634,550.5254,624,554.5254,628,550.5254" style="stroke: #A80036; stroke-width: 1.0;"/><line style="stroke: #A80036; stroke-width: 1.0;" x1="317" x2="630" y1="550.5254" y2="550.5254"/><text fill="#000000" font-family="sans-serif" font-size="13" font-weight="bold" lengthAdjust="spacingAndGlyphs" textLength="18" x="324" y="546.0938">11</text><text fill="#000000" font-family="sans-serif" font-size="13" lengthAdjust="spacingAndGlyphs" textLength="278" x="346" y="546.0938">Have role@domain Occupant user@domain1</text><polygon fill="#A80036" points="323,575.8359,313,579.8359,323,583.8359,319,579.8359" style="stroke: #A80036; stroke-width: 1.0;"/><line style="stroke: #A80036; stroke-width: 1.0;" x1="317" x2="635" y1="579.8359" y2="579.8359"/><text fill="#000000" font-family="sans-serif" font-size="13" font-weight="bold" lengthAdjust="spacingAndGlyphs" textLength="18" x="329" y="575.4043">12</text><text fill="#000000" font-family="sans-serif" font-size="13" lengthAdjust="spacingAndGlyphs" textLength="48" x="351" y="575.4043">Queued</text><polygon fill="#A80036" points="1092,610.1465,1102,614.1465,1092,618.1465,1096,614.1465" style="stroke: #A80036; stroke-width: 1.0;"/><line style="stroke: #A80036; stroke-width: 1.0;" x1="646" x2="1098" y1="614.1465" y2="614.1465"/><text fill="#000000" font-family="sans-serif" font-size="13" font-weight="bold" lengthAdjust="spacingAndGlyphs" textLength="18" x="653" y="609.7148">13</text><text fill="#000000" font-family="sans-serif" font-size="13" lengthAdjust="spacingAndGlyphs" textLength="136" x="675" y="609.7148">Retrieve role@domain</text><polygon fill="#FBFB77" filter="url(#ftxyhn1)" points="421,593.1465,421,618.1465,627,618.1465,627,603.1465,617,593.1465,421,593.1465" style="stroke: #A80036; stroke-width: 1.0;"/><line style="stroke: #A80036; stroke-width: 1.0;" x1="617" x2="617" y1="593.1465" y2="603.1465"/><line style="stroke: #A80036; stroke-width: 1.0;" x1="627" x2="617" y1="603.1465" y2="603.1465"/><text fill="#000000" font-family="sans-serif" font-size="13" lengthAdjust="spacingAndGlyphs" textLength="185" x="427" y="610.7148">When copying the LDAP entry</text><polygon fill="#A80036" points="657,644.457,647,648.457,657,652.457,653,648.457" style="stroke: #A80036; stroke-width: 1.0;"/><line style="stroke: #A80036; stroke-width: 1.0;" x1="651" x2="1103" y1="648.457" y2="648.457"/><text fill="#000000" font-family="sans-serif" font-size="13" font-weight="bold" lengthAdjust="spacingAndGlyphs" textLength="18" x="663" y="644.0254">14</text><text fill="#000000" font-family="sans-serif" font-size="13" lengthAdjust="spacingAndGlyphs" textLength="127" x="685" y="644.0254">Creds MIIEVzCCAz...</text><polygon fill="#A80036" points="657,673.7676,647,677.7676,657,681.7676,653,677.7676" style="stroke: #A80036; stroke-width: 1.0;"/><line style="stroke: #A80036; stroke-width: 1.0;" x1="651" x2="1108" y1="677.7676" y2="677.7676"/><text fill="#000000" font-family="sans-serif" font-size="13" font-weight="bold" lengthAdjust="spacingAndGlyphs" textLength="18" x="663" y="673.3359">15</text><text fill="#000000" font-family="sans-serif" font-size="13" lengthAdjust="spacingAndGlyphs" textLength="103" x="685" y="673.3359">pkcs11:xxx;y;zz</text><line style="stroke: #A80036; stroke-width: 1.0;" x1="651" x2="693" y1="707.3887" y2="707.3887"/><line style="stroke: #A80036; stroke-width: 1.0;" x1="693" x2="693" y1="707.3887" y2="720.3887"/><line style="stroke: #A80036; stroke-width: 1.0;" x1="652" x2="693" y1="720.3887" y2="720.3887"/><polygon fill="#A80036" points="662,716.3887,652,720.3887,662,724.3887,658,720.3887" style="stroke: #A80036; stroke-width: 1.0;"/><text fill="#000000" font-family="sans-serif" font-size="13" font-weight="bold" lengthAdjust="spacingAndGlyphs" textLength="18" x="658" y="702.6465">16</text><text fill="#000000" font-family="sans-serif" font-size="13" lengthAdjust="spacingAndGlyphs" textLength="199" x="680" y="702.6465">Pick a role-internal OccupantID</text><polygon fill="#A80036" points="1092,775.3887,1102,779.3887,1092,783.3887,1096,779.3887" style="stroke: #A80036; stroke-width: 1.0;"/><line style="stroke: #A80036; stroke-width: 1.0;" x1="646" x2="1098" y1="779.3887" y2="779.3887"/><text fill="#000000" font-family="sans-serif" font-size="13" font-weight="bold" lengthAdjust="spacingAndGlyphs" textLength="18" x="653" y="774.957">17</text><text fill="#000000" font-family="sans-serif" font-size="13" lengthAdjust="spacingAndGlyphs" textLength="417" x="675" y="774.957">Have role@domain Occupant user@domain1 AS role+you@domain</text><polygon fill="#A80036" points="1092,804.6992,1102,808.6992,1092,812.6992,1096,808.6992" style="stroke: #A80036; stroke-width: 1.0;"/><line style="stroke: #A80036; stroke-width: 1.0;" x1="646" x2="1098" y1="808.6992" y2="808.6992"/><text fill="#000000" font-family="sans-serif" font-size="13" font-weight="bold" lengthAdjust="spacingAndGlyphs" textLength="18" x="653" y="804.2676">18</text><text fill="#000000" font-family="sans-serif" font-size="13" lengthAdjust="spacingAndGlyphs" textLength="329" x="675" y="804.2676">Have Creds for user@domain1 AS role+you@domain</text><polygon fill="#A80036" points="1092,839.0098,1102,843.0098,1092,847.0098,1096,843.0098" style="stroke: #A80036; stroke-width: 1.0;"/><line style="stroke: #A80036; stroke-width: 1.0;" x1="646" x2="1098" y1="843.0098" y2="843.0098"/><text fill="#000000" font-family="sans-serif" font-size="13" font-weight="bold" lengthAdjust="spacingAndGlyphs" textLength="18" x="653" y="838.5781">19</text><text fill="#000000" font-family="sans-serif" font-size="13" lengthAdjust="spacingAndGlyphs" textLength="393" x="675" y="838.5781">Have pkcs11:xxx;y;zz XS user@domain1 AS role+you@domain</text><polygon fill="#FBFB77" filter="url(#ftxyhn1)" points="456,822.0098,456,847.0098,627,847.0098,627,832.0098,617,822.0098,456,822.0098" style="stroke: #A80036; stroke-width: 1.0;"/><line style="stroke: #A80036; stroke-width: 1.0;" x1="617" x2="617" y1="822.0098" y2="832.0098"/><line style="stroke: #A80036; stroke-width: 1.0;" x1="627" x2="617" y1="832.0098" y2="832.0098"/><text fill="#000000" font-family="sans-serif" font-size="13" lengthAdjust="spacingAndGlyphs" textLength="150" x="462" y="839.5781">Or share the LDAP entry</text><polygon fill="#A80036" points="657,873.3203,647,877.3203,657,881.3203,653,877.3203" style="stroke: #A80036; stroke-width: 1.0;"/><line style="stroke: #A80036; stroke-width: 1.0;" x1="651" x2="1108" y1="877.3203" y2="877.3203"/><text fill="#000000" font-family="sans-serif" font-size="13" font-weight="bold" lengthAdjust="spacingAndGlyphs" textLength="18" x="663" y="872.8887">20</text><text fill="#000000" font-family="sans-serif" font-size="13" lengthAdjust="spacingAndGlyphs" textLength="37" x="685" y="872.8887">Ready</text><polygon fill="#A80036" points="869,902.6309,879,906.6309,869,910.6309,873,906.6309" style="stroke: #A80036; stroke-width: 1.0;"/><line style="stroke: #A80036; stroke-width: 1.0;" x1="646" x2="875" y1="906.6309" y2="906.6309"/><text fill="#000000" font-family="sans-serif" font-size="13" font-weight="bold" lengthAdjust="spacingAndGlyphs" textLength="18" x="653" y="902.1992">21</text><text fill="#000000" font-family="sans-serif" font-size="13" lengthAdjust="spacingAndGlyphs" textLength="74" x="675" y="902.1992">Cache hints</text></g></svg>