<?xml version="1.0" encoding="UTF-8" standalone="no"?><svg xmlns="http://www.w3.org/2000/svg" xmlns:xlink="http://www.w3.org/1999/xlink" contentScriptType="application/ecmascript" contentStyleType="text/css" height="1103px" preserveAspectRatio="none" style="width:1016px;height:1103px;" version="1.1" viewBox="0 0 1016 1103" width="1016px" zoomAndPan="magnify"><defs><filter height="300%" id="fdp1hnb" width="300%" x="-1" y="-1"><feGaussianBlur result="blurOut" stdDeviation="2.0"/><feColorMatrix in="blurOut" result="blurOut2" type="matrix" values="0 0 0 0 0 0 0 0 0 0 0 0 0 0 0 0 0 0 .4 0"/><feOffset dx="4.0" dy="4.0" in="blurOut2" result="blurOut3"/><feBlend in="SourceGraphic" in2="blurOut3" mode="normal"/></filter></defs><g><rect fill="#FFFFFF" filter="url(#fdp1hnb)" height="360.416" style="stroke: #A80036; stroke-width: 1.0;" width="10" x="21.5" y="117.4883"/><rect fill="#FFFFFF" filter="url(#fdp1hnb)" height="29.3105" style="stroke: #A80036; stroke-width: 1.0;" width="10" x="80" y="190.1094"/><rect fill="#FFFFFF" filter="url(#fdp1hnb)" height="462.3477" style="stroke: #A80036; stroke-width: 1.0;" width="10" x="273" y="117.4883"/><rect fill="#FFFFFF" filter="url(#fdp1hnb)" height="450.3477" style="stroke: #A80036; stroke-width: 1.0;" width="10" x="496" y="550.5254"/><rect fill="#FFFFFF" filter="url(#fdp1hnb)" height="29.3105" style="stroke: #A80036; stroke-width: 1.0;" width="10" x="654" y="248.7305"/><rect fill="#FFFFFF" filter="url(#fdp1hnb)" height="30" style="stroke: #A80036; stroke-width: 1.0;" width="10" x="654" y="970.873"/><rect fill="#FFFFFF" filter="url(#fdp1hnb)" height="29.3105" style="stroke: #A80036; stroke-width: 1.0;" width="10" x="822" y="667.7676"/><rect fill="#FFFFFF" filter="url(#fdp1hnb)" height="58.6211" style="stroke: #A80036; stroke-width: 1.0;" width="10" x="886" y="638.457"/><rect fill="#FFFFFF" filter="url(#fdp1hnb)" height="97.9316" style="stroke: #A80036; stroke-width: 1.0;" width="10" x="934.5" y="350.6621"/><rect fill="#FFFFFF" filter="url(#fdp1hnb)" height="215.1738" style="stroke: #A80036; stroke-width: 1.0;" width="10" x="934.5" y="726.3887"/><rect fill="#FFFFFF" filter="url(#fdp1hnb)" height="34.3105" style="stroke: #A80036; stroke-width: 1.0;" width="10" x="983" y="877.9414"/><line style="stroke: #A80036; stroke-width: 1.0; stroke-dasharray: 5.0,5.0;" x1="26" x2="26" y1="86.4883" y2="1019.1836"/><line style="stroke: #A80036; stroke-width: 1.0; stroke-dasharray: 5.0,5.0;" x1="85" x2="85" y1="86.4883" y2="1019.1836"/><line style="stroke: #A80036; stroke-width: 1.0; stroke-dasharray: 5.0,5.0;" x1="277.5" x2="277.5" y1="86.4883" y2="1019.1836"/><line style="stroke: #A80036; stroke-width: 1.0; stroke-dasharray: 5.0,5.0;" x1="501" x2="501" y1="86.4883" y2="1019.1836"/><line style="stroke: #A80036; stroke-width: 1.0; stroke-dasharray: 5.0,5.0;" x1="658.5" x2="658.5" y1="86.4883" y2="1019.1836"/><line style="stroke: #A80036; stroke-width: 1.0; stroke-dasharray: 5.0,5.0;" x1="827" x2="827" y1="86.4883" y2="1019.1836"/><line style="stroke: #A80036; stroke-width: 1.0; stroke-dasharray: 5.0,5.0;" x1="891" x2="891" y1="86.4883" y2="1019.1836"/><line style="stroke: #A80036; stroke-width: 1.0; stroke-dasharray: 5.0,5.0;" x1="939" x2="939" y1="86.4883" y2="1019.1836"/><line style="stroke: #A80036; stroke-width: 1.0; stroke-dasharray: 5.0,5.0;" x1="988" x2="988" y1="86.4883" y2="1019.1836"/><text fill="#000000" font-family="sans-serif" font-size="14" lengthAdjust="spacingAndGlyphs" textLength="31" x="8" y="83.5352">User</text><ellipse cx="26.5" cy="13" fill="#FEFECE" filter="url(#fdp1hnb)" rx="8" ry="8" style="stroke: #A80036; stroke-width: 2.0;"/><path d="M26.5,21 L26.5,48 M13.5,29 L39.5,29 M26.5,48 L13.5,63 M26.5,48 L39.5,63 " fill="#FEFECE" filter="url(#fdp1hnb)" style="stroke: #A80036; stroke-width: 2.0;"/><text fill="#000000" font-family="sans-serif" font-size="14" lengthAdjust="spacingAndGlyphs" textLength="31" x="8" y="1031.7188">User</text><ellipse cx="26.5" cy="1044.6719" fill="#FEFECE" filter="url(#fdp1hnb)" rx="8" ry="8" style="stroke: #A80036; stroke-width: 2.0;"/><path d="M26.5,1052.6719 L26.5,1079.6719 M13.5,1060.6719 L39.5,1060.6719 M26.5,1079.6719 L13.5,1094.6719 M26.5,1079.6719 L39.5,1094.6719 " fill="#FEFECE" filter="url(#fdp1hnb)" style="stroke: #A80036; stroke-width: 2.0;"/><rect fill="#FEFECE" filter="url(#fdp1hnb)" height="30.4883" style="stroke: #A80036; stroke-width: 1.5;" width="56" x="55" y="51"/><text fill="#000000" font-family="sans-serif" font-size="14" lengthAdjust="spacingAndGlyphs" textLength="42" x="62" y="71.5352">Authn</text><rect fill="#FEFECE" filter="url(#fdp1hnb)" height="30.4883" style="stroke: #A80036; stroke-width: 1.5;" width="56" x="55" y="1018.1836"/><text fill="#000000" font-family="sans-serif" font-size="14" lengthAdjust="spacingAndGlyphs" textLength="42" x="62" y="1038.7188">Authn</text><rect fill="#FEFECE" filter="url(#fdp1hnb)" height="30.4883" style="stroke: #A80036; stroke-width: 1.5;" width="111" x="220.5" y="51"/><text fill="#000000" font-family="sans-serif" font-size="14" lengthAdjust="spacingAndGlyphs" textLength="97" x="227.5" y="71.5352">IdHub Control</text><rect fill="#FEFECE" filter="url(#fdp1hnb)" height="30.4883" style="stroke: #A80036; stroke-width: 1.5;" width="111" x="220.5" y="1018.1836"/><text fill="#000000" font-family="sans-serif" font-size="14" lengthAdjust="spacingAndGlyphs" textLength="97" x="227.5" y="1038.7188">IdHub Control</text><rect fill="#FEFECE" filter="url(#fdp1hnb)" height="30.4883" style="stroke: #A80036; stroke-width: 1.5;" width="102" x="448" y="51"/><text fill="#000000" font-family="sans-serif" font-size="14" lengthAdjust="spacingAndGlyphs" textLength="88" x="455" y="71.5352">Key Manager</text><rect fill="#FEFECE" filter="url(#fdp1hnb)" height="30.4883" style="stroke: #A80036; stroke-width: 1.5;" width="102" x="448" y="1018.1836"/><text fill="#000000" font-family="sans-serif" font-size="14" lengthAdjust="spacingAndGlyphs" textLength="88" x="455" y="1038.7188">Key Manager</text><rect fill="#FEFECE" filter="url(#fdp1hnb)" height="30.4883" style="stroke: #A80036; stroke-width: 1.5;" width="55" x="629.5" y="51"/><text fill="#000000" font-family="sans-serif" font-size="14" lengthAdjust="spacingAndGlyphs" textLength="41" x="636.5" y="71.5352">Authz</text><rect fill="#FEFECE" filter="url(#fdp1hnb)" height="30.4883" style="stroke: #A80036; stroke-width: 1.5;" width="55" x="629.5" y="1018.1836"/><text fill="#000000" font-family="sans-serif" font-size="14" lengthAdjust="spacingAndGlyphs" textLength="41" x="636.5" y="1038.7188">Authz</text><text fill="#000000" font-family="sans-serif" font-size="14" lengthAdjust="spacingAndGlyphs" textLength="66" x="791" y="83.5352">PKCS #11</text><path d="M809,34 C809,24 827,24 827,24 C827,24 845,24 845,34 L845,60 C845,70 827,70 827,70 C827,70 809,70 809,60 L809,34 " fill="#FEFECE" filter="url(#fdp1hnb)" style="stroke: #000000; stroke-width: 1.5;"/><path d="M809,34 C809,44 827,44 827,44 C827,44 845,44 845,34 " fill="none" style="stroke: #000000; stroke-width: 1.5;"/><text fill="#000000" font-family="sans-serif" font-size="14" lengthAdjust="spacingAndGlyphs" textLength="66" x="791" y="1031.7188">PKCS #11</text><path d="M809,1044.6719 C809,1034.6719 827,1034.6719 827,1034.6719 C827,1034.6719 845,1034.6719 845,1044.6719 L845,1070.6719 C845,1080.6719 827,1080.6719 827,1080.6719 C827,1080.6719 809,1080.6719 809,1070.6719 L809,1044.6719 " fill="#FEFECE" filter="url(#fdp1hnb)" style="stroke: #000000; stroke-width: 1.5;"/><path d="M809,1044.6719 C809,1054.6719 827,1054.6719 827,1054.6719 C827,1054.6719 845,1054.6719 845,1044.6719 " fill="none" style="stroke: #000000; stroke-width: 1.5;"/><text fill="#000000" font-family="sans-serif" font-size="14" lengthAdjust="spacingAndGlyphs" textLength="29" x="873.5" y="83.5352">KDC</text><path d="M873,34 C873,24 891,24 891,24 C891,24 909,24 909,34 L909,60 C909,70 891,70 891,70 C891,70 873,70 873,60 L873,34 " fill="#FEFECE" filter="url(#fdp1hnb)" style="stroke: #000000; stroke-width: 1.5;"/><path d="M873,34 C873,44 891,44 891,44 C891,44 909,44 909,34 " fill="none" style="stroke: #000000; stroke-width: 1.5;"/><text fill="#000000" font-family="sans-serif" font-size="14" lengthAdjust="spacingAndGlyphs" textLength="29" x="873.5" y="1031.7188">KDC</text><path d="M873,1044.6719 C873,1034.6719 891,1034.6719 891,1034.6719 C891,1034.6719 909,1034.6719 909,1044.6719 L909,1070.6719 C909,1080.6719 891,1080.6719 891,1080.6719 C891,1080.6719 873,1080.6719 873,1070.6719 L873,1044.6719 " fill="#FEFECE" filter="url(#fdp1hnb)" style="stroke: #000000; stroke-width: 1.5;"/><path d="M873,1044.6719 C873,1054.6719 891,1054.6719 891,1054.6719 C891,1054.6719 909,1054.6719 909,1044.6719 " fill="none" style="stroke: #000000; stroke-width: 1.5;"/><text fill="#000000" font-family="sans-serif" font-size="14" lengthAdjust="spacingAndGlyphs" textLength="35" x="919" y="83.5352">LDAP</text><path d="M921.5,34 C921.5,24 939.5,24 939.5,24 C939.5,24 957.5,24 957.5,34 L957.5,60 C957.5,70 939.5,70 939.5,70 C939.5,70 921.5,70 921.5,60 L921.5,34 " fill="#FEFECE" filter="url(#fdp1hnb)" style="stroke: #000000; stroke-width: 1.5;"/><path d="M921.5,34 C921.5,44 939.5,44 939.5,44 C939.5,44 957.5,44 957.5,34 " fill="none" style="stroke: #000000; stroke-width: 1.5;"/><text fill="#000000" font-family="sans-serif" font-size="14" lengthAdjust="spacingAndGlyphs" textLength="35" x="919" y="1031.7188">LDAP</text><path d="M921.5,1044.6719 C921.5,1034.6719 939.5,1034.6719 939.5,1034.6719 C939.5,1034.6719 957.5,1034.6719 957.5,1044.6719 L957.5,1070.6719 C957.5,1080.6719 939.5,1080.6719 939.5,1080.6719 C939.5,1080.6719 921.5,1080.6719 921.5,1070.6719 L921.5,1044.6719 " fill="#FEFECE" filter="url(#fdp1hnb)" style="stroke: #000000; stroke-width: 1.5;"/><path d="M921.5,1044.6719 C921.5,1054.6719 939.5,1054.6719 939.5,1054.6719 C939.5,1054.6719 957.5,1054.6719 957.5,1044.6719 " fill="none" style="stroke: #000000; stroke-width: 1.5;"/><text fill="#000000" font-family="sans-serif" font-size="14" lengthAdjust="spacingAndGlyphs" textLength="28" x="971" y="83.5352">DNS</text><path d="M970,34 C970,24 988,24 988,24 C988,24 1006,24 1006,34 L1006,60 C1006,70 988,70 988,70 C988,70 970,70 970,60 L970,34 " fill="#FEFECE" filter="url(#fdp1hnb)" style="stroke: #000000; stroke-width: 1.5;"/><path d="M970,34 C970,44 988,44 988,44 C988,44 1006,44 1006,34 " fill="none" style="stroke: #000000; stroke-width: 1.5;"/><text fill="#000000" font-family="sans-serif" font-size="14" lengthAdjust="spacingAndGlyphs" textLength="28" x="971" y="1031.7188">DNS</text><path d="M970,1044.6719 C970,1034.6719 988,1034.6719 988,1034.6719 C988,1034.6719 1006,1034.6719 1006,1044.6719 L1006,1070.6719 C1006,1080.6719 988,1080.6719 988,1080.6719 C988,1080.6719 970,1080.6719 970,1070.6719 L970,1044.6719 " fill="#FEFECE" filter="url(#fdp1hnb)" style="stroke: #000000; stroke-width: 1.5;"/><path d="M970,1044.6719 C970,1054.6719 988,1054.6719 988,1054.6719 C988,1054.6719 1006,1054.6719 1006,1044.6719 " fill="none" style="stroke: #000000; stroke-width: 1.5;"/><rect fill="#FFFFFF" filter="url(#fdp1hnb)" height="360.416" style="stroke: #A80036; stroke-width: 1.0;" width="10" x="21.5" y="117.4883"/><rect fill="#FFFFFF" filter="url(#fdp1hnb)" height="29.3105" style="stroke: #A80036; stroke-width: 1.0;" width="10" x="80" y="190.1094"/><rect fill="#FFFFFF" filter="url(#fdp1hnb)" height="462.3477" style="stroke: #A80036; stroke-width: 1.0;" width="10" x="273" y="117.4883"/><rect fill="#FFFFFF" filter="url(#fdp1hnb)" height="450.3477" style="stroke: #A80036; stroke-width: 1.0;" width="10" x="496" y="550.5254"/><rect fill="#FFFFFF" filter="url(#fdp1hnb)" height="29.3105" style="stroke: #A80036; stroke-width: 1.0;" width="10" x="654" y="248.7305"/><rect fill="#FFFFFF" filter="url(#fdp1hnb)" height="30" style="stroke: #A80036; stroke-width: 1.0;" width="10" x="654" y="970.873"/><rect fill="#FFFFFF" filter="url(#fdp1hnb)" height="29.3105" style="stroke: #A80036; stroke-width: 1.0;" width="10" x="822" y="667.7676"/><rect fill="#FFFFFF" filter="url(#fdp1hnb)" height="58.6211" style="stroke: #A80036; stroke-width: 1.0;" width="10" x="886" y="638.457"/><rect fill="#FFFFFF" filter="url(#fdp1hnb)" height="97.9316" style="stroke: #A80036; stroke-width: 1.0;" width="10" x="934.5" y="350.6621"/><rect fill="#FFFFFF" filter="url(#fdp1hnb)" height="215.1738" style="stroke: #A80036; stroke-width: 1.0;" width="10" x="934.5" y="726.3887"/><rect fill="#FFFFFF" filter="url(#fdp1hnb)" height="34.3105" style="stroke: #A80036; stroke-width: 1.0;" width="10" x="983" y="877.9414"/><polygon fill="#A80036" points="261,113.4883,271,117.4883,261,121.4883,265,117.4883" style="stroke: #A80036; stroke-width: 1.0;"/><line style="stroke: #A80036; stroke-width: 1.0;" x1="31.5" x2="267" y1="117.4883" y2="117.4883"/><text fill="#000000" font-family="sans-serif" font-size="13" font-weight="bold" lengthAdjust="spacingAndGlyphs" textLength="9" x="38.5" y="113.0566">1</text><text fill="#000000" font-family="sans-serif" font-size="13" lengthAdjust="spacingAndGlyphs" textLength="151" x="51.5" y="113.0566">Role Del group@domain</text><rect fill="#EEEEEE" filter="url(#fdp1hnb)" height="3" style="stroke: #EEEEEE; stroke-width: 1.0;" width="1008" x="3" y="146.4541"/><line style="stroke: #000000; stroke-width: 1.0;" x1="3" x2="1011" y1="146.4541" y2="146.4541"/><line style="stroke: #000000; stroke-width: 1.0;" x1="3" x2="1011" y1="149.4541" y2="149.4541"/><rect fill="#EEEEEE" filter="url(#fdp1hnb)" height="23.3105" style="stroke: #000000; stroke-width: 2.0;" width="117" x="448.5" y="135.7988"/><text fill="#000000" font-family="sans-serif" font-size="13" font-weight="bold" lengthAdjust="spacingAndGlyphs" textLength="99" x="454.5" y="152.3672">Access Control</text><polygon fill="#A80036" points="101,186.1094,91,190.1094,101,194.1094,97,190.1094" style="stroke: #A80036; stroke-width: 1.0;"/><line style="stroke: #A80036; stroke-width: 1.0;" x1="95" x2="272" y1="190.1094" y2="190.1094"/><text fill="#000000" font-family="sans-serif" font-size="13" font-weight="bold" lengthAdjust="spacingAndGlyphs" textLength="9" x="107" y="185.6777">2</text><text fill="#000000" font-family="sans-serif" font-size="13" lengthAdjust="spacingAndGlyphs" textLength="136" x="120" y="185.6777">SecureLayer @domain</text><polygon fill="#A80036" points="261,215.4199,271,219.4199,261,223.4199,265,219.4199" style="stroke: #A80036; stroke-width: 1.0;"/><line style="stroke: #A80036; stroke-width: 1.0;" x1="85" x2="267" y1="219.4199" y2="219.4199"/><text fill="#000000" font-family="sans-serif" font-size="13" font-weight="bold" lengthAdjust="spacingAndGlyphs" textLength="9" x="92" y="214.9883">3</text><text fill="#000000" font-family="sans-serif" font-size="13" lengthAdjust="spacingAndGlyphs" textLength="146" x="105" y="214.9883">RemoteID you@domain</text><polygon fill="#A80036" points="642,244.7305,652,248.7305,642,252.7305,646,248.7305" style="stroke: #A80036; stroke-width: 1.0;"/><line style="stroke: #A80036; stroke-width: 1.0;" x1="283" x2="648" y1="248.7305" y2="248.7305"/><text fill="#000000" font-family="sans-serif" font-size="13" font-weight="bold" lengthAdjust="spacingAndGlyphs" textLength="9" x="290" y="244.2988">4</text><text fill="#000000" font-family="sans-serif" font-size="13" lengthAdjust="spacingAndGlyphs" textLength="339" x="303" y="244.2988">WANT roleid-delete ON role@domain AS you@domain</text><polygon fill="#A80036" points="294,274.041,284,278.041,294,282.041,290,278.041" style="stroke: #A80036; stroke-width: 1.0;"/><line style="stroke: #A80036; stroke-width: 1.0;" x1="288" x2="658" y1="278.041" y2="278.041"/><text fill="#000000" font-family="sans-serif" font-size="13" font-weight="bold" lengthAdjust="spacingAndGlyphs" textLength="9" x="300" y="273.6094">5</text><text fill="#000000" font-family="sans-serif" font-size="13" lengthAdjust="spacingAndGlyphs" textLength="148" x="313" y="273.6094">OK FOR admin@domain</text><rect fill="#EEEEEE" filter="url(#fdp1hnb)" height="3" style="stroke: #EEEEEE; stroke-width: 1.0;" width="1008" x="3" y="307.0068"/><line style="stroke: #000000; stroke-width: 1.0;" x1="3" x2="1011" y1="307.0068" y2="307.0068"/><line style="stroke: #000000; stroke-width: 1.0;" x1="3" x2="1011" y1="310.0068" y2="310.0068"/><rect fill="#EEEEEE" filter="url(#fdp1hnb)" height="23.3105" style="stroke: #000000; stroke-width: 2.0;" width="104" x="455" y="296.3516"/><text fill="#000000" font-family="sans-serif" font-size="13" font-weight="bold" lengthAdjust="spacingAndGlyphs" textLength="86" x="461" y="312.9199">Sanity Check</text><polygon fill="#A80036" points="922.5,346.6621,932.5,350.6621,922.5,354.6621,926.5,350.6621" style="stroke: #A80036; stroke-width: 1.0;"/><line style="stroke: #A80036; stroke-width: 1.0;" x1="283" x2="928.5" y1="350.6621" y2="350.6621"/><text fill="#000000" font-family="sans-serif" font-size="13" font-weight="bold" lengthAdjust="spacingAndGlyphs" textLength="9" x="290" y="346.2305">6</text><text fill="#000000" font-family="sans-serif" font-size="13" lengthAdjust="spacingAndGlyphs" textLength="263" x="303" y="346.2305">Compare role@domain AS admin@domain</text><polygon fill="#0000FF" points="294,380.9727,284,384.9727,294,388.9727,290,384.9727" style="stroke: #0000FF; stroke-width: 1.0;"/><line style="stroke: #0000FF; stroke-width: 1.0; stroke-dasharray: 2.0,2.0;" x1="288" x2="933.5" y1="384.9727" y2="384.9727"/><text fill="#000000" font-family="sans-serif" font-size="13" font-weight="bold" lengthAdjust="spacingAndGlyphs" textLength="9" x="300" y="380.541">7</text><text fill="#000000" font-family="sans-serif" font-size="13" lengthAdjust="spacingAndGlyphs" textLength="112" x="313" y="380.541">UserID Not Found</text><polygon fill="#FBFB77" filter="url(#fdp1hnb)" points="74,363.9727,74,388.9727,264,388.9727,264,373.9727,254,363.9727,74,363.9727" style="stroke: #A80036; stroke-width: 1.0;"/><line style="stroke: #A80036; stroke-width: 1.0;" x1="254" x2="254" y1="363.9727" y2="373.9727"/><line style="stroke: #A80036; stroke-width: 1.0;" x1="264" x2="254" y1="373.9727" y2="373.9727"/><text fill="#0000FF" font-family="sans-serif" font-size="13" lengthAdjust="spacingAndGlyphs" textLength="169" x="80" y="381.541">Alternative flow, fatal error</text><polygon fill="#0000FF" points="42.5,415.2832,32.5,419.2832,42.5,423.2832,38.5,419.2832" style="stroke: #0000FF; stroke-width: 1.0;"/><line style="stroke: #0000FF; stroke-width: 1.0; stroke-dasharray: 2.0,2.0;" x1="36.5" x2="272" y1="419.2832" y2="419.2832"/><text fill="#000000" font-family="sans-serif" font-size="13" font-weight="bold" lengthAdjust="spacingAndGlyphs" textLength="9" x="48.5" y="414.8516">8</text><text fill="#000000" font-family="sans-serif" font-size="13" lengthAdjust="spacingAndGlyphs" textLength="66" x="61.5" y="414.8516">Not Found</text><polygon fill="#A80036" points="294,444.5938,284,448.5938,294,452.5938,290,448.5938" style="stroke: #A80036; stroke-width: 1.0;"/><line style="stroke: #A80036; stroke-width: 1.0;" x1="288" x2="938.5" y1="448.5938" y2="448.5938"/><text fill="#000000" font-family="sans-serif" font-size="13" font-weight="bold" lengthAdjust="spacingAndGlyphs" textLength="9" x="300" y="444.1621">9</text><text fill="#000000" font-family="sans-serif" font-size="13" lengthAdjust="spacingAndGlyphs" textLength="85" x="313" y="444.1621">UserID Found</text><polygon fill="#A80036" points="37.5,473.9043,27.5,477.9043,37.5,481.9043,33.5,477.9043" style="stroke: #A80036; stroke-width: 1.0;"/><line style="stroke: #A80036; stroke-width: 1.0;" x1="31.5" x2="272" y1="477.9043" y2="477.9043"/><text fill="#000000" font-family="sans-serif" font-size="13" font-weight="bold" lengthAdjust="spacingAndGlyphs" textLength="18" x="43.5" y="473.4727">10</text><text fill="#000000" font-family="sans-serif" font-size="13" lengthAdjust="spacingAndGlyphs" textLength="48" x="65.5" y="473.4727">Queued</text><rect fill="#EEEEEE" filter="url(#fdp1hnb)" height="3" style="stroke: #EEEEEE; stroke-width: 1.0;" width="1008" x="3" y="506.8701"/><line style="stroke: #000000; stroke-width: 1.0;" x1="3" x2="1011" y1="506.8701" y2="506.8701"/><line style="stroke: #000000; stroke-width: 1.0;" x1="3" x2="1011" y1="509.8701" y2="509.8701"/><rect fill="#EEEEEE" filter="url(#fdp1hnb)" height="23.3105" style="stroke: #000000; stroke-width: 2.0;" width="136" x="439" y="496.2148"/><text fill="#000000" font-family="sans-serif" font-size="13" font-weight="bold" lengthAdjust="spacingAndGlyphs" textLength="118" x="445" y="512.7832">Key Management</text><polygon fill="#A80036" points="484,546.5254,494,550.5254,484,554.5254,488,550.5254" style="stroke: #A80036; stroke-width: 1.0;"/><line style="stroke: #A80036; stroke-width: 1.0;" x1="283" x2="490" y1="550.5254" y2="550.5254"/><text fill="#000000" font-family="sans-serif" font-size="13" font-weight="bold" lengthAdjust="spacingAndGlyphs" textLength="18" x="290" y="546.0938">11</text><text fill="#000000" font-family="sans-serif" font-size="13" lengthAdjust="spacingAndGlyphs" textLength="172" x="312" y="546.0938">Drop Group group@domain</text><polygon fill="#A80036" points="289,575.8359,279,579.8359,289,583.8359,285,579.8359" style="stroke: #A80036; stroke-width: 1.0;"/><line style="stroke: #A80036; stroke-width: 1.0;" x1="283" x2="495" y1="579.8359" y2="579.8359"/><text fill="#000000" font-family="sans-serif" font-size="13" font-weight="bold" lengthAdjust="spacingAndGlyphs" textLength="18" x="295" y="575.4043">12</text><text fill="#000000" font-family="sans-serif" font-size="13" lengthAdjust="spacingAndGlyphs" textLength="48" x="317" y="575.4043">Queued</text><polygon fill="#A80036" points="879,605.1465,889,609.1465,879,613.1465,883,609.1465" style="stroke: #A80036; stroke-width: 1.0;"/><line style="stroke: #A80036; stroke-width: 1.0;" x1="506" x2="885" y1="609.1465" y2="609.1465"/><text fill="#000000" font-family="sans-serif" font-size="13" font-weight="bold" lengthAdjust="spacingAndGlyphs" textLength="18" x="513" y="604.7148">13</text><text fill="#000000" font-family="sans-serif" font-size="13" lengthAdjust="spacingAndGlyphs" textLength="175" x="535" y="604.7148">Drop Principal role@domain</text><polygon fill="#A80036" points="874,634.457,884,638.457,874,642.457,878,638.457" style="stroke: #A80036; stroke-width: 1.0;"/><line style="stroke: #A80036; stroke-width: 1.0;" x1="506" x2="880" y1="638.457" y2="638.457"/><text fill="#000000" font-family="sans-serif" font-size="13" font-weight="bold" lengthAdjust="spacingAndGlyphs" textLength="18" x="513" y="634.0254">14</text><text fill="#000000" font-family="sans-serif" font-size="13" lengthAdjust="spacingAndGlyphs" textLength="204" x="535" y="634.0254">Drop Principals role+...@domain</text><polygon fill="#A80036" points="810,663.7676,820,667.7676,810,671.7676,814,667.7676" style="stroke: #A80036; stroke-width: 1.0;"/><line style="stroke: #A80036; stroke-width: 1.0;" x1="506" x2="816" y1="667.7676" y2="667.7676"/><text fill="#000000" font-family="sans-serif" font-size="13" font-weight="bold" lengthAdjust="spacingAndGlyphs" textLength="18" x="513" y="663.3359">15</text><text fill="#000000" font-family="sans-serif" font-size="13" lengthAdjust="spacingAndGlyphs" textLength="275" x="535" y="663.3359">Drop Layer role@domain AS admin@domain</text><polygon fill="#A80036" points="517,693.0781,507,697.0781,517,701.0781,513,697.0781" style="stroke: #A80036; stroke-width: 1.0;"/><line style="stroke: #A80036; stroke-width: 1.0;" x1="511" x2="890" y1="697.0781" y2="697.0781"/><text fill="#000000" font-family="sans-serif" font-size="13" font-weight="bold" lengthAdjust="spacingAndGlyphs" textLength="18" x="523" y="692.6465">16</text><text fill="#000000" font-family="sans-serif" font-size="13" lengthAdjust="spacingAndGlyphs" textLength="18" x="545" y="692.6465">OK</text><polygon fill="#A80036" points="922.5,722.3887,932.5,726.3887,922.5,730.3887,926.5,726.3887" style="stroke: #A80036; stroke-width: 1.0;"/><line style="stroke: #A80036; stroke-width: 1.0;" x1="506" x2="928.5" y1="726.3887" y2="726.3887"/><text fill="#000000" font-family="sans-serif" font-size="13" font-weight="bold" lengthAdjust="spacingAndGlyphs" textLength="18" x="513" y="721.957">17</text><text fill="#000000" font-family="sans-serif" font-size="13" lengthAdjust="spacingAndGlyphs" textLength="300" x="535" y="721.957">Drop Creds for role@domain AS admin@domain</text><polygon fill="#A80036" points="922.5,751.6992,932.5,755.6992,922.5,759.6992,926.5,755.6992" style="stroke: #A80036; stroke-width: 1.0;"/><line style="stroke: #A80036; stroke-width: 1.0;" x1="506" x2="928.5" y1="755.6992" y2="755.6992"/><text fill="#000000" font-family="sans-serif" font-size="13" font-weight="bold" lengthAdjust="spacingAndGlyphs" textLength="18" x="513" y="751.2676">18</text><text fill="#000000" font-family="sans-serif" font-size="13" lengthAdjust="spacingAndGlyphs" textLength="322" x="535" y="751.2676">Drop Creds for role+...@domain AS admin@domain</text><polygon fill="#A80036" points="922.5,781.0098,932.5,785.0098,922.5,789.0098,926.5,785.0098" style="stroke: #A80036; stroke-width: 1.0;"/><line style="stroke: #A80036; stroke-width: 1.0;" x1="506" x2="928.5" y1="785.0098" y2="785.0098"/><text fill="#000000" font-family="sans-serif" font-size="13" font-weight="bold" lengthAdjust="spacingAndGlyphs" textLength="18" x="513" y="780.5781">19</text><text fill="#000000" font-family="sans-serif" font-size="13" lengthAdjust="spacingAndGlyphs" textLength="259" x="535" y="780.5781">Drop pkcs11:xxx;y;zz AS admin@domain</text><polygon fill="#A80036" points="922.5,810.3203,932.5,814.3203,922.5,818.3203,926.5,814.3203" style="stroke: #A80036; stroke-width: 1.0;"/><line style="stroke: #A80036; stroke-width: 1.0;" x1="506" x2="928.5" y1="814.3203" y2="814.3203"/><text fill="#000000" font-family="sans-serif" font-size="13" font-weight="bold" lengthAdjust="spacingAndGlyphs" textLength="18" x="513" y="809.8887">20</text><text fill="#000000" font-family="sans-serif" font-size="13" lengthAdjust="spacingAndGlyphs" textLength="238" x="535" y="809.8887">Drop role@domain AS admin@domain</text><polygon fill="#A80036" points="922.5,839.6309,932.5,843.6309,922.5,847.6309,926.5,843.6309" style="stroke: #A80036; stroke-width: 1.0;"/><line style="stroke: #A80036; stroke-width: 1.0;" x1="506" x2="928.5" y1="843.6309" y2="843.6309"/><text fill="#000000" font-family="sans-serif" font-size="13" font-weight="bold" lengthAdjust="spacingAndGlyphs" textLength="18" x="513" y="839.1992">21</text><text fill="#000000" font-family="sans-serif" font-size="13" lengthAdjust="spacingAndGlyphs" textLength="260" x="535" y="839.1992">Drop role+...@domain AS admin@domain</text><polygon fill="#0000FF" points="971,873.9414,981,877.9414,971,881.9414,975,877.9414" style="stroke: #0000FF; stroke-width: 1.0;"/><line style="stroke: #0000FF; stroke-width: 1.0; stroke-dasharray: 2.0,2.0;" x1="506" x2="977" y1="877.9414" y2="877.9414"/><text fill="#000000" font-family="sans-serif" font-size="13" font-weight="bold" lengthAdjust="spacingAndGlyphs" textLength="18" x="513" y="873.5098">22</text><text fill="#000000" font-family="sans-serif" font-size="13" lengthAdjust="spacingAndGlyphs" textLength="238" x="535" y="873.5098">Drop TLSA records AS admin@domain</text><polygon fill="#FBFB77" filter="url(#fdp1hnb)" points="343,856.9414,343,881.9414,487,881.9414,487,866.9414,477,856.9414,343,856.9414" style="stroke: #A80036; stroke-width: 1.0;"/><line style="stroke: #A80036; stroke-width: 1.0;" x1="477" x2="477" y1="856.9414" y2="866.9414"/><line style="stroke: #A80036; stroke-width: 1.0;" x1="487" x2="477" y1="866.9414" y2="866.9414"/><text fill="#0000FF" font-family="sans-serif" font-size="13" lengthAdjust="spacingAndGlyphs" textLength="123" x="349" y="874.5098">TLSA only for hosts</text><polygon fill="#0000FF" points="517,908.252,507,912.252,517,916.252,513,912.252" style="stroke: #0000FF; stroke-width: 1.0;"/><line style="stroke: #0000FF; stroke-width: 1.0; stroke-dasharray: 2.0,2.0;" x1="511" x2="987" y1="912.252" y2="912.252"/><text fill="#000000" font-family="sans-serif" font-size="13" font-weight="bold" lengthAdjust="spacingAndGlyphs" textLength="18" x="523" y="907.8203">23</text><text fill="#000000" font-family="sans-serif" font-size="13" lengthAdjust="spacingAndGlyphs" textLength="48" x="545" y="907.8203">Queued</text><polygon fill="#A80036" points="517,937.5625,507,941.5625,517,945.5625,513,941.5625" style="stroke: #A80036; stroke-width: 1.0;"/><line style="stroke: #A80036; stroke-width: 1.0;" x1="511" x2="938.5" y1="941.5625" y2="941.5625"/><text fill="#000000" font-family="sans-serif" font-size="13" font-weight="bold" lengthAdjust="spacingAndGlyphs" textLength="18" x="523" y="937.1309">24</text><text fill="#000000" font-family="sans-serif" font-size="13" lengthAdjust="spacingAndGlyphs" textLength="37" x="545" y="937.1309">Ready</text><polygon fill="#A80036" points="642,966.873,652,970.873,642,974.873,646,970.873" style="stroke: #A80036; stroke-width: 1.0;"/><line style="stroke: #A80036; stroke-width: 1.0;" x1="506" x2="648" y1="970.873" y2="970.873"/><text fill="#000000" font-family="sans-serif" font-size="13" font-weight="bold" lengthAdjust="spacingAndGlyphs" textLength="18" x="513" y="966.4414">25</text><text fill="#000000" font-family="sans-serif" font-size="13" lengthAdjust="spacingAndGlyphs" textLength="74" x="535" y="966.4414">Cache hints</text></g></svg>