<?xml version="1.0" encoding="UTF-8" standalone="no"?><svg xmlns="http://www.w3.org/2000/svg" xmlns:xlink="http://www.w3.org/1999/xlink" contentScriptType="application/ecmascript" contentStyleType="text/css" height="1205px" preserveAspectRatio="none" style="width:992px;height:1205px;" version="1.1" viewBox="0 0 992 1205" width="992px" zoomAndPan="magnify"><defs><filter height="300%" id="fcoyybz" width="300%" x="-1" y="-1"><feGaussianBlur result="blurOut" stdDeviation="2.0"/><feColorMatrix in="blurOut" result="blurOut2" type="matrix" values="0 0 0 0 0 0 0 0 0 0 0 0 0 0 0 0 0 0 .4 0"/><feOffset dx="4.0" dy="4.0" in="blurOut2" result="blurOut3"/><feBlend in="SourceGraphic" in2="blurOut3" mode="normal"/></filter></defs><g><rect fill="#FFFFFF" filter="url(#fcoyybz)" height="360.416" style="stroke: #A80036; stroke-width: 1.0;" width="10" x="21.5" y="117.4883"/><rect fill="#FFFFFF" filter="url(#fcoyybz)" height="29.3105" style="stroke: #A80036; stroke-width: 1.0;" width="10" x="80" y="190.1094"/><rect fill="#FFFFFF" filter="url(#fcoyybz)" height="462.3477" style="stroke: #A80036; stroke-width: 1.0;" width="10" x="273" y="117.4883"/><rect fill="#FFFFFF" filter="url(#fcoyybz)" height="551.9688" style="stroke: #A80036; stroke-width: 1.0;" width="10" x="472" y="550.5254"/><rect fill="#FFFFFF" filter="url(#fcoyybz)" height="28" style="stroke: #A80036; stroke-width: 1.0;" width="10" x="477" y="822.3203"/><rect fill="#FFFFFF" filter="url(#fcoyybz)" height="29.3105" style="stroke: #A80036; stroke-width: 1.0;" width="10" x="711" y="248.7305"/><rect fill="#FFFFFF" filter="url(#fcoyybz)" height="30" style="stroke: #A80036; stroke-width: 1.0;" width="10" x="711" y="1072.4941"/><rect fill="#FFFFFF" filter="url(#fcoyybz)" height="146.5527" style="stroke: #A80036; stroke-width: 1.0;" width="10" x="798" y="638.457"/><rect fill="#FFFFFF" filter="url(#fcoyybz)" height="58.6211" style="stroke: #A80036; stroke-width: 1.0;" width="10" x="862" y="609.1465"/><rect fill="#FFFFFF" filter="url(#fcoyybz)" height="97.9316" style="stroke: #A80036; stroke-width: 1.0;" width="10" x="910.5" y="350.6621"/><rect fill="#FFFFFF" filter="url(#fcoyybz)" height="156.5527" style="stroke: #A80036; stroke-width: 1.0;" width="10" x="910.5" y="886.6309"/><rect fill="#FFFFFF" filter="url(#fcoyybz)" height="34.3105" style="stroke: #A80036; stroke-width: 1.0;" width="10" x="959" y="979.5625"/><line style="stroke: #A80036; stroke-width: 1.0; stroke-dasharray: 5.0,5.0;" x1="26" x2="26" y1="86.4883" y2="1120.8047"/><line style="stroke: #A80036; stroke-width: 1.0; stroke-dasharray: 5.0,5.0;" x1="85" x2="85" y1="86.4883" y2="1120.8047"/><line style="stroke: #A80036; stroke-width: 1.0; stroke-dasharray: 5.0,5.0;" x1="277.5" x2="277.5" y1="86.4883" y2="1120.8047"/><line style="stroke: #A80036; stroke-width: 1.0; stroke-dasharray: 5.0,5.0;" x1="477" x2="477" y1="86.4883" y2="1120.8047"/><line style="stroke: #A80036; stroke-width: 1.0; stroke-dasharray: 5.0,5.0;" x1="715.5" x2="715.5" y1="86.4883" y2="1120.8047"/><line style="stroke: #A80036; stroke-width: 1.0; stroke-dasharray: 5.0,5.0;" x1="803" x2="803" y1="86.4883" y2="1120.8047"/><line style="stroke: #A80036; stroke-width: 1.0; stroke-dasharray: 5.0,5.0;" x1="867" x2="867" y1="86.4883" y2="1120.8047"/><line style="stroke: #A80036; stroke-width: 1.0; stroke-dasharray: 5.0,5.0;" x1="915" x2="915" y1="86.4883" y2="1120.8047"/><line style="stroke: #A80036; stroke-width: 1.0; stroke-dasharray: 5.0,5.0;" x1="964" x2="964" y1="86.4883" y2="1120.8047"/><text fill="#000000" font-family="sans-serif" font-size="14" lengthAdjust="spacingAndGlyphs" textLength="31" x="8" y="83.5352">User</text><ellipse cx="26.5" cy="13" fill="#FEFECE" filter="url(#fcoyybz)" rx="8" ry="8" style="stroke: #A80036; stroke-width: 2.0;"/><path d="M26.5,21 L26.5,48 M13.5,29 L39.5,29 M26.5,48 L13.5,63 M26.5,48 L39.5,63 " fill="#FEFECE" filter="url(#fcoyybz)" style="stroke: #A80036; stroke-width: 2.0;"/><text fill="#000000" font-family="sans-serif" font-size="14" lengthAdjust="spacingAndGlyphs" textLength="31" x="8" y="1133.3398">User</text><ellipse cx="26.5" cy="1146.293" fill="#FEFECE" filter="url(#fcoyybz)" rx="8" ry="8" style="stroke: #A80036; stroke-width: 2.0;"/><path d="M26.5,1154.293 L26.5,1181.293 M13.5,1162.293 L39.5,1162.293 M26.5,1181.293 L13.5,1196.293 M26.5,1181.293 L39.5,1196.293 " fill="#FEFECE" filter="url(#fcoyybz)" style="stroke: #A80036; stroke-width: 2.0;"/><rect fill="#FEFECE" filter="url(#fcoyybz)" height="30.4883" style="stroke: #A80036; stroke-width: 1.5;" width="56" x="55" y="51"/><text fill="#000000" font-family="sans-serif" font-size="14" lengthAdjust="spacingAndGlyphs" textLength="42" x="62" y="71.5352">Authn</text><rect fill="#FEFECE" filter="url(#fcoyybz)" height="30.4883" style="stroke: #A80036; stroke-width: 1.5;" width="56" x="55" y="1119.8047"/><text fill="#000000" font-family="sans-serif" font-size="14" lengthAdjust="spacingAndGlyphs" textLength="42" x="62" y="1140.3398">Authn</text><rect fill="#FEFECE" filter="url(#fcoyybz)" height="30.4883" style="stroke: #A80036; stroke-width: 1.5;" width="111" x="220.5" y="51"/><text fill="#000000" font-family="sans-serif" font-size="14" lengthAdjust="spacingAndGlyphs" textLength="97" x="227.5" y="71.5352">IdHub Control</text><rect fill="#FEFECE" filter="url(#fcoyybz)" height="30.4883" style="stroke: #A80036; stroke-width: 1.5;" width="111" x="220.5" y="1119.8047"/><text fill="#000000" font-family="sans-serif" font-size="14" lengthAdjust="spacingAndGlyphs" textLength="97" x="227.5" y="1140.3398">IdHub Control</text><rect fill="#FEFECE" filter="url(#fcoyybz)" height="30.4883" style="stroke: #A80036; stroke-width: 1.5;" width="102" x="424" y="51"/><text fill="#000000" font-family="sans-serif" font-size="14" lengthAdjust="spacingAndGlyphs" textLength="88" x="431" y="71.5352">Key Manager</text><rect fill="#FEFECE" filter="url(#fcoyybz)" height="30.4883" style="stroke: #A80036; stroke-width: 1.5;" width="102" x="424" y="1119.8047"/><text fill="#000000" font-family="sans-serif" font-size="14" lengthAdjust="spacingAndGlyphs" textLength="88" x="431" y="1140.3398">Key Manager</text><rect fill="#FEFECE" filter="url(#fcoyybz)" height="30.4883" style="stroke: #A80036; stroke-width: 1.5;" width="55" x="686.5" y="51"/><text fill="#000000" font-family="sans-serif" font-size="14" lengthAdjust="spacingAndGlyphs" textLength="41" x="693.5" y="71.5352">Authz</text><rect fill="#FEFECE" filter="url(#fcoyybz)" height="30.4883" style="stroke: #A80036; stroke-width: 1.5;" width="55" x="686.5" y="1119.8047"/><text fill="#000000" font-family="sans-serif" font-size="14" lengthAdjust="spacingAndGlyphs" textLength="41" x="693.5" y="1140.3398">Authz</text><text fill="#000000" font-family="sans-serif" font-size="14" lengthAdjust="spacingAndGlyphs" textLength="66" x="767" y="83.5352">PKCS #11</text><path d="M785,34 C785,24 803,24 803,24 C803,24 821,24 821,34 L821,60 C821,70 803,70 803,70 C803,70 785,70 785,60 L785,34 " fill="#FEFECE" filter="url(#fcoyybz)" style="stroke: #000000; stroke-width: 1.5;"/><path d="M785,34 C785,44 803,44 803,44 C803,44 821,44 821,34 " fill="none" style="stroke: #000000; stroke-width: 1.5;"/><text fill="#000000" font-family="sans-serif" font-size="14" lengthAdjust="spacingAndGlyphs" textLength="66" x="767" y="1133.3398">PKCS #11</text><path d="M785,1146.293 C785,1136.293 803,1136.293 803,1136.293 C803,1136.293 821,1136.293 821,1146.293 L821,1172.293 C821,1182.293 803,1182.293 803,1182.293 C803,1182.293 785,1182.293 785,1172.293 L785,1146.293 " fill="#FEFECE" filter="url(#fcoyybz)" style="stroke: #000000; stroke-width: 1.5;"/><path d="M785,1146.293 C785,1156.293 803,1156.293 803,1156.293 C803,1156.293 821,1156.293 821,1146.293 " fill="none" style="stroke: #000000; stroke-width: 1.5;"/><text fill="#000000" font-family="sans-serif" font-size="14" lengthAdjust="spacingAndGlyphs" textLength="29" x="849.5" y="83.5352">KDC</text><path d="M849,34 C849,24 867,24 867,24 C867,24 885,24 885,34 L885,60 C885,70 867,70 867,70 C867,70 849,70 849,60 L849,34 " fill="#FEFECE" filter="url(#fcoyybz)" style="stroke: #000000; stroke-width: 1.5;"/><path d="M849,34 C849,44 867,44 867,44 C867,44 885,44 885,34 " fill="none" style="stroke: #000000; stroke-width: 1.5;"/><text fill="#000000" font-family="sans-serif" font-size="14" lengthAdjust="spacingAndGlyphs" textLength="29" x="849.5" y="1133.3398">KDC</text><path d="M849,1146.293 C849,1136.293 867,1136.293 867,1136.293 C867,1136.293 885,1136.293 885,1146.293 L885,1172.293 C885,1182.293 867,1182.293 867,1182.293 C867,1182.293 849,1182.293 849,1172.293 L849,1146.293 " fill="#FEFECE" filter="url(#fcoyybz)" style="stroke: #000000; stroke-width: 1.5;"/><path d="M849,1146.293 C849,1156.293 867,1156.293 867,1156.293 C867,1156.293 885,1156.293 885,1146.293 " fill="none" style="stroke: #000000; stroke-width: 1.5;"/><text fill="#000000" font-family="sans-serif" font-size="14" lengthAdjust="spacingAndGlyphs" textLength="35" x="895" y="83.5352">LDAP</text><path d="M897.5,34 C897.5,24 915.5,24 915.5,24 C915.5,24 933.5,24 933.5,34 L933.5,60 C933.5,70 915.5,70 915.5,70 C915.5,70 897.5,70 897.5,60 L897.5,34 " fill="#FEFECE" filter="url(#fcoyybz)" style="stroke: #000000; stroke-width: 1.5;"/><path d="M897.5,34 C897.5,44 915.5,44 915.5,44 C915.5,44 933.5,44 933.5,34 " fill="none" style="stroke: #000000; stroke-width: 1.5;"/><text fill="#000000" font-family="sans-serif" font-size="14" lengthAdjust="spacingAndGlyphs" textLength="35" x="895" y="1133.3398">LDAP</text><path d="M897.5,1146.293 C897.5,1136.293 915.5,1136.293 915.5,1136.293 C915.5,1136.293 933.5,1136.293 933.5,1146.293 L933.5,1172.293 C933.5,1182.293 915.5,1182.293 915.5,1182.293 C915.5,1182.293 897.5,1182.293 897.5,1172.293 L897.5,1146.293 " fill="#FEFECE" filter="url(#fcoyybz)" style="stroke: #000000; stroke-width: 1.5;"/><path d="M897.5,1146.293 C897.5,1156.293 915.5,1156.293 915.5,1156.293 C915.5,1156.293 933.5,1156.293 933.5,1146.293 " fill="none" style="stroke: #000000; stroke-width: 1.5;"/><text fill="#000000" font-family="sans-serif" font-size="14" lengthAdjust="spacingAndGlyphs" textLength="28" x="947" y="83.5352">DNS</text><path d="M946,34 C946,24 964,24 964,24 C964,24 982,24 982,34 L982,60 C982,70 964,70 964,70 C964,70 946,70 946,60 L946,34 " fill="#FEFECE" filter="url(#fcoyybz)" style="stroke: #000000; stroke-width: 1.5;"/><path d="M946,34 C946,44 964,44 964,44 C964,44 982,44 982,34 " fill="none" style="stroke: #000000; stroke-width: 1.5;"/><text fill="#000000" font-family="sans-serif" font-size="14" lengthAdjust="spacingAndGlyphs" textLength="28" x="947" y="1133.3398">DNS</text><path d="M946,1146.293 C946,1136.293 964,1136.293 964,1136.293 C964,1136.293 982,1136.293 982,1146.293 L982,1172.293 C982,1182.293 964,1182.293 964,1182.293 C964,1182.293 946,1182.293 946,1172.293 L946,1146.293 " fill="#FEFECE" filter="url(#fcoyybz)" style="stroke: #000000; stroke-width: 1.5;"/><path d="M946,1146.293 C946,1156.293 964,1156.293 964,1156.293 C964,1156.293 982,1156.293 982,1146.293 " fill="none" style="stroke: #000000; stroke-width: 1.5;"/><rect fill="#FFFFFF" filter="url(#fcoyybz)" height="360.416" style="stroke: #A80036; stroke-width: 1.0;" width="10" x="21.5" y="117.4883"/><rect fill="#FFFFFF" filter="url(#fcoyybz)" height="29.3105" style="stroke: #A80036; stroke-width: 1.0;" width="10" x="80" y="190.1094"/><rect fill="#FFFFFF" filter="url(#fcoyybz)" height="462.3477" style="stroke: #A80036; stroke-width: 1.0;" width="10" x="273" y="117.4883"/><rect fill="#FFFFFF" filter="url(#fcoyybz)" height="551.9688" style="stroke: #A80036; stroke-width: 1.0;" width="10" x="472" y="550.5254"/><rect fill="#FFFFFF" filter="url(#fcoyybz)" height="28" style="stroke: #A80036; stroke-width: 1.0;" width="10" x="477" y="822.3203"/><rect fill="#FFFFFF" filter="url(#fcoyybz)" height="29.3105" style="stroke: #A80036; stroke-width: 1.0;" width="10" x="711" y="248.7305"/><rect fill="#FFFFFF" filter="url(#fcoyybz)" height="30" style="stroke: #A80036; stroke-width: 1.0;" width="10" x="711" y="1072.4941"/><rect fill="#FFFFFF" filter="url(#fcoyybz)" height="146.5527" style="stroke: #A80036; stroke-width: 1.0;" width="10" x="798" y="638.457"/><rect fill="#FFFFFF" filter="url(#fcoyybz)" height="58.6211" style="stroke: #A80036; stroke-width: 1.0;" width="10" x="862" y="609.1465"/><rect fill="#FFFFFF" filter="url(#fcoyybz)" height="97.9316" style="stroke: #A80036; stroke-width: 1.0;" width="10" x="910.5" y="350.6621"/><rect fill="#FFFFFF" filter="url(#fcoyybz)" height="156.5527" style="stroke: #A80036; stroke-width: 1.0;" width="10" x="910.5" y="886.6309"/><rect fill="#FFFFFF" filter="url(#fcoyybz)" height="34.3105" style="stroke: #A80036; stroke-width: 1.0;" width="10" x="959" y="979.5625"/><polygon fill="#A80036" points="261,113.4883,271,117.4883,261,121.4883,265,117.4883" style="stroke: #A80036; stroke-width: 1.0;"/><line style="stroke: #A80036; stroke-width: 1.0;" x1="31.5" x2="267" y1="117.4883" y2="117.4883"/><text fill="#000000" font-family="sans-serif" font-size="13" font-weight="bold" lengthAdjust="spacingAndGlyphs" textLength="9" x="38.5" y="113.0566">1</text><text fill="#000000" font-family="sans-serif" font-size="13" lengthAdjust="spacingAndGlyphs" textLength="142" x="51.5" y="113.0566">Role Add role@domain</text><rect fill="#EEEEEE" filter="url(#fcoyybz)" height="3" style="stroke: #EEEEEE; stroke-width: 1.0;" width="984" x="3" y="146.4541"/><line style="stroke: #000000; stroke-width: 1.0;" x1="3" x2="987" y1="146.4541" y2="146.4541"/><line style="stroke: #000000; stroke-width: 1.0;" x1="3" x2="987" y1="149.4541" y2="149.4541"/><rect fill="#EEEEEE" filter="url(#fcoyybz)" height="23.3105" style="stroke: #000000; stroke-width: 2.0;" width="117" x="436.5" y="135.7988"/><text fill="#000000" font-family="sans-serif" font-size="13" font-weight="bold" lengthAdjust="spacingAndGlyphs" textLength="99" x="442.5" y="152.3672">Access Control</text><polygon fill="#A80036" points="101,186.1094,91,190.1094,101,194.1094,97,190.1094" style="stroke: #A80036; stroke-width: 1.0;"/><line style="stroke: #A80036; stroke-width: 1.0;" x1="95" x2="272" y1="190.1094" y2="190.1094"/><text fill="#000000" font-family="sans-serif" font-size="13" font-weight="bold" lengthAdjust="spacingAndGlyphs" textLength="9" x="107" y="185.6777">2</text><text fill="#000000" font-family="sans-serif" font-size="13" lengthAdjust="spacingAndGlyphs" textLength="136" x="120" y="185.6777">SecureLayer @domain</text><polygon fill="#A80036" points="261,215.4199,271,219.4199,261,223.4199,265,219.4199" style="stroke: #A80036; stroke-width: 1.0;"/><line style="stroke: #A80036; stroke-width: 1.0;" x1="85" x2="267" y1="219.4199" y2="219.4199"/><text fill="#000000" font-family="sans-serif" font-size="13" font-weight="bold" lengthAdjust="spacingAndGlyphs" textLength="9" x="92" y="214.9883">3</text><text fill="#000000" font-family="sans-serif" font-size="13" lengthAdjust="spacingAndGlyphs" textLength="146" x="105" y="214.9883">RemoteID you@domain</text><polygon fill="#A80036" points="699,244.7305,709,248.7305,699,252.7305,703,248.7305" style="stroke: #A80036; stroke-width: 1.0;"/><line style="stroke: #A80036; stroke-width: 1.0;" x1="283" x2="705" y1="248.7305" y2="248.7305"/><text fill="#000000" font-family="sans-serif" font-size="13" font-weight="bold" lengthAdjust="spacingAndGlyphs" textLength="9" x="290" y="244.2988">4</text><text fill="#000000" font-family="sans-serif" font-size="13" lengthAdjust="spacingAndGlyphs" textLength="315" x="303" y="244.2988">WANT roleid-create ON @domain AS you@domain</text><polygon fill="#A80036" points="294,274.041,284,278.041,294,282.041,290,278.041" style="stroke: #A80036; stroke-width: 1.0;"/><line style="stroke: #A80036; stroke-width: 1.0;" x1="288" x2="715" y1="278.041" y2="278.041"/><text fill="#000000" font-family="sans-serif" font-size="13" font-weight="bold" lengthAdjust="spacingAndGlyphs" textLength="9" x="300" y="273.6094">5</text><text fill="#000000" font-family="sans-serif" font-size="13" lengthAdjust="spacingAndGlyphs" textLength="148" x="313" y="273.6094">OK FOR admin@domain</text><rect fill="#EEEEEE" filter="url(#fcoyybz)" height="3" style="stroke: #EEEEEE; stroke-width: 1.0;" width="984" x="3" y="307.0068"/><line style="stroke: #000000; stroke-width: 1.0;" x1="3" x2="987" y1="307.0068" y2="307.0068"/><line style="stroke: #000000; stroke-width: 1.0;" x1="3" x2="987" y1="310.0068" y2="310.0068"/><rect fill="#EEEEEE" filter="url(#fcoyybz)" height="23.3105" style="stroke: #000000; stroke-width: 2.0;" width="104" x="443" y="296.3516"/><text fill="#000000" font-family="sans-serif" font-size="13" font-weight="bold" lengthAdjust="spacingAndGlyphs" textLength="86" x="449" y="312.9199">Sanity Check</text><polygon fill="#A80036" points="898.5,346.6621,908.5,350.6621,898.5,354.6621,902.5,350.6621" style="stroke: #A80036; stroke-width: 1.0;"/><line style="stroke: #A80036; stroke-width: 1.0;" x1="283" x2="904.5" y1="350.6621" y2="350.6621"/><text fill="#000000" font-family="sans-serif" font-size="13" font-weight="bold" lengthAdjust="spacingAndGlyphs" textLength="9" x="290" y="346.2305">6</text><text fill="#000000" font-family="sans-serif" font-size="13" lengthAdjust="spacingAndGlyphs" textLength="275" x="303" y="346.2305">Compare roleid@domain AS admin@domain</text><polygon fill="#0000FF" points="294,380.9727,284,384.9727,294,388.9727,290,384.9727" style="stroke: #0000FF; stroke-width: 1.0;"/><line style="stroke: #0000FF; stroke-width: 1.0; stroke-dasharray: 2.0,2.0;" x1="288" x2="909.5" y1="384.9727" y2="384.9727"/><text fill="#000000" font-family="sans-serif" font-size="13" font-weight="bold" lengthAdjust="spacingAndGlyphs" textLength="9" x="300" y="380.541">7</text><text fill="#000000" font-family="sans-serif" font-size="13" lengthAdjust="spacingAndGlyphs" textLength="85" x="313" y="380.541">UserID Found</text><polygon fill="#FBFB77" filter="url(#fcoyybz)" points="74,363.9727,74,388.9727,264,388.9727,264,373.9727,254,363.9727,74,363.9727" style="stroke: #A80036; stroke-width: 1.0;"/><line style="stroke: #A80036; stroke-width: 1.0;" x1="254" x2="254" y1="363.9727" y2="373.9727"/><line style="stroke: #A80036; stroke-width: 1.0;" x1="264" x2="254" y1="373.9727" y2="373.9727"/><text fill="#0000FF" font-family="sans-serif" font-size="13" lengthAdjust="spacingAndGlyphs" textLength="169" x="80" y="381.541">Alternative flow, fatal error</text><polygon fill="#0000FF" points="42.5,415.2832,32.5,419.2832,42.5,423.2832,38.5,419.2832" style="stroke: #0000FF; stroke-width: 1.0;"/><line style="stroke: #0000FF; stroke-width: 1.0; stroke-dasharray: 2.0,2.0;" x1="36.5" x2="272" y1="419.2832" y2="419.2832"/><text fill="#000000" font-family="sans-serif" font-size="13" font-weight="bold" lengthAdjust="spacingAndGlyphs" textLength="9" x="48.5" y="414.8516">8</text><text fill="#000000" font-family="sans-serif" font-size="13" lengthAdjust="spacingAndGlyphs" textLength="89" x="61.5" y="414.8516">Already Exists</text><polygon fill="#A80036" points="294,444.5938,284,448.5938,294,452.5938,290,448.5938" style="stroke: #A80036; stroke-width: 1.0;"/><line style="stroke: #A80036; stroke-width: 1.0;" x1="288" x2="914.5" y1="448.5938" y2="448.5938"/><text fill="#000000" font-family="sans-serif" font-size="13" font-weight="bold" lengthAdjust="spacingAndGlyphs" textLength="9" x="300" y="444.1621">9</text><text fill="#000000" font-family="sans-serif" font-size="13" lengthAdjust="spacingAndGlyphs" textLength="112" x="313" y="444.1621">UserID Not Found</text><polygon fill="#A80036" points="37.5,473.9043,27.5,477.9043,37.5,481.9043,33.5,477.9043" style="stroke: #A80036; stroke-width: 1.0;"/><line style="stroke: #A80036; stroke-width: 1.0;" x1="31.5" x2="272" y1="477.9043" y2="477.9043"/><text fill="#000000" font-family="sans-serif" font-size="13" font-weight="bold" lengthAdjust="spacingAndGlyphs" textLength="18" x="43.5" y="473.4727">10</text><text fill="#000000" font-family="sans-serif" font-size="13" lengthAdjust="spacingAndGlyphs" textLength="48" x="65.5" y="473.4727">Queued</text><rect fill="#EEEEEE" filter="url(#fcoyybz)" height="3" style="stroke: #EEEEEE; stroke-width: 1.0;" width="984" x="3" y="506.8701"/><line style="stroke: #000000; stroke-width: 1.0;" x1="3" x2="987" y1="506.8701" y2="506.8701"/><line style="stroke: #000000; stroke-width: 1.0;" x1="3" x2="987" y1="509.8701" y2="509.8701"/><rect fill="#EEEEEE" filter="url(#fcoyybz)" height="23.3105" style="stroke: #000000; stroke-width: 2.0;" width="136" x="427" y="496.2148"/><text fill="#000000" font-family="sans-serif" font-size="13" font-weight="bold" lengthAdjust="spacingAndGlyphs" textLength="118" x="433" y="512.7832">Key Management</text><polygon fill="#A80036" points="460,546.5254,470,550.5254,460,554.5254,464,550.5254" style="stroke: #A80036; stroke-width: 1.0;"/><line style="stroke: #A80036; stroke-width: 1.0;" x1="283" x2="466" y1="550.5254" y2="550.5254"/><text fill="#000000" font-family="sans-serif" font-size="13" font-weight="bold" lengthAdjust="spacingAndGlyphs" textLength="18" x="290" y="546.0938">11</text><text fill="#000000" font-family="sans-serif" font-size="13" lengthAdjust="spacingAndGlyphs" textLength="148" x="312" y="546.0938">Have Role role@domain</text><polygon fill="#A80036" points="289,575.8359,279,579.8359,289,583.8359,285,579.8359" style="stroke: #A80036; stroke-width: 1.0;"/><line style="stroke: #A80036; stroke-width: 1.0;" x1="283" x2="471" y1="579.8359" y2="579.8359"/><text fill="#000000" font-family="sans-serif" font-size="13" font-weight="bold" lengthAdjust="spacingAndGlyphs" textLength="18" x="295" y="575.4043">12</text><text fill="#000000" font-family="sans-serif" font-size="13" lengthAdjust="spacingAndGlyphs" textLength="48" x="317" y="575.4043">Queued</text><polygon fill="#A80036" points="850,605.1465,860,609.1465,850,613.1465,854,609.1465" style="stroke: #A80036; stroke-width: 1.0;"/><line style="stroke: #A80036; stroke-width: 1.0;" x1="482" x2="856" y1="609.1465" y2="609.1465"/><text fill="#000000" font-family="sans-serif" font-size="13" font-weight="bold" lengthAdjust="spacingAndGlyphs" textLength="18" x="489" y="604.7148">13</text><text fill="#000000" font-family="sans-serif" font-size="13" lengthAdjust="spacingAndGlyphs" textLength="175" x="511" y="604.7148">Have Principal role@domain</text><polygon fill="#A80036" points="786,634.457,796,638.457,786,642.457,790,638.457" style="stroke: #A80036; stroke-width: 1.0;"/><line style="stroke: #A80036; stroke-width: 1.0;" x1="482" x2="792" y1="638.457" y2="638.457"/><text fill="#000000" font-family="sans-serif" font-size="13" font-weight="bold" lengthAdjust="spacingAndGlyphs" textLength="18" x="489" y="634.0254">14</text><text fill="#000000" font-family="sans-serif" font-size="13" lengthAdjust="spacingAndGlyphs" textLength="275" x="511" y="634.0254">Have Layer role@domain AS admin@domain</text><polygon fill="#A80036" points="493,663.7676,483,667.7676,493,671.7676,489,667.7676" style="stroke: #A80036; stroke-width: 1.0;"/><line style="stroke: #A80036; stroke-width: 1.0;" x1="487" x2="866" y1="667.7676" y2="667.7676"/><text fill="#000000" font-family="sans-serif" font-size="13" font-weight="bold" lengthAdjust="spacingAndGlyphs" textLength="18" x="499" y="663.3359">15</text><text fill="#000000" font-family="sans-serif" font-size="13" lengthAdjust="spacingAndGlyphs" textLength="18" x="521" y="663.3359">OK</text><polygon fill="#A80036" points="786,693.0781,796,697.0781,786,701.0781,790,697.0781" style="stroke: #A80036; stroke-width: 1.0;"/><line style="stroke: #A80036; stroke-width: 1.0;" x1="482" x2="792" y1="697.0781" y2="697.0781"/><text fill="#000000" font-family="sans-serif" font-size="13" font-weight="bold" lengthAdjust="spacingAndGlyphs" textLength="18" x="489" y="692.6465">16</text><text fill="#000000" font-family="sans-serif" font-size="13" lengthAdjust="spacingAndGlyphs" textLength="150" x="511" y="692.6465">Have Keys role@domain</text><polygon fill="#A80036" points="493,722.3887,483,726.3887,493,730.3887,489,726.3887" style="stroke: #A80036; stroke-width: 1.0;"/><line style="stroke: #A80036; stroke-width: 1.0;" x1="487" x2="797" y1="726.3887" y2="726.3887"/><text fill="#000000" font-family="sans-serif" font-size="13" font-weight="bold" lengthAdjust="spacingAndGlyphs" textLength="18" x="499" y="721.957">17</text><text fill="#000000" font-family="sans-serif" font-size="13" lengthAdjust="spacingAndGlyphs" textLength="140" x="521" y="721.957">Made pkcs11:xxx;y;zz</text><polygon fill="#A80036" points="786,751.6992,796,755.6992,786,759.6992,790,755.6992" style="stroke: #A80036; stroke-width: 1.0;"/><line style="stroke: #A80036; stroke-width: 1.0;" x1="482" x2="792" y1="755.6992" y2="755.6992"/><text fill="#000000" font-family="sans-serif" font-size="13" font-weight="bold" lengthAdjust="spacingAndGlyphs" textLength="18" x="489" y="751.2676">18</text><text fill="#000000" font-family="sans-serif" font-size="13" lengthAdjust="spacingAndGlyphs" textLength="136" x="511" y="751.2676">Retrieve role@domain</text><polygon fill="#A80036" points="493,781.0098,483,785.0098,493,789.0098,489,785.0098" style="stroke: #A80036; stroke-width: 1.0;"/><line style="stroke: #A80036; stroke-width: 1.0;" x1="487" x2="802" y1="785.0098" y2="785.0098"/><text fill="#000000" font-family="sans-serif" font-size="13" font-weight="bold" lengthAdjust="spacingAndGlyphs" textLength="18" x="499" y="780.5781">19</text><text fill="#000000" font-family="sans-serif" font-size="13" lengthAdjust="spacingAndGlyphs" textLength="136" x="521" y="780.5781">PubKey MIIEVzCCAz...</text><line style="stroke: #A80036; stroke-width: 1.0;" x1="487" x2="529" y1="814.6309" y2="814.6309"/><line style="stroke: #A80036; stroke-width: 1.0;" x1="529" x2="529" y1="814.6309" y2="827.6309"/><line style="stroke: #A80036; stroke-width: 1.0;" x1="488" x2="529" y1="827.6309" y2="827.6309"/><polygon fill="#A80036" points="498,823.6309,488,827.6309,498,831.6309,494,827.6309" style="stroke: #A80036; stroke-width: 1.0;"/><text fill="#000000" font-family="sans-serif" font-size="13" font-weight="bold" lengthAdjust="spacingAndGlyphs" textLength="18" x="494" y="809.8887">20</text><text fill="#000000" font-family="sans-serif" font-size="13" lengthAdjust="spacingAndGlyphs" textLength="193" x="516" y="809.8887">PubKey MIIEVzCCAz... to Creds</text><polygon fill="#A80036" points="898.5,882.6309,908.5,886.6309,898.5,890.6309,902.5,886.6309" style="stroke: #A80036; stroke-width: 1.0;"/><line style="stroke: #A80036; stroke-width: 1.0;" x1="482" x2="904.5" y1="886.6309" y2="886.6309"/><text fill="#000000" font-family="sans-serif" font-size="13" font-weight="bold" lengthAdjust="spacingAndGlyphs" textLength="18" x="489" y="882.1992">21</text><text fill="#000000" font-family="sans-serif" font-size="13" lengthAdjust="spacingAndGlyphs" textLength="300" x="511" y="882.1992">Have role@domain XS public AS admin@domain</text><polygon fill="#A80036" points="898.5,911.9414,908.5,915.9414,898.5,919.9414,902.5,915.9414" style="stroke: #A80036; stroke-width: 1.0;"/><line style="stroke: #A80036; stroke-width: 1.0;" x1="482" x2="904.5" y1="915.9414" y2="915.9414"/><text fill="#000000" font-family="sans-serif" font-size="13" font-weight="bold" lengthAdjust="spacingAndGlyphs" textLength="18" x="489" y="911.5098">22</text><text fill="#000000" font-family="sans-serif" font-size="13" lengthAdjust="spacingAndGlyphs" textLength="362" x="511" y="911.5098">Have Creds for role@domain XS public AS admin@domain</text><polygon fill="#A80036" points="898.5,941.252,908.5,945.252,898.5,949.252,902.5,945.252" style="stroke: #A80036; stroke-width: 1.0;"/><line style="stroke: #A80036; stroke-width: 1.0;" x1="482" x2="904.5" y1="945.252" y2="945.252"/><text fill="#000000" font-family="sans-serif" font-size="13" font-weight="bold" lengthAdjust="spacingAndGlyphs" textLength="18" x="489" y="940.8203">23</text><text fill="#000000" font-family="sans-serif" font-size="13" lengthAdjust="spacingAndGlyphs" textLength="364" x="511" y="940.8203">Have pkcs11:xxx;y;zz XS role@domain AS admin@domain</text><polygon fill="#0000FF" points="947,975.5625,957,979.5625,947,983.5625,951,979.5625" style="stroke: #0000FF; stroke-width: 1.0;"/><line style="stroke: #0000FF; stroke-width: 1.0; stroke-dasharray: 2.0,2.0;" x1="482" x2="953" y1="979.5625" y2="979.5625"/><text fill="#000000" font-family="sans-serif" font-size="13" font-weight="bold" lengthAdjust="spacingAndGlyphs" textLength="18" x="489" y="975.1309">24</text><text fill="#000000" font-family="sans-serif" font-size="13" lengthAdjust="spacingAndGlyphs" textLength="238" x="511" y="975.1309">Have TLSA records AS admin@domain</text><polygon fill="#FBFB77" filter="url(#fcoyybz)" points="319,958.5625,319,983.5625,463,983.5625,463,968.5625,453,958.5625,319,958.5625" style="stroke: #A80036; stroke-width: 1.0;"/><line style="stroke: #A80036; stroke-width: 1.0;" x1="453" x2="453" y1="958.5625" y2="968.5625"/><line style="stroke: #A80036; stroke-width: 1.0;" x1="463" x2="453" y1="968.5625" y2="968.5625"/><text fill="#0000FF" font-family="sans-serif" font-size="13" lengthAdjust="spacingAndGlyphs" textLength="123" x="325" y="976.1309">TLSA only for hosts</text><polygon fill="#0000FF" points="493,1009.873,483,1013.873,493,1017.873,489,1013.873" style="stroke: #0000FF; stroke-width: 1.0;"/><line style="stroke: #0000FF; stroke-width: 1.0; stroke-dasharray: 2.0,2.0;" x1="487" x2="963" y1="1013.873" y2="1013.873"/><text fill="#000000" font-family="sans-serif" font-size="13" font-weight="bold" lengthAdjust="spacingAndGlyphs" textLength="18" x="499" y="1009.4414">25</text><text fill="#000000" font-family="sans-serif" font-size="13" lengthAdjust="spacingAndGlyphs" textLength="48" x="521" y="1009.4414">Queued</text><polygon fill="#A80036" points="493,1039.1836,483,1043.1836,493,1047.1836,489,1043.1836" style="stroke: #A80036; stroke-width: 1.0;"/><line style="stroke: #A80036; stroke-width: 1.0;" x1="487" x2="914.5" y1="1043.1836" y2="1043.1836"/><text fill="#000000" font-family="sans-serif" font-size="13" font-weight="bold" lengthAdjust="spacingAndGlyphs" textLength="18" x="499" y="1038.752">26</text><text fill="#000000" font-family="sans-serif" font-size="13" lengthAdjust="spacingAndGlyphs" textLength="37" x="521" y="1038.752">Ready</text><polygon fill="#A80036" points="699,1068.4941,709,1072.4941,699,1076.4941,703,1072.4941" style="stroke: #A80036; stroke-width: 1.0;"/><line style="stroke: #A80036; stroke-width: 1.0;" x1="482" x2="705" y1="1072.4941" y2="1072.4941"/><text fill="#000000" font-family="sans-serif" font-size="13" font-weight="bold" lengthAdjust="spacingAndGlyphs" textLength="18" x="489" y="1068.0625">27</text><text fill="#000000" font-family="sans-serif" font-size="13" lengthAdjust="spacingAndGlyphs" textLength="74" x="511" y="1068.0625">Cache hints</text></g></svg>